/* XPM */
static char *_ca06f57e024ae7bf2fe07727e98454FE5dQiQFR32bsm8d[] = {
/* columns rows colors chars-per-pixel */
"25 19 194 2 ",
"   c #030303",
".  c #0E0A07",
"X  c #0B0B0B",
"o  c #090A09",
"O  c #130F0E",
"+  c #1C0C0D",
"@  c #0E100E",
"#  c #16120F",
"$  c #0D1313",
"%  c #131313",
"&  c #1A1613",
"*  c #161817",
"=  c #1A1916",
"-  c #131419",
";  c #161A1A",
":  c #1B1B1C",
">  c #23140F",
",  c #241711",
"<  c #2D1817",
"1  c #27171A",
"2  c #2C1619",
"3  c #231B1A",
"4  c #291E1A",
"5  c #381011",
"6  c #3F161E",
"7  c #212117",
"8  c #25221D",
"9  c #2C251D",
"0  c #35271A",
"q  c #1F1F21",
"w  c #1F2523",
"e  c #242222",
"r  c #282625",
"t  c #2E2C2A",
"y  c #302F2A",
"u  c #3F2224",
"i  c #34312C",
"p  c #3A332D",
"a  c #312F30",
"s  c #353533",
"d  c #3D3933",
"f  c #3B3A39",
"g  c #363A3B",
"h  c #401A19",
"j  c #441A23",
"k  c #4D1E24",
"l  c #402126",
"z  c #4F2026",
"x  c #482A2B",
"c  c #54262A",
"v  c #5A2C2E",
"b  c #542B2B",
"n  c #40362C",
"m  c #483F2E",
"M  c #443424",
"N  c #493034",
"B  c #423C33",
"V  c #4B3D33",
"C  c #4C3638",
"Z  c #493F3D",
"A  c #5C3031",
"S  c #533034",
"D  c #4C4435",
"F  c #45423A",
"G  c #4A443C",
"H  c #52453C",
"J  c #54493E",
"K  c #594C3F",
"L  c #403E41",
"P  c #444445",
"I  c #4B4642",
"U  c #4F4B40",
"Y  c #4F4B4A",
"T  c #544C43",
"R  c #5A4D43",
"E  c #534B48",
"W  c #5A5045",
"Q  c #56524F",
"!  c #5D534C",
"~  c #5C584D",
"^  c #4F4D50",
"/  c #565351",
"(  c #5B5756",
")  c #59575A",
"_  c #5A5859",
"`  c #654B44",
"'  c #615446",
"]  c #62554A",
"[  c #635A4D",
"{  c #775848",
"}  c #645C54",
"|  c #695E54",
" . c #735E51",
".. c #735555",
"X. c #6E6153",
"o. c #6C625A",
"O. c #736455",
"+. c #736856",
"@. c #746659",
"#. c #78645A",
"$. c #76695E",
"%. c #7C6C5C",
"&. c #796A55",
"*. c #646263",
"=. c #686262",
"-. c #6F6D6E",
";. c #756D64",
":. c #7D6E62",
">. c #756F6C",
",. c #7C7365",
"<. c #7D766C",
"1. c #7A7572",
"2. c #7B7778",
"3. c #747474",
"4. c #835C5F",
"5. c #816E5D",
"6. c #87695A",
"7. c #84725E",
"8. c #906869",
"9. c #857363",
"0. c #88786B",
"q. c #8C7A66",
"w. c #837C74",
"e. c #8A8277",
"r. c #89827A",
"t. c #8E8A7F",
"y. c #908071",
"u. c #988775",
"i. c #948B7D",
"p. c gray53",
"a. c #8D8683",
"s. c #8F8A87",
"d. c #8F8E8A",
"f. c #908684",
"g. c #938C83",
"h. c #9C8F83",
"j. c #9C988F",
"k. c #979287",
"l. c #9A9697",
"z. c #A09080",
"x. c #A09788",
"c. c #AC9E8E",
"v. c #A19A93",
"b. c #A39C9B",
"n. c #A1A197",
"m. c #ABA294",
"M. c #ACA39E",
"N. c #B5AB9F",
"B. c #B4A494",
"V. c #A19CA0",
"C. c #A5A1A0",
"Z. c #AAA5A5",
"A. c #B5ADA3",
"S. c #B4AFAC",
"D. c #B6B2AA",
"F. c #BDB6AC",
"G. c #B5B2A3",
"H. c #B8B7B5",
"J. c #B7B6BB",
"K. c #BCBCBC",
"L. c #B8B7B5",
"P. c #CABDAD",
"I. c #C3BDAD",
"U. c #C5BCB1",
"Y. c #C6BDB8",
"T. c #C7C2BC",
"R. c #C9C3B6",
"E. c #D1C5B6",
"W. c #D8CBBB",
"Q. c #CDC9C6",
"!. c #C9CBCB",
"~. c #C6C4C6",
"^. c #D1CDC2",
"/. c #DCD6CC",
"(. c #D0D0D2",
"). c #D8D7D3",
"_. c #D7D7DA",
"`. c #DDDDD3",
"'. c #E1D8C7",
"]. c #E6D6C9",
"[. c #EEDED1",
"{. c #E4DFDB",
"}. c #E4E3DC",
"|. c #ECE3DC",
" X c #E7E3E2",
".X c #EFECE4",
"XX c #EEEBEC",
"oX c #F1EEE5",
"OX c #F5F3EB",
"+X c #FAF7EF",
"@X c #FBF4EB",
"#X c #FFFCF5",
"$X c #FFFEFD",
"%X c #F5F4F0",
/* pixels */
"J J H | } T 9 8 7 r 8 e r r t d i s t s s y d d d ",
"J H J R ! R T G F G B G B F B Z G G B F G T T ! o.",
"h.y.@.K ' R R R R ] W W [ W ] R W T R K W R R [ | ",
"5.5.O.%.:.O.@.%.%.O.$.| ! X.%.&.$.@.O.%.O.%.O.@.O.",
"q.9.%.9.].[.0.O.O.:.V > , 9 ' +.X.%.#. .O.O.O.O.O.",
"u.%.X.,.,.i.$.O.o.| 0 z.c.] , E O.O.[ @.:.o.] ' ] ",
"B.c.N.<.h.W n U.A.,.M 7.O.V & V.E.U.a.S.$X}.o.J v.",
"E.x.@XA.w.} B A.R.'.O. .` H p K./.T.Q.~.$X XD.k.+X",
"W.e.OX}.n.U B M.).|.i.6.{ D ! !.U.F.A.g..X`.G.,.I.",
"P.U.oXOX#X~ 9 /.%X#Xk.6.{ m Q K.F.M.w.e.{./.A.[ m.",
"P.m..X}.+Xt.B @XXXd.9 #.` B & s 1.M.b.>. XQ.Y.;.w.",
"m.[ /.D.^.g.F T.P @ & < x 4 O - = I 1.a.XX~.b.o.f.",
"@.[ k.r.j.;.F F @ w 3 2 u + * : ; X f 3.J.(.Z.I Z.",
"@.e.;.w.g.o.d : % $ 1 x S C * - $ X % X g _.p.Y s.",
"| W <.I w.w.Q ; * ; N 4.8...* - % X O   s !.Z.( Q ",
"T G v.3 ! I r q % ; l A v b % $ X o #   f _.l./ / ",
"i 8 s %   % r = $ + 5 h z j O @ X X X X a H.C.>.=.",
"& .   e e t f r o 2 c b c j % % X   X X = *.( / I ",
"# = -.P L ^ _ *.  2 v b k 6 % % % X : e ) K.L.b.2."
};
