/* XPM */
static const char *micro_rloussig[] = {
/* columns rows colors chars-per-pixel */
"25 19 211 2 ",
"   c #3A1307",
".  c #3E1C12",
"X  c #291A13",
"o  c #42190D",
"O  c #491D07",
"+  c #4C210A",
"@  c #5B2002",
"#  c #4C251A",
"$  c #4B251A",
"%  c #532610",
"&  c #50261B",
"*  c #5D2A19",
"=  c #562B1B",
"-  c #662E1F",
";  c #7F3218",
":  c #492723",
">  c #4E2B29",
",  c #482B27",
"<  c #542F27",
"1  c #573229",
"2  c #5C342D",
"3  c #57392E",
"4  c #5D3A2E",
"5  c #5C3526",
"6  c #4E3433",
"7  c #5B3532",
"8  c #5A3931",
"9  c #5D3A38",
"0  c #59393D",
"q  c #603227",
"w  c #61362A",
"e  c #613B2C",
"r  c #6B3826",
"t  c #773A28",
"y  c #643B34",
"u  c #683E36",
"i  c #7C461A",
"p  c #5E413B",
"a  c #644324",
"s  c #654035",
"d  c #64423A",
"f  c #6C423A",
"g  c #6C4539",
"h  c #71463E",
"j  c #744436",
"k  c #4F4141",
"l  c #674B42",
"z  c #694A42",
"x  c #734B44",
"c  c #7A4D44",
"v  c #744D48",
"b  c #7B544A",
"n  c #684E51",
"m  c #7F5A51",
"M  c #6A5446",
"N  c #7F6558",
"B  c #5A5E61",
"V  c #646A6A",
"C  c #616C72",
"Z  c #6B727A",
"A  c #7A7170",
"S  c #97461B",
"D  c #8F4B24",
"F  c #8C4D35",
"G  c #82493E",
"H  c #8E5B3E",
"J  c #A2542D",
"K  c #AA6138",
"L  c #82564D",
"P  c #885D56",
"I  c #896249",
"U  c #86635F",
"Y  c #94635C",
"T  c #B96E4E",
"R  c #B37455",
"E  c #A66545",
"W  c #8B6863",
"Q  c #906A67",
"!  c #887B72",
"~  c #937A73",
"^  c #A7786E",
"/  c #CF7C46",
"(  c #D27F4D",
")  c #B9845A",
"_  c #89847E",
"`  c #9C847A",
"'  c #A38374",
"]  c #A28678",
"[  c #A48B7B",
"{  c #AA8D7C",
"}  c #AB8D76",
"|  c #B58778",
" . c #AC917E",
".. c #B29172",
"X. c #C89C77",
"o. c #E28863",
"O. c #F39E79",
"+. c #D6A17E",
"@. c #848583",
"#. c #978E87",
"$. c #99918F",
"%. c #929491",
"&. c #939A98",
"*. c #A78F83",
"=. c #AB9383",
"-. c #A39389",
";. c #AE9A8C",
":. c #A89787",
">. c #B39584",
",. c #B29985",
"<. c #B99B84",
"1. c #B3958B",
"2. c #B49B8D",
"3. c #BA9E8E",
"4. c #A58E94",
"5. c #A39E9A",
"6. c #B29C91",
"7. c #B48B87",
"8. c #9BA09A",
"9. c #AEA49B",
"0. c #B6A293",
"q. c #BBA294",
"w. c #BCA69A",
"e. c #B3A598",
"r. c #99A2A9",
"t. c #96ABB3",
"y. c #9AA8B5",
"u. c #AAABA8",
"i. c #BDA7A1",
"p. c #BEADA4",
"a. c #B5A7A8",
"s. c #A0A9B0",
"d. c #A6B2B8",
"f. c #B6B7B8",
"g. c #D29882",
"h. c #C99D92",
"j. c #C1A18C",
"k. c #D8A988",
"l. c #C2A394",
"z. c #C7AC9A",
"x. c #CDAD98",
"c. c #D6AA99",
"v. c #E5AC8F",
"b. c #E7B28A",
"n. c #EDA090",
"m. c #F0AC95",
"M. c #F5B894",
"N. c #D4A4A0",
"B. c #C4B1A4",
"V. c #CAB2A3",
"C. c #C6B3AB",
"Z. c #D3B2A3",
"A. c #DEB8A9",
"S. c #C9BAB3",
"D. c #C6BAB9",
"F. c #DFBFB3",
"G. c #D3BFB6",
"H. c #E7BEA0",
"J. c #E6B9A9",
"K. c #EBAAA4",
"L. c #DBC0AD",
"P. c #C9C0B9",
"I. c #D7C5B9",
"U. c #FFCCAB",
"Y. c #E1CABE",
"T. c #E6C6B7",
"R. c #FFC9BB",
"E. c #B3B9C1",
"W. c #B9BEC1",
"Q. c #B8C1C7",
"!. c #B3C4D4",
"~. c #C7C8C8",
"^. c #D3CBC5",
"/. c #D5C7C5",
"(. c #CFD0CB",
"). c #C2CCD5",
"_. c #CCCDD1",
"`. c #C4D3D2",
"'. c #CBD1D3",
"]. c #CDD6DF",
"[. c #D5DCDE",
"{. c #DCDEDB",
"}. c #D5D5D7",
"|. c #E6CCC4",
" X c #E3D6CC",
".X c #FFD4CA",
"XX c #F9D7C8",
"oX c #E3DBD6",
"OX c #F4DCD2",
"+X c #DCE3DB",
"@X c #E8E1DD",
"#X c #FFEADB",
"$X c #D7DEE6",
"%X c #DCE4E5",
"&X c #DAE6E8",
"*X c #E5E5E4",
"=X c #EAEAE6",
"-X c #FBE8E2",
";X c #EFF2EE",
":X c #FDF5EA",
">X c #EEF3F4",
",X c #E7FEFF",
"<X c #E9F8FE",
"1X c #F4F5F3",
"2X c #FBF6F3",
"3X c #F4FAF4",
"4X c #FEFAF4",
"5X c #FDF5F9",
"6X c #F5FBFC",
"7X c #FCFEFD",
"8X c #F3F2FA",
/* pixels */
"<. .=.[ { ' ] *.} =.! P.4X:X2X{.I.w.2.1.,.,.>.>.,.",
"-.2.{ [ ' *.] ] | ' ~ w.L.x.>.1.=.q.1.3.=.,.=.2.>.",
"f.9.,.,.=.-.{ } :.] A.R.m.M.k...>.=.2.q.=.0.B.I.{.",
"r.f.a.w.q.1.3.<.;.V.XXXXU.M.b.X.q.0.;.B.e.-.4X4X7X",
"B s.E.a.w.j.l.0.2.Y.F.J.v.R +.k.q.p.^.4XoX_ 4X6X2X",
"@.C !.E.B.x.3.p.z.|.N.K.n.; E +.i.oX7X3X{.u.7X7X7X",
"=XV y.)./.V.q.B.c..X-X.Xg.T O.o.|.7X6X7X*X5.7X3X7X",
"7Xf.Z ]._.D.C.z.A.T.XXh.F J ( / -X4X;X6X@X#.4X3X=X",
"7X;XA Q.$X_.C.Z.G.=.l.J.R i a Y.7X2X2X7X+X&.7X7X(.",
"7X7X&.d.&X[.S.Z.V.x.~ 4.b O M 4X7X7X7X7X=X8.3X6X=X",
"7X7Xd.t.<X%XS.Z.J.i.1.l X   H C.6X6X7X7X}.%.7X3X5X",
"1X6XQ.t.,X%X/.F.6.n J.H.I D S e -X4X*X7XW.V >X7X`.",
"1X7X).d.6X1X/.1.k r | #X) K t @ x OX4X3X~.@.7X7X%X",
"7X>X~.f.^.` p > s F w a.T.I & * - 5 [  X^.$.7X8X5X",
"7X7X(.A l 4 # 9 r P L Q a.3 % d * = s g m W @X{.[.",
"&X>XD.l w j & 9 0 U ^ Y q + r 2 o e u G t c  X3X`.",
"'.'.7.c 0 > 3 7 f y L Y y 8 $ . w q & m w % Y.7Xf.",
">X%XW f 6 : d 7 v h c c < :   . y # 1 8 $ + =.7Xu.",
">X[.x u , > z u v b h y 1 : . 4 y . 3 . o O N 7X%."
};
