/* XPM */
static const char *micro_maxipeti[] = {
/* columns rows colors chars-per-pixel */
"25 19 201 2 ",
"   c #060100",
".  c #0E0705",
"X  c #1B0A04",
"o  c #120E0A",
"O  c #190A04",
"+  c #18180C",
"@  c #15140F",
"#  c #000D16",
"$  c #1A1314",
"%  c #1E1B15",
"&  c #1B191A",
"*  c #2B0D03",
"=  c #2A1404",
"-  c #2B180A",
";  c #341800",
":  c #341909",
">  c #201816",
",  c #231D1A",
"<  c #351E18",
"1  c #2A241E",
"2  c #2B2117",
"3  c #372514",
"4  c #3A2416",
"5  c #1D1522",
"6  c #1F1D20",
"7  c #252123",
"8  c #28272F",
"9  c #2C2723",
"0  c #312C2D",
"q  c #3A2921",
"w  c #3D342D",
"e  c #333029",
"r  c #342D32",
"t  c #3A2E30",
"y  c #3B3432",
"u  c #3E3A33",
"i  c #49250A",
"p  c #5B2500",
"a  c #482A19",
"s  c #552A17",
"d  c #5B381A",
"f  c #642A12",
"g  c #422622",
"h  c #4E3829",
"j  c #523C26",
"k  c #443D36",
"l  c #523F30",
"z  c #623A30",
"x  c #454035",
"c  c #46423D",
"v  c #4C443B",
"b  c #4E483C",
"n  c #5E4231",
"m  c #5D4A3E",
"M  c #554637",
"N  c #6C432A",
"B  c #634523",
"V  c #774729",
"C  c #724732",
"Z  c #784F32",
"A  c #7E5B3F",
"S  c #403E4C",
"D  c #4B4A48",
"F  c #534C44",
"G  c #5E4D45",
"H  c #574D4C",
"J  c #5A4F4B",
"K  c #5A5244",
"L  c #5C544D",
"P  c #55514E",
"I  c #4E4B52",
"U  c #514D51",
"Y  c #525254",
"T  c #5D5451",
"R  c #56555A",
"E  c #5D575C",
"W  c #5A5A59",
"Q  c #604E42",
"!  c #62544C",
"~  c #645A4C",
"^  c #6C5C4D",
"/  c #6B574C",
"(  c #7C5C41",
")  c #755944",
"_  c #665A52",
"`  c #6A5C54",
"'  c #695E5C",
"]  c #6B604E",
"[  c #6E6354",
"{  c #6B6158",
"}  c #746555",
"|  c #7E6556",
" . c #74665B",
".. c #7D6B5C",
"X. c #786858",
"o. c #5C5C61",
"O. c #5B5868",
"+. c #645C67",
"@. c #626264",
"#. c #686669",
"$. c #756A62",
"%. c #7B6A63",
"&. c #7D7166",
"*. c #7C746C",
"=. c #666877",
"-. c #6A6A74",
";. c #696975",
":. c #7B7772",
">. c #854E27",
",. c #924F25",
"<. c #87512F",
"1. c #845A34",
"2. c #995F3A",
"3. c #835A45",
"4. c #896553",
"5. c #806D5E",
"6. c #986051",
"7. c #92685A",
"8. c #A56947",
"9. c #A56C59",
"0. c #816F63",
"q. c #827263",
"w. c #86756A",
"e. c #8C7B6C",
"r. c #837B6C",
"t. c #937C6E",
"y. c #847A75",
"u. c #8C7B72",
"i. c #817D7D",
"p. c #887D79",
"a. c #A87664",
"s. c #B27E68",
"d. c #8E8176",
"f. c #8C837A",
"g. c #93867C",
"h. c #94887E",
"j. c #978579",
"k. c #A9806A",
"l. c #BA846C",
"z. c #D5997D",
"x. c #8C8984",
"c. c #968981",
"v. c #918A89",
"b. c #9A938D",
"n. c #9E9E94",
"m. c #A58A81",
"M. c #B99F88",
"N. c #A69D96",
"B. c #A89888",
"V. c #A9A194",
"C. c #B9A195",
"Z. c #A9A4A2",
"A. c #B0ACAB",
"S. c #BEBAAF",
"D. c #B7B4AA",
"F. c #AFAFB2",
"G. c #B5B6B2",
"H. c #B8B8B6",
"J. c #C29E84",
"K. c #D09680",
"L. c #D49B88",
"P. c #C9A899",
"I. c #DBA896",
"U. c #E1AD97",
"Y. c #C4BCAF",
"T. c #D4BEB2",
"R. c #EDBEAE",
"E. c #CDC2AE",
"W. c #C3C2BB",
"Q. c #CBC8BE",
"!. c #F9C0A3",
"~. c #E8C1BA",
"^. c #F4C7B7",
"/. c #FFD1B7",
"(. c #C7C6C5",
"). c #CFD1CC",
"_. c #DCDACE",
"`. c #DAD4C5",
"'. c #C2D0D9",
"]. c #DEDCD2",
"[. c #DEDDD8",
"{. c #FFDCCD",
"}. c #E1DEDB",
"|. c #F6D4D2",
" X c #E3E3DB",
".X c #EEE4DB",
"XX c #C5D9E3",
"oX c #D1DDE2",
"OX c #D5E2EE",
"+X c #D5E0E4",
"@X c #DBEBF4",
"#X c #D6E2F0",
"$X c #EFEFE6",
"%X c #F4EDE3",
"&X c #FFF1E6",
"*X c #E1EEF7",
"=X c #E5F3FF",
"-X c #FAF6F3",
";X c #FDFCF6",
":X c #FDFEFD",
">X c #F4F8F9",
/* pixels */
".XN.v 1 % $ $ $ @ o u m.C.n.v.D $ > % % + D $.@.Y ",
"&.~ ~ ~ K b k 1 0 x / | g.v.W q w x u e 9 9 7 & , ",
"!  . . .&.{ T y y m B h 3 d Q T K b F L T T L c v ",
"J ! G G ! L F c _ ( - . X ; d y.c.h.&.$.&.h.r.~ :.",
"` L ^ ~ ~ ~ b f.D.3 X g < O = j %.%.[ } ^ ^ ^ ~ ^ ",
"_ _ ~ ! ` _ F b.q.X 3.I.l.V : X l } ] [ r.d.p.' *.",
"` ` _ ` ` _ _ ! N A R.^.z.8.1.: a B.Y.].-X;X:XG.}.",
"X. . .[  .} } n a 4.P.s.s.i N d h &X;X:X:X:X;XD. X",
"&...%.X...$.$.( = 4.I.a.l.p >.V j ;X:X:X:X:X:XD.[.",
"b.q.0.0.5.$.&.) a k./.U.L.f <.>.j %X:X:X:X;X:X(. X",
"H.f.w.w.q.q.q...4 4.I.9.6.s s i X.;X:X:X;X:X:XW.].",
"'.Z.w.w.w.q.q.y.| n 3.l.K.C : ^ E.$X:X:X;X:X;XD._.",
"XX(.d.e.d.e.q.y.u.w.M n 7.z O S.`.$X:X:X:X:X:XQ.].",
"XXoXb.u.e.e.u.i.v.t.M.^ < * i J.V.-X:X;X-X:X:XS._.",
"oXOXZ.e.d.g.c.i.P C !.^.P.Z ,.,.2 :.}.;X:X:X;XD.].",
"+X@XF.e.h.*.H 7 # M {.|.~.8.2.Z O . , T A.>X:XQ.[.",
"OX@XG.x.U 6 5 & r t %.T.T.j.m 4 r r 7 $ o :.;XW.`.",
"#X*XH.+.8 I O.o.=.-.D y k w y H E E R U , o (.H.).",
"OX=XF.5 S -.+.@.O.=.;.-.@.R o.Y U E R #.r   P G.oX"
};
