/* XPM */
static const char *micro_jenguyen[] = {
/* columns rows colors chars-per-pixel */
"25 19 195 2 ",
"   c #040100",
".  c #0A0504",
"X  c #0D0C06",
"o  c #0D0D0B",
"O  c #130E0B",
"+  c #120B03",
"@  c #14110E",
"#  c #1B130B",
"$  c #161412",
"%  c #191513",
"&  c #1D1915",
"*  c #1E1B19",
"=  c #1C141B",
"-  c #25140A",
";  c #241B14",
":  c #3C281B",
">  c #222221",
",  c #272B2A",
"<  c #302F2D",
"1  c #332822",
"2  c #323232",
"3  c #393836",
"4  c #3F3F3B",
"5  c #4C2D1A",
"6  c #5F371D",
"7  c #633108",
"8  c #603715",
"9  c #78371B",
"0  c #773E15",
"q  c #483F36",
"w  c #463426",
"e  c #763F20",
"r  c #77431C",
"t  c #40423F",
"y  c #4B413B",
"u  c #6D4023",
"i  c #7E572E",
"p  c #464445",
"a  c #5C5449",
"s  c #515656",
"d  c #61554D",
"f  c #675B4F",
"g  c #6B5B4D",
"h  c #7D5C4C",
"j  c #665C53",
"k  c #6C5E51",
"l  c #72614D",
"z  c #676056",
"x  c #6A6155",
"c  c #6C645A",
"v  c #746455",
"b  c #73675D",
"n  c #7A6A5D",
"m  c #78675B",
"M  c #696E68",
"N  c #756C63",
"B  c #7C6E63",
"V  c #7B7366",
"C  c #7B726A",
"Z  c #7C796E",
"A  c #737167",
"S  c #7A7975",
"D  c #707475",
"F  c #834619",
"G  c #894F2A",
"H  c #845021",
"J  c #935929",
"K  c #945A38",
"L  c #9E6039",
"P  c #885B44",
"I  c #96694C",
"U  c #987056",
"Y  c #92775A",
"T  c #BA774D",
"R  c #A6745B",
"E  c #AB7549",
"W  c #867465",
"Q  c #84756A",
"!  c #84796C",
"~  c #8A7A6D",
"^  c #917E6D",
"/  c #847C74",
"(  c #8C7E72",
")  c #B9746F",
"_  c #8A827B",
"`  c #85827B",
"'  c #938675",
"]  c #93847A",
"[  c #998678",
"{  c #94897B",
"}  c #9B8B7C",
"|  c #9A8975",
" . c #B18268",
".. c #A28F7E",
"X. c #B48F75",
"o. c #C38570",
"O. c #CE967A",
"+. c #C1997F",
"@. c #CB9573",
"#. c #D79872",
"$. c #DCA77D",
"%. c #737C81",
"&. c #858985",
"*. c #8D8A85",
"=. c #888888",
"-. c #948A84",
";. c #9A8F82",
":. c #948B89",
">. c #918785",
",. c #9D9285",
"<. c #9B928B",
"1. c #979691",
"2. c #9F9E99",
"3. c #9B9891",
"4. c #A19283",
"5. c #A49986",
"6. c #A49A8E",
"7. c #B29381",
"8. c #A59C93",
"9. c #A59D9A",
"0. c #9FA19C",
"q. c #A4A095",
"w. c #BFB29F",
"e. c #B6AA9A",
"r. c #ABA6A2",
"t. c #ACAAA3",
"y. c #AFABAA",
"u. c #B2ADA8",
"i. c #B4ACA1",
"p. c #B7B5AA",
"a. c #BBB6B3",
"s. c #BCBAB3",
"d. c #B7BABB",
"f. c #BFBEB9",
"g. c #B5B4B9",
"h. c #D9A88A",
"j. c #D8AE95",
"k. c #EEB484",
"l. c #EBBB9D",
"z. c #E7BB98",
"x. c #F0BC94",
"c. c #C4BFAC",
"v. c #C5BEB4",
"b. c #E6BFAE",
"n. c #F3BDA1",
"m. c #CBC4BB",
"M. c #C5C4BF",
"N. c #D6CFB5",
"B. c #DFCCBD",
"V. c #EECBAD",
"C. c #F6C7AD",
"Z. c #F2CFAF",
"A. c #FFCEAD",
"S. c #FAC4A8",
"D. c #F0C6B8",
"F. c #F9CDB4",
"G. c #EFD0BC",
"H. c #B7BCC0",
"J. c #CDCDCC",
"K. c #C3CDCF",
"L. c #D8CBC5",
"P. c #DCDCCB",
"I. c #D2D1CC",
"U. c #DAD6D2",
"Y. c #D7D9D4",
"T. c #DBD9D4",
"R. c #D7DCD8",
"E. c #E2DFDC",
"W. c #EAD7C9",
"Q. c #E3E4D5",
"!. c #E3E4DD",
"~. c #EBEADE",
"^. c #EDE1D5",
"/. c #F3E4DD",
"(. c #E1E3E3",
"). c #EDEBE4",
"_. c #EBECED",
"`. c #E6E7E4",
"'. c #F1EDE6",
"]. c #FFEFE8",
"[. c #FCE9E3",
"{. c #EEF3ED",
"}. c #EFF3E5",
"|. c #F4F4EC",
" X c #F9F5E9",
".X c #EBEFF0",
"XX c #EDF4F3",
"oX c #EFFFFC",
"OX c #F4F5F4",
"+X c #FDFDF5",
"@X c #F4F5FA",
"#X c #FDF6FA",
"$X c #F5FCFC",
"%X c #FDFEFD",
"&X c #FAF1F2",
/* pixels */
"x c d N U.|.%X+X&XE.,.( *.C m / ] Q { 4.5.5.w.} -.",
"x c j _ '.L.u.3.( B n v l x v h j d d b f k g g g ",
"b b c j c z c b A m m Q ..e.s.m.M.1.f.s.2.1.` S n ",
"B V N V N ! Q Q B W 8.S Z q._.%X%XR.{.%X$XOXR.0.&.",
"W ! V C ! ~ Q Q | ~.r.: : - - p.%XT.).%X%X%X%XU.m.",
"~ Q / / ~ ( Q 8.%XE.Y k.#.L 8 w OXI.|.%X%X%X%X).%X",
"^ ~ / / ( ( { ).%XB.j.n.#.T J 7 J.`.}.+X$X%X%X}.#X",
"' ] _ -.] ( v.%X+XW.b.R @.I 6 G U.U.'.%X%X%X%XP. X",
"[ ] _ -.{ { `.%X[.l.G.O.$.r e J +.P..X%X%X$X%XN.}.",
"} } -.>.] 6.#X%X XD.F.S.O.0 K r 7.Q.XX%X+X$X%Xc.|.",
"} } <.:.{ i.%X%X+X#XC.h.) 9 0 X.].Y.{.+X+X%X%X~.%X",
"4.;.<.:._ p.%X+XoX%XV.x.o.u i /.%XY.OX%X+X%X%X~.#X",
"} ,.9.a.t.a.%X%X!.L.Z.h.I 8 H ^.%XJ.OX%X%X%X%XQ.%X",
",.;.u.%X+XT.#Xa.1  .A.l.K 7 F : M *.(.$X@X%X+XV A ",
",.<.r.%XOX=.p # = h z.x.E r 5 .   + 4 H.@X`.%Xa   ",
"q Z y.g.t o O ; & O y U P 5 o # = # X $ =.XX$Xy . ",
"> p _.s @ * % * * % @ O O @ % % @ $ % %   t.(.s , ",
"< 2 d.> * @ * $ % * * * * * % % % @ $ $   4 d.K.J.",
"3 2 =.o % $ @ % % % % % % % % @ @ O o X X X D %.c "
};
