/* XPM */
static const char *micro_acontet_[] = {
/* columns rows colors chars-per-pixel */
"25 19 197 2 ",
"   c #100E01",
".  c #100F0B",
"X  c #181107",
"o  c #15110E",
"O  c #1D130F",
"+  c #18180E",
"@  c #151604",
"#  c #130914",
"$  c #0E1316",
"%  c #141511",
"&  c #1C1915",
"*  c #101918",
"=  c #1E1A16",
"-  c #291308",
";  c #3D1E09",
":  c #231C16",
">  c #231F1A",
",  c #24211D",
"<  c #2C221C",
"1  c #2E2A1E",
"2  c #3A2D1C",
"3  c #291F20",
"4  c #1E2324",
"5  c #262623",
"6  c #2C2925",
"7  c #2D2C2A",
"8  c #2A2626",
"9  c #312B27",
"0  c #322E2D",
"q  c #302521",
"w  c #34312C",
"e  c #373231",
"r  c #3A3433",
"t  c #3C3934",
"y  c #393B38",
"u  c #48250F",
"i  c #482C1E",
"p  c #512E18",
"a  c #512F13",
"s  c #563518",
"d  c #653811",
"f  c #683615",
"g  c #483026",
"h  c #413029",
"j  c #553828",
"k  c #583521",
"l  c #413D3A",
"z  c #453E36",
"x  c #5A402F",
"c  c #45413C",
"v  c #49443E",
"b  c #534137",
"n  c #644426",
"m  c #6B462C",
"M  c #784528",
"N  c #774C2A",
"B  c #6D523D",
"V  c #654836",
"C  c #393D40",
"Z  c #4A4642",
"A  c #4E4A46",
"S  c #474C48",
"D  c #534E45",
"F  c #514C4A",
"G  c #514549",
"H  c #56524D",
"J  c #5F574A",
"K  c #544E5C",
"L  c #5B5754",
"P  c #5E5C5B",
"I  c #604E42",
"U  c #675544",
"Y  c #615A56",
"T  c #625D5A",
"R  c #6F5B52",
"E  c #676056",
"W  c #67625F",
"Q  c #6C655D",
"!  c #6A6456",
"~  c #73645D",
"^  c #716A5F",
"/  c #6A6362",
"(  c #6D6A65",
")  c #676968",
"_  c #686767",
"`  c #736C64",
"'  c #746D6A",
"]  c #737065",
"[  c #797265",
"{  c #7C746B",
"}  c #7D786D",
"|  c #74746C",
" . c #66757C",
".. c #7A7572",
"X. c #7F7870",
"o. c #727675",
"O. c #815028",
"+. c #865737",
"@. c #A05E3B",
"#. c #9B6848",
"$. c #866254",
"%. c #AF7752",
"&. c #A8795D",
"*. c #84756F",
"=. c #80786D",
"-. c #857C73",
";. c #897D74",
":. c #897E78",
">. c #857E78",
",. c #848176",
"<. c #84847E",
"1. c #8C847B",
"2. c #90877E",
"3. c #928171",
"4. c #A88B6D",
"5. c #B48A6A",
"6. c #B58576",
"7. c #BF9C7E",
"8. c #7B8489",
"9. c #8D8682",
"0. c #888787",
"q. c #938D83",
"w. c #928D8B",
"e. c #999087",
"r. c #96938B",
"t. c #9C958B",
"y. c #8D9295",
"u. c #9B9693",
"i. c #91969C",
"p. c #A1998E",
"a. c #A39D95",
"s. c #A89F9A",
"d. c #A19D9A",
"f. c #ADA39B",
"g. c #A6A39E",
"h. c #B8A395",
"j. c #A7A9A6",
"k. c #B3ACA4",
"l. c #B6B3AE",
"z. c #A7ADB7",
"x. c #ABB2B3",
"c. c #BDB4B2",
"v. c #BCBAB7",
"b. c #B8B7BC",
"n. c #BDBFBE",
"m. c #CB9E85",
"M. c #CD9588",
"N. c #D1A98F",
"B. c #DCAA9D",
"V. c #D3B49F",
"C. c #CAA996",
"Z. c #E0A585",
"A. c #DAB2A6",
"S. c #C1BDB5",
"D. c #C3BEB8",
"F. c #E6B8A9",
"G. c #B8C1BC",
"H. c #C5C1B9",
"J. c #F4C5AD",
"K. c #E8CCBE",
"L. c #FECAB2",
"P. c #AEBCC9",
"I. c #B6BCC2",
"U. c #BFC4C4",
"Y. c #BBC2CC",
"T. c #CAC7C2",
"R. c #C7C9C6",
"E. c #CDCBC5",
"W. c #C5C5C3",
"Q. c #D2CEC3",
"!. c #D0CFCB",
"~. c #D3D2CF",
"^. c #D8D8CE",
"/. c #DCD2C6",
"(. c #C9CDD0",
"). c #C6D0D2",
"_. c #DBD6D2",
"`. c #DCDAD2",
"'. c #D9DDDE",
"]. c #E2DEDB",
"[. c #E4E2DC",
"{. c #EAE4DC",
"}. c #D7DCE0",
"|. c #E2E6E7",
" X c #E6E8E7",
".X c #EEEBE8",
"XX c #EDE9E0",
"oX c #F2EEE8",
"OX c #F4F2ED",
"+X c #F8F0ED",
"@X c #E1ECF2",
"#X c #F4F3F0",
"$X c #F9F5F2",
"%X c #FEFDF6",
"&X c #F7F8FA",
"*X c #FEFEFD",
"=X c #E7F4FA",
/* pixels */
"1.[ ! D 9 L +Xk.t % %   + * $ o 1 r.Q.{.XX} , , , ",
"f.f.c.d.q.,.} E J A c e 5 4 4 1 r.S.Q.Q.H & 6 6 5 ",
"~ ~ ` ( ( ] ] X.-.-.-.*.~ Z t ,.r.r.q.D z D v c l ",
">.} [ { ' / W T Y Y Q ^ Q W P / <.g.D.{.q.1.1.a.j.",
"x.j.,.[ *.' ' ( ` ( ) S y t l.#X%X*X+X`.q.1.2.-.{ ",
"8.i.b.u.{ { ` ' ( Q b g j ; U H.j.9.} ` { [ ` ` ` ",
"W._ 0.I.x.<.} ` | I 6.J.Z.%.s 2 } { { =.{ } q.a.c.",
"/.`.G. .P.Y.w.;.{ R K.C.m.#.+.i -.-.-.-.p.t.{.%X*X",
"_._.*XR.o.U.(.y.[ 3.B.6.m.d +.m ;.:.w.~.%Xv..X*X*X",
"`.].*X*Xx.y.}.I.9.N.L.F.5.N #.@.-.a..X*X*XT..X*X*X",
"`.[.*X*X*Xy.).@Xs.h.J.B.6.f O.&.e.`.*X*X*XE..X*X*X",
"`.[.*X&X*XU.x.=XI.I V.A.M.M n x f.*X*X&X*Xv.OX*X*X",
"^.[.*X*X*X|.j.*Xz.O 4.7.$.p a - c [.*X&X*XE.OX*X*X",
"`.`.*X*X*X&Xn.'.P 8 B 5.V u a & & ..].$X%XH.OX*X*X",
"E.].*X&X*X~./ r w q G h n k < S < & : Y oXS.+X*X*X",
"T._.*X*X~.A 9 r w 3 K C @ < # } < : < X ` T.#X*X*X",
"~.`.*X+XT l r e 7 > F F & = . ' l = > q : } *X*X*X",
" X#X*Xu.l t 0 0 7 , Z H = > % T H o > : O D $X*X*X",
"&X*X#XH w r 0 0 7 , c L = , = F ..= , : : : !.*X*X"
};
