/* XPM */
static const char *micro_sperpign[] = {
/* columns rows colors chars-per-pixel */
"25 25 228 2 ",
"   c #3B270F",
".  c #322921",
"X  c #5B3810",
"o  c #4D342A",
"O  c #474932",
"+  c #615120",
"@  c #715036",
"#  c #343841",
"$  c #313967",
"%  c #104A69",
"&  c #345773",
"*  c #2A6F76",
"=  c #377877",
"-  c #414D41",
";  c #554649",
":  c #514E53",
">  c #6A5C5F",
",  c #7A5950",
"<  c #5C6D4D",
"1  c #666844",
"2  c #79654C",
"3  c #777448",
"4  c #73645A",
"5  c #6E7158",
"6  c #545476",
"7  c #4F5467",
"8  c #725766",
"9  c #605671",
"0  c #486B69",
"q  c #4A7778",
"w  c #546871",
"e  c #64786D",
"r  c #797A6D",
"t  c #696C78",
"y  c #77757A",
"u  c #6D6D6D",
"i  c #80561A",
"p  c #85583A",
"a  c #9F793C",
"s  c #936A2C",
"d  c #B27D31",
"f  c #835C4A",
"g  c #805A59",
"h  c #896447",
"j  c #936748",
"k  c #967156",
"l  c #A87C52",
"z  c #997566",
"x  c #8B7679",
"c  c #9A7A75",
"v  c #A87C69",
"b  c #5C8256",
"n  c #7C875D",
"m  c #568165",
"M  c #6F806D",
"N  c #7A8968",
"B  c #688C76",
"V  c #7B9476",
"C  c #7EA370",
"Z  c #7FB26D",
"A  c #C38A39",
"S  c #8C8652",
"D  c #AA845B",
"F  c #BF8850",
"G  c #BB9252",
"H  c #9DA35E",
"J  c #86AD5E",
"K  c #A6AE58",
"L  c #8C8274",
"P  c #958D6B",
"I  c #B7986D",
"U  c #A9857B",
"Y  c #AA987B",
"T  c #BB9878",
"R  c #AB886A",
"E  c #88A07E",
"W  c #AAAA78",
"Q  c #AEB27F",
"!  c #B0B07E",
"~  c #A9AE67",
"^  c #CA9348",
"/  c #CEBD55",
"(  c #E6A85B",
")  c #C0967E",
"_  c #C1AF7F",
"`  c #D2A169",
"'  c #F9BF7F",
"]  c #BCC15B",
"[  c #B7C576",
"{  c #D7CE55",
"}  c #EACF56",
"|  c #D7D566",
" . c #CAD47F",
".. c #D6D377",
"X. c #DACE72",
"o. c #E1DA6F",
"O. c #335C8E",
"+. c #365A87",
"@. c #275583",
"#. c #136E9B",
"$. c #3E608D",
"%. c #386799",
"&. c #226A83",
"*. c #167AB5",
"=. c #3C72A5",
"-. c #3C6DA8",
";. c #545A80",
":. c #434E86",
">. c #566889",
",. c #587686",
"<. c #426A95",
"1. c #426E9B",
"2. c #486699",
"3. c #55749A",
"4. c #50748E",
"5. c #787985",
"6. c #697C98",
"7. c #74748D",
"8. c #4372A2",
"9. c #4376AB",
"0. c #4979AA",
"q. c #5579A4",
"w. c #4678B1",
"e. c #907181",
"r. c #857A8F",
"t. c #54889D",
"y. c #529398",
"u. c #69848C",
"i. c #75868A",
"p. c #64939E",
"a. c #728596",
"s. c #7EAC8F",
"d. c #4782A5",
"f. c #5D81AB",
"g. c #578BB8",
"h. c #4980B6",
"j. c #7799A5",
"k. c #648AB6",
"l. c #689ABA",
"z. c #7298B9",
"x. c #6D87B1",
"c. c #6CA0B6",
"v. c #2B91C2",
"b. c #6896C5",
"n. c #7899C3",
"m. c #4FA4C9",
"M. c #76A5C6",
"N. c #76A9D3",
"B. c #898387",
"V. c #9C8A89",
"C. c #888795",
"Z. c #988993",
"A. c #88999C",
"S. c #94949C",
"D. c #AA8B87",
"F. c #B68E8B",
"G. c #B89888",
"H. c #A1969E",
"J. c #8EB091",
"K. c #ABB492",
"L. c #B3BE98",
"P. c #B5AE85",
"I. c #879AA8",
"U. c #9697B5",
"Y. c #A395A2",
"T. c #98A9A3",
"R. c #8FAFB9",
"E. c #A8B3B2",
"W. c #C39A84",
"Q. c #CA999B",
"!. c #CFAE90",
"~. c #CA9AAA",
"^. c #CAB0AD",
"/. c #9ECF98",
"(. c #B8C988",
"). c #A9C399",
"_. c #B7C795",
"`. c #96CAAF",
"'. c #AEC8A8",
"]. c #CED297",
"[. c #CED28F",
"{. c #E7D488",
"}. c #C4C8A9",
"|. c #C6D9B7",
" X c #CECFA8",
".X c #E5C9A5",
"XX c #8CAECB",
"oX c #91AAC6",
"OX c #99B8CE",
"+X c #95B8D8",
"@X c #A5BBC5",
"#X c #A6BADF",
"$X c #95BBE8",
"%X c #B8BAE0",
"&X c #D3BFC1",
"*X c #9CC9C6",
"=X c #B6C5C6",
"-X c #B3D6D8",
";X c #A8CED1",
":X c #9FC7ED",
">X c #A7C6E6",
",X c #B9C7E6",
"<X c #A9C5F2",
"1X c #B3D7FD",
"2X c #B5E1FC",
"3X c #DDD0C0",
"4X c #C8D2CE",
"5X c #FBCCD8",
"6X c #D7EDD8",
"7X c #C2D9EA",
"8X c #C8CBF6",
"9X c #C6E3FD",
"0X c #D7EDF9",
"qX c #DBF7FF",
"wX c #D4E9E2",
"eX c #F9F3EB",
"rX c #EAECF8",
"tX c #EAF6FF",
"yX c #E5FEFF",
"uX c #ECFDFE",
"iX c #E9FCF7",
"pX c #F7FFF5",
"aX c #FEFEF5",
"sX c #F3FFFE",
"dX c #FDFEFD",
"fX c #F4F6FA",
"gX c #EEECF4",
"hX c #EFF6CD",
/* pixels */
"aXaXuXuXdXdXtXyX;Xy.= * #.*.v.m.:XyXsXfXdXdXaXaXaX",
"eXdXsXsXaXaX=Xe b b C J.* &.% = q u.0XuXdXgXaXeXaX",
"dXfXsXpXhX].(.[ | { } / H L.}.)./.`.*XOX7XuXsXpXdX",
"fXdXsX6X_.~ K ] { } } } {.W W P.J Z m q j.0XuXiXsX",
"dXsX-XB N W ! !  XP S Y o : M 5 [ ~ (.'.T.I.0XsXdX",
"dXiX`.s._.].[. X|.J.N O . > - < ].[._.'.i.,.OXuXdX",
"sXwX'.). ...| |  .H S + @ X   5  X|.E.oXb.N.k.>XsX",
"uXA.e E [ ..o.| ....s a G a j !.L 5.,X<X<X1XM.XXuX",
"rXA.I.I.T.|. X_ I _ s ^ A d i D o 8 7.%X#X+XOXOX7X",
"^.Z.5.U.rXE.V.G.W.j s X.( ^ X T Q.~.e.4X4X=X-X@X7X",
"z f c D.Z.x F.v T j l D ^ ` I ^.5X~.Y P.K.4X=X=X4X",
"h f j f , U z v W.!.G.+ p @ @ ^.5XQ.R S 3 K.4XE.A.",
"r 4 @ p k P 3 P.W.U Z.: . 4 o D.!.R T Y P L.T.A.j.",
"a.y k j 2 1 n 1 U F.r.: # y ; z h l .X.X X}.e u.3.",
";.9 , @ r B V O 2 c Z.r.t : y V.h I D I P 4 7.$ 2.",
"U.6 8 > w 0 0 e L ^.Y.r.C.S.5.E.3X!.P P r U.8X:.x.",
",X6 6 ;.z.M.t.q E.T.; > x 8 t i.T.uXE.& +Xf.q.+.,X",
"tX>.>.3.O.b.d.d.4.i.B.x 3Xu y u.j.p.M.g.9.-.O.x.yX",
"sX@X>.3.k.9.g.N.z.,.y B.H.y i.a.p.c.d.0.w.w.O.+XsX",
"tXsX6.>.q.w.=.b.M.3.7 t 7 t w ,.t.l.g.=.-.O.q.uXsX",
"sXuX0X>.$.%.w.h.b.+XoX6.a.6.u.OXl.g.%.=.@.<.0XuXdX",
"pXuXsX,X3.$.%.9.g.$X>Xx.6.6.R.2Xg.9.%.@.<.1XuXsXdX",
"aXdXsXuX9Xq.<.$.8.k.n.n.3.x.z.l.8.%.% f.9XuXtXdXdX",
"aXdXfXsXsXuXXX3.& <.1.g.f.k.8.+.O.<.:XyXuXuXdXdXdX",
"dXdXdXdXsXsXuXqX>Xz.q.1.%.1.0.b.<XqXuXuXsXdXdXdXdX"
};
