/* XPM */
static const char *micro_nopareti[] = {
/* columns rows colors chars-per-pixel */
"25 19 190 2 ",
"   c #020304",
".  c #0A0907",
"X  c #09070A",
"o  c #04080B",
"O  c #09080A",
"+  c #120E0D",
"@  c #13120E",
"#  c #141211",
"$  c #1A1815",
"%  c #19191B",
"&  c #1C1713",
"*  c #28201E",
"=  c #232221",
"-  c #292523",
";  c #2D2C2B",
":  c #342C26",
">  c #373028",
",  c #3D342D",
"<  c #333232",
"1  c #3B3631",
"2  c #3F3C36",
"3  c #393738",
"4  c #3A3A38",
"5  c #493625",
"6  c #46352E",
"7  c #533928",
"8  c #443C35",
"9  c #493F36",
"0  c #413D3A",
"q  c #43413E",
"w  c #4B433A",
"e  c #51473D",
"r  c #51483F",
"t  c #594A3E",
"y  c #63493A",
"u  c #444342",
"i  c #4C4745",
"p  c #4A484C",
"a  c #4C4944",
"s  c #544B43",
"d  c #5A4E43",
"f  c #524C4B",
"g  c #5E5246",
"h  c #53514D",
"j  c #5C554D",
"k  c #4F5052",
"l  c #5F5850",
"z  c #604F48",
"x  c #685946",
"c  c #65564B",
"v  c #64594C",
"b  c #695B4E",
"n  c #655C54",
"m  c #6D5E50",
"M  c #645D5B",
"N  c #7C634F",
"B  c #676056",
"V  c #6C6155",
"C  c #6C635B",
"Z  c #6E685C",
"A  c #726354",
"S  c #786757",
"D  c #72645B",
"F  c #7A675A",
"G  c #75695B",
"H  c #7C6C5D",
"J  c #796A55",
"K  c #7D705F",
"L  c #656564",
"P  c #6D6664",
"I  c #6B6B6A",
"U  c #6D6A61",
"Y  c #736A64",
"T  c #7B6E61",
"R  c #7D7265",
"E  c #7C756B",
"W  c #757569",
"Q  c #6F6F71",
"!  c #6D7075",
"~  c #747274",
"^  c #777873",
"/  c #7B7973",
"(  c #7D7A7A",
")  c #80614D",
"_  c #896E5B",
"`  c #816F63",
"'  c #827265",
"]  c #84776F",
"[  c #85796C",
"{  c #8B7B6C",
"}  c #907F6F",
"|  c #807770",
" . c #837C74",
".. c #8C7E72",
"X. c #827E7C",
"o. c #87877F",
"O. c #8A847C",
"+. c #8D8C7F",
"@. c #9C8B7C",
"#. c #948679",
"$. c #A58979",
"%. c #AB8C78",
"&. c #898682",
"*. c #8F8A85",
"=. c #8F8B88",
"-. c #948A80",
";. c #949786",
":. c #9B9186",
">. c #9B948B",
",. c #96988C",
"<. c #9C9793",
"1. c #9F9C93",
"2. c #A89287",
"3. c #A79388",
"4. c #A49A8E",
"5. c #AC9C8C",
"6. c #A39D97",
"7. c #A19E99",
"8. c #AE9D93",
"9. c #9FA092",
"0. c #A4A195",
"q. c #A5A59B",
"w. c #ABA49B",
"e. c #AAAA9D",
"r. c #A9A395",
"t. c #B2A293",
"y. c #ACABA4",
"u. c #A9A7A8",
"i. c #A8A8A8",
"p. c #B9AFA6",
"a. c #B2AFAA",
"s. c #B3A8A2",
"d. c #AFB1A3",
"f. c #B4B2A3",
"g. c #B4B4A9",
"h. c #BAB4A9",
"j. c #B9B9AD",
"k. c #B2B3B7",
"l. c #B7B8B0",
"z. c #BEBBB2",
"x. c #C2B4A7",
"c. c #C1BAAE",
"v. c #C1BBB2",
"b. c #BEC1B3",
"n. c #C2C2B6",
"m. c #C5C5BA",
"M. c #CBC6B9",
"N. c #C6C9BE",
"B. c #CAC9BE",
"V. c #D3CBBE",
"C. c #CBC6C0",
"Z. c #CDCBC3",
"A. c #CFCBC9",
"S. c #D3CEC4",
"D. c #D8CDC7",
"F. c #D2CDC9",
"G. c #CFD5C9",
"H. c #D3D2C6",
"J. c #D5D4CA",
"K. c #D9D5CC",
"L. c #D6D8CA",
"P. c #DCDBCF",
"I. c #D5D4D0",
"U. c #DCD7D2",
"Y. c #DDDCD4",
"T. c #DEDDD8",
"R. c #E3DED4",
"E. c #E4E1D6",
"W. c #EAE0D7",
"Q. c #E4E3DC",
"!. c #EDE6DE",
"~. c #F0E9DF",
"^. c #FAEADD",
"/. c #DDDBE0",
"(. c #E4E4E2",
"). c #EEEAE3",
"_. c #EFEEEA",
"`. c #F0EFEB",
"'. c #F6F4E8",
"]. c #FFF7EE",
"[. c #F3F1E4",
"{. c #EFEDF0",
"}. c #F0F1F5",
"|. c #FAF6F1",
" X c #F9F6F3",
".X c #FAFDF3",
"XX c #FEFEF6",
"oX c #FEFCF3",
"OX c #FFFFF9",
"+X c #FEFDFB",
/* pixels */
"e e r s n j w > 1 1 8 2 0 q u a h f i i f f h B C ",
"D d d n v j d s d s s w s s w w j s 9 w 9 s s g T ",
"t.#...m t g g g d c v v g V c A n m A A A V b S m ",
"A { S F { { G T ` H T H ' H ' ' ' ' H J K R H F H ",
"{ } { H t.^.x.G T R T G x A S G D A G G V V V T G ",
"' #.A ' T [ ..C V D n c 5 5 t E E  .[ Z 0.6.| s j ",
"V.:.O.r.:.w.: E M.-.4.t y 7 t e.J.!.J.7._.OXZ.Y >.",
"].w.).!.>.*.1 X.V.~.W.2.$._ { 1.R.R.U.A.(.+XE.r.z.",
"[.w.c.XXG.+., B K.(.!.3.%.) @.w.I.Z.F.7.Z.OXY.0.+.",
"'.p.v..XQ.K.: E XX_.Y.8.$.N [ h.U.v.v./ a.oXK.4.E ",
"oXs.D.OX.X|.f O.OX`.A.S.5.{ :.m.B.h.h.:.y.|.R.h.C ",
"E.] >.K.Z.Q.M X.OX(._.S.c.f.w.e.R.J.z.*.i. XA.w.Y ",
"f.T -.,.0.g.l U |.Y.T.Y.P.J.m.Y.H.Z.&.< k k.(.~ M ",
"R ' 4. .W O.C  .Y.N.Y.U.J.N.H.K.N.m.^ . o ! }.X.M ",
"E c z  .2 6.U o.m.v.Z.K.&.I g.N.b.g.;.@   ~ (.u.M ",
">.6 D O.& M * L H.f.J.C.&.^ q.z.g.9.q.=   I +X<.P ",
"| - $ # % # + P J.w.S.j.z.m.n.g.l.;.d.; X q <.&.n ",
"& # . = < ; 3 ( P.h.B.j.n.n.m.g.y.1.b.4 o q =.( X.",
"@ - = Q L u p ( E.m.m.g.N.n.m.j.q.e.L.I p u.+X{./."
};
