/* XPM */
static const char *micro_sjavary[] = {
/* columns rows colors chars-per-pixel */
"25 19 203 2 ",
"   c #170C08",
".  c #1F1B18",
"X  c #2A1F1B",
"o  c #292928",
"O  c #2C3033",
"+  c #323230",
"@  c #5D3019",
"#  c #683A1B",
"$  c #753617",
"%  c #632607",
"&  c #643724",
"*  c #74431B",
"=  c #69442C",
"-  c #6F5139",
";  c #7A513B",
":  c #6A443B",
">  c gray25",
",  c #484C4F",
"<  c #4B5357",
"1  c #535853",
"2  c #794F43",
"3  c #63554C",
"4  c #7B5349",
"5  c #5A5F62",
"6  c #596465",
"7  c #64686B",
"8  c #776D64",
"9  c #656E71",
"0  c #6A7375",
"q  c #747A7C",
"w  c #757275",
"e  c #8D3E1D",
"r  c #833E21",
"t  c #8D421A",
"y  c #884927",
"u  c #91412A",
"i  c #995739",
"p  c #834A37",
"a  c #B05E2E",
"s  c #A3573B",
"d  c #865A4F",
"f  c #99584E",
"g  c #A55C45",
"h  c #B05F42",
"j  c #806047",
"k  c #9B6B5D",
"l  c #A46440",
"z  c #B76C42",
"x  c #AC714F",
"c  c #B46E58",
"v  c #846F6A",
"b  c #83726A",
"n  c #8A7367",
"m  c #91796D",
"M  c #837F7E",
"N  c #B77768",
"B  c #D26C46",
"V  c #CC794E",
"C  c #DE7848",
"Z  c #D67950",
"A  c #E67B67",
"S  c #7F8277",
"D  c #80827F",
"F  c #98877D",
"G  c #A58A74",
"H  c #B2887E",
"J  c #AB9579",
"K  c #B4967B",
"L  c #B7997F",
"P  c #B8866D",
"I  c #C08865",
"U  c #697780",
"Y  c #757D80",
"T  c #7A7C89",
"R  c #807980",
"E  c #7D8787",
"W  c #7D8D9A",
"Q  c #82818A",
"!  c #8B8B8E",
"~  c #888787",
"^  c #9B8B89",
"/  c #9A9289",
"(  c #848C92",
")  c #888E9A",
"_  c #8B9498",
"`  c #999395",
"'  c #A38D85",
"]  c #A59484",
"[  c #A99389",
"{  c #AB998B",
"}  c #A8968B",
"|  c #B5958C",
" . c #B39D8D",
".. c #B99A87",
"X. c #A89C95",
"o. c #B49D94",
"O. c #B4A18D",
"+. c #AAA198",
"@. c #BBA493",
"#. c #BDA69A",
"$. c #B9A99B",
"%. c #959FA3",
"&. c #9C9BA3",
"*. c #9897A5",
"=. c #9BABAC",
"-. c #96A8B2",
";. c #A8A8A8",
":. c #B9ABA5",
">. c #A5ADB1",
",. c #A4B4BB",
"<. c #BEB3B3",
"1. c #B3BABB",
"2. c #B9BEBD",
"3. c #B5B5B1",
"4. c #B6ABB3",
"5. c #CAAB8F",
"6. c #C9A793",
"7. c #C3A997",
"8. c #C3AC9A",
"9. c #C2A799",
"0. c #CAB29B",
"q. c #C5B39F",
"w. c #D6AC94",
"e. c #CDB3A4",
"r. c #C6B6AD",
"t. c #CBB5A9",
"y. c #C4B8AE",
"u. c #C6B2A3",
"i. c #D0BAAD",
"p. c #C2BAB3",
"a. c #CDBDB4",
"s. c #C3B3BA",
"d. c #CDBDBE",
"f. c #D1BEB8",
"g. c #CAC3BD",
"h. c #D9C2B6",
"j. c #D3C3BB",
"k. c #DBC5BA",
"l. c #E4C9BD",
"z. c #E4C5B3",
"x. c #B7BAC5",
"c. c #A7BBC2",
"v. c #CCBDC2",
"b. c #C2BDCB",
"n. c #C3BBC6",
"m. c #BBC4C7",
"M. c #B9C7CD",
"N. c #BBCCD3",
"B. c #B8C9D4",
"V. c #BAD0DB",
"C. c #CCC3C3",
"Z. c #C5C3CB",
"A. c #CCC4CB",
"S. c #C4CCCC",
"D. c #CACCCD",
"F. c #C0C5C3",
"G. c #D2C4C4",
"H. c #D9C7C3",
"J. c #DDCAC3",
"K. c #D5CACA",
"L. c #DACCC9",
"P. c #D7C9C6",
"I. c #DED9C8",
"U. c #C0CDD3",
"Y. c #CCCBD2",
"T. c #C6C7D4",
"R. c #DACDD3",
"E. c #CDD5D4",
"W. c #C6D5DB",
"Q. c #CED9DD",
"!. c #C7D4DA",
"~. c #D2D5D4",
"^. c #D5DBDB",
"/. c #DCDBDA",
"(. c #D2DDD7",
"). c #E6CCC4",
"_. c #E1CFCB",
"`. c #E5D2CD",
"'. c #E8D3CC",
"]. c #EDD2C7",
"[. c #E4D2D0",
"{. c #D7E1DE",
"}. c #C3D7E1",
"|. c #CBD9E3",
" X c #C8E0EA",
".X c #DCE3E2",
"XX c #D5E7F3",
"oX c #E4E6E5",
"OX c #EAE6E3",
"+X c #ECEAE6",
"@X c #E3EBEC",
"#X c #E7EBE9",
"$X c #F2EEEC",
"%X c #EDF1EC",
"&X c #EBF1E9",
"*X c #F3F1EA",
"=X c #ECF3F5",
"-X c #EAF5FA",
";X c #F4F1F2",
":X c #F3FAF5",
">X c #F4FDFD",
",X c #FCFEFC",
"<X c #FCF8F2",
/* pixels */
"( _ X.K L ] ] K G ' J G | ..J K +.y.8 I.+XOX$X;X@X",
"< _ ` @...{  .L H [ { O.o.o.{ <.*X&XS &X,X:X:X:XoX",
"1 9 >.+.@.O.@.....+./ - = j 8.>X<X<X/ $X,X,X<X,X@X",
";.< ,.>.:.@.@.#. .~ : u s V c I.,X;XM /.+X~.OX,X=X",
"<X0 W M.3.8.8.8.6.v f A B C V 5.:X&X7 {.S._ F.>X.X",
",X%.U V.x.u.7.u.6.m k i i y i ..,X=Xq oX.XE.{.:X^.",
"-X1.Y B.U.y.7.e.0.n ; # = # * P $X/.~ #X#X^..X;XQ.",
"XXE.S W.U.p.e.e.u.H N s c l a Z /.3.1 (..XE E.>XW.",
"=X~.E }.W.p.e.e.0.G N g h e t z .X^.w #X%XD.@X>XU.",
"-XE.( }.Q.a.e.e.y.| k f i r $ l S.^.0 S.^.^.E..XW.",
">XD.E W.Q.y.8.i.g.:.d c g y * x D.2.6 m.m.>.2.oX,.",
"=.;.Y |.Q.g.r.:.X.o.2 p $ % $ P j.g.C.Y.E.1.O + 6 ",
"c.1.q |.T.4.^ w ! <.' 4 & @ ; w.7.@.} p./.F.> o 0 ",
" XN.Y M.%.R ~ ;.x.x.R.s.^ } a.h.z.l.#.o.a.;.. o 9 ",
"V.M.q ) T ` 4.b.T.x.b.n.Y.K.P._.).l.].h.#.' X   5 ",
"N.S.! Q Q s.A.Z.v.v.v.A.C.K.J.).R.[.'.l.9.[ b   , ",
"B.,.( Q &.b.Z.A.Z.A.G.G.G.K.K.L.`.J.'.k.t.{ F 3 O ",
"-.%.Q w *.T.A.D.A.A.C.v.G.G.K.L.H.`.J.h.h.] F $.%.",
"W ) Q 7 *.T.Z.Z.A.A.C.d.v.C.G.P.H.f.a.h.t.n b $.=."
};
