/* XPM */
static const char *micro_lthong[] = {
/* columns rows colors chars-per-pixel */
"25 19 189 2 ",
"   c #060000",
".  c #0A0505",
"X  c #0E0905",
"o  c #0D0B0B",
"O  c #130D0B",
"+  c #180B06",
"@  c #0E140A",
"#  c #15120E",
"$  c #19110A",
"%  c #171312",
"&  c #1A1411",
"*  c #1C1913",
"=  c #22150F",
"-  c #211310",
";  c #231C14",
":  c #241B1A",
">  c #2C1E15",
",  c #272115",
"<  c #1E1C21",
"1  c #2D2522",
"2  c #3C3632",
"3  c #39292A",
"4  c #42240C",
"5  c #432918",
"6  c #412112",
"7  c #5D3B1F",
"8  c #63380E",
"9  c #693617",
"0  c #5E3C21",
"q  c #403931",
"w  c #443C39",
"e  c #513B30",
"r  c #4A3427",
"t  c #66441F",
"y  c #48403E",
"u  c #6C4121",
"i  c #784220",
"p  c #714828",
"a  c #7F5435",
"s  c #694835",
"d  c #574E47",
"f  c #555148",
"g  c #665345",
"h  c #63594F",
"j  c #755C46",
"k  c #655C53",
"l  c #695F5D",
"z  c #775B50",
"x  c #64635F",
"c  c #6C6A6B",
"v  c #736B65",
"b  c #786E62",
"n  c #797066",
"m  c #7F746D",
"M  c #7B7675",
"N  c #86492D",
"B  c #9B5B2F",
"V  c #8D5931",
"C  c #955C31",
"Z  c #9F653F",
"A  c #A46C3D",
"S  c #946944",
"D  c #9C7057",
"F  c #91795F",
"G  c #A16C4A",
"H  c #B16C43",
"J  c #A3724A",
"K  c #B37343",
"L  c #A56759",
"P  c #807267",
"I  c #82756B",
"U  c #86796D",
"Y  c #8C7C6E",
"T  c #8B7766",
"R  c #96786B",
"E  c #807770",
"W  c #867B72",
"Q  c #8C7E73",
"!  c #8A7A7A",
"~  c #927E72",
"^  c #846867",
"/  c #BD865F",
"(  c #97876E",
")  c #9F836E",
"_  c #8E8375",
"`  c #8D827B",
"'  c #908276",
"]  c #93857B",
"[  c #95897F",
"{  c #9A8B7C",
"}  c #97907D",
"|  c #B8866D",
" . c #C6885F",
".. c #C48D57",
"X. c #C7997E",
"o. c #D29978",
"O. c #8C8A84",
"+. c #8A8683",
"@. c #958C84",
"#. c #9B8D83",
"$. c #968F89",
"%. c #9C938B",
"&. c #9D9492",
"*. c #9C9797",
"=. c #A49183",
"-. c #A3948C",
";. c #AA9689",
":. c #AF9D8F",
">. c #A69A8E",
",. c #A39B95",
"<. c #AB9C94",
"1. c #A39C9A",
"2. c #A39690",
"3. c #B59D92",
"4. c #B99885",
"5. c #ACA39C",
"6. c #AAA49C",
"7. c #B3A39C",
"8. c #BAA69F",
"9. c #9FA6AC",
"0. c #9EB0BE",
"q. c #A6A7A2",
"w. c #AAA6A2",
"e. c #AFACA7",
"r. c #AFAFAD",
"t. c #B2ACA4",
"y. c #B9AAA3",
"u. c #B4B0A7",
"i. c #B9B0A7",
"p. c #BAB5AF",
"a. c #ADB4BA",
"s. c #BBBBBB",
"d. c #C49C83",
"f. c #CBA286",
"g. c #D9AA8B",
"h. c #D1AD97",
"j. c #CBA895",
"k. c #F0BC97",
"l. c #C0BFBB",
"z. c #F1BFA4",
"x. c #BCC0BF",
"c. c #EEC09F",
"v. c #CCC8BD",
"b. c #E7C5A2",
"n. c #EECBB8",
"m. c #FACDB9",
"M. c #F5CFBA",
"N. c #FDD3BE",
"B. c #BAC1C7",
"V. c #BDC7D0",
"C. c #BBCDDB",
"Z. c #C4C5C2",
"A. c #CCCDC3",
"S. c #CCCCCB",
"D. c #C3C8C4",
"F. c #D7C9C0",
"G. c #CED0CD",
"H. c #D3D4CB",
"J. c #D9D9CF",
"K. c #C7D2D8",
"L. c #CFD9DF",
"P. c #D3D4D2",
"I. c #D3D7D8",
"U. c #D6DADA",
"Y. c #DDDDDC",
"T. c #DAD9D5",
"R. c #F2C2C0",
"E. c #EAE0D7",
"W. c #E7E4DC",
"Q. c #ECE7DC",
"!. c #D9DCE1",
"~. c #D9E0E9",
"^. c #DDE7F0",
"/. c #D6E6F5",
"(. c #EBEAE4",
"). c #EFEEEB",
"_. c #F2F2ED",
"`. c #E4ECF3",
"'. c #E9EEF2",
"]. c #EDF3F6",
"[. c #EEF7FC",
"{. c #EEFFFF",
"}. c #E7F1FB",
"|. c #FCF6F3",
" X c #F6F8F7",
".X c #FCFDF7",
"XX c #F4FCFE",
"oX c #FEFEFD",
"OX c #F5F4F5",
/* pixels */
"I n m I I I v Y.oX XQ.A.u.{ Y ! ~ Y Y Y U b n I I ",
"I I m I m U v *.6.$.] ~ T ' ` ' W _ [ %.5.t.W ,.q.",
"Q Q U W U W E M T _ l 3 > 1 k ( p.W.|.oXoXoXl.).oX",
"] ] ] ' ] Q ` ` @.h r s 0 5 + g (.oX.XoXoXoXS._.oX",
"<.#.#.{ [ ] @.$.M e f.k.o./ S 4 Y.oXoXoXoXoXZ.).oX",
"S.,.#.{ #.@.@.&.k z N.z.g. ...8 e.oXoXoXoXoXS._.oX",
"^.s.%.=.=.#.$.1.d ~ n.| o.G S t O.oX XoXoXoXP._.oX",
"/.!.<.=.;.-.%.1.R 4.j.D g.u a V w.oX XoXoXoXA.(.oX",
"`.}.r.-.;.-.,.&.3.c.m.R.b.B H K F.oX.X.XoXoXH.).oX",
"`.XXZ.-.3.>.,.1.:.M.m.n.X.C A J E.|.oXoXoXoXH.).oX",
"`.[.G.2.<.<.6.1.<.8.N.d.L i Z ) Q.oX XoXoXoXH.).oX",
"`.XXU.<.<.5.w.*.w.^ h.g.L N a ~ (.oXoXoXoXoXJ.).oX",
"`.XXP.,.8.5.w.1.i._ F X.p 9 7 } W.oX XoXoXoXH._.oX",
"`.XXU.1.7.,.T.oXx.k ; g j 6 $ f t.oXoXoXoXoXT.].XX",
"~.XXY.1.y.t.w.M < o % O $ X O o $ y 5.v.+.O.D.L.'.",
"~.[.I.5.` q # . $ & & # $ @ X - - O + , 2 x ].}.`.",
"L.{.B.2 & . # # & & # % # O # & & : * * $ w ).'.].",
"K.C.a.: # % O # # % # # # O # # # & : & * . w.].'.",
"V.0.9.O O # # # # # # # # O # # & & # * &   c '.U."
};
