/* XPM */
static const char *micro_mcolonna[] = {
/* columns rows colors chars-per-pixel */
"25 19 219 2 ",
"   c #020B14",
".  c #09111C",
"X  c #0D1823",
"o  c #131E29",
"O  c #1A1B30",
"+  c #0A0B27",
"@  c #16212D",
"#  c #1C232D",
"$  c #0E2338",
"%  c #1B2434",
"&  c #1C2936",
"*  c #1E253A",
"=  c #1C2A3B",
"-  c #142635",
";  c #072428",
":  c #272524",
">  c #303129",
",  c #232D39",
"<  c #28323A",
"1  c #393233",
"2  c #3B2B2C",
"3  c #473837",
"4  c #475A3C",
"5  c #1D3446",
"6  c #2A394C",
"7  c #373C40",
"8  c #2D3953",
"9  c #2D404E",
"0  c #3C4857",
"q  c #3D505E",
"w  c #395A72",
"e  c #386664",
"r  c #4C464E",
"t  c #474544",
"y  c #57544E",
"u  c #414E56",
"i  c #444C5F",
"p  c #4A595D",
"a  c #52595B",
"s  c #585653",
"d  c #64514D",
"f  c #6D524F",
"g  c #6C5D4A",
"h  c #7D5F43",
"j  c #734E55",
"k  c #685E58",
"l  c #775555",
"z  c #6C4B52",
"x  c #5B625C",
"c  c #57655A",
"v  c #4E6458",
"b  c #7F6A4B",
"n  c #666454",
"m  c #6E7257",
"M  c #747856",
"N  c #716E4C",
"B  c #4B4E61",
"V  c #565D68",
"C  c #49556B",
"Z  c #4E6062",
"A  c #556166",
"S  c #5C6765",
"D  c #50727E",
"F  c #63656C",
"G  c #696B69",
"H  c #666867",
"J  c #7A6760",
"K  c #796C6D",
"L  c #776968",
"P  c #717668",
"I  c #6E6F72",
"U  c #626B74",
"Y  c #726F7A",
"T  c #627174",
"R  c #697678",
"E  c #717172",
"W  c #72797B",
"Q  c #777A77",
"!  c #846B5C",
"~  c #A57A5A",
"^  c #89746A",
"/  c #817965",
"(  c #997D6A",
")  c #877C75",
"_  c #897A73",
"`  c #846B67",
"'  c #A07A71",
"]  c #A77A67",
"[  c #74857F",
"{  c #88876B",
"}  c #80916D",
"|  c #84837B",
" . c #9D8174",
".. c #958F76",
"X. c #A9887A",
"o. c #BA8971",
"O. c #B2817A",
"+. c #A29877",
"@. c #B1997D",
"#. c #AA8A63",
"$. c #CB835B",
"%. c #52788F",
"&. c #407796",
"*. c #6B7C86",
"=. c #7E7B86",
"-. c #837A83",
";. c #8B7C81",
":. c #69878E",
">. c #7D858A",
",. c #72898C",
"<. c #7A8788",
"1. c #7F8992",
"2. c #728C96",
"3. c #70A498",
"4. c #6E90AA",
"5. c #7CA3B9",
"6. c #4DB2C4",
"7. c #4FB0D7",
"8. c #79A8C4",
"9. c #4EC4FF",
"0. c #898984",
"q. c #868889",
"w. c #9B8B86",
"e. c #9D948D",
"r. c #95938B",
"t. c #828C95",
"y. c #8A8F92",
"u. c #968D95",
"i. c #8D9394",
"p. c #839497",
"a. c #96949A",
"s. c #969C9C",
"d. c #AD9A89",
"f. c #A29B95",
"g. c #A39F9C",
"h. c #B6978E",
"j. c #A9A59D",
"k. c #B8A69A",
"l. c #B9A08A",
"z. c #8B9DAA",
"x. c #869AA6",
"c. c #949AA6",
"v. c #8B9DB5",
"b. c #A298B0",
"n. c #8DA1AF",
"m. c #8FA9A6",
"M. c #93A3A5",
"N. c #99A6AE",
"B. c #97A3AA",
"V. c #9FABB5",
"C. c #97A8B7",
"Z. c #8DB0B6",
"A. c #89A3B4",
"S. c #ABA5A6",
"D. c #B2AFA0",
"F. c #BBB3A6",
"G. c #BAB9A7",
"H. c #A7ADBD",
"J. c #A8B4BC",
"K. c #B5BEBB",
"L. c #B2AAB5",
"P. c #C89385",
"I. c #CEAC90",
"U. c #D3B090",
"Y. c #C9A784",
"T. c #CABBA9",
"R. c #BFC4A6",
"E. c #BFC0BB",
"W. c #CBC0BE",
"Q. c #D6C9BA",
"!. c #D6D2B9",
"~. c #E5C0B7",
"^. c #9BB8C9",
"/. c #A2ADC9",
"(. c #A6B6C1",
"). c #AEB3C1",
"_. c #A9BACA",
"`. c #B4BCCA",
"'. c #A2BFDF",
"]. c #ABC1CF",
"[. c #B5C1CB",
"{. c #B7C7C7",
"}. c #ACC3D9",
"|. c #A8C5D8",
" X c #BDCADB",
".X c #BAC2D5",
"XX c #B4CBE4",
"oX c #BCCCE3",
"OX c #B5CCE9",
"+X c #B9C2E1",
"@X c #BBD4EB",
"#X c #BBD6EB",
"$X c #BCDBF1",
"%X c #B9DBF5",
"&X c #ADCBE3",
"*X c #C4C5C0",
"=X c #D1CBCF",
"-X c #DDD6CD",
";X c #DFDBC2",
":X c #CDD6DD",
">X c #CDD0D3",
",X c #E1D7CD",
"<X c #E5EFD7",
"1X c #C4CFE3",
"2X c #C3DBEC",
"3X c #C6D9EB",
"4X c #D1DFE8",
"5X c #C3DBF2",
"6X c #C8D9F0",
"7X c #D3DEFA",
"8X c #D2E1E4",
"9X c #C2E2F7",
"0X c #C5E1FF",
"qX c #C9E3FD",
"wX c #C9EAFD",
"eX c #D4E4F1",
"rX c #E2F1F4",
"tX c #FEFEFB",
"yX c #F1F5E8",
/* pixels */
"<X{.M.M.[ W q.W v v Z p R T R c q W E U >.i.q.n.z.",
"eXoXXX}.}. X:X-X[.N.C.n.z.n.(.N.A.J.J.(._.[.4X2XeX",
"].XX&X|.@XXX8XyX7X3X5X9XwX$X5X5X0XqXqXqX0X5X6XqX2X",
"].}.}.XXOXOX6XrXXX5X^.Z.^.#X9X%X5X2X$X$X@X3X#X6X6X",
"F ).V.p.z.V. X X|.x.< 7 < u _.5X1X@XOXXXoXoXeX.X_.",
"y y E P c G >.E T : : f ` 2 t 1.q.N.p.T W y.y.a a ",
"e.f.) r.S.=.Y s.G 3 d.h.~.h.1 I j.t.T G k G a t s ",
";X!...D.=Xb.u.-XK k  .X.! ^ t 0.Q.i.c.E.e.j.*XP L ",
"{ N | M m x.`.tXj.d j _ ^ l f g.tX{.x.f.{ P d.R.D.",
"g m F.+...H. XyXQ.] o.X.' o.( k.tX3X_.f.n 4 M } / ",
"K Q ) J _ u.V.S.S.( ~ j j h ( G.W./.c.u.0.n { T.0.",
"V S H H | G.K.V.R H #.P.O.@.d w.G.|.z.H F H E -.E ",
"y y Q e.k.Q.-X>Xt.G b ! J N 3 w.,X9X`.a.*.A u R A ",
"H *.p.Q r.M.B.*.B z T.n > / ;.I L.|.v.c.1.>.a S U ",
"x.>.k.<.:.C 5 * 8 r  .U.Y.l.r 6 9 w 5.2.p ,.,.s.<.",
"x.k $.p.&.# ; , , -   ! X.1 0 0 < O w m.| q :.V.*.",
"<.t.a.^.V X % * % @ o o X X @ * & # 5 I.+.D -.Z.:.",
"[..X`.@Xi . @ * % % @ # o o & = = % $ P 3.7.4.4.8.",
"oX+X).@X6   o % * % @ % @ @ & * = $ + e 6.9.7.%.5."
};
