/* XPM */
static const char *micro_nitadros[] = {
/* columns rows colors chars-per-pixel */
"25 19 181 2 ",
"   c #070709",
".  c #0C0C0D",
"X  c #130F0C",
"o  c #11100E",
"O  c #0F0F11",
"+  c #131315",
"@  c #191816",
"#  c #171718",
"$  c #19171A",
"%  c #1B1B1D",
"&  c #181814",
"*  c #211D1A",
"=  c #23241E",
"-  c #1E1E21",
";  c #211F20",
":  c #1E2226",
">  c #1F2428",
",  c #242323",
"<  c #262922",
"1  c #25252F",
"2  c #2B2B2C",
"3  c #2A2625",
"4  c #302923",
"5  c #322C2B",
"6  c #35322E",
"7  c #272A33",
"8  c #2C2D31",
"9  c #2E353F",
"0  c #333232",
"q  c #3A3635",
"w  c #3E3A37",
"e  c #34353C",
"r  c #3D3B3C",
"t  c #483322",
"y  c #423D3B",
"u  c #433C34",
"i  c #4C483F",
"p  c #4B443E",
"a  c #5B4537",
"s  c #3D3F43",
"d  c #424242",
"f  c #4C4A43",
"g  c #4C4A4B",
"h  c #474647",
"j  c #574D44",
"k  c #524D4A",
"l  c #545046",
"z  c #55514E",
"x  c #5D534A",
"c  c #5C584C",
"v  c #545455",
"b  c #5E5A55",
"n  c gray35",
"m  c #62574E",
"M  c #63584D",
"N  c #685B4B",
"B  c #645B52",
"V  c #695D53",
"C  c #605D58",
"Z  c #6C6255",
"A  c #67605A",
"S  c #6C645B",
"D  c #70635A",
"F  c #74695E",
"G  c #7A6C5E",
"H  c #666060",
"J  c #6B6664",
"K  c #6F6A66",
"L  c #6A6A6D",
"P  c #736962",
"I  c #7B6E62",
"U  c #716D6C",
"Y  c #7D7265",
"T  c #7D746A",
"R  c #7B7776",
"E  c #7F7B72",
"W  c #7D7A7A",
"Q  c #757374",
"!  c #886F5B",
"~  c #8F7054",
"^  c #806E62",
"/  c #837365",
"(  c #83766A",
")  c #85796C",
"_  c #8A7A6C",
"`  c #907B6A",
"'  c #837D75",
"]  c #897D72",
"[  c #817D7A",
"{  c #917E70",
"}  c #968068",
"|  c #898172",
" . c #82817F",
".. c #8B847A",
"X. c #8E887C",
"o. c #958473",
"O. c #9A8D7D",
"+. c #A18E7D",
"@. c #AF967B",
"#. c #878482",
"$. c #8D8884",
"%. c #8D8C8A",
"&. c #928F88",
"*. c #968D83",
"=. c #9C9184",
"-. c #9B958D",
";. c #959289",
":. c #979596",
">. c #999391",
",. c #9E9A91",
"<. c #9B9B9B",
"1. c #A18D82",
"2. c #A69383",
"3. c #A5978A",
"4. c #A7998C",
"5. c #A39D97",
"6. c #B8A28B",
"7. c #A4A39A",
"8. c #ACA99A",
"9. c #B0A494",
"0. c #B3AC9C",
"q. c #ADA9A3",
"w. c #A9A7A8",
"e. c #ADAEA9",
"r. c #A4A4A4",
"t. c #BBAAA0",
"y. c #B3AEA8",
"u. c #BFB2A2",
"i. c #B6B2AB",
"p. c #BCB6AC",
"a. c #B5B4B1",
"s. c #BDB9B5",
"d. c #BEBCBD",
"f. c #C3A58D",
"g. c #C2B3A2",
"h. c #C6BDAE",
"j. c #D5BCA6",
"k. c #C4BFB5",
"l. c #C9BEB3",
"z. c #C6C2B7",
"x. c #CAC2B7",
"c. c #C4C1BD",
"v. c #CCC3B9",
"b. c #D0C7BE",
"n. c #D5CABC",
"m. c #D3C2B2",
"M. c #C3C2C3",
"N. c #CBC6C2",
"B. c #CBCAC5",
"V. c #C9C7C8",
"C. c #CACACA",
"Z. c #D1CDCC",
"A. c #D4D0C7",
"S. c #D6D3CC",
"D. c #DBD4CC",
"F. c #DDDBCF",
"G. c #DDDAD3",
"H. c #DBD8D8",
"J. c #E4DCD4",
"K. c #E5E1DB",
"L. c #EBE5DC",
"P. c #F1E7DE",
"I. c #DADEE1",
"U. c #E5E5E3",
"Y. c #E9E8E6",
"T. c #E7E7E9",
"R. c #ECEDEA",
"E. c #F0E7E0",
"W. c #F2EBE3",
"Q. c #EFF1EC",
"!. c #F4F3EC",
"~. c #F8F3EF",
"^. c #F4F4F4",
"/. c #F6FBF7",
"(. c #FFFBF3",
"). c #FAFAF6",
"_. c #FFFAF7",
"`. c #FFFFFB",
"'. c #FEFFF9",
"]. c #FFFEFE",
"[. c #FFFEFD",
/* pixels */
"x x m Y ..u X @ & % % , = < w 8 2 0 6 6 6 w w y p ",
"j j m I S B y f f k g k l l z B C b c b A S P ' ] ",
"T F Y F S B B C Z B B V B B x B B m m B B B Z Y I ",
"3.4.I V M Z Z F F I G P F Y G ^ / I Y Y Y I Y I I ",
"_ / / O.u.O._ _ T ( I I Y ( ) ] ( ) ( ( ( ) / Y ( ",
"+.o./ =.n.n._ G T Y o.2.G D Y P I I I ) T Y P Y G ",
"2./ | ....Y Z =.' ) 6.j.` *.y.i.l.b.5.s.~.D.T P z.",
"g.l.J.7.N.f S W.D.g.@.@.! t.N.K.(.E.B.U.`.).c.i.[.",
"h.z.`.B.7.c Z n.W.m.f.~ } 9.k.H.P.L.S.B.`.!.F.8.!.",
"x.i.`.Q.S.i l L./.E.` t N !.M.I.J.K.y.e.`.!.S.*.L.",
"v.A.`.).).K b _.[.E.1.a / G.a.H.D.S.q.<.^.Q.B...l.",
"v.k.`.R.`.#.J [.C.u V ( x 4 J Z.J.B.a.r.[.R.N.[ p.",
"0.;.G.c.L.;.z W 9 s 0 2 , 2 7 h 5.c.:.<.U.^.M.R D.",
"| X.-.q.p.&.q 2 e s v 2 8 e 8 : 3 0 2 , L [.w.Q c.",
"..-.E ' ,.$.2 - 5 0 w q 2 r y , ; + # . v T.M.%.R ",
"P B ;.f -.J # - 7 0 > > 7 1 : : $ % #   g /.V.#.J ",
"b z >., v r # # - - , % % $ # # + , + . d Y.H.>.>.",
"5 & o , . , $ O % % - % % # # + # $ # + ,  .W U A ",
"* @ q d L g . + % % - % - # # + # - 2 2 n d.M.s.<."
};
