/* XPM */
static const char *micro_bbach[] = {
/* columns rows colors chars-per-pixel */
"25 19 188 2 ",
"   c #040302",
".  c #0E0804",
"X  c #0E0C0D",
"o  c #120A06",
"O  c #130E0B",
"+  c #150B09",
"@  c #14120E",
"#  c #0B1111",
"$  c #151413",
"%  c #1A1512",
"&  c #1C1916",
"*  c #161618",
"=  c #33220E",
"-  c #2B201C",
";  c #332719",
":  c #1E1D23",
">  c #26282C",
",  c #302722",
"<  c #382B25",
"1  c #3F3128",
"2  c #4E2D0C",
"3  c #5C2F1C",
"4  c #4F3011",
"5  c #6B3D1D",
"6  c #663814",
"7  c #47302A",
"8  c #523D2A",
"9  c #413D34",
"0  c #492C26",
"q  c #613D2F",
"w  c #4B443E",
"e  c #504736",
"r  c #584C36",
"t  c #7E462A",
"y  c #774523",
"u  c #684F31",
"i  c #65473A",
"p  c #514A44",
"a  c #574C4A",
"s  c #5E5246",
"d  c #5B534B",
"f  c #5A5654",
"g  c #464C48",
"h  c #625547",
"j  c #63554C",
"k  c #65594D",
"l  c #6A5C4D",
"z  c #69554A",
"x  c #645C54",
"c  c #6C5D54",
"v  c #6E5F58",
"b  c #635650",
"n  c #765951",
"m  c #706248",
"M  c #6D6056",
"N  c #6A6259",
"B  c #746355",
"V  c #796556",
"C  c #75665B",
"Z  c #7C6759",
"A  c #756B5D",
"S  c #7B6B5C",
"D  c #5A5A62",
"F  c #5F6062",
"G  c #6F6860",
"H  c #666963",
"J  c #7A6C63",
"K  c #736967",
"L  c #7D736A",
"P  c #747266",
"I  c #747372",
"U  c #7D7678",
"Y  c #85442E",
"T  c #885128",
"R  c #96572E",
"E  c #8C4C30",
"W  c #865536",
"Q  c #875B42",
"!  c #876E5F",
"~  c #996E5B",
"^  c #8F7A5F",
"/  c #B36E4D",
"(  c #A66F51",
")  c #A26D5E",
"_  c #AA6F5D",
"`  c #A87153",
"'  c #8C6E6E",
"]  c #847363",
"[  c #8B7664",
"{  c #81756B",
"}  c #877A6B",
"|  c #897869",
" . c #98796A",
".. c #8F7C71",
"X. c #877B74",
"o. c #937E74",
"O. c #A97A72",
"+. c #B87F78",
"@. c #91806E",
"#. c #8C837A",
"$. c #938276",
"%. c #9A8B7C",
"&. c #968478",
"*. c #BA8267",
"=. c #AB8570",
"-. c #B68777",
";. c #B98C75",
":. c #C48E74",
">. c #D18B7B",
",. c #797E82",
"<. c #8C8881",
"1. c #948C84",
"2. c #9A8C82",
"3. c #958683",
"4. c #9A918C",
"5. c #9D9485",
"6. c #8A8D94",
"7. c #9F9691",
"8. c #9D9991",
"9. c #9D9E98",
"0. c #A08C81",
"q. c #A49F8B",
"w. c #BB9387",
"e. c #A69C94",
"r. c #A9A59B",
"t. c #BDA49C",
"y. c #B5A69C",
"u. c #B8B29C",
"i. c #959CA3",
"p. c #9D9BA0",
"a. c #9AA4AA",
"s. c #94A1AA",
"d. c #9DA7B1",
"f. c #A5AAAB",
"g. c #BAB3A1",
"h. c #ACB3B6",
"j. c #B5B6B5",
"k. c #C4A393",
"l. c #D6B197",
"z. c #EBAE9C",
"x. c #D198A1",
"c. c #C1BDAA",
"v. c #D3B5AB",
"b. c #DAB2A6",
"n. c #C1BFB0",
"m. c #DCB0B1",
"M. c #EBB9A8",
"N. c #E7BBB2",
"B. c #F4B4B2",
"V. c #C5C0AD",
"C. c #CAC3B4",
"Z. c #CFC1BE",
"A. c #C6C8BA",
"S. c #F0C2AA",
"D. c #EBCCB8",
"F. c #F2C3B8",
"G. c #B1BCC2",
"H. c #C0BFC4",
"J. c #B6C1C7",
"K. c #C4C8CA",
"L. c #D3CCC6",
"P. c #D0D1CC",
"I. c #CBCFD0",
"U. c #CBD4D9",
"Y. c #CFD8DA",
"T. c #D6D6D8",
"R. c #D5DEDD",
"E. c #D5D9DA",
"W. c #E6DFD9",
"Q. c #D8E1DE",
"!. c #EFE5CC",
"~. c #E2E1DC",
"^. c #D1DFEA",
"/. c #DDE3E3",
"(. c #D7E7F6",
"). c #DCEAF3",
"_. c #E3E6E3",
"`. c #E6E6E8",
"'. c #EDEEE9",
"]. c #F3EBE3",
"[. c #F4F2ED",
"{. c #FCF8EF",
"}. c #EBF3F3",
"|. c #ECF4FF",
" X c #F4F4F3",
".X c #FCFBF5",
"XX c #FEFEFC",
"oX c #F7F7F6",
/* pixels */
"k h h h b x k l s w 9 h c L 1.%.h c k d x x f f p ",
"B l k k s h s s p a U e.L.}.XX].} &.2.X.N A K L G ",
"V B M c l l k x e r.XXXXoXP.e.] c v l C c l c k p ",
"C C B l l k k c d P r.Z i i n c C J V c J } X.5.3.",
"<.J V V c N M z x d 7 0 = = 8 A B c ] C.W.{.XXXX[.",
"f.4.| S A A A Z K 1  .z.*.( 3 s y.L.g..XXX.XXX.X X",
"6.f.8.{ ] S Z ] B r D.M.:./ E u XX.Xn..XXXXXXXXXXX",
"D f.j.1.| [ ] L c ] N.+.;.W t ^ XX.XA.XXXXXXXXXXXX",
"9.I K.h.#.[ ] { ' w.l.O.>.2 t =.XXXXc.XXXXoXXXXXXX",
"'.U G.U.4.[ @.{  .M.S.B.>.y R ` XXXXc.XXXXXX.XXXXX",
"XXp.d.^.j.....o.$.t.v.x.) 5 y k.XXXXC.XXXXXXXXXXXX",
"XXH.s.(.K.$.o...X.3.t.m._ y W [.XXXXV.XXXXXXXXXXXX",
"XXY.i.(.U.2.&.&.$.1.t.t.) 5 Q oXXX[.q.XXXX.X.XXXXX",
".XR.a.).R.4...%.%.7.v.2.q 4 W {.XXXXu.XXXX.X.XXXXX",
"XXQ.a.).Y.8.0.2.S C F.b.~ 5 T ! j.].!.XX.X_._.`. X",
"XXR.i.|.).<.l ; # : k.F.-.Y 6   . < m Z..X~.K.T.R.",
"XXU.i.U.F @ . . @ O - j c < o @ & O O % f I g H J.",
"[.I.,.>   O @ % @ % o . o O @ % & & % &   $ H #.}.",
"/.h.> * & @ @ X $ $ $ % $ % $ * $ @ % @ @ O , 3._."
};
