/* XPM */
static const char *micro_rdubois[] = {
/* columns rows colors chars-per-pixel */
"25 19 201 2 ",
"   c #010203",
".  c #0B0300",
"X  c #0E0C0C",
"o  c #0D0D03",
"O  c #1D0400",
"+  c #110F0B",
"@  c #1A0500",
"#  c #12100D",
"$  c #141412",
"%  c #1B1A17",
"&  c #1B1C1B",
"*  c #191313",
"=  c #231F1B",
"-  c #351F12",
";  c #25201D",
":  c #372118",
">  c #272323",
",  c #282A27",
"<  c #332E2A",
"1  c #342926",
"2  c #33312A",
"3  c #3A352F",
"4  c #393534",
"5  c #471A00",
"6  c #501F0E",
"7  c #50260E",
"8  c #43311D",
"9  c #763607",
"0  c #792F17",
"q  c #6B321B",
"w  c #6A3B1A",
"e  c #70381D",
"r  c #6D3B08",
"t  c #512524",
"y  c #4D3527",
"u  c #5D362F",
"i  c #423D3A",
"p  c #453C35",
"a  c #523D33",
"s  c #492622",
"d  c #633A2A",
"f  c #7A3924",
"g  c #794714",
"h  c #4A443E",
"j  c #44423D",
"k  c #584136",
"l  c #544A3D",
"z  c #54443A",
"x  c #714422",
"c  c #7E412E",
"v  c #7A522F",
"b  c #76493C",
"n  c #4C4541",
"m  c #4D4842",
"M  c #544B44",
"N  c #5C4F46",
"B  c #534D4A",
"V  c #594847",
"C  c #5C534C",
"Z  c #5D5D5C",
"A  c #585856",
"S  c #6B5C4D",
"D  c #64594D",
"F  c #715B4E",
"G  c #635A52",
"H  c #6B5E54",
"J  c #645C59",
"K  c #775F53",
"L  c #5F625A",
"P  c #5A6756",
"I  c #66635D",
"U  c #6C625C",
"Y  c #716153",
"T  c #73645C",
"R  c #7B655D",
"E  c #76695C",
"W  c #615F62",
"Q  c #7C5F61",
"!  c #6C6663",
"~  c #646E63",
"^  c #736A62",
"/  c #7A6961",
"(  c #776965",
")  c #76726D",
"_  c #757364",
"`  c #747672",
"'  c #7B7875",
"]  c #8F3918",
"[  c #863F2B",
"{  c #804910",
"}  c #875319",
"|  c #86593B",
" . c #8B4A2C",
".. c #A35C3B",
"X. c #88603D",
"o. c #875B40",
"O. c #855B45",
"+. c #925448",
"@. c #A65C42",
"#. c #9A6B4D",
"$. c #986049",
"%. c #836959",
"&. c #976B56",
"*. c #9E775B",
"=. c #8C7458",
"-. c #AB6043",
";. c #A66D57",
":. c #A57455",
">. c #A8745C",
",. c #B97453",
"<. c #836D64",
"1. c #886D62",
"2. c #82726C",
"3. c #887768",
"4. c #917562",
"5. c #91766A",
"6. c #967A68",
"7. c #837E7D",
"8. c #857872",
"9. c #987D72",
"0. c #AE6B62",
"q. c #A77B62",
"w. c #AC7D65",
"e. c #A47667",
"r. c #B37A6A",
"t. c #B6746A",
"y. c #A87E70",
"u. c #C57E6C",
"i. c #93816B",
"p. c #81807E",
"a. c #93827C",
"s. c #978C7C",
"d. c #A48A6F",
"f. c #B1886C",
"g. c #A68873",
"h. c #A98A78",
"j. c #BE917A",
"k. c #C7826F",
"l. c #C88876",
"z. c #878784",
"x. c #8E928C",
"c. c #93908C",
"v. c #9F928A",
"b. c #979B9F",
"n. c #999893",
"m. c #A28E81",
"M. c #B38C8B",
"N. c #A09B87",
"B. c #B69488",
"V. c #AF8F90",
"C. c #AA9F9B",
"Z. c #B19E90",
"A. c #9FA098",
"S. c #B6A093",
"D. c #AC9EA4",
"F. c #9CA1A5",
"G. c #ABABA4",
"H. c #A0A5A9",
"J. c #B3AFAA",
"K. c #ABB4AC",
"L. c #B8B4AA",
"P. c #B3ADB1",
"I. c #AFB5B1",
"U. c #B8BAB5",
"Y. c #CA9C8D",
"T. c #C3978A",
"R. c #D6978B",
"E. c #CB9D96",
"W. c #D49B92",
"Q. c #DFA08F",
"!. c #D9A49C",
"~. c #E3A598",
"^. c #C0AFA7",
"/. c #D1B6AD",
"(. c #C4BDBA",
"). c #C4B9B5",
"_. c #D4BCB0",
"`. c #E1B6A5",
"'. c #C3C2BE",
"]. c #D0C4B4",
"[. c #ACBDC7",
"{. c #BBD2E2",
"}. c #CCCAC3",
"|. c #D1CEC9",
" X c #D3D7CB",
".X c #CAD3D0",
"XX c #DDDCD3",
"oX c #D9D8D6",
"OX c #EAD6C8",
"+X c #DCE0D1",
"@X c #EAE7DE",
"#X c #F1E7DD",
"$X c #C3DEEF",
"%X c #C4E1EF",
"&X c #C7E3F2",
"*X c #FAEEEE",
"=X c #FBF6EC",
"-X c #FDFBF5",
";X c #FEFDFC",
":X c #F9F7FA",
">X c #E9F3F0",
/* pixels */
"B X             . 1 a.v.c.n.j o . # # & W 7.' ` Z ",
"< 1 = = % % $ # , z.n.z.p.4 X * ; + # $ > > $ & $ ",
"T H U G h 3 # < _ 3.S y - : k k 4 i < 2 > = = & ; ",
"M M l M M h 2 i n M : O @ @ @ 8 J C I ^ 8.8.M J L ",
"M p C m n 4 B ` D.V s d b d 7 5 T G S S E E N U ^ ",
"B M h C C j '.;X#Xy e.Q.k.@.-.0 k H l C l l l M M ",
"M M M M B h ) 7.G a B.+.0.+.c f z E s.J.(.(.) A.K.",
"C C N D C M m B O.r.k.[ u.q 5 x L.=X;X;X;X;Xx.>X;X",
"H J J S G A Z S Q W.~.>.l. .] ,.:X-X;X;X:X;Xx. X;X",
"Y U H F H Z L Y G y.R.r.l.0 0 f.-X;X;X;X;X;XG.XX;X",
"T T T K T ! I E P 4.R.R.t.[ | 3.-X;X-X;X-X;XJ.@X;X",
"' E R R E ! ! U ~ 5.~.W.t.[ j.N.=X;X:X-X-X;XJ.}.;X",
"b.( R <.T ! ^ ! 7.M.!.Y.$. .#.s.:X;X;X;X:X;XG.XX;X",
"[.' / 2.( / 2.7.D.M.E.`.:...e 1.*X-X;X;X;X;XJ.+X;X",
"{.z./ 2.2.%.5.C.P.V.E.Y.;...q a Z.OX=X-X-X:XI.XX;X",
"$Xc.<.3.5.%.4.^..Xa.u T.>.@.6 ! d.d.i.].-X;XU.XX;X",
"%Xb.1.w.:.X.o.>.}.oX8.t +. .%.}.Z.g.r } OX;XI.XX;X",
"&XF.5.q.#.| o.*.h.S._.h.b &./.).g.d g r 6.;XU.|.;X",
"&XH.9.q.| v o.&.w.&.*.=.i.m.m.1.w w } { x OX XoX>X"
};
