/* XPM */
static const char *micro_fwebe_ir[] = {
/* columns rows colors chars-per-pixel */
"25 19 192 2 ",
"   c #0C0B0D",
".  c #140C0A",
"X  c #14130F",
"o  c #0E0D12",
"O  c #171812",
"+  c #1A1916",
"@  c #161719",
"#  c #171918",
"$  c #1C1B1B",
"%  c #221D1C",
"&  c #26231E",
"*  c #392D1F",
"=  c #211F20",
"-  c #252524",
";  c #2F2B21",
":  c #2C2B2A",
">  c #282423",
",  c #332F2C",
"<  c #30302E",
"1  c #3C352B",
"2  c #312C32",
"3  c #323131",
"4  c #3D3734",
"5  c #3B3936",
"6  c #3D3B39",
"7  c #413833",
"8  c #413D39",
"9  c #42413E",
"0  c #4B4239",
"q  c #524232",
"w  c #6B553E",
"e  c #4E4A45",
"r  c #4A4742",
"t  c #534B45",
"y  c #524D49",
"u  c #54514C",
"i  c #5C544C",
"p  c #5F5C57",
"a  c #5D5A56",
"s  c #61574E",
"d  c #695A49",
"f  c #745E4C",
"g  c #645B52",
"h  c #6A5E51",
"j  c #665E5C",
"k  c #6C6256",
"l  c #6F665D",
"z  c #736555",
"x  c #73665B",
"c  c #75695D",
"v  c #7A6B5E",
"b  c #746C63",
"n  c #7A6D61",
"m  c #756C6D",
"M  c #7F7866",
"N  c #7A736C",
"B  c #7D7260",
"V  c #787876",
"C  c #7F7E7C",
"Z  c #846A55",
"A  c #8B715B",
"S  c #827364",
"D  c #8B7662",
"F  c #8A7965",
"G  c #82776D",
"H  c #847A6B",
"J  c #8B7A6A",
"K  c #967963",
"L  c #987E67",
"P  c #9D7E6A",
"I  c #867D74",
"U  c #847F79",
"Y  c #9B826E",
"T  c #9E8777",
"R  c #958877",
"E  c #93897C",
"W  c #988778",
"Q  c #9C9578",
"!  c #A0816D",
"~  c #A58B7A",
"^  c #AF907B",
"/  c #A7927D",
"(  c #8D8980",
")  c #87858B",
"_  c #9A8E82",
"`  c #958D82",
"'  c #949183",
"]  c #9E9183",
"[  c #9C938B",
"{  c #8F8E93",
"}  c #888492",
"|  c #9C9A93",
" . c #9A999F",
".. c #949495",
"X. c #AD9A85",
"o. c #A1978B",
"O. c #A89A8F",
"+. c #A39386",
"@. c #B09C8B",
"#. c #A59C92",
"$. c #A99F95",
"%. c #A09D98",
"&. c #AAA38A",
"*. c #AEA993",
"=. c #A6A69B",
"-. c #A7A196",
";. c #B2AA9E",
":. c #BAA996",
">. c #BAB29F",
",. c #A09EA1",
"<. c #A1A2A7",
"1. c #ABA5AC",
"2. c #A9A9A6",
"3. c #B8AFA6",
"4. c #B1AAA2",
"5. c #BBB5AC",
"6. c #BEB9AC",
"7. c #B1B1A9",
"8. c #ABABB1",
"9. c #B6B6BE",
"0. c #B9B3BD",
"q. c #C6B199",
"w. c #C9B7A7",
"e. c #C0BAA6",
"r. c #C9B8A6",
"t. c #C2BDAA",
"y. c #C7B7A6",
"u. c #C4BDB2",
"i. c #C1BEB9",
"p. c #CBBEB6",
"a. c #C6C1A1",
"s. c #D0C7AA",
"d. c #CCC4B4",
"f. c #C3C1BB",
"g. c #CBC5BE",
"h. c #CAC8BC",
"j. c #DFC8B6",
"k. c #D3C7B9",
"l. c #D3CCBC",
"z. c #D3CAB4",
"x. c #D7D1B9",
"c. c #D9D3BE",
"v. c #E0C9B7",
"b. c #BFBEC4",
"n. c #C0BEC3",
"m. c #C4C3C2",
"M. c #C9C4C7",
"N. c #CDC9C0",
"B. c #C9C9CB",
"V. c #C4C3C8",
"C. c #D1CEC5",
"Z. c #DBD4C3",
"A. c #D6D1CC",
"S. c #DEDACC",
"D. c #CCCED3",
"F. c #CFCFD9",
"G. c #D8D7D2",
"H. c #DAD9D1",
"J. c #D7D0D8",
"K. c #DCDADB",
"L. c #E3D7CB",
"P. c #E4DBCB",
"I. c #E2DED4",
"U. c #E2DEDB",
"Y. c #E4E0C7",
"T. c #E5E0CD",
"R. c #E5E3D4",
"E. c #EAE3D3",
"W. c #E5E4DB",
"Q. c #EAE6D9",
"!. c #ECE9DC",
"~. c #F1E6DA",
"^. c #F2E9D8",
"/. c #DEDFE3",
"(. c #E2DBE3",
"). c #E4E4E3",
"_. c #E8E6E7",
"`. c #E7E8E0",
"'. c #ECEAE3",
"]. c #E6E7E9",
"[. c #ECECEB",
"{. c #F2EEE2",
"}. c #EEF0E5",
"|. c #EEF0ED",
" X c #F4F4EB",
".X c #F8F2E8",
"XX c #F1EFF0",
"oX c #F4F4F5",
"OX c #FBFBF7",
"+X c #FEFEFE",
"@X c #FDFEFA",
"#X c #F7FAF8",
/* pixels */
"1 4 4 7 0 k i . X + # # @ - : 3 : + + $ $ $ + + $ ",
"i i t i b b i , , > : : : < : 3 8 6 5 3 6 5 5 5 6 ",
"c i t i t i g y e y y y t e u e e y u y y r y i a ",
"#.o._ n h s g i g i x O.] k i g s i i g i i i s i ",
"h S S z z S x x n d @.v.j.@.c c n n n v x n c c x ",
"S J F S H L.~.E n f D K K f z n c c c x n x k x c ",
"G R B c n I [ H h J q.^ ! T n l b N l c h b I b h ",
".Xu.M Z.3.5.U ; $.w.~ P Z T p.A.i.W.A.N.( g.@XW.E ",
"@X5.6.+X].i.[ 8 f.#.v / F z '.oX7.oX_.R.h._.+XOXE.",
"@X5.5.OX@XG.N 9 %.-.Y f w z 4.#X=.XXK.I.2.m.+X XQ.",
"OXg.6.+X#X@X| O 5.l.X.L A F ;.'.2._.B.m...,.#X`.H.",
"+X5.u.@XoX@XC.| W.!.r.Y A :.E.W.f.U.M.n.)  .[.).m.",
"oX#.;.[.|.'.{. X}.!.P.r.y.P.!.!..XW.M.0.} 1./.D.V.",
"G.E * | G.I.R.!.!.{.!.P.E.Q.Q.W.R.!.f.1.) 8.B.D.b.",
"5.] q ` 6.L.P.!.{.Q.!.R.R.Q.R.Q.T.c.d.6 2 : ..F.{ ",
"-.R d x d.Z.z.R.~.Q.Q.R.R.R.S.S.x.a.Y.g > % V 9.) ",
"+.p j =.^.s.:.L.E.E.P.P.S.P.Z.Z.&.>.P.'   o ) J.8.",
"_ & m ' w.q.:.k.d.c.Z.Z.l.l.t.e.Q *.Z.6.=   C (.<.",
"G + % ; Z Z X.e.>.d.Z.Z.l.t.*.*.Q &.z.T.9   p 1..."
};
