/* XPM */
static const char *micro_nidruon[] = {
/* columns rows colors chars-per-pixel */
"25 19 194 2 ",
"   c #0C0C0F",
".  c #100F0D",
"X  c #14120F",
"o  c #0B0811",
"O  c #120F16",
"+  c #161410",
"@  c #1C1B16",
"#  c #18161B",
"$  c #221E1D",
"%  c #22211F",
"&  c #1C1B23",
"*  c #1D1D35",
"=  c #262523",
"-  c #27282A",
";  c #2A2A2C",
":  c #2A2625",
">  c #2C2C32",
",  c #28283B",
"<  c #302F3F",
"1  c #333235",
"2  c #383637",
"3  c #373639",
"4  c #39373B",
"5  c #3D3C3B",
"6  c #3C3835",
"7  c #3A3829",
"8  c #443C36",
"9  c #473D38",
"0  c #46423F",
"q  c #4D423A",
"w  c #4E4A3E",
"e  c #52473E",
"r  c #584A3F",
"t  c #52483E",
"y  c #222542",
"u  c #2C2F4C",
"i  c #292B45",
"p  c #302B4B",
"a  c #32324B",
"s  c #3D3C46",
"d  c #2B2950",
"f  c #2A3256",
"g  c #353555",
"h  c #3A3D54",
"j  c #3B3C5D",
"k  c #35385A",
"l  c #3E3E6A",
"z  c #3F4346",
"x  c #3E4066",
"c  c #4A4542",
"v  c #4D4944",
"b  c #444245",
"n  c #544B43",
"m  c #5A4F43",
"M  c #534F4A",
"N  c #5A4F4A",
"B  c #554643",
"V  c #5A5147",
"C  c #57514A",
"Z  c #5C534B",
"A  c #5D5A4B",
"S  c #41435F",
"D  c #4F5055",
"F  c #575E57",
"G  c #5A5A55",
"H  c #60544A",
"J  c #635A4D",
"K  c #685C4E",
"L  c #605752",
"P  c #645C53",
"I  c #6B5F54",
"U  c #6C5E5A",
"Y  c #645F5B",
"T  c #6D6155",
"R  c #6D625A",
"E  c #61605C",
"W  c #726253",
"Q  c #786755",
"!  c #72655A",
"~  c #766A5E",
"^  c #7B6D5D",
"/  c #434365",
"(  c #4C4B65",
")  c #45456D",
"_  c #494969",
"`  c #504D6C",
"'  c #565867",
"]  c #595868",
"[  c #525472",
"{  c #555A72",
"}  c #525878",
"|  c #5B5C7D",
" . c #595678",
".. c #5C607C",
"X. c #6F6661",
"o. c #696769",
"O. c #786760",
"+. c #7A6A65",
"@. c #7D736A",
"#. c #7D7B6C",
"$. c #686576",
"%. c #7E7A72",
"&. c #7A7A7C",
"*. c #77757A",
"=. c #83715D",
"-. c #847464",
";. c #8B776F",
":. c #867A6E",
">. c #837B71",
",. c #8B7A76",
"<. c #837877",
"1. c #907D77",
"2. c #8B8479",
"3. c #958479",
"4. c #585083",
"5. c #646685",
"6. c #686987",
"7. c #7E7980",
"8. c #787587",
"9. c #736A97",
"0. c #717290",
"q. c #838383",
"w. c #89868B",
"e. c #928B84",
"r. c #9B8C87",
"t. c #9C938B",
"y. c #8B8798",
"u. c #8A8797",
"i. c #92899A",
"p. c #9B9491",
"a. c #A3968C",
"s. c #A79B8D",
"d. c #AA9F94",
"f. c #A49A93",
"g. c #96A199",
"h. c #A8A29B",
"j. c #9D9CAA",
"k. c #9DA0A9",
"l. c #A5A3AC",
"z. c #A8A7AF",
"x. c #A7A8AA",
"c. c #ACABA6",
"v. c #B6ACA5",
"b. c #B6A7A2",
"n. c #B9B5AC",
"m. c #ACAEB4",
"M. c #AAACB8",
"N. c #BAB7B0",
"B. c #BBBBB3",
"V. c #B7B6BE",
"C. c #BBBCBD",
"Z. c #B5B5B7",
"A. c #C2B4A7",
"S. c #C5BBB3",
"D. c #C1BEB9",
"F. c #C9C4BC",
"G. c #C9C9BF",
"H. c #C5C1BE",
"J. c #BDBCCA",
"K. c #C1BCC2",
"L. c #B9C0C8",
"P. c #C6C5C7",
"I. c #C8C7C5",
"U. c #C5C4CD",
"Y. c #CDCCCD",
"T. c #CECEC6",
"R. c #D0CDC8",
"E. c #D0CBC5",
"W. c #C7D0CB",
"Q. c #D4D3CE",
"!. c #DCD8CF",
"~. c #DAD3CD",
"^. c #D6D3D4",
"/. c #DCDBD9",
"(. c #E3DDD8",
"). c #E3E3DD",
"_. c #EDEBDF",
"`. c #F2E6DA",
"'. c #CFCEE0",
"]. c #E6E5E6",
"[. c #ECE5E2",
"{. c #E9E9E1",
"}. c #ECECEC",
"|. c #F1EAE8",
" X c #F3F3EC",
".X c #EFE9F5",
"XX c #EFF5F1",
"oX c #F2F3F3",
"OX c #F8F7F2",
"+X c #FAFBF5",
"@X c #FFFFFF",
"#X c #FEFEFE",
"$X c #FDFDFC",
"%X c #F5FBF9",
/* pixels */
"6 n e q n P L 8 = ; = = ; - 1 > 1 5 3 3 1 4 2 1 5 ",
"Y P q t C P Z N v c c M 0 c c c 0 c C v v 8 c v M ",
"e.d.3.:.P C n V r e n n C n n n n m n n q n n n n ",
"J W -.-.K T ! H Q W ! ! Z P ~ ! ! ! ~ ! ~ I ! ! ! ",
"^ -.=.Q ^ s.`.A.! ~ R 9 9 q H ~ ~ ~ ! T ~ ! ~ ! ! ",
"! -.3.W ! @.a.d.! I R b.S.v.N J R J R I J R P R P ",
"F.F.@.@.t.2.%.q v t.,.,.1.:.L B.H.D.n.S.v.%.!.(.h.",
"@X$Xe.[.OXB.T.c E ~.a.3.;.O.X.[.^./.+X XR.c.@X@X_.",
"@X).r.).%XoXg.v F B.S.;.U U p.$XN.K..X^.Q.C.#X@X_.",
"@X).a.).XX@XW.8 z }.[.,.+.N ^.@XB.I.].T.G.q.).$X{.",
"@XOXt.|.$XOX@XG F $X|.<.B Z F.{.Z.Y./.B.c.&.Y. XQ.",
"@X_.2.(.OXoX#X*.] j.w.2.J >.q.( ( u.U.P.z.8.J.}.Y.",
"+XE.w V B.].U.$.x g ( 8.&.o.( l j j y.V.l.8.'.U.U.",
"B.f.A H t.C.y.{ { 5.6.} | [ ..../ 5.$.s b > ] C.M.",
"N.2.#.m >.q.8.} [ } 0.| _ 6...S j / ( = @ % 1 x.k.",
"!.+.7 2.@.D ] f g / _ ) ) l / u k ) ` & + X ; m.m.",
"(.n : <.4 < S g y u d 4.9.p * i ( g h &   o & P.L.",
"p.: X + # s g / h ' ' $.i.7.$.a i y i &   O & w.C.",
"$ = @ . > , a / 6.l.h.e.>.@.y. .y y , &   O # G X."
};
