/* XPM */
static const char *micro_klabaune[] = {
/* columns rows colors chars-per-pixel */
"25 19 219 2 ",
"   c #453E34",
".  c #4D431F",
"X  c #584937",
"o  c #595F3B",
"O  c #445529",
"+  c #20414A",
"@  c #394543",
"#  c #2E485F",
"$  c #2A545A",
"%  c #2A5661",
"&  c #2A5B6C",
"*  c #375A6A",
"=  c #33686F",
"-  c #2E6172",
";  c #396574",
":  c #3A6B77",
">  c #336A7D",
",  c #3B6B7B",
"<  c #356875",
"1  c #3D717F",
"2  c #4A4B48",
"3  c #474A4F",
"4  c #5B4C45",
"5  c #4E564C",
"6  c #555245",
"7  c #585653",
"8  c #4B5453",
"9  c #644E40",
"0  c #63594A",
"q  c #65574A",
"w  c #765A4A",
"e  c #625C55",
"r  c #685E58",
"t  c #795D57",
"y  c #5E6641",
"u  c #5A615A",
"i  c #5B6250",
"p  c #6B6155",
"a  c #67665B",
"s  c #726155",
"d  c #726D5A",
"f  c #6F7152",
"g  c #767459",
"h  c #6A644C",
"j  c #555D60",
"k  c #6A5B62",
"l  c #45676E",
"z  c #426B6D",
"x  c #4D706C",
"c  c #426F7D",
"v  c #4B6A73",
"b  c #4A737D",
"n  c #4D7B7F",
"m  c #517278",
"M  c #626463",
"N  c #6A6A66",
"B  c #6A6767",
"V  c #736C62",
"C  c #786965",
"Z  c #6B746B",
"A  c #79736E",
"S  c #767369",
"D  c #636C73",
"F  c #6B7273",
"G  c #6A7D7C",
"H  c #6C7D77",
"J  c #7C7C72",
"K  c #797878",
"L  c #8A6B5B",
"P  c #936F5F",
"I  c #997156",
"U  c #86765F",
"Y  c #856C62",
"T  c #827964",
"R  c #897D61",
"E  c #847C6C",
"W  c #897A67",
"Q  c #907365",
"!  c #847D79",
"~  c #B37369",
"^  c #7D876F",
"/  c #7B817C",
"(  c #BE885C",
")  c #83806D",
"_  c #92816D",
"`  c #8C857A",
"'  c #8A8477",
"]  c #998678",
"[  c #938C7D",
"{  c #9A8675",
"}  c #9C947D",
"|  c #99966B",
" . c #A7846A",
".. c #A78676",
"X. c #A0927A",
"o. c #A49576",
"O. c #B38E78",
"+. c #396C82",
"@. c #3A7586",
"#. c #3E7D9E",
"$. c #426F8B",
"%. c #42758B",
"&. c #587882",
"*. c #447A92",
"=. c #787F87",
"-. c #3D8086",
";. c #56899A",
":. c #788288",
">. c #6D8E9F",
",. c #78959D",
"<. c #7DA59D",
"1. c #5F8FA3",
"2. c #5497A8",
"3. c #638EA3",
"4. c #7894AA",
"5. c #6DA0A3",
"6. c #75A1AE",
"7. c #5EA8C1",
"8. c #7CB4C1",
"9. c #71B2D2",
"0. c #68B1C4",
"q. c #6DD1FF",
"w. c #848483",
"e. c #898381",
"r. c #848C82",
"t. c #8B8985",
"y. c #8C878C",
"u. c #8D8E8D",
"i. c #83898C",
"p. c #948C83",
"a. c #958986",
"s. c #9E9580",
"d. c #9B9389",
"f. c #96928B",
"g. c #8E8C92",
"h. c #858E97",
"j. c #8F9292",
"k. c #8E9997",
"l. c #879B92",
"z. c #959896",
"x. c #88938D",
"c. c #A88688",
"v. c #A59988",
"b. c #B89C87",
"n. c #A59B98",
"m. c #B79E9A",
"M. c #9AA39D",
"N. c #96A39C",
"B. c #B8AB8C",
"V. c #A8A89A",
"C. c #B9B39B",
"Z. c #B1A98F",
"A. c #909EA4",
"S. c #87A3AF",
"D. c #95B0A9",
"F. c #82B2B4",
"G. c #94A5B5",
"H. c #A0A4A2",
"J. c #ABAAA8",
"K. c #B2ABA7",
"L. c #ABB0AA",
"P. c #B1B3AB",
"I. c #BCB6AA",
"U. c #A3B2BA",
"Y. c #BCBCB7",
"T. c #B4BBBB",
"R. c #B8B6B9",
"E. c #B0ACB5",
"W. c #C29484",
"Q. c #DEB982",
"!. c #C8AA92",
"~. c #C9BD99",
"^. c #D3A79E",
"/. c #C2AEA3",
"(. c #C3B7B8",
"). c #CABCA2",
"_. c #BFC5B9",
"`. c #C8C3AF",
"'. c #CAC4BD",
"]. c #DDCFB9",
"[. c #E0C4AF",
"{. c #F7D2B5",
"}. c #94B6C2",
"|. c #BABBC0",
" X c #BFC0C9",
".X c #C5C7C9",
"XX c #CED1CA",
"oX c #D1D4C1",
"OX c #C3CDD3",
"+X c #CBCDD2",
"@X c #C5CFD8",
"#X c #C5CBD5",
"$X c #CAD2D4",
"%X c #C5D1D9",
"&X c #CCD4DB",
"*X c #CFD8DB",
"=X c #C7D3D5",
"-X c #D4D2D7",
";X c #D2D6DC",
":X c #D4DCDB",
">X c #D7DDD1",
",X c #D4CDC3",
"<X c #FDD8C8",
"1X c #DDE2D6",
"2X c #F5EDDA",
"3X c #CDD9E3",
"4X c #CAD5E2",
"5X c #D3DBE3",
"6X c #D5DDE8",
"7X c #DDE4EB",
"8X c #DFE2E7",
"9X c #DDE9F5",
"0X c #E1E4EC",
"qX c #E3E5E4",
"wX c #F8EEEA",
"eX c #EDF0E7",
"rX c #FAF8E5",
"tX c #E1E8F2",
"yX c #FEFCF0",
/* pixels */
"OXT.J.z.w.p.v.[ Z a V N / K 7 p M A a.A J f.e.k.h.",
"6X:X*X&XOX.XY.R.'.`.C.C.V.u.u.w.i.J.J.V.L.Y. XOX&X",
"&X$X=X%X4XOX;X&XrXyX2X2X1X:X5X6X5X6X0X6X7X8XtX9X7X",
"+X:X+X=X&X%XOX@X1X>XXXqX;X%X6X3X3X3X3X5X5X0X5X7X6X",
"r A K.z.j.H.T.T.T..X+Xy.g.+X*X=X;X*X5X5X-X-X0X;X&X",
"q 4 4 p 6 7 N S M B C X X s.d.t.e.j.k.w.! t.z.B a ",
"X.Z.v.T s.n.e ` p.p { !.b.!.] V ! J u A a p 6   X ",
"~.].s.R } K.K (.).{ L P  .L ] I./.d.r.J.p.` I.V s ",
"X g a T . ) z.eX2X~.Y Q O.t  .wXyX:Xw.` g f B.~.C.",
"q 9 T R E v.P.,X[.].~ .... ...oXwX-XE.d.y O o f g ",
"6 C e h 7 C n.n.W S c.I w  .r Y V.M.a.c.t 4 s Z.' ",
"a 8 0 V V b.<X(.j @ g.I L _ G k m.H.k.5 i a B :.e ",
"C @ q e.o.B.{._.&.3.y. .T  .3.F.'.|. Xg.F 8 2 J u ",
"V F ' N g r.N.6.;.@.=.O.W.] 1 -.2.8.A.f./ H 2 a ! ",
"z.x.d X.D >.1.#.@.& * [ ^.F $ $.@.*.4.=.5 H t.p.' ",
"N.F w ( :.,.n < *.+.* x Z v , %.$.> n l.Z 3 i.D.H ",
"M.:.j.P.E.U.* = %., b l l b ; @.c ; z Q.| v E U.H ",
"r.+X.X'.7X4X$ % , < b v v &.: +.: * - ^ <.9.m A.S.",
"V..XR.T.@XG.+ % < & c v m &.; > = # & 5.0.q.7.D }."
};
