/* XPM */
static const char *micro_masaldan[] = {
/* columns rows colors chars-per-pixel */
"25 19 214 2 ",
"   c #181617",
".  c #161B26",
"X  c #1B232B",
"o  c #1D2B3B",
"O  c #182836",
"+  c #0F3037",
"@  c #133237",
"#  c #28282B",
"$  c #322C2E",
"%  c #36332E",
"&  c #2F2E34",
"*  c #232B3A",
"=  c #272A3A",
"-  c #2B333A",
";  c #40392F",
":  c #4A3D3A",
">  c #503D39",
",  c #6B2A2E",
"<  c #344036",
"1  c #4D493A",
"2  c #594A38",
"3  c #525238",
"4  c #1F2E41",
"5  c #253343",
"6  c #2A3645",
"7  c #25334C",
"8  c #2D3B4A",
"9  c #293849",
"0  c #323746",
"q  c #2C3E57",
"w  c #373E5B",
"e  c #743C45",
"r  c #374855",
"t  c #4C4C4B",
"y  c #4B4245",
"u  c #564845",
"i  c #5B554D",
"p  c #58584E",
"a  c #4B4A53",
"s  c #5A4F53",
"d  c #42565D",
"f  c #555154",
"g  c #5C5C55",
"h  c #595451",
"j  c #4C5A4B",
"k  c #6B514A",
"l  c #665347",
"z  c #7D4C5F",
"x  c #625C5C",
"c  c #675956",
"v  c #725752",
"b  c #715D54",
"n  c #6C664C",
"m  c #666559",
"M  c #7F6157",
"N  c #7E7B5C",
"B  c #786E4B",
"V  c #4D5562",
"C  c #5B5563",
"Z  c #60576C",
"A  c #586367",
"S  c #646C65",
"D  c #676668",
"F  c #746967",
"G  c #6B7679",
"H  c #7A7975",
"J  c #77787D",
"K  c #7B7579",
"L  c #72736F",
"P  c #820D1F",
"I  c #953539",
"U  c #A83B62",
"Y  c #C72E64",
"T  c #E33F7B",
"R  c #834559",
"E  c #816356",
"W  c #9A7B5E",
"Q  c #A37458",
"!  c #915360",
"~  c #B44464",
"^  c #A35A78",
"/  c #866C63",
"(  c #817B6F",
")  c #997769",
"_  c #886A7E",
"`  c #847C7A",
"'  c #957B76",
"]  c #A47561",
"[  c #9D8F52",
"{  c #B89746",
"}  c #9D9567",
"|  c #89847A",
" . c #8A8474",
".. c #958778",
"X. c #809373",
"o. c #9C9876",
"O. c #858667",
"+. c #B2826C",
"@. c #A78576",
"#. c #B58C7B",
"$. c #BA967E",
"%. c #A2A56E",
"&. c #C28C74",
"*. c #CABD6F",
"=. c #CABC73",
"-. c #CCD17F",
";. c #C8C17B",
":. c #FFE37C",
">. c #697583",
",. c #7D7F81",
"<. c #4E6B8B",
"1. c #97778C",
"2. c #F25A8D",
"3. c #CD7F8F",
"4. c #D87C93",
"5. c #F565A3",
"6. c #5F908D",
"7. c #77818D",
"8. c #7E878C",
"9. c #7C8382",
"0. c #738090",
"q. c #7B9588",
"w. c #54A3B4",
"e. c #6AA0A0",
"r. c #78A8AE",
"t. c #838481",
"y. c #8B8987",
"u. c #9D8E89",
"i. c #938886",
"p. c #8D9186",
"a. c #95938A",
"s. c #978E93",
"d. c #8C939B",
"f. c #889995",
"g. c #959294",
"h. c #94939C",
"j. c #9C9E9A",
"k. c #989C97",
"l. c #868D97",
"z. c #A59786",
"x. c #AD938F",
"c. c #B1AC8E",
"v. c #A4A69C",
"b. c #B3A697",
"n. c #B3A89C",
"m. c #AEB098",
"M. c #989AA1",
"N. c #889AAE",
"B. c #A89CA0",
"V. c #B596A5",
"C. c #9BA0A3",
"Z. c #98A8AA",
"A. c #9DB4AE",
"S. c #9AA9BA",
"D. c #88B4B6",
"F. c #A4A5AA",
"G. c #A6A7A9",
"H. c #B3AFAB",
"J. c #B4A9A5",
"K. c #B0B1AC",
"L. c #A6A9B2",
"P. c #AFB1B0",
"I. c #B3B5B2",
"U. c #B3B7B9",
"Y. c #B8B9B8",
"T. c #DC829C",
"R. c #C5B58D",
"E. c #C1A597",
"W. c #C298A2",
"Q. c #C2B5AB",
"!. c #CBB6AC",
"~. c #C9B5A4",
"^. c #CCBBAF",
"/. c #B3C7A4",
"(. c #CECB86",
"). c #D3D788",
"_. c #D8DAA7",
"`. c #C3C6B7",
"'. c #CECCB1",
"]. c #EEEEA8",
"[. c #F1F1A9",
"{. c #F3EEB4",
"}. c #F4ECAB",
"|. c #9DABC5",
" X c #B5BFC0",
".X c #BFC3C4",
"XX c #B7C2C6",
"oX c #97DCFB",
"OX c #C9CAC9",
"+X c #DBCBC4",
"@X c #DDD3C9",
"#X c #CACFD7",
"$X c #C4C7D0",
"%X c #CCD2D5",
"&X c #CDD3DA",
"*X c #CFD8DF",
"=X c #D1D5DC",
"-X c #D1D9DD",
";X c #D9D9D7",
":X c #EEE3D8",
">X c #D4DBE1",
",X c #DBDBE3",
"<X c #D3D7E0",
"1X c #D9E4E9",
"2X c #DEF0F4",
"3X c #E5EAEE",
"4X c #E5E7E7",
"5X c #EEF3ED",
"6X c #F6F7F6",
"7X c #F9F6F3",
"8X c #FBFCF5",
"9X c #FEFEFD",
"0X c #F5FCF5",
"qX c #F8F7EA",
/* pixels */
"=X,X#X<X<X&X&X$XXXU.I.G.L.C.C.;X4X@X:X4X5XqXqX0X9X",
"&X%X-X%X#X-X-X-X>X>X1X3X*X1X4X4X9X7X8X6X9X9X9X9X9X",
"%X%X%X-X&X*X-X&X-X1X<Xd.V A M.=X3X8X9X9X9X6X9X9X9X",
"D H P.M.C.G.OX.X.X=Xd.X X . - J ,X6X9X0X9X8X9X8X7X",
"u 1 i x f D ` g.H J # . & & & a i.G.I.j.g.j.j.p.| ",
"z.b.b...a.H.K s.a.` $ y x c y K ..t.,.H i g 9.t : ",
"~.'.z... .v.t.Y.+Xn.c u k E v u.Q.U.L.`.c.o.'.z.| ",
"2 n N O.1 g k.,X:X+X' E ) @./ x.:X=XC.m.{.[.].}._.",
"% ; 3 m l N  XJ.H !.i.v k h l @.' F.=X .%.).).-.(.",
"< X i p f A d.L.x 2 D D : s x m c k.Z.F m n B } o.",
", e S S y D Q.I.#   0.h.> > b : t S.N.9.p.k.i.a.( ",
"P I A G j F $.R.W J M.#.E c ' J.y.S.|.G t.p.i.OXH.",
"! ' 8.8.R 3.~.!.z.V C &.Q ) @.x.7.Z.f.l.7.l.p.v.K.",
"a.A.f.m ~ T.Y.>.q 9 7 ` +.] #./ r >.B.E...u.+X!.^.",
"j.F.H u.4.W.d 7 q 0 9 * c F f 6 8 w Z n./.q.OX@XI.",
"V._ ^ 5.2.~ 5 8 - * 7 6 O O 5 7 9 5 5 <.oXw.r.2XD.",
"9.z U Y T R @ * o 5 6 5 5 5 6 6 0 6 o r _.;.X.1X`.",
"g.G K _ 1.a + * o 5 6 5 5 5 6 5 5 4 O - *.:.=.R.'.",
"h.6.e.r.D.r o O o 5 6 5 5 5 5 5 5 o O * [ { } Q.`."
};
