/* XPM */
static const char *micro_mrocher[] = {
/* columns rows colors chars-per-pixel */
"25 19 212 2 ",
"   c #12110D",
".  c #1D1A1C",
"X  c #1D1614",
"o  c #23110F",
"O  c #31281F",
"+  c #2B2728",
"@  c #372A25",
"#  c #3C3233",
"$  c #412F2B",
"%  c #453936",
"&  c #594234",
"*  c #6A573F",
"=  c #684C3E",
"-  c #172844",
";  c #1D324D",
":  c #1E3958",
">  c #2B364A",
",  c #223654",
"<  c #253B5A",
"1  c #2D3C5E",
"2  c #263859",
"3  c #2C3F62",
"4  c #263961",
"5  c #413F42",
"6  c #3D4753",
"7  c #2D4368",
"8  c #33466B",
"9  c #304E6A",
"0  c #3F4F73",
"q  c #2E5274",
"w  c #3D5A77",
"e  c #4D4A44",
"r  c #524C4E",
"t  c #4F5F42",
"y  c #58564C",
"u  c #434B56",
"i  c #584F54",
"p  c #485A5C",
"a  c #565B5C",
"s  c #5C5952",
"d  c #7C5E4E",
"f  c #705947",
"g  c #6C5852",
"h  c #745E52",
"j  c #5F615C",
"k  c #67674B",
"l  c #6C665C",
"z  c #766652",
"x  c #69764B",
"c  c #495D69",
"v  c #5A5B63",
"b  c #565A63",
"n  c #635C65",
"m  c #5A6364",
"M  c #5E696D",
"N  c #586567",
"B  c #5F726E",
"V  c #5C7172",
"C  c #4B6775",
"Z  c #656563",
"A  c #6B6364",
"S  c #6C6A65",
"D  c #636F6A",
"F  c #696867",
"G  c #736D6C",
"H  c #796B67",
"J  c #68736D",
"K  c #78766B",
"L  c #676E78",
"P  c #6D7570",
"I  c #6C7E7D",
"U  c #687776",
"Y  c #73767A",
"T  c #727A7A",
"R  c #777977",
"E  c #81614A",
"W  c #886559",
"Q  c #986457",
"!  c #8F6F62",
"~  c #877868",
"^  c #9A7664",
"/  c #887B72",
"(  c #977F75",
")  c #B07964",
"_  c #A47466",
"`  c #77817C",
"'  c #7D827C",
"]  c #8C8768",
"[  c #93846D",
"{  c #8B9163",
"}  c #83817D",
"|  c #8C8876",
" . c #92837C",
".. c #9D8779",
"X. c #999378",
"o. c #AE8269",
"O. c #B1816D",
"+. c #A68B7B",
"@. c #B58371",
"#. c #B38B7A",
"$. c #42598D",
"%. c #547687",
"&. c #4D7094",
"*. c #687D83",
"=. c #647A87",
"-. c #737A84",
";. c #7C8B8C",
":. c #788689",
">. c #60899F",
",. c #788A93",
"<. c #7C9396",
"1. c #74959C",
"2. c #738A8A",
"3. c #5788AF",
"4. c #7E92AD",
"5. c #6C9AB1",
"6. c #838A87",
"7. c #848B8B",
"8. c #8B8F8B",
"9. c #898685",
"0. c #918B82",
"q. c #9A948A",
"w. c #8C8993",
"e. c #8C9796",
"r. c #919194",
"t. c #959899",
"y. c #87968A",
"u. c #AD8E8B",
"i. c #A89584",
"p. c #BB9B85",
"a. c #B79587",
"s. c #A59E95",
"d. c #98A89B",
"f. c #A8AB89",
"g. c #B6A08E",
"h. c #A2A196",
"j. c #A1A19C",
"k. c #A9A69D",
"l. c #B6A59B",
"z. c #B7B197",
"x. c #8997A7",
"c. c #969FA4",
"v. c #9DAAA4",
"b. c #9EA3A9",
"n. c #99A9A7",
"m. c #9FB5B2",
"M. c #9DA9B5",
"N. c #A3A6A4",
"B. c #A2ACA6",
"V. c #A8ABAA",
"C. c #B7AFA5",
"Z. c #B7ADAC",
"A. c #A9B4AA",
"S. c #BFBCA4",
"D. c #B5B5A8",
"F. c #A5A9B3",
"G. c #AFB9BE",
"H. c #ABB1B1",
"J. c #B5BBB6",
"K. c #B6B8BC",
"L. c #C29B8C",
"P. c #D19A86",
"I. c #CCA48D",
"U. c #CBAC8F",
"Y. c #D4A888",
"T. c #D1AB91",
"R. c #C3B092",
"E. c #D3B49A",
"W. c #C1A693",
"Q. c #E4B48E",
"!. c #E1AD95",
"~. c #E9B89A",
"^. c #C2AEA4",
"/. c #C6B9AB",
"(. c #BEC3BF",
"). c #CCC1AB",
"_. c #D6CDB9",
"`. c #DCCEB0",
"'. c #E0D0B6",
"]. c #EEC7AA",
"[. c #ABB7C2",
"{. c #B5B9C7",
"}. c #ADBED2",
"|. c #B9C4CA",
" X c #B8CCD7",
".X c #B6CDE2",
"XX c #BCD2E3",
"oX c #BED5EB",
"OX c #BAD4E9",
"+X c #C5CBD5",
"@X c #C8D5DA",
"#X c #D0D2DF",
"$X c #D0CCCD",
"%X c #E2CCC1",
"&X c #EADCC4",
"*X c #E6DEDA",
"=X c #ECE6CD",
"-X c #F0E8D1",
";X c #C0D6EB",
":X c #C5DAEA",
">X c #CBDCEB",
",X c #C8D8E3",
"<X c #D6DEE9",
"1X c #C7DEF1",
"2X c #CFE1EF",
"3X c #D6E3E9",
"4X c #D7E3F2",
"5X c #C8E1F7",
"6X c #EBEBEE",
"7X c #E3E8EC",
"8X c #FAFEF6",
"9X c #EAF1F2",
/* pixels */
"S.A.d.y.D 7.R | N 2.;.I ;.M p B D T r.Y a N 2.x.,.",
"=X$XB.v.6.` }  .D T P T ;.I D Z p M R A F P 2.,.=.",
"9X@X@X@X{.|.|.$XA.j.j.t.B.N.J.k.*.x.t.8.t.J.H.[.|.",
"|.XX.XoX;X;X,X9X*X9.j e r A G V.>X,X>X:X@X3X7X6X6X",
" X XoXXXXXoX:X+Xn . X @ % # + P 2X:X5X1X:X>X7X<X<X",
"F w.|.V.b.[.@Xb.. X % ~ $ # + 5 :X1X:X2X,X<X4X<X2X",
"l s S / K Z r.R . @ ! L.W g % + t.G.G.c.e.K.@Xe.6.",
"g.C.s.q.C.N.Y A o h E o.@.W g   ~ h.P m m Z s % y ",
"'.-Xz.f./.$Xw.(.O ^ Y.I.p.I.! e ^.s.<.D.X.8.V.s s ",
"z ] ] X.k 9.F.8X0.^ P.Q Q #.d s.8X#Xx.Z.i.0.).'./.",
"h * i.+.[ V.{.*XC.* O.@._ ^ z &X8X3XM.q.k t x { X.",
"S K l H K 0.H.H.h.z d #.+.f / _._.K.F.l.~ t k f.| ",
"P a F R / R.=X{.F H a.= & ../ H ^.[.x.Z G G S q.R ",
"G i H 0.l.`.&X#XY ( ].E.p.E.i.G %X:X X7.M v b -.b ",
"P R q.K ;.e.A.x.L W.Q.T.U.Y.g.L /..XF.t.;.Y u L T ",
"v.6.0.} *.5.&.w : ( !.p.a.T. .7 c 3.4.b.U y.` ' 8.",
"v.V ) g.3.$.9 3 1 6 l.~.~.l.u 8 7 c $.%.D c <.n.:.",
"e.,.u.q.q 8 < 8 4 ; > v n > , 7 8 2 7 w I C :.m.2.",
"F.}.+XL ; > 1 3 2 2 ; - - ; < 1 3 , 2 < %.>.:.m.1."
};
