/* XPM */
static const char *micro_sbarbe[] = {
/* columns rows colors chars-per-pixel */
"25 19 208 2 ",
"   c #21221D",
".  c #362A1E",
"X  c #2C2F2A",
"o  c #362A24",
"O  c #342F29",
"+  c #2A3024",
"@  c #3C3B34",
"#  c #41392E",
"$  c #463F35",
"%  c #4B4738",
"&  c #4B553D",
"*  c #575738",
"=  c #55443C",
"-  c #3C4F56",
";  c #3E575E",
":  c #44494E",
">  c #4B4E43",
",  c #594D47",
"<  c #5B554B",
"1  c #404652",
"2  c #4A5456",
"3  c #525552",
"4  c #595453",
"5  c #5A5A54",
"6  c #525C5F",
"7  c #595A58",
"8  c #65574F",
"9  c #7D5D52",
"0  c #7B5548",
"q  c #5C6A5E",
"w  c #5B605C",
"e  c #66664C",
"r  c #6B6556",
"t  c #646159",
"y  c #6F6D5B",
"u  c #666050",
"i  c #746558",
"p  c #7B745E",
"a  c #7B7959",
"s  c #4B5F63",
"d  c #5C5D61",
"f  c #5D5D69",
"g  c #7F5F62",
"h  c #5A6561",
"j  c #596867",
"k  c #566B74",
"l  c #6A6C62",
"z  c #636966",
"x  c #756963",
"c  c #6C746B",
"v  c #6C746B",
"b  c #727662",
"n  c #7B796D",
"m  c #7B7266",
"M  c #686D72",
"N  c #637371",
"B  c #6A7573",
"V  c #627579",
"C  c #6F7F7F",
"Z  c #787974",
"A  c #757B7C",
"S  c #7C7C7D",
"D  c #747775",
"F  c #885856",
"G  c #987D4E",
"H  c #856556",
"J  c #93695C",
"K  c #867B5F",
"L  c #856966",
"P  c #9A6E63",
"I  c #847B6C",
"U  c #877965",
"Y  c #967262",
"T  c #967A6B",
"R  c #867B78",
"E  c #967F71",
"W  c #AA706C",
"Q  c #B07B6B",
"!  c #B27F7B",
"~  c #76837C",
"^  c #828359",
"/  c #8B816E",
"(  c #8F8667",
")  c #91846C",
"_  c #908864",
"`  c #81867B",
"'  c #8D8279",
"]  c #8A8272",
"[  c #95877A",
"{  c #949365",
"}  c #A48072",
"|  c #CBA86E",
" . c #527789",
".. c #6C8186",
"X. c #748280",
"o. c #7C8A83",
"O. c #79888A",
"+. c #7D928B",
"@. c #7D8B95",
"#. c #5788A6",
"$. c #7892A3",
"%. c #7AB0B2",
"&. c #818B8B",
"*. c #888984",
"=. c #948981",
"-. c #8C938B",
";. c #85908A",
":. c #95948F",
">. c #868D93",
",. c #8B9C9B",
"<. c #869795",
"1. c #949C9A",
"2. c #9A9E9D",
"3. c #989994",
"4. c #A89586",
"5. c #BE9A89",
"6. c #B59885",
"7. c #A79990",
"8. c #98A39C",
"9. c #B4A58A",
"0. c #ABA496",
"q. c #BBAE96",
"w. c #B1A39C",
"e. c #B9A898",
"r. c #B8B09C",
"t. c #91A1A2",
"y. c #9CABAA",
"u. c #9AAAA6",
"i. c #9EB2AC",
"p. c #9DBCBF",
"a. c #83A7A7",
"s. c #A3A5A2",
"d. c #A9A8A3",
"f. c #B6A8A9",
"g. c #AAB1A9",
"h. c #BDB6A8",
"j. c #B3ADB1",
"k. c #A1B1B3",
"l. c #ACBDBE",
"z. c #ABB3B8",
"x. c #BCB9B4",
"c. c #B9B9B8",
"v. c #C78D99",
"b. c #C2AD92",
"n. c #C2B193",
"m. c #CCA6A8",
"M. c #CDB9A9",
"N. c #DFBDA4",
"B. c #D2AEB8",
"V. c #C4BAB3",
"C. c #D0BDB8",
"Z. c #ACC0BF",
"A. c #B9C0B8",
"S. c #D8CEAB",
"D. c #CAC0B4",
"F. c #C4C3B9",
"G. c #CBC4BD",
"H. c #D4C3B3",
"J. c #DAC8BE",
"K. c #ADB6C7",
"L. c #BCC3C5",
"P. c #BEC9CB",
"I. c #B8CBD2",
"U. c #CACEC7",
"Y. c #C4CBC9",
"T. c #CAC6C3",
"R. c #D2CCC4",
"E. c #D1C5C9",
"W. c #D4CDCB",
"Q. c #D7CAC4",
"!. c #CFD4CE",
"~. c #DCD3C5",
"^. c #C5C9D3",
"/. c #D4CFD3",
"(. c #CCD6D8",
"). c #D4D4D4",
"_. c #D8D6D3",
"`. c #D4D2DA",
"'. c #D1DBDC",
"]. c #DDDDDB",
"[. c #D6DBD7",
"{. c #E6D9CC",
"}. c #E1CDD6",
"|. c #E2DDD7",
" X c #D9E4DF",
".X c #ECE9CA",
"XX c #E4E4DD",
"oX c #EDE8DB",
"OX c #F7E9D6",
"+X c #FEF4DB",
"@X c #CBDAE6",
"#X c #D3DEE3",
"$X c #D9DCE7",
"%X c #E1DDEC",
"&X c #E6DFF1",
"*X c #D5E0E4",
"=X c #DCE3E3",
"-X c #D3E2E9",
";X c #DAE5EA",
":X c #DBE8EC",
">X c #D7E3F1",
",X c #E2E3E2",
"<X c #E8E8E9",
"1X c #F1EFE0",
"2X c #F2F3E7",
"3X c #F9F5E7",
"4X c #ECECF3",
"5X c #EDF3F3",
/* pixels */
"O.i.y.,.,.t.o.;.X.;.o.X.t.B B <.+.<.h.g.o.-.y.z.,.",
"~ 8.,.,.N ,.&.A j V O.C O.k s j f A m.=.h O.a.,...",
"1.u.<.&.N A B Z 2 s j 2 V k - 2 2 A 4.[ :.s.k.c.k.",
"*X'.(.P.l.y.s.d.1.*.&.@.<.1.1.>.,.l.F.R.{.OX].<X<X",
"#X*X*X;X;X'.].oX=X[.'.#X#X,X=X-X;X-X=X X2X3X'.'.#X",
"*X;X*X*X*X].XX3X,X*X:X=XXX5X;X#X>X$X=X;X:X X-X:X:X",
"2.s.c.Y.L.!.2XoX_.=XY.0.r.~.).'.(.^.Y.L.z.c.^.1.*.",
"$ % , l w 5 l ] R ' ] L H 6.r.D m S N 6 5 y 4 X @ ",
"x i p r x *.x m ' ) T g L m / x ) ' j Z y l n % O ",
"b.n.S._ ) 4.w.f.q.6.J 0 F 9 E r.D.V.>.3.I u 6.9.9.",
"K a a ^ { * 0.W.+XN.Q W ! Y H.3X+X1Xt.*.* & * e b ",
"= . % p ( U H.{.f.M.5.F F 6.~.V.9.w.L.:.< + % b U ",
"o # u r 8 8 =.V.R , L T H M.7., r S @.d < 3 < I l ",
"  > b n t < r..XX.o H P J 5.{.@ + 2.@X@.3 6 3 z d ",
"7 4 t n I / q..XI.D.} F F Y ~.L.R j.K.>.S M : 1 M ",
"z 7 z ` y 0.x.].%X,XQ.e.e.G.`.&X4X@X$.O.c j ` c D ",
"q ,.-.T E -.4X$X`._.Q.R.G.U.}.#X`.|.p.#.h ; z i.-.",
"B u.v i [ A./.E.`._.T.F.G.G.B.E.`.C.h.q.| q : u.y.",
"8.u.~ 4.D.Y.x.R.).W.T.G.Q.C.v.m.U.x.E.J.G %. .X.Z."
};
