/* XPM */
static const char *micro_mdumont[] = {
/* columns rows colors chars-per-pixel */
"25 19 201 2 ",
"   c #201F1A",
".  c #100D20",
"X  c #261B21",
"o  c #2F2724",
"O  c #33392F",
"+  c #590D11",
"@  c #433E30",
"#  c #6C2F35",
"$  c #4A4138",
"%  c #58553C",
"&  c #634D3F",
"*  c #4A3D44",
"=  c #494D45",
"-  c #594B47",
";  c #5D524D",
":  c #565449",
">  c #4F4D52",
",  c #5A5651",
"<  c #595752",
"1  c #55514F",
"2  c #614D4C",
"3  c #65574A",
"4  c #615D55",
"5  c #635E58",
"6  c #725E57",
"7  c #745759",
"8  c #5F6A59",
"9  c #6C655E",
"0  c #676258",
"q  c #756E54",
"w  c #7E6358",
"e  c #787657",
"r  c #705463",
"t  c #666663",
"y  c #6C6C62",
"u  c #6C6C6B",
"i  c #6B6867",
"p  c #766D68",
"a  c #7A7A6D",
"s  c #78756C",
"d  c #6A6D76",
"f  c #7B7A73",
"g  c #777A78",
"h  c #716C70",
"j  c #9E2A41",
"k  c #88324F",
"l  c #C7376A",
"z  c #916E5A",
"x  c #955865",
"c  c #BD5A79",
"v  c #856A68",
"b  c #887969",
"n  c #9C7769",
"m  c #847B78",
"M  c #967E72",
"N  c #956B6D",
"B  c #A77B69",
"V  c #B36774",
"C  c #D25178",
"Z  c #DA637F",
"A  c #77857A",
"S  c #798F6F",
"D  c #9E944C",
"F  c #B89C53",
"G  c #8B8C67",
"H  c #948B6C",
"J  c #8B8273",
"K  c #8A857D",
"L  c #948576",
"P  c #92857D",
"I  c #968C7C",
"U  c #9A8B78",
"Y  c #9E9C76",
"T  c #A9856D",
"R  c #AB8673",
"E  c #A68978",
"W  c #B38C79",
"Q  c #BC9578",
"!  c #A49671",
"~  c #B8AE7B",
"^  c #F3D457",
"/  c #D7CB77",
"(  c #E5D566",
")  c #FFE06B",
"_  c #767C8C",
"`  c #8E7E88",
"'  c #E95A86",
"]  c #D76587",
"[  c #788285",
"{  c #689294",
"}  c #76A09C",
"|  c #6A9EAC",
" . c #888683",
".. c #868A85",
"X. c #898984",
"o. c #88878A",
"O. c #9B8B84",
"+. c #948B8C",
"@. c #9B8E8A",
"#. c #968887",
"$. c #83968E",
"%. c #93938C",
"&. c #9C948C",
"*. c #9A9380",
"=. c #8E9799",
"-. c #8B9997",
";. c #959593",
":. c #9B9B95",
">. c #8D8A95",
",. c #A18F81",
"<. c #A2948E",
"1. c #A49B8E",
"2. c #A99587",
"3. c #B09381",
"4. c #A78F9C",
"5. c #A39B93",
"6. c #A59A9A",
"7. c #AC9F9C",
"8. c #B78A8F",
"9. c #9AAD9F",
"0. c #B7A58B",
"q. c #AAA296",
"w. c #ACA29C",
"e. c #ABA89B",
"r. c #B5A89A",
"t. c #B4AE93",
"y. c #8493A8",
"u. c #A09DA3",
"i. c #A89FA2",
"p. c #B49EA1",
"a. c #9BA6A5",
"s. c #8EBCAF",
"d. c #9FBEAC",
"f. c #90ABB7",
"g. c #A4A6A2",
"h. c #ABA5A3",
"j. c #ADABAB",
"k. c #A9ABA4",
"l. c #B2ACA6",
"z. c #B9ABA6",
"x. c #B1A7A8",
"c. c #B5A7A9",
"v. c #A3B3A7",
"b. c #BAB2AE",
"n. c #B9B5A7",
"m. c #A8B8B7",
"M. c #BDBCB5",
"N. c #B4B4BC",
"B. c #B8B7B6",
"V. c #C19A83",
"C. c #C09B8B",
"Z. c #C7AA96",
"A. c #CFB39D",
"S. c #C89EA0",
"D. c #DE91A3",
"F. c #C2AEA2",
"G. c #CAAFA4",
"H. c #D1ABAB",
"J. c #C9B5AE",
"K. c #CAB7A7",
"L. c #D2B6A3",
"P. c #D2BBA9",
"I. c #C3BCBC",
"U. c #C8BBB3",
"Y. c #AFCBBC",
"T. c #E1DB8F",
"R. c #E4E49C",
"E. c #DED2AA",
"W. c #C5C3BD",
"Q. c #D5C1B2",
"!. c #B9BDC4",
"~. c #A2BDDA",
"^. c #A7BAC9",
"/. c #CEB6C4",
"(. c #BBC3C4",
"). c #A4D3C6",
"_. c #B3DFCE",
"`. c #A9D1D1",
"'. c #95ECF4",
"]. c #C2C5CB",
"[. c #CCC9C8",
"{. c #D0CFCB",
"}. c #D6D4CF",
"|. c #C9CED2",
" X c #CCD4DB",
".X c #C6D3D8",
"XX c #D3D6D9",
"oX c #D3DADD",
"OX c #DADEDE",
"+X c #D3D6D3",
"@X c #E5D7CC",
"#X c #F1E2CF",
"$X c #CEDBE3",
"%X c #D4DCE1",
"&X c #DBDFE3",
"*X c #DBE3E8",
"=X c #DFE7F2",
"-X c #E7E9E8",
";X c #FEF7EB",
":X c #FEFDFD",
">X c #FAF6F4",
/* pixels */
"XX%X X XXXOXoX%X%XXX*X=XOX-X$XoX.XoX>X:X:X:X>X:X:X",
"[.+XOXXX&X&X%X%XoX*X{.w.J 5.}.+X X XXX-X:X:X:X:X:X",
"9 t %.j.;.;.m.(.W.(.i - - - b U.].!.].].B.M.+X-X[.",
"$ - = , ; 4 y A ..t & R R E ,.&.a s ..g t t u i 1 ",
"L L 1.I J &.%.f &.U b E W n L L b I ..[ K 5 u K < ",
"0.K.t.H 2.P 6.>.Q.Z.6 ; 7 3 v T U.U.B.=.n.*.a n.0.",
"L 3 b q q @ h N.;X#XT z W W E 0.>X;X|.a.I q S Y G ",
"; $ : % q % %.(.j.:.3.B B n R F.n.J m..XI 3 8 e G ",
"o O : 2 : , y c.m , * w W R E h @ 2 a.=.m s 0 : f ",
"# # = y 1 5 P @X;.  X M T B Z.p . > ^.y.u %.u.1.X.",
"+ j ; u 0 p ,.L.g.X.I.K.Q V.Z.Q.a._ ~.f.d f f A h.",
"9 N A [ v V Z.L.{.[./.J.A.Z.L.Q.M.[.!.=...g X.[ X.",
"$.-.v.K x Z J.M.b.h.b.z.F.P.J.z.c.q.B.H.Q ! 2.H.S.",
"` k.&.P 8.D.M.g.q.c.b.h.<.O.6.x.b.:.u./.W.Y.-.j.I.",
"#.+.x ] ' C p.6.O.x.l.x.6.5.j.h.g.@.&.d.'.'.| { `.",
":.s k l l c a.O.P i.l.j.h.q.h.h.g. .o.r.R.T.E.S 9.",
":.[ d r h 4.k.+.m 5.w.7.w.5.6.w.w.s o.q./ ^ ) ( H ",
"$.{ } s.).M.e.1.p #.<.<.5.&.&.<.K y +.7.~ F F D &.",
"(.m.m.)._.G.V.C.9 m O.@.&.&.@.O.b 0 #.u.v.9.v.d.m."
};
