/* XPM */
static const char *micro_ldeville[] = {
/* columns rows colors chars-per-pixel */
"25 19 192 2 ",
"   c #050000",
".  c #0C0000",
"X  c #0F0800",
"o  c #0F0B08",
"O  c #130604",
"+  c #150C06",
"@  c #120E12",
"#  c #121112",
"$  c #1C1713",
"%  c #281D18",
"&  c #341E19",
"*  c #3F230D",
"=  c #22201B",
"-  c #2E271F",
";  c #33291F",
":  c #272623",
">  c #2A2A27",
",  c #34322E",
"<  c #3B332F",
"1  c #2F3833",
"2  c #3E3A34",
"3  c #393631",
"4  c #491E0D",
"5  c #4F2006",
"6  c #42281C",
"7  c #542F12",
"8  c #4D331A",
"9  c #53351D",
"0  c #61310D",
"q  c #643818",
"w  c #713E1F",
"e  c #5A3825",
"r  c #463D35",
"t  c #513D34",
"y  c #673A26",
"u  c #49443A",
"i  c #4A4237",
"p  c #5C4233",
"a  c #5C4A3E",
"s  c #684120",
"d  c #72442D",
"f  c #724123",
"g  c #6C4631",
"h  c #794E3B",
"j  c #65503D",
"k  c #76503D",
"l  c #4E4A44",
"z  c #544E45",
"x  c #595047",
"c  c #5A574C",
"v  c #5E5654",
"b  c #7B5B4D",
"n  c #735748",
"m  c #635D54",
"M  c #686157",
"N  c #6C655B",
"B  c #75695B",
"V  c #6A6765",
"C  c #736B64",
"Z  c #796D63",
"A  c #766E6B",
"S  c #787167",
"D  c #7B736C",
"F  c #7D7672",
"G  c #7D7A76",
"H  c #864D2A",
"J  c #835134",
"K  c #9F5A30",
"L  c #96563A",
"P  c #986339",
"I  c #B4733D",
"U  c #8A5C47",
"Y  c #955D48",
"T  c #835851",
"R  c #A15E41",
"E  c #87624F",
"W  c #966645",
"Q  c #8B6C58",
"!  c #977859",
"~  c #95755E",
"^  c #A66E55",
"/  c #A3765E",
"(  c #856F62",
")  c #887767",
"_  c #81756C",
"`  c #887A6E",
"'  c #9E7966",
"]  c #827C74",
"[  c #867F79",
"{  c #867A75",
"}  c #B27D6D",
"|  c #9B806D",
" . c #8F8474",
".. c #8B837D",
"X. c #8A877C",
"o. c #928376",
"O. c #91847B",
"+. c #968A7E",
"@. c #988A7F",
"#. c #AB826E",
"$. c #B38467",
"%. c #AA8471",
"&. c #A09077",
"*. c #A3937A",
"=. c #BC927A",
"-. c #868483",
";. c #8A8582",
":. c #8D8A85",
">. c #848689",
",. c #8A8B8B",
"<. c #968780",
"1. c #948C84",
"2. c #9B8D83",
"3. c #928E8A",
"4. c #9D9185",
"5. c #95928D",
"6. c #9C928B",
"7. c #888D92",
"8. c #8A9197",
"9. c #949393",
"0. c #9B9693",
"q. c #9A9A95",
"w. c #939C9E",
"e. c #9C9C9C",
"r. c #A58F81",
"t. c #A39083",
"y. c #A2948C",
"u. c #A59A8D",
"i. c #AE9D8E",
"p. c #AE9380",
"a. c #B99F8E",
"s. c #B59080",
"d. c #A39D95",
"f. c #A69E94",
"g. c #9DA09C",
"h. c #ABA397",
"j. c #A4A39D",
"k. c #ABA39C",
"l. c #ADA89E",
"z. c #BFAB9E",
"x. c #B3A598",
"c. c #939AA0",
"v. c #9DA3A5",
"b. c #9FA7AA",
"n. c #9FACBC",
"m. c #A2A4A4",
"M. c #A9A9A4",
"N. c #A2A5AA",
"B. c #A4A9AE",
"V. c #AAA8A8",
"C. c #B4AEAA",
"Z. c #B1A3A0",
"A. c #B7B0A6",
"S. c #A5ABB0",
"D. c #ABB1B5",
"F. c #BBBAB5",
"G. c #BABAB8",
"H. c #C99D84",
"J. c #C8A993",
"K. c #C3B39C",
"L. c #C7B9A9",
"P. c #C5BCB3",
"I. c #C4BFBB",
"U. c #CBC3B6",
"Y. c #CCC3BE",
"T. c #DDC8BC",
"R. c #BEBEC6",
"E. c #C4BFC3",
"W. c #BCC2C2",
"Q. c #C6C7C3",
"!. c #D2CEC0",
"~. c #D3CFCE",
"^. c #C9D0C9",
"/. c #DCD4CB",
"(. c #DCD9CE",
"). c #DFD2C2",
"_. c #DFD6D1",
"`. c #E3DDD2",
"'. c #E7E1D8",
"]. c #F0E6DC",
"[. c #E4E3E4",
"{. c #E8EAE8",
"}. c #F2EEEB",
"|. c #F6EEE1",
" X c #E7F0EF",
".X c #FDF6EC",
"XX c #FFFBEE",
"oX c #F1EFF0",
"OX c #ECF2F0",
"+X c #FDFDF4",
"@X c #FDFEFD",
"#X c #F6F4F6",
/* pixels */
"j.z r z l m O.u.i.P.|.+X@X@X!.L.(.(.'.(.Y.P.U.P.A.",
"# @ @ @ @ # # o 1 i.L.+.2.o.x < ; i m !.`.]..X'.`.",
"c l 2 , > : : 3 K.` X   O . O & r - < F C m N M c ",
" .o. ._ N u u h.i.@ 6 f d g 8 X $ 2 , : = = $ = % ",
"C Z _ ] D V v ..a & =.$.Y K I q + 1.l.j.1.] 5.X.] ",
"C C C A V A j.Q.d.b J.#.R H W J p t.u.h.6.6.A.h.x.",
"D D D S V j.@X@X`.Q n e L 4 & y j ) B C M C C S Z ",
"D _ _ D D F 6...F %.' E ^ w s P o.h.C.I.M.-.Q.G.V.",
"[ ] ` _ ] G G [ [ r.H.} T y H W T.@X@X@X{.F.@X@X#X",
"..O.o...;.;.....<.r.=.Y y 5 0 / #X@X+X@X{.E.@X@X@X",
"<.+.O.O.:.:.:.<.2.+.' / U q 7 a.@X@X@X@X{.W.@X+X@X",
"2.2.@.1.:.3.1.2.1.0.t.b b e * z.@X@X@X@X X^.@X@X@X",
"u.2.4.6.3.5.6.2.1.'.T.n t 6 9 J.@X@X@X@X}.Y.@X@X@X",
"C.4.y.4.5.0.0.6.l._.z.p.( p d $.)..X@X@X}.I.@X@X@X",
"~.0.u.y.0.q.q.0.g.B.Z.a.| k J W ! L.#X@XOXQ.@X@X@X",
"[.0.u.u.d.0.9.,.w.n.N.t.Q h U ~ &.*.x./.[.R.@X@X@X",
"}.d.d.D.c.7.,.w.v.b.S.v.9.>.-.:.q.q.k.d.M.I.XX@X@X",
"}.k.C.D.8.>.,.B.B.N.B.N.v.e.0.9.5.:.0.k.j.d.U.@X@X",
"oXM.F.S.7.>.>.D.N.N.N.N.N.m.e.e.9.:.9.m.g.1.4.}.@X"
};
