/* XPM */
static const char *micro_tcavaill[] = {
/* columns rows colors chars-per-pixel */
"25 19 216 2 ",
"   c #080100",
".  c #1F0E06",
"X  c #181109",
"o  c #25160F",
"O  c #271717",
"+  c #33251E",
"@  c #4A2F24",
"#  c #4B3D36",
"$  c #463B37",
"%  c #3B403C",
"&  c #5F452A",
"*  c #5B4C3E",
"=  c #564D3C",
"-  c #54523B",
";  c #4A4B3D",
":  c #566137",
">  c #78603A",
",  c #3E4849",
"<  c #38717A",
"1  c #534C44",
"2  c #545246",
"3  c #5E5747",
"4  c #445451",
"5  c #565754",
"6  c #5A5B59",
"7  c #494641",
"8  c #645B4D",
"9  c #645C54",
"0  c #615353",
"q  c #694D4A",
"w  c #596041",
"e  c #6A624A",
"r  c #63625B",
"t  c #6B6159",
"y  c #6A6A5C",
"u  c #686354",
"i  c #72635B",
"p  c #796B58",
"a  c #7A7759",
"s  c #677544",
"d  c #5B767F",
"f  c #586365",
"g  c #656560",
"h  c #6B6F67",
"j  c #6B6768",
"k  c #796F6D",
"l  c #726E6C",
"z  c #6B756E",
"x  c #72756C",
"c  c #78766A",
"v  c #6C7A7C",
"b  c #697C77",
"n  c #7A7374",
"m  c #7A7A79",
"M  c #757A75",
"N  c #6A6979",
"B  c #835747",
"V  c #83644A",
"C  c #836353",
"Z  c #886A5B",
"A  c #86765B",
"S  c #9A765E",
"D  c #8E6C62",
"F  c #87776A",
"G  c #9A7A64",
"H  c #857D75",
"J  c #907E72",
"K  c #926B66",
"L  c #CB7A69",
"P  c #6D8176",
"I  c #7D827B",
"U  c #878365",
"Y  c #90876A",
"T  c #82857E",
"R  c #8C837B",
"E  c #86897C",
"W  c #8E8E7C",
"Q  c #8E8371",
"!  c #978879",
"~  c #99917A",
"^  c #AD836E",
"/  c #A88B6D",
"(  c #A88A79",
")  c #B88B78",
"_  c #C4947D",
"`  c #CBB562",
"'  c #587883",
"]  c #627583",
"[  c #757A80",
"{  c #7F8281",
"}  c #728E8E",
"|  c #798787",
" . c #7F9185",
".. c #6C8B9D",
"X. c #7A939A",
"o. c #7DA4A1",
"O. c #3FA5D6",
"+. c #43A0C2",
"@. c #6BAFC4",
"#. c #66C0E3",
"$. c #61D0FE",
"%. c #878984",
"&. c #858987",
"*. c #958B84",
"=. c #8B9287",
"-. c #9A958B",
";. c #9B9283",
":. c #8C8D92",
">. c #918591",
",. c #8E9494",
"<. c #9A9D97",
"1. c #969798",
"2. c #A59A88",
"3. c #B69884",
"4. c #A9928D",
"5. c #98A397",
"6. c #9CB19E",
"7. c #B6A78B",
"8. c #ACAA9C",
"9. c #ACA697",
"0. c #B4AC92",
"q. c #B8A99C",
"w. c #BDB99B",
"e. c #A8A383",
"r. c #9D8FA8",
"t. c #8F96A8",
"y. c #969DA4",
"u. c #A79CA2",
"i. c #99A4AC",
"p. c #9AB2B6",
"a. c #A3A5A5",
"s. c #A3AAAC",
"d. c #AAA9A8",
"f. c #B5ABA4",
"g. c #A5B1A3",
"h. c #B7B2AD",
"j. c #BFB8AB",
"k. c #B8B5A7",
"l. c #ACABB5",
"z. c #ABB4B7",
"x. c #ADB5BD",
"c. c #A4B5B3",
"v. c #B2BCBC",
"b. c #BBB8B1",
"n. c #C8B79B",
"m. c #C5B3A7",
"M. c #C4BAAE",
"N. c #C7B8A8",
"B. c #C5BBB4",
"V. c #CABCB5",
"C. c #C3B6BC",
"Z. c #C4BAB5",
"A. c #D1C59B",
"S. c #CEC2AC",
"D. c #C5C0B2",
"F. c #CAC1B5",
"G. c #CBC3B9",
"H. c #CBC9BD",
"J. c #CFC8B6",
"K. c #D2CABC",
"L. c #D3C2B2",
"P. c #EFD5B2",
"I. c #93B4C3",
"U. c #BABDC3",
"Y. c #B6B9C2",
"T. c #B5BDD2",
"R. c #BBC2C3",
"E. c #BEC5CD",
"W. c #AFC5CE",
"Q. c #CDCBCC",
"!. c #C7C6C7",
"~. c #D3CBC3",
"^. c #D5CDCA",
"/. c #D4C9C7",
"(. c #CBD5CD",
"). c #D2D1CD",
"_. c #DCD4CC",
"`. c #DFDACA",
"'. c #D7D3C3",
"]. c #CACDD3",
"[. c #C5C7D5",
"{. c #CCD5D4",
"}. c #CBD4DC",
"|. c #CBD9DA",
" X c #C6D5DA",
".X c #D3D6D2",
"XX c #DFD5D5",
"oX c #D3D6D9",
"OX c #D4DFDD",
"+X c #EBDFC9",
"@X c #E2D7D3",
"#X c #E6E2CD",
"$X c #E9E3CB",
"%X c #E7E6DC",
"&X c #E8E9DC",
"*X c #FFFBDE",
"=X c #FBE3C9",
"-X c #CBCCE0",
";X c #CEDBE6",
":X c #C8D4E5",
">X c #D3DBE4",
",X c #D6DDEA",
"<X c #E0DBF1",
"1X c #DBE4E5",
"2X c #D7E2EE",
"3X c #DCE5EB",
"4X c #DBEAEF",
"5X c #D0E2E2",
"6X c #DCE5F3",
"7X c #DFE9F2",
"8X c #F1EAE4",
"9X c #E4F0E6",
"0X c #FCF9E7",
"qX c #E1EFF2",
"wX c #FFFFF1",
"eX c #E2E7E3",
/* pixels */
"(.R.x.i.<.k.8.*.E I %.{ | z h N I -.R =.5.a.l.c.z.",
"OX>X;X|.{.].Q.%X#XK.`.'.v.z.s.z.T.].[.[.{.{.,X4X7X",
">X:X:X|. X:X}.&X*X&X0X0XeX6X4XqX4X1X3X3X1X3X7X5X,X",
"!.>X}.{. X,X}.9X0X%XXXD..X.X1X>X4X>X2X6X2X6X6X2X3X",
"5 *.1.%.%.a.d.d.k.h.R F ! 2.K.XXE.}.E.Y.U.oXR.a.<.",
"u 3 8 t 9 3 c l k * V 3.Z C / 3.M I x x l h ; 1 $ ",
"0.S.! ~ M.*.k 8.*.@ G ) ) Z & 3.-.m E R n H 2 # # ",
"w.N.p A ;.>.u.#X7.q K ^ ( Z * j.XX:.8.2.F w.w.7.J ",
"e u U > w 1.!.0X+XS _ ^ ^ ) G 0XwXz.,.p : s a e.0.",
"3 e a A ! l.U.n.L.F C B B Z F F.Z.U.b.J = - U Y Q ",
"6 h r t 0 %.b.T ! H $ D C + 9 q.:.y.j i 9 g W W r ",
"j 7 8 c ( P.=Xt.h.d.O o . + 9.'.x.;X,.9 5 5 M r % ",
"g 2 c =.( 7.`.,X).Z.#   X p M.H.8XE.1.-.v , 5 n m ",
"P } T y m X.|.Q.Q.~.;.9 i 2.k.B.$X1Xy.j v | x T { ",
"g.v A ) d W._.G.^.~.k.N.q.j.H.^.D.OX!.y 4 P c. .z ",
"i.t V ( o.oXm.!.^.XXB.N.N.~.^.).C.!.K.7.r f z.&.z ",
"5.5.v.[.[._.9.V.XX^.G.F.G.~._.~.9.M.L.6.@.] <.p.' ",
"r.<X-X[.!.J.f./._.~.V.F.G.K.^.G.9.f.m.W.$.#.< I...",
"` A.<.s.!.B.8.~.^.~.V.G.G.G.K.B.-.9.q.v.O.+.} 4.L "
};
