/* XPM */
static const char *micro_omfelk[] = {
/* columns rows colors chars-per-pixel */
"25 19 207 2 ",
"   c #0F1112",
".  c #251C15",
"X  c #1D2319",
"o  c #29211E",
"O  c #3D3B2F",
"+  c #392E2C",
"@  c #432B2B",
"#  c #4B3839",
"$  c #732727",
"%  c #454338",
"&  c #55483A",
"*  c #5A543D",
"=  c #655C3F",
"-  c #7A543F",
";  c #4D4A42",
":  c #574C47",
">  c #555342",
",  c #595643",
"<  c #5C5756",
"1  c #4B5749",
"2  c #674B40",
"3  c #625B45",
"4  c #695845",
"5  c #764050",
"6  c #6A5F55",
"7  c #645958",
"8  c #7F5A54",
"9  c #75594D",
"0  c #5F644B",
"q  c #75664A",
"w  c #6C635A",
"e  c #6A6858",
"r  c #726659",
"t  c #757050",
"y  c #6C674A",
"u  c #685C62",
"i  c #7D5860",
"p  c #6E6C61",
"a  c #686768",
"s  c #736D62",
"d  c #736968",
"f  c #76746E",
"g  c #7D746C",
"h  c #787767",
"j  c #6C7B7A",
"k  c #727471",
"l  c #7C7D7A",
"z  c #797A7C",
"x  c #667369",
"c  c #811725",
"v  c #802D35",
"b  c #B23F60",
"n  c #8E5248",
"m  c #884356",
"M  c #AC444F",
"N  c #846154",
"B  c #8E6D57",
"V  c #966D57",
"C  c #8B705D",
"Z  c #837D58",
"A  c #846B64",
"S  c #817967",
"D  c #85796B",
"F  c #837D75",
"G  c #9A7562",
"H  c #AB7867",
"J  c #DE4F7D",
"K  c #68827F",
"L  c #7F8279",
"P  c #89875E",
"I  c #BFA75D",
"U  c #8E826C",
"Y  c #888778",
"T  c #938277",
"R  c #91857C",
"E  c #8F917B",
"W  c #94917C",
"Q  c #969474",
"!  c #979A6D",
"~  c #A38876",
"^  c #A1927D",
"/  c #B39578",
"(  c #B78B6E",
")  c #A5A96C",
"_  c #A7A97A",
"`  c #CBAE48",
"'  c #E2B945",
"]  c #C3927E",
"[  c #C49879",
"{  c #F4D96E",
"}  c #F8E378",
"|  c #796983",
" . c #837D8B",
".. c #CB7B88",
"X. c #7E8D8A",
"o. c #6A9B9A",
"O. c #6B8981",
"+. c #868382",
"@. c #8B8A8A",
"#. c #81898B",
"$. c #938D8C",
"%. c #948E83",
"&. c #869887",
"*. c #9D998D",
"=. c #999489",
"-. c #88989B",
";. c #959594",
":. c #9B9594",
">. c #9B9995",
",. c #949699",
"<. c #959A9B",
"1. c #989A97",
"2. c #A99A83",
"3. c #A29788",
"4. c #A19798",
"5. c #B19F93",
"6. c #99A398",
"7. c #B9AF8B",
"8. c #A3A39C",
"9. c #A7A698",
"0. c #B4AD9C",
"q. c #BBB29E",
"w. c #AFAF91",
"e. c #9A9BA1",
"r. c #919EB1",
"t. c #AB9FA1",
"y. c #BA9DA2",
"u. c #80A4A0",
"i. c #9CA9AF",
"p. c #9AA8A3",
"a. c #8FB1A3",
"s. c #9FBAAB",
"d. c #A6AAA3",
"f. c #ACABA4",
"g. c #A5A7AB",
"h. c #A6AAAB",
"j. c #ABAEAB",
"k. c #A3A3A4",
"l. c #B6AAA8",
"z. c #A9B1A4",
"x. c #B6B5AC",
"c. c #A8ACB5",
"v. c #A9B3B6",
"b. c #BCB8B4",
"n. c #BBBBBA",
"m. c #B4B7B7",
"M. c #D09D80",
"N. c #C38E8A",
"B. c #C8AF90",
"V. c #DBA990",
"C. c #C3BB9D",
"Z. c #C7B69C",
"A. c #C4B288",
"S. c #E8A19F",
"D. c #C9BDAD",
"F. c #C2B8B5",
"G. c #D3ADB0",
"H. c #99C1A9",
"J. c #A9C3BB",
"K. c #AFD2BA",
"L. c #B9D5BA",
"P. c #E4DB96",
"I. c #FCEC8A",
"U. c #C9C4BD",
"Y. c #D5CBB8",
"T. c #C1D9BF",
"R. c #CDC4A4",
"E. c #E3C6BE",
"W. c #AEB4C2",
"Q. c #B9BEC1",
"!. c #B7BFC1",
"~. c #C4BCC4",
"^. c #C1BFD5",
"/. c #94CBC8",
"(. c #BAC9C8",
"). c #B6D7CA",
"_. c #B7C8D4",
"`. c #A0E7D9",
"'. c #B5E6E2",
"]. c #CBC9C3",
"[. c #C5C9C9",
"{. c #D3CDCC",
"}. c #C3D8C6",
"|. c #D2D2CA",
" X c #DDD4C8",
".X c #CCCFD3",
"XX c #C6C9D8",
"oX c #CBD5D9",
"OX c #D5D6D2",
"+X c #DADBD5",
"@X c #D2DADA",
"#X c #D9DBD7",
"$X c #E0DFDB",
"%X c #C7E7CA",
"&X c #DAE4DD",
"*X c #E0E3DD",
"=X c #E8E2D9",
"-X c #CBD3E0",
";X c #DADEE3",
":X c #D1D9E5",
">X c #DDE6E7",
",X c #E8E9E6",
"<X c #F3EBE3",
"1X c #F9F5ED",
"2X c #EDEFFB",
"3X c #EEF2F1",
"4X c #FCFDFB",
/* pixels */
"*X&X,X#X#X*X>X;X&X#X+X,X,X>X&X@X@X#XOX3X4X4X4X4X4X",
"9.f.U.OX|.|.+X#X+X*X>Xi.-.m..X=X;X+X$XOX,X1X1X4X4X",
"% > : F g e s 6.d.=.,.a s %.b.f.>.*.=.h.;.Y %.;.:.",
"3 6 w 6 w w F d W D C [ M.[ B.=.h S Y Y k w w a < ",
"D.2.q.C.W 3.b.+.9.S q / / ( / T Y 9.3.$.6.*.S %.q.",
"^ 2.7.Z P y F $.OXD.r 2 B N 9 2.{.=X<Xh.8.Y Z Q 7.",
"3.3 = q P * 7 l.=XR.V H ] ] G A.,X<XF.n.x.h t Q P ",
": + , * 3 * p f.j.r B V V N C ~ W r Y [.8.s 3 > e ",
"4 @ # 0 0 ; 7 3.x.< + & - N : s O X -.r.l W *.Y g ",
", c v 1 u < A C.Y.d 7 . & # # ~ u ; e._.j f R *.9.",
"% $ n x #.7 ~ / U.,X~.o     @ Z.2Xd.<.c.z L #.j l ",
"z T E &.g M G.[.;X-X~.=.; < :.].:X(.z.l.9.Y R 5.5.",
"l +.z.9.U N.>X^.(.XX.X*XY. X@X@X(.(._.~.S.V.0.y.E.",
"p 4.>.A ..G.(.j a c.-X[.l.l.(.:X| X..X-X'.`./.o.).",
"0.*.i b J l.h.$.@.k.Q.c.n.b.n.v.#.X.m.W.).%X%XX.o.",
" X3.d 5 m F.J.$.,.m.f 7 <.Q.k j.}.t. .6.P.{ } I.) ",
"Y.6.K O.o.g.p.e.@.>.+.f @.1.@.>.Q.>.4.f.A.` ' ' I ",
"C.p.a.s.J.m.h.g.;.k.b.n.j.m.x.f.8.$.h.v.z.! ) _ z.",
"R.L.}.T.).[.[.[.[.[.{.{.].OX|.].x.;.i.i.v.a.H.K.L."
};
