/* XPM */
static const char *micro_nfradet[] = {
/* columns rows colors chars-per-pixel */
"25 19 216 2 ",
"   c #000D12",
".  c #04161A",
"X  c #051822",
"o  c #141C2B",
"O  c #1B1E25",
"+  c #0F2925",
"@  c #1A252E",
"#  c #16202A",
"$  c #1B2331",
"%  c #1D2B34",
"&  c #182C38",
"*  c #1F313B",
"=  c #24262A",
"-  c #222C34",
";  c #222D3A",
":  c #2A2E39",
">  c #243235",
",  c #24323B",
"<  c #2A343C",
"1  c #23383D",
"2  c #343033",
"3  c #373739",
"4  c #573F33",
"5  c #45413C",
"6  c #4E4936",
"7  c #585739",
"8  c #2C3944",
"9  c #2B3646",
"0  c #313B46",
"q  c #7B374C",
"w  c #3B454C",
"e  c #3C494F",
"r  c #3F4953",
"t  c #28434E",
"y  c #444447",
"u  c #59564A",
"i  c #434A50",
"p  c #524B52",
"a  c #465659",
"s  c #5D5D5B",
"d  c #565855",
"f  c #5C4D48",
"g  c #634F44",
"h  c #635B57",
"j  c #725954",
"k  c #6E4E4D",
"l  c #4F665C",
"z  c #59645E",
"x  c #646144",
"c  c #79724C",
"v  c #737246",
"b  c #6A6452",
"n  c #6D6958",
"m  c #7C655A",
"M  c #7A7653",
"N  c #795B62",
"B  c #56656A",
"V  c #486C6C",
"C  c #666B65",
"Z  c #6A6965",
"A  c #796A66",
"S  c #6B706A",
"D  c #75756F",
"F  c #79736D",
"G  c #707066",
"H  c #706D76",
"J  c #657675",
"K  c #7D7E74",
"L  c #7B7679",
"P  c #787978",
"I  c #616878",
"U  c #A3182F",
"Y  c #A03441",
"T  c #AD3E68",
"R  c #834256",
"E  c #B6415B",
"W  c #806355",
"Q  c #827E58",
"!  c #A34263",
"~  c #BD4874",
"^  c #9B6F7C",
"/  c #827C71",
"(  c #867E76",
")  c #96786E",
"_  c #A1796F",
"`  c #A87B72",
"'  c #B07B75",
"]  c #7D827B",
"[  c #798675",
"{  c #7E987B",
"}  c #AF943D",
"|  c #8E905F",
" . c #888769",
".. c #83837E",
"X. c #898475",
"o. c #92887B",
"O. c #9E8976",
"+. c #97947B",
"@. c #8E8B75",
"#. c #AE8267",
"$. c #AC8978",
"%. c #B78C76",
"&. c #B2936E",
"*. c #9EA571",
"=. c #AAA77A",
"-. c #B0AE7B",
";. c #D0AD51",
":. c #C5C379",
">. c #FFEF7A",
",. c #F7E368",
"<. c #577887",
"1. c #727D81",
"2. c #817F84",
"3. c #A77F8A",
"4. c #CD7585",
"5. c #F65392",
"6. c #578F9C",
"7. c #778687",
"8. c #718E92",
"9. c #7E9E91",
"0. c #6B8C83",
"q. c #7BA9A6",
"w. c #8B8B83",
"e. c #898886",
"r. c #958E84",
"t. c #83938E",
"y. c #91938D",
"u. c #9B9A87",
"i. c #898D97",
"p. c #859A99",
"a. c #969593",
"s. c #9A9592",
"d. c #979995",
"f. c #988B94",
"g. c #A19483",
"h. c #B89788",
"j. c #A29C97",
"k. c #B89490",
"l. c #8FA18B",
"z. c #8FA69C",
"x. c #9BA693",
"c. c #84B09F",
"v. c #BFA48F",
"b. c #A7A79A",
"n. c #B4A898",
"m. c #B3B691",
"M. c #939AA4",
"N. c #8DA1AC",
"B. c #97A3A6",
"V. c #95B1B7",
"C. c #A7A3A1",
"Z. c #A9A8AA",
"A. c #B4AAA7",
"S. c #A9B4A9",
"D. c #B5B0A2",
"F. c #B3B5AC",
"G. c #BCB3AA",
"H. c #A5A7B3",
"J. c #B8B9B5",
"K. c #AFB7BA",
"L. c #C09282",
"P. c #DB819B",
"I. c #E28799",
"U. c #C5AC8E",
"Y. c #D286A0",
"T. c #C3B5A8",
"R. c #D4B3A7",
"E. c #D8BCB1",
"W. c #F2BBA6",
"Q. c #99C3AF",
"!. c #94C1BE",
"~. c #BAC7A4",
"^. c #CAC7A8",
"/. c #D7CEAF",
"(. c #C4C2BD",
"). c #CFC2B2",
"_. c #D8C5BB",
"`. c #CED7B3",
"'. c #F0F3B0",
"]. c #BBBDC2",
"[. c #A7B7CE",
"{. c #C0B4C0",
"}. c #82C3DF",
"|. c #99CBC5",
" X c #A7CAC6",
".X c #BFDCCA",
"XX c #B8C9D7",
"oX c #AFC6D8",
"OX c #8FE2F0",
"+X c #C7CAC7",
"@X c #D7CDC1",
"#X c #CED9D2",
"$X c #CCDBDE",
"%X c #D2D4D7",
"&X c #DCDCD4",
"*X c #D2DADB",
"=X c #CED9CC",
"-X c #E6DACC",
";X c #E9DEC8",
":X c #D7E2DC",
">X c #FFF1DC",
",X c #EFF2CF",
"<X c #C9DDEF",
"1X c #C2D2E9",
"2X c #D7DCE5",
"3X c #CDE1E5",
"4X c #D3E2E3",
"5X c #DFE5E9",
"6X c #D7E2E7",
"7X c #DAE3F4",
"8X c #E7E9E3",
"9X c #FDF4EF",
"0X c #E8EDF1",
"qX c #F9F9F3",
"wX c #FEFEFE",
"eX c #F6F7F2",
/* pixels */
":X*X5X5X6X6X4X4X3X:X&X4X3X4X*X$X2X0XwXwXwXwXwXwXwX",
"y.F.+X(.+X+X#X#X%X*X2X<X1X7X2X2X2X%X8XwXqXeXeXeX8X",
"u h F Z Z F y.d.K B.<XoXoXXX6XH.e.w.b.d...e.a.( G ",
"A ( X.F / s.L j.o.B.i.s h D H.K.o.w.] P C s Z h y ",
")./.n.D.n.(.e.A.T.G 2 g W g u s.G.F.a.J.D.u.D.^.+.",
"+.-.Q  .x / a.8X>X( f j ) m m g.9XqXS.b. . .m.,X'.",
"6 v M  .7 K ].=X_.h._ ` h.` $.E.&X+X+XF.n c | *.-.",
"5 x b n n ( H.Z.S O.#.#.%.%.$.o.n e.].a.F b u X.g.",
"4 u [ A z A D.J.s 3 m %.' $.O.= 5 M.N.L u.b.x.r.Z ",
"U k C D C / ^.^.s p g.%.L.h.n.i.L N.[.I K w...F.(.",
"Y A ] t.A k.U.W.7.H -XU.$.U.@Xi.H.V.B.t.7.7.] [ b.",
"r.l.@.X.E I.T.C w : j.;X_.-XC.9 a 8.{.n.u.+.R._.k.",
"a.S.b.u.4.3.w ; , 8 = p 2.L < 0 t 0 N R.~.F.C.8XA.",
"Z.d.^ Y.P.2 % - , , ; @ $ o , , 9 8 & <.OX}.6.|.!.",
"f.N ~ 5.! + $ O % - ; ; ; , 9 , > > - 3 ~.`.m.z.`.",
"s.j R T q . o 1 0 @ - % > % ; < 0 * & + &.,.>.:.^.",
"p.0.8.q.B   X d r @ % % , % % , t.d o o c ;.} =.A.",
"p.9.p.V.B . X i B < ; % % @ 8 a J y # X l x.{ c.S.",
"=X.X X Xa . X w B , % % ; % e 1.J 0 o . V |.q.q.Q."
};
