/* XPM */
static const char *micro_asene[] = {
/* columns rows colors chars-per-pixel */
"25 19 181 2 ",
"   c #0E0C0D",
".  c #141616",
"X  c #151618",
"o  c #1C1C1B",
"O  c #1A1714",
"+  c #22211F",
"@  c #171E28",
"#  c #1F2120",
"$  c #1C222C",
"%  c #1E2632",
"&  c #1D2936",
"*  c #232121",
"=  c #292623",
"-  c #2A2926",
";  c #23242E",
":  c #2C2B2A",
">  c #322F2C",
",  c #34312E",
"<  c #3B352F",
"1  c #232630",
"2  c #262C35",
"3  c #252D3B",
"4  c #2B2F38",
"5  c #2A2E37",
"6  c #25313E",
"7  c #2B323C",
"8  c #363634",
"9  c #3D3B35",
"0  c #3D3B3B",
"q  c #413B2F",
"w  c #433B33",
"e  c #413D3A",
"r  c #4C433B",
"t  c #544738",
"y  c #242F41",
"u  c #2D3442",
"i  c #2F3841",
"p  c #313541",
"a  c #343A45",
"s  c #303548",
"d  c #363D4C",
"f  c #393C49",
"g  c #393F53",
"h  c #433F40",
"j  c #394247",
"k  c #3D4550",
"l  c #4D4945",
"z  c #47474F",
"x  c #4E4C4F",
"c  c #534C44",
"v  c #514E4A",
"b  c #55524E",
"n  c #5C544B",
"m  c #5D5649",
"M  c #464B51",
"N  c #575350",
"B  c #595551",
"V  c #5E5952",
"C  c #61574D",
"Z  c #615A4F",
"A  c #6A5A4C",
"S  c #605343",
"D  c #655C54",
"F  c #6C5E53",
"G  c #636057",
"H  c #6C6050",
"J  c #6D645A",
"K  c #726454",
"L  c #796754",
"P  c #776855",
"I  c #73675C",
"U  c #75695D",
"Y  c #7B6C5D",
"T  c #71705B",
"R  c #5A636A",
"E  c #6C6B67",
"W  c #766D63",
"Q  c #7B6E61",
"!  c #756E6A",
"~  c #7F7266",
"^  c #7F766A",
"/  c #616A73",
"(  c #777C7F",
")  c #7F7D7E",
"_  c #806754",
"`  c #87705E",
"'  c #867464",
"]  c #8C7466",
"[  c #817867",
"{  c #8D7C6B",
"}  c #87796A",
"|  c #917D6E",
" . c #8D806D",
".. c #9B806B",
"X. c #8D867C",
"o. c #948674",
"O. c #988878",
"+. c #95897D",
"@. c #A49077",
"#. c #8B8A86",
"$. c #868489",
"%. c #9A8E80",
"&. c #918E89",
"*. c #9D9080",
"=. c #99928A",
"-. c #9D998D",
";. c #8E8D93",
":. c #91989E",
">. c #9C9A9E",
",. c #A79B86",
"<. c #A5998C",
"1. c #A89687",
"2. c #B69C84",
"3. c #A19E99",
"4. c #ADA38C",
"5. c #BBA28C",
"6. c #A7A79F",
"7. c #ABA29D",
"8. c #B5A293",
"9. c #B5AA9D",
"0. c #BAAC9B",
"q. c #B9A290",
"w. c #BAB095",
"e. c #9F9DA2",
"r. c #A9A7A3",
"t. c #BAACA3",
"y. c #B5B2AD",
"u. c #B5B0B6",
"i. c #BAB8B3",
"p. c #BCBABC",
"a. c #BFB5B4",
"s. c #C1B8A7",
"d. c #C7BBAF",
"f. c #D1BAA8",
"g. c #C5BDB5",
"h. c #C2BDBB",
"j. c #BFC0B8",
"k. c #D9C0AA",
"l. c #CFC3B3",
"z. c #C3C4BB",
"x. c #CDC5BB",
"c. c #DFC9B2",
"v. c #C3BFC3",
"b. c #CBCBCC",
"n. c #C8C5C6",
"m. c #D2CDC7",
"M. c #DED6C1",
"N. c #D4D3CA",
"B. c #D8D2CB",
"V. c #CBCAD0",
"C. c #D1CCD0",
"Z. c #D4D3D4",
"A. c #D8D5D0",
"S. c #DEDAD4",
"D. c #D7D6DB",
"F. c #DCDDDC",
"G. c #D7DAD3",
"H. c #E0D4C4",
"J. c #E2DCD3",
"K. c #E9DFD6",
"L. c #DFE2D9",
"P. c #E2E6CF",
"I. c #EBE3D5",
"U. c #E2E1DE",
"Y. c #ECE4DB",
"T. c #DFDEE3",
"R. c #E5E3E2",
"E. c #EEEDEB",
"W. c #E7E5E5",
"Q. c #F4ECE5",
"!. c #F2F2EE",
"~. c #EBF1F1",
"^. c #F7F6F2",
"/. c #FDF6F3",
"(. c #F3F9F6",
"). c #FEFAF5",
"_. c #F7FBFE",
"`. c #FFFFFB",
"'. c #FFFDFA",
"]. c #FFFDFE",
"[. c #FDFDFC",
/* pixels */
"< < < q t I w   O o o . * , - 9 * o o o # o + o * ",
"n D V Z ^ W r > - - : : - : , 9 e 0 8 0 0 8 8 0 e ",
"I c c D D D D v b v N V B b b l v b B l v v B D J ",
"9.<.+.I D C F m n n c r w r Z V C n n m m n Z n D ",
"P { ' Q I U H P Q m Y P O.t K W Y Q U Q I Q U Y U ",
"' | ] Y %.Y.l.{ Y A f.k.c.{ S } U Q Q Y Y U U ~ Q ",
"} O.Y Y ^ =.9.~ F ' ` .._ L A I ! J I I J W W J J ",
"K.<.O.s.-.r.n r t.0.q.2.5.8.d.g.h.S.B.g.X.J.Q.m.W ",
"'.8.F.[.N.A.^ Z P.x.2.] | w.].J.A.).Q.Y.z.^.'.'.M.",
"!.<.U.(.).y.D V z./.@._ K 4.].S.y./.Y.Y.i.R.'.E.I.",
"].0.U._.'.'.G 0 F.u.o.Y [ T ;.b.b.W.J.B.&.b.!.!.I.",
"].0.G.].'.(.#.z R 1 l ! E 9 2 M >.W.m.n.#.p.E.Z.x.",
"E.,.L.).).~.( f 7 f ; p p 7 a j a $.C.h.#.n.W.D.p.",
"J. .j.m.Q.:.p a a a u g d u a 7 a p e.v.$.Z.V.D.v.",
"l.O.6.s.H./ 3 a f p 3 g u s u 3 3 7 0 h 0 x b.R.#.",
"4.1.3.4.,.k y 7 a p u d i u a 3 & 2 : = : : r.i.) ",
"*.! y.=.b a & 2 a u u d u u p % ; 6 4 X o * a.n.>.",
"Y > N.! > d $ 1 p 7 7 d u 7 7 $ $ 6 5 . X o g.T.p.",
"n = , , 0 2 % 1 7 7 7 d u 3 7 @ $ 6 2 o X O 7.b.U."
};
