/* XPM */
static const char *micro_bpleutin[] = {
/* columns rows colors chars-per-pixel */
"25 19 186 2 ",
"   c #040001",
".  c #0B0605",
"X  c #0C0800",
"o  c #0D0D0C",
"O  c #0D0709",
"+  c #110303",
"@  c #170C07",
"#  c #14110D",
"$  c #19130D",
"%  c #0D0B10",
"&  c #120F11",
"*  c #151213",
"=  c #1B1515",
"-  c #15141A",
";  c #191718",
":  c #1B1A1B",
">  c #210F01",
",  c #281D09",
"<  c #341A07",
"1  c #221912",
"2  c #3F230D",
"3  c #3C2012",
"4  c #1D1E23",
"5  c #221E25",
"6  c #1D2731",
"7  c #202022",
"8  c #2E2B24",
"9  c #382A23",
"0  c #2A2733",
"q  c #2B2831",
"w  c #3A3C3D",
"e  c #482508",
"r  c #4B2310",
"t  c #472911",
"y  c #572C1B",
"u  c #563214",
"i  c #59361A",
"p  c #602B19",
"a  c #653616",
"s  c #663817",
"d  c #7A3F17",
"f  c #463729",
"g  c #583424",
"h  c #413630",
"j  c #443C37",
"k  c #6D3C23",
"l  c #653D24",
"z  c #4C433E",
"x  c #574134",
"c  c #674232",
"v  c #62503C",
"b  c #70513D",
"n  c #774927",
"m  c #444341",
"M  c #594E48",
"N  c #594E45",
"B  c #5F5245",
"V  c #5C554D",
"C  c #545045",
"Z  c #574E51",
"A  c #5F5850",
"S  c #5F5659",
"D  c #575757",
"F  c #675843",
"G  c #64574B",
"H  c #655B4E",
"J  c #695B4E",
"K  c #7E5A42",
"L  c #635B53",
"P  c #6A5D54",
"I  c #655E5B",
"U  c #6E6255",
"Y  c #66625B",
"T  c #6C6359",
"R  c #72675C",
"E  c #75695F",
"W  c #7A6C5D",
"Q  c #766857",
"!  c #666867",
"~  c #6F6862",
"^  c #6A6661",
"/  c #756B63",
"(  c #7A6C63",
")  c #766E6C",
"_  c #757265",
"`  c #7E7266",
"'  c #7B7867",
"]  c #7E736A",
"[  c #7E786A",
"{  c #6E6E75",
"}  c #7F7B7C",
"|  c #75797B",
" . c #A1613D",
".. c #934E2D",
"X. c #895847",
"o. c #825D43",
"O. c #926047",
"+. c #9D715A",
"@. c #A06440",
"#. c #AF7E5D",
"$. c #826C61",
"%. c #817366",
"&. c #8F7568",
"*. c #8D7E6D",
"=. c #897566",
"-. c #9B7B66",
";. c #837C73",
":. c #887B75",
">. c #A57768",
",. c #AD7872",
"<. c #898179",
"1. c #9D8078",
"2. c #948978",
"3. c #A4816B",
"4. c #B38065",
"5. c #B78979",
"6. c #D19A7B",
"7. c #C8957A",
"8. c #908780",
"9. c #958D85",
"0. c #9F8F82",
"q. c #9C938A",
"w. c #9E9A93",
"e. c #9B9690",
"r. c #898B88",
"t. c #A89787",
"y. c #B99887",
"u. c #B59681",
"i. c #A59B94",
"p. c #A29F98",
"a. c #ABA49B",
"s. c #B1A79D",
"d. c #9F9FA7",
"f. c #ACA6A3",
"g. c #AFA8A2",
"h. c #B3AAA5",
"j. c #ADB2B8",
"k. c #B3B4B5",
"l. c #BFBDBE",
"z. c #BAB6B3",
"x. c #DB9D81",
"c. c #D29487",
"v. c #CFA28F",
"b. c #DCB08D",
"n. c #CAAA9F",
"m. c #D7AA97",
"M. c #DBB89C",
"N. c #C2BCB3",
"B. c #C2B7B3",
"V. c #E8BAA2",
"C. c #BFC0BB",
"Z. c #F0C29E",
"A. c #C6C2B6",
"S. c #F4C5A9",
"D. c #BCBCC4",
"F. c #BCC0C1",
"G. c #C3C5C5",
"H. c #CECBC4",
"J. c #C7CACA",
"K. c #CCCCCB",
"L. c #C9C4C0",
"P. c #D6CBC1",
"I. c #CED0CE",
"U. c #D2D1C7",
"Y. c #D3D2CD",
"T. c #DBD5CC",
"R. c #D5D3D1",
"E. c #D7D9D6",
"W. c #DDDBD4",
"Q. c #D8D5D0",
"!. c #E2DED5",
"~. c #F4E4D4",
"^. c #DFDFE7",
"/. c #DAE0E0",
"(. c #EBE6E2",
"). c #E8EAE7",
"_. c #ECEEEC",
"`. c #FBF1EF",
"'. c #EAF2F5",
"]. c #F5F5F4",
"[. c #F6F8F7",
"{. c #FCFCF6",
"}. c #F4F4FA",
"|. c #F4FBFF",
" X c #FDFEFD",
".X c #F8F4F3",
/* pixels */
"P P L Y L P T ^ _ ( I m C _ ;.0.9.Q F N M _ ' / T ",
"E E U P L L V V B A N B ;.a.T.].{.A.2.t.q.a.t.s.h.",
";.R Q W T Y Y U U L V a.R.g.P.P.e.[ U E ( P H G G ",
"z.w.` U T T T H I P P j @   . h T E E T T T ( ] ;.",
"} k.k.<./ W U R Y W f b +.g + o J ( T / q.H.W..X{.",
"l.| j.J.9.( %.( ( ~ x V.x. .a > f ] g.N.W. X X[. X",
"{.E.| F.R.9.] ` %.P 1.v.4.@.d s B (. XH.Y.{. X X X",
"{.{.A.r./.J.;.%.[ -.v.X.>.c < l 9. X XE.W. X X X X",
" X X Xw.G.'.f.%.} u.Z.5.c.k < n O.`. XT.Y. X{.{. X",
" X X{.Y.k.|.K.<.&.y.S.7.x.k i ..3.{. XH.Q. X X{. X",
" X X X.Xk.|._.9.*.:.n.>.>.r 2 +.~. X X!.W. X X X{.",
" X X X{.G.'. Xi.*.8.t.M.,.p e u.{. X XT.Y. X{. X X",
" X X X XJ.'. Xa.2./ v M.>.y a t w G. XL.U. X X X X",
" X X X XI.'. Xg.2.S 9 b.o.3 i u   )  XW.W.{. X{. X",
"{. X X XI.'. Xh.2.S + #.6.g u e * h (.Y.B.{. X{. X",
"{.[. X XC.'. Xh.Z 0 6 , K c r 1 : @ 8 ! B.{._.p.f.",
"}.^.[. XD.}.G.w - 0 q 5 * 8 9 $ # & * X j K.).z D ",
"}.}.{._.d.{ : 4 * 4 5 : ; # # O . = o $ @ : ^ ( i.",
"'. X_._.{ - : 4 O ; 4 - 7 * & % # O ; # = = $ $.&."
};
