/* XPM */
static const char *micro_chdonnat[] = {
/* columns rows colors chars-per-pixel */
"25 19 202 2 ",
"   c #0C0C0C",
".  c #020403",
"X  c #12090A",
"o  c #10100E",
"O  c #141314",
"+  c #1D1915",
"@  c #1B1A1B",
"#  c #1B1610",
"$  c #211E17",
"%  c #221E1C",
"&  c #25211A",
"*  c #2A211A",
"=  c #33291F",
"-  c #292522",
";  c #2E2A26",
":  c #2A2A2A",
">  c #332A25",
",  c #362B28",
"<  c #3A342D",
"1  c #373229",
"2  c #312C30",
"3  c #3A393E",
"4  c #42352C",
"5  c #423D39",
"6  c #513D32",
"7  c #47403A",
"8  c #474A3F",
"9  c #56463D",
"0  c #5B4436",
"q  c #3D3E43",
"w  c #4C4B4B",
"e  c #4B4A43",
"r  c #534A44",
"t  c #594E48",
"y  c #554644",
"u  c #54514C",
"i  c #5B534C",
"p  c #504F54",
"a  c #5D5759",
"s  c #654C47",
"d  c #66594F",
"f  c #69554C",
"g  c #645955",
"h  c #6C5E53",
"j  c #675E5F",
"k  c #695753",
"l  c #6D6155",
"z  c #6C625B",
"x  c #706051",
"c  c #7B6257",
"v  c #74635B",
"b  c #766A5D",
"n  c #796A5D",
"m  c #726A57",
"M  c #68666A",
"N  c #776960",
"B  c #7C6C62",
"V  c #7F7168",
"C  c #706F74",
"Z  c #6D747C",
"A  c #777577",
"S  c #83685A",
"D  c #82715D",
"F  c #856F62",
"G  c #817466",
"H  c #8B7464",
"J  c #85756A",
"K  c #8C7A6B",
"L  c #8A786C",
"P  c #917F69",
"I  c #937769",
"U  c #8E7771",
"Y  c #8B7E73",
"T  c #877E75",
"R  c #95826D",
"E  c #9A816B",
"W  c #8A8076",
"Q  c #8C8279",
"!  c #958272",
"~  c #9B8574",
"^  c #978875",
"/  c #9C8976",
"(  c #968B7E",
")  c #9B8A7B",
"_  c #95877C",
"`  c #A0886E",
"'  c #A28877",
"]  c #A48C7B",
"[  c #AE8A72",
"{  c #B08775",
"}  c #B19276",
"|  c #7E7C81",
" . c #798289",
".. c #8A878B",
"X. c #8D8B8E",
"o. c #998E85",
"O. c #958B87",
"+. c #9C9283",
"@. c #94918E",
"#. c #9D938D",
"$. c #8F8D92",
"%. c #918F92",
"&. c #8F9297",
"*. c #8B929A",
"=. c #9A9595",
"-. c #97989D",
";. c #9A9799",
":. c #A48980",
">. c #A39284",
",. c #AC9B8D",
"<. c #A99789",
"1. c #B09081",
"2. c #B49B88",
"3. c #A69D95",
"4. c #A49E9B",
"5. c #A39690",
"6. c #AEA392",
"7. c #A8A79E",
"8. c #B4A79B",
"9. c #959EA5",
"0. c #A19FA2",
"q. c #9FA8AF",
"w. c #9DA2A8",
"e. c #AFA7A4",
"r. c #ADAAAC",
"t. c #AAA7A9",
"y. c #B3ADAB",
"u. c #BBADA3",
"i. c #BCB1A6",
"p. c #BAB2AF",
"a. c #A6A9B2",
"s. c #B7B7B3",
"d. c #BBBAB6",
"f. c #B2B6BD",
"g. c #B7B8B9",
"h. c #C8AA8E",
"j. c #C5A895",
"k. c #C2B9AF",
"l. c #CABEAE",
"z. c #CCBAA4",
"x. c #C6BFB9",
"c. c #C1B7B4",
"v. c #C5C1BB",
"b. c #CCC4BB",
"n. c #CDC1B1",
"m. c #D1C9BD",
"M. c #DBCCBF",
"N. c #D4C9B7",
"B. c #B7BEC6",
"V. c #BDBEC5",
"C. c #BBBFC8",
"Z. c #BCC3CD",
"A. c #BFC6D0",
"S. c #C4C5CD",
"D. c #CCC8C5",
"F. c #D5CDC3",
"G. c #DECDC2",
"H. c #D4CDCC",
"J. c #DECFC8",
"K. c #DCD3C4",
"L. c #DAD5CD",
"P. c #C4CBD2",
"I. c #CCCCDA",
"U. c #CBCBD3",
"Y. c #CDD0D9",
"T. c #CED3D7",
"R. c #DDDBD5",
"E. c #D2D5DA",
"W. c #D8D7DD",
"Q. c #DDDDDB",
"!. c #D5D5D5",
"~. c #E1D7CD",
"^. c #E8DFD3",
"/. c #E4E2DB",
"(. c #EDE6DC",
"). c #EEE8DF",
"_. c #F1E6DC",
"`. c #DDDCE3",
"'. c #D7DCE2",
"]. c #E1DFE0",
"[. c #E7DFEA",
"{. c #DFE2EA",
"}. c #DFE8EF",
"|. c #DBE0E6",
" X c #E4E4E3",
".X c #EDE7E7",
"XX c #E3E3EA",
"oX c #EBECEC",
"OX c #E6E9E9",
"+X c #F2EBE4",
"@X c #F0EAEA",
"#X c #F5F2EC",
"$X c #FFFEEF",
"%X c #F8F1E5",
"&X c #E4E6F3",
"*X c #E4EBF2",
"=X c #EDEDF3",
"-X c #F1EEF5",
";X c #EEF1F3",
":X c #F4F3F1",
">X c #FDFBF5",
",X c #FDFDFD",
/* pixels */
"< > 1 $ & $ & & 4 m 1 + % < & 2 z i r - - ; ; > > ",
"y , < t i i t g B J = X @ $ + @ * > 5 < - ; ; ; ; ",
"u.o.9 i h d v b V b i u w e 8 u r 7 r i u u u i i ",
"$X8.G ) 6.+.L b c S n l v b x f v l h l h l d h h ",
"l.>.^ R / <./ ! R P R D H R E ` ~ / / / R ~ ! ! ~ ",
"M.,./ ] ] 2.] ' R.:Xj , * y O.O.! ! R R R ~ ! ! K ",
"_.8.>.] >.2.! ) 6.u.6 / j.F 9 K Y ( Y J ! J G _ o.",
"/.v.^.%XK.n.N.( 5.v s H ~ f , +.R.b.3.i.~.3.#.+X>X",
"OX_.#X;X%XF.>Xs.7.:.{ [ I 0 h D.(.F.3.c.L.y.v.>X,X",
"/.(.).oX+XF.>X/.L.U j.2.c c B F./.L.7.p.e.y.@.D.oX",
" XK.).:X).F.#X#X>XJ H / f k Y c.v.x.=.4.4.=.A 0. X",
"R.^./. X+XM.+XR.>Xy.L E c y O.Q.H.H.e.=.;.%.| r.OX",
"d.G.m.Q.(.i./.y.*X!.,.} S h r.T. Xs.A ;.-.$.| S.W.",
"@.<.T 7.k.Y s.!.*XI.J.h.1.c.-.q.oXXXC 3 M a p | U.",
"g ) W @.Q o.Q.=X`.&X.Xz.G.[.A.}.|.E.f.@   O @   ..",
"a >.W d.Q W ].;X@X&XOXb.H.I.*XE.Z.B.V.q   O     ..",
"n Q y m.#.A -X=X=X=XXXa.S.&X{.E.P.B.C.A . o o   X.",
"N.5., k.z ..`.W.=X=X`.S.{.*X'.P.9.*.f.&.@ o o   C ",
"l.t > r # t.V.V.XXXXU.Y.{.Y.f.w. .Z a.a.:   O O w "
};
