/* XPM */
static const char *micro_ryada[] = {
/* columns rows colors chars-per-pixel */
"25 19 201 2 ",
"   c #080D07",
".  c #0F0F0D",
"X  c #110D0A",
"o  c #0F110C",
"O  c #14110D",
"+  c #19140E",
"@  c #161212",
"#  c #1A1615",
"$  c #1E1B17",
"%  c #231E1B",
"&  c #281F1A",
"*  c #241B16",
"=  c #2D241E",
"-  c #28211A",
";  c #272321",
":  c #2B2A26",
">  c #2D2826",
",  c #342A25",
"<  c #342D2A",
"1  c #39312A",
"2  c #3D3739",
"3  c #3F3D3E",
"4  c #4E281D",
"5  c #462E25",
"6  c #502721",
"7  c #40372E",
"8  c #51322D",
"9  c #443B33",
"0  c #473C37",
"q  c #593D32",
"w  c #4E433B",
"e  c #45413E",
"r  c #544336",
"t  c #52463D",
"y  c #584B38",
"u  c #5E4435",
"i  c #62413C",
"p  c #7C463C",
"a  c #72573A",
"s  c #4A3F43",
"d  c #4B4543",
"f  c #524442",
"g  c #564D45",
"h  c #5A4A44",
"j  c #594E48",
"k  c #5A5245",
"l  c #59534C",
"z  c #7A4D4C",
"x  c #7D4D43",
"c  c #685747",
"v  c #66584F",
"b  c #685849",
"n  c #765946",
"m  c #675E57",
"M  c #685F56",
"N  c #7F5551",
"B  c #7A644E",
"V  c #6A615A",
"C  c #6F6E59",
"Z  c #7C6455",
"A  c #7B6C5D",
"S  c #786657",
"D  c #6C6C64",
"F  c #766960",
"G  c #7B6D63",
"H  c #7A6F6A",
"J  c #777560",
"K  c #7D7065",
"L  c #7C7A7F",
"P  c #895047",
"I  c #8F6151",
"U  c #8F6D52",
"Y  c #986F5D",
"T  c #A07459",
"R  c #86756B",
"E  c #8C7E6E",
"W  c #86796A",
"Q  c #817A7C",
"!  c #A17F66",
"~  c #B07263",
"^  c #8E8077",
"/  c #8E827B",
"(  c #998471",
")  c #9A8870",
"_  c #948C7E",
"`  c #978779",
"'  c #9B886A",
"]  c #B28369",
"[  c #A18776",
"{  c #A18F77",
"}  c #A28E7C",
"|  c #A98579",
" . c #B0857F",
".. c #B3887F",
"X. c #A4927C",
"o. c #A9947B",
"O. c #B6907B",
"+. c #8B8681",
"@. c #8F8488",
"#. c #8A8A89",
"$. c #978E81",
"%. c #9C8E83",
"&. c #948C8F",
"*. c #9A8C8C",
"=. c #9E9996",
"-. c #959396",
";. c #A39384",
":. c #A99682",
">. c #AD9885",
",. c #A4938A",
"<. c #AA9B8C",
"1. c #B49E86",
"2. c #B19D8B",
"3. c #BB9882",
"4. c #A49C91",
"5. c #AA9C93",
"6. c #A59C9D",
"7. c #A39592",
"8. c #B29F91",
"9. c #B8A086",
"0. c #BDA58D",
"q. c #B0A18A",
"w. c #AAA397",
"e. c #ABA39E",
"r. c #B3A395",
"t. c #B3AA9B",
"y. c #BAA99B",
"u. c #ACB49F",
"i. c #ADA9A3",
"p. c #B4A9A1",
"a. c #BBAEA3",
"s. c #B4AFAB",
"d. c #BCB1A3",
"f. c #BDB4AC",
"g. c #BFB8AE",
"h. c #BDBAB2",
"j. c #C69788",
"k. c #C39E95",
"l. c #C5A78D",
"z. c #C0B08E",
"x. c #C0A792",
"c. c #C4AC94",
"v. c #C9AF95",
"b. c #D5A896",
"n. c #CAB594",
"m. c #C4B59D",
"M. c #CBB39A",
"N. c #CEB99E",
"B. c #CDBAA2",
"V. c #C5B6A6",
"C. c #D6B8A0",
"Z. c #D8BEA7",
"A. c #C5BDB3",
"S. c #C3BEBA",
"D. c #CBBCB6",
"F. c #CDC0AD",
"G. c #D6C6AF",
"H. c #DDC7AE",
"J. c #DBC8A8",
"K. c #CFC4B0",
"L. c #C6C2BC",
"P. c #CBC2B9",
"I. c #C4C0B4",
"U. c #D3C7BD",
"Y. c #D6CAB7",
"T. c #D3CEC4",
"R. c #DBCBC4",
"E. c #D4CCC9",
"W. c #D6D3CC",
"Q. c #DCD4CC",
"!. c #DED5C6",
"~. c #DDDAD2",
"^. c #DBD8D8",
"/. c #E6DCC7",
"(. c #E8D5CF",
"). c #E4DCCC",
"_. c #E9DCCC",
"`. c #E3DAD4",
"'. c #E0DEDF",
"]. c #EBDBD8",
"[. c #ECE4CD",
"{. c #ECE1D7",
"}. c #E5E3DD",
"|. c #EBE4DC",
" X c #F4E4DA",
".X c #F0E9DF",
"XX c #F2E5D5",
"oX c #E6E2E4",
"OX c #ECE6E2",
"+X c #EDECE4",
"@X c #E7ECE8",
"#X c #E6E9E2",
"$X c #F3ECE4",
"%X c #F2EDEB",
"&X c #EEF1EA",
"*X c #F8F6E7",
"=X c #F5F3ED",
"-X c #FBF3EE",
";X c #FBF3F3",
":X c #FFFBF1",
">X c #FEFDFD",
/* pixels */
"v 0 0 g t h w h k X.A O % , - $ 9 g V w = < 1 < 1 ",
"r.E c B W ( { ( r.2.S d d f f d j w l V M V V V m ",
"*X!._ E ` %.` _ ` [ } ^ H G G G F A A A G K K F K ",
"-X X8.x.Z.H.N.1.X.o.o.X.X.:.o.o.>.2.>.:.X.} X.:.:.",
"F.m.M.c.l.C.M.B.B.Y.m.n.N.B.N.n.M.v.v.M.M.M.M.M.v.",
":X{.V.B.n.J.n.z.!.:XXXy.( A ;.v.x.x.v.0.9.x.0.1.1.",
"/.Y.m.G.B.H.N.N.a.f.p.c 5 , = W d.y.r.<.y.r.;.V.U.",
">X'.oX>X=X~.$XA.2.f.t r r 2 @ 1 }.|.L.f..XQ.e.{.>X",
"OX|.=X&X;X[.%X}.A.w.y Y ! B 5 9 %XOXh.d.Q.D.S.=X>X",
"|.|.+X}.>X/.;X#X;Xt.Z b.j.3.Z R OX+Xh.f.f.f.=.i.%X",
"=XQ.|.=X%X_.$X=X>XW.A b.T U B ;.`.E.s.6.e.&.#.#.^.",
"}.`.|.}.;X_..X`.@X+XJ O.] a n t.$X}.S.=.6.&.&.-.oX",
"h.U.K.i.-Xt.R.I.~.(.C I ~ n 6 / E.L.+.Q 6.@.Q -.^.",
"4.,.q.+.g.5.t.4.h.D.u.| P u 8 i.h.D : : 9 s 2 d L ",
"k ,.m.7.$.<.,.t.~.|.+X X .q w.~.|.W.l O O @ $ . 3 ",
"7 y.' 5.T.F ` _.].`.|.R.z N A.{.].Q.L.- O X o   e ",
"$.G.M %. Xg H ).`.~.$Xj.p z p.{.Q.f.A.0 X # # X d ",
"|.Y.9 / R & < Q.`.+X|...x N p.`.P.d.P.g X # # X < ",
"*.g * % + > &.{.).^.+Xk.4 i P.Q.d.a.U.V $ > ; ; d "
};
