/* XPM */
static const char *micro_bavaness[] = {
/* columns rows colors chars-per-pixel */
"25 19 189 2 ",
"   c #0D0709",
".  c #150E09",
"X  c #1D140F",
"o  c #221306",
"O  c #29170D",
"+  c #2B1B0B",
"@  c #2A1711",
"#  c #251C16",
"$  c #2D1C14",
"%  c #261E1A",
"&  c #281E1C",
"*  c #231512",
"=  c #321F19",
"-  c #1B221B",
";  c #2D2512",
":  c #26211C",
">  c #2A221D",
",  c #342319",
"<  c #3C2A1C",
"1  c #39231A",
"2  c #2F2623",
"3  c #2F2822",
"4  c #312621",
"5  c #332A24",
"6  c #3F2D22",
"7  c #332D2D",
"8  c #3E3025",
"9  c #37302A",
"0  c #3B322D",
"q  c #3D3531",
"w  c #393A34",
"e  c #432C0D",
"r  c #412416",
"t  c #45301F",
"y  c #51301D",
"u  c #49362E",
"i  c #483228",
"p  c #5C352E",
"a  c #423A33",
"s  c #463E3C",
"d  c #44432F",
"f  c #47403A",
"g  c #4C423D",
"h  c #50453F",
"j  c #5C4B39",
"k  c #7F542A",
"l  c #644F3C",
"z  c #775237",
"x  c #7E5133",
"c  c #7E5039",
"v  c #4D4741",
"b  c #544C44",
"n  c #504F4B",
"m  c #534542",
"M  c #5D5759",
"N  c #5E5B5A",
"B  c #714F45",
"V  c #685849",
"C  c #785942",
"Z  c #6F6349",
"A  c #72614D",
"S  c #6A665D",
"D  c #6C685D",
"F  c #7B6654",
"G  c #70665D",
"H  c #73695F",
"J  c #7F6A59",
"K  c #726753",
"L  c #6E6B62",
"P  c #6D6A6A",
"I  c #756E64",
"U  c #756E6A",
"Y  c #757062",
"T  c #7B7162",
"R  c #72706B",
"E  c #7C746B",
"W  c #747471",
"Q  c #7A7672",
"!  c #7D7970",
"~  c #7F7F7D",
"^  c #8E5B3C",
"/  c #8C563E",
"(  c #885F43",
")  c #936B52",
"_  c #85735F",
"`  c #9D755B",
"'  c #A2774D",
"]  c #A7705C",
"[  c #817867",
"{  c #80776E",
"}  c #827A6D",
"|  c #8A7B6C",
" . c #827263",
".. c #917B64",
"X. c #837B72",
"o. c #8A7E74",
"O. c #837E79",
"+. c #897F79",
"@. c #AF7961",
"#. c #A47C62",
"$. c #8B8375",
"%. c #878378",
"&. c #8C857B",
"*. c #8E8A7E",
"=. c #91877E",
"-. c #91897B",
";. c #A38165",
":. c #AE8875",
">. c #AB8877",
",. c #8D8783",
"<. c #8E8B82",
"1. c #938C82",
"2. c #958F8A",
"3. c #9A9082",
"4. c #97938A",
"5. c #9A948C",
"6. c #9C9B92",
"7. c #969597",
"8. c #A0968C",
"9. c #B79981",
"0. c #B79B8F",
"q. c #A09790",
"w. c #A29C93",
"e. c #A39E9A",
"r. c #BAA48F",
"t. c #ADA090",
"y. c #A3A19A",
"u. c #AAA79E",
"i. c #9C9BA0",
"p. c #A3A3A3",
"a. c #AEABA4",
"s. c #ACA7A3",
"d. c #B2AEA9",
"f. c #B3AAA5",
"g. c #AFB0AA",
"h. c #B8B2AB",
"j. c #B3B3AB",
"k. c #B7B7B7",
"l. c #B6B8B5",
"z. c #BBBAB3",
"x. c #BCB7B3",
"c. c #CBAC97",
"v. c #D7A793",
"b. c #D5AA9A",
"n. c #D5B09E",
"m. c #DCB29C",
"M. c #C2BDB7",
"N. c #C3BEB8",
"B. c #EFBAAC",
"V. c #C2C1BC",
"C. c #E8C9B7",
"Z. c #E2C6BA",
"A. c #C8C7C3",
"S. c #C7C9C6",
"D. c #CCC9C4",
"F. c #CBCBCB",
"G. c #D2CDC6",
"H. c #D1CDCE",
"J. c #D8D1C7",
"K. c #D1D1CF",
"L. c #DAD5CB",
"P. c #D5D1C6",
"I. c #CACED1",
"U. c #CDD1D5",
"Y. c #DBDAD6",
"T. c #D6D5D4",
"R. c #ECD4C8",
"E. c #F7D0C9",
"W. c #E3DFD3",
"Q. c #E0DDD8",
"!. c #DFE1DE",
"~. c #EAE5DF",
"^. c #DEE3E7",
"/. c #EEE9E6",
"(. c #E0E8EB",
"). c #E3E8E6",
"_. c #F2EAE2",
"`. c #F2EDEA",
"'. c #F3F4EE",
"]. c #F8F3EF",
"[. c #EDEEF0",
"{. c #EBF2F3",
"}. c #F4F5F3",
"|. c #F9F7F2",
" X c #FDFAF5",
".X c #F3F7FB",
"XX c #F8F7FC",
"oX c #F5FBFE",
"OX c #FEFEFD",
/* pixels */
"G } [ X.+.-.3.2.,.<.&.,.,.$.$.I n v 1.5.6.<.Y K D ",
"O.*.%.O.X.E I U U D L P P L Y U N S X.w.G.|._.3.f.",
"p.g.j.s.5.%.$.+.X.E T E E I R P W Q. XOX].Y.f.+.X.",
"[.K.p.a.D.M.6.O.! o.| J F  .{ U ~ Y.z.5.&.E E X.X.",
"OXOXOXA.R p.F.l.5.H 8 < , < V | W R Q E $.X.*.} X.",
" XOXOX}.z.k.7.S.t.8 & % # * O F &.O.&.$.$.-.} u.Y.",
"OXOXOX XD.OXK.y._ , u 6 , @ o j 5.&.1.=.$.=.D.OXOX",
"OXOXOX].L.OXOXW.l i C ( z r $ ; E 1.1.1.1.G.OXOXOX",
"OXOXOX XL.OXOXOXT B >.) ` y p = A 3.4.2.h. XOXoXOX",
"OXOXOX XL.OXOXOX0.:.R.n.v.c ^ e o.8.5.5.~.OXOXOXOX",
"OXOXOXOXL.OXOX XW.9.E.B.@.x ' ..e.5.q.u. XOXOXOXOX",
"OX XOXOXP.OXOXOXL.Z c.b.] / C Q 6.y.5.d.OXOXOXOXOX",
"OXOXOXOXL.OXXXQ.u ; c.Z.>.^ +   w 4.w.N.OXOXOXOXOX",
"/.!.(.OXz.'.OXh.i 4 m.C.;.k o . . %.w.D.OXOXOXOXOX",
"`.).^.OXG.|.OXJ.m 7 V r.#.x 6 - b a.d.V.OXOXOXOXOX",
"|.).(.OXG. XH.X.d s 7 4 < t 1 : > v W A.OXL.Y.{. X",
"T.U..XOXx.U h g g q 0 5 > > % : $ # X *. XP 7.OXoX",
"F.I.OX}.U 0 a b f q 0 2 % > > 5 , 2 4 0 _.M p.OX.X",
"U.U..XT.s 9 q 0 a 0 0 2 % > 3 9 5 5 > # M.M i.OX{."
};
