/* XPM */
static const char *micro_lopapon[] = {
/* columns rows colors chars-per-pixel */
"25 19 203 2 ",
"   c #0D0D0B",
".  c #141312",
"X  c #191614",
"o  c #1B1816",
"O  c #191718",
"+  c #1B1A1C",
"@  c #221F1C",
"#  c #2B1E15",
"$  c #1E2118",
"%  c #2C2419",
"&  c #231E24",
"*  c #292622",
"=  c #332B23",
"-  c #3C2E28",
";  c #3C332C",
":  c #3D3630",
">  c #3D3932",
",  c #373638",
"<  c #423A2F",
"1  c #43342A",
"2  c #443B33",
"3  c #4C3A31",
"4  c #453636",
"5  c #4B4137",
"6  c #46423C",
"7  c #4B423B",
"8  c #54453A",
"9  c #584736",
"0  c #4A4C4E",
"q  c #4A4746",
"w  c #564A42",
"e  c #574947",
"r  c #5D5146",
"t  c #5E554E",
"y  c #5D5651",
"u  c #585557",
"i  c #6B524E",
"p  c #6A5A4B",
"a  c #7A5A4F",
"s  c #615751",
"d  c #655C54",
"f  c #685F50",
"g  c #6C615D",
"h  c #7A6255",
"j  c #73695F",
"k  c #716154",
"l  c #605F64",
"z  c #5E6265",
"x  c #646263",
"c  c #696668",
"v  c #776D63",
"b  c #7B6D64",
"n  c #7B6D6C",
"m  c #6F726B",
"M  c #7E7163",
"N  c #7E746B",
"B  c #74706D",
"V  c #786D73",
"C  c #75767B",
"Z  c #7B7A7E",
"A  c #737476",
"S  c #866C5A",
"D  c #826E65",
"F  c #83756B",
"G  c #8C7668",
"H  c #977968",
"J  c #857D72",
"K  c #927F70",
"L  c #96816E",
"P  c #85847F",
"I  c #958473",
"U  c #988670",
"Y  c #948779",
"T  c #9D8B7C",
"R  c #95887C",
"E  c #9F957A",
"W  c #A1806D",
"Q  c #A18D7D",
"!  c #BA8C7C",
"~  c #A09076",
"^  c #A4917A",
"/  c #AA967D",
"(  c #797D80",
")  c #807F85",
"_  c #838384",
"`  c #86858A",
"'  c #8C898C",
"]  c #8F8387",
"[  c #938D8C",
"{  c #9F9885",
"}  c #8C8B93",
"|  c #918C90",
" . c #949194",
".. c #9C9592",
"X. c #99979C",
"o. c #9F9B9B",
"O. c #96989E",
"+. c #A68D84",
"@. c #A99486",
"#. c #AB9C84",
"$. c #A69688",
"%. c #B99885",
"&. c #AF9F92",
"*. c #A29D9C",
"=. c #A59890",
"-. c #AEA28D",
";. c #BFAA8F",
":. c #B8A58E",
">. c #AAA297",
",. c #B2A493",
"<. c #B8A898",
"1. c #B6A898",
"2. c #BDB09C",
"3. c #9E9DA2",
"4. c #A49EA0",
"5. c #A9A4A5",
"6. c #AAA7AB",
"7. c #ADA9AD",
"8. c #B4ABA5",
"9. c #BDAEA3",
"0. c #B2ACAB",
"q. c #A6B0AF",
"w. c #BCB2A4",
"e. c #BBB2AC",
"r. c #B5B5AB",
"t. c #AEAEB2",
"y. c #B0AEB1",
"u. c #ACB0BC",
"i. c #BCB5B2",
"p. c #B7B7B9",
"a. c #BDBABD",
"s. c #BEB3B9",
"d. c #C2AA8E",
"f. c #C4AE95",
"g. c #D1AB9E",
"h. c #C6B195",
"j. c #CCB393",
"k. c #C5B39B",
"l. c #CCB49B",
"z. c #D4BB9C",
"x. c #C5AFA1",
"c. c #C5B5A4",
"v. c #CBB4A2",
"b. c #CEBEAA",
"n. c #C7BBA9",
"m. c #D0B8A0",
"M. c #D1BBAD",
"N. c #C5BCB4",
"B. c #C3BDB8",
"V. c #CCBFB6",
"C. c #D7C2A3",
"Z. c #DEC7A7",
"A. c #C4C1BC",
"S. c #CDC7BC",
"D. c #D8C6B0",
"F. c #D7C7BA",
"G. c #D7CBBF",
"H. c #D9C9B0",
"J. c #D6D1BE",
"K. c #E6C0B3",
"L. c #E3D1BD",
"P. c #B9B5C3",
"I. c #C4BDC1",
"U. c #C3C3C4",
"Y. c #CDCAC3",
"T. c #CFC5C3",
"R. c #D1CDC7",
"E. c #D8CFC6",
"W. c #D3CDCB",
"Q. c #DCD2C3",
"!. c #DFDBCF",
"~. c #DBD3CB",
"^. c #DED9D3",
"/. c #D7D7D2",
"(. c #E6DCCD",
"). c #E2D5CF",
"_. c #E6DFD7",
"`. c #E6DDD6",
"'. c #DCE2D6",
"]. c #EAE4CE",
"[. c #EDE2D3",
"{. c #E4E2DC",
"}. c #EDE5DD",
"|. c #F2EBDE",
" X c #F5E5D8",
".X c #FEF1DE",
"XX c #E6E5E2",
"oX c #EAE5E4",
"OX c #EEEAE3",
"+X c #EAEAEA",
"@X c #E8E6E9",
"#X c #F3EBE1",
"$X c #F3ECEB",
"%X c #FAEEEE",
"&X c #EEF1E8",
"*X c #F9F4EF",
"=X c #F8F7ED",
"-X c #F4F3F3",
";X c #FBF5F3",
":X c #F7F8F2",
">X c #FFFDF5",
",X c #F9F7F8",
"<X c #FEFEFE",
/* pixels */
"r 5 w : > > ; 2 9 #.p X & : = $ d j j 5 = ; : > 2 ",
"I k 8 F Y T R R ,.#.p ; > 2 ; 6 6 7 s d t y y y t ",
"[.F.K S I I I Q +.@.T N v b n V N j v F F N N N F ",
">X(.$.k.D.b.c.#.^ / ~ #.E #.^ Q @.@.Q Q T T T T Q ",
"S.b.v.h.h.C.l.f.k.b.1.I U k.h.j.h.l.l.l.l.l.l.l.l.",
".XL.m.l.z.Z.C.j. X).e 3 i i x.f.l.l.h.f.d.f.f.;.:.",
"|.Q.c.b.b.H.f.l.b.M 1 H v.- M :.1.2.<.-.<.,.#.c.N.",
"-X^.oX;XOX!.}.N.T 8 3 %.G r = 1.}._.N.N.#XE.8.}.<X",
"&X|.>X:X-X].<X'.R 1 +.g.H L < ^.$X{.i.B.OXY.R.;X<X",
"XX#X$X@X<X(.;X&X/.D K.%.h h 3 Y.OX_.B.B.A.B.i.A.,X",
"-X^.*X-X-X].$X:X<XJ S ! a 2 2 V.R.W.8.8.e.*.[ o.@X",
"XX_.#X@X*X[.%X{.<Xe.S W 9 r s ^.OX^.i.>.5.5.| 5.-X",
"S.~.Q.W.>Xc.}.A.+X..b M.G G = 0 A.W...*.0.*.' 7.+X",
">.w.-.[ J.-.8.r.T.m = $.Q # X , ` o.q : x u u x y.",
"j &.2...{ -.i.Y.U.I.0._ B ]  .q.t.p.` O . + + . c ",
"w 9.#.s.w.=.W.U.P.a.A.o.} u.O. .O.3.l . . . O   x ",
"F V.f 9.`.g *.6.0.I.U.X.` t. .) ( A + X X X . . x ",
"#XG.5 w.=.; 4 _ 0.a.p.' Z t.3.X.C , . * X o o X q ",
"N.b % < * ; . 0 4.7.6.Z c 3.` C z + . * @ @ @ + e "
};
