/* XPM */
static const char *micro_lgerard[] = {
/* columns rows colors chars-per-pixel */
"25 19 189 2 ",
"   c #040306",
".  c #07070B",
"X  c #14130E",
"o  c #060E10",
"O  c #0E1212",
"+  c #1A1214",
"@  c #181D17",
"#  c #1A191A",
"$  c #340B13",
"%  c #201D18",
"&  c #341C18",
"*  c #21211E",
"=  c #2B241E",
"-  c #201E21",
";  c #1F2825",
":  c #252423",
">  c #2B2A2A",
",  c #2C2721",
"<  c #32312F",
"1  c #312F30",
"2  c #363433",
"3  c #393532",
"4  c #400A17",
"5  c #4C0D1A",
"6  c #42111E",
"7  c #4D1321",
"8  c #481E22",
"9  c #551626",
"0  c #5C1526",
"q  c #521D2D",
"w  c #591E2C",
"e  c #631C2D",
"r  c #691C2E",
"t  c #6D1D32",
"y  c #771732",
"u  c #721D33",
"i  c #452228",
"p  c #5F2031",
"a  c #433A38",
"s  c #5A3539",
"d  c #602132",
"f  c #6E2335",
"g  c #692936",
"h  c #732135",
"j  c #7B243A",
"k  c #77293B",
"l  c #673A3D",
"z  c #3D423C",
"x  c #4C443E",
"c  c #45403C",
"v  c #51483F",
"b  c #56433F",
"n  c #433E45",
"m  c #773847",
"M  c #464440",
"N  c #4C4643",
"B  c #4E4944",
"V  c #524A43",
"C  c #524D49",
"Z  c #584F48",
"A  c #5D4C44",
"S  c #505046",
"D  c #5B524B",
"F  c #58584B",
"G  c #5A5554",
"H  c #5F5852",
"J  c #5B565D",
"K  c #604844",
"L  c #634545",
"P  c #76474C",
"I  c #63564B",
"U  c #645A4D",
"Y  c #6D5D4E",
"T  c #605952",
"R  c #6B5C52",
"E  c #6A5751",
"W  c #725E57",
"Q  c #7E5857",
"!  c #7C5A5B",
"~  c #6D6156",
"^  c #6D635A",
"/  c #6F6C5B",
"(  c #726357",
")  c #7B6557",
"_  c #72655B",
"`  c #76695B",
"'  c #796B5D",
"]  c #5D5E62",
"[  c #775D66",
"{  c #736B61",
"}  c #7C6D62",
"|  c #746D68",
" . c #7A736B",
".. c #7C7574",
"X. c #82243C",
"o. c #856860",
"O. c #85686A",
"+. c #847264",
"@. c #8C7C6D",
"#. c #86786D",
"$. c #95726C",
"%. c #976D77",
"&. c #857D73",
"*. c #8D7C72",
"=. c #807674",
"-. c #907073",
";. c #917F73",
":. c #A07D7B",
">. c #8D837B",
",. c #868379",
"<. c #93857A",
"1. c #807A81",
"2. c #837781",
"3. c #AD7E88",
"4. c #828283",
"5. c #88888C",
"6. c #998B84",
"7. c #99938D",
"8. c #8B8F92",
"9. c #958494",
"0. c #98979D",
"q. c #969B96",
"w. c #AF858F",
"e. c #A38D8A",
"r. c #A3948F",
"t. c #A39B93",
"y. c #A39E9A",
"u. c #B29B98",
"i. c #ABA39C",
"p. c #A7A399",
"a. c #BEA69C",
"s. c #9E9DA3",
"d. c #9EA2AB",
"f. c #A2A7A0",
"g. c #A7A9A4",
"h. c #A9A5A5",
"j. c #B4A4A2",
"k. c #B2ABA3",
"l. c #B5AFAA",
"z. c #B5A6A9",
"x. c #AAB5AF",
"c. c #BDB6AD",
"v. c #B4B1A9",
"b. c #A6A9B0",
"n. c #B0AFB4",
"m. c #B5BCBD",
"M. c #B7B6B8",
"N. c #C3B7AE",
"B. c #C9B4AA",
"V. c #C4BDB5",
"C. c #C3BFB8",
"Z. c #CBBCB7",
"A. c #C4C1BC",
"S. c #C9C2B2",
"D. c #D2C5B7",
"F. c #BCBCC3",
"G. c #CCBEC4",
"H. c #B8C0C2",
"J. c #CFC7C4",
"K. c #C7CACF",
"L. c #CECBCC",
"P. c #C9C5C8",
"I. c #D6CFC9",
"U. c #D1C9C6",
"Y. c #D7D3CC",
"T. c #D5D5D3",
"R. c #DBD3D2",
"E. c #DCDCDB",
"W. c #D5D8D9",
"Q. c #E6DCDA",
"!. c #D7E1D9",
"~. c #E4E1DD",
"^. c #E5E2D3",
"/. c #DDE9E5",
"(. c #ECE7E5",
"). c #E2EAE4",
"_. c #ECEBEB",
"`. c #F2F2ED",
"'. c #EEFCFC",
"]. c #F4F3F3",
"[. c #F5FAF6",
"{. c #FDFAF6",
"}. c #F6FFFD",
"|. c #FAFFFA",
" X c #FFFEFA",
".X c #FFFFFD",
"XX c #FFFEFF",
"oX c #FCFCFB",
"OX c #FFF2F5",
/* pixels */
"D Z V V ^ { C = : * * # : > : > < 3 < 2 1 2 > < 3 ",
"D x a V T D H V N c C B M M N M N G B N N M C C G ",
"i.7.&._ D V D V V v V B B Z B x B N D x x V x N V ",
"R } *.( ~ I I R ( ~ ~ ^ _ ^ ~ ` _ _ ~ _ ~ _ _ _ ~ ",
"+.+.) ` +.D.B.#._ ' ' _ U ( ' ` ' ' _ ' ` ( ` _ ( ",
"Y @.@.` ' p.D.6.~ ~ R E +.( R ~ R ~ R U ~ ~ U R ~ ",
"N.t.U &.>. .T a | >.W a.B.u._ l.i.i.t.k.&.t.I.k.~ ",
"{.C.p.{.A.L.7.> M.U.*.o.) W | ~.T.[._.`.g.T..XoXS.",
"}.v.c..XoXA...z q.Z.:.$.+.} _ j.x.(.E.E.C.~..X`.Q.",
".Xg.V.[.}.].=.: q.|.e.Q A E O.R.z._.T.R.y.m.|.OX^.",
".XA.k..X'.[.l.> G..XJ.L ! V f.(.h.).P.G.8.q.]._.Y.",
"|.c.N..X]..XP.2 !.[.R.{ S b -.Q.g./.m.M.5.0._.E.F.",
").<.{ A.Q.~.M.s w.3.m P K s f m %.G.H.F.9.b.W.L.F.",
"C.;./ p.l.c.e.m j f e 5 l & 8 r y m [ ] n J M.P.s.",
"6.,.F ..,.j.P h j k u h 8 w u f u y d + ; + 2.K.4.",
"r.F U u.G 6.g u k k j t f u u t g 0 r i @ O 1.F.b.",
"6.% 4.5.: m e e X.j h u u h h f e 5 w 6 o   1.W.d.",
"^ X : + * 9 9 9 u h h u h f t e w 4 7 q O   ..E.n.",
", *   - 3 p 5 7 0 e r t t r 0 7 6 $ 6 q # . a H G "
};
