/* XPM */
static const char *micro_cgregoir[] = {
/* columns rows colors chars-per-pixel */
"25 19 202 2 ",
"   c #050303",
".  c #0B0500",
"X  c #0A0A06",
"o  c #0A0B0B",
"O  c #07080C",
"+  c #1A0C09",
"@  c #13110D",
"#  c #1D120C",
"$  c #0B0B13",
"%  c #0F1110",
"&  c #161612",
"*  c #191512",
"=  c #1A1915",
"-  c #1C1A1B",
";  c #251E1A",
":  c #251A12",
">  c #25201D",
",  c #38280E",
"<  c #1F1D20",
"1  c #211F20",
"2  c #2B2522",
"3  c #2C2B2A",
"4  c #342B25",
"5  c #332D29",
"6  c #392F25",
"7  c #3B3129",
"8  c #393531",
"9  c #3D3933",
"0  c #3D3D3F",
"q  c #6F3C1F",
"w  c #422A26",
"e  c #523B2B",
"r  c #443C35",
"t  c #413C3D",
"y  c #483A34",
"u  c #6A3F2E",
"i  c #534224",
"p  c #4B4037",
"a  c #4D423A",
"s  c #57493E",
"d  c #724C35",
"f  c #4A4A4C",
"g  c #554A43",
"h  c #5D4E44",
"j  c #4F514E",
"k  c #5D5246",
"l  c #5E5449",
"z  c #4E4C51",
"x  c #525053",
"c  c #644E42",
"v  c #62554B",
"b  c #6C5B4D",
"n  c #685549",
"m  c #725C4D",
"M  c #765947",
"N  c #655A50",
"B  c #6C5E52",
"V  c #645C5C",
"C  c #755D50",
"Z  c #7C6444",
"A  c #6E6054",
"S  c #6B6858",
"D  c #736255",
"F  c #75655A",
"G  c #78645B",
"H  c #7E6B5C",
"J  c #786B58",
"K  c #605F65",
"L  c #6C6768",
"P  c #7E6D64",
"I  c #706C6D",
"U  c #777466",
"Y  c #79746A",
"T  c #716C70",
"R  c #797475",
"E  c #81401A",
"W  c #824B24",
"Q  c #8E592F",
"!  c #8A5635",
"~  c #9A653B",
"^  c #976133",
"/  c #A26C3D",
"(  c #AD6C3B",
")  c #A66235",
"_  c #B16E3E",
"`  c #BC713A",
"'  c #C1763F",
"]  c #836C5D",
"[  c #92655F",
"{  c #9C7854",
"}  c #8B6A49",
"|  c #A46744",
" . c #A76F40",
".. c #B57242",
"X. c #BA7C45",
"o. c #BA7C49",
"O. c #816F60",
"+. c #837263",
"@. c #8A7363",
"#. c #80756A",
"$. c #82796D",
"%. c #8A796C",
"&. c #87796A",
"*. c #947266",
"=. c #927C64",
"-. c #897C74",
";. c #997B71",
":. c #7E807B",
">. c #D0893B",
",. c #BF8144",
"<. c #8F806D",
"1. c #898277",
"2. c #9E8173",
"3. c #968A7A",
"4. c #AA806A",
"5. c #BC9164",
"6. c #A18C7D",
"7. c #A88E7F",
"8. c #B68974",
"9. c #A3917D",
"0. c #C2844A",
"q. c #C5884E",
"w. c #CC8B4E",
"e. c #D48947",
"r. c #D5924E",
"t. c #C98C52",
"y. c #C68855",
"u. c #D69455",
"i. c #DC9B55",
"p. c #D89753",
"a. c #DAA057",
"s. c #E4A65D",
"d. c #C4996F",
"f. c #C19674",
"g. c #D9A367",
"h. c #797888",
"j. c #848387",
"k. c #8B8383",
"l. c #8A8B86",
"z. c #958B86",
"x. c #9C9085",
"c. c #93918C",
"v. c #9C918E",
"b. c #868290",
"n. c #9A9292",
"m. c #9F9890",
"M. c #978A9B",
"N. c #A49987",
"B. c #A69487",
"V. c #B49784",
"C. c #A39993",
"Z. c #A29C99",
"A. c #A89991",
"S. c #ADA295",
"D. c #AEA79F",
"F. c #B4A79A",
"G. c #AE9FA4",
"H. c #A8A5A2",
"J. c #B4ADA4",
"K. c #B4AAA7",
"L. c #AFB4A0",
"P. c #BEBAA7",
"I. c #BBBAAA",
"U. c #BCB2B1",
"Y. c #C2968D",
"T. c #D3AD9A",
"R. c #D3B29F",
"E. c #C4B5AA",
"W. c #C9B7A8",
"Q. c #C3BCB3",
"!. c #C9BCB3",
"~. c #C3B5B4",
"^. c #D1C2AF",
"/. c #C7C2B6",
"(. c #C6C1BA",
"). c #DCCDBD",
"_. c #D2D4BF",
"`. c #E7C8B4",
"'. c #BEBFC1",
"]. c #C6C4C3",
"[. c #CDCFC3",
"{. c #C7C6C8",
"}. c #D6CDC8",
"|. c #D9D2CC",
" X c #DDDACE",
".X c #D9D3C7",
"XX c #CED2D1",
"oX c #D5D6D2",
"OX c #D9D8D7",
"+X c #E7DBCD",
"@X c #E7DDD2",
"#X c #E9DFD9",
"$X c #DEE0D2",
"%X c #E7E2D9",
"&X c #ECE3D9",
"*X c #EBE5D7",
"=X c #F4E8DC",
"-X c #ECE7E5",
";X c #FFF4EA",
":X c #F9F3E7",
">X c white",
",X c #F7F4F2",
/* pixels */
"4 : ; 5 8 8 6 7 y N 6 . @ o % o = ; 4 > @ & * + * ",
"$.v 7 9 a a g k B N r 4 2 2 5 5 5 2 5 r 9 9 9 r r ",
"&XJ.l k +.D k k c v h a a g a p a s a a p a r y a ",
"#XD.b +.%.6.+.F n v N A F B D D D F B F D A A F D ",
"x.%.+.@.] @.] J A.!.3.G D H +.H H O.H O.H H H G H ",
";XE.F J J 6.H H S.*XE.@.7.] D J D b D D b C D B N ",
"/.C.N.E.S.B.x.P U D @.`.R.B.B k v.C.-.#.S.-.B D.}.",
"=X.X=X:X&XP.@XS.1.-.B.T.V.2.P K.|.(.Z.m.}.K.c.OX>X",
"].+XOX[.;XP.-X_.I.#.;.*.=.M ] /.oX[.z.C.G.n.n.'.-X",
"@X).&X*X=X!.-X#X,XV.8.Y.%.@.C v.!.U.n.c.v.k.L U ].",
" XP.oX X+XW.oX-X,X^.8.[ w h D K.E.~.n.R k.R I Y XX",
"J..XXX].;XF.$XL.%XI.D *.m s #.(.|./.k.j.j.R L b.XX",
"k.A.v.c.).P J.1.Q.N.M 2.m e c 3.l.:.j f T L z h.{.",
"V F S S &.Y k.G N.f.| 4.n u ! } $.t $ o * & - = K ",
"3 #.J c.U V <.{ d.t.` | d q E / 5.M + @ X o X   0 ",
"8 P s M.Z.y { s.e.a.,.) W Q  .0.>.g.Z   $ O X   j ",
"-.9.2 3.H., p.o.i.i.u...( 0.q.y.w./ ~ # O O o X t ",
"~.%.= v 3 i e.o.i.p.w._ _ q.0.o.X.^ ~ : o O O   1 ",
"V 4 X . O Z ' ( p.r.0.( ..t.X.( ( Q ~ 6 - - < - x "
};
