/* XPM */
static const char *micro_rmichel_[] = {
/* columns rows colors chars-per-pixel */
"25 19 211 2 ",
"   c #2B2517",
".  c #222921",
"X  c #352D22",
"o  c #3A332B",
"O  c #3A3732",
"+  c #681D32",
"@  c #41392E",
"#  c #4E483D",
"$  c #54483A",
"%  c #53573C",
"&  c #604F3B",
"*  c #714C3A",
"=  c #7A543F",
"-  c #484245",
";  c #544C44",
":  c #554641",
">  c #45504C",
",  c #5E4950",
"<  c #465252",
"1  c #5F5B5A",
"2  c #585751",
"3  c #5D5445",
"4  c #624E47",
"5  c #63594E",
"6  c #6C5445",
"7  c #79564F",
"8  c #675B55",
"9  c #5F6C5A",
"0  c #566642",
"q  c #6C6849",
"w  c #776657",
"e  c #7C7D55",
"r  c #717153",
"t  c #596563",
"y  c #4A6866",
"u  c #6B6B64",
"i  c #6F626C",
"p  c #776965",
"a  c #6E756D",
"s  c #77776D",
"d  c #79766C",
"f  c #626D71",
"g  c #716E75",
"h  c #6B7E74",
"j  c #69787C",
"k  c #7B7B7A",
"l  c #777876",
"z  c #950923",
"x  c #8B3F5D",
"c  c #855A4C",
"v  c #8B5F53",
"b  c #A64358",
"n  c #83665A",
"m  c #946455",
"M  c #9E6B5A",
"N  c #817C5C",
"B  c #87644E",
"V  c #A35F6E",
"C  c #8E6E61",
"Z  c #996D60",
"A  c #897669",
"S  c #997769",
"D  c #857B7C",
"F  c #A17D6D",
"G  c #78867A",
"H  c #DBB83A",
"J  c #978669",
"K  c #8A916F",
"L  c #89867A",
"P  c #95897C",
"I  c #9A977A",
"U  c #A48D75",
"Y  c #A78675",
"T  c #A0957F",
"R  c #BE8B78",
"E  c #CEB676",
"W  c #DADC7B",
"Q  c #7C7D83",
"!  c #777C88",
"~  c #897C8D",
"^  c #C54F83",
"/  c #E05F85",
"(  c #DA7180",
")  c #51928C",
"_  c #5A9F9C",
"`  c #568E8B",
"'  c #7A8585",
"]  c #7E9A9B",
"[  c #758890",
"{  c #7AB8A9",
"}  c #838384",
"|  c #8E8E85",
" . c #888989",
".. c #968E83",
"X. c #968D8B",
"o. c #9C8E8A",
"O. c #94948C",
"+. c #979787",
"@. c #8D8E95",
"#. c #898E95",
"$. c #8A9599",
"%. c #959491",
"&. c #9E9B9D",
"*. c #959799",
"=. c #8E9392",
"-. c #AD9389",
";. c #A59587",
":. c #B3978B",
">. c #A49793",
",. c #A39B9B",
"<. c #B68B82",
"1. c #9EAE8A",
"2. c #9DA79D",
"3. c #98A99F",
"4. c #AEAE8F",
"5. c #A4A584",
"6. c #B7AD8B",
"7. c #B9AD83",
"8. c #BAB28E",
"9. c #A1A299",
"0. c #A7A096",
"q. c #BCAA93",
"w. c #B9A396",
"e. c #ADB59A",
"r. c #B7B999",
"t. c #8D98A5",
"y. c #9495A1",
"u. c #959BA5",
"i. c #979DAA",
"p. c #9B9BA6",
"a. c #9AA2AC",
"s. c #9FAEAB",
"d. c #99B9A6",
"f. c #8CADB2",
"g. c #9BA4B3",
"h. c #9CA4B9",
"j. c #99ABB8",
"k. c #9DB4B9",
"l. c #84A1A5",
"z. c #A3A5AC",
"x. c #A6A8A5",
"c. c #B2A8A7",
"v. c #B5B6A9",
"b. c #A3AAB5",
"n. c #A2ABBA",
"m. c #A9AABC",
"M. c #A9B5BC",
"N. c #B4B5B5",
"B. c #E38597",
"V. c #C1A996",
"C. c #C9B299",
"Z. c #E7B590",
"A. c #C2A1AA",
"S. c #D4BFAE",
"D. c #CEA9B1",
"F. c #C4BFB9",
"G. c #E2B3AB",
"H. c #85CB8D",
"J. c #A5CA94",
"K. c #88C1AE",
"L. c #AACFA4",
"P. c #A9C8BB",
"I. c #B8C5B3",
"U. c #CCC489",
"Y. c #C0C8B0",
"T. c #D3C8BB",
"R. c #CEDAB2",
"E. c #E0E1B7",
"W. c #9EAEC2",
"Q. c #9DAECC",
"!. c #8BB7C2",
"~. c #A2ACC2",
"^. c #A8B7CA",
"/. c #B9BDC3",
"(. c #A4BCD2",
"). c #CDA6C3",
"_. c #95C5C9",
"`. c #BBC4C3",
"'. c #BFCAC7",
"]. c #BECCCF",
"[. c #B4C7D6",
"{. c #8AD9E0",
"}. c #C2C7C3",
"|. c #C8CAC6",
" X c #C7D6CA",
".X c #D4D0C4",
"XX c #CDCFD2",
"oX c #CAC0D8",
"OX c #CCD2D4",
"+X c #CED3D9",
"@X c #CDDBDB",
"#X c #D4DCDD",
"$X c #DCDCDE",
"%X c #E6D3CA",
"&X c #D2E2C9",
"*X c #D6ECD9",
"=X c #C4D1E1",
"-X c #D3D7E0",
";X c #D4DBE2",
":X c #DADCE8",
">X c #E3DFE0",
",X c #DAE3E4",
"<X c #D7E5E7",
"1X c #DEEBF1",
"2X c #EEEEEC",
"3X c #F6F4ED",
"4X c #E0EFF4",
"5X c #ECF2F0",
"6X c #FAFCF4",
"7X c #FEFDFD",
"8X c #F8F9F6",
/* pixels */
"+XOXXXOX-X-XOXOX XXX|.`.'.'.}.>X8X3X6X3X7X7X8X7X7X",
"OX+X:X-X#X,XOX-X@X@X;X1X4X<X<X;X5X6X6X7X7X7X7X7X7X",
"P O.*.x.}.|.`.OX@X@X<X`.$.M.#X,X#X2X7X8X7X7X7X6X3X",
"5 # @ # 2 u u l &.O.| ; o : X.9.*.N.c.x.x.9.O. .P ",
"w P o.P ;.A o.o.L ..$ n S :.:.I ..' } p s 9 # - - ",
"C.C.w.V.6.J L O.c.T.w S Z S n S..Xs.x.T 4.E.7.;.U ",
"U S A & q e % s XX%XS m m <.C %X3X].| N I U.U.8.q.",
"O ; ; X 3 5 8 D N.8 * R M v F Y d /.X.q 0 e J u p ",
". o 6 + , 9 : d F.<   B v m c O ! t.g X.P K p > 2 ",
"1 1 ; z 7 j t P Z.A A 6 4 n n &.t.l.a G k ,.v.O.L ",
"#.k s P +.G b B.T./.|.-.7 = V.$XP.N.%.G 0.,.q.} 2.",
"] s k x.v.+.( ).^.^.m.>.-.-.c.=X[.oXG.6.x.%XA.h G ",
"' p i ,.V / D.j.h.^.n.b.p.p.b.(.^.h.k.{._ _.!.) ' ",
"t 2.|.O.x ^ a.y.~.W.h.n.m.m.M.k.(.Q.$.e.W e.r.K 5.",
"y +.Y.*.` *.@.u.m.m.n.M.n.b.~.~.h.k.t.%.H E v.e I ",
"t O.e.M.f.O.k y.h.~.~.~.b.b.n.~.W.g.! [ =.d.s.a h ",
"*Xr.e.L.I.#.f Q b.z.a.i.g.g.a.a.n.g.j ~ [ { K.2.k ",
" X1.4.R.&X>.u G p.@.@.@.u.i.*.#.y.g.j ! #. XP.d.3.",
"+.5.r.J.H.J v d %. . .@.y.u.*. .} Q t ' N.2X&X*X X"
};
