/* XPM */
static const char *micro_lpla[] = {
/* columns rows colors chars-per-pixel */
"25 19 183 2 ",
"   c #0C0B06",
".  c #130F06",
"X  c #1D160B",
"o  c #161813",
"O  c #1D1B1A",
"+  c #391600",
"@  c #3B1D08",
"#  c #251C15",
"$  c #22221C",
"%  c #28241E",
"&  c #362114",
"*  c #3F2210",
"=  c #392A18",
"-  c #192221",
";  c #252624",
":  c #2C2A23",
">  c #2C2C2B",
",  c #332D24",
"<  c #322F29",
"1  c #353127",
"2  c #3C3221",
"3  c #34322C",
"4  c #39352A",
"5  c #3F3A2C",
"6  c #2D3130",
"7  c #3A3831",
"8  c #343839",
"9  c #3E3F3A",
"0  c #471D0F",
"q  c #4F2E1D",
"w  c #512C1A",
"e  c #5C3718",
"r  c #4B2F24",
"t  c #443B2A",
"y  c #4E3E2F",
"u  c #433728",
"i  c #573829",
"p  c #4B3C33",
"a  c #463C35",
"s  c #523B32",
"d  c #613B28",
"f  c #683B24",
"g  c #4E412E",
"h  c #52472B",
"j  c #46443E",
"k  c #4B443B",
"l  c #4F4A36",
"z  c #564A3B",
"x  c #564937",
"c  c #6A4329",
"v  c #6B4427",
"b  c #734523",
"n  c #6C4933",
"m  c #784F39",
"M  c #7B4D33",
"N  c #454540",
"B  c #484540",
"V  c #4D4A43",
"C  c #524C44",
"Z  c #5A554B",
"A  c #56534C",
"S  c #5D5854",
"D  c #65564B",
"F  c #625A4F",
"G  c #7D5345",
"H  c #625C53",
"J  c #6F5F50",
"K  c #6A6555",
"L  c #6E655D",
"P  c #686868",
"I  c #676567",
"U  c #736C63",
"Y  c #736E68",
"T  c #77726E",
"R  c #7E7469",
"E  c #7C7772",
"W  c #7E7974",
"Q  c #804F27",
"!  c #844F2F",
"~  c #97512D",
"^  c #884F3C",
"/  c #805334",
"(  c #875639",
")  c #975C3E",
"_  c #88603D",
"`  c #93633B",
"'  c #B16F3F",
"]  c #855947",
"[  c #925C42",
"{  c #8B6244",
"}  c #936148",
"|  c #846B5B",
" . c #98765E",
".. c #A2694B",
"X. c #A0724E",
"o. c #B3754C",
"O. c #BD794C",
"+. c #A97850",
"@. c #916C61",
"#. c #8F7467",
"$. c #8F7A67",
"%. c #80786D",
"&. c #837D75",
"*. c #907971",
"=. c #A87C61",
"-. c #B47F60",
";. c #AB7C72",
":. c #8F8377",
">. c #85817C",
",. c #8B847C",
"<. c #89867B",
"1. c #99877D",
"2. c #A2807E",
"3. c #878681",
"4. c #8C8781",
"5. c #8D8985",
"6. c #878789",
"7. c #928B85",
"8. c #998C83",
"9. c #948E89",
"0. c #95918C",
"q. c #9C948D",
"w. c #999591",
"e. c #9C9995",
"r. c #A1978D",
"t. c #A9978D",
"y. c #A2988F",
"u. c #A39386",
"i. c #A49B94",
"p. c #A99F96",
"a. c #A39E99",
"s. c #A89F98",
"d. c #A4A19C",
"f. c #AAA39D",
"g. c #B5A89F",
"h. c #9E9FA1",
"j. c #A7A3A0",
"k. c #A9A6A1",
"l. c #AEACA7",
"z. c #A5A6A8",
"x. c #B4ABA3",
"c. c #B3AFAB",
"v. c #BFB8AE",
"b. c #B7B1A3",
"n. c #AFAFB1",
"m. c #BEBBB3",
"M. c #BCBDB9",
"N. c #B4B4B5",
"B. c #C2B7AA",
"V. c #C9C0B7",
"C. c #C4C3BE",
"Z. c #CDC6BE",
"A. c #D2CABD",
"S. c #C1C3C2",
"D. c #CCC7C3",
"F. c #CECEC6",
"G. c #C2C7CA",
"H. c #D1CCC5",
"J. c #D8CFC6",
"K. c #DED9C6",
"L. c #D3D1CE",
"P. c #DFD7CC",
"I. c #C9CDD0",
"U. c #D3D5D3",
"Y. c #D5D9DD",
"T. c #DFDFDF",
"R. c #DAD9D5",
"E. c #EDDDCD",
"W. c #E1D9D6",
"Q. c #E9E4DC",
"!. c #E6E3DE",
"~. c #F2E8DF",
"^. c #F2E4D9",
"/. c #E7E7E6",
"(. c #E7E9EC",
"). c #EBECEA",
"_. c #E0E5EB",
"`. c #F2EEE5",
"'. c #F5F6F2",
"]. c #FCFAF4",
"[. c #F7FCFD",
"{. c #FDFEFD",
"}. c #F2F6F9",
/* pixels */
"g.C , , % $ O O O O O o <.E.^.{.R.N : a C C A 3.q.",
"i.9.7.>.Y I S V 9 6 ; P H.P.Q.U.Z 1 k k 3 : ; $ O ",
"w.e.e.a.s.a.d.i.<.U V E q.B.A.<.R %.U L &.7.3.3.>.",
"W E T W &.W &.&.6.H .   X = u.{.J.x.V.v.Z.m.C.D.H.",
"7.4.4.,.>.>.>.,.I & i & @ / c 1.m.7.0.q.,.,.,.,.>.",
"9.7.4.,.4.3.>.0.j n -.[ ) O.o.e 4.7.0.7.0.9.7.1.8.",
"0.9.7.5.5.5.>.7.L #. .] ^ ! X.{ ,.q.7.0.k.m.L.!.).",
"D.j.w.w.9.9.9.9.#.*.s d m + v +.:.r.x.C.{.{.{.{.{.",
"_.Y.n.w.y.q.q.e.@.=.] G ..b _ ' t.~.).S.[.{.{.{.{.",
"N.(.(.c.i.p.q.a.2.@.;.] ^ ~ o.} W.{.).M.].{.{.[.{.",
"h.I.}.T.f.a.i.a.a.| { f q e Q  .{.[.'.F.{.{.{.{.{.",
"/.z.[.[.S.f.f.i.l.8.i M / c * b.{.[.'.C.{.{.{.[.{.",
"{.S.Y.[./.l.s.x.U p s r i 0 w $.K `.'.M.{.[.{.{.{.",
"{.(.G.[.{.N.c.W $ X | s # @ ` e = D Q.C.[.[.{.{.{.",
"{.{.I.[.{.U.5.B 8 4 z | ] ( c k t 2 z x.{.{.{.{.{.",
"{.[.U.{.'.e.3 > > u j O p 3 - D 5 t y J B.].{.{.{.",
"{.{.T.C.V $ : : : : V % , < , H t x x h g R K.{.{.",
"{.{.L.N : 7 < < : : C 1 1 4 4 F u t x x g u K ].{.",
"{.{.d.9 7 3 3 < : % V 7 1 4 5 Z 2 t a t t p l k.N."
};
