/* XPM */
static const char *micro_romaurel[] = {
/* columns rows colors chars-per-pixel */
"25 25 180 2 ",
"   c #101012",
".  c #1F1C17",
"X  c #181A19",
"o  c #23211C",
"O  c #2D231C",
"+  c #2A2A1D",
"@  c #31221D",
"#  c #232324",
"$  c #282520",
"%  c #2B2B25",
"&  c #27282D",
"*  c #2C2C2C",
"=  c #332F2C",
"-  c #3B2E28",
";  c #33332C",
":  c #3A3229",
">  c #2E2E32",
",  c #2F3034",
"<  c #333333",
"1  c #3A3633",
"2  c #3C3B34",
"3  c #35363A",
"4  c #3E3E3B",
"5  c #402E2A",
"6  c #42352F",
"7  c #433630",
"8  c #443C35",
"9  c #493C36",
"0  c #443D3A",
"q  c #493F3A",
"w  c #45413D",
"e  c #4B433D",
"r  c #51443E",
"t  c #3E3E43",
"y  c #434243",
"u  c #4A4542",
"i  c #4D4845",
"p  c #444249",
"a  c #4B4A4B",
"s  c #544742",
"d  c #534A44",
"f  c #5A4D45",
"g  c #554E49",
"h  c #584F49",
"j  c #5D5047",
"k  c #5B524C",
"l  c #575B4C",
"z  c #4B4B50",
"x  c #4D5053",
"c  c #525154",
"v  c #5C5652",
"b  c #5F5A56",
"n  c #565559",
"m  c #595758",
"M  c #5C5B5C",
"N  c #61524C",
"B  c #655A52",
"V  c #6B5E56",
"C  c #5F6656",
"Z  c #6A6056",
"A  c #65625E",
"S  c #696059",
"D  c #646A5E",
"F  c #74655F",
"G  c #5D5D62",
"H  c #5E6161",
"J  c #6D6B65",
"K  c #69676A",
"L  c #67686C",
"P  c #6D6D6D",
"I  c #646666",
"U  c #746761",
"Y  c #726C64",
"T  c #706F6C",
"R  c #786F68",
"E  c #74726A",
"W  c #7C746C",
"Q  c #6E6D75",
"!  c #737476",
"~  c #7B7571",
"^  c #777B72",
"/  c #7C7A73",
"(  c #76757B",
")  c #787679",
"_  c #7B7B7B",
"`  c #897F79",
"'  c #827E77",
"]  c #84837E",
"[  c #8C837C",
"{  c #8C857B",
"}  c #7E7D83",
"|  c #858483",
" . c #8B8684",
".. c #868A84",
"X. c #8C8A84",
"o. c #838488",
"O. c #8C8B8B",
"+. c #878B8C",
"@. c #938B84",
"#. c #938D8A",
"$. c #8F918C",
"%. c #989085",
"&. c #92928D",
"*. c #9A938C",
"=. c #8D8C92",
"-. c #979795",
";. c #9B9B95",
":. c #9A9C9A",
">. c #95999A",
",. c #A09790",
"<. c #A39B95",
"1. c #A39D99",
"2. c #9FA09A",
"3. c #A4A29C",
"4. c #AAA39D",
"5. c #A0A998",
"6. c #AAAC9F",
"7. c #A7B09F",
"8. c #9D9CA1",
"9. c #A4A6A3",
"0. c #ACA6A3",
"q. c #A7A8A2",
"w. c #ABAAA5",
"e. c #A4A6AC",
"r. c #ADADAA",
"t. c #A7ABAC",
"y. c #B2ACA5",
"u. c #B4ADAA",
"i. c #AFB2AB",
"p. c #B3B2AD",
"a. c #BBB4AD",
"s. c #B9BAAD",
"d. c #B6B7A9",
"f. c #B5B4B2",
"g. c #BBB4B1",
"h. c #B7B8B3",
"j. c #BABBB4",
"k. c #B7B6BC",
"l. c #BCBDB9",
"z. c #C1BBAF",
"x. c #C1B7B1",
"c. c #C3BBB5",
"v. c #C4BEBA",
"b. c #C4C2B5",
"n. c #C2C3BE",
"m. c #CCC3BD",
"M. c #CAC8BC",
"N. c #D0C9BF",
"B. c #BABEC1",
"V. c #BFC0C4",
"C. c #C5C4C1",
"Z. c #CFC7C4",
"A. c #CDC9C0",
"S. c #C6C3CD",
"D. c #C9C8CD",
"F. c #D1CDC4",
"G. c #D5CEC8",
"H. c #D3D4C6",
"J. c #D6D4C8",
"K. c #DFD6CD",
"L. c #D6D8CA",
"P. c #DDD9CD",
"I. c #D1D3D2",
"U. c #DDD9D0",
"Y. c #E1DBCF",
"T. c #E6DCD5",
"R. c #DAE1D1",
"E. c #E5E1D5",
"W. c #ECE5DB",
"Q. c #E6E8DA",
"!. c #EEE7E4",
"~. c #F2EDE4",
"^. c #EDF1E2",
"/. c #F5F4EC",
"(. c #FBFDEF",
"). c #F3F4E6",
"_. c #EEEDF5",
"`. c #FDFFF2",
"'. c #FFFEF8",
"]. c #FAF9FF",
/* pixels */
"b v g 1 $ . o % o $ % % % % ; 1 = 1 1 ; = < 1 1 2 ",
"e d u ; % 1 2 1 1 2 2 2 2 1 2 4 u 1 1 w i u u i i ",
"0 i g i w w w 0 w w w w w w w w 2 0 0 0 2 1 0 u w ",
"d 8 1 w d w 0 e e w w e u u u e u k v e 0 d h i i ",
"d i w 8 q d f d f d d d h h h h d s e w d k k e f ",
"e *.a.[ h d k d k k h f d d h h k d k B k e e k s ",
"s ,.m.<.B e d f s s r q 9 9 e d 9 e s e s f s 9 s ",
"h e 9 e d s f k 8 9 9 7 : 6 e d ` [ R S <.T.c.S 9 ",
"R Y *.O 7 a.@.[ @.d 8 O N s @ U c.m.1.[ G.'.'.@.Y ",
"*.Y / 2 w [ *.x.T.s - r F s 5 9 x.y.1.1.Z.~.!.3.@.",
"J.{ F : d [ a.K.W.B f V F d f W <.3.1.~  ./.!.X.#.",
"/.b.3.+ 8 y.W.E.N.@.@.B V N B m.0.| | T A n.C.-. .",
"^.^.(.2 + H.`.~.Y.%.d.Z j B f m.;.| O.! m r.f.-.| ",
"R.R.`.l ; Q.).E.P.F z.@.f j V a.] ..o.H P I.I._ ) ",
"7.5.s.C 2 L.H.s.b.' b.4.B f { a.w.+.L H o.t.V.>.! ",
"I ^ ..D % 6.s.3.M.F.M.*.W B @.3.l.I.9.x x ! B.e.G ",
"H o.M P * ] 4.F.U.A.a.<.] / X.q.I.l.C...X < o.:.G ",
"z c ! a c | g.m.c.c.v.f.q.q.p.n.r.p.i.;.y # } } } ",
"a 3 } < M X.g.u.y.g.v.l.h.h.l.l.i.j.&.;.K   O.=.Q ",
"t 3 M * 1  .u.4.p.a.p.q.q.p.r.3.3.;.E O.O.# 8.f.( ",
"# * > * # ' g.1.y.0.1.;.q.f.r.;.;.] ^ -.3.* I ( Q ",
"& & < < 1 / v.*.1.;.;.3.p.f.9.&.w.] ] 2.-.< t n p ",
"x , p 4 y  .g.@.*.*.1.r.p.q.:.$.2./ J &.| n =.k.e.",
"L > y y 1 1.4.#.@.*.3.p.f.q.:.2.3.X.A &._ K D.].S.",
"z G z y 1 | 0.~ @.;.0.r.w.3.:.-.3.W J | T ) S._.S."
};
