/* XPM */
static const char *micro_qcoudeyr[] = {
/* columns rows colors chars-per-pixel */
"25 19 193 2 ",
"   c #1B170C",
".  c #191614",
"X  c #1A1913",
"o  c #1B1C19",
"O  c #161712",
"+  c #140808",
"@  c #200C01",
"#  c #2B1A0A",
"$  c #271209",
"%  c #3F1A00",
"&  c #371C09",
"*  c #241A16",
"=  c #251E18",
"-  c #261414",
";  c #27211A",
":  c #2B241D",
">  c #382A1F",
",  c #372517",
"<  c #2C2520",
"1  c #2D2B23",
"2  c #332A22",
"3  c #342D2A",
"4  c #3C2E23",
"5  c #36322D",
"6  c #39352E",
"7  c #38382C",
"8  c #3F3327",
"9  c #3E3536",
"0  c #3E3A33",
"q  c #39393B",
"w  c #401C04",
"e  c #42220D",
"r  c #5C2C0A",
"t  c #532C0F",
"y  c #492610",
"u  c #452816",
"i  c #523410",
"p  c #6C2E1F",
"a  c #623B1E",
"s  c #4A3927",
"d  c #5B3520",
"f  c #413E37",
"g  c #503F35",
"h  c #732125",
"j  c #743A39",
"k  c #754219",
"l  c #6B461A",
"z  c #47463F",
"x  c #4B463C",
"c  c #504A3E",
"v  c #78462F",
"b  c #754725",
"n  c #7D4934",
"m  c #423D42",
"M  c #454444",
"N  c #494A45",
"B  c #4B4B4A",
"V  c #4A4647",
"C  c #524C45",
"Z  c #524E4C",
"A  c #51504E",
"S  c #5D544D",
"D  c #5C584D",
"F  c #524C52",
"G  c #545355",
"H  c #585657",
"J  c #5C5A5A",
"K  c #565656",
"L  c #645547",
"P  c #745840",
"I  c #625B51",
"U  c #675B5B",
"Y  c #755F51",
"T  c #5F615E",
"R  c #7F674D",
"E  c #636055",
"W  c #69635D",
"Q  c #786A5F",
"!  c #7A6959",
"~  c #6E6661",
"^  c #746C63",
"/  c #7A6F66",
"(  c #706C69",
")  c #797067",
"_  c #74716E",
"`  c #7D746B",
"'  c #7D7972",
"]  c #803033",
"[  c #844F2F",
"{  c #8A5938",
"}  c #9C5D34",
"|  c #A05B34",
" . c #95623C",
".. c #955F43",
"X. c #9F5951",
"o. c #8A5A56",
"O. c #8B684C",
"+. c #896D57",
"@. c #B06F47",
"#. c #A2745C",
"$. c #B9775D",
"%. c #81766B",
"&. c #83796E",
"*. c #897A6B",
"=. c #89776B",
"-. c #9B766D",
";. c #837C73",
":. c #8B7E72",
">. c #A67D6B",
",. c #B27F64",
"<. c #BA7C71",
"1. c #A67B75",
"2. c #8D8375",
"3. c #8C837C",
"4. c #928275",
"5. c #92867B",
"6. c #968B7E",
"7. c #9A8A7C",
"8. c #9A867B",
"9. c #AE816A",
"0. c #A78873",
"q. c #AE8573",
"w. c #BD8875",
"e. c #AE9074",
"r. c #C79579",
"t. c #D5997D",
"y. c #8C8682",
"u. c #8C8A84",
"i. c #8D8D8A",
"p. c #958C84",
"a. c #9B8C82",
"s. c #968F8B",
"d. c #9B9185",
"f. c #9B928A",
"g. c #93908B",
"h. c #9C9591",
"j. c #9F9892",
"k. c #9E9A99",
"l. c #A39383",
"z. c #A49A8C",
"x. c #A89789",
"c. c #B19E8D",
"v. c #A29B94",
"b. c #A69F99",
"n. c #AAA193",
"m. c #A7A29A",
"M. c #B5A799",
"N. c #AAA6A2",
"B. c #B3ADA6",
"V. c #BCB1A4",
"C. c #BCB3A9",
"Z. c #BDB9B4",
"A. c #BEBEB9",
"S. c #B6B6B5",
"D. c #D09D82",
"F. c #CBA795",
"G. c #CAAD9D",
"H. c #DBA793",
"J. c #CCB193",
"K. c #DEB099",
"L. c #EAB89F",
"P. c #C5B8A9",
"I. c #D5B8A9",
"U. c #C7BAB1",
"Y. c #D5B7B9",
"T. c #E7B7A3",
"R. c #E1BBA6",
"E. c #BFC0BB",
"W. c #C4C2BC",
"Q. c #E7C3AB",
"!. c #F1CCB1",
"~. c #CACAC5",
"^. c #CBCDC9",
"/. c #C5C5C2",
"(. c #DDD1C2",
"). c #D7D8D3",
"_. c #DCDAD3",
"`. c #D7D6D4",
"'. c #E8D6C8",
"]. c #E2D4C7",
"[. c #F9D8C7",
"{. c #E2E1DE",
"}. c #EDE5D8",
"|. c #F4E8D9",
" X c #EDECED",
".X c #EDEAE3",
"XX c #F3EFE3",
"oX c #F5F3EE",
"OX c #F7F6F4",
"+X c #F9F6F3",
"@X c #FCFAF6",
"#X c #FDFEFD",
"$X c #F0F3F8",
/* pixels */
"C X X o O X o o . S I.}.@XXXE , > 4 8 z.(.(.].U.M.",
"C x 0 ; : < X X z W.}.|.(.L : 5 5 3 : 0 f 6 0 0 7 ",
"f.6.5.3.) I 6 C M.V.=.s & e g D M N z 0 6 5 1 1 1 ",
"/ / ` ` ;./ ~ W 2.L @ + * # # I C.B.C.U.V.f.C.M.n.",
"/ ^ ^ ^ ^ W _ Z.C.u , - $ w % s 7.4.4.7.5.*.7.2.5.",
"` ` ` ) ` ~ N.#XV.O.Q.F.,.@.} y Q %./ / ^ ^ ;.;.:.",
"` ` %.%.) ` ' u.! 0.[.K.D.{ [ d :.C.~.).^.u.{.`.S.",
"2.;.&.:.&.;.;.' -.q.>...9.$ a k M.@X@X#X#X/.#X#X#X",
"5.2.:.5.3.3.y.3.8.H.R.T.r.k |  ._.#X#X#XOXW.#X#X#X",
"f.7.7.4.3.y.p.p.7.F.!.L.w.r b r.#X#X#X#X#XE.#X#X#X",
"Z.s.7.7.a.s.s.p.a.l.H.$.X.p t G.#X#X#X#X#X^.#X#X#X",
" Xm.6.l.a.p.f.f.s.m.e.t.<.v i '.#X@X#X#X#X~.OX#X#X",
"#XW.d.x.d.f.v.j.v.i.P.#.n r l x.+X#X#X#X#XA.@X#X#X",
"#X{.d.z.z.v.h.g.U B W.I.w.{  .+.C Z.+X@X#X~.#X#X#X",
"#X Xv.n.f.y._ J q B T .XI.9.J.! : : C b.+XA. X#X#X",
"#X+Xm.f.~ J J N m K V S.Y.j c.Y > 2 : : x g.#X#X#X",
"#XOXB.y.A G M M B B F E -.h R =.3 2 2 3 = D #X#X#X",
"#X#XN.( H M M Z N m H I 1.] +.8.9 < 2 ; < 1 _.#X#X",
"#X#Xk.J J q B H B m F c o.h P a.9 = : : =   i.$X@X"
};
