/* XPM */
static const char *micro_gdelhota[] = {
/* columns rows colors chars-per-pixel */
"25 19 185 2 ",
"   c #1E150E",
".  c #12130E",
"X  c #141414",
"o  c #1C1912",
"O  c #17161B",
"+  c #1D1C1A",
"@  c #22211E",
"#  c #2E271F",
"$  c #252422",
"%  c #2A2622",
"&  c #2D2A26",
"*  c #2A2829",
"=  c #322E2A",
"-  c #34312F",
";  c #3D362C",
":  c #393738",
">  c #3F3C3B",
",  c #433C36",
"<  c #413839",
"1  c #43413F",
"2  c #5B4B3B",
"3  c #434240",
"4  c #484743",
"5  c #4D4946",
"6  c #4F4B4C",
"7  c #524B44",
"8  c #584F46",
"9  c #534E49",
"0  c #585146",
"q  c #56514B",
"w  c #5B544C",
"e  c #555152",
"r  c #5B5650",
"t  c #61564C",
"y  c #63594E",
"u  c #705E4A",
"i  c #655B52",
"p  c #695E53",
"a  c #605C5B",
"s  c #695F58",
"d  c #6D6154",
"f  c #6C635A",
"g  c #746656",
"h  c #786956",
"j  c #73655A",
"k  c #74695E",
"l  c #7B6C5D",
"z  c #7D705F",
"x  c #756B60",
"c  c #7C6E61",
"v  c #736E68",
"b  c #7E7162",
"n  c #75716E",
"m  c #7F776A",
"M  c #816951",
"N  c #836E5D",
"B  c #82715D",
"V  c #847463",
"C  c #8A7667",
"Z  c #8A7862",
"A  c #83796C",
"S  c #8B7C6A",
"D  c #917C65",
"F  c #967C6B",
"G  c #857B73",
"H  c #93816C",
"J  c #9C826E",
"K  c #8D837A",
"L  c #8C8276",
"P  c #948575",
"I  c #9A8776",
"U  c #9E8976",
"Y  c #918B7F",
"T  c #9F8D79",
"R  c #A18675",
"E  c #A28D74",
"W  c #A58E7E",
"Q  c #A99177",
"!  c #AE927C",
"~  c #B3907A",
"^  c #898488",
"/  c #8D8988",
"(  c #948C83",
")  c #918C89",
"_  c #9E9483",
"`  c #90918C",
"'  c #9D9389",
"]  c #979691",
"[  c #9D9A96",
"{  c #9B9798",
"}  c #9C9A99",
"|  c #A39484",
" . c #AA9B8D",
".. c #B09385",
"X. c #B19884",
"o. c #BC9880",
"O. c #A59D99",
"+. c #ADA193",
"@. c #ACA49C",
"#. c #A5A29D",
"$. c #B3AC94",
"%. c #B1A99E",
"&. c #BFAE9D",
"*. c #B6B098",
"=. c #A6A4A9",
"-. c #A9A7A8",
";. c #ABAAA6",
":. c #B3ACA3",
">. c #BDAFA6",
",. c #B7B4A5",
"<. c #BCB4A6",
"1. c #BEB9A5",
"2. c #BBB4AD",
"3. c #B1AFB3",
"4. c #B6B2B1",
"5. c #B9B7B8",
"6. c #BFBFBD",
"7. c #BDBDB3",
"8. c #C0A18C",
"9. c #C7AC8F",
"0. c #C4A590",
"q. c #C2AA90",
"w. c #C2B3A3",
"e. c #C0B6AC",
"r. c #C2B9AD",
"t. c #CBBAAA",
"y. c #C3BDB4",
"u. c #C2BEBA",
"i. c #C9BBB2",
"p. c #C6C2B7",
"a. c #C4C2BE",
"s. c #CDC4BC",
"d. c #CCC5B2",
"f. c #D2C5B4",
"g. c #D1C7BE",
"h. c #D4CABD",
"j. c #D6CAB6",
"k. c #F2D7BA",
"l. c #CCC6C1",
"z. c #CDC9C2",
"x. c #CCCACA",
"c. c #D1C7C2",
"v. c #D2CBC3",
"b. c #DBCFC1",
"n. c #D2CFCA",
"m. c #D6D4C7",
"M. c #DAD2C4",
"N. c #D5D2CB",
"B. c #DCD4CC",
"V. c #DCD9CD",
"C. c #CFCED2",
"Z. c #D6D5D3",
"A. c #DBD6D1",
"S. c #DCD9D4",
"D. c #D6D7DC",
"F. c #DBDADD",
"G. c #E3D6C6",
"H. c #E1DAC7",
"J. c #E1D7CE",
"K. c #E1D9CD",
"L. c #E1D7D5",
"P. c #E3DBD4",
"I. c #E3DDD9",
"U. c #E3E1D3",
"Y. c #E7E3DD",
"T. c #EDE4DA",
"R. c #EFEADF",
"E. c #DFDEE4",
"W. c #E4E4E5",
"Q. c #EBE7E2",
"!. c #EDEAE3",
"~. c #F3ECE3",
"^. c #FCF3E5",
"/. c #F7F2EA",
"(. c #F9F2EC",
"). c #FFF8EE",
"_. c #EDF3F1",
"`. c #F5F4F3",
"'. c #FCF2F0",
"]. c #FDFBF4",
"[. c #FFFFFA",
"{. c #FEFDF8",
"}. c #FAFFFF",
"|. c #FEFEFE",
" X c #FEFEFE",
/* pixels */
"w 0 8 0 x G t   o + @ + $ $ @ = = @ $ $ $ % $ $ $ ",
"7 w 0 w k f s , 1 - 1 > : > 3 1 5 5 4 1 4 4 5 5 q ",
"( x y f f i f w 9 w w q 9 w r 9 7 r w q 9 7 r r i ",
"|  .+.b p t i i p i j b d t y s i i t p t i p i p ",
"h B V l V P A k b B H D E E V l V c c b b c c b c ",
"C P H C S G.^._ h Z Q 9.k.q.B l j l l h l k j k c ",
"P | C l A A L m z V R 0.8.J u S G L A A x G K G g ",
"].s.' B.r.M.Y ; +.c C ..R W 2 w.I./.!.~.@.N.].].<.",
"[.j.f.{._.S.$.8 H.| X.~ o.! _ R.c.(.(.~.z.Q.{.].^.",
"}.d.h.{.}.Q._ 7 7.]. .F J N r.{.2.).R.Q.u.n.{.{./.",
"[.M.g.[.}.[.,.< 6.{.M.I D P ~.].y./.S.A.#.;.`.W.~.",
"[.M.c.{.`.[.m.> Y.~. .U M D t.R.p.!.S.N.} -.W.W.m.",
"].1.c.].].{.V.) I.B.e. .T &.h.B.Y.Q.A.x.{ 3.E.D.C.",
"^.*.,.H.T.Y.U.(.F.Z.N.z.c.B.P.S.I.Q.l.4.^ =.C.F.x.",
"j.$.%.f.j.v.V.I.A.N.n.S.I.A.I.S.N.I.2.& - * } W.] ",
"t.$.%.&.| y.U.c.b.K.A.P.P.J.P.B.y.z.n.5 = & ` a.{ ",
"w.w :.y.7 u.A.r.c.P.P.T.V.P.B.v.2.:.v.6 X X [ L.3.",
" .# [ ( % n a.i.s.B.P.P.K.B.B.s.O.@.v.e X X O.'.5.",
"j % + = < a n.>.s.B.P.P.P.B.B.p.@.:.g.e O . v O./ "
};
