/* XPM */
static const char *micro_oloncle[] = {
/* columns rows colors chars-per-pixel */
"25 19 205 2 ",
"   c #071318",
".  c #1B1D18",
"X  c #0B1625",
"o  c #0F1A22",
"O  c #131A24",
"+  c #1B242B",
"@  c #2A2B28",
"#  c #242D34",
"$  c #373837",
"%  c #283337",
"&  c #453B37",
"*  c #433B26",
"=  c #38483D",
"-  c #4A453A",
";  c #494436",
":  c #554D39",
">  c #64603D",
",  c #373E44",
"<  c #423D44",
"1  c #3A4448",
"2  c #4C4A44",
"3  c #484846",
"4  c #544D4C",
"5  c #574C47",
"6  c #4F5249",
"7  c #525045",
"8  c #5B5B46",
"9  c #575449",
"0  c #4E4F54",
"q  c #4A5254",
"w  c #4D545C",
"e  c #555552",
"r  c #5B5A55",
"t  c #5D5A5A",
"y  c #54575A",
"u  c #63594D",
"i  c #665E47",
"p  c #635B54",
"a  c #615F5A",
"s  c #6E5D58",
"d  c #48615D",
"f  c #556356",
"g  c #6C684F",
"h  c #64635A",
"j  c #6D655C",
"k  c #6A6A5E",
"l  c #626456",
"z  c #70655E",
"x  c #7F6A59",
"c  c #7A7359",
"v  c #726C48",
"b  c #4E5B61",
"n  c #565C61",
"m  c #576766",
"M  c #5B716F",
"N  c #5E6D70",
"B  c #636363",
"V  c #6A6B65",
"C  c #676969",
"Z  c #786B61",
"A  c #6B7165",
"S  c #6D7B6E",
"D  c #7C7464",
"F  c #72746B",
"G  c #7D7C6B",
"H  c #787869",
"J  c #6D6E71",
"K  c #616773",
"L  c #6E7A71",
"P  c #6B757A",
"I  c #757473",
"U  c #797A75",
"Y  c #A56D18",
"T  c #AD5C47",
"R  c #887451",
"E  c #866E56",
"W  c #B1795E",
"Q  c #896E63",
"!  c #86756C",
"~  c #887568",
"^  c #937E69",
"/  c #8D7B73",
"(  c #877E78",
")  c #987F74",
"_  c #A17D6F",
"`  c #87835E",
"'  c #96896C",
"]  c #9F9D6D",
"[  c #81837C",
"{  c #89837C",
"}  c #878779",
"|  c #928477",
" . c #9B8B7A",
".. c #998377",
"X. c #938E71",
"o. c #A58F66",
"O. c #A68579",
"+. c #B38F71",
"@. c #CF9D54",
"#. c #D49852",
"$. c #C29979",
"%. c #E29871",
"&. c #CCA36D",
"*. c #327B82",
"=. c #3D7D96",
"-. c #5D7E87",
";. c #7D7B80",
":. c #468E8B",
">. c #5F8988",
",. c #798284",
"<. c #7E828C",
"1. c #7A8C95",
"2. c #738694",
"3. c #709399",
"4. c #5C95A6",
"5. c #72ACC0",
"6. c #68C5EF",
"7. c #818185",
"8. c #868A8D",
"9. c #888984",
"0. c #988C88",
"q. c #8D918A",
"w. c #94928E",
"e. c #9C928D",
"r. c #999186",
"t. c #838A92",
"y. c #8A8D92",
"u. c #898F9B",
"i. c #948F93",
"p. c #899795",
"a. c #93969B",
"s. c #9B999B",
"d. c #989A95",
"f. c #A58A81",
"g. c #A6958A",
"h. c #A09D9B",
"j. c #A59C95",
"k. c #9FA39C",
"l. c #9DA59A",
"z. c #ABA38D",
"x. c #A1A39A",
"c. c #A9A39E",
"v. c #A7A49B",
"b. c #B9AA9B",
"n. c #BBA498",
"m. c #BEB39F",
"M. c #8799A3",
"N. c #9B9CA3",
"B. c #979EA4",
"V. c #8FA3A4",
"C. c #9CABA4",
"Z. c #90A3AA",
"A. c #9AA5A9",
"S. c #93A9B3",
"D. c #A3A5A6",
"F. c #A3ABAD",
"G. c #A3A7A7",
"H. c #B3ADA7",
"J. c #B2B3AB",
"K. c #B9B3A6",
"L. c #A7ACB5",
"P. c #A5AAB3",
"I. c #A7B2B9",
"U. c #AAB1B5",
"Y. c #BFBBB7",
"T. c #B5BBBB",
"R. c #B3B3B6",
"E. c #A6B3AA",
"W. c #C2B3A6",
"Q. c #C0BFBA",
"!. c #B9C0B0",
"~. c #CCC4B2",
"^. c #C3C6BE",
"/. c #CCC4B9",
"(. c #D7C4BE",
"). c #EDD3BA",
"_. c #B5BCC2",
"`. c #C3BBC6",
"'. c #BBC4CD",
"]. c #BBC5C6",
"[. c #BAC6D3",
"{. c #C3C5CC",
"}. c #C3CBCC",
"|. c #C7C9C7",
" X c #C8D3CC",
".X c #DBD6C5",
"XX c #D9D4C9",
"oX c #C4CCD3",
"OX c #CCCED6",
"+X c #C6D0D6",
"@X c #CCD2D4",
"#X c #CBD4DA",
"$X c #C7D2D8",
"%X c #D3D4D3",
"&X c #D6DAD6",
"*X c #E0D7CE",
"=X c #E6DDD3",
"-X c #E5E4DC",
";X c #E9EBDD",
":X c #F2F1DF",
">X c #F4E4D5",
",X c #DCE1E4",
"<X c #EFECE4",
"1X c #F8F5E6",
"2X c #FDFBF1",
/* pixels */
"oX}.}.#XoX].}.'.T.U.F.F.D.D.G.A.A.L.^..X.XXX-X X%X",
"oX}.}.oX@X|.&X&X}.oX#X#X@X,X}.oXoXoX%X:X1X*X2X;X@X",
"U.T.|.}.|.&X<X&X+X$X+X'.#X,X{.[.}.oX@X;X1X=X<X-XOX",
"3 e w.[ U w.H.c.C.U.B.n U U.]._.T.].|.^.XXY.|.x.d.",
"5 - - 7 2 4 e F a r $ & 4 4 V J V I J r r I C 3 3 ",
"| g.z.c } D.B U r.p z 0.g./ 2 F ( ( J V 6 V B $ < ",
"b.m. .` c c.9.K.W.! s / ! ! u J.K.h.8.k.} G K.! D ",
"* i v ] > G H.=X>XW.Z ) ..| e.1X2X&X8.L 8 : c X.z.",
"; - g Q x ' XXY.b.n.f.) ^  .g.(.K.Q.J.7.7 - 8 c Z ",
"< 9 A j 5 p n.x.V & Q O.~ | j k z t.;.t r 7 H q.D ",
", u f h V ! ).~.K $  .../ g.{ @ s [.P.w w e m C q ",
"6 6 l I } ' ~./.P.N.h D E ! e.q.e.'.N.U a ; 1 t t ",
"k C F / | l.L.{.@Xy.$ 0._ O.j.}.}.I.2.N m F m k F ",
"A G.f E ^ 1.I.A.h.J   t g.~ { A.S.'.S.[ d f V.9.L ",
"k.x.S ' b.A.y.U s.0 o O @ . B D.1.a.c.&.H = 9.M.m ",
"F.u.OX`.%Xk.,.i.p.# O X X   b B.a.t.1.R 5.4.H I.-.",
"o.+.W.B.T.d.7.s.P + O q ,   1 y.p.,.<.4.6.6.=.1.Z.",
"Y @.' L p.q.q.w.1 b <.,.y $ y y.N.7.8.:.*.3./ +.T ",
"C.!.E.].J.d.d.J o P t.1 , % 1 8.Z.y.w.>.M $.%.#.W "
};
