/* XPM */
static const char *micro_abelmoha[] = {
/* columns rows colors chars-per-pixel */
"25 19 209 2 ",
"   c #39342E",
".  c #623D2B",
"X  c #4F493D",
"o  c #534230",
"O  c #5C5B3C",
"+  c #565638",
"@  c #694E3C",
"#  c #724F39",
"$  c #60563D",
"%  c #67492D",
"&  c #57633D",
"*  c #61723C",
"=  c #3D4B4C",
"-  c #564A42",
";  c #534640",
":  c #4B5647",
">  c #545047",
",  c #4A5753",
"<  c #595C58",
"1  c #484A45",
"2  c #625643",
"3  c #7B5947",
"4  c #665C57",
"5  c #745C50",
"6  c #5C615D",
"7  c #75634F",
"8  c #6F744C",
"9  c #74724B",
"0  c #69645B",
"q  c #6E685E",
"w  c #686157",
"e  c #796A55",
"r  c #7A655B",
"t  c #7D6656",
"y  c #7C7653",
"u  c #4B7079",
"i  c #5C7E7D",
"p  c #646861",
"a  c #6C6960",
"s  c #6B6D6B",
"d  c #696563",
"f  c #736964",
"g  c #6C766E",
"h  c #757267",
"j  c #73756E",
"k  c #77786A",
"l  c #6C797A",
"z  c #747571",
"x  c #7B7D7A",
"c  c #797E73",
"v  c #855A45",
"b  c #925F4C",
"n  c #A15F51",
"m  c #91624E",
"M  c #886753",
"N  c #966A58",
"B  c #85775B",
"V  c #9A725F",
"C  c #826F68",
"Z  c #85796A",
"A  c #9C7A65",
"S  c #977B69",
"D  c #817C74",
"F  c #A37D6D",
"G  c #A37565",
"H  c #7C8379",
"J  c #788075",
"K  c #868369",
"L  c #918C6F",
"P  c #94926B",
"I  c #8C8473",
"U  c #85847B",
"Y  c #868478",
"T  c #938374",
"R  c #978778",
"E  c #979174",
"W  c #9B9678",
"Q  c #AB806D",
"!  c #B3816A",
"~  c #A78777",
"^  c #B58976",
"/  c #A19E7D",
"(  c #CD9478",
")  c #C68E77",
"_  c #497E8E",
"`  c #5C909D",
"'  c #6F8583",
"]  c #7D8683",
"[  c #7A8884",
"{  c #59A1B9",
"}  c #5DB5C9",
"|  c #70BAD5",
" . c #73D8F4",
".. c #878A89",
"X. c #968C86",
"o. c #8B938A",
"O. c #969489",
"+. c #828F95",
"@. c #8C9293",
"#. c #8D9A91",
"$. c #969999",
"%. c #A48980",
"&. c #A99387",
"*. c #B49581",
"=. c #A89C93",
"-. c #97A299",
";. c #A3A28E",
":. c #B4AD8C",
">. c #BBB083",
",. c #A4A39D",
"<. c #ABA698",
"1. c #B5AA9D",
"2. c #BDB69A",
"3. c #919CA0",
"4. c #99A7A5",
"5. c #90ACB7",
"6. c #93AEB3",
"7. c #A3A6A2",
"8. c #ABAEAB",
"9. c #A6AAA8",
"0. c #BCAEA5",
"q. c #A6B4AB",
"w. c #B6B7A8",
"e. c #ACB4B3",
"r. c #AEB5BD",
"t. c #B6BEB6",
"y. c #B6BFBC",
"u. c #A7AAB1",
"i. c #D8A98F",
"p. c #C3A999",
"a. c #D9AA90",
"s. c #C2B895",
"d. c #CBB2A2",
"f. c #CAB4A9",
"g. c #C3BBB5",
"h. c #CCBCB0",
"j. c #BCC0B7",
"k. c #B6C2BC",
"l. c #BDC3BD",
"z. c #C7C39D",
"x. c #D4C3AB",
"c. c #CCC2B9",
"v. c #C9C1B2",
"b. c #D3CAB6",
"n. c #D3C7BB",
"m. c #D2C9BC",
"M. c #D6C9B6",
"N. c #D7D2BE",
"B. c #FCE2BD",
"V. c #B8BDC3",
"C. c #A0C8CA",
"Z. c #BAC4C4",
"A. c #BBC7C6",
"S. c #CBC3C2",
"D. c #C9CAC8",
"F. c #D2CECC",
"G. c #D7CAC5",
"H. c #CED5CD",
"J. c #DBD1C1",
"K. c #D5D2CE",
"L. c #DAD3CC",
"P. c #DFDCCB",
"I. c #C8CBD3",
"U. c #D9CFD0",
"Y. c #D5C9D3",
"T. c #CCD3D3",
"R. c #CBD5DC",
"E. c #CEDBDD",
"W. c #C8D7D3",
"Q. c #D5D4D2",
"!. c #DCD3D2",
"~. c #D4DED4",
"^. c #DCD9D5",
"/. c #D3D5DD",
"(. c #D2DCDD",
"). c #D8DCDD",
"_. c #E6D8CF",
"`. c #E5DBD6",
"'. c #CDE0DE",
"]. c #D5E2DC",
"[. c #DBE1D9",
"{. c #ECEFDA",
"}. c #FAEFDB",
"|. c #F5E5CC",
" X c #CCDCE2",
".X c #CED4E0",
"XX c #DBDCE2",
"oX c #D2DFE7",
"OX c #CFE5E9",
"+X c #D5E2E5",
"@X c #DCE5E5",
"#X c #D6E4EC",
"$X c #DAE4EC",
"%X c #D3E9EE",
"&X c #DDEAEE",
"*X c #D8E8E7",
"=X c #DEEBF2",
"-X c #D8E9F1",
";X c #DAF3F8",
":X c #E3E6E8",
">X c #E9E7EC",
",X c #E0EBEF",
"<X c #F6EEEC",
"1X c #EBF3E9",
"2X c #FFFDE6",
"3X c #E1EDF5",
"4X c #EAE9F1",
"5X c #F7EEF1",
"6X c #E6F2F2",
/* pixels */
"^.@XR.W.A.Z.Z.t.q.7.-.o.#.$.] [ @.$.8.7.7.e.k.A.W.",
"{.~.E.'.*XoX#X+X].:X:X+X$X$X/.(. X=X+X@X@X&X@X6X=X",
"2X1XW.].+X#XoX XOX,XXXZ.e.R.3XOX-X#X%X#X#X$X$X#X#X",
"W <.F.l.y.I.R.E.%XT.C e 7 4 e.;X&X#X#X3X$X$X+X3X$X",
"2 ; f h a p x #...C ^ i.a.~ f 9.9.u.r.4.@.$.j...z ",
"S R X.Z K O.f c Y t F ^ Q F 5 0 I Y j p a q >   X ",
"M.M.b.E :.n.D ,.w.~ 3 N A M t I 2.;.H ,.O.Z 1.q ; ",
"y / K 9 O I ../.}.p.! ( ( ^ ~ J.<X:X@.-.E B :.z.s.",
"@ $ * P B L k.~.|.x.V m v V 3 N.2X6Xe.=.e + & 8 B ",
"- 4 C w r R ,.0.=.&.M b n N o %.x.e.8.=.B O O W E ",
": 0 < d a y x.M.x   @ v v . Z D R e.3.< 0 6 p U h ",
"j 2 : x X.>.B.P.+.7.d.# % 3 f.[.c.R.R...s < , s 6 ",
"s a j U k R 1././.5Xc.A N A v.`._.>XD.o.U x 1 4 z ",
"c 4.[ T K i R.>XXXQ.0.d.*.p.1.S.K.XX4Xl.: g ] H Y ",
"H -., G R C.4X!.).[.L.J.N.n.G.].T././.@X[ = l 4.J ",
"6.-.o.&.g.R.!.H.U.F.L.m.J.L.F.U.Q.F.F.K.j.6 g q.' ",
"v.K.@XI.(.c.h.S.^.`.!.K.F.K.Q.Q.I.F.g.g.D.| _ $.5.",
"<.w.Q.V.D.v.p.g.^.^.!.F.K.K.K.Q._.v.<.w.k. .} u 5.",
"w.;.t.$.e.b.1.g.^.K.K.F.^.K.K.F.Y.S.<.c.S.{ ` X.) "
};
