/* XPM */
static const char *micro_anporced[] = {
/* columns rows colors chars-per-pixel */
"25 19 208 2 ",
"   c #10191E",
".  c #111820",
"X  c #162729",
"o  c #2C2F2C",
"O  c #272728",
"+  c #33322D",
"@  c #232D31",
"#  c #2B2E32",
"$  c #2C3234",
"%  c #323434",
"&  c #3B3534",
"*  c #353836",
"=  c #323539",
"-  c #35393C",
";  c #3C3B3B",
":  c #3D443F",
">  c #42433B",
",  c #4B453F",
"<  c #4C4A3E",
"1  c #5A4637",
"2  c #585739",
"3  c #5F5C39",
"4  c #5C492B",
"5  c #65633C",
"6  c #2A3141",
"7  c #333B41",
"8  c #3B3A42",
"9  c #313540",
"0  c #433E44",
"q  c #3C4342",
"w  c #494442",
"e  c #4A4A42",
"r  c #494748",
"t  c #48474A",
"y  c #584F46",
"u  c #4E514A",
"i  c #58584A",
"p  c #575958",
"a  c #585957",
"s  c #4A5656",
"d  c #6A4E42",
"f  c #695948",
"g  c #765B45",
"h  c #635955",
"j  c #695F55",
"k  c #725F50",
"l  c #626345",
"z  c #696D4A",
"x  c #7C6946",
"c  c #64635D",
"v  c #6A675F",
"b  c #616A5D",
"n  c #696A5D",
"m  c #646057",
"M  c #736C5C",
"N  c #776A5A",
"B  c #7A755C",
"V  c #586762",
"C  c #5E7378",
"Z  c #666363",
"A  c #6D6463",
"S  c #6B6C66",
"D  c #6E6E6A",
"F  c #67646D",
"G  c #756C65",
"H  c #766C65",
"J  c #6D736D",
"K  c #7C7265",
"L  c #72716A",
"P  c #7B746E",
"I  c #7C7A6D",
"U  c #7C7A61",
"Y  c #687878",
"T  c #747775",
"R  c #7C7674",
"E  c #7B7A73",
"W  c #727878",
"Q  c #656773",
"!  c #865B48",
"~  c #84604D",
"^  c #88665A",
"/  c #897A5B",
"(  c #856D61",
")  c #976E64",
"_  c #897E6E",
"`  c #8A7B6B",
"'  c #9B7665",
"]  c #9C7A67",
"[  c #9D7C69",
"{  c #91796C",
"}  c #817E7A",
"|  c #837B75",
" . c #A06E67",
".. c #A87B6D",
"X. c #A77B70",
"o. c #7B857A",
"O. c #8D8A61",
"+. c #9F806B",
"@. c #83837E",
"#. c #8A867A",
"$. c #938A7B",
"%. c #958B7C",
"&. c #99947A",
"*. c #A58474",
"=. c #AC8574",
"-. c #B98879",
";. c #A4957A",
":. c #537687",
">. c #7A7C8A",
",. c #53839A",
"<. c #748484",
"1. c #7D8481",
"2. c #73868D",
"3. c #789591",
"4. c #838A85",
"5. c #8D8A84",
"6. c #82858A",
"7. c #828D8A",
"8. c #8D8F8D",
"9. c #878387",
"0. c #958A87",
"q. c #849086",
"w. c #97968B",
"e. c #828D91",
"r. c #918F90",
"t. c #8D9396",
"y. c #8B9B9D",
"u. c #89969C",
"i. c #969C92",
"p. c #979B9B",
"a. c #9C9A9C",
"s. c #969798",
"d. c #AD8480",
"f. c #AA9783",
"g. c #A69A88",
"h. c #B69682",
"j. c #B69B8D",
"k. c #A19B9B",
"l. c #B29F91",
"z. c #9CA29D",
"x. c #90A19B",
"c. c #ABA193",
"v. c #A2A39D",
"b. c #A9A89E",
"n. c #BDAB9E",
"m. c #B5A697",
"M. c #A9A58A",
"N. c #8D95A2",
"B. c #9B9FA2",
"V. c #8EA7A1",
"C. c #9AABB2",
"Z. c #97A6AB",
"A. c #A0A0A1",
"S. c #AAAAA3",
"D. c #A3A9AC",
"F. c #A4A7AA",
"G. c #B1ABA9",
"H. c #ACB1AD",
"J. c #B5B5A8",
"K. c #AEAFB3",
"L. c #A9B3BC",
"P. c #A6B2B5",
"I. c #B4B2B4",
"U. c #BEBFB7",
"Y. c #B9B9BD",
"T. c #C3998B",
"R. c #CDA395",
"E. c #C6B4A0",
"W. c #C2B4AD",
"Q. c #CABDAA",
"!. c #D4BFAC",
"~. c #CBCCAA",
"^. c #D4C6AB",
"/. c #DDD2BE",
"(. c #C6C3B4",
"). c #E0CCB1",
"_. c #ABB7C3",
"`. c #B8C2C5",
"'. c #BDCAD2",
"]. c #BECCD9",
"[. c #C7CCCC",
"{. c #D7CBC2",
"}. c #DFD5CB",
"|. c #C3CBD4",
" X c #C3CFDB",
".X c #C7D0D7",
"XX c #CAD4DC",
"oX c #CDD8DE",
"OX c #D6DDDC",
"+X c #EBDCCB",
"@X c #F6EFDF",
"#X c #ECE9D8",
"$X c #CBD6E3",
"%X c #CDDAE5",
"&X c #CCDBEA",
"*X c #C7D4E4",
"=X c #D1DCE6",
"-X c #D1DFE8",
";X c #CEE0EA",
":X c #D6E2EB",
">X c #D8E6EF",
",X c #D8E3E4",
"<X c #D6E3F4",
"1X c #DAE4F2",
"2X c #F4F5EA",
"3X c #FEFCEC",
"4X c #E3EDF7",
"5X c #F8FEF4",
/* pixels */
"z.z.7.4.S 4.5.} b I L b o.s.Z c S S 5.E | 5.8.8.u.",
"oX.X'.L.P.H.S.v.x.b.J.w.i.v.4.7.6.t.F.z.A.K.Y.`..X",
"|.$X*X&X>XXXoX,X;XOX&._ $.$.U.oX$X-X>X:X:X1X1X<X1X",
"2X,X'.].$X$X&X&X<XR 4 ^ ( g H |.<X&X&X&X%X&X&X&X%X",
"(.J.[.[.|.|.$X$X<XP h.R.T.h.f F.4XXX-X%X%X$X=XXX X",
"1 y P } S S 1.p.e.K ] ] X.+.N @.A.B.D.t.6.6.a.t.Z ",
"( H K M M I v S I { ' =.*.[ *.N | E S D L c c e , ",
"!.^.+X&.m.{.0.9.E.j.) .... .X.*.W.b.#.v.S.$.c.J.M ",
";.g.&.B x B >.Y.3XE.~ ! ~ ~ ` }.2X5XC.r.%.U O.~.^.",
"x 4 3 M./ M D.[.#X+X' -.-.^ g.3X@X2X`.G._ l 5 l z ",
"k f M L K _ k.I.c.m.{ ^ ) d n.Q.n.W.D.a.0.i 2 I &.",
"r h D Z A k l.{.s.A l.[ g f.g.Z 0.G.L.T Z W v R 1.",
"J n y S I f.)./.>.u j ;.` K , p Z @.L.I.9.Y a F T ",
"E n m 0.@.w.#.u > ; % o O + > < a u s @.p.<.J p T ",
"E 7.9._ S Q o 6 7 - % & & ; : q e > q w S Y q.7.o.",
"W V.J f.@.7 O 9 = - $ % $ * ; 8 0 w t & r Y V Z.z.",
"3.y.G d.N O @ $ $ $ = = % = - - 8 q ; * * h C i.C.",
"P.u.F.W.:   X # # $ $ $ $ $ = - - - & o $ ; :.<.C.",
"N._.:Xa.X X . O @ # $ # # # $ = ; % & o $ @ ,.:.2."
};
