/* XPM */
static const char *micro_bponthus[] = {
/* columns rows colors chars-per-pixel */
"25 19 207 2 ",
"   c #36251D",
".  c #332E2B",
"X  c #373C38",
"o  c #333424",
"O  c #48463A",
"+  c #5B4C3C",
"@  c #554339",
"#  c #66543D",
"$  c #785A3E",
"%  c #66623D",
"&  c #463D40",
"*  c #4C4E4B",
"=  c #5F4D41",
"-  c #554C42",
";  c #5A5541",
":  c #5A524C",
">  c #4B5759",
",  c #5B5C53",
"<  c #684F46",
"1  c #695B4B",
"2  c #725744",
"3  c #7C5B48",
"4  c #625954",
"5  c #6C5E54",
"6  c #605752",
"7  c #556042",
"8  c #4F6155",
"9  c #5B655D",
"0  c #6C6342",
"q  c #716B49",
"w  c #74704D",
"e  c #6B635A",
"r  c #646458",
"t  c #73655A",
"y  c #7B6A57",
"u  c #7F785A",
"i  c #767556",
"p  c #5D616A",
"a  c #6D6E66",
"s  c #6A6A68",
"d  c #7D6E63",
"f  c #736C64",
"g  c #67706F",
"h  c #707269",
"j  c #7B7B6C",
"k  c #7A7669",
"l  c #6C6471",
"z  c #6A7475",
"x  c #7A7972",
"c  c #7E7B7C",
"v  c #767D75",
"b  c #895848",
"n  c #835B51",
"m  c #84614B",
"M  c #8A6754",
"N  c #926C5C",
"B  c #986B56",
"V  c #9D705D",
"C  c #85755E",
"Z  c #AA735E",
"A  c #826D6A",
"S  c #847A64",
"D  c #9D7B66",
"F  c #827C71",
"G  c #887E7D",
"H  c #AA7F6F",
"J  c #728452",
"K  c #6D817F",
"L  c #7C827C",
"P  c #758176",
"I  c #D3A124",
"U  c #8F8F6D",
"Y  c #8B8573",
"T  c #87847A",
"R  c #9D8A7B",
"E  c #938875",
"W  c #959576",
"Q  c #A6836B",
"!  c #B78777",
"~  c #B19979",
"^  c #DCBB52",
"/  c #C7A254",
"(  c #D1A76B",
")  c #2B7A99",
"_  c #7D7E83",
"`  c #498C9F",
"'  c #6E828B",
"]  c #768D83",
"[  c #688690",
"{  c #7E919C",
"}  c #758793",
"|  c #4D85A6",
" . c #7590A5",
".. c #70A5A9",
"X. c #76ABBB",
"o. c #71B5C2",
"O. c #5DC4EF",
"+. c #55CBF3",
"@. c #808384",
"#. c #828A85",
"$. c #8A8B83",
"%. c #87878B",
"&. c #918B8F",
"*. c #84958F",
"=. c #99978C",
"-. c #8B8E93",
";. c #8F9394",
":. c #969691",
">. c #9B9C95",
",. c #97999C",
"<. c #A68E82",
"1. c #A59B89",
"2. c #B89788",
"3. c #A39A94",
"4. c #BE878A",
"5. c #A0A086",
"6. c #B0AA86",
"7. c #A3A59A",
"8. c #B5AA95",
"9. c #B9A596",
"0. c #BDB699",
"q. c #989BAC",
"w. c #89A1A1",
"e. c #9DA4A5",
"r. c #9AA7B1",
"t. c #9EB5BD",
"y. c #8DA4B4",
"u. c #A4A4A3",
"i. c #A7AAA4",
"p. c #ACADA3",
"a. c #A3AEAF",
"s. c #ACACAC",
"d. c #ABA6A3",
"f. c #B6AEA5",
"g. c #ACB1A8",
"h. c #B2B3AD",
"j. c #BAB9A7",
"k. c #AFACB5",
"l. c #A9B6B9",
"z. c #B6BBBA",
"x. c #B7B8B6",
"c. c #C49987",
"v. c #C2A494",
"b. c #C8B19F",
"n. c #CBAFA4",
"m. c #C6BAA9",
"M. c #CCBDB4",
"N. c #C7BBB3",
"B. c #BCC1BD",
"V. c #C3C19A",
"C. c #CDC3BB",
"Z. c #C0C3B6",
"A. c #D4C5B1",
"S. c #D1C7BD",
"D. c #D3CABF",
"F. c #DBCCB9",
"G. c #D6D0B8",
"H. c #C5CAAC",
"J. c #80A4C4",
"K. c #99B4C5",
"L. c #BCBDC1",
"P. c #C3BCC3",
"I. c #B8C4C4",
"U. c #C5CECD",
"Y. c #C8CDCB",
"T. c #D4C7C0",
"R. c #D5CAC3",
"E. c #D9CCC5",
"W. c #DCCECA",
"Q. c #DBD3CC",
"!. c #D7D5C9",
"~. c #C7CAD3",
"^. c #D3C7D1",
"/. c #C7D3D3",
"(. c #CCD4D4",
"). c #C6D2DB",
"_. c #CDD7DE",
"`. c #D5D7D2",
"'. c #DDDED4",
"]. c #D2D5DB",
"[. c #D2DBDE",
"{. c #DDD7DB",
"}. c #E3D1C8",
"|. c #E6D9D3",
" X c #E6D7D9",
".X c #E1C9C5",
"XX c #DDE1DD",
"oX c #F7E0C0",
"OX c #E3E1D2",
"+X c #E8EADD",
"@X c #FDEBD3",
"#X c #F2EADD",
"$X c #C9D8E3",
"%X c #D3DEE5",
"&X c #D7D9E5",
"*X c #CCDFF0",
"=X c #D7E2E4",
"-X c #DBE2E3",
";X c #D5E2EC",
":X c #DBE5EC",
">X c #DAE4F2",
",X c #DBE8F0",
"<X c #E6E8E4",
"1X c #F2ECEE",
"2X c #FDFFEA",
"3X c #E1EAF2",
"4X c #ECECF1",
/* pixels */
"-X[./.I.s.h.h.p.p.5.3.1.>.-.#.@.#.>.s.u.u.z.B.Y.[.",
"[.%X;X;X%X[.].].OX2X#XOX'.(.Y.~./.[.XX-X-X:X3X3X3X",
"-X3X).$X)._.).$XXX+X'.<X-X%X=X:X,X%X%X:X:X:X;X>X:X",
"p.x.(.U.U.(.[.(._.(.-Xz.z.[.:X;X>X>X,X:X=X:X-X:X-X",
"+ - x T h a $.;.%.e.x 4 e f d.x.u.s.k.,.>.:.h.%.h ",
"t d e e t F : c k : + v.c.M @ y Y F h a e f 6 O : ",
"m.m.A.E =.S.G %.8.< # ! ! ~ y 1 8.=.L 7.=.S 0.j : ",
"~ 0.W % q E T P.G.  2 n N m < O }.<X;.:.Y u 6.V.0.",
"# q 0 j w u a.Q.@X; M ! ! H 3 o A.2Xl.7.y 7 # i w ",
"d 1 C d y R u.s.f.A < V b V 2 @ 1.N.k.3.S ; + W W ",
"O p r 5 e 5 7.m.c & = Q M N + . E f.q.e 9 r s P k ",
"r l * t $.2.oX@X-.X 9.Q $ D b.X <.`.*X3.z , X s a ",
"v 4 , j P R 8.j.%.,.n.Z B B v.Z.9.h.y.&.L L , - s ",
"z #.*.u S K [ r.Y.1X}.Q b D A.<X<XL. .{ 8 g @.#.T ",
"h e.z w c.' K.4X<X{.Q.F.9.M.!.`.:X4X$X} U > > l.#.",
"] i.z 9 4.i.!.}. X&XQ.T.Q.T.W.].{.E.!.R.( j 9 e.w.",
"l.r.a.).~.{.D..X|.|.E.C.C.M.R.W.&XW.H.^.J X.o._ t.",
"j.R W.&Xz.{.M.m.R.Q.R.S.T.C.R.E.E.M.Z.~...O.+.| { ",
"/ I ^ T ,.Q.m.f.N.T.D.S.R.C.R.R.m.3.N.|.J.) ` %.2."
};
