/* XPM */
static const char *micro_miwaki[] = {
/* columns rows colors chars-per-pixel */
"25 19 205 2 ",
"   c #0C0A08",
".  c #120A03",
"X  c #141510",
"o  c #21201E",
"O  c #141A28",
"+  c #1C2526",
"@  c #0E2F34",
"#  c #283224",
"$  c #33362D",
"%  c #313839",
"&  c #463A32",
"*  c #39443F",
"=  c #55483E",
"-  c #4A5635",
";  c #556632",
":  c #657630",
">  c #3C4044",
",  c #394648",
"<  c #3C5057",
"1  c #4C4641",
"2  c #4B4C4B",
"3  c #454746",
"4  c #5A4A44",
"5  c #56494A",
"6  c #4A534C",
"7  c #54544D",
"8  c #5C564C",
"9  c #5D5B4E",
"0  c #545746",
"q  c #5B4E5F",
"w  c #4A5453",
"e  c #4A5259",
"r  c #525457",
"t  c #5D5C53",
"y  c #575957",
"u  c #6F4F40",
"i  c #655445",
"p  c #7D5C43",
"a  c #625D54",
"s  c #6A5D53",
"d  c #645A59",
"f  c #785655",
"g  c #5F6258",
"h  c #6C784E",
"j  c #656459",
"k  c #6F6B5F",
"l  c #676455",
"z  c #79695B",
"x  c #717356",
"c  c #726E51",
"v  c #4D4F66",
"b  c #585E67",
"n  c #63566A",
"m  c #6C5F79",
"M  c #4B6866",
"N  c #5F7068",
"B  c #5D6A74",
"V  c #597176",
"C  c #5A6264",
"Z  c #6D6B63",
"A  c #696468",
"S  c #766D68",
"D  c #6C7669",
"F  c #747267",
"G  c #7A716D",
"H  c #74796C",
"J  c #7A7A6B",
"K  c #777467",
"L  c #676B73",
"P  c #7D6D70",
"I  c #6A7777",
"U  c #7D7474",
"Y  c #7A7B7E",
"T  c #757976",
"R  c #F24D39",
"E  c #85644C",
"W  c #8D6657",
"Q  c #8A7755",
"!  c #817D6F",
"~  c #8E7B6D",
"^  c #847469",
"/  c #9C7D6D",
"(  c #947767",
")  c #827C70",
"_  c #897A79",
"`  c #A27E68",
"'  c #FF6D50",
"]  c #698576",
"[  c #DE9C10",
"{  c #DAA01B",
"}  c #E69238",
"|  c #DFA43E",
" . c #A38F52",
".. c #8D836E",
"X. c #878968",
"o. c #9C8369",
"O. c #878578",
"+. c #918B7C",
"@. c #9A897F",
"#. c #87907F",
"$. c #9D987B",
"%. c #A6816F",
"&. c #AA8877",
"*. c #B08B70",
"=. c #A4937F",
"-. c #B8B368",
";. c #EA8841",
":. c #DBA648",
">. c #E5AA50",
",. c #C4947C",
"<. c #F88E78",
"1. c #C4B37F",
"2. c #A1C971",
"3. c #D8C164",
"4. c #5E7B83",
"5. c #737780",
"6. c #6B6485",
"7. c #8C7288",
"8. c #378697",
"9. c #41899F",
"0. c #4F8588",
"q. c #6B8381",
"w. c #7E878A",
"e. c #689697",
"r. c #739097",
"t. c #5CAA94",
"y. c #5A9AB5",
"u. c #7881A0",
"i. c #6399B1",
"p. c #5EA4B3",
"a. c #78A4A7",
"s. c #04BDF6",
"d. c #25E0FF",
"f. c #858484",
"g. c #8C8E88",
"h. c #898B86",
"j. c #9C8C82",
"k. c #889788",
"l. c #898D90",
"z. c #928D93",
"x. c #8A949C",
"c. c #889897",
"v. c #959795",
"b. c #91978D",
"n. c #B88280",
"m. c #A1998C",
"M. c #BB938B",
"N. c #A79793",
"B. c #A99A97",
"V. c #9AA59C",
"C. c #94A697",
"Z. c #A8AF8D",
"A. c #ABA293",
"S. c #A1A199",
"D. c #B2A690",
"F. c #908BA1",
"G. c #839FA3",
"H. c #989CA5",
"J. c #AB9FA6",
"K. c #8CA4A5",
"L. c #9AA9AA",
"P. c #9CB8AC",
"I. c #93B7B8",
"U. c #80A6BB",
"Y. c #A7A9A6",
"T. c #B3ACA6",
"R. c #A3B5A7",
"E. c #A6B8B8",
"W. c #BBBAB6",
"Q. c #A4ADB2",
"!. c #C49487",
"~. c #CCAC9F",
"^. c #CC99A8",
"/. c #C6AEA2",
"(. c #C5B8A9",
"). c #C5B7B3",
"_. c #D0B7A3",
"`. c #EDDC8C",
"'. c #FFDE81",
"]. c #DFCFAE",
"[. c #CBC7BB",
"{. c #DAD2BD",
"}. c #D0C8B5",
"|. c #ABB7CA",
" X c #B8C2C3",
".X c #B5C5D6",
"XX c #B9D3D0",
"oX c #C7C8C8",
"OX c #D3CCC9",
"+X c #CBD8CF",
"@X c #C8CBD3",
"#X c #CED2D8",
"$X c #D6D6CC",
"%X c #EEDBD1",
"&X c #EAE3D1",
"*X c #C6D9E3",
"=X c #DEDEE4",
"-X c #CDDCF3",
";X c #D6E5EA",
":X c #DAEAF7",
">X c #D4F2E8",
",X c #EAE4E8",
"<X c #F1EDEC",
"1X c #E4ECF5",
"2X c #EFF5FA",
/* pixels */
"E..X.X.X#X-X*X;X;X:X:X:X:X1X1X:X>X1X,X=X;X=X;X+X#X",
"9 Z x.V.v.w.w.x.c.K.C.L.E.E.Y.V.L.c.v.W.P.g.T g.T ",
"r r b D #.= 6 6 < w 6 T 6 L I 1 2 6 j B.N H C f.g ",
"d f.L A v.Y f.L 5.G y 2 S A 3 d h.z.g.v.M Y L g 7 ",
"~ A.7.m J.P T.N.Z = . 1 %Xz   o B._ O.K.0.v.d +.T.",
"}.{.F.6.OX).(.D.A.s   ^ &.o.& + A.(.}.I.e.[...X.Z.",
"x - G.u.@X2X<X,XOXU 4 M.&.%.&.7 $X&X(.Q.K.@.$.h : ",
"- - L.|.W.[.W.oX%XY./ ,.,.!.,./ J.OXA.#X|.j...x ; ",
"% # H..X X7 4 j.h.n W p f u c ^ _ z.Y.XX XF _ c 0 ",
"< % L B P.q & 5 X f.(.( !.M.E i A 7 R.U P r g Z G ",
"> $ L l.E.n . $   +.)./ &.&./ 4 5 G R.h.] , & y r ",
"e > 4.c.L.Z # 7 Z m.^ ( E Q ~ U S N.oX Xc.b D 2 6 ",
"q.w I k.R.1.~ b.N.! F 4 p *.= H m.S.@X Xr.T I l.V ",
"q.] e.a.L.-._.=.+.H k 9 i &.d z X.X.v.W.L.b.g.Y O.",
"0.7.i.d.p...m.@.J x l 8 9 k ) ^ D G B -.`.Y.{./.Q ",
"r.^.U.s.9.r K J ^ z l l 7 r a t z h v Q 2.C.;. .M ",
"p.OXXXy.8.% 1 l K F j a t a $ 0 ^ t , e t.I.} | V ",
"n.W.(.<.` + O t ) +.O.a 7 Z a ) O.z % > 3.'.:.>.1X",
"R ).~.' W @ + s 8 j F a j J k ! s 3 + * o.>.[ [ ]."
};
