/* XPM */
static const char *micro_yasabri[] = {
/* columns rows colors chars-per-pixel */
"25 19 195 2 ",
"   c #010000",
".  c #070707",
"X  c #1E1007",
"o  c #171A0F",
"O  c #1E1714",
"+  c #1A1C1A",
"@  c #1B1A16",
"#  c #221107",
"$  c #291A17",
"%  c #1C221A",
"&  c #27241F",
"*  c #362110",
"=  c #30291F",
"-  c #37281B",
";  c #1D1E23",
":  c #232321",
">  c #24252A",
",  c #292728",
"<  c #2E2C2A",
"1  c #342E24",
"2  c #3C372D",
"3  c #2D333C",
"4  c #38383A",
"5  c #393735",
"6  c #252934",
"7  c #411F06",
"8  c #45220C",
"9  c #4E321A",
"0  c #553616",
"q  c #642611",
"w  c #62391D",
"e  c #743B18",
"r  c #463C33",
"t  c #4F3D33",
"y  c #4C3726",
"u  c #633B21",
"i  c #69441E",
"p  c #73461F",
"a  c #474036",
"s  c #5C4736",
"d  c #764929",
"f  c #684D3C",
"g  c #7A4F3E",
"h  c #65533D",
"j  c #2B3141",
"k  c #313641",
"l  c #323945",
"z  c #32344A",
"x  c #353C4A",
"c  c #383E4C",
"v  c #353A50",
"b  c #48484B",
"n  c #5A5046",
"m  c #4D5055",
"M  c #5C5A57",
"N  c #5C5052",
"B  c #474955",
"V  c #62574E",
"C  c #675749",
"Z  c #745F4E",
"A  c #6A6259",
"S  c #6A655B",
"D  c #74655D",
"F  c #786657",
"G  c #5D5D65",
"H  c #454867",
"J  c #5F646A",
"K  c #656663",
"L  c #6D6965",
"P  c #6E6D68",
"I  c #756C64",
"U  c #706F6D",
"Y  c #796F65",
"T  c #7B7166",
"R  c #7C746A",
"E  c #78766C",
"W  c #706E71",
"Q  c #7E7B77",
"!  c #646A76",
"~  c #86573A",
"^  c #985E38",
"/  c #9D6F4D",
"(  c #806751",
")  c #88725B",
"_  c #98755F",
"`  c #817569",
"'  c #847A6E",
"]  c #887B6C",
"[  c #837363",
"{  c #9D7E69",
"}  c #847B72",
"|  c #897C73",
" . c #887F78",
".. c #8A8074",
"X. c #8C847A",
"o. c #84827B",
"O. c #938B7E",
"+. c #9A8D7D",
"@. c #92867A",
"#. c #A28068",
"$. c #A48E76",
"%. c #B68C72",
"&. c #A79179",
"*. c #C18458",
"=. c #C08C74",
"-. c #888785",
";. c #8B8E88",
":. c #938B83",
">. c #948F8B",
",. c #9B9183",
"<. c #94928B",
"1. c #9A928A",
"2. c #9B9984",
"3. c #8E9394",
"4. c #999592",
"5. c #A2998F",
"6. c #A79384",
"7. c #B19484",
"8. c #B99485",
"9. c #B79C87",
"0. c #A49D93",
"q. c #B8A38E",
"w. c #A3A29D",
"e. c #ABA49D",
"r. c #A9A091",
"t. c #B5A79C",
"y. c #A19FA4",
"u. c #9CA0AC",
"i. c #B2ACA2",
"p. c #B6ACAA",
"a. c #ABB1AF",
"s. c #B9B4AA",
"d. c #ADB2B6",
"f. c #BBBAB3",
"g. c #BABCBB",
"h. c #B8B5B0",
"j. c #A3A9A7",
"k. c #C89E86",
"l. c #C0A18F",
"z. c #CDA488",
"x. c #D6AB8B",
"c. c #DFAB95",
"v. c #F4BA94",
"b. c #C6BFB6",
"n. c #E7B8A8",
"m. c #E9BCA5",
"M. c #C8C5B9",
"N. c #D5C2B1",
"B. c #F1C1AB",
"V. c #ECC5B7",
"C. c #FFD7BE",
"Z. c #FFD9BC",
"A. c #F5CBB5",
"S. c #BDBDC5",
"D. c #BCC0CB",
"F. c #C5C6C5",
"G. c #C4C8C7",
"H. c #CCCBC6",
"J. c #CCCCCD",
"K. c #C3C7C8",
"L. c #D1CEC7",
"P. c #D5CEC8",
"I. c #D4D3CD",
"U. c #DBD2CB",
"Y. c #CCD1D5",
"T. c #D3D4D2",
"R. c #D8D7D3",
"E. c #D4D8D7",
"W. c #DBD9D3",
"Q. c #D3D7D9",
"!. c #D5DADD",
"~. c #DCDDDD",
"^. c #E3D9CD",
"/. c #FEDBC3",
"(. c #E0DEDA",
"). c #E7E0D6",
"_. c #E4E3DE",
"`. c #E9E6DF",
"'. c #DDE2E3",
"]. c #E6E6E4",
"[. c #EFE3E7",
"{. c #EAEAE5",
"}. c #E5E5E9",
"|. c #EBEBEB",
" X c #E6EAED",
".X c #F3EEE4",
"XX c #F0EFEA",
"oX c #E7EDF1",
"OX c #EDF2FA",
"+X c #F6F4F2",
"@X c #FAFAF6",
"#X c #F3F7FA",
"$X c #F5FBFA",
"%X c #FDFEFD",
"&X c #F8F8F4",
/* pixels */
"f.e.<.<.o...[ F F n 2 2 O.t.s.i.V r r a 2 1 = 1 < ",
"I I R D R T Y } ' I M b U X.0.0.X.R ..T :.0.5.1.1.",
"} ` ` D T A L L K K K w.M.).+X%X^.O.5.0.,.O.5.e.r.",
":.} | ` T R L U R P Q g.i.U.M.0...T R R I I A A A ",
"J.w.Q R T R R I ) C O   . X Z ( T X.' } 1.e.b.P.I.",
"3.K.F.>. .| ' ] T # s _ u 8 y @.} X.:.M.%X@X%X&X%X",
"G.3.F.J.4.X.' +.M t /.v.*./ * S s..X_.I.%X%X%X%X%X",
"@XI.;.~.T.<.:.O.f 7.8.k.d w 8 $.%X%X_.].$X%X%X%X%X",
"%X@Xf.a.OXS.:.+.D l.%.c.q e 0 M.%X%X{.W.%X%X%X%X%X",
"%X%X|.j.oX}.<.,.8.A.Z.x.d ^ ~ N.%X$X~.R.%X%X%X%X%X",
"%X%X%Xg.!.#Xh.O.q./.B.=.e e #..X%X%X{._.%X%X%X@X%X",
"%X%X%X'.Y.$XH.:.2.6.V.n.~ p &.%X%X%X_.W.@X%X%X%X%X",
"%X$X%X}.Q.%XT.4.6.7.V.{ 0 i 9.[.%X%XI.R.%X$X%X%X$X",
"%X%X%X|.Q.$X~.W V #.C.z.d i 9 r R.%X_.(.%X%X%X%X@X",
"&X%X%X|.!.%X XG m C %.m.g 8 - o o.XX`.L.+X%X%X%X@X",
"%X%X%X}.E.%Xd.B H N h s = $ O + 5 H.W.I.%X%X+X@X@X",
"|.|.@XOXu.J 6 z x x k ; . + + @ % ; b e.%X].;.-.'.",
"%X_.%XD.c 3 c z x l x 3 ; , : : % 4 : & y.(.E p.#X",
"%X%X$X! j 3 l v x j k k > > ; , : > < + 4 h.] t.oX"
};
