/* XPM */
static const char *micro_engiacom[] = {
/* columns rows colors chars-per-pixel */
"25 19 193 2 ",
"   c #040404",
".  c #0B0A07",
"X  c #0D0D0C",
"o  c #050A06",
"O  c #130C0E",
"+  c #160F05",
"@  c #14140D",
"#  c #18100D",
"$  c #121112",
"%  c #1D1613",
"&  c #1C1A16",
"*  c #1B1A1A",
"=  c #211813",
"-  c #221A18",
";  c #2A231C",
":  c #35261E",
">  c #32281F",
",  c #2F2624",
"<  c #2F2A24",
"1  c #262427",
"2  c #342922",
"3  c #322D29",
"4  c #3E2F28",
"5  c #3C352D",
"6  c #332E32",
"7  c #3C3532",
"8  c #3E3933",
"9  c #3A383A",
"0  c #42372D",
"q  c #413934",
"w  c #423E3A",
"e  c #4B3A30",
"r  c #49423C",
"t  c #544637",
"y  c #634B3F",
"u  c #404042",
"i  c #4C4B47",
"p  c #504740",
"a  c #544C45",
"s  c #5B4D44",
"d  c #574748",
"f  c #5C524A",
"g  c #50514B",
"h  c #5A5859",
"j  c #545353",
"k  c #6A4F46",
"l  c #635147",
"z  c #65534D",
"x  c #6B5A4C",
"c  c #615B4D",
"v  c #635B53",
"b  c #6B5D53",
"n  c #625753",
"m  c #735C52",
"M  c #77624F",
"N  c #6D635A",
"B  c #6E685C",
"V  c #746455",
"C  c #7D6857",
"Z  c #73655B",
"A  c #7A665D",
"S  c #766A5C",
"D  c #7A6A5C",
"F  c #666264",
"G  c #6F6862",
"H  c #6C6768",
"J  c #706061",
"K  c #786D65",
"L  c #7D736C",
"P  c #7E7264",
"I  c #747174",
"U  c #7B767C",
"Y  c #806D5F",
"T  c #816F61",
"R  c #847262",
"E  c #8C7563",
"W  c #8F7A67",
"Q  c #84766B",
"!  c #8D7668",
"~  c #8D7A6A",
"^  c #867F6D",
"/  c #927C6B",
"(  c #937668",
")  c #837770",
"_  c #857C75",
"`  c #8C7D74",
"'  c #867B7B",
"]  c #907F77",
"[  c #95806D",
"{  c #9A836B",
"}  c #8D837A",
"|  c #8F8373",
" . c #928372",
".. c #9B8572",
"X. c #96887F",
"o. c #9C8C7B",
"O. c #948777",
"+. c #A18776",
"@. c #AC8775",
"#. c #AD937D",
"$. c #B6927C",
"%. c #827D82",
"&. c #848284",
"*. c #888387",
"=. c #8B8788",
"-. c #8A8B8D",
";. c #858388",
":. c #948983",
">. c #9B8D84",
",. c #928986",
"<. c #9F9687",
"1. c #9B958C",
"2. c #8D8E91",
"3. c #9A9898",
"4. c #A08E80",
"5. c #A49383",
"6. c #AC9383",
"7. c #A39589",
"8. c #A79A8A",
"9. c #B29383",
"0. c #A89F96",
"q. c #A39B99",
"w. c #A19A94",
"e. c #B6A08B",
"r. c #AEA295",
"t. c #A6A39F",
"y. c #ACA19B",
"u. c #B1A398",
"i. c #A19FA0",
"p. c #AEA9A3",
"a. c #B0A6A3",
"s. c #B1AEA7",
"d. c #B3AEAD",
"f. c #BAACA3",
"g. c #BBB3AF",
"h. c #AEAFB3",
"j. c #AFB2B3",
"k. c #B0B1B3",
"l. c #BCB5B4",
"z. c #BFBCB7",
"x. c #BCBDBC",
"c. c #B4B1BC",
"v. c #C5A78B",
"b. c #C9BDAF",
"n. c #C3BBB7",
"m. c #C0BBB8",
"M. c #CCC4AF",
"N. c #CBC3BB",
"B. c #CEC2B4",
"V. c #D3C6BB",
"C. c #D6CABC",
"Z. c #D3C7B3",
"A. c #D8D0B9",
"S. c #BDBDC1",
"D. c #C5C3C3",
"F. c #CCC5C3",
"G. c #C6C8C7",
"H. c #CDC9C4",
"J. c #C4C2CA",
"K. c #CAC7CA",
"L. c #C7C8CC",
"P. c #CBCBCD",
"I. c #DCCFC6",
"U. c #D3CBCA",
"Y. c #CED0CD",
"T. c #D4D3CC",
"R. c #DCD6CC",
"E. c #CCCED2",
"W. c #D4D2D3",
"Q. c #DDD5D2",
"!. c #DBDAD3",
"~. c #D9D7D8",
"^. c #DDDBDC",
"/. c #D3D9D8",
"(. c #E4DBD3",
"). c #E5DEDB",
"_. c #E5E1DD",
"`. c #EBE3DC",
"'. c #E7E9DE",
"]. c #F4E6DB",
"[. c #DEE0E6",
"{. c #E7E5E6",
"}. c #E9E4E1",
"|. c #EFECE4",
" X c #E7E7E9",
".X c #EDEBEC",
"XX c #F3ECE6",
"oX c #F3EEEB",
"OX c #F7F3EC",
"+X c #FAF2EB",
"@X c #F6F4F5",
"#X c #FFFFFC",
"$X c #F8F7F2",
/* pixels */
"e : ; ; 3 2 ; > 2 t S %   @ @ O # 7 q 8 % % % - & ",
"_ G q q f f b b Z Q x 4 , ; < , 3 3 < r 8 8 w 7 w ",
"].C.>.s b N n v F N Z f a i g i a p r a a a f p a ",
"_.#X:.T ..e.6.W m M M C Y T D V Z D P V V V V V V ",
"o.5.[ ../ / 4.O.+.6.5.D s l R { ../ [ [ ../ / ..[ ",
"OX`.r. ./ #.#.{ X.+Xd.& * O ; ^ / / W / E E W E R ",
"b.B.7.7.u.7.8. .o.>.Z o.! m z t ) >.:.Q Q X.Q Q 0.",
"R.`.n.XX+XC.V.Z._ >.~ v.$.( z c l.U.F.0.g.(.w.p.#X",
"!.(.).'..X).Z.oXs.>.9.@.( k t ] T.H.p.,.l.l.q.H.@X",
"!.R.`.T..X`.A.XX!.I.E 9.6.A z ` N.N.g.,.q.q.3.&.D.",
"OXR.N.|.}.(.C.|.$XXXx y m : n 1.a.a.t.' ,.=.;.F i.",
"!.N.(.R._.(.M._.T.OX} A l 4 } t.l.m.d.=.*.&.;.H c.",
"p.0.V.1.(.B.r.z.t.).N.f.` s L H.Y.x.&.h %.%.U I J.",
"v ' | B 3.<.} l.T.oX$XQ.y._ l.W./.^.x.u 1 9 6 6 j ",
"5 d O.} ' S a.@X@X X X{.Q.U.P.L./.E. X;.  X $ . . ",
"+ J  .B l.P n..X^.[.[.^.W.U.J.E.P.D.k.3.* . o X X ",
"f X.` 0 V.:.H.).^.^.^.^.W.P.E.J.S.k.2.j.9   $ X X ",
"r.C.b 0 ) G Q.D.W.^.~.W.P.P.P.S.h.3.-.x.j   $ X X ",
"P v = % . H }.l.K.~.~.P.K.P.L.S.j.2.-.G.I X * % * "
};
