/* XPM */
static const char *micro_aglampor[] = {
/* columns rows colors chars-per-pixel */
"25 19 217 2 ",
"   c #17140B",
".  c #352E2B",
"X  c #3F362D",
"o  c #343733",
"O  c #7F1D2C",
"+  c #423829",
"@  c #433E39",
"#  c #433832",
"$  c #6E3D2E",
"%  c #7F2330",
"&  c #7A3337",
"*  c #510D18",
"=  c #4A423A",
"-  c #584B3D",
";  c #59533F",
":  c #71503D",
">  c #66623D",
",  c #773D56",
"<  c #554A4B",
"1  c #47504F",
"2  c #53534C",
"3  c #5A5548",
"4  c #4F5052",
"5  c #585A54",
"6  c #484A4A",
"7  c #69584C",
"8  c #785A4B",
"9  c #78584B",
"0  c #665C57",
"q  c #775D57",
"w  c #4F6153",
"e  c #696849",
"r  c #63615C",
"t  c #6C675D",
"y  c #746659",
"u  c #767753",
"i  c #696865",
"p  c #736D68",
"a  c #6C7268",
"s  c #7F7B69",
"d  c #6B7678",
"f  c #787470",
"g  c #7B7A75",
"h  c #747572",
"j  c #776D78",
"k  c #9E2C3B",
"l  c #8E2C32",
"z  c #AA2339",
"x  c #A32B3A",
"c  c #A52839",
"v  c #B1333D",
"b  c #8D402E",
"n  c #A5433A",
"m  c #AC573A",
"M  c #847D2D",
"N  c #B8673A",
"B  c #CA563F",
"V  c #9D2940",
"C  c #8B3D53",
"Z  c #A32444",
"A  c #AD3040",
"S  c #A02D54",
"D  c #B22E5D",
"F  c #B72E46",
"G  c #C22E5E",
"H  c #845C4A",
"J  c #B64C47",
"K  c #A95942",
"L  c #B35C44",
"P  c #B5594A",
"I  c #B85F57",
"U  c #8C6556",
"Y  c #866659",
"T  c #9C7552",
"R  c #B8624A",
"E  c #B36C5A",
"W  c #AF4B63",
"Q  c #BB4C6C",
"!  c #85746C",
"~  c #86766C",
"^  c #92796C",
"/  c #896F72",
"(  c #847B7C",
")  c #867B75",
"_  c #947C79",
"`  c #987D74",
"'  c #82636B",
"]  c #A36C66",
"[  c #A87B75",
"{  c #A4786D",
"}  c #C65A4C",
"|  c #D15241",
" . c #CB4654",
".. c #D84D57",
"X. c #CC4742",
"o. c #C6684A",
"O. c #D4654D",
"+. c #D3684C",
"@. c #CC6D58",
"#. c #D36450",
"$. c #D96B56",
"%. c #C07757",
"&. c #CF7A7F",
"*. c #D0706D",
"=. c #7E865D",
"-. c #7D806B",
";. c #918448",
":. c #8B8F5D",
">. c #BAB55A",
",. c #8A8766",
"<. c #83837A",
"1. c #978576",
"2. c #929E70",
"3. c #AC846E",
"4. c #A68679",
"5. c #A0967B",
"6. c #9FA17A",
"7. c #D8B95C",
"8. c #C1A26C",
"9. c #D7BD60",
"0. c #C6B67A",
"q. c #E5C759",
"w. c #DAC375",
"e. c #E6CF65",
"r. c #F4E37B",
"t. c #777981",
"y. c #8A7E82",
"u. c #D9598A",
"i. c #E85B9F",
"p. c #D67682",
"a. c #E67E87",
"s. c #5A888B",
"d. c #778486",
"f. c #6F9B9E",
"g. c #6E8B8C",
"h. c #898384",
"j. c #898A88",
"k. c #928B82",
"l. c #908D8A",
"z. c #839588",
"x. c #94918D",
"c. c #9D938A",
"v. c #938C94",
"b. c #889697",
"n. c #939393",
"m. c #9B9A93",
"M. c #9A9B9B",
"N. c #868F96",
"B. c #A4978A",
"V. c #A49997",
"C. c #B28F89",
"Z. c #9FA19C",
"A. c #98A780",
"S. c #A6A394",
"D. c #B5A598",
"F. c #B4AB8E",
"G. c #929AA7",
"H. c #B39FAA",
"J. c #A29CA6",
"K. c #82AAA8",
"L. c #90A4A2",
"P. c #A6A8A5",
"I. c #BAAAAC",
"U. c #B6A8A2",
"Y. c #AEB0AD",
"T. c #B7B1AE",
"R. c #B2ADB5",
"E. c #B9B8BA",
"W. c #A8AFB7",
"Q. c #D38488",
"!. c #CB9A95",
"~. c #EC9E94",
"^. c #CBAE91",
"/. c #E2A39C",
"(. c #CE98A5",
"). c #C1B4A3",
"_. c #B9C0AE",
"`. c #B7C0BD",
"'. c #F5EB8A",
"]. c #C1C0BE",
"[. c #D7C4B8",
"{. c #DDC5A9",
"}. c #E3C3B4",
"|. c #E7E3A4",
" X c #84BED3",
".X c #CCB5C9",
"XX c #91CFCA",
"oX c #9CD4D1",
"OX c #B5C5C7",
"+X c #85E3ED",
"@X c #8DCBF2",
"#X c #C6C9CC",
"$X c #D7CFCC",
"%X c #CED3CD",
"&X c #CDCFD3",
"*X c #D1CFD2",
"=X c #CFD8DD",
"-X c #D5D5DB",
";X c #D4D9DB",
":X c #D8DBDE",
">X c #D3D4D7",
",X c #D5D3C4",
"<X c #EFD8D2",
"1X c #E6D8CD",
"2X c #F0E5DF",
"3X c #E9E5D9",
"4X c #D5DCE2",
"5X c #DADEE2",
"6X c #DDE1E5",
"7X c #DCE5E9",
"8X c #E2E4EA",
"9X c #E8EAED",
"0X c #E9E7E6",
"qX c #E7EFF1",
"wX c #FDFDFD",
"eX c #F7F8F6",
"rX c #F8EBE2",
/* pixels */
";X:X5X6X8X5X6X6X7X4X4X8X=X7X4X-X;XqXwXeXwXwXwXwXwX",
":X:X:X6X9X:X7X5X:X8X-X*XR.P.#X-X&X#X9XwXwXwXwXwXwX",
"Z.Y.E.*X#X&X;X>X;X6X`.5 @ < g %X;X;X*X0XwXwXeXwXeX",
"= = 5 f p r h P.V.x.2 # _ / y k.M.h.j.m.l.x.j.n.<.",
"0 7 y t 0 p h.i c.p + ! C.C.4.y ~ ~ <.h i 2 0 0 4 ",
"U.).).D.B.V.T.( S.k.- 8 9 Y y y 1.D.n.z.Y.x.~ D.U.",
"1.1.5.u ,.; f v.rX[.Y U { [ Y 4.1X2X0Xb.m.s s F.|.",
"! + e > ,.; g E.,X[.4.U U Y Y D.3X$XM.OXV.t u :.=.",
"= . - - 3 5 ) W.n.i 1.: q 7 7 1./ r d..X) 5 2 3 e ",
"= . 6 a w 5 0 I.S.@ + 8 H H C.t.  o b.g.a k.l.-.f ",
"& l < i 5 2 ~ {.U.o @ ^ 9 $ !.U.1 1 J.G.d j j.j.m.",
"* k t t.( q B.F.0.3.^.4.T T ^.}..XN.b.N.d d d.h g ",
") 1.z.d.' Q (.!.$. .&.4.] U [ *. .[ _.R.v.<._ B.P.",
"z.m.T.S.^ p.Q.X.....| B J J } #.#...@./.~.8.A.V.<X",
"y.H.c.` Q.a.*.o.o.%.@.+.L R } I R R N ].@X X Xs.OX",
"h.v.C u.i.G F l z F z c Z Z c z F l n L.+XoXXXg.s.",
"P.( , S D W v l O.$.$.+.+.+.#.O.$.n O E '.e.w.r.2.",
"I.j.d d t.l.I P L o.R L L L L L m K b E >.7.7.q.9.",
"b.g.f.K.K.M.x l c A v x x x x x V % l ] 6.;.;.M ,."
};
