/* XPM */
static const char *micro_mle_brie[] = {
/* columns rows colors chars-per-pixel */
"25 19 206 2 ",
"   c #050503",
".  c #0E0906",
"X  c #0D0C0B",
"o  c #120D0C",
"O  c #190E08",
"+  c #170A01",
"@  c #13110E",
"#  c #1F160F",
"$  c #161414",
"%  c #191614",
"&  c #1F1A16",
"*  c #1C1B1A",
"=  c #23160C",
"-  c #221D1B",
";  c #281E1D",
":  c #28231F",
">  c #26211D",
",  c #35261C",
"<  c #242121",
"1  c #2D2622",
"2  c #2E2926",
"3  c #2E2828",
"4  c #392E24",
"5  c #332D2A",
"6  c #332926",
"7  c #3A3027",
"8  c #36312B",
"9  c #363433",
"0  c #3F3832",
"q  c #3C3536",
"w  c #42352D",
"e  c #533F2C",
"r  c #493C33",
"t  c #443E3B",
"y  c #443D37",
"u  c #494136",
"i  c #4C453F",
"p  c #574738",
"a  c #5C4C3F",
"s  c #644D3D",
"d  c #4C4544",
"f  c #4A4747",
"g  c #504740",
"h  c #534A42",
"j  c #5B4A44",
"k  c #514C4A",
"l  c #584F48",
"z  c #545047",
"x  c #56514E",
"c  c #5F554C",
"v  c #4D4E50",
"b  c #5F5852",
"n  c #5C5656",
"m  c #625246",
"M  c #64574C",
"N  c #66584F",
"B  c #6A5B4D",
"V  c #695E42",
"C  c #735B4F",
"Z  c #615650",
"A  c #645A52",
"S  c #6C5F52",
"D  c #635D5A",
"F  c #7F5F52",
"G  c #715F55",
"H  c #6D6156",
"J  c #726253",
"K  c #7D6C5C",
"L  c #7A655A",
"P  c #696362",
"I  c #6F6862",
"U  c #6E6A6B",
"Y  c #766C63",
"T  c #7B6F64",
"R  c #736E6B",
"E  c #7A7469",
"W  c #6F6D70",
"Q  c #7A7373",
"!  c #7B7C7D",
"~  c #757273",
"^  c #836C5C",
"/  c #896B5D",
"(  c #867667",
")  c #88796A",
"_  c #87756B",
"`  c #957964",
"'  c #817974",
"]  c #847C7A",
"[  c #8C7972",
"{  c #92816E",
"}  c #9A846D",
"|  c #8A807D",
" . c #928271",
".. c #9C8672",
"X. c #9B8975",
"o. c #95897E",
"O. c #9C8C7A",
"+. c #948679",
"@. c #9D9276",
"#. c #A3846D",
"$. c #A48672",
"%. c #A38B76",
"&. c #A38D7A",
"*. c #A98E79",
"=. c #A6917C",
"-. c #AE947D",
";. c #A7997F",
":. c #AA997D",
">. c #B0947D",
",. c #B3997D",
"<. c #7E7E80",
"1. c #878A8E",
"2. c #8B8784",
"3. c #948E8E",
"4. c #9C8B83",
"5. c #9E9384",
"6. c #9C948E",
"7. c #97928C",
"8. c #8B9094",
"9. c #9D9791",
"0. c #9D9995",
"q. c #93959A",
"w. c #97989C",
"e. c #A08E80",
"r. c #AC9583",
"t. c #A2958C",
"y. c #AA9788",
"u. c #A79988",
"i. c #B39785",
"p. c #B49A83",
"a. c #B39C8C",
"s. c #A49C95",
"d. c #AD9E93",
"f. c #A49D99",
"g. c #B9A38C",
"h. c #ADA49C",
"j. c #BAA593",
"k. c #B7AA9B",
"l. c #B8A996",
"z. c #A49FA3",
"x. c #9DA4AE",
"c. c #AAA4A6",
"v. c #AFA8A2",
"b. c #A7A5A8",
"n. c #A0A4A5",
"m. c #B6ABA3",
"M. c #BFB1A4",
"N. c #B5B2AE",
"B. c #BCB3AC",
"V. c #A8AEB3",
"C. c #B9AFB0",
"Z. c #AFB2B3",
"A. c #B7B8BB",
"S. c #C2A78C",
"D. c #C0A791",
"F. c #C5AD9A",
"G. c #C8B398",
"H. c #C4B3AB",
"J. c #C4B8AA",
"K. c #CEBFAC",
"L. c #C6BBA5",
"P. c #D2B1A0",
"I. c #C3BDBB",
"U. c #C6BAB3",
"Y. c #C3C0B7",
"T. c #CAC2B6",
"R. c #CBC3BC",
"E. c #C2C4BF",
"W. c #D3C4B1",
"Q. c #DDCEBB",
"!. c #DDD5B9",
"~. c #E4C2A7",
"^. c #BEBBC4",
"/. c #CECAC4",
"(. c #C5C6CA",
"). c #C3C8CB",
"_. c #D8CDC5",
"`. c #D6CFC7",
"'. c #D9D1C7",
"]. c #D5D1CC",
"[. c #DBD3CB",
"{. c #D4D7C6",
"}. c #C8CDD0",
"|. c #DDDCD5",
" X c #DEDCDC",
".X c #D2D6D9",
"XX c #E6DEC7",
"oX c #EDDAC9",
"OX c #E3DCD5",
"+X c #EBDDD5",
"@X c #E3DFDD",
"#X c #DDE0D9",
"$X c #E3E0DD",
"%X c #EBE4DC",
"&X c #F9ECDC",
"*X c #ECE5E2",
"=X c #ECEAE6",
"-X c #F2ECE4",
";X c #F0EFEA",
":X c #F9EFED",
">X c #F3F2EA",
",X c #F9F3E7",
"<X c #F4F5F3",
"1X c #FCF9F5",
"2X c #FFFDFD",
"3X c #F8F2F4",
/* pixels */
"N r , m S J J J ^  .a + # & - * 1 2 0 y 1 5 2 5 5 ",
"G.O.S h N L J ^ { K H b k x i h h g h N c N A A A ",
"2X*X_ ^ *.=. .T K ) ( H S B J B S B M B B m M B N ",
"J.k.X.=.r.D.j... .{ ` $.%.#.%.%.%.&.=...%.=.%...%.",
"W.j.g.p.>.S.p.,.K.oXW.r.r.i.>.-.r.p.p.p.p.-.-.-.=.",
":X+Xa.>.,.G.,.:.F.&Xm.8 t E y.=.&.O...%.....%...} ",
"W.k.t.'.T.M.l.j.5.o.j o.T 7 A Y t._.J.+.k.u.) M.OX",
"<X@X X1X-X`.-XT.7.T *.~.#.e l Z.|./.I.h.%X'.6.%X2X",
"{.OX-XOX3X!.*X|.E.K ` $./ L p Y.$X].s.t.U.s.v.$X1X",
"|.OX@X|.3X!.-X#X;Xd.F.P.` ..w 9.].].f.h.s.6.' 2.].",
">XR.*X=X=XXXOX>X1XU.C i.F j O I T.B.9.| | ] R P C.",
"R._.[./.-XL.+XR.%XI.= / / w . T [.[.f.2.3.~ Q Q ^.",
"d.H.u.2.,XX.J.s./.0.O s / 4 % z h.0.D k W n k P q.",
"T [ ;.' 5.O.t.s.].0.; , e.w @ ~ N.D @ $ % * * * d ",
"4 4.@.| o._ T ]. X! & 8 h.r - V..XA.% X X X X X 5 ",
"u h.V ] '.j | <X).U o ~ N., t x.V.A.v   . X X   9 ",
"K.Q.e O.m.; z.<XI.D & ! (.2 Q 1.Z.).!   o o o X 9 ",
"m.Y = u 5 2 *X$Xc.b : <.A.q 3.w.8.).n.% o $ o X - ",
"q - -   $ x N.[.c.D > 1.b.d 0.q.1.}.(.q < 3 - < f "
};
