/* XPM */
static const char *micro_gbricot[] = {
/* columns rows colors chars-per-pixel */
"25 19 199 2 ",
"   c #381905",
".  c #3C210E",
"X  c #2E231D",
"o  c #25222B",
"O  c #2A252B",
"+  c #252B3D",
"@  c #2C2B3C",
"#  c #272739",
"$  c #34313A",
"%  c #4A2D19",
"&  c #553016",
"*  c #523A2A",
"=  c #423D3A",
"-  c #5C4639",
";  c #584131",
":  c #704228",
">  c #604438",
",  c #724F33",
"<  c #6E553F",
"1  c #68462B",
"2  c #2C2F40",
"3  c #312F44",
"4  c #2E3346",
"5  c #343343",
"6  c #3A3745",
"7  c #353449",
"8  c #363A4B",
"9  c #3C3A4B",
"0  c #363745",
"q  c #3A3F52",
"w  c #4A3D49",
"e  c #59524C",
"r  c #464456",
"t  c #484B5C",
"y  c #6A5445",
"u  c #665E51",
"i  c #725E53",
"p  c #7F654E",
"a  c #6C635C",
"s  c #7E6A5D",
"d  c #5E5D62",
"f  c #5A5B6A",
"g  c #5F6668",
"h  c #656066",
"j  c #6A7276",
"k  c #6A777A",
"l  c #737B7D",
"z  c #717075",
"x  c #787265",
"c  c #A46438",
"v  c #9E5C4C",
"b  c #9C724C",
"n  c #8B6B5E",
"m  c #986E55",
"M  c #82715D",
"N  c #93775F",
"B  c #A26846",
"V  c #A0765E",
"C  c #B47959",
"Z  c #8D7A65",
"A  c #877F6F",
"S  c #8B7B6A",
"D  c #817066",
"F  c #937E6A",
"G  c #9A7B69",
"H  c #8F7F72",
"J  c #827D79",
"K  c #937F71",
"L  c #AD7E64",
"P  c #B67F6A",
"I  c #AD8059",
"U  c #8F806D",
"Y  c #94826E",
"T  c #81837D",
"R  c #938274",
"E  c #9A8575",
"W  c #9E8B74",
"Q  c #9D8B7A",
"!  c #96867C",
"~  c #AC8469",
"^  c #B88765",
"/  c #A28C79",
"(  c #A88F77",
")  c #BA8977",
"_  c #A5917C",
"`  c #C69679",
"'  c #D39C7A",
"]  c #6F7E85",
"[  c #777E86",
"{  c #7A838D",
"}  c #7D868B",
"|  c #798D94",
" . c #898785",
".. c #9E8D83",
"X. c #938883",
"o. c #818C94",
"O. c #828E9A",
"+. c #889598",
"@. c #979598",
"#. c #AE8D86",
"$. c #A59282",
"%. c #AB9683",
"&. c #AF9883",
"*. c #A3958B",
"=. c #A79A8C",
"-. c #AB9B8C",
";. c #B19A86",
":. c #B29D8B",
">. c #B59181",
",. c #A69B91",
"<. c #AB9F97",
"1. c #B59D99",
"2. c #ADA08F",
"3. c #ADA49B",
"4. c #AAA29A",
"5. c #B4A393",
"6. c #B3A49A",
"7. c #BCAA9C",
"8. c #B9A799",
"9. c #95A2A5",
"0. c #A3AAA8",
"q. c #BDABA1",
"w. c #B9AFAA",
"e. c #B7AEA8",
"r. c #BFB3AC",
"t. c #BEB8AC",
"y. c #A8AEB3",
"u. c #A7B1B3",
"i. c #B7B7B7",
"p. c #B7B7B8",
"a. c #C09B89",
"s. c #C0A68F",
"d. c #DBAC8E",
"f. c #D5B28A",
"g. c #C1AC9D",
"h. c #C7A89A",
"j. c #DCAD94",
"k. c #DCA89D",
"l. c #DAB19B",
"z. c #C2AFA1",
"x. c #CDADA2",
"c. c #C3B1A5",
"v. c #CAB6A6",
"b. c #CBB3AA",
"n. c #C6B9AD",
"m. c #C6B7AA",
"M. c #C5BFBE",
"N. c #C8BDB7",
"B. c #D7BEBA",
"V. c #E8B9AE",
"C. c #B1C0BD",
"Z. c #CFC0B9",
"A. c #DDC5BA",
"S. c #D4C7B6",
"D. c #E6C1AF",
"F. c #E3C5B8",
"G. c #B4BEC0",
"H. c #BBC3C5",
"J. c #C4C3C4",
"K. c #C4C7C9",
"L. c #C4CACC",
"P. c #CBCAC8",
"I. c #D2CBC5",
"U. c #D6C9C6",
"Y. c #CBD1CF",
"T. c #DAD3CD",
"R. c #C3CCD7",
"E. c #D2CFD8",
"W. c #D4D5D2",
"Q. c #DFD7D1",
"!. c #D4D8D7",
"~. c #E5CDC7",
"^. c #ECD3CE",
"/. c #EADEDE",
"(. c #E0DDD8",
"). c #FEDFD9",
"_. c #F6DBD7",
"`. c #E9E2DC",
"'. c #F1E2DF",
"]. c #F2E9DA",
"[. c #DDDEE1",
"{. c #D6E5E0",
"}. c #E2EBE3",
"|. c #EBEBEE",
" X c #EAE6E7",
".X c #F2EDE3",
"XX c #F3EFEF",
"oX c #FFEFEC",
"OX c #FFE8E4",
"+X c #EEF0EF",
"@X c #FFF3EF",
"#X c #EAEEF1",
"$X c #ECF2F2",
"%X c #F2F5F3",
"&X c #F8F5F2",
"*X c #FDFAF5",
"=X c #F3F6FA",
"-X c #FDFEFD",
";X c #F0F9FE",
/* pixels */
"Z R K F s  .-X-X-X*X`.n.-.E / / Q Q _ / / _ E K _ ",
"S K F F S ! Q.T.c.=.Q / &.$.$.Q / / Q Q R R A u a ",
"S S R F Z D R S H E $.Z < p N ( ..*.t.I.(.`.!.g j ",
"E E E Y U H R W Q R - ; % % 1 , t.*X-X-X-X-X=Xo.u.",
"( %.%._ Q ...._ ;.* - s y > %   M ]..X&X&X.XXX} 9.",
"&.&.&.%.Q *.*.$.$.i ~.OX^.x.G & . q.-X*X*X-X|.l l ",
":.:.:.;.$.*.,.=.=...@XoX).D.j.B * `.=X#X%X%X$X| [ ",
"5.-.5.:.%.=.=.-.&.E A.B.~.>.m ^ y .X%X$X&X*X-Xy.+.",
"8.s.5.5.-.-.,.5.6.h.b.#.l.~ V ` c A.p.9.J.*XXX| l ",
"7.g.g.7.8.3.3.5.2.F._.).V.P j.' ) /.y.+.0.%X+X] T ",
"e.7.7.7.5.<.3.8.8.S.OX_.k.v L ` :.&X[.}.}.$X#Xo. .",
"i.7.z.c.7.6.4.7.8.I././.V.) ~ b A |.E.P.P.}. XO.j ",
"M.q.c.g.g.6.,.g.q.w.W.'.F.` C I x ;XR.l H.%X|.{ d ",
"M.7.c.g.g.7.<.c.7.w.}.Z.n : c ' f.U.L.C.{.$X|.O.g ",
"J.c.v.v.g.6.4.6.n.i.0.'.^.a.j.l.d.- = T Y.[.#X9.{ ",
"K.r.z.c.z.N.W.Q.X.0 w U. X1.=.J w @ @ $ 6 d @.j +.",
"L.c.z.v.8.T.R.f 3 4 @ 8 t @ 8 @ # 9 9 0 r 5 $ h G.",
"K.e.m.c.n.@.+ # 7 q 3 8 @ 7 4 9 9 5 @ 5 6 0 o O u.",
"Y.e X x X.d + 9 7 4 r 2 7 9 4 7 9 # @ 6 # 6 o o z "
};
