/* XPM */
static const char *micro_acoste[] = {
/* columns rows colors chars-per-pixel */
"25 19 198 2 ",
"   c #211A10",
".  c #3B271C",
"X  c #0E1623",
"o  c #311E22",
"O  c #2A2927",
"+  c #322B28",
"@  c #2A2B32",
"#  c #2E3434",
"$  c #3C3C3B",
"%  c #373436",
"&  c #373621",
"*  c #7F161D",
"=  c #7A1F2E",
"-  c #453C2B",
";  c #483B3D",
":  c #563C3D",
">  c #464339",
",  c #484639",
"<  c #544E3F",
"1  c #505338",
"2  c #62453F",
"3  c #793B54",
"4  c #4C4940",
"5  c #554745",
"6  c #4D5549",
"7  c #5A544A",
"8  c #575753",
"9  c #5E5C55",
"0  c #624A45",
"q  c #784F4D",
"w  c #63584B",
"e  c #635B56",
"r  c #74504F",
"t  c #5A665A",
"y  c #64614D",
"u  c #6D6749",
"i  c #6A665D",
"p  c #756A5A",
"a  c #6D7550",
"s  c #7C7C5E",
"d  c #7C7759",
"f  c #5F6B69",
"g  c #6C6B6A",
"h  c #6B6968",
"j  c #716D65",
"k  c #786965",
"l  c #797768",
"z  c #696E71",
"x  c #6B7475",
"c  c #757673",
"v  c #7B7A76",
"b  c #9A3351",
"n  c #AF2B5A",
"m  c #C1316E",
"M  c #815F56",
"N  c #9A4258",
"B  c #9F754F",
"V  c #886757",
"C  c #827B5F",
"Z  c #96715B",
"A  c #997054",
"S  c #87614A",
"D  c #A37A5B",
"F  c #A44968",
"G  c #887469",
"H  c #957D69",
"J  c #827674",
"K  c #837B72",
"L  c #8A757A",
"P  c #816774",
"I  c #A77569",
"U  c #D5527C",
"Y  c #C26168",
"T  c #6B8071",
"R  c #7F8375",
"E  c #B39238",
"W  c #BBA039",
"Q  c #82837D",
"!  c #878278",
"~  c #938F7D",
"^  c #9C8579",
"/  c #8F9A70",
"(  c #9D907F",
")  c #979E6B",
"_  c #A38D7B",
"`  c #A88873",
"'  c #AA9976",
"]  c #B0A56D",
"[  c #A5A37D",
"{  c #C09874",
"}  c #DFC151",
"|  c #E6CD56",
" . c #FCDF79",
".. c #7F7689",
"X. c #837E84",
"o. c #927F83",
"O. c #DE7E89",
"+. c #EA5FA2",
"@. c #58848F",
"#. c #6B8D8E",
"$. c #7C8989",
"%. c #6F9D9A",
"&. c #77968E",
"*. c #7AA59C",
"=. c #79ADAD",
"-. c #6FDCF9",
";. c #8C8D85",
":. c #878986",
">. c #988E86",
",. c #93948A",
"<. c #9D9689",
"1. c #969898",
"2. c #A19484",
"3. c #A3978E",
"4. c #B69688",
"5. c #97A39C",
"6. c #BFA38D",
"7. c #BDB08E",
"8. c #A7A398",
"9. c #B2AB9F",
"0. c #B4A796",
"q. c #B9B09F",
"w. c #9E9FA1",
"e. c #A39FA0",
"r. c #9DA8B1",
"t. c #A8A8A4",
"y. c #B9A9A3",
"u. c #ABB6A7",
"i. c #BDB2A3",
"p. c #BBB5AA",
"a. c #B7BBA9",
"s. c #B1AFB4",
"d. c #AABBB8",
"f. c #B2B4B1",
"g. c #BCBEBC",
"h. c #B9B9B4",
"j. c #C1948E",
"k. c #CB8C9F",
"l. c #D19EAF",
"z. c #CFA3A4",
"x. c #C4BAAE",
"c. c #C3BDB5",
"v. c #C1BCBA",
"b. c #CFB9B3",
"n. c #D5BAB1",
"m. c #BCC1BB",
"M. c #BCC4AD",
"N. c #C5D08C",
"B. c #D9D78A",
"V. c #E2D29E",
"C. c #CBD1AF",
"Z. c #D8D0A2",
"A. c #C4C4B4",
"S. c #C5C1BB",
"D. c #CCC5BD",
"F. c #D7CCBA",
"G. c #EBD5BD",
"H. c #D0BCC5",
"J. c #ABC9D1",
"K. c #B9CAD2",
"L. c #92DEF8",
"P. c #C1C3C3",
"I. c #CBC7C1",
"U. c #CDCAC3",
"Y. c #C4CDCC",
"T. c #CDCDCC",
"R. c #C7C5C8",
"E. c #D1CAC3",
"W. c #D3CCC9",
"Q. c #C5D1CC",
"!. c #D3D1CA",
"~. c #D9D3CA",
"^. c #D9D1C6",
"/. c #CACBD4",
"(. c #D4CCD4",
"). c #CCD2D5",
"_. c #C8D3D8",
"`. c #D4D5D2",
"'. c #D5D9DB",
"]. c #D9DBDD",
"[. c #D6D7D9",
"{. c #E0DADC",
"}. c #DBE2DE",
"|. c #DFE0D2",
" X c #DBDEE2",
".X c #D6DDE7",
"XX c #C9D5E1",
"oX c #C4E0E4",
"OX c #DCE1E4",
"+X c #D9E2E8",
"@X c #E3E4E5",
"#X c #E4E8E9",
"$X c #F4ECE1",
"%X c #F5F7F3",
"&X c #FBF6F1",
"*X c #FDFDFC",
"=X c #FCFDF6",
"-X c #E1EAF3",
/* pixels */
"'. X X X#XOX@XOXOX[.`.`.Y._.Y.Y.`.%X&X&X*X*X*X=X*X",
"}.].].].}.}.].].]. X.X+X#X@X X'.'.`.%X*X*X*X*X*X*X",
"f.g.T.'.`.}.OX]. XOX+X-X).T.`. X.X X'.%X*X*X*X*X=X",
", 4 e :.v c ;.f.f.u.h.g z x Q c.P.g.g.R.`.`.[.@X!.",
"< w 7 w e 9 j h ;.l > O @ @ $ i ! K Q Q g i h h 8 ",
"i.0.i.8.~ <.h.c <.8.7 + 5 5 ; $ p <.;.Q ;.j i ! 9 ",
"( 2.0.C s y :.X.^.D.i 0 r V 0 : 2.~.P.1.8.~ l a.Z.",
"G - u u s & j s.|.F.6.Z V ` V ` $X=X).w.;.p d [ ) ",
"- + , 1 5 0 v g.1.p 2.Z I I D 4.0.L 1._.v y w a s ",
", o $ t 6 6 9 e.1.> $ G Z M H k # < 5.1.K c e 7 p ",
"2 = : 8 e , l G.9.  @ ^ D S ` J X % J.$.i ,.1.1.,.",
". * q x c 7 ^ { 0.>.R.4.B A Z x.H...r.$.g v R c t.",
"J G :.$.k N k.A.[.@X+XD._ _ 0.!.}.oXd.1.:.T >.:.;.",
"$.1.f.8.H Y l..X'.'._.`.D.I.I.Q.).XXOXH.4.' ^ b.n.",
"J t.,.H j.O.b.[.'.].`.W.W.A.S.T.)./.K.(.y.a.5.w.~.",
"o.1.r U +.m z.A./.{.`.(.S.M.E./.(.Q.h.m.L.-.=.@.J.",
"u.P 3 b n F n.q.c.~.E.U.v.I.U.U.T.S.y.f.C.B.N./ &.",
"h.:.x f g :.E.y.p.D.S.S.v.U.I.S.g.f.3.i.V.} |  .] ",
"u.#.%.*.*.d.`.p.9.x.p.h.S.!.S.v.a.8.8.v.7.E W E ' "
};
