/* XPM */
static const char *micro_cvu[] = {
/* columns rows colors chars-per-pixel */
"25 19 183 2 ",
"   c #0B0503",
".  c #0D0B0A",
"X  c #0F0A04",
"o  c #150D06",
"O  c #100708",
"+  c #120D0B",
"@  c #180E0A",
"#  c #0F100A",
"$  c #1D1000",
"%  c #15110D",
"&  c #1B120C",
"*  c #1B190D",
"=  c #151414",
"-  c #1C1614",
";  c #1B1A1C",
":  c #25180F",
">  c #311700",
",  c #261C1C",
"<  c #261816",
"1  c #35281F",
"2  c #35241C",
"3  c #1C1B23",
"4  c #211F20",
"5  c #222222",
"6  c #2A2422",
"7  c #272729",
"8  c #2E2A27",
"9  c #302C29",
"0  c #332729",
"q  c #3F3229",
"w  c #34332F",
"e  c #383637",
"r  c gray20",
"t  c #4B260C",
"y  c #572202",
"u  c #422716",
"i  c #502C16",
"p  c #5A3F2C",
"a  c #4C3837",
"s  c #413E38",
"d  c #4D3F3C",
"f  c #583C30",
"g  c #533E3D",
"h  c #453828",
"j  c #5F402E",
"k  c #4A423F",
"l  c #5A433D",
"z  c #6F4628",
"x  c #7E4927",
"c  c #75462C",
"v  c #774D34",
"b  c #7C573C",
"n  c #3A3D44",
"m  c #4A4849",
"M  c #434343",
"N  c #54514D",
"B  c #5B5956",
"V  c #664E42",
"C  c #6C544A",
"Z  c #655A59",
"A  c #7F634E",
"S  c #6F6357",
"D  c #68605D",
"F  c #7A685A",
"G  c #6E6663",
"H  c #756E68",
"J  c #796D62",
"K  c #7D7165",
"L  c #7C756A",
"P  c #7E7C76",
"I  c #7C7A7B",
"U  c #88491E",
"Y  c #86502A",
"T  c #8E552A",
"R  c #854C31",
"E  c #925336",
"W  c #AB663C",
"Q  c #815D43",
"!  c #9B6348",
"~  c #AD7044",
"^  c #AB7253",
"/  c #B37E5E",
"(  c #8C6F61",
")  c #897960",
"_  c #83766A",
"`  c #8B7C6D",
"'  c #847C74",
"]  c #8C7E72",
"[  c #867E7A",
"{  c #A37867",
"}  c #A57662",
"|  c #B87E65",
" . c #97826F",
".. c #8E8274",
"X. c #8C847B",
"o. c #83847C",
"O. c #928579",
"+. c #96897C",
"@. c #98887B",
"#. c #BF866B",
"$. c #B58C76",
"%. c #D3936F",
"&. c #C28570",
"*. c #D18E71",
"=. c #C89079",
"-. c #DF977F",
";. c #868781",
":. c #8F8880",
">. c #868789",
",. c #938B82",
"<. c #9C8E82",
"1. c #9C8E8B",
"2. c #9B9185",
"3. c #93938E",
"4. c #9D948D",
"5. c #9D9A94",
"6. c #979796",
"7. c #A0958B",
"8. c #A89A8D",
"9. c #B39980",
"0. c #A59C92",
"q. c #A79C9A",
"w. c #A9A094",
"e. c #A4A29C",
"r. c #ADA49C",
"t. c #AEAA9F",
"y. c #ACAAA7",
"u. c #B4ADA3",
"i. c #AFB0AA",
"p. c #BDB6AD",
"a. c #BDB6B0",
"s. c #B5B6B3",
"d. c #C89A83",
"f. c #CAA18B",
"g. c #D5A68C",
"h. c #DAAB8A",
"j. c #D6A084",
"k. c #CDA999",
"l. c #C2BBAE",
"z. c #DCB6A1",
"x. c #C0BCB2",
"c. c #E8BEA5",
"v. c #C4C0B7",
"b. c #C6C4BE",
"n. c #CDC9BE",
"m. c #F3C6AF",
"M. c #EFCAB8",
"N. c #FFD0B1",
"B. c #C8C7C5",
"V. c #CCCAC2",
"C. c #CACCC9",
"Z. c #D2CBC3",
"A. c #D2C9CA",
"S. c #D6D3CA",
"D. c #DEDACF",
"F. c #DBD7CC",
"G. c #D5D5D3",
"H. c #DAD5D1",
"J. c #DCDBD5",
"K. c #DCDDDB",
"L. c #F0D7C3",
"P. c #F8D1C0",
"I. c #E3DCD7",
"U. c #E3DED9",
"Y. c #EDD5D3",
"T. c #E7E4DD",
"R. c #DEDFE1",
"E. c #E1DFE0",
"W. c #DEE2E3",
"Q. c #E3E3E5",
"!. c #EDEBE6",
"~. c #EAEAEA",
"^. c #F5EFEA",
"/. c #EBF0EA",
"(. c #F4F3ED",
"). c #F8F5EE",
"_. c #E9EDF0",
"`. c #F2EDF4",
"'. c #F6F6F3",
"]. c #FBF6F4",
"[. c #FDFBF6",
"{. c #F9F7F8",
"}. c #FEFDFD",
/* pixels */
"}.~.5.o.b.B.4.' ' _ _ ' L K _ H w.r.O.] ] ..` ] ] ",
"}.}.!.P 3.i.H.u.:.+.J S K ` _ P L _ ] ` ......' ] ",
"}.}.!.J.'.3.y.I.p.q : @ 1 F O.[ X.X.] O.+...X.p.l.",
"}.}.(.H.}.{.e.i.N     .   & J 3.X.,.@.<.O.r.U.}.n.",
"}.}.(.J.}.}.'.;.2 V ( j i t p <.,.2.<.O.u.[.}.}.V.",
"}.}.).U.}.}.}.b.f f.N.%.W ~ b O.4.2.2.w.^.}.}.}.S.",
"}.}.(.K.}.}.}.U.C k.d.! E x A 5.0.7.2.Z.}.}.}.}.b.",
"}.}.'.J.}.}.}.I.$.m.} v ^ y Q 8.7.8.0.^.}.}.}.}.V.",
"[.}.(.F.}.}.[.Y.-.L.g.*.h.U ^ q.7.0.u.[.}.}.}.}.S.",
"}.}.].D.}.}.}.].P.M.g.| #.T / y.0.0.t.[.}.}.}.}.x.",
"A.`.(.v.}.}.}.[.t.z.h.&.E Y v B r.4.x.}.[.}.}.{.n.",
"J._.'.D.}.}.'.1.6 9.j.=.R c $   [ a.Z.[.}.}.}.}.n.",
"/.}.).n.}.}.G a Z ) c.| z u & & , D ' [.H.G.{.}.a.",
"(.}.T.l.}.Q.s d g h  .{ > * < o -     k N e.}.}.C.",
"~.}.!.p.}.6.5 6 0 -   l < % - + + - - + X 5.}.}.s.",
"W.}.K.e.E.n 5 , 3 = + + O @ # + % + + - o s {.}.5.",
"Q.'.~.I e = 4 3 7 ; . . . + . + & + % = + = N >.Z ",
"R.~.Q.m = ; 5 ; 5 ; + . + + + + % % = % % % 5 7 8 ",
"K.G.Q.M = ; = ; ; ; = + % + + % % = = % + = 9 r w "
};
