/* XPM */
static const char *micro_jmetezea[] = {
/* columns rows colors chars-per-pixel */
"25 19 180 2 ",
"   c #060300",
".  c #0E0500",
"X  c #0E0B05",
"o  c #0D0D09",
"O  c #110705",
"+  c #1F0900",
"@  c #120E0B",
"#  c #180D0C",
"$  c #120B05",
"%  c #0B1009",
"&  c #15120D",
"*  c #1A130D",
"=  c #151414",
"-  c #1A1411",
";  c #1D1814",
":  c #151B11",
">  c #200F07",
",  c #201406",
"<  c #29180B",
"1  c #311A0A",
"2  c #3E1B05",
"3  c #231A16",
"4  c #251814",
"5  c #39240F",
"6  c #3A2216",
"7  c #252326",
"8  c #39392D",
"9  c #373431",
"0  c #431F11",
"q  c #54280B",
"w  c #492211",
"e  c #43281D",
"r  c #48281A",
"t  c #5C2F18",
"y  c #58371B",
"u  c #63371E",
"i  c #693619",
"p  c #693513",
"a  c #652816",
"s  c #4B2B21",
"d  c #4F3524",
"f  c #5F3A2A",
"g  c #523223",
"h  c #423731",
"j  c #443F39",
"k  c #603223",
"l  c #6A3120",
"z  c #663926",
"x  c #6D3C2C",
"c  c #723B27",
"v  c #55452E",
"b  c #49433E",
"n  c #50493F",
"m  c #6C4023",
"M  c #6C4229",
"N  c #7B4123",
"B  c #664B3A",
"V  c #744234",
"C  c #714836",
"Z  c #7E4E37",
"A  c #734C3B",
"S  c #75563A",
"D  c #54524E",
"F  c #59544E",
"G  c #5F5E5C",
"H  c #6B5A52",
"J  c #7D604E",
"K  c #756558",
"L  c #7C6958",
"P  c #71695C",
"I  c #7F6B60",
"U  c #7A7471",
"Y  c #8F4A29",
"T  c #904329",
"R  c #89512C",
"E  c #8A4D3B",
"W  c #895533",
"Q  c #925735",
"!  c #9E563D",
"~  c #935939",
"^  c #A55C3A",
"/  c #A25D36",
"(  c #8E5C41",
")  c #875648",
"_  c #915F56",
"`  c #9E6341",
"'  c #9F604E",
"]  c #856058",
"[  c #B76E4B",
"{  c #BA7349",
"}  c #A1615F",
"|  c #87766E",
" . c #817D71",
".. c #A97760",
"X. c #A2766B",
"o. c #B07E67",
"O. c #858176",
"+. c #8C8373",
"@. c #92877B",
"#. c #948B7D",
"$. c #888886",
"%. c #8C8C8A",
"&. c #918B86",
"*. c #968C8A",
"=. c #929084",
"-. c #9C9285",
";. c #94938D",
":. c #9D938B",
">. c #9F9A8B",
",. c #9C9A94",
"<. c #9D9D9C",
"1. c #A19284",
"2. c #A1928A",
"3. c #A49A8C",
"4. c #AC9A88",
"5. c #A29791",
"6. c #A49A92",
"7. c #AC9D95",
"8. c #AEA48B",
"9. c #A5A196",
"0. c #AAA297",
"q. c #A6A19D",
"w. c #ACA39B",
"e. c #A6A5A3",
"r. c #ADA6A2",
"t. c #AEAAA3",
"y. c #B9ADA1",
"u. c #BEAFAC",
"i. c #BBBBAB",
"p. c #AFAFB1",
"a. c #B6B7B4",
"s. c #BBB4B0",
"d. c #BEBCB5",
"f. c #CBAFA3",
"g. c #C5ACA5",
"h. c #C3BDAD",
"j. c #C3BBB3",
"k. c #C2BDB9",
"l. c #C8C1B7",
"z. c #C2C3BC",
"x. c #C8C3BC",
"c. c #CCC8BF",
"v. c #D7C5BB",
"b. c #DEC5BE",
"n. c #C4C3C3",
"m. c #CCCBC6",
"M. c #C8C9CD",
"N. c #C4C6C5",
"B. c #D2CDC4",
"V. c #D3CEC8",
"C. c #DDD7C7",
"Z. c #D2D3CC",
"A. c #DCD3CB",
"S. c #D4D4D5",
"D. c #D6D7D9",
"F. c #DEDEDC",
"G. c #DCD9D2",
"H. c #E8D6CA",
"J. c #EEE8DC",
"K. c #DDDEE0",
"L. c #E4E3E3",
"P. c #E0E9E6",
"I. c #EBEAE6",
"U. c #E7EBEC",
"Y. c #E8E9ED",
"T. c #E3E2EA",
"R. c #F1EEE9",
"E. c #F8EFE8",
"W. c #EAF1EA",
"Q. c #F3F1ED",
"!. c #EFEDF2",
"~. c #EEF2F5",
"^. c #F3F3F3",
"/. c #F9F6F4",
"(. c #F4FAF7",
"). c #FCFAF7",
"_. c #F6F6FA",
"`. c #FAF7F9",
"'. c #FEFEFD",
"]. c #F5FBFB",
/* pixels */
" .n.T.N.9.-.-.#.*.@.@.@.#.O.&.:.-.:.:.-.1.1.2.-.6.",
",.e.p.L.G.s.5.3.;.-.-.:.:.,.,.=.2.:.:.>.-.5.w.h./.",
"A.'.a.,.I.L.k.>.3.4.3.@.I K +.8.3.7.w.3.t.L.Q.i.'.",
"A.).'.m.<.!.^.d.7.w.P , > + 1 L 0.w.6.j.'.'.^.i.'.",
"C.'.'.'.z.a._.U.u.U d M f x i 2 +.w.j.'.'.'./.l.'.",
"C.'.'.'.'.e.Y.'.A.H ..^ ! ^ { p v y.R.'.'.'./.c.'.",
"B.'.'.'.'.S.M.'.W.| X.E ~ N W Q y v.'.].'.'.^.m.'.",
"A.'.'.'.'._.N.'.(.4.] s ( q t ^ u b.'.'.'.).).Z.'.",
"V.).'.'.'.'.S.^.'.g.' W ` T R [ Y H.'.'.'.'.'.N.'.",
"V.'.'.'.'.'.D.^.'.A.} V A l N / o.E.'.'.'.'.`.z.'.",
"k.Q.'.'.'.'.K.~.'.J._ x z a p ~ f.).'.'.'.'.`.B.'.",
"d.).'.'.'.'.L.U.'.A.J S Z c y m h F.'.).'.'.'.l.'.",
"V./.'.'.'.'.L.^.P.b e B g r 5 w * F V.B.'._.(.q.).",
"s./.'.^.).'.m.G 7 X s ) k 0 6 4 & * * n r./.'.t./.",
"r./.'.)./.&.9 @ 3 & 1 C V r < o & 4 ; @ O j Z.x.).",
"q.I.'.'.U $ 3 * - * : o * % & # & # = = 3 . 8 q.'.",
"$.L.'.e.@ ; ; & & & & & @ @ @ @ & @ & - @ - X b z.",
";.F./.9 & - @ & @ @ @ @ @ @ @ @ @ - @ @ & * @ - D ",
"%.L.<.o & & @ @ @ @ @ @ @ @ @ @ @ & @ @ & o &   D "
};
