/* XPM */
static const char *micro_pbataill[] = {
/* columns rows colors chars-per-pixel */
"25 19 197 2 ",
"   c #030304",
".  c #15140B",
"X  c #1A1816",
"o  c #1A0B06",
"O  c #27211A",
"+  c #2D251C",
"@  c #332A21",
"#  c #35332A",
"$  c #3B342B",
"%  c #3C3B39",
"&  c #452F18",
"*  c #612F18",
"=  c #58392C",
"-  c #443B36",
";  c #413D3A",
":  c #48362C",
">  c #603D2A",
",  c #4C463E",
"<  c #52483E",
"1  c #57473E",
"2  c #70472B",
"3  c #494847",
"4  c #5C4D44",
"5  c #555044",
"6  c #5C5452",
"7  c #61524B",
"8  c #795547",
"9  c #6D645A",
"0  c #6C6C5C",
"q  c #75655D",
"w  c #535E64",
"e  c #776C68",
"r  c #7A7567",
"t  c #667177",
"y  c #8B4F2B",
"u  c #8E4F30",
"i  c #9A5B3C",
"p  c #895A40",
"a  c #8D5C52",
"s  c #8D634B",
"d  c #916B54",
"f  c #866458",
"g  c #AB6C4B",
"h  c #A87351",
"j  c #B37256",
"k  c #996A66",
"l  c #847464",
"z  c #82756E",
"x  c #8A7B6C",
"c  c #867969",
"v  c #977A67",
"b  c #966F70",
"n  c #867C72",
"m  c #8C7E72",
"M  c #887D79",
"N  c #917F78",
"B  c #967F71",
"V  c #A46E62",
"C  c #B17968",
"Z  c #A77671",
"A  c #70817B",
"S  c #93816E",
"D  c #878375",
"F  c #8E867B",
"G  c #8F8272",
"H  c #948474",
"J  c #968579",
"K  c #9C8B7D",
"L  c #988879",
"P  c #A5816A",
"I  c #B78767",
"U  c #A18D7E",
"Y  c #A48477",
"T  c #B18072",
"R  c #B0947F",
"E  c #C8917D",
"W  c #D39679",
"Q  c #6D7E86",
"!  c #727D83",
"~  c #7C898D",
"^  c #77818D",
"/  c #7A8A92",
"(  c #798790",
")  c #828A8D",
"_  c #968D82",
"`  c #9A8D82",
"'  c #84938D",
"]  c #9C9289",
"[  c #989187",
"{  c #8E8E90",
"}  c #839095",
"|  c #8E9899",
" . c #9D9B94",
".. c #939B9E",
"X. c #A28D83",
"o. c #A19182",
"O. c #AB9687",
"+. c #AA9986",
"@. c #A2968A",
"#. c #AC9B8D",
"$. c #A3998D",
"%. c #A39C94",
"&. c #A19D9A",
"*. c #AD9E9A",
"=. c #AF9E96",
"-. c #9EA39D",
";. c #AAA393",
":. c #ACA49C",
">. c #A6A397",
",. c #B5A393",
"<. c #B5A59B",
"1. c #BBAB9D",
"2. c #B8A49D",
"3. c #949DA3",
"4. c #9EABA3",
"5. c #9CAAAC",
"6. c #99A3A9",
"7. c #96A8B2",
"8. c #A3ACAE",
"9. c #A4A6A7",
"0. c #BCACA3",
"q. c #B3ADAB",
"w. c #B9AEA8",
"e. c #B4A9A3",
"r. c #A5B0AC",
"t. c #BBB2A6",
"y. c #BCB5AC",
"u. c #B9B5A9",
"i. c #A4ADB4",
"p. c #AAAFB3",
"a. c #B5AFBB",
"s. c #ADBBBC",
"d. c #A9B2B6",
"f. c #B6B3B4",
"g. c #BCB6B3",
"h. c #BBB9B6",
"j. c #BEB7BA",
"k. c #B6BCB9",
"l. c #BDBABB",
"z. c #DCAD8F",
"x. c #C0AD9E",
"c. c #C7B4A8",
"v. c #D0B9A7",
"b. c #C1B4B2",
"n. c #C4B9B5",
"m. c #C5BBBB",
"M. c #C9BEBC",
"N. c #CDBDB0",
"B. c #D0BEB4",
"V. c #D8C0A6",
"C. c #CEC3BE",
"Z. c #C9C3BB",
"A. c #DCCABB",
"S. c #D8C5B8",
"D. c #E5C2AF",
"F. c #E1CBBC",
"G. c #BAB6C3",
"H. c #B9BEC5",
"J. c #A3B9C7",
"K. c #BBC4C6",
"L. c #BFCDD6",
"P. c #C3C1C4",
"I. c #CCC2C2",
"U. c #CDCCC3",
"Y. c #C3C4CC",
"T. c #C4CECD",
"R. c #D2C6C3",
"E. c #D6CBC2",
"W. c #DBCEC6",
"Q. c #DCD2C4",
"!. c #DDD0CB",
"~. c #C2CCD2",
"^. c #C7CED8",
"/. c #CAD3D4",
"(. c #CDDADC",
"). c #C7D2D9",
"_. c #D1D5DD",
"`. c #D6DAD9",
"'. c #EBD5C9",
"]. c #EFDCD8",
"[. c #DBE0D9",
"{. c #EBE3DE",
"}. c #CCDBE5",
"|. c #CDD7E1",
" X c #D2DAE2",
".X c #DDE3E5",
"XX c #DDE9EA",
"oX c #EAEDEE",
"OX c #F1EDE7",
"+X c #F5ECE5",
"@X c #F5F3ED",
"#X c #EAEDF2",
"$X c #EBF4F7",
"%X c #F2F3F2",
"&X c #FDFBF3",
"*X c #F4F7F9",
"=X c #FDFDFD",
/* pixels */
":.&Xy.< @ + X . X X . D Q.C.&.% + $ # O - 6 3 ; ; ",
"] %.` @.$.F z 9 , $ e b.q.%.9 < 7 4 < , - $ # # $ ",
"m x c G J ` #.L 0 5 n @.;.u.t.$.%.[ r D n D 0 e r ",
"K H S x x l x l q :.w.r _ Q.+X<.0.<.@.L X.X.J ` K ",
"U H S x m H K x N {.3     o 4 K K L K K L N z M M ",
"] K H H H m H x F 5 O : = > & r #.;.t.Z.U.[.' ' H.",
"{ &.] K K U o.L _ 1 f E j W P v ` n.&XOX@X=X8.s.$X",
"^ ..&.;.O.+.#.o. .e q 8 s 2 d D.-.`.=X&X*X=X9.)  X",
"3 } 5.:.,.#.,.+. .b b = d * p z.p.`.=X&X&X=Xd.7.XX",
"9.w d.q.<.<.1.#.#.Y T V C i g D.4.k.XXs..X=Xl.6.(.",
"*Xt 6.K.q.e.1.,.:.;.R k a y h @X .Z.oXi.T.=X9.| /.",
"=Xi.( ).l.w.0.x.e.>.O.Z a u I =Xp.P.=XoXoX=Xp.5.(.",
"%XT./ |.Y.t.c.1.2.q.=.v a i I {.A r.$X4.T.=Xi.Q ~.",
"%X`.} }./.w.c.t.e.a.P.;.B P V.'.u.U.=XK.XX=Xi.~ ).",
"*X.X} }._.g.n.n.j.G.G.l.*.*.c.F.'.'.].OX`.oXp./ L.",
"=X.X..}._.n.b.f.h.k.P.j.f.y.B.F.Q.A.A.Q.E.OXi.J.|.",
"#X/.~  X~.l.g.l.l.l.n.m.I.R.W.!.!.W.A.N.'.o.! i.^.",
"3.8.) ^.Y.f.h.j.l.l.m.M.I.R.R.E.E.A.c.<.S.#.3.(.K.",
"|./...H.H.q.g.l.l.m.M.I.I.I.C.C.R.Z.,.#.v.1.3.T.~."
};
