/* XPM */
static const char *micro_mbermude[] = {
/* columns rows colors chars-per-pixel */
"25 19 203 2 ",
"   c #010101",
".  c #04100C",
"X  c #040716",
"o  c #040D16",
"O  c #060F1A",
"+  c #080D18",
"@  c #07131A",
"#  c #0B141C",
"$  c #061818",
"%  c #13191C",
"&  c #151719",
"*  c #341B17",
"=  c #21211F",
"-  c #040E20",
";  c #0C1523",
":  c #091A24",
">  c #131D25",
",  c #1A1D26",
"<  c #13192A",
"1  c #171C34",
"2  c #221E34",
"3  c #2B1927",
"4  c #0D2325",
"5  c #14232E",
"6  c #1A2228",
"7  c #182533",
"8  c #0F2B39",
"9  c #2C2C26",
"0  c #302A25",
"q  c #223138",
"w  c #333530",
"e  c #252839",
"r  c #40351F",
"t  c #7B1F36",
"y  c #42382B",
"u  c #533D32",
"i  c #494437",
"p  c #50433F",
"a  c #5C443E",
"s  c #574F38",
"d  c #5A593B",
"f  c #624A3E",
"g  c #70483E",
"h  c #2A3746",
"j  c #373E47",
"k  c #783F46",
"l  c #3E5354",
"z  c #4C4D4C",
"x  c #484744",
"c  c #544C43",
"v  c #5A4C4A",
"b  c #45504C",
"n  c #5A5549",
"m  c #524D51",
"M  c #4E555D",
"N  c #5B5757",
"B  c #604D46",
"V  c #645C4C",
"C  c #765B49",
"Z  c #645C55",
"A  c #795A55",
"S  c #556855",
"D  c #6F7341",
"F  c #77754A",
"G  c #6B6554",
"H  c #66685D",
"J  c #6A6B5B",
"K  c #77695B",
"L  c #787555",
"P  c #5A4F60",
"I  c #7D4960",
"U  c #605E6C",
"Y  c #5C7379",
"T  c #6B6D64",
"R  c #656866",
"E  c #706E6A",
"W  c #74756C",
"Q  c #75756A",
"!  c #647778",
"~  c #727474",
"^  c #7B7B74",
"/  c #797977",
"(  c #706A77",
")  c #990026",
"_  c #AF325A",
"`  c #BB3264",
"'  c #913751",
"]  c #835E4E",
"[  c #814054",
"{  c #815F53",
"}  c #8A6552",
"|  c #926C5F",
" . c #817E5D",
".. c #9A705A",
"X. c #8B6F63",
"o. c #916A68",
"O. c #887B67",
"+. c #93787C",
"@. c #967C74",
"#. c #937263",
"$. c #A37B6D",
"%. c #C6517E",
"&. c #D84572",
"*. c #79837B",
"=. c #77856E",
"-. c #93915E",
";. c #A49857",
":. c #B8B449",
">. c #84837A",
",. c #888377",
"<. c #9F8F7B",
"1. c #97927F",
"2. c #90896D",
"3. c #AA8779",
"4. c #A1A27A",
"5. c #BBBF73",
"6. c #BBBD6A",
"7. c #BEC47E",
"8. c #F4E059",
"9. c #E5CB6E",
"0. c #726F8A",
"q. c #777C85",
"w. c #6C7584",
"e. c #C47C94",
"r. c #F86E9F",
"t. c #F57E9C",
"y. c #758488",
"u. c #6B8F8E",
"i. c #7298A4",
"p. c #59A9B2",
"a. c #79AAA6",
"s. c #8B8D8C",
"d. c #878886",
"f. c #968C86",
"g. c #8A9488",
"h. c #96928C",
"j. c #918F9A",
"k. c #8C9995",
"l. c #8A9898",
"z. c #9B9D97",
"x. c #AB8B81",
"c. c #A99988",
"v. c #BA9689",
"b. c #A99998",
"n. c #9EA487",
"m. c #9CA29E",
"M. c #B9A989",
"N. c #AEA999",
"B. c #ADA49B",
"V. c #BAA699",
"C. c #A9A588",
"Z. c #8E9BA1",
"A. c #8E9EB7",
"S. c #9A9DA6",
"D. c #A09EA3",
"F. c #8CAFB5",
"G. c #8FB6B3",
"H. c #93B9B7",
"J. c #81ABA7",
"K. c #A8A7AC",
"L. c #BEA5AA",
"P. c #A8B1AE",
"I. c #BAB6A5",
"U. c #ABB8B2",
"Y. c #B8BAB6",
"T. c #D49E9E",
"R. c #C2A79C",
"E. c #D5A591",
"W. c #C9AEA3",
"Q. c #BACF8C",
"!. c #BCC1BB",
"~. c #E2E499",
"^. c #C9C2B9",
"/. c #EEF1A0",
"(. c #ECEFAB",
"). c #83BECE",
"_. c #9DB1C9",
"`. c #AAC0C8",
"'. c #BAC5C9",
"]. c #C0C6C5",
"[. c #CDD2CF",
"{. c #CACED5",
"}. c #CBD3D9",
"|. c #CDD8DC",
" X c #D3DADD",
".X c #D9DDDE",
"XX c #D8D6CA",
"oX c #E4CFCE",
"OX c #E8DCD6",
"+X c #D7E0DD",
"@X c #E7E4DA",
"#X c #CDD9E5",
"$X c #D4DCE4",
"%X c #DDE3E7",
"&X c #D6E6E8",
"*X c #D6E9F0",
"=X c #E5E8E5",
"-X c #F3F2E8",
";X c #EBEFF0",
":X c #F3F4F4",
">X c #FDFDFD",
",X c #FAF4F2",
"<X c #EDF5E8",
/* pixels */
"=X X X}.#X#X$X$X|. X$X$X*X*X&X#X.X;X:X>X>X>X:X>X>X",
"Y.].[. X$X X.X+X&X|.%X XK.j.Y..X}.%X>X>X>X>X>X:X>X",
"x n N d.^ ^ z.!.U.U.].T 0 y Z b.].[.=X,X,X-X@X<X=X",
"c v n c N Z R ~ s.T H y @.R.W.<.>.Q >.h.W T Q *.T ",
"c.c.N.1.,.f.K.U h.f.G K x.v.3.V.,.,.d.q.q.N N ( m ",
"c.M.C.L O.G h.d.^.I.O.X.g o.C @.L.B.m.Z.P.n.2.c.,.",
"2.r L F L y E S.-XOXR.#.3.v.v.x.oX@X[.l.g.(./.~./.",
"B c i d d n s.'.h.,.V.| $.} } 3.V.G Y.}.^ -.5.7.6.",
"y 9 i R x z Z z.>.x x p { ..] A s P D.z.H Z V D  .",
"v t a S z w ^ XXj.  0 p u C C a % z _.i.E d.s.>.Q ",
"9 ) k R / b =.E.M.K v Z f * v K 0.W `.A.R / *./ Y.",
"Q o.g.y.! ' T.v.F z ; 9 3.$.x.i j M w.l.g.y.s.~ g.",
"l.k.Y.>.J &.e.j 1 7 8 X p M.V X 4 h q l g.<.f.^.I.",
"+.L.k./ c.t.N - 1 % 6 > + z # 1 h e q 7 z I.l.'.OX",
"+.b.I %.r.&.3 # . # # % > - , = , 2 ; > h ).p.i.&X",
"'.R [ _ ` ` , @ O O ; > > @ : 4 4 6 & % 7 n.Q.! '.",
"Y.y.y.! q.( & < @ o # # # @ ; > > # # 5 2 ;.8.9.4.",
"U.u.u.a.H.y.$ : # X @ @ # O @ # ; @ > 5 , F :.;.N.",
"U.`.G.J.F.Y $ < # X O o @ o o o O + ; 5 < T n.k.H."
};
