/* XPM */
static const char *micro_andypere[] = {
/* columns rows colors chars-per-pixel */
"25 19 209 2 ",
"   c #040614",
".  c #06101A",
"X  c #0D1B27",
"o  c #061726",
"O  c #020C27",
"+  c #251D2A",
"@  c #0D222A",
"#  c #10242D",
"$  c #072738",
"%  c #152936",
"&  c #182B36",
"*  c #162C39",
"=  c #1B2D3A",
"-  c #152533",
";  c #1D313D",
":  c #252B34",
">  c #21343E",
",  c #293439",
"<  c #35313B",
"1  c #4D2D22",
"2  c #5F2D24",
"3  c #4B3534",
"4  c #5A3A35",
"5  c #5F392C",
"6  c #6B3F3C",
"7  c #653624",
"8  c #344138",
"9  c #66402D",
"0  c #664437",
"q  c #7C4539",
"w  c #7A4837",
"e  c #6F5139",
"r  c #745036",
"t  c #1D3142",
"y  c #163347",
"u  c #172D42",
"i  c #203442",
"p  c #363E51",
"a  c #4C494B",
"s  c #484445",
"d  c #5D4440",
"f  c #575749",
"g  c #535A53",
"h  c #694C46",
"j  c #685944",
"k  c #7A5146",
"l  c #785C48",
"z  c #5B744A",
"x  c #56605F",
"c  c #59624D",
"v  c #6B7052",
"b  c #72715D",
"n  c #66675F",
"m  c #54626B",
"M  c #5B6769",
"N  c #537374",
"B  c #616B63",
"V  c #6D6F6D",
"C  c #646C6E",
"Z  c #6E736B",
"A  c #72756E",
"S  c #7B7A68",
"D  c #697976",
"F  c #727572",
"G  c #7B7977",
"H  c #756E64",
"J  c #8F563B",
"K  c #955F49",
"L  c #895B54",
"P  c #906145",
"I  c #946D5A",
"U  c #A7644A",
"Y  c #B0644C",
"T  c #A37655",
"R  c #867769",
"E  c #9E7861",
"W  c #897E7A",
"Q  c #A77C67",
"!  c #AE7F79",
"~  c #C07E5B",
"^  c #7C8163",
"/  c #798375",
"(  c #758279",
")  c #7C947E",
"_  c #CCAC3B",
"`  c #8A875A",
"'  c #868969",
"]  c #8F9368",
"[  c #8C8A7C",
"{  c #92907A",
"}  c #A5846B",
"|  c #B7896A",
" . c #A98875",
".. c #B68879",
"X. c #A49A67",
"o. c #CC916F",
"O. c #C28F7E",
"+. c #CFB561",
"@. c #567887",
"#. c #707B82",
"$. c #817F82",
"%. c #917F8B",
"&. c #148397",
"*. c #588082",
"=. c #52869E",
"-. c #748182",
";. c #7E898C",
":. c #75888B",
">. c #789389",
",. c #778C93",
"<. c #7B929A",
"1. c #73AD9F",
"2. c #4D98A9",
"3. c #679EAB",
"4. c #7898A1",
"5. c #5BAAA7",
"6. c #3AAAD0",
"7. c #29B3E3",
"8. c #66BCD7",
"9. c #5DC4EF",
"0. c #5ACEF5",
"q. c #898C8B",
"w. c #888989",
"e. c #8A948D",
"r. c #999488",
"t. c #8A8F9A",
"y. c #839A9A",
"u. c #899998",
"i. c #989A96",
"p. c #AB9E8D",
"a. c #BB9F8A",
"s. c #A09D93",
"d. c #A2A68F",
"f. c #A7A997",
"g. c #B4A493",
"h. c #B4B895",
"j. c #889DA8",
"k. c #B49DA3",
"l. c #85A8AB",
"z. c #9DA7A3",
"x. c #99ABAA",
"c. c #96A7A7",
"v. c #9CB0AA",
"b. c #91ACB6",
"n. c #9EACB4",
"m. c #9EAAB9",
"M. c #8EB0B1",
"N. c #84A3B5",
"B. c #B6A6A5",
"V. c #A6B1A1",
"C. c #B6B5A7",
"Z. c #A7B6B6",
"A. c #B8BAB9",
"S. c #ABAAB3",
"D. c #CAAE92",
"F. c #C8B9AC",
"G. c #A2C2B5",
"H. c #DDC192",
"J. c #C3C4AF",
"K. c #D1D0B8",
"L. c #93AFC2",
"P. c #B4BCCA",
"I. c #A8B9C1",
"U. c #C8BEC9",
"Y. c #95C1CC",
"T. c #A9C1C8",
"R. c #BCCCCB",
"E. c #B2C5CB",
"W. c #B2CDDA",
"Q. c #B5D2DE",
"!. c #B9D6DA",
"~. c #A9C9D6",
"^. c #B6D5E3",
"/. c #BAD5E3",
"(. c #BDD9E1",
"). c #BCDCF4",
"_. c #C7CAC9",
"`. c #CAC5C1",
"'. c #D4CACF",
"]. c #D7D3C3",
"[. c #D6D4CE",
"{. c #C2DBDF",
"}. c #D5DCD7",
"|. c #C7D2CA",
" X c #E5D3C5",
".X c #DDE9DD",
"XX c #F8ECDB",
"oX c #FCE5C5",
"OX c #C6DEE9",
"+X c #C9DAE4",
"@X c #C5DEF3",
"#X c #C5D4F1",
"$X c #CAE2E7",
"%X c #C5E1EC",
"&X c #CAE2EC",
"*X c #CBE8E4",
"=X c #D7E5EB",
"-X c #C5E2F3",
";X c #CAE1F3",
":X c #C7EAF5",
">X c #D3EAF3",
",X c #D3F3FE",
"<X c #E5E6E3",
"1X c #EEF0EF",
"2X c #FFFDED",
"3X c #F6F5E7",
"4X c #EAF5F5",
"5X c #F6FDF9",
"6X c #F4EDE7",
/* pixels */
"(.(.(.Q.T.Z.|.[._.C.z.,.y.u.;.:.;.t.Z.c.x.A.E.~.+X",
"^.Q./.^./.OX4X1X5X2X4X^.(.!.^.{.>X=X&X%X&X=X&X,X>X",
"Q./.W./.Q./.4X=X3X3X4X$X&X+X$XOX*X>X&X@X).@X@X-X%X",
"u.x.R.T.E.E.}..X5X5X2Xg.%.k.`.:X$X$XOX%X-X;X>XOX;X",
"f f A / B C e.V.B.P.{ 0 d k  .A.m.m.I.x.c.u.Z.z.-.",
"R W G b S w.G i./ R 0 h  .E r } w.e.( B / Z V s f ",
"K.].].] g.'.U.[.F.} 9 h } I 9 K F.f.>.z.s.[ f.$.s ",
"' d.' ] ` r.'.6XXXQ 7 I ..Q k 6  X<Xj.n.i.' h.K.J.",
"f j v g.` { XX5X3XQ 1 o.! ..K 5  X5XP.n.^ z z [ ' ",
"j H R F S r.R.[.C.U 3 } O...e 2 | _.P.S.{ c f p.f.",
"n C B A Z A J.R.e.Y 4 j ..R 3 q P n.L.D V D A w.e.",
"#.M g S q.B.oX<XB.U w l T L 4 w | +X).u.#.M m D -.",
"F M D y.q.i.Z.a.Q J 0 l D...q q ~ F.T.z.4.w.m m -.",
">.l.>.r.F 3.@.8 j 0 3 : s a 4 L Q 4 N L.*.;.y.:.e.",
">.b.x | i.3.p $ > < < y $ $ , 3 < - y 4.) N N G.y.",
"l.,.S  .b.1.+ X t t : u , > > * * % X v.H.( N v.l.",
"M.c.W.E.@Xj.  @ * i > = = ; i i ; # o c.X.8.2.q.Y.",
"t.P.#XT.;Xm   X % = & - % & = ; t o O 2.5.9.0.=.l.",
"_ +.f.y.N.%   . % % # # # % & = & .   &.7.6.7.2.<."
};
