/* XPM */
static const char *micro_bepoisso[] = {
/* columns rows colors chars-per-pixel */
"25 19 171 2 ",
"   c #100E0F",
".  c #151313",
"X  c #161518",
"o  c #18171C",
"O  c #1B1B1D",
"+  c #23221E",
"@  c #1E1D22",
"#  c #211F25",
"$  c #1E2125",
"%  c #232325",
"&  c #292826",
"*  c #26252A",
"=  c #28262C",
"-  c #27282D",
";  c #2B292D",
":  c #322E2B",
">  c #31302C",
",  c #3C322A",
"<  c #2D2D33",
"1  c #333234",
"2  c #3B3633",
"3  c #333539",
"4  c #3A3A3B",
"5  c #453528",
"6  c #423E3A",
"7  c #44413E",
"8  c #464442",
"9  c #4C4642",
"0  c #4D4D4C",
"q  c #524A44",
"w  c #5B4F43",
"e  c #514C49",
"r  c #5F5347",
"t  c #52514D",
"y  c #5B554B",
"u  c #565451",
"i  c #5C5753",
"p  c #5C5855",
"a  c #56565A",
"s  c #5E5F59",
"d  c #635246",
"f  c #64574E",
"g  c #655C53",
"h  c #685D57",
"j  c #615D5C",
"k  c #696057",
"l  c #67625F",
"z  c #6B645C",
"x  c #6F685E",
"c  c #73675E",
"v  c #736A5F",
"b  c #7B6C5F",
"n  c #5F5F61",
"m  c #676665",
"M  c #6D6563",
"N  c #6E6A61",
"B  c #676769",
"V  c #6E6F69",
"C  c #756C63",
"Z  c #796E62",
"A  c #6D7069",
"S  c #777165",
"D  c #7C7165",
"F  c #77706A",
"G  c #7B736A",
"H  c #7B7670",
"J  c #777779",
"K  c #7B797C",
"L  c #866F5F",
"P  c #847766",
"I  c #81766B",
"U  c #83796D",
"Y  c #8A7B6D",
"T  c #837D75",
"R  c #8A7E72",
"E  c #817D7A",
"W  c #9C806B",
"Q  c #858175",
"!  c #8B8175",
"~  c #8D847A",
"^  c #948777",
"/  c #91877B",
"(  c #96897B",
")  c #A3846F",
"_  c #AA907F",
"`  c #8A8685",
"'  c #888689",
"]  c #8A8A8C",
"[  c #948C84",
"{  c #9D8E81",
"}  c #938D8B",
"|  c #9D9287",
" . c #97928C",
".. c #9B928C",
"X. c #8F8F91",
"o. c #969293",
"O. c #9C9592",
"+. c #9D9A92",
"@. c #97989A",
"#. c #9E9E9D",
"$. c #A4958B",
"%. c #BD9A86",
"&. c #B99D88",
"*. c #A09790",
"=. c #A59B92",
"-. c #A29D9A",
";. c #B59F92",
":. c #ADA196",
">. c #ABA49C",
",. c #A9A99F",
"<. c #B1A396",
"1. c #B8A191",
"2. c #B1A79D",
"3. c #B4AC9F",
"4. c #B9AD9D",
"5. c #9F9FA1",
"6. c #9FA3A4",
"7. c #A6A3A3",
"8. c #ACA6A6",
"9. c #AEAAA7",
"0. c #ABABAC",
"q. c #B3ADA3",
"w. c #B0ACAB",
"e. c #B8AFAA",
"r. c #BDB0A7",
"t. c #B4B3AB",
"y. c #BAB2A9",
"u. c #B3B3B3",
"i. c #B9B5B3",
"p. c #BCB7BA",
"a. c #BDBBBC",
"s. c #C4AA9B",
"d. c #C0B6AA",
"f. c #C4BCAF",
"g. c #D5BEAC",
"h. c #C5C4BC",
"j. c #D3C6BE",
"k. c #C6C6C4",
"l. c #CAC6C3",
"z. c #C9CAC3",
"x. c #CCCCC9",
"c. c #D3CBC3",
"v. c #D3CEC8",
"b. c #D2D2CF",
"n. c #D4D2D3",
"m. c #DED7D1",
"M. c #DEDBD4",
"N. c #D7D5D8",
"B. c #DCDCDC",
"V. c #E1DDDC",
"C. c #E5E3DF",
"Z. c #F2E7DC",
"A. c #E4E6E2",
"S. c #EAE5E1",
"D. c #ECEAE4",
"F. c #EDEEEB",
"G. c #F3E9E2",
"H. c #F1EBEB",
"J. c #FDF0E7",
"K. c #F6F3EE",
"L. c #FBF4EE",
"P. c #F3F2F1",
"I. c #F7FAF3",
"U. c #F8FBF0",
"Y. c #FDFAF5",
"T. c #FEFFFA",
"R. c #FEFFF8",
"E. c #FFFAFF",
"W. c #FEFEFE",
"Q. c #FDFDFD",
"!. c #FAF5F2",
/* pixels */
"e 9 q y S T : . @ O O + % & 4 1 % & % & & & & - & ",
"z g g C ~ G 8 7 4 6 7 6 0 8 8 i u u u t u p j l M ",
"| c I I C C x k c C C N N F x g x z k k x x C U | ",
"4.<.$.I c c C v b Z C F G G I G D I G Z C D Z Z D ",
"P ^ Y U $.:.! ! ! R [ C g w G R Y R U ~ ! ! U Y Y ",
"^ { R ! r.Z.d.U I R F , 5 d r C I U I G G F G U I ",
":.| ( / / ~ k ~ =.[ h d 1.g.b ~ q.q.>. .h.c.,.y H ",
"J.2.Z.f.3.>., e.Z.c.j.;.&.W Y y.Y.K.D.l.Y.T.D.,.x.",
"!.q.C.E.t.=.7 >.b.Y.G.s.%.) { i.L.S.F.k.F.T.K.h.h.",
"Y.q.A.W.U.>.2 =.T.P.G.$._ L [ b.S.C.B.#.A.I.K.i.q.",
"K.y.I.H.T.m.> q.W.W.a.q Z f 2 6.K.V.n.#.B.W.D.t.+.",
"Y.q.M.T.F.S.0 v.W.@.4 O O .   3 7.n.N.5.B.W.F.7...",
"D.[ z.m.z.C.s E j * < - @ @ % * % 0 u.0.F.W.I.0.-.",
"y.} ,.*.x.i.V % ; ; 1 = = @ # = ; @ 3 a n B.W.X.8.",
"Q O.+.~ 0.8.A % * % ; * # < % ; = @ ; @ X u.P.5.7.",
"! M T ! m p.1 # $ * & & @ % % * $ O @ % X a.W.u.] ",
"O.6 9.m 8 J - % O @ % % % @ @ * O O @ * X p.W.p.w.",
"E + & O % o 1 O o O @ O @ O O % o X O = X ' p.} ` ",
"7 & X 0 a B % O X o O O O o X # O O @ 1 ; K 7.o.o."
};
