/* XPM */
static const char *micro_bemma[] = {
/* columns rows colors chars-per-pixel */
"25 19 189 2 ",
"   c #050503",
".  c #0A0502",
"X  c #040807",
"o  c #090907",
"O  c #090708",
"+  c #0C0C0C",
"@  c #120E0E",
"#  c #14110E",
"$  c #0D0E11",
"%  c #110F10",
"&  c #0E1118",
"*  c #151313",
"=  c #181513",
"-  c #1C1915",
";  c #191718",
":  c #1E1B1B",
">  c #221A13",
",  c #231E1A",
"<  c #25201A",
"1  c #2A221F",
"2  c #39291C",
"3  c #1F1F21",
"4  c #211E21",
"5  c #242324",
"6  c #2C2623",
"7  c #2E2C2B",
"8  c #362C23",
"9  c #382F2A",
"0  c #3B332E",
"q  c #393739",
"w  c #333132",
"e  c #42362D",
"r  c #4E3A2F",
"t  c #403732",
"y  c #443B34",
"u  c #4A3D33",
"i  c #473F39",
"p  c #4D4037",
"a  c #4A423A",
"s  c #544335",
"d  c #54463C",
"f  c #554A3F",
"g  c #5A473A",
"h  c #664F3F",
"j  c #404042",
"k  c #544B44",
"l  c #5A4D43",
"z  c #57524E",
"x  c #5B524A",
"c  c #514F52",
"v  c #575350",
"b  c #5E5C5F",
"n  c #644D43",
"m  c #625245",
"M  c #625449",
"N  c #65584F",
"B  c #6B5A4F",
"V  c #6A5544",
"C  c #745D4B",
"Z  c #6C5F55",
"A  c #635F56",
"S  c #7D5F55",
"D  c #6E6055",
"F  c #736254",
"G  c #71675E",
"H  c #79695D",
"J  c #7A6351",
"K  c #615F64",
"L  c #6A6667",
"P  c #6C6A6F",
"I  c #726963",
"U  c #706D68",
"Y  c #7B6F63",
"T  c #7F7164",
"R  c #777068",
"E  c #7D726B",
"W  c #7F7973",
"Q  c #77757A",
"!  c #7A777B",
"~  c #7B797E",
"^  c #84675B",
"/  c #806D5E",
"(  c #896251",
")  c #87725F",
"_  c #876F63",
"`  c #827161",
"'  c #897565",
"]  c #87776B",
"[  c #87796E",
"{  c #8D7B6B",
"}  c #937D6C",
"|  c #977566",
" . c #867A71",
".. c #817D7F",
"X. c #8A7972",
"o. c #947E73",
"O. c #A17F73",
"+. c #94806E",
"@. c #99836F",
"#. c #8C837C",
"$. c #948372",
"%. c #9C8474",
"&. c #9D8A75",
"*. c #90837B",
"=. c #9F8D7D",
"-. c #A38B75",
";. c #A48D7B",
":. c #A88F79",
">. c #A88877",
",. c #A5917C",
"<. c #AA937D",
"1. c #B2967E",
"2. c #7D7B80",
"3. c #817C80",
"4. c #858285",
"5. c #8F8A8E",
"6. c #8B8786",
"7. c #958D85",
"8. c #918D8C",
"9. c #9D8F84",
"0. c #9A9087",
"q. c #9C928B",
"w. c #938E94",
"e. c #969292",
"r. c #9B9694",
"t. c #9E9A99",
"y. c #9C9895",
"u. c #A49281",
"i. c #AB9783",
"p. c #A2948A",
"a. c #A1988F",
"s. c #A9998C",
"d. c #B09F8D",
"f. c #B89A84",
"g. c #AC9F96",
"h. c #A49B92",
"j. c #A7A29F",
"k. c #B9A290",
"l. c #B1A79B",
"z. c #B7AB9B",
"x. c #B9A897",
"c. c #A6A2A2",
"v. c #ACA7A3",
"b. c #AEA9A3",
"n. c #B4AAA1",
"m. c #B3AEAB",
"M. c #BDB1A5",
"N. c #B5B1AC",
"B. c #BBB3AA",
"V. c #BFB8AE",
"C. c #B5B1B0",
"Z. c #BBB9B6",
"A. c #BEBCB9",
"S. c #C0A890",
"D. c #C3AB9F",
"F. c #C8B8A9",
"G. c #C6B5A5",
"H. c #D1BDAC",
"J. c #C5BDB3",
"K. c #C9BCB1",
"L. c #C3BEB8",
"P. c #D2C0AC",
"I. c #C4C1BB",
"U. c #CEC6BD",
"Y. c #CFC9BD",
"T. c #D3C3B5",
"R. c #D6CABD",
"E. c #CECAC3",
"W. c #CBC8C8",
"Q. c #D3CDC4",
"!. c #D1CECB",
"~. c #D9D3C7",
"^. c #D7D3C8",
"/. c #DCD6CC",
"(. c #D0CBD1",
"). c #DCD9D3",
"_. c #D4D2D3",
"`. c #E1D7CB",
"'. c #EEDECE",
"]. c #E2D6C8",
"[. c #E6E1DE",
"{. c #EAE8DC",
"}. c #E1DCE2",
"|. c #EFE8E0",
" X c #E2E0E1",
".X c #FDF1E2",
"XX c #F4F0ED",
"oX c #FDFBF3",
"OX c #FFFFFF",
/* pixels */
"d 2 8 u d d d g m [ a . # # # # > 6 t 9 > 1 - 6 < ",
"7.E f p x D D Z { H N y t y i t a 0 a k k z x z x ",
"oX/.Y F $.] T H F / H B M B M m M x l l M l l x x ",
"Q.K.{ %.<.k.i.$.` ` ' ' { { ' $.{ +.+.+.{ { $.{ } ",
"z.u.i.:.>.1.<.&.z.T.k.;.,.,.,.&.;.<.-.-.:.:.-.:.&.",
".X'.;.<.-.S.f.-.B..X].&.@.) $.=.$.} %.&.+.@.+.} } ",
"U.B.g.K.M.z.u.d.7.q.{ ' h V 2 F l.n.p. .p.9.X.n.^.",
"XX!.!.oX).J.`.l.W *.l _ H.D.F M _.!.m.y.[.E.r.).OX",
"U.I.`.)./.H.~.I.t.G g | ;.o.F s N.I.r.r.A.C.8.!.OX",
"J.L.R.Z.|.P.~.E.).q.r %.O.^ ^ n v.E.t.r.c.t...e. X",
"/.b.R.!.Q.H.Q.).{.V.d ;.>.( S X.j.v.e.4.5.6...! W.",
"B.n.F.N.Q.G.J.B.Y.E.x =.f.| n q.W.Z.t.3.w.4.~ 2.}.",
"7.0.=.W /.{ h.a.M.m.k u ;.J e 7 8.c.L b Q Q P ! (.",
"I E &.A 6.$.#. .q.R 6 . 8 e - X 5 w ; * 4 5 3 5 K ",
"8  .u.R U T I E 0 - - + o o   - * O = $ + + + + q ",
"6 *.C I A.f #.Z o - = $ $ & * @ @ * + + + + +   j ",
"s.T.s ] K.8 i , # - = + + + @ % + * + + @ + + + q ",
"J.0.> k y @ = * @ = = + + + @ @ + * + + + + + + : ",
"v 6 # . # 7 7 + @ = = + + + + @ + +   + ; 4 5 : c "
};
