/* XPM */
static const char *micro_mabdali[] = {
/* columns rows colors chars-per-pixel */
"25 19 203 2 ",
"   c #010202",
".  c #0B0100",
"X  c #160503",
"o  c #180C08",
"O  c #1C1613",
"+  c #1A151B",
"@  c #0C1719",
"#  c #291009",
"$  c #271607",
"%  c #261A14",
"&  c #321F10",
"*  c #1E201B",
"=  c #302208",
"-  c #3C230F",
";  c #2A261C",
":  c #34241B",
">  c #3B231C",
",  c #212620",
"<  c #2B2323",
"1  c #2B2B2C",
"2  c #342C26",
"3  c #3A2E20",
"4  c #3B382F",
"5  c #322B32",
"6  c #2D3132",
"7  c #383534",
"8  c #4D280D",
"9  c #512604",
"0  c #422811",
"q  c #4D2C14",
"w  c #4A2A16",
"e  c #5D2E12",
"r  c #48341C",
"t  c #573314",
"y  c #6B3D1A",
"u  c #633F1F",
"i  c #4A3D2F",
"p  c #413924",
"a  c #563027",
"s  c #58382C",
"d  c #4A3A3A",
"f  c #653B29",
"g  c #673D31",
"h  c #444039",
"j  c #4A4339",
"k  c #594D3D",
"l  c #754324",
"z  c #764129",
"x  c #7D512C",
"c  c #684636",
"v  c #744B33",
"b  c #65573A",
"n  c #494644",
"m  c #48474B",
"M  c #574F44",
"N  c #5A5047",
"B  c #52564E",
"V  c #5D544B",
"C  c #535041",
"Z  c #56585A",
"A  c #604F47",
"S  c #6F4F42",
"D  c #695648",
"F  c #645A4D",
"G  c #685B4D",
"H  c #7B5746",
"J  c #615551",
"K  c #635B52",
"L  c #695F5D",
"P  c #705E54",
"I  c #6A6253",
"U  c #6D625B",
"Y  c #67665C",
"T  c #73645B",
"R  c #746C59",
"E  c #796A5A",
"W  c #5D5E62",
"Q  c #596068",
"!  c #666761",
"~  c #686762",
"^  c #6D6C68",
"/  c #726760",
"(  c #746A64",
")  c #7A6C62",
"_  c #736F6B",
"`  c #7B6E6C",
"'  c #777165",
"]  c #7A7067",
"[  c #74746E",
"{  c #7E7966",
"}  c #6F7478",
"|  c #727174",
" . c #7C787A",
".. c #824728",
"X. c #81542D",
"o. c #865746",
"O. c #905A40",
"+. c #865F50",
"@. c #8D6855",
"#. c #9F6758",
"$. c #9C6859",
"%. c #98725D",
"&. c #A06A48",
"*. c #A36F5A",
"=. c #A5715C",
"-. c #8A7564",
";. c #8B796B",
":. c #887770",
">. c #857D74",
",. c #837C7B",
"<. c #8C7E75",
"1. c #AC7A61",
"2. c #9C8269",
"3. c #8C827C",
"4. c #908071",
"5. c #9A8A74",
"6. c #92857B",
"7. c #A48A76",
"8. c #A48C79",
"9. c #A68566",
"0. c #7F8585",
"q. c #888582",
"w. c #878688",
"e. c #958B88",
"r. c #9C938C",
"t. c #8E8E94",
"y. c #848D96",
"u. c #918C90",
"i. c #8B9397",
"p. c #9C9396",
"a. c #9F9A97",
"s. c #9C9A9A",
"d. c #97959A",
"f. c #A19887",
"g. c #A8978F",
"h. c #A6988F",
"j. c #AE9C8B",
"k. c #A69285",
"l. c #AA9B92",
"z. c #A19C9A",
"x. c #A59793",
"c. c #BB9686",
"v. c #ACA191",
"b. c #ABA79C",
"n. c #969DA5",
"m. c #A29EA3",
"M. c #AAA3A1",
"N. c #A5A5AC",
"B. c #AAA4A9",
"V. c #ACABAC",
"C. c #A2AAAD",
"Z. c #B0A7A8",
"A. c #BAACA9",
"S. c #AEB1A6",
"D. c #B8B3AC",
"F. c #B6B1A6",
"G. c #A6AAB1",
"H. c #ABADB2",
"J. c #B0A7BC",
"K. c #A8B2B9",
"L. c #B8B8BC",
"P. c #C3B6AD",
"I. c #C5B5A5",
"U. c #C5BDB8",
"Y. c #C4C1B4",
"T. c #CBC5BB",
"R. c #CAC4B8",
"E. c #D1CABF",
"W. c #A4BCC0",
"Q. c #B3B9C7",
"!. c #BBC6CA",
"~. c #C7C8C3",
"^. c #CFCDC3",
"/. c #C8C7CB",
"(. c #D3CBC3",
"). c #D3D2C2",
"_. c #D7D6CA",
"`. c #DAD6CC",
"'. c #D7D8C8",
"]. c #DAD8C9",
"[. c #C9CDD0",
"{. c #CCD6D8",
"}. c #D7D6D4",
"|. c #DBD9D4",
" X c #D9DCDE",
".X c #D4D8DC",
"XX c #E7DCD6",
"oX c #E3E1D8",
"OX c #DEE3E6",
"+X c #E8E7E3",
"@X c #E7E8E2",
"#X c #E6EAED",
"$X c #E9E9E1",
"%X c #F1EDEC",
"&X c #F3F1EC",
"*X c #FFFEEF",
"=X c #EDEEF0",
"-X c #E8F4FA",
";X c #F4F4F3",
":X c #FCFBF6",
">X c #F7F5F8",
",X c #FEFDFD",
"<X c #F7F9F6",
/* pixels */
",.^ [ Y V N R.Y.b 2 1 % % + @ , >.b.M. .< ; ; * O ",
"E (  .| _ / U L Y _ I Y B 4 2 Y ,. .~ h h j h n n ",
"G G F K K J V N Z J P M 4 < d K [ s.~._.' 3.,.( _ ",
"q.>.R R T U K K A 3 O       5 I.*X:X;XT.' ` / I G ",
"} w.p.,.T U U K ;   # r w & X B f.>.U F ) U K { 6.",
".XZ W d.t.| ( i   o $.&.....l   : / ( R I >.^.;X,X",
":XS.S.Z i.n.q.p   i @.s f t l = . N ' r.`.E.:X,X,X",
":XY.:X XQ y.G.6   S H $ f # > 0 . C U.,X,X`.:X,X,X",
",XR.:X,X|.! t.1 X o.*.z O.e z t . z.:X:X,X).,X:X,X",
",XE.&X,X,XV.0.m > +.%.g a 8 l f $ (.,X,X,X^.:X:X,X",
",XT.:X,X,X&Xw.n o c o.o.a 8 y - k &X:X,X,X_.<X:X,X",
",X(.&X,X:X,XC.t.6 : 1.=.s u x $ x.,X,X:X:X'.,X,X,X",
",XT.&X,X,X,X!.K.W.` #.c % q y D +X,X<X:X,X].>X:X,X",
",XD.@X,X:X,X{.G.-XU.#.v r 9 X.7.oX:X,X:X,X).:X:X,X",
"=XY.$X,X,X,X.XG.Q.D.c.@.H v 9.7.5.v.P.XX:XE.%X:X,X",
",X(.|.,X:XoXH.t.J.H.L.V.p.g.v.8.2.8.5.k.P.R.;X,X,X",
",X XOX,X/.m.m.d.N.K.Z.V.3.a.g.l.6.k.z.j.-.A.=X<X:X",
"<X#X,X[.u.B.B.m.d.G.M.V.e.u.h.k.) -.a.j.;.r.}.;X#X",
",X X#X/.w.s.m.H.t.N.M.V.r.q.l.e.:.T r.j.<.4.F.{.K."
};
