/* XPM */
static const char *micro_hnogared[] = {
/* columns rows colors chars-per-pixel */
"25 19 199 2 ",
"   c #050203",
".  c #0A0500",
"X  c #180C09",
"o  c #110F12",
"O  c #1D1814",
"+  c #161611",
"@  c #240D02",
"#  c #2A1205",
"$  c #23140B",
"%  c #311607",
"&  c #351A09",
"*  c #391E0E",
"=  c #30130B",
"-  c #201B17",
";  c #351E10",
":  c #3D1F17",
">  c #39230E",
",  c #3C2314",
"<  c #32251B",
"1  c #2F2A25",
"2  c #2B2824",
"3  c #322922",
"4  c #37322E",
"5  c #3A332B",
"6  c #3B3530",
"7  c #363530",
"8  c #42240C",
"9  c #552C0B",
"0  c #542A11",
"q  c #5B3417",
"w  c #42261A",
"e  c #693B1A",
"r  c #4B3222",
"t  c #4E312B",
"y  c #583927",
"u  c #403932",
"i  c #493D31",
"p  c #543731",
"a  c #663E24",
"s  c #4D423D",
"d  c #5F4136",
"f  c #6E452D",
"g  c #6E4A2E",
"h  c #684225",
"j  c #774928",
"k  c #654637",
"l  c #744E36",
"z  c #76563D",
"x  c #3B4443",
"c  c #524B47",
"v  c #5B5148",
"b  c #594E52",
"n  c #595450",
"m  c #60564D",
"M  c #775A41",
"N  c #765241",
"B  c #755F52",
"V  c #635A55",
"C  c #686156",
"Z  c #72655C",
"A  c #6E6764",
"S  c #746A64",
"D  c #7B6A63",
"F  c #7D746B",
"G  c #8B5638",
"H  c #936139",
"J  c #B86B3F",
"K  c #945949",
"L  c #8C664C",
"P  c #946C4D",
"I  c #846958",
"U  c #926C5F",
"Y  c #A37252",
"T  c #A97A5C",
"R  c #B27654",
"E  c #8D7C6D",
"W  c #82776A",
"Q  c #90726A",
"!  c #847974",
"~  c #8C7E75",
"^  c #817E79",
"/  c #917E70",
"(  c #A47966",
")  c #AC7A73",
"_  c #C07B51",
"`  c #9A826C",
"'  c #93846F",
"]  c #8E8077",
"[  c #8A817B",
"{  c #96867B",
"}  c #9B8A7D",
"|  c #978679",
" . c #9C947F",
".. c #A88467",
"X. c #A28875",
"o. c #BC8A78",
"O. c #A8937D",
"+. c #D2875F",
"@. c #C48B72",
"#. c #D7976B",
"$. c #837E84",
"%. c #7D8C91",
"&. c #8A8583",
"*. c #9B8C82",
"=. c #968981",
"-. c #9C9184",
";. c #99918B",
":. c #949894",
">. c #A39484",
",. c #A5958A",
"<. c #AA9789",
"1. c #AB9B8C",
"2. c #B59B89",
"3. c #A29291",
"4. c #A69994",
"5. c #AB9E94",
"6. c #AE9F9A",
"7. c #B19F94",
"8. c #B7A08E",
"9. c #AEA196",
"0. c #AFA39B",
"q. c #B3A394",
"w. c #BCAA9C",
"e. c #B5A798",
"r. c #8B98A0",
"t. c #949FA7",
"y. c #9BA5AC",
"u. c #9DA2A5",
"i. c #A4A3A5",
"p. c #A8ACAB",
"a. c #BAAEA5",
"s. c #BBB2AA",
"d. c #ADB3B6",
"f. c #A8B3B9",
"g. c #B9BCBC",
"h. c #B3B5B6",
"j. c #D19684",
"k. c #C69E92",
"l. c #D5B89A",
"z. c #C5B1A3",
"x. c #CAB6A6",
"c. c #CAB7A9",
"v. c #CBBAAD",
"b. c #C6B8A9",
"n. c #C5BCB5",
"m. c #C3BCB9",
"M. c #C9BEB9",
"N. c #C2B7B1",
"B. c #D3B9A8",
"V. c #BEC0BF",
"C. c #D1C0AE",
"Z. c #CBC3BE",
"A. c #C8C3B8",
"S. c #D4C4B4",
"D. c #D5C6BE",
"F. c #D9CBBC",
"G. c #E2C9B9",
"H. c #E9CEBB",
"J. c #B4BDC3",
"K. c #BCC2C5",
"L. c #BAC3C4",
"P. c #BECCD5",
"I. c #CEC6C1",
"U. c #CDCAC6",
"Y. c #C5C8C8",
"T. c #D1C9C6",
"R. c #D1CCC9",
"E. c #DDCDC0",
"W. c #D4D2CB",
"Q. c #DAD2CD",
"!. c #C3CFD4",
"~. c #CFCDD2",
"^. c #D3D5D3",
"/. c #DBD6D5",
"(. c #D8D7D8",
"). c #E8DCCE",
"_. c #EEE3D7",
"`. c #F1E9DE",
"'. c #F0E7DE",
"]. c #DBDEE2",
"[. c #D4DFE5",
"{. c #C5D7E3",
"}. c #DEE4E8",
"|. c #DEEBF5",
" X c #D8E9F7",
".X c #ECEBEB",
"XX c #E7E9E7",
"oX c #ECF0EF",
"OX c #FCF5EB",
"+X c #E3EBF4",
"@X c #ECEEF5",
"#X c #EBEFF8",
"$X c #EDF2F3",
"%X c #EFF2F9",
"&X c #F3F6F3",
"*X c #FEFBF3",
"=X c #F6FCFC",
"-X c #FDFEFC",
";X c #F6F8F5",
/* pixels */
"b.v 3 2 - O + O + o b D.E.Z.i.x < 5 u 5 6 ^ &.A C ",
"-.*.{ W S V c u 7 c N.Q.A.h.n i m v s 6 4 4 1 1 2 ",
",.1.5.e.a.0.;.S s ,.9.{ e.' E ~ W F ~ [ ! F F C Z ",
"] ~ E / E ] ~ A ! F < # y l.F.s.M.M.3.3.4.4.4.[ ;.",
"=.*.| | } *.! [ Z.< @ t = , ` <.5.9.>.<.<.>.*.;.<.",
"*.*.| | *.*.] 5.| # U o.T G 9 X.1.>.1.>. .-.-.F &.",
"-.*.*.} *.*.| W 8 r k.@._ #.e z 6.6.m./.]..X-X$.f.",
"1.1.,.,.,.,.<.B & p Q l P f f q O.C.*X-X=X=X-X:.K.",
"p.q.8.q.9.7.2.y # k ( L @.G Y 8 ..'.=X-X-X-X-Xi.i.",
"J.s.q.w.0.w.` * X N j.o.o.+.R & L `.-X-X-X-X-Xg.d.",
"!.L.s.w.0.z.I ; X p @.) K J j # P D.;X&X&X-X*XY.L.",
"P.{.m.w.s.8.g ; $ . ..o.G H > , ..a.&XXX^.XX-XV.u.",
"J. XR.z.z.2.z , r   r ( G g   w T v.;X&X$XoX-Xg.h.",
"t. X].v.w.O.y r d X # l P q $ : j b.-X;X$X&X-XK.p.",
":.|.|.M.v.X.* k | S @ h Y 0 % * q 1.-X$XL.}.-XY.%.",
"u.|.|.U.c.x.~ I e./.D h H a M M 9 w.-X=X}.=X-XK.t.",
"y.+X#X~.m.n.I.R./.^.A.{ B w.x.X.N ).OX@X%XXX=XK.r.",
"y.+X#X(.T.M.I.R././.W.D.c.S.x.B.H._.`..X]..X=X].!.",
"y.+X+X(.Q.M.Z.T.R.W.U.D.v.S.C.G.G.F.'.$Xd.p.!.d.[."
};
