/* XPM */
static const char *micro_aramon[] = {
/* columns rows colors chars-per-pixel */
"25 19 205 2 ",
"   c #000002",
".  c #090A05",
"X  c #170D01",
"o  c #2B1D0C",
"O  c #2D1302",
"+  c #371A12",
"@  c #2F230D",
"#  c #27241C",
"$  c #36231A",
"%  c #392A17",
"&  c #1D1C21",
"*  c #282725",
"=  c #3F2B25",
"-  c #392D2C",
";  c #342925",
":  c #3D3329",
">  c #3A3736",
",  c #471D11",
"<  c #442C0E",
"1  c #45200D",
"2  c #432E13",
"3  c #4A2E1A",
"4  c #502B10",
"5  c #49361C",
"6  c #5F3110",
"7  c #513D1C",
"8  c #73381A",
"9  c #4C362B",
"0  c #41382F",
"q  c #4D3D29",
"w  c #563A22",
"e  c #453F38",
"r  c #6C3F2A",
"t  c #6E3F37",
"y  c #57422B",
"u  c #484439",
"i  c #574031",
"p  c #5A4737",
"a  c #6A4228",
"s  c #7E522F",
"d  c #614F3B",
"f  c #775236",
"g  c #665833",
"h  c #414247",
"j  c #584C41",
"k  c #56514B",
"l  c #4F4D50",
"z  c #5A5550",
"x  c #5E5A56",
"c  c #5B595C",
"v  c #604D47",
"b  c #605041",
"n  c #6A564A",
"m  c #7E584F",
"M  c #6B5B55",
"N  c #635C5A",
"B  c #645B54",
"V  c #745E56",
"C  c #786448",
"Z  c #67655A",
"A  c #796555",
"S  c #7E6853",
"D  c #79695B",
"F  c #6B6561",
"G  c #6E6B63",
"H  c #656769",
"J  c #736C64",
"K  c #796D64",
"L  c #7A6E6A",
"P  c #746666",
"I  c #757264",
"U  c #7B726A",
"Y  c #78746B",
"T  c #6F7074",
"R  c #7B7672",
"E  c #7D7A71",
"W  c #7D7B7C",
"Q  c #9D582F",
"!  c #875A3B",
"~  c #885435",
"^  c #845946",
"/  c #8B634C",
"(  c #9D6A49",
")  c #846552",
"_  c #826F5E",
"`  c #976D54",
"'  c #A6714F",
"]  c #BA754C",
"[  c #A07356",
"{  c #807465",
"}  c #82746A",
"|  c #84786E",
" . c #8B7B6D",
".. c #8B7966",
"X. c #907C6A",
"o. c #9F7A6B",
"O. c #857476",
"+. c #8A7771",
"@. c #847B74",
"#. c #8A7D73",
"$. c #867C7C",
"%. c #A77A77",
"&. c #7F807A",
"*. c #87806D",
"=. c #91826F",
"-. c #878076",
";. c #8A8375",
":. c #85827C",
">. c #8D847B",
",. c #8E8A7F",
"<. c #918070",
"1. c #988777",
"2. c #91847B",
"3. c #9B877A",
"4. c #988C7A",
"5. c #A38A7B",
"6. c #A7937A",
"7. c #D69C74",
"8. c #7D7A83",
"9. c #7F8887",
"0. c #7C8285",
"q. c #798B95",
"w. c #8C8482",
"e. c #8D8984",
"r. c #868283",
"t. c #938B83",
"y. c #988F86",
"u. c #918D8A",
"i. c #9B9184",
"p. c #94928C",
"a. c #909084",
"s. c #9F8F90",
"d. c #9B9C9C",
"f. c #979496",
"g. c #A79889",
"h. c #BD9289",
"j. c #A29E9C",
"k. c #A39F96",
"l. c #B19F96",
"z. c #9FA09B",
"x. c #A3A29D",
"c. c #AEA89A",
"v. c #B6A89B",
"b. c #949CAF",
"n. c #9EA4AB",
"m. c #97A4AC",
"M. c #A6A6A7",
"N. c #B4ACA5",
"B. c #B0AFAD",
"V. c #BBB4AA",
"C. c #A7ACB2",
"Z. c #BDB9B5",
"A. c #BCBBB9",
"S. c #C19C8A",
"D. c #CE9987",
"F. c #C9A294",
"G. c #CFA098",
"H. c #E0B193",
"J. c #CCAEA6",
"K. c #CBB4A5",
"L. c #DDB5A6",
"P. c #C7BFB2",
"I. c #D5BCB8",
"U. c #CBC4BC",
"Y. c #CBC1B7",
"T. c #D6C8B9",
"R. c #F0C4A7",
"E. c #E6C5B8",
"W. c #BCC2C0",
"Q. c #D0C7C0",
"!. c #D2CDC9",
"~. c #CFD3C5",
"^. c #DDD5CD",
"/. c #D8D1C1",
"(. c #C5CCD2",
"). c #C3D4DE",
"_. c #DBDAD2",
"`. c #DDDCD9",
"'. c #D3D5D8",
"]. c #CCC8C9",
"[. c #EDCFC7",
"{. c #E2C9C5",
"}. c #E0D7CE",
"|. c #F7DACC",
" X c #EAD6D7",
".X c #E9E7DD",
"XX c #FFE3D0",
"oX c #C5D6E0",
"OX c #DADEE3",
"+X c #D1DBE4",
"@X c #DEE7EE",
"#X c #E2E2E1",
"$X c #E9EBE3",
"%X c #E2E7EA",
"&X c #E7EBE9",
"*X c #F2EDE3",
"=X c #FAF3ED",
"-X c #F5F1E8",
";X c #F1EFF0",
":X c #EDF9FF",
">X c #F7F6F4",
",X c #FBF5F2",
"<X c #FDFBF5",
"1X c #FDFEFD",
"2X c #F6F7F9",
/* pixels */
"0.f.M.d.&.p.:.u.N.J Z M v u 0 ; * # # t.V.M.x.e * ",
"N J | | O.$.>.E I @.$.:.:.r.w.Y N > Z k.e.p.F z B ",
"K #.2. . .} L L J K A D K D K J F x F E x.!.=XN.2.",
":.u.d.z.a.;.#.+.+.I x h > j I P z j..X<X1X<X^.g.U ",
"&XW.9.0.n.M.e.*.#.k - e 3 1 q L F Z.$XV.u.@.U U @.",
"1X1X2X'.c T C.n.e.9 F.R.7.] a u Y F G J R @.| @.} ",
"1X2X1X<Xc.x.H b.m.3.XXE.L.' ( q R R @.;.@.#.>.-.N.",
"1X1X1X1XA.1X_.G q.c.J.o.h.w ! f W :.-.>.>.2.t.}.1X",
"1X1X1X1XU.,X1X#XG J.[.G.H.8 [ ( O.>.2.u.w.i.$X1X1X",
"1X1X1X1XQ.=X1X1X{.L.|.%.m , f Q +.u.w.,.4. X2X1X1X",
"1X,X1X1XY.=X1X>X1XI.5.) S.t + d y.e.s.i.v.<X2X1X1X",
"1X1X1X1XU.-X1X1X1X`.k M V $ X { j.t.i.t.].1X1X1X1X",
"1X1X2X1XU.*X1X1X<X*Xl.- & . 2 s 2.^.$X#X;X1X1X1X1X",
"<X<X2X1XY..X1X,X/.l.F.E.n 3 ~ 6 : T.<X1X1X1X1X1X1X",
".X`.%X1XP.T.K.5.o.@.9 S.D.! ~ r 8.p g v.,X1X>X1X1X",
"~._.OX2XV.6.) `  .Z i < ^ / ` A ,.= % < C ^.1X%XOX",
">X@X>XT.g.3.S D 5.>.F = 4 / V M B o 2 9 5 C s.oX).",
"B.'.`.g.X...S  .3. .K p O $ ; #.b @ y i w 7 p +X:X",
"x.(.Z.<._ ..X.1. .=. .n u   l { o q p y 5 2 A %X:X"
};
