/* XPM */
static const char *micro_tperpign[] = {
/* columns rows colors chars-per-pixel */
"25 19 146 2 ",
"   c #1E1B14",
".  c #27241F",
"X  c #282629",
"o  c #2E2A2B",
"O  c #3D3B35",
"+  c #463130",
"@  c #423E3F",
"#  c #6D3233",
"$  c #48453E",
"%  c #413F40",
"&  c #454442",
"*  c #494448",
"=  c #584443",
"-  c #585753",
";  c #6B6A6D",
":  c #757776",
">  c #9B0E17",
",  c #9D0F18",
"<  c #8E141B",
"1  c #93151C",
"2  c #9C121A",
"3  c #91181F",
"4  c #9E181F",
"5  c #A10F16",
"6  c #A10F19",
"7  c #A51117",
"8  c #A4121B",
"9  c #AA141D",
"0  c #AD1A1D",
"q  c #B1161E",
"w  c #931A21",
"e  c #9A1C25",
"r  c #AC1621",
"t  c #A51C23",
"y  c #AC1A23",
"u  c #A41D2B",
"i  c #B21622",
"p  c #B31B23",
"a  c #BA1C25",
"s  c #B21D29",
"d  c #BC1D28",
"f  c #802427",
"g  c #852629",
"h  c #842E2F",
"j  c #8E2C2C",
"k  c #92332F",
"l  c #852F30",
"z  c #893032",
"x  c #8F393A",
"c  c #943431",
"v  c #923A3C",
"b  c #AA242B",
"n  c #AD282B",
"m  c #B72124",
"M  c #BD2427",
"N  c #BF242A",
"B  c #BE282A",
"V  c #AE2634",
"C  c #B32B36",
"Z  c #B52D39",
"A  c #B8303B",
"S  c #C01E29",
"D  c #C3242D",
"F  c #C32B2D",
"G  c #C42530",
"H  c #C92631",
"J  c #C62930",
"K  c #CB2B34",
"L  c #D22C36",
"P  c #974144",
"I  c #9B464B",
"U  c #9F4A4F",
"Y  c #A44F52",
"T  c #A85356",
"R  c #AC575A",
"E  c #B35F5F",
"W  c #877777",
"Q  c #B76665",
"!  c #B96866",
"~  c #A67070",
"^  c #87877F",
"/  c #93928D",
"(  c #ACABA6",
")  c #A9A9A9",
"_  c #B2B2AA",
"`  c #B9B9AF",
"'  c #B2B3B4",
"]  c #BCBCB1",
"[  c #B6BAB9",
"{  c #BABCB9",
"}  c #CE9B9A",
"|  c #DAA8A7",
" . c #DEACAB",
".. c #C2B4B3",
"X. c #C3BCB4",
"o. c #C0BFBB",
"O. c #C9BEBA",
"+. c #EAADAC",
"@. c #E6B4B3",
"#. c #EBBAB6",
"$. c #BEC2BF",
"%. c #C6C4B7",
"&. c #CCC3BC",
"*. c #CDC8BC",
"=. c #F3C0BF",
"-. c #FCC3BC",
";. c #C2C2C0",
":. c #C8C5C0",
">. c #CBC9C3",
",. c #CBCDC8",
"<. c #D3CCC4",
"1. c #D0CFCB",
"2. c #D5D1C6",
"3. c #D3D3CC",
"4. c #DDD3CE",
"5. c #DBD8CF",
"6. c #DAD9D5",
"7. c #FFC6C2",
"8. c #FECCCB",
"9. c #E3DCD4",
"0. c #E2DFD8",
"q. c #FFD4D1",
"w. c #FFD8D5",
"e. c #FFDCD9",
"r. c #E5E4DB",
"t. c #E8E5DE",
"y. c #E7E8DA",
"u. c #E9E9DD",
"i. c #F3E3DE",
"p. c #FFE2DC",
"a. c #E9E5E4",
"s. c #EDEDE3",
"d. c #EDE9EA",
"f. c #F5E8E0",
"g. c #FDECE4",
"h. c #EFF1E6",
"j. c #F0F2E5",
"k. c linen",
"l. c #F4F6E9",
"z. c #FFF3E9",
"x. c #F5FAEB",
"c. c #FDFBEF",
"v. c #F7F3F2",
"b. c #FFF7F2",
"n. c #FCFBF2",
"m. c #FEFEFA",
/* pixels */
"n.n.c.n.n.n.$   O ^ ` ] X.%.*.<.2.5.9.r.r.u.u.y.r.",
"x.n.m.n.m.n.O . - / ( _ ] %.*.>.3.5.9.r.t.u.u.u.y.",
"m.m.m.n.m.v.@ o ; ) ' { o.:.>.<.6.0.t.u.s.s.j.j.s.",
"n.m.m.m.m.d.* X ; ' ' $.;.>.1.6.r.t.s.s.j.l.l.l.j.",
"n.m.m.m.n.a.& % : [ ' { $.,.3.6.r.t.s.s.h.j.l.l.l.",
"n.n.n.b.n.i.+ = W ..X.O.&.<.4.9.i.f.g.k.z.z.c.n.z.",
"-.-.7.7.8.+.# # ~ } |  .@.#.=.8.q.w.e.p.p.g.z.z.z.",
"c k c j j j g g f z l h x v v P I U Y T R E Q ! ! ",
"n n b b t t 4 1 1 1 < < 3 w e e u b V C Z A A A C ",
"p p p p q 9 7 5 8 , > > > 2 2 8 9 i i a N G G D K ",
"s s p r 9 9 9 8 8 2 > > > , , 6 9 9 9 p m N D N F ",
"s s p r r r 9 8 8 8 > > , 2 8 8 8 9 0 p m B F F F ",
"s y y r r r 9 8 8 8 > , , 8 8 8 7 9 0 p m N F F K ",
"y y r r r 9 9 8 8 8 , , , 6 8 8 9 9 p p a N J K K ",
"s r y r r 9 9 9 8 8 5 5 5 8 7 9 r i p a d D K K L ",
"y y r r 9 9 9 9 9 7 5 5 7 7 9 9 i i p a S H K K K ",
"t t t r 0 9 9 9 9 7 7 8 7 9 9 9 p p a d D K K D K ",
"t t t t 9 9 9 9 9 9 7 7 9 9 9 q p p a a D K K D K ",
"t t t t 9 9 9 9 r 9 7 7 9 9 q i q p a d D H K G K "
};
