/* XPM */
static const char *micro_dsylvain[] = {
/* columns rows colors chars-per-pixel */
"25 19 210 2 ",
"   c #100C0E",
".  c #231F13",
"X  c #25271C",
"o  c #3F322C",
"O  c #332F2C",
"+  c #4B2518",
"@  c #5A2730",
"#  c #453E37",
"$  c #503234",
"%  c #613F3D",
"&  c #4E4A3C",
"*  c #454537",
"=  c #53453A",
"-  c #54513B",
";  c #525536",
":  c #664C3C",
">  c #605C3F",
",  c #583E49",
"<  c #574A45",
"1  c #5E5349",
"2  c #5E5945",
"3  c #5D5B52",
"4  c #474C47",
"5  c #674E41",
"6  c #774946",
"7  c #685947",
"8  c #7D544E",
"9  c #745548",
"0  c #625956",
"q  c #785859",
"w  c #5E615A",
"e  c #66614B",
"r  c #676849",
"t  c #74634C",
"y  c #79634E",
"u  c #616055",
"i  c #6A625D",
"p  c #6E6A5B",
"a  c #64625D",
"s  c #78615B",
"d  c #7C7E57",
"f  c #7C745F",
"g  c #775766",
"h  c #686865",
"j  c #716C68",
"k  c #6E7166",
"l  c #72706E",
"z  c #7C786B",
"x  c #666C72",
"c  c #6B7772",
"v  c #777875",
"b  c #8E1328",
"n  c #953759",
"m  c #C8336A",
"M  c #805646",
"N  c #885859",
"B  c #905E5D",
"V  c #886C59",
"C  c #9B6D5D",
"Z  c #837C5F",
"A  c #976C67",
"S  c #867A66",
"D  c #9D7662",
"F  c #887E72",
"G  c #A86E60",
"H  c #A37467",
"J  c #A57B68",
"K  c #A47C70",
"L  c #C85A76",
"P  c #7D837E",
"I  c #758376",
"U  c #B7B058",
"Y  c #8A8767",
"T  c #96806B",
"R  c #8C8475",
"E  c #84837B",
"W  c #878777",
"Q  c #938A77",
"!  c #968779",
"~  c #99927F",
"^  c #A4816B",
"/  c #B1876F",
"(  c #AB8A76",
")  c #A98978",
"_  c #B98B77",
"`  c #A1917F",
"'  c #BA967E",
"]  c #B2AD76",
"[  c #BAB36B",
"{  c #DDD06A",
"}  c #7B7B85",
"|  c #777E86",
" . c #877E81",
".. c #E26E91",
"X. c #CB6C8E",
"o. c #788C86",
"O. c #6E9B96",
"+. c #769592",
"@. c #79A196",
"#. c #868682",
"$. c #848A81",
"%. c #8A8C83",
"&. c #898383",
"*. c #948D8A",
"=. c #8D948C",
"-. c #9D998C",
";. c #969887",
":. c #9A9C95",
">. c #999998",
",. c #A08D86",
"<. c #AD9384",
"1. c #AC9986",
"2. c #A69187",
"3. c #A88F95",
"4. c #A49A93",
"5. c #B59C94",
"6. c #BA9781",
"7. c #9CA092",
"8. c #88B19F",
"9. c #9FB09E",
"0. c #8AAC9C",
"q. c #A4A39D",
"w. c #ADA59C",
"e. c #ACAF9E",
"r. c #AAA993",
"t. c #BEA297",
"y. c #B6AD99",
"u. c #BAB597",
"i. c #9EABB3",
"p. c #97BDB2",
"a. c #ADADA8",
"s. c #A2A7A2",
"d. c #B1AAA6",
"f. c #AEB4AB",
"g. c #B4B2AA",
"h. c #BCB4AB",
"j. c #BEB3A1",
"k. c #AAB7B0",
"l. c #BBBAB4",
"z. c #B7B8BB",
"x. c #B4B5B8",
"c. c #C19882",
"v. c #C1AC8D",
"b. c #C3B798",
"n. c #DEBE98",
"m. c #CBA595",
"M. c #D4A0A3",
"N. c #C6BAAA",
"B. c #C3BDB8",
"V. c #DBADB7",
"C. c #BBC0A0",
"Z. c #BCC2BF",
"A. c #B8C5B7",
"S. c #C3C296",
"D. c #FEF097",
"F. c #C4C2AD",
"G. c #D1C2A1",
"H. c #C6C3B5",
"J. c #D8C8BB",
"K. c #E5D3BF",
"L. c #B5BFC4",
"P. c #A8C5C0",
"I. c #BFCFC4",
"U. c #B5D4CB",
"Y. c #A3CED4",
"T. c #BFC0DC",
"R. c #A9D9C9",
"E. c #C4CAC4",
"W. c #C8C9C6",
"Q. c #D4C5C6",
"!. c #CFD0CC",
"~. c #C7D3C5",
"^. c #D2D4CD",
"/. c #DED8C7",
"(. c #CBCFD4",
"). c #C1CCD2",
"_. c #DACFD3",
"`. c #C5D3D5",
"'. c #CCD3D5",
"]. c #CDDDDB",
"[. c #CCD5DB",
"{. c #D3D5D4",
"}. c #DAD7D4",
"|. c #D6DAD5",
" X c #D9DBD5",
".X c #D3D4DA",
"XX c #D5DBDB",
"oX c #DADCDC",
"OX c #E0CDC9",
"+X c #E2D1C9",
"@X c #E4D6D3",
"#X c #D8E2D8",
"$X c #E3E3D9",
"%X c #CDD6E6",
"&X c #D5D3E5",
"*X c #D4DCE3",
"=X c #DBDDE3",
"-X c #D6DEEB",
";X c #E9DCE3",
":X c #DCE8EE",
">X c #DAE2E4",
",X c #C8E1E5",
"<X c #E1E1E1",
"1X c #E5E8E5",
"2X c #E8ECEB",
"3X c #FFF7E7",
"4X c #FCFCF3",
"5X c #FEFDFC",
"6X c #F6F4F4",
"7X c #EBF5F2",
/* pixels */
"XXXXXX{. X<XXX#X$XoX2XoXl.l.W.1X=X<X5X5X4X5X5X5X5X",
"!.|.|.XX<XoX=X>X*X:XL.x h o 4 l.*X.X1X6X5X5X5X5X5X",
"0 i =.a.>.>.x.E.W.|.a o 5 5 q S XX{.'.oX1X6X5X5X5X",
"= 1 & 3 3 u p W R z : ( _ _ c.6.*.*.q.>.v #.:.s.#.",
"<.1.y.~ R w.-.z 4.! V ^ J _ ) <.` F E l j 3 u w # ",
"v.G.b.Y Q ! 4.>.J.j.T 9 M K : ! y.H.q.:.g.R Q F.R ",
"t 7 Y Z e * E z.3XK.^ J _ m.D ( J.4XE.:.E f Y u.S.",
"O # - > - - 7.E.4.2.) H A H C D N.w.x.Z.z r d Y d ",
"X X = - * < c d.l 1 7 y 6 6 7 S 1 0 f.s.k ; & 2 ;.",
"$ @ 4 h 4 0 ,./.}   . 7 8 B N 7   c x.} %.:.E l a ",
"+ b < j w p ' n.` e Q s 9 9 5 ! x | T.} j *.;.a.e.",
"% N I #.i A 1.v.b.F.+XA V t V <.2Xk.i.o.P $.E P e.",
"&.=.9.R 8 L V.'.*X:X6X5.V / A 5.7X-X[.L.%.S 5.t.5.",
"P q.;.Q ) M.;X=X[.=X<X/.) G )  X-X%X%X*X}.N.2.J.M.",
" .3.q L .._.,X%X}.}.oX^.J.t./.A.!.{.`.`.].U.+.Y.P.",
"e.0 n m X.{.Q.'.-X[.'.}.@X#X~.OX'.{.&XW.Z.`.0.O.U.",
"d.l g , 3.Q.E.E..X=XoX X|. X{.{.&XXX(.W.l.H.D.[ C.",
"g.o.+.@.A.B.B.Q..X=XoXXX{.{.{.{.%X].).B.g.N.{ U r.",
"A.8.p.R.I.h.h.B.(.=XoX.X^.{.!..X.X{.E.h.a.z.] r.f."
};
