/* XPM */
static const char *micro_tomlimon[] = {
/* columns rows colors chars-per-pixel */
"25 19 181 2 ",
"   c #020304",
".  c #0A0607",
"X  c #080806",
"o  c #09070A",
"O  c #0D0D0B",
"+  c #160D0C",
"@  c #14110A",
"#  c #0D0B10",
"$  c #0F1014",
"%  c #191911",
"&  c #1A1C19",
"*  c #231E18",
"=  c #27221C",
"-  c #29261C",
";  c #31241B",
":  c #242527",
">  c #292927",
",  c #2C2B2B",
"<  c #322B24",
"1  c #3A2F29",
"2  c #312622",
"3  c #2F342D",
"4  c #3B332C",
"5  c #363636",
"6  c #3D3632",
"7  c #3C3934",
"8  c #3B3D38",
"9  c #493733",
"0  c #483D37",
"q  c #3D4039",
"w  c #4A4237",
"e  c #4D443B",
"r  c #44403D",
"t  c #53443B",
"y  c #54493F",
"u  c #3C4043",
"i  c #454444",
"p  c #4C4546",
"a  c #4E4945",
"s  c #48474D",
"d  c #4C4C4E",
"f  c #504740",
"g  c #544B43",
"h  c #5C4D43",
"j  c #584F49",
"k  c #544F4C",
"l  c #5D5344",
"z  c #5C524B",
"x  c #5D5754",
"c  c #5C5C59",
"v  c #565754",
"b  c #635346",
"n  c #62564D",
"m  c #68554E",
"M  c #695C4E",
"N  c #665E4B",
"B  c #645B53",
"V  c #6B5D53",
"C  c #625B59",
"Z  c #6B5F58",
"A  c #72604C",
"S  c #6D6154",
"D  c #6D635B",
"F  c #716254",
"G  c #736459",
"H  c #7A655B",
"J  c #75695C",
"K  c #7C6C5D",
"L  c #6C6565",
"P  c #6B696B",
"I  c #726B63",
"U  c #7C6D61",
"Y  c #726D6A",
"T  c #756661",
"R  c #7B7367",
"E  c #77726C",
"W  c #7C756B",
"Q  c #6B6A70",
"!  c #736F70",
"~  c #6F7175",
"^  c #7C7371",
"/  c #7D797B",
"(  c #757573",
")  c #80715E",
"_  c #8B6E66",
"`  c #837365",
"'  c #8B7867",
"]  c #83756C",
"[  c #8C7B6D",
"{  c #927F6E",
"}  c #837B72",
"|  c #887D79",
" . c #8C7E71",
".. c #8A8076",
"X. c #84847B",
"o. c #8C847C",
"O. c #8E8D7B",
"+. c #91847C",
"@. c #988879",
"#. c #968476",
"$. c #A3877C",
"%. c #7F7D80",
"&. c #8C8383",
"*. c #8C8E89",
"=. c #898882",
"-. c #948B83",
";. c #9F8F80",
":. c #9A9086",
">. c #9C9793",
",. c #969F9A",
"<. c #9D9892",
"1. c #AE9E8E",
"2. c #A39C93",
"3. c #A49E9B",
"4. c #A6A297",
"5. c #A5A39C",
"6. c #ABA39D",
"7. c #B2A39C",
"8. c #B1A598",
"9. c #96A9A3",
"0. c #A5A2A2",
"q. c #ADABA5",
"w. c #A5A6AA",
"e. c #B0A7A0",
"r. c #B3ACA5",
"t. c #BDAEA7",
"y. c #ACB1AD",
"u. c #B3B3A7",
"i. c #BDB4AC",
"p. c #BEB2A6",
"a. c #A7AEB4",
"s. c #B7B6B1",
"d. c #BCBBB4",
"f. c #B8BEBC",
"g. c #C0B2A7",
"h. c #C0B6AD",
"j. c #C2BBB4",
"k. c #BEC1B3",
"l. c #BFC3BC",
"z. c #C4C3BD",
"x. c #C9C4BE",
"c. c #BEC4C1",
"v. c #C1C6C0",
"b. c #CBC7C2",
"n. c #C6CAC5",
"m. c #CBCBC5",
"M. c #D3CCC3",
"N. c #CDD0CC",
"B. c #D4D3CC",
"V. c #D9D4CB",
"C. c #DCD2C6",
"Z. c #D3D6D2",
"A. c #DBD7D2",
"S. c #DBDAD5",
"D. c #D7D9D8",
"F. c #DCDCD9",
"G. c #D7D4DB",
"H. c #E0D7D0",
"J. c #E3DDD5",
"K. c #E2DFD9",
"L. c #DFE1D3",
"P. c #DFE3DD",
"I. c #E3E2DC",
"U. c #EAE3DC",
"Y. c #F6E8DB",
"T. c #DEDEE0",
"R. c #E4E5E2",
"E. c #EBE7E1",
"W. c #EBEAE5",
"Q. c #EBEBEE",
"!. c #F2EFE9",
"~. c #F4F2EC",
"^. c #F9F4EA",
"/. c #EBEEF3",
"(. c #F6F4F3",
"). c #F8F7F5",
"_. c #FFF9F1",
"`. c #FCFDF5",
"'. c #FFFEFB",
"]. c #FEFFF9",
"[. c #FDFEFD",
/* pixels */
"g e e g Z z w 4 6 7 7 8 q i r a v a a a a k z C D ",
"G y z B n B g y g g j f e g e e j j w w 0 g t z J ",
"1.;.[ M y h n l l b b m V V M N V M M S G G V F F ",
"A ' H K [  .H U K K ` G h G ` K ' K ) K U U U H H ",
"{ [ ' H 8.Y.p.U ` U y - * 4 z U S F G J S V V U J ",
"K @.V ] R ] ..V S S 6 = < < 2 B } } W D 5.3.} g z ",
"M.:.+.2.-.e.< W M.T ; t t e + Y H.U.V.5.W.].M.I <.",
"_.6.E.E.<.-.4 } V.C.b $._ H 1 =.U.J.V.n.R.].J.4.d.",
"!.7.u._.Z.*.4 V Z.~.r.U H h } q.A.x.V.2.x.].V.4.O.",
"^.t.k.`.P.B.< R ].!.U.+.t 9 r.q.B.z.i.W r.~.V.2.R ",
"^.7.L.^.`.].g o.[.(.E.h.] J r.m.b.i.i.-.q.~.V.i.D ",
"W V k.V.m.U.B } [.R.E.J.j.j.S.W.W.B.j.=.0.).b.5.I ",
"W Z X.2.5.q.B E ~.R.W.F.K.I.I.P.D.F.( 5 d w.Q.Y C ",
"g T c | I o.D 5.I.B.R.R.F.K.m.l.c.N.( o   ~ Q.%.c ",
"g n 3 ^ 6 2.E m.B.n.P.D.F.I.B.v.y.Z.*.X   ~ T.0.x ",
"-.9 c ^ = g x F.b.x.B.Z.D.D.z.n.q.B.5.O   P (.>.L ",
"L - O $ >   ! ^.M.z.Z.A.I.Z.c.d.9.J.N.& o i 2.&.C ",
"+ @ O : > , P u.7.s.D.S.F.N.c.l.,.g.3.5 # u X./ / ",
". % > Q v i i T #.q.F.S.S.n.f.z.=.H g i s a.`./.G."
};
