/* XPM */
static const char *micro_lsalmon[] = {
/* columns rows colors chars-per-pixel */
"25 17 176 2 ",
"   c #000200",
".  c #020D0D",
"X  c #120902",
"o  c #11100E",
"O  c #0C0E12",
"+  c #110E19",
"@  c #110C13",
"#  c #0E1015",
"$  c #111217",
"%  c #121816",
"&  c #1C1817",
"*  c #13141B",
"=  c #18191D",
"-  c #18181E",
";  c #2D1F1E",
":  c #112019",
">  c #141620",
",  c #1A1C26",
"<  c #232325",
"1  c #292A2E",
"2  c #322320",
"3  c #2D2E33",
"4  c #3F2F3A",
"5  c #38393D",
"6  c #323338",
"7  c #53371F",
"8  c #413132",
"9  c #533733",
"0  c #613421",
"q  c #604A3F",
"w  c #694B33",
"e  c #75453B",
"r  c #73523F",
"t  c #6B4A29",
"y  c #4F4F51",
"u  c #5A5653",
"i  c #4B494A",
"p  c #7D4F40",
"a  c #795559",
"s  c #7F6242",
"d  c #726056",
"f  c #7C7559",
"g  c #5E6164",
"h  c #67686C",
"j  c #676767",
"k  c #7B7975",
"l  c #7F7E7A",
"z  c #767677",
"x  c #955A4B",
"c  c #8E5E5E",
"v  c #95684B",
"b  c #87754F",
"n  c #866458",
"m  c #8E665C",
"M  c #9E6B58",
"N  c #996D55",
"B  c #8E7B5D",
"V  c #AA655E",
"C  c #A47559",
"Z  c #9D756B",
"A  c #807F7B",
"S  c #8C787A",
"D  c #A36F6A",
"F  c #AF6C6F",
"G  c #A7776B",
"H  c #BE766A",
"J  c #AF7F73",
"K  c #B77974",
"L  c #8E8C7F",
"P  c #84837F",
"I  c #94877F",
"U  c #9A8872",
"Y  c #AF8668",
"T  c #B2826E",
"R  c #A28877",
"E  c #BD8378",
"W  c #C3827C",
"Q  c #C7987E",
"!  c #C9907C",
"~  c #7F7D82",
"^  c #858684",
"/  c #8A8683",
"(  c #878A8C",
")  c #8D8A8B",
"_  c #928D8A",
"`  c #979080",
"'  c #98958E",
"]  c #8D8D92",
"[  c #918F90",
"{  c #959495",
"}  c #989795",
"|  c #9D9A97",
" . c #90939B",
".. c #9B9B9B",
"X. c #A68981",
"o. c #BA858F",
"O. c #AE9287",
"+. c #A29F90",
"@. c #A19D9B",
"#. c #B49986",
"$. c #93A49E",
"%. c #A1A197",
"&. c #A3A09D",
"*. c #A9A19F",
"=. c #A19FA0",
"-. c #9DA9AB",
";. c #A5A4A3",
":. c #AAA5A2",
">. c #A6A8A7",
",. c #ACA9A5",
"<. c #A7A6A9",
"1. c #A5ABAA",
"2. c #ADACAA",
"3. c #B1ADA6",
"4. c #B2AEAB",
"5. c #A7B1AD",
"6. c #ABB0AE",
"7. c #B3B1AE",
"8. c #B5BEA9",
"9. c #A7AEB6",
"0. c #ABAEB2",
"q. c #B0AFB5",
"w. c #A6B1B7",
"e. c #AAB1B7",
"r. c #AFB9B1",
"t. c #AFB6BC",
"y. c #ADBBBC",
"u. c #B6B3B2",
"i. c #BAB5B2",
"p. c #BBBBB7",
"a. c #B6B4B8",
"s. c #BBB4B9",
"d. c #B4BCB8",
"f. c #BDBBBB",
"g. c #C89584",
"h. c #D4A08B",
"j. c #D5A699",
"k. c #C1B29B",
"l. c #D7A8A2",
"z. c #DCAFAA",
"x. c #C3B1A3",
"c. c #C3BCB7",
"v. c #C1B5BF",
"b. c #C1BEBB",
"n. c #C8BDB9",
"m. c #ABC0AF",
"M. c #A4C1BF",
"N. c #ADC0BE",
"B. c #B7C0BB",
"V. c #BCC3BE",
"C. c #C4C1BD",
"Z. c #BABEC1",
"A. c #AAB8C5",
"S. c #AAC2C6",
"D. c #B7C7C7",
"F. c #BBCCCE",
"G. c #B8C4C7",
"H. c #BECFD9",
"J. c #C4C4C4",
"K. c #C9C6C5",
"L. c #C5CAC5",
"P. c #CBC9C6",
"I. c #CCCBCA",
"U. c #C7CBCC",
"Y. c #D2CDCB",
"T. c #D2D1CD",
"R. c #D8D3CD",
"E. c #C6D0DA",
"W. c #CED4D2",
"Q. c #D4D4D2",
"!. c #D9D3D2",
"~. c #DDD9D6",
"^. c #D9D7D8",
"/. c #DAD9D9",
"(. c #DEE0DB",
"). c #E2E3E5",
/* pixels */
"g  .9.-.w.F.D.y.A.P.I.S.D.R.n. .;.Q.I.{ f.Q.;.f.a.",
"z ( 9.t.e.1.y.y.M.N.y.H.E.).&...U.Q./.K.2./...2.J.",
"h ] Z.Z.Z.G.U.W.S.F.L.+.` 3.s.( f./.Y.^.f.u.| 7.I.",
"..] J.f.U.K.I.P.G.c.U s t 7 d !.Q.U.Q./.;.} | P.I.",
"~ <.f.b.K.Y.P.~.(.#.T j.j.Q w L ,.7.;.j 2.,.7.P.T.",
"~ ..{ u.4.&.4.*.q.n g.z.l.h.r l ;.f.Y./ _ @.| 4.Q.",
"<.f.J.| b._ b.&.s.X.p G G x Z S ~.i.i.P.~.P.~.,.i.",
"a...u.,.Y.&.b.:.k.R G K W E G N i.u.4.7.K.~.~.C.2.",
":.@.u.>.L.P.Y.n.!.O.T K F ! C o...| &.4.,.4.T.b.4.",
"{ ..d.2.1.P.K.R.!.x.N V F Y b %.;.;.:.c.,.@.Q.p.2.",
"..>.5.5.d.r.V.L.K.8.B M J v v I &.;.P / @.7.T.u.,.",
"6.;.1.V.B.d.6.J.J.m.f 0 e x H a h a.f.C.,.| ~.7.:.",
"( ^ ..p.J.L.J.Z.v.g q D c D m < y 0.J.;.2.C.Y.3.:.",
";.;.A k f.2.{ h 4 , ; 9 8 2 X . $ 6 g { f.I.Y.' 7.",
"=.;.k / C.{ 1 * < , #   . O o - * * # 3 ..) u 4.p.",
") ) / i.C.i O - : > @ & + # % O * * > O g ^ k b.4.",
"&.;.$.-.1.< O * $ O O O O O * = $ # # O 5 ..[ 4.;."
};
