/* XPM */
static const char *micro_xberger[] = {
/* columns rows colors chars-per-pixel */
"25 19 211 2 ",
"   c #050609",
".  c #120C0C",
"X  c #16110E",
"o  c #040D14",
"O  c #020C1A",
"+  c #0D0D12",
"@  c #100E13",
"#  c #0B1216",
"$  c #0D141C",
"%  c #06151A",
"&  c #151C1E",
"*  c #2C1819",
"=  c #37291B",
"-  c #061522",
";  c #0C1825",
":  c #141D24",
">  c #1C1F28",
",  c #0D1C32",
"<  c #1A1C33",
"1  c #142020",
"2  c #1A2936",
"3  c #322D2A",
"4  c #3A3936",
"5  c #252326",
"6  c #443A30",
"7  c #4E453B",
"8  c #57543D",
"9  c #565838",
"0  c #58463A",
"q  c #1F2F46",
"w  c #283A46",
"e  c #4E3E41",
"r  c #3D4C4F",
"t  c #3D544E",
"y  c #394556",
"u  c #4F4A44",
"i  c #4B524C",
"p  c #5A544A",
"a  c #485455",
"s  c #555852",
"d  c #444853",
"f  c #664642",
"g  c #6E4C43",
"h  c #7E534A",
"j  c #635E54",
"k  c #675F59",
"l  c #755D55",
"z  c #59635C",
"x  c #696948",
"c  c #70744F",
"v  c #62615C",
"b  c #6C655B",
"n  c #6A685B",
"m  c #756257",
"M  c #7C725A",
"N  c #77765A",
"B  c #565F66",
"V  c #4B5D69",
"C  c #5B6263",
"Z  c #5E6966",
"A  c #5C6A69",
"S  c #56666B",
"D  c #5D7371",
"F  c #666663",
"G  c #616A64",
"H  c #6E6C6C",
"J  c #696A63",
"K  c #706E64",
"L  c #7F6163",
"P  c #6D726D",
"I  c #78766C",
"U  c #687676",
"Y  c #707E79",
"T  c #7D7A79",
"R  c #797973",
"E  c #855446",
"W  c #91644F",
"Q  c #8C7F5D",
"!  c #9A6B59",
"~  c #836F64",
"^  c #8A7568",
"/  c #967868",
"(  c #967E74",
")  c #867774",
"_  c #7D857F",
"`  c #8F806B",
"'  c #84837D",
"]  c #888677",
"[  c #968679",
"{  c #99917E",
"}  c #95876D",
"|  c #A58677",
" . c #BC8F76",
".. c #B98B7B",
"X. c #A9937C",
"o. c #667B80",
"O. c #7B7F82",
"+. c #837A8B",
"@. c #5A9198",
"#. c #6E838A",
"$. c #6B8986",
"%. c #798585",
"&. c #7C8C89",
"*. c #768887",
"=. c #799187",
"-. c #678791",
";. c #7C8D95",
":. c #7C9498",
">. c #7098AB",
",. c #7EA3AC",
"<. c #838886",
"1. c #82878B",
"2. c #878785",
"3. c #9A8C84",
"4. c #8F9083",
"5. c #83938D",
"6. c #899189",
"7. c #96958F",
"8. c #9C9489",
"9. c #9F9186",
"0. c #898B93",
"q. c #838499",
"w. c #869699",
"e. c #979898",
"r. c #BF8F81",
"t. c #AD9382",
"y. c #AC9B8C",
"u. c #A49B8A",
"i. c #AA9A92",
"p. c #A69D98",
"a. c #B29692",
"s. c #9FA29C",
"d. c #A3A29E",
"f. c #ADA49D",
"g. c #AEA190",
"h. c #BAA492",
"j. c #BFAE9A",
"k. c #B4B299",
"l. c #AAA98B",
"z. c #8F9BA9",
"x. c #9A9FA2",
"c. c #989DA7",
"v. c #9EABAC",
"b. c #97A6A6",
"n. c #96A2B0",
"m. c #98B2BA",
"M. c #A7AAA6",
"N. c #A9ACA7",
"B. c #A9AAA8",
"V. c #B9ABA6",
"C. c #AEB3AC",
"Z. c #B6B5AB",
"A. c #AFADB0",
"S. c #A4B2BB",
"D. c #AEB6BB",
"F. c #B4B8B9",
"G. c #C29585",
"H. c #C49A84",
"J. c #D19B81",
"K. c #C9A698",
"L. c #D0AB98",
"P. c #D9B39B",
"I. c #C4BAA4",
"U. c #C3B3A8",
"Y. c #D8BEA9",
"T. c #C5B9B4",
"R. c #E0BFB6",
"E. c #DBD3AE",
"W. c #CAC4B8",
"Q. c #D7D7BF",
"!. c #D8C7B6",
"~. c #E5C4B9",
"^. c #FEE5AC",
"/. c #ABBDC4",
"(. c #ACB8C8",
"). c #B3BCC1",
"_. c #B6C2C3",
"`. c #BAC4CB",
"'. c #BFCDD6",
"]. c #C5CBCB",
"[. c #D4CFD5",
"{. c #C6D9DB",
"}. c #C8D7DA",
"|. c #D3D6DA",
" X c #D6D2C7",
".X c #E9DBD6",
"XX c #EDE2D0",
"oX c #E5E1C8",
"OX c #CBDDE5",
"+X c #D3DFE4",
"@X c #D8DEE6",
"#X c #CEE1EF",
"$X c #D4E2EB",
"%X c #D9E5E9",
"&X c #D6E7EC",
"*X c #CCE4F0",
"=X c #D4E5F3",
"-X c #D9E7F2",
";X c #D5E9F4",
":X c #DBEBF5",
">X c #DBEDF9",
",X c #D5EBF8",
"<X c #DDF1FC",
"1X c #D6F2FE",
"2X c #F8F8E9",
"3X c #E2ECF2",
"4X c #E5F0F6",
"5X c #EAF4FA",
"6X c #E7F4F9",
"7X c #F9FBF0",
"8X c #E1E6EA",
/* pixels */
"5.5.G 7.3.2.G U =.=.;.#.Z Y U Y x.<.J Z #.w.=.o.&.",
"b.b.5._ T 2.Z A D z U Y z i r C ' K v P &.;.o.U %.",
"$X{.{._.D.).v.w.w.%.;.b.6.U U 0.d.2.s.F.v.m./.S.`.",
";X;X=X;X>X:X;X$X$X+X$XOX{.}.OX@X$X}.+X%X%X-X4X5X5X",
"=X;X=X,X;X#X>X=X*X4X$X+X%X4X<X%X;X<X:X&X:X-X$X%X3X",
"D.).`.'.OXOX$X+X1X].Z.T.i.F.<X;X-X3X4X5X5X>X:X-X8X",
"j F F H O.0.0.e.x.V.R.~.~.f._.D.F.F.B.M.A.e.1.1.<.",
"u.[ 9.p.v 2.7.R ( G...K.| 3.7.9.U C v j u 4 7 6 3 ",
"I.u.W..X+.N.Q.T.t.l h r.g ^ y.Z.=.N.f.7.C.K j p p ",
"n I x 2.q.|.2X.Xt.H. .K.G.H.h.7Xb.Z.y.] k.I.I.y.!.",
"8 } Q 4.(.[.XX.XU. .W g E ! !.7X/.C.M 9 x c N ] h.",
"8 M ` 8.s.A.V.j.d.l f L f 0 f. XS.M.{ N 9 l.] j b ",
"s K ) / E.W.0.n ].T * e 4 = g.T.S.P b I F 4.R i 4 ",
"s R a.P.^.oXc.v |.T.= X + / Y.}.;Xv.<.C a U Z a i ",
"] [ [ X.k.Z.e.H d Y.X.7 m P.} y z.D.e.e.B F T 1.P ",
"' R Z -.>.>.a > O m L.| t.^ @ , 2 &._ _ 6.' 6.%.C ",
"b J.#.@.$.y < : ; o k K.~ . $ , 2 q V S D C.=.%.P ",
"F / ;.,.t ; - : $ +   5   $ $ : : 2 2 V $.v.:.#.U ",
"c.V.(.n.1 O # % # $ % O - - $ & & - o w $.w.m.-.o."
};
