/* XPM */
static const char *micro_rsebasti[] = {
/* columns rows colors chars-per-pixel */
"25 19 193 2 ",
"   c #030403",
".  c #090708",
"X  c #0C0C0C",
"o  c #070808",
"O  c #14110E",
"+  c #1C150F",
"@  c #131313",
"#  c #181511",
"$  c #1C1B1A",
"%  c #151718",
"&  c #20160D",
"*  c #24211C",
"=  c #2C2219",
"-  c #2E2A1F",
";  c #1E2327",
":  c #252126",
">  c #2D2922",
",  c #252429",
"<  c #322F2C",
"1  c #382E26",
"2  c #35302A",
"3  c #3D322B",
"4  c #39352B",
"5  c #2F2D30",
"6  c #373635",
"7  c #443C2F",
"8  c #403A34",
"9  c #423D39",
"0  c #523F33",
"q  c #4C423B",
"w  c #484137",
"e  c #52463D",
"r  c #594A39",
"t  c #5D503F",
"y  c #62513F",
"u  c #3B4F5A",
"i  c #444646",
"p  c #514642",
"a  c #534842",
"s  c #5B4E45",
"d  c #574E4A",
"f  c #575048",
"g  c #5C534B",
"h  c #544F53",
"j  c #565859",
"k  c #62544B",
"l  c #6A564C",
"z  c #6C5C4D",
"x  c #665A4A",
"c  c #705F4F",
"v  c #785C4E",
"b  c #6B5D53",
"n  c #655751",
"m  c #715F53",
"M  c #6F6156",
"N  c #6C645C",
"B  c #736255",
"V  c #746559",
"C  c #7A6A5C",
"Z  c #796559",
"A  c #4B5F6A",
"S  c #625E64",
"D  c #5D6D77",
"F  c #6E6A6C",
"G  c #6C6664",
"H  c #746A62",
"J  c #7A6D65",
"K  c #716660",
"L  c #7F756A",
"P  c #606E77",
"I  c #716C72",
"U  c #617077",
"Y  c #7A7877",
"T  c #846D5D",
"R  c #8C6F5F",
"E  c #87715D",
"W  c #806F67",
"Q  c #896F62",
"!  c #926E60",
"~  c #847364",
"^  c #897565",
"/  c #847569",
"(  c #857A6D",
")  c #8C7A6B",
"_  c #8A7864",
"`  c #927C6B",
"'  c #897A71",
"]  c #837D7D",
"[  c #887E7F",
"{  c #937F78",
"}  c #8C827C",
"|  c #8F8373",
" . c #948476",
".. c #9C8B7D",
"X. c #9B877A",
"o. c #A88D7A",
"O. c #687B8B",
"+. c #787F85",
"@. c #867D82",
"#. c #7E878C",
"$. c #798B99",
"%. c #8A8582",
"&. c #8F8B82",
"*. c #8A888D",
"=. c #948C84",
"-. c #908788",
";. c #978D8B",
":. c #9B9287",
">. c #94918C",
",. c #9C928A",
"<. c #868F98",
"1. c #8C8B91",
"2. c #908F95",
"3. c #95999C",
"4. c #A0948D",
"5. c #A49687",
"6. c #B39485",
"7. c #A29B94",
"8. c #A49E9B",
"9. c #A69A92",
"0. c #ABA195",
"q. c #AAA49D",
"w. c #ABA69C",
"e. c #BAA692",
"r. c #BAAB9E",
"t. c #8C9AA6",
"y. c #929FAA",
"u. c #98A2AE",
"i. c #9EAAB6",
"p. c #9BADB9",
"a. c #A7ABA9",
"s. c #B5ABA3",
"d. c #BDACA4",
"f. c #B3B3AA",
"g. c #BCB4AE",
"h. c #A2AEB9",
"j. c #A8B3BF",
"k. c #B8B7B8",
"l. c #C3AB9F",
"z. c #C3B5A8",
"x. c #C4B7AA",
"c. c #C3BAB2",
"v. c #CBBEB3",
"b. c #CBC4BC",
"n. c #CFC8BE",
"m. c #CAC2B5",
"M. c #DAC5B0",
"N. c #9FB0C0",
"B. c #ACB9C5",
"V. c #A4B7C2",
"C. c #B2BBC4",
"Z. c #BCBDC6",
"A. c #B2BECB",
"S. c #B9BDC9",
"D. c #B2BFD0",
"F. c #AEC1CA",
"G. c #B5C1CD",
"H. c #BAC4D2",
"J. c #BFCAD4",
"K. c #BBCDDB",
"L. c #BED5DB",
"P. c #C7C4C3",
"I. c #C7C9C7",
"U. c #D4CDC5",
"Y. c #D7CEC7",
"T. c #CDD0C7",
"R. c #D3D2CE",
"E. c #DFD6CF",
"W. c #DED4CA",
"Q. c #C3CBD4",
"!. c #C9CCD8",
"~. c #C6D4DD",
"^. c #CED2DD",
"/. c #DDDDD5",
"(. c #D6D6D3",
"). c #E0D8CB",
"_. c #E3DCD3",
"`. c #E5DDD5",
"'. c #E7E2CF",
"]. c #E3E1D6",
"[. c #ECE5DB",
"{. c #E7E3D8",
"}. c #F1EEDF",
"|. c #CBD7E3",
" X c #D7E2EC",
".X c #DFE5F1",
"XX c #F2EDE5",
"oX c #F7EEE9",
"OX c #EFF5EB",
"+X c #FCF4EB",
"@X c #F9F2E5",
"#X c white",
"$X c #FAF8F4",
/* pixels */
"1 & = 4 1 2 3 3 w N >   X @ X X * > 2 $ # O O # # ",
"L f 3 8 f g s n C z 7 - > > > 2 < > 6 w 8 9 9 9 9 ",
"[.s.s b J b n k s b n a a d q a e a q q q q q a a ",
"[.0.B ) X.5.) B b z x b C C B V B M C V V B V M V ",
"| ^ ) ^ T ` _ ~ 5.0. .~ z c ) / ) ) ^ ~ ) ^ ~ / ^ ",
"+Xz.T E ` o.) ^ c.+Xr.l m 0 s J C B C T B C C Z B ",
"c.=.:.r.5...) ) (  .y e.M.e.t x 4.,.} / ..( J 0.g.",
"oXb.[.+X).v.`.=.=.J 0 Q ` l e 4.`.b.s.0.[.w.=.XX#X",
"T._.{.].@Xz.XXI.w.B l 6.o.E T ..[.b.&.q.g.7.q.].$X",
"/.W.E./.@Xv.}./.+XK w l.! v Z s.Y.U.7.q.8.;.] >.(.",
"_.v.[.{.`.m.'.XX$X9.1 X.R t l g.c.f.>.} ;.[ G Y P.",
"m.Y._.R.XXz.'.n.OXs.m 6.T r k g.R.I.8.%.-.@.I *.!.",
",.d.:.f.E.( b.%.(.R.I.s.{ k Y a.I.3.j F ] F S 1.Z.",
"G W H Y ,.' &.a. X X~.Z.2.+.u.F.Q.Q.i X 5 : : , Y ",
"6 / L &.H N a..XL.!.|.H.B.V.B.D.H.~.|.j   X X o h ",
"i ' s 7.4.3 a.A.k.^.K.H.S.C.S.A.K.N.h.#.o o o   S ",
" .5.= 9.,.* 3.y.C.Q.J.J.A.G.B.y.A.p.O.U % o O   j ",
"x.J + N 1 % <.$.h.A.H.A.j.G.B.V.i.$.A D ; . X o < ",
"d * O . X 6 y.O.i.h.j.i.i.A.u.t.t.D u P 6 @ $ $ h "
};
