/* XPM */
static const char *micro_maouvrar[] = {
/* columns rows colors chars-per-pixel */
"25 19 204 2 ",
"   c #120E0D",
".  c #1B1412",
"X  c #1D1C1A",
"o  c #351704",
"O  c #31160D",
"+  c #231709",
"@  c #3C280E",
"#  c #2B2219",
"$  c #312212",
"%  c #3B241E",
"&  c #241E24",
"*  c #291D27",
"=  c #33262F",
"-  c #3F302B",
";  c #2E2934",
":  c #2B2739",
">  c #322C3C",
",  c #36313C",
"<  c #3C393A",
"1  c #363239",
"2  c #461C10",
"3  c #44231C",
"4  c #522E1E",
"5  c #4E311F",
"6  c #45230A",
"7  c #473221",
"8  c #5D3E39",
"9  c #4B372F",
"0  c #613E2B",
"q  c #703513",
"w  c #764421",
"e  c #604439",
"r  c #7D4E3A",
"t  c #7B553E",
"y  c #322D44",
"u  c #2F3042",
"i  c #3D3747",
"p  c #3A354B",
"a  c #3D3C4B",
"s  c #383847",
"d  c #3D3951",
"f  c #3D3C5C",
"g  c #40394C",
"h  c #473D54",
"j  c #443959",
"k  c #564A4A",
"l  c #464354",
"z  c #4B4556",
"x  c #4C455C",
"c  c #4D4A5B",
"v  c #494D56",
"b  c #4D515D",
"n  c #5D5B5C",
"m  c #474249",
"M  c #614A42",
"N  c #6A5548",
"B  c #6F5C59",
"V  c #765E54",
"C  c #766B5E",
"Z  c #79645A",
"A  c #676453",
"S  c #4A4361",
"D  c #4B4068",
"F  c #595369",
"G  c #645F65",
"H  c #686769",
"J  c #716D6A",
"K  c #7E7163",
"L  c #7A7A77",
"P  c #7C7C7B",
"I  c #7F7775",
"U  c #823918",
"Y  c #895530",
"T  c #94583E",
"R  c #AB4D27",
"E  c #895F46",
"W  c #9E6D42",
"Q  c #846A58",
"!  c #B67955",
"~  c #BE7C59",
"^  c #AA6C47",
"/  c #826E64",
"(  c #846967",
")  c #847465",
"_  c #897564",
"`  c #8E7D65",
"'  c #8E7B6A",
"]  c #87776C",
"[  c #957D6B",
"{  c #947566",
"}  c #916F70",
"|  c #887D7F",
" . c #8C7776",
".. c #937E73",
"X. c #AB766E",
"o. c #C57A5D",
"O. c #C27E7B",
"+. c #98866D",
"@. c #8A8378",
"#. c #968172",
"$. c #9A8474",
"%. c #9C8975",
"&. c #9B867C",
"*. c #9D8B7B",
"=. c #94867A",
"-. c #A38B76",
";. c #A38D7B",
":. c #A98F7C",
">. c #B7877D",
",. c #A5927D",
"<. c #AA907C",
"1. c #BE9079",
"2. c #EB9566",
"3. c #757385",
"4. c #757F81",
"5. c #7C8587",
"6. c #84878B",
"7. c #838688",
"8. c #948C85",
"9. c #878C93",
"0. c #948E90",
"q. c #8D9395",
"w. c #939493",
"e. c #98959A",
"r. c #A18F83",
"t. c #A49283",
"y. c #A99484",
"u. c #AC9884",
"i. c #A1948A",
"p. c #AC998A",
"a. c #A69988",
"s. c #B29D8D",
"d. c #B39F86",
"f. c #AD9F93",
"g. c #A39A96",
"h. c #B69E92",
"j. c #B4A28D",
"k. c #AEA197",
"l. c #BDAB9C",
"z. c #B9A599",
"x. c #9B9AA1",
"c. c #A7A5A4",
"v. c #BBAAA1",
"b. c #AEB0AD",
"n. c #BDB3AB",
"m. c #BBB0A6",
"M. c #A4ABB1",
"N. c #ABB3B5",
"B. c #B3B6B7",
"V. c #B2B7BB",
"C. c #BEBAB7",
"Z. c #CC9C94",
"A. c #DEAD8F",
"S. c #C1AC9B",
"D. c #C9A99A",
"F. c #D6B298",
"G. c #C4AEA3",
"H. c #C3B3A9",
"J. c #C9B4A5",
"K. c #D1B6A3",
"L. c #CAB9B3",
"P. c #E5AFA5",
"I. c #E0BFAE",
"U. c #E5BAB3",
"Y. c #BEC0BD",
"T. c #D6C4B6",
"R. c #B8BFC3",
"E. c #BEC4C7",
"W. c #C4C5C4",
"Q. c #CBC5C6",
"!. c #C9CACB",
"~. c #CBCAC5",
"^. c #D8CBC3",
"/. c #C5CDD9",
"(. c #CAD2D0",
"). c #CDD4DB",
"_. c #D2D4D4",
"`. c #D9DAD6",
"'. c #D6DBDD",
"]. c #D8DBDE",
"[. c #E0CECA",
"{. c #FDD6CF",
"}. c #E2DEDF",
"|. c #F6D8D0",
" X c #EFD2CA",
".X c #CEDBE3",
"XX c #D3D9E2",
"oX c #D8DDE3",
"OX c #DDE2E4",
"+X c #DCE3E9",
"@X c #DAE4F0",
"#X c #E5E4E1",
"$X c #ECEDE8",
"%X c #E5E9E9",
"&X c #F1EEE9",
"*X c #F6ECE3",
"=X c #EFF2EC",
"-X c #F3F2ED",
";X c #FBF7EC",
":X c #F4F5F2",
">X c #FCFBF2",
",X c #F4F7F8",
"<X c #FDFEFC",
"1X c #FAF7F0",
/* pixels */
".._ ` ' ....*.;.+.) k C %.;.y.a.,.[ ' / ) K C C Z ",
"%.$.#.' _ ) ' ' K B / &.v.Q.%X<X*Xk.L.T.f.=.=.*.8.",
"-.;.$.$.%.+.$.&.[ ] #X<X1X>X>X[.m.r.t.y.-.;.:.;.;.",
";.*.#.[ [ [ #.$.@.]  .M N Q ` ;.;.y.;.<.:.<.;.&.#.",
"i.t.,.%.[ $.$.$.&.8 O + $ 5 4 Q y.;.y.a.k.m.~._.`.",
"e.i.a.u.y.y.t.u.` N B - 6 ! w @ ;.s.*.i.1X1X<X<X<X",
"6.c.g.f.s.u.u.j.V ( } { ~ 2.~ o *.;XL.@.1X&X-X&X*X",
"v x.c.k.j.d.j.s.k [ >.>.Z.r t o 8.<X_.e.<X<X<X<X<X",
"H J B.N.v.z.l.p.3 n.|.P.F.U ! 2 @.<X`.w.<X:X<X<X<X",
").n M.R.n.S.S.j.9 T.{. XA.R o.$ I <XW.L =X#XW.(.-X",
"<XP q./.C.l.l.J.A  .U.Z.X.q T 7 Q.<X!.L $X:Xb.N.`.",
"<Xc.4..X!.H.G.G.z.( l.I.O.0 5 N <X<X'.q.<X-X:X:X:X",
"=XE.5.)._.H.D.G.K.l.L.h.Z @ W % P <XY.J $X$X!._.OX",
"%XE.9.XX].H.K.T.D.3.B.[.e Y ^ # . | 0.H #X<XB.M.,X",
",X).q.XXXX~.G.| b D H [.1.E m * = * 1 G W.<X%X%X,X",
"<X(.w.oX@Xx.k y j v f p a h s p > a l i < g.#X}.].",
"<XE.6.+X/.d y g l S S x x z a d ; h z p ; 1 e.7.w.",
"V.R.5.OX3.: p h l S S x c i , p > x i > , . & X < ",
"'.V.6.V.u p p F c d F c g H e.z , l : : ;   & J L "
};
