/* XPM */
static const char *micro_lgasc[] = {
/* columns rows colors chars-per-pixel */
"25 19 195 2 ",
"   c #11100E",
".  c #181614",
"X  c #191A18",
"o  c #220500",
"O  c #211E1A",
"+  c #241A16",
"@  c #1F201A",
"#  c #24221C",
"$  c #212115",
"%  c #1A1A24",
"&  c #1A2224",
"*  c #2B2521",
"=  c #282729",
"-  c #332A23",
";  c #35322A",
":  c #3F362C",
">  c #363226",
",  c #2B2B33",
"<  c #312E35",
"1  c #2E3639",
"2  c #38383D",
"3  c #532C0F",
"4  c #4A2D1A",
"5  c #4D2A14",
"6  c #48311F",
"7  c #54341D",
"8  c #6E3D1C",
"9  c #743B1E",
"0  c #4B2E2A",
"q  c #4A372A",
"w  c #51362D",
"e  c #423C31",
"r  c #4F393C",
"t  c #603721",
"y  c #5A4C3F",
"u  c #464239",
"i  c #7C4222",
"p  c #7C4D2F",
"a  c #6B4C34",
"s  c #373C4C",
"d  c #3B3C45",
"f  c #384454",
"g  c #47454F",
"h  c #4E4A4B",
"j  c #564D44",
"k  c #585248",
"l  c #424C5D",
"z  c #4D4A55",
"x  c #4D505F",
"c  c #5A5959",
"v  c #685848",
"b  c #665447",
"n  c #795E4A",
"m  c #645D52",
"M  c #6A5E55",
"N  c #615654",
"B  c #77694F",
"V  c #6B6256",
"C  c #6B615A",
"Z  c #726554",
"A  c #70655A",
"S  c #72695D",
"D  c #7D6859",
"F  c #444D62",
"G  c #4E4C62",
"H  c #4B556B",
"J  c #49566A",
"K  c #505468",
"L  c #4E5571",
"P  c #525B73",
"I  c #535F79",
"U  c #57617D",
"Y  c #5C697A",
"T  c #6B6A64",
"R  c #766A62",
"E  c #7A6C63",
"W  c #746E6B",
"Q  c #766A66",
"!  c #7C7164",
"~  c #75746F",
"^  c #7B7779",
"/  c #9C571E",
"(  c #8A4A28",
")  c #8A522F",
"_  c #A16C38",
"`  c #885C42",
"'  c #80715A",
"]  c #916651",
"[  c #A66F46",
"{  c #A67258",
"}  c #83766A",
"|  c #85796A",
" . c #85786A",
".. c #937A69",
"X. c #837B73",
"o. c #8A7C71",
"O. c #8A7D79",
"+. c #A27D63",
"@. c #978169",
"#. c #8E8374",
"$. c #8D827A",
"%. c #8A897D",
"&. c #878078",
"*. c #928372",
"=. c #93837B",
"-. c #918A7B",
";. c #9B8B7D",
":. c #998878",
">. c #BE906E",
",. c #B38673",
"<. c #B9937F",
"1. c #B69A7B",
"2. c #B3846A",
"3. c #CB8A6D",
"4. c #5C6380",
"5. c #5E728B",
"6. c #687083",
"7. c #7C8395",
"8. c #8C8A84",
"9. c #808289",
"0. c #958B83",
"q. c #9A8C84",
"w. c #958E8B",
"e. c #948585",
"r. c #9C9281",
"t. c #95928A",
"y. c #8E8E96",
"u. c #8F9191",
"i. c #9E9A91",
"p. c #A08E8A",
"a. c #A3968B",
"s. c #A69689",
"d. c #A59C94",
"f. c #9CA09F",
"g. c #A3A29C",
"h. c #ADA599",
"j. c #B2A59B",
"k. c #B8A49A",
"l. c #A9A9A5",
"z. c #B0A9A3",
"x. c #B7B7AD",
"c. c #B9B8AC",
"v. c #BCB3A9",
"b. c #BBBBB1",
"n. c #B6B5B5",
"m. c #D99C84",
"M. c #C9A187",
"N. c #D4A88F",
"B. c #CBA593",
"V. c #DCB29A",
"C. c #E5B399",
"Z. c #C0B1A3",
"A. c #C1BBAB",
"S. c #D0B0A1",
"D. c #C1BAB6",
"F. c #C1BCB8",
"G. c #E5BEAD",
"H. c #BFC0B2",
"J. c #C6C5B8",
"K. c #D3CABE",
"L. c #FAC8AA",
"P. c #F3CCB2",
"I. c #FED5BF",
"U. c #B6BDC7",
"Y. c gray77",
"T. c #CAC8C6",
"R. c #D7CDC4",
"E. c #CFD4CE",
"W. c #CCCFD3",
"Q. c #CCD2D4",
"!. c #CFD3DC",
"~. c #D3DADA",
"^. c #D6D5D6",
"/. c #E3D4C8",
"(. c #F4D7C2",
"). c #FED9C4",
"_. c #E8DFDA",
"`. c #FDDDD0",
"'. c #FFE5CE",
"]. c #E8E2DC",
"[. c #D3DAE3",
"{. c #DCDDE1",
"}. c #DDE6E5",
"|. c #E3EAEC",
" X c #EDECEA",
".X c #E5E7E4",
"XX c #F2EEEB",
"oX c #F3F2ED",
"OX c #E6EDF5",
"+X c #EFF6FC",
"@X c #F4F3F2",
"#X c #FAF7F1",
"$X c #FCFAF7",
"%X c #FEFEFD",
"&X c #F6F8FB",
/* pixels */
"Z v y e - + . . X   j Z.v./.F.- + - # @ X O # $ # ",
"O.O.O.X.| ! V k - e 0.r.d.0.j : : e > > > * * O X ",
"m C C C S ! E M k c T $.h.x.K.@.#.! -.h.j.j.v.w.X.",
"S S C V M M C N V g.F.j.R.%X#Xs.q.d.q. .*.;.;.#.#.",
"E Q R R S S A m n.%Xk o 4 q 6 a S E E E D Z Z m A ",
"E E R R A S R C } D t ` 2.` 5 4 '  .! X.$.t.z.w.~ ",
"| ! ! ! R R W W W b N.).L.3.i 3 B r.T. X$X%X%X.Xl.",
"d.$.X.o. . .} } ^ ..V.B.B.{ 8 7 Z.K.%X%X%X%X%X|.b.",
"Q.z.o.$.o...| X.=.k.<.] { 0 w n _.A.%X$X%X%X%X Xx.",
"[.^.d.o.*.*.#.&.e.P.`.G.C.i p [ T.J.%X%X%X%X%X Xx.",
"U.OXY.-.:.:.=.$.8.S.).I.m.( / >.XXJ.%X%X%X%X%X XJ.",
"f.|.}.d.;.q.0.q.%.p.(.C.3.9 _ ].#Xc.%X%X%X%X%XXXb.",
"g.[.+XD.;.q.0.:.t.s./.L.m.) 1.%XXXJ.$X%X%X%X%X Xx.",
"n.!.%X^.q.s.r.r.u.e.(.P.,.) 1.%X$XH.%X%X%X%X$X@XJ.",
"W.Q.%X~.q.s.a.u.9.Y B.'.<.` a l.@Xx.%X&X%X%X%X@Xb.",
"~.E.%X.Xi.q.^ L I 5.b M.+.] y.2 h %.&X%X%X%X%X Xb.",
"{.W.%X[.6.J l P J f < r n e.9.& = = c Y.%X%X%X@XY.",
"W.~.&X7.L l P 4.K F l g u d % = , 2 g 2 n.oX.X].~.",
"Y.Q.[.P U F H U G F J H 1 s s z d x G = c T ; g.|."
};
