/* XPM */
static const char *micro_gvalogne[] = {
/* columns rows colors chars-per-pixel */
"25 19 207 2 ",
"   c #3D2F2F",
".  c #3C372D",
"X  c #3E3E32",
"o  c #463739",
"O  c #4B432E",
"+  c #57412C",
"@  c #454838",
"#  c #56473B",
"$  c #575B3C",
"%  c #4D4F41",
"&  c #574D45",
"*  c #555746",
"=  c #515650",
"-  c #6A4C42",
";  c #704441",
":  c #63594B",
">  c #7B4650",
",  c #645B56",
"<  c #735A57",
"1  c #7C5D49",
"2  c #5F6849",
"3  c #566658",
"4  c #696644",
"5  c #6C6A57",
"6  c #6E6E5D",
"7  c #626659",
"8  c #756F5A",
"9  c #756759",
"0  c #74755F",
"q  c #79775B",
"w  c #5E6A62",
"e  c #557162",
"r  c #656864",
"t  c #7C6265",
"y  c #7B6D6C",
"u  c #766462",
"i  c #68776A",
"p  c #777469",
"a  c #7C6D70",
"s  c #747C72",
"d  c #787E70",
"f  c #8D1D2D",
"g  c #972A30",
"h  c #B23C5E",
"j  c #B63E62",
"k  c #CC3F6A",
"l  c #864855",
"z  c #AC444F",
"x  c #8B6D5D",
"c  c #836657",
"v  c #8C735A",
"b  c #857158",
"n  c #856A68",
"m  c #917166",
"M  c #987668",
"N  c #876D78",
"B  c #8D7276",
"V  c #8B7376",
"C  c #997B7F",
"Z  c #937879",
"A  c #847464",
"S  c #A07A6F",
"D  c #CC5076",
"F  c #CF6D6E",
"G  c #7D9059",
"H  c #778369",
"J  c #7C8174",
"K  c #7E837B",
"L  c #798A7F",
"P  c #77837A",
"I  c #87855C",
"U  c #888767",
"Y  c #9F836E",
"T  c #81847A",
"R  c #858A7B",
"E  c #998B7D",
"W  c #968977",
"Q  c #86927C",
"!  c #98977B",
"~  c #A38877",
"^  c #B19273",
"/  c #B3A978",
"(  c #877080",
")  c #997D81",
"_  c #987B86",
"`  c #E9658C",
"'  c #7E9389",
"]  c #65ADAC",
"[  c #838881",
"{  c #8B8981",
"}  c #9A8285",
"|  c #9D868C",
" . c #85938B",
".. c #88978C",
"X. c #9A9382",
"o. c #989B8F",
"O. c #95958B",
"+. c #978C9D",
"@. c #8B9B97",
"#. c #949B93",
"$. c #A38184",
"%. c #A3868A",
"&. c #A58A8C",
"*. c #A88A8B",
"=. c #A98D83",
"-. c #B08D8B",
";. c #AA9A8A",
":. c #A4998A",
">. c #B49C84",
",. c #B59689",
"<. c #AB8C93",
"1. c #A68A95",
"2. c #A69298",
"3. c #AA9495",
"4. c #B19595",
"5. c #B5989D",
"6. c #B39695",
"7. c #8FA28E",
"8. c #9AA88F",
"9. c #93A194",
"0. c #9BA194",
"q. c #9CA29B",
"w. c #92B386",
"e. c #A6A289",
"r. c #A9A488",
"t. c #A3A293",
"y. c #A2A39B",
"u. c #AAA897",
"i. c #BBA99A",
"p. c #B9B799",
"a. c #B8AA83",
"s. c #B497A5",
"d. c #AA9DA4",
"f. c #9CA6A3",
"g. c #9DAEA4",
"h. c #98ADA5",
"j. c #A5ACA4",
"k. c #A9ACA8",
"l. c #BCA6A3",
"z. c #B8ABA6",
"x. c #A4B3AA",
"c. c #A6B4A9",
"v. c #B2B7A8",
"b. c #AFA8B0",
"n. c #BDACB2",
"m. c #AEBBB1",
"M. c #B3BFB7",
"N. c #D28097",
"B. c #C68C9B",
"V. c #E3929B",
"C. c #C2A38E",
"Z. c #C1BD8E",
"A. c #C7A998",
"S. c #C7B49B",
"D. c #D2BA98",
"F. c #DC92A3",
"G. c #C3ACA4",
"H. c #CDAFA5",
"J. c #D3AEA6",
"K. c #CABCAD",
"L. c #C2BCA7",
"P. c #D2B0A4",
"I. c #C3A6B5",
"U. c #CAB8B7",
"Y. c #D8B3BA",
"T. c #BCC0AF",
"R. c #A3C7BD",
"E. c #B6C6BC",
"W. c #C8C1A8",
"Q. c #DED2AA",
"!. c #C6C3B3",
"~. c #CECEB4",
"^. c #DDC2B9",
"/. c #D0D6BC",
"(. c #EDD4B6",
"). c #CEB3C4",
"_. c #A8C0C2",
"`. c #BDCBC3",
"'. c #B9CAC6",
"]. c #BBD5D4",
"[. c #CAD7CF",
"{. c #C5D2C9",
"}. c #D7D8CB",
"|. c #DDC7D3",
" X c #CDDCD6",
".X c #C8DBD6",
"XX c #D4DDD7",
"oX c #D2DED9",
"OX c #E3CDC0",
"+X c #E1DDD1",
"@X c #CEE1DB",
"#X c #D3E3DC",
"$X c #DFE7DA",
"%X c #ECE0CA",
"&X c #E7EAD8",
"*X c #F3ECD9",
"=X c #D3E5E1",
"-X c #DBECE5",
";X c #D9EAE7",
":X c #DAF5EC",
">X c #E0ECE3",
",X c #E9F1EB",
"<X c #F5FAEA",
"1X c #FDFBF3",
"2X c #FDFEFD",
"3X c #F4FBF8",
"4X c #E5F4F1",
/* pixels */
"m.g.g.@. .w s d [ 3 3 e i L P w L d k.(.D.W.p./.=X",
"#X-X.X[.'.E.c.c.x.@.9.#.{ o.9.' ' y.}.*X%X*X&X,X<X",
"#X#X=X;X@X=X-X>X-X>X[ % # , p T.].$X3X1X2X2X1X2X2X",
"oX#X=X XoX#X#X X-X`.. & E l.X.:.;X[. X4X3X2X2X2X2X",
"j.c.M.XX{.[. X#X:Xm.: 6.J.i.;.e.XX=X.X XXX,X3X2X2X",
"@ % * J J i s q.c.o.A m M < # W 3.x.x.m.j.#.#.L.v.",
"8 5 8 0 6 6 R p O.W b + x ,.M ,.W T R P r 7 7 5 = ",
"W.L.W.S.:.t.!.{ t.i.~ M S ~ m m >.u.e...f.E T 0.X.",
"r.! / I U 4 q @.}.*XS.v 1 x x c +X&X>Xg.f.! U r.Z.",
"W * 4 4 H @ s _.}.~.!.=.c M =.Y OX<X>X'.q.q q ! G ",
"O   & $ $ * s k.y.0 a o v x c v A.X.q.'.#.5 $ * 2 ",
":   @ 7 3 , u p.v.X o _ ~ b x >.S.U.I.b.O.X.Q d 7 ",
"- f ; 3 w r X.Q.!.y n.U.6.C.^ C.;.l.I.).U.z.0.j.0.",
". g c L  .y e.a.K.|.U.l.4.,.A.P.4.2.s.2.1.s.y.K J ",
"T ! 7. .p z V.G.4.s.5.G.4.*.A.H.%.2.1.| _ _ z.u.o.",
"..0.M.9.U F Y.d._ _ <.5.4.<.*.Z &.&.<.Z a ( 2.A.^.",
"K g...V B.N.F.&.V B %.6.*.%.%.4.<.} } V < N +.h.R.",
"&.O.l D ` k ` $.n t V %.$.%.%.<.&.} Z t 9 Z | 8.] ",
"j.s > h j D D } n t n C ) ) ) ) ) ) N < n -.=.p.w."
};
