/* XPM */
static const char *micro_jedurand[] = {
/* columns rows colors chars-per-pixel */
"25 19 207 2 ",
"   c #0B0201",
".  c #000100",
"X  c #312E1F",
"o  c #362A22",
"O  c #2F3837",
"+  c #343E3F",
"@  c #48311F",
"#  c #442F2A",
"$  c #403C21",
"%  c #483932",
"&  c #394136",
"*  c #44443B",
"=  c #544D3C",
"-  c #5B563C",
";  c #595939",
":  c #494C29",
">  c #7A523E",
",  c #424944",
"<  c #5B4F45",
"1  c #524942",
"2  c #565446",
"3  c #4A5859",
"4  c #5B5B52",
"5  c #53585A",
"6  c #5C5C5A",
"7  c #505654",
"8  c #695948",
"9  c #605A55",
"0  c #6B5A54",
"q  c #615D5A",
"w  c #645655",
"e  c #7B5A47",
"r  c #5F635D",
"t  c #596156",
"y  c #66644C",
"u  c #666257",
"i  c #65615A",
"p  c #6A655B",
"a  c #696A5A",
"s  c #746A52",
"d  c #7B6C53",
"f  c #74695B",
"g  c #7B7856",
"h  c #74664C",
"j  c #605F65",
"k  c #5E6961",
"l  c #4B717C",
"z  c #626662",
"x  c #6D6C64",
"c  c #686A6A",
"v  c #756F64",
"b  c #6E736D",
"n  c #747165",
"m  c #78776A",
"M  c #606F76",
"N  c #627674",
"B  c #6B7978",
"V  c #7C7B76",
"C  c #757B74",
"Z  c #855949",
"A  c #8A604C",
"S  c #8D6E5C",
"D  c #946956",
"F  c #827B5E",
"G  c #B07B59",
"H  c #877667",
"J  c #957A6A",
"K  c #867C78",
"L  c #A97C65",
"P  c #6F827C",
"I  c #7E807A",
"U  c #88826A",
"Y  c #91976B",
"T  c #8A8275",
"R  c #858379",
"E  c #898778",
"W  c #9B8A79",
"Q  c #A68E78",
"!  c #B48472",
"~  c #B88B76",
"^  c #A3937D",
"/  c #B6927A",
"(  c #5E8491",
")  c #698185",
"_  c #758989",
"`  c #7BB7CF",
"'  c #818384",
"]  c #8B8C85",
"[  c #868C84",
"{  c #908D88",
"}  c #8E938D",
"|  c #87958A",
" . c #9B948A",
".. c #94968B",
"X. c #889897",
"o. c #9B9D96",
"O. c #AA9F8F",
"+. c #A5948C",
"@. c #B39083",
"#. c #A59E93",
"$. c #9FA59B",
"%. c #ABA786",
"&. c #BFA38D",
"*. c #BDAA8C",
"=. c #BCB28E",
"-. c #ABA193",
";. c #ABA39B",
":. c #A7A698",
">. c #B2A59D",
",. c #B3AB97",
"<. c #9EA3A4",
"1. c #93A1A2",
"2. c #9FAAB0",
"3. c #8FB7BF",
"4. c #A7ABA6",
"5. c #ACADA4",
"6. c #A2ABAA",
"7. c #ADADAC",
"8. c #A3A3A2",
"9. c #B2AEA9",
"0. c #B5AFA1",
"q. c #BCB3AB",
"w. c #B6B2A7",
"e. c #AAAEB3",
"r. c #A5B1B2",
"t. c #ABB6BC",
"y. c #ABB6B5",
"u. c #B4B5B2",
"i. c #BCB7B3",
"p. c #B3BDB6",
"a. c #B1BBBE",
"s. c #BCBCBA",
"d. c #A8B2A9",
"f. c #C29383",
"g. c #C0A68D",
"h. c #DBAD99",
"j. c #C2B3A4",
"k. c #CCBBA6",
"l. c #D8B9A1",
"z. c #C1B6B1",
"x. c #C3BDB3",
"c. c #CBBEB2",
"v. c #C1BEBA",
"b. c #BAC1AF",
"n. c #AFC4BF",
"m. c #BCC1BD",
"M. c #BFC2B7",
"N. c #C4C3BC",
"B. c #C9C8B9",
"V. c #D7CEB5",
"C. c #DCD7BA",
"Z. c #E4D2BE",
"A. c #AEB7C0",
"S. c #BABFC4",
"D. c #B3BAC4",
"F. c #C1BEC5",
"G. c #BCC4C4",
"H. c #BFC9C4",
"J. c #BBC7CB",
"K. c #BFC9CA",
"L. c #BCC8D4",
"P. c #C5C5C2",
"I. c #CAC3C1",
"U. c #CCCAC7",
"Y. c #C2CBCC",
"T. c #CBCECA",
"R. c #C1C5C8",
"E. c #D2C7C5",
"W. c #D5CBC5",
"Q. c #D0CACE",
"!. c #CAD4CC",
"~. c #D2D1C4",
"^. c #D4D1CC",
"/. c #DAD5CD",
"(. c #D9D7C8",
"). c #C2CCD5",
"_. c #C2CEDA",
"`. c #CCCFD8",
"'. c #D4CFD2",
"]. c #CDD3D5",
"[. c #CBD3DA",
"{. c #C5D3D9",
"}. c #D4D4D5",
"|. c #DAD6D3",
" X c #DADCDA",
".X c #D7DCD9",
"XX c #E3D8CD",
"oX c #E3DCDC",
"OX c #E4D9D3",
"+X c #D8E2DA",
"@X c #FFE9CB",
"#X c #E4E8DC",
"$X c #FFF9DF",
"%X c #CEDFE6",
"&X c #D2DDE5",
"*X c #DDDEE2",
"=X c #CFE2E8",
"-X c #D6E5E3",
";X c #D4E2EB",
":X c #DBE3E7",
">X c #D6E6F1",
",X c #DAECF4",
"<X c #DCE5F6",
"1X c #E8EBE7",
"2X c #F7EDEC",
"3X c #F6F0E0",
"4X c #FFFFF6",
/* pixels */
"U.N.b.4.6...} } N c m k B B x R b I { V { $.o.<.2.",
"M.#X+XY._.Y.!.].n.p.y.t.t.t.r.p.a.G.].H.H.!..X;X:X",
"~.(.H.L._.).Y..X X:X%X,X,X,X,X;X,X>X;X,X;X-X=X;X&X",
"B.B.H.J._.).].1X2X].{.a.8.H.&X<X;X;X;X;X&X&X;X>X;X",
"1 i ..[ C ' 8.u.u.m.s.+.@.W s._.T.Y.).G.S.R.].r.<.",
"0 < = y n i q v 4 9 W h.h.l.+.b n [ b z 6 p q * * ",
",.c.,.U ,.v.9  .O.H S A L D J K  .] b ] p p v X * ",
"=.V.W d H ;.K (.C.&.D D f.Z J V.OXi.[ :. .T B.,.^ ",
": d y F : U u.3X$Xl.~ ! L ! @.XX4X:XX.R - ; g Y %.",
"8 < f d h ^ XXq.k.&.> > A Z e k.XXT.s.;.s $ ; g s ",
"& j w u w 8 j.o.n T o # 0 % o +.;.4.' x f 2 4  .m ",
"2 4 < a H *.@XT.S.J.7     . O *XT.[.A.6 6 5 5 b , ",
"p * u R E %.Z.T.}.m.0.8 @ = :.oX X{.&Xe.V 3 + r z ",
"c P I x t p.I.D.I. .W g.Q ^ T K |.}.}.9.n [ r x R ",
"] X.y / #.^.W.|. Xi.x.-.O.-.z.u.N.P.v./.o., | o.C ",
"| X.- G c.i.0.oX#XE.I.5.N./.W.~.1X}.7.N.P.3 _ 6.N ",
"u.X.6.i.c.>.z./.^./.|.q.5.U.oX}.r.0.`.B.j._ M y._ ",
"N.-X+XE.c.>.XXN.v.^. XN.9.9.v.|.u.~.F.5.q.K.( ) 3.",
",.!.R.q.j.>.E.7.v.i.N.^.P.P.s.v.Q.!.'.d.#.'.` l 1."
};
