/* XPM */
static const char *micro_ckretsch[] = {
/* columns rows colors chars-per-pixel */
"25 19 198 2 ",
"   c #020202",
".  c #0A0501",
"X  c #0E0A06",
"o  c #0C0C09",
"O  c #050308",
"+  c #130E0B",
"@  c #160D08",
"#  c #0E100B",
"$  c #13120E",
"%  c #1B120C",
"&  c #0B0C10",
"*  c #110F10",
"=  c #151613",
"-  c #1B1712",
";  c #181616",
":  c #2B1C14",
">  c #351F12",
",  c #3B1C0A",
"<  c #2B221A",
"1  c #2D2017",
"2  c #262724",
"3  c #273535",
"4  c #471E01",
"5  c #50270B",
"6  c #4E2F1A",
"7  c #512D13",
"8  c #57331A",
"9  c #673615",
"0  c #423127",
"q  c #493B32",
"w  c #6C3F20",
"e  c #3F403B",
"r  c #7D461D",
"t  c #56463C",
"y  c #6E4527",
"u  c #734625",
"i  c #7C4B2C",
"p  c #774A24",
"a  c #7C5632",
"s  c #4D4342",
"d  c #5D5D5D",
"f  c #69584E",
"g  c #665953",
"h  c #5F6769",
"j  c #7A6B64",
"k  c #73726D",
"l  c #8B4F1D",
"z  c #804825",
"x  c #87532F",
"c  c #925822",
"v  c #865332",
"b  c #845939",
"n  c #8F5A32",
"m  c #9E5A37",
"M  c #A55B34",
"N  c #9C6431",
"B  c #A3623A",
"V  c #AB7338",
"C  c #835F49",
"Z  c #896647",
"A  c #9C6A47",
"S  c #8D6C59",
"D  c #916950",
"F  c #A16D4B",
"G  c #AA6E42",
"H  c #B0724B",
"J  c #A27355",
"K  c #B27E54",
"L  c #A27A46",
"P  c #8D7664",
"I  c #827D77",
"U  c #AA7E65",
"Y  c #94867D",
"T  c #A2836E",
"R  c #B98866",
"E  c #BD916A",
"W  c #BC9A6D",
"Q  c #B38D77",
"!  c #BA8878",
"~  c #BC9F7F",
"^  c #C2825E",
"/  c #C18F6A",
"(  c #C8996F",
")  c #C29977",
"_  c #D19B75",
"`  c #C8A07D",
"'  c #717B84",
"]  c #7F8082",
"[  c #7E8C97",
"{  c #8E9296",
"}  c #959595",
"|  c #A49485",
" . c #AA9481",
".. c #A4968B",
"X. c #AC9A8B",
"o. c #AB9B8B",
"O. c #B29D8D",
"+. c #B69A86",
"@. c #AB9F95",
"#. c #A79A91",
"$. c #B09C91",
"%. c #B5A18D",
"&. c #AEA49D",
"*. c #B6A293",
"=. c #BAA799",
"-. c #BDAA9C",
";. c #B3A59B",
":. c #909AA3",
">. c #8997A4",
",. c #A59EA5",
"<. c #9EA3A5",
"1. c #96A8B6",
"2. c #A1A2A6",
"3. c #AEA5A1",
"4. c #AAA8AB",
"5. c #B5AAA2",
"6. c #BBACA3",
"7. c #B5AFAD",
"8. c #AEB0AD",
"9. c #BDB0AA",
"0. c #ADB1B4",
"q. c #A4B2B3",
"w. c #B3B7BC",
"e. c #BDBCBA",
"r. c #B8B6B5",
"t. c #CA9C82",
"y. c #CAAB8E",
"u. c #D5A08E",
"i. c #D0A183",
"p. c #C1AB9E",
"a. c #D4A898",
"s. c #D7B599",
"d. c #C5AEA1",
"f. c #C5B3A5",
"g. c #C9B3A5",
"h. c #C7B5AB",
"j. c #C3B9AD",
"k. c #CCB9AB",
"l. c #DCB9A7",
"z. c #C3BCB4",
"x. c #ECBCAB",
"c. c #E8B9A5",
"v. c #CCC6BE",
"b. c #C0C2BF",
"n. c #D9C9B5",
"m. c #E9C0AC",
"M. c #E7C9BE",
"N. c #B6BEC4",
"B. c #BEC2CA",
"V. c #C5C6C7",
"C. c #C3CBCA",
"Z. c #CCCCCB",
"A. c #C9CBC4",
"S. c #D3CCC3",
"D. c #D9D5CA",
"F. c #CACED2",
"G. c #CDD3D5",
"H. c #CED6D9",
"J. c #D4D5D3",
"K. c #D5D9D7",
"L. c #D1D6DC",
"P. c #D5D9DB",
"I. c #DCDCDC",
"U. c #DAD6D3",
"Y. c #E7DACD",
"T. c #FFDCCF",
"R. c #E1DBD5",
"E. c #DCE1D6",
"W. c #E4E0DB",
"Q. c #EEE5DB",
"!. c #D8DAE1",
"~. c #DCE2E4",
"^. c #DEE3EB",
"/. c #D1E3EF",
"(. c #D5E1F1",
"). c #E3E4E2",
"_. c #E9E4E7",
"`. c #E7ECE6",
"'. c #EBE9E6",
"]. c #E3E7EC",
"[. c #E3EBEB",
"{. c #FFEAE3",
"}. c #EDF1EE",
"|. c #F3F3ED",
" X c #FFFEEE",
".X c #E4EDF2",
"XX c #EAEEF2",
"oX c #E3EDF9",
"OX c #EBF3F6",
"+X c #E7F3FD",
"@X c #ECF5FC",
"#X c #E7F8FF",
"$X c #EEF9FF",
"%X c #FAF6F1",
"&X c #FCFBF5",
"*X c #F4FBFD",
"=X c #FDFEFD",
"-X c #F5F8F6",
/* pixels */
"X.+. .X. .| ..| #.| O.*.R.=XY.S.=X=X=X=X&XA.'.=X=X",
";.+.X.O.X...#.X.$.%.*.Q.&X=XU.S.=X=X=X=X=Xe.J.=X=X",
"z.*.%.*.O.o.@.O.O.+.W.*X=X=XG.S.=X=X=X=X=Xe.Z.=X&X",
"J.6.*.=.*.@.&.*.*.j.&XR.n.%XJ.e.=X&X=X=X=Xb.J.=X&X",
"[.j.=.-.=.;.&.=.5.n.S w i A ~ A.&X|.%X&X&X8.A.}.`.",
"+Xv.-.d.p.5.3.=.f.y.U a.c.B c n.&X|.%X&X=X8.A.`.E.",
"#XD.-.d.d.6.3.-.l.` m.{.M.R c ) &X%X%X&X=X0.Z.-XE.",
"#XR.p.g.d.9.5.f.s.E Q Q i.i p G '.I.'.=X=X<.0.-X).",
"$XI.6.h.g.f.7.h.E J U ! a.v A l s.#X|. X=X4.N.*XXX",
"$X).f.k.d.Y.*X'.U F c.u.u.m H r E }._.V.q.w.(.[.OX",
"*XU.Y 3.7.Z.*X&X) F x.x.! M G 9 ( '.4.2 3 C.oX~.^.",
"=XZ.. { ].F..XQ.R F +.T.l.^ z 5 W _.,.2 e v.-XXXOX",
"/.F.% } =X[..XW.K x C t.U x 4 7 L f s I k I V.^.~.",
"1.G.- } OXI.=XY.K v y _ / n 4 8 V Z g XXK.V.B.N.w.",
":.I.< { *X.X2.P R u 8 Z T b b u N a t H.[.L.!.C.B.",
">.!.q } =X]   0 D u > X & 6 i u u , . 2 F.].K.G.G.",
"[ E.j r.L.; # < t t 1 + - - % : - . o   d -XXX~.L.",
"' ).j e.<.O = - 1 : % + $ $ @ @ + . . o ; Z.G.L.P.",
"0.K.7.XXh   $ * + + + $ $ $ $ + + X . o   <.~.F.G."
};
