/* XPM */
static const char *micro_jschaft[] = {
/* columns rows colors chars-per-pixel */
"25 19 209 2 ",
"   c #25160E",
".  c #291811",
"X  c #31221B",
"o  c #423127",
"O  c #5C3F31",
"+  c #433B39",
"@  c #4E483B",
"#  c #54453B",
"$  c #57593B",
"%  c #714D3F",
"&  c #556038",
"*  c #414544",
"=  c #534C44",
"-  c #5C4E43",
";  c #5B5C48",
":  c #4A585A",
">  c #5A5653",
",  c #665A4B",
"<  c #6A5D56",
"1  c #5B665B",
"2  c #65655E",
"3  c #6D655B",
"4  c #726452",
"5  c #7D695B",
"6  c #726E4E",
"7  c #575F61",
"8  c #5D6667",
"9  c #6D6563",
"0  c #686765",
"q  c #716F62",
"w  c #6C726C",
"e  c #6A7564",
"r  c #7F756D",
"t  c #777769",
"y  c #667476",
"u  c #797572",
"i  c #787777",
"p  c #825C51",
"a  c #82664E",
"s  c #876757",
"d  c #906056",
"f  c #80795A",
"g  c #866D66",
"h  c #837B63",
"j  c #847868",
"k  c #9B7464",
"l  c #96786D",
"z  c #8A7975",
"x  c #9C7975",
"c  c #A1746E",
"v  c #B17F74",
"b  c #7D817D",
"n  c #788378",
"m  c #DBAC36",
"M  c #83855E",
"N  c #99916C",
"B  c #8C827B",
"V  c #838679",
"C  c #9D8173",
"Z  c #96837A",
"A  c #958C7D",
"S  c #968974",
"D  c #96927B",
"F  c #878265",
"G  c #AB826E",
"H  c #A98477",
"J  c #A5907D",
"K  c #B8887E",
"L  c #D8B65D",
"P  c #CD9A7D",
"I  c #597382",
"U  c #6B7480",
"Y  c #677A87",
"T  c #787A81",
"R  c #4F8A9A",
"E  c #6C8387",
"W  c #798589",
"Q  c #6F8493",
"!  c #6C8991",
"~  c #778594",
"^  c #5C92AE",
"/  c #559DB5",
"(  c #7698A4",
")  c #4CA1B6",
"_  c #7ABABA",
"`  c #36B6DD",
"'  c #6FBFCA",
"]  c #76DDFC",
"[  c #8C8A84",
"{  c #848B8B",
"}  c #8C8C8B",
"|  c #808185",
" . c #938E8C",
".. c #988B84",
"X. c #879382",
"o. c #8C908F",
"O. c #929285",
"+. c #96928D",
"@. c #9B998F",
"#. c #999587",
"$. c #8D9293",
"%. c #8B9496",
"&. c #959493",
"*. c #9C9492",
"=. c #959995",
"-. c #9C9A95",
";. c #97979B",
":. c #9B9C9B",
">. c #9A989A",
",. c #AB9A8B",
"<. c #A69D99",
"1. c #BB9690",
"2. c #B7978C",
"3. c #86A09F",
"4. c #9EAD9A",
"5. c #A6A285",
"6. c #A1A29D",
"7. c #ACA49E",
"8. c #A4A595",
"9. c #B4A696",
"0. c #BBA89D",
"q. c #BAB49E",
"w. c #8D9BA2",
"e. c #8D9DAC",
"r. c #9C9DA1",
"t. c #969EA0",
"y. c #A39DA1",
"u. c #9EABA7",
"i. c #9CAAA9",
"p. c #98A2A6",
"a. c #98AEB9",
"s. c #A5A5A2",
"d. c #AAAAA6",
"f. c #A1AAAB",
"g. c #ABAAAC",
"h. c #A8A6A5",
"j. c #B3ABAB",
"k. c #B4AAA3",
"l. c #AEB8AF",
"z. c #B7B3AC",
"x. c #ACADB4",
"c. c #A6AFB8",
"v. c #B1AFB4",
"b. c #ABB3B3",
"n. c #ACB3BB",
"m. c #ABB6B6",
"M. c #B3B2B3",
"N. c #B6B8BC",
"B. c #BBBBBD",
"V. c #B8B7B4",
"C. c #C4938E",
"Z. c #C0B49A",
"A. c #C7A393",
"S. c #D1AFAD",
"D. c #C1B4AA",
"F. c #CCB6AA",
"G. c #D5B2A8",
"H. c #C7B5B3",
"J. c #C8C39D",
"K. c #C7C0A6",
"L. c #D0CDAC",
"P. c #C3C1B8",
"I. c #DBCDB8",
"U. c #8DBCCC",
"Y. c #AEBDC4",
"T. c #B3BBC3",
"R. c #BCBEC3",
"E. c #B8B7C7",
"W. c #AEC0C4",
"Q. c #BCC5C3",
"!. c #BBC3CA",
"~. c #BECCCA",
"^. c #BDCBD6",
"/. c #BAC7D0",
"(. c #BFD0D7",
"). c #C3C6CB",
"_. c #CBC8C7",
"`. c #D5CBC2",
"'. c #D9DDCF",
"]. c #C5CED4",
"[. c #CACFD2",
"{. c #C9CADC",
"}. c #C7D3D5",
"|. c #C3D2DA",
" X c #CBD3D9",
".X c #D5DBDB",
"XX c #E6DBDA",
"oX c #EBDBCB",
"OX c #DFE0DA",
"+X c #E7E4D3",
"@X c #F6E8CE",
"#X c #CAD5E0",
"$X c #CCDBE4",
"%X c #CAD8E6",
"&X c #D3DCE2",
"*X c #D5DCEB",
"=X c #D9DDE6",
"-X c #CFE2E6",
";X c #D4E2E7",
":X c #DCE6E6",
">X c #D5E3E9",
",X c #DBE4EA",
"<X c #DBE6F3",
"1X c #DAE8F4",
"2X c #E0E9E8",
"3X c #F5EAE1",
"4X c #EEF0E2",
"5X c #FAF9E7",
"6X c #FFFAF6",
/* pixels */
"=X$X(.~.m.b.B.P.8.@.8.-.o.%.y T U  .<.$.:.s.d.m.T.",
".X$X$X}.>X#X}.OX5X'.4X+XP.Q.~./.|.[.[. X$X=X,X1X<X",
".X&X^. X X#X^.:X5X3XD.,.H.k._.1X-X:X,X;X>X&X;X>X&X",
"-.b. X).).|.]..X5X`.C G.G.S.<.&X1X<X$X<X*X,X>X1X<X",
"< > u r 9 i =.#.4...l k H g Z d.B.n.~.x.x.M.).r.} ",
"l A j h j V 2 A e g c k A.k C z h V w u 3 9 > + @ ",
"I.I.K.N 9._.i 7.q.x K G k v H Z 9.=.T s.B B +.= @ ",
"h 5.F f , [ } XX@X2.s a % d s `.3X[.$.8.D t L.J.Z.",
"; $ 5 ..6 S Y.XX+XoXO p l 5 , 5X6X2Xi.#.6 $ 6 M 5.",
"4 2 t 4 s D i.D.0.,.o   X . # F.9.V.R.<.5 @ $ N 5 ",
", 9 < 1 3 r g.:.*.u r -   # +.*.[ f.W 0 9 2 w O.q ",
"i 1 = r J j.{.W.n.$.B Z z ..[ f.T.^.^.i 0 7 8 T > ",
"u 1 b V #.R.E.n.N.;.&.&.+.&.} M.!.!.].s.O.w * u b ",
"X.6.b V p.E.j.T._.;.>.6.=.6.:.V.Q.c.T.f.8 { n n [ ",
"3.w.; P F.h.l.E.R.g.-.<.*.:.$.n.!.T.p.f.y : p.u.W ",
"f.} w C.8.&.k.D.V.6.:.>.>.r.:.s.N.B.<.z.X.: %.b.E ",
"a.i.#X_.:.=.j.j.z.w.e.w.Y y | s.V.>.y.7._ ^ U m.( ",
" ._.*Xx.+.#.0.D.j.~ Q Q Y Y { s.N.t.r.} ' ] R ! U.",
"m L @.{ &.O.h.V.:.U I E Q ~ { >.v.M.u z / ` ) ~ 1."
};
