/* XPM */
static const char *micro_taomalbe[] = {
/* columns rows colors chars-per-pixel */
"25 19 201 2 ",
"   c #040302",
".  c #060807",
"X  c #0C0805",
"o  c #090708",
"O  c #070908",
"+  c #0C0B0B",
"@  c #100604",
"#  c #100F0D",
"$  c #13100D",
"%  c #1B1108",
"&  c #0E1211",
"*  c #131314",
"=  c #191512",
"-  c #1C1A16",
";  c #191718",
":  c #1D1C1B",
">  c #201B17",
",  c #211D1A",
"<  c #21241E",
"1  c #2B251C",
"2  c #37291E",
"3  c #211F20",
"4  c #252121",
"5  c #2B2424",
"6  c #2B2B26",
"7  c #212629",
"8  c #2D2B2A",
"9  c #332B26",
"0  c #392D21",
"q  c #332E2C",
"w  c #37322F",
"e  c #3B352E",
"r  c #332E33",
"t  c #363332",
"y  c #3B3534",
"u  c #3E3A33",
"i  c #3B3738",
"p  c #3B3A3A",
"a  c #333834",
"s  c #412F23",
"d  c #423122",
"f  c #483527",
"g  c #42332B",
"h  c #48392E",
"j  c #443C36",
"k  c #413D3C",
"l  c #483F3A",
"z  c #4E3934",
"x  c #53412D",
"c  c #4E4037",
"v  c #4C423A",
"b  c #4F483E",
"n  c #554837",
"m  c #53463B",
"M  c #53493D",
"N  c #5D4A3C",
"B  c #3A3E41",
"V  c #454140",
"C  c #4B4642",
"Z  c #4E4B4C",
"A  c #544B44",
"S  c #5A4B44",
"D  c #574D4A",
"F  c #594E4A",
"G  c #575143",
"H  c #5B5246",
"J  c #575258",
"K  c #5C575B",
"L  c #654E48",
"P  c #624E43",
"I  c #63524A",
"U  c #68574E",
"Y  c #6A5B4E",
"T  c #64584A",
"R  c #765647",
"E  c #775C4B",
"W  c #6C5D52",
"Q  c #635E5B",
"!  c #645D57",
"~  c #7D604E",
"^  c #6C6558",
"/  c #746554",
"(  c #7D6C5C",
")  c #73665A",
"_  c #686866",
"`  c #6E686B",
"'  c #696466",
"]  c #756860",
"[  c #7A6E65",
"{  c #7D716D",
"}  c #7D7A6C",
"|  c #797272",
" . c #767273",
".. c #826158",
"X. c #826F5F",
"o. c #8D6B5F",
"O. c #85735D",
"+. c #95755E",
"@. c #816E62",
"#. c #8D6D62",
"$. c #847264",
"%. c #8A7465",
"&. c #8F7A66",
"*. c #83746A",
"=. c #8A7668",
"-. c #8D7A6B",
";. c #857969",
":. c #977D66",
">. c #937C6A",
",. c #947466",
"<. c #817B73",
"1. c #8B7D71",
"2. c #837C7C",
"3. c #9F7E77",
"4. c #96816D",
"5. c #98826D",
"6. c #8F8377",
"7. c #89877B",
"8. c #948273",
"9. c #9B8572",
"0. c #9A8879",
"q. c #A18C7B",
"w. c #A88D78",
"e. c #A38878",
"r. c #B38673",
"t. c #A2917F",
"y. c #868283",
"u. c #8D8683",
"i. c #938B84",
"p. c #988C80",
"a. c #978F8B",
"s. c #998F8D",
"d. c #96928B",
"f. c #9E9188",
"g. c #9E9286",
"h. c #9C9592",
"j. c #A18F8F",
"k. c #A19887",
"l. c #A3968B",
"z. c #A59A8E",
"x. c #A89483",
"c. c #B09A85",
"v. c #A49C94",
"b. c #AC9C93",
"n. c #A49A98",
"m. c #AAA395",
"M. c #AFA898",
"N. c #A5A09C",
"B. c #B2A394",
"V. c #B9AD9C",
"C. c #B2A59C",
"Z. c #ABABAE",
"A. c #AEA9A3",
"S. c #B0A2A1",
"D. c #BAACA3",
"F. c #B4ADAA",
"G. c #B6ABA5",
"H. c #B8B0A3",
"J. c #BBB3AB",
"K. c #BEBCB3",
"L. c #C19B86",
"P. c #C7ACA3",
"I. c #C4B5AA",
"U. c #C3B9AF",
"Y. c #CCB8AF",
"T. c #C4B4A4",
"R. c #C1B7B6",
"E. c #C3BBB3",
"W. c #CDC0AD",
"Q. c #CDC5BC",
"!. c #CDCCBE",
"~. c #CDC1B5",
"^. c #D0C3B0",
"/. c #D2C8BE",
"(. c #D7C6BB",
"). c #CCCFC8",
"_. c #D3CBC6",
"`. c #DBCEC4",
"'. c #DDC6CE",
"]. c #D5CDCA",
"[. c #DBD3C3",
"{. c #DAD2CF",
"}. c #D2D5CE",
"|. c #DDD9D3",
" X c #D6D2D1",
".X c #E3DDCD",
"XX c #E2DAD1",
"oX c #EADFD5",
"OX c #E0E0D6",
"+X c #EBE3D4",
"@X c #E4E0DA",
"#X c #E9E6DA",
"$X c #EDE9DE",
"%X c #F4E7DE",
"&X c #F5EFE3",
"*X c #F5EDEA",
"=X c #FDF5EB",
"-X c #F7F8EA",
";X c #FBF6F0",
":X c #FFFDF3",
">X c #FDFCFB",
/* pixels */
"c 2 1 v M M M n I [ u   & * $ % - > w q = , > , , ",
"f.*.c g S I H W ( / N h h g e u u e j l A A C A b ",
":X`.Y / 8.%.) Y U W T H G H D D H S S m S m M m S ",
"U.B.$.&.5.c.q.$./ ( =.$.$.%.( %.$.$.%.%.$.( =.$.O.",
"m.x.9.9.:.e.9.>.V.I.U I W 8.5.:.9.0.>.>.9.4.>.8.>.",
"=X(.-.>.>.c.9.&.G.{ @ X $ v 8.>.@.$.=.-.X.%.X.( ( ",
"E.v.z.~.V.B.0.t.} s ..,.%.0 n ^ b.J.g.$.l.p.[ D.{.",
"=X].|.;X@XE.+XV.{ S #.,.x j y.Z.|._.A.v.XXE.i.@X>X",
"!.`.#X}.&XW..X].M.3.r.o.L I j.Q.|._.a.s.F.h.N.|.>X",
"!.`.XX).=X^.+X{.#XP.L.R n *.S.m.Q.Q.v.n.h.u.| u. X",
"$XI.XXOXoXW.[.*X-XY.+.~ d z.R.d.E.J.a.<.2.| ' ` R.",
"J.(./.K.%XT.[.K.OX`.w.E f k.F.K._._.h.2.y. .` y.'.",
"d.b.6.7.oX$.H.d.i.F q.e.P ) ' d.A.h.Q Z  .K K ' Z.",
"! @.1.^ p.1.<.C y y 0 z g 1 : u Q C   + ; : * * J ",
"9 -.;.<.{ ) e t u p e 5 5 6 8 5 t 6 + + O + + o y ",
"e 0.n } D.S 1 3 k B a r r < 7 5 : ; + O O +     k ",
"B.D.2 6.l.j - 5 V i t 8 5 p _ 8 $ < + o + + + o i ",
"C.] % v 9 w : : q 8 8 5 8 6 t ; + : # + + + o   : ",
"y > =   = i * * 5 4 4 4 8 , * $ + : : 4 3 3 3 : Z "
};
