/* XPM */
static const char *micro_nhallou[] = {
/* columns rows colors chars-per-pixel */
"25 19 206 2 ",
"   c #15211D",
".  c #0F1C25",
"X  c #121E27",
"o  c #142127",
"O  c #14222A",
"+  c #1A252C",
"@  c #192A37",
"#  c #183032",
"$  c #242723",
"%  c #262D3B",
"&  c #242835",
"*  c #2D373A",
"=  c #363737",
"-  c #3B3128",
";  c #48382B",
":  c #374139",
">  c #4C453B",
",  c #5A463B",
"<  c #575839",
"1  c #69493A",
"2  c #253745",
"3  c #353A41",
"4  c #483B42",
"5  c #3E514F",
"6  c #3D5967",
"7  c #444B4C",
"8  c #4D4541",
"9  c #5A4F4A",
"0  c #5A4E46",
"q  c #595449",
"w  c #484B55",
"e  c #575352",
"r  c #575A5E",
"t  c #5A5D5C",
"y  c #525659",
"u  c #655246",
"i  c #75574C",
"p  c #655B52",
"a  c #695C54",
"s  c #785A55",
"d  c #4E635C",
"f  c #58655B",
"g  c #646A4B",
"h  c #69654A",
"j  c #65635A",
"k  c #6C6558",
"l  c #776659",
"z  c #4C5461",
"x  c #685F60",
"c  c #5B6165",
"v  c #5D696B",
"b  c #5A6F72",
"n  c #4A6169",
"m  c #636464",
"M  c #6C6B61",
"N  c #656868",
"B  c #756D6A",
"V  c #766967",
"C  c #73746E",
"Z  c #7A746B",
"A  c #7A776B",
"S  c #646B71",
"D  c #6D7374",
"F  c #6D7B7A",
"G  c #6C7A78",
"H  c #747473",
"J  c #747B74",
"K  c #7B7D7A",
"L  c #7C7B77",
"P  c #71716D",
"I  c #91675A",
"U  c #9F7C5C",
"Y  c #9A745F",
"T  c #856D5A",
"R  c #806C65",
"E  c #8E7567",
"W  c #947768",
"Q  c #827D7B",
"!  c #817A74",
"~  c #A47A6A",
"^  c #AC7E71",
"/  c #7E875C",
"(  c #73806F",
")  c #7B837D",
"_  c #798378",
"`  c #888262",
"'  c #928E6B",
"]  c #898578",
"[  c #93877E",
"{  c #958B7A",
"}  c #998C79",
"|  c #979178",
" . c #BA8B6F",
".. c #AA8875",
"X. c #B68C76",
"o. c #C39176",
"O. c #567F93",
"+. c #667F84",
"@. c #777C85",
"#. c #7D8283",
"$. c #7A868A",
"%. c #7C8F9D",
"&. c #6594A8",
"*. c #79C9EE",
"=. c #8A8682",
"-. c #868887",
";. c #968A89",
":. c #8C9489",
">. c #959389",
",. c #878F91",
"<. c #8C9696",
"1. c #939693",
"2. c #999C96",
"3. c #979A9B",
"4. c #A58E80",
"5. c #A39A8C",
"6. c #A99588",
"7. c #B3988C",
"8. c #A39E97",
"9. c #B39F96",
"0. c #9AA39F",
"q. c #ACA396",
"w. c #A7A39B",
"e. c #B3A394",
"r. c #BBA79D",
"t. c #B5A49C",
"y. c #A4A387",
"u. c #9996A7",
"i. c #A89FA0",
"p. c #9DA4A9",
"a. c #9CAAAC",
"s. c #99A5A5",
"d. c #9DAAB2",
"f. c #89A6A4",
"g. c #A5AAA9",
"h. c #BBB4AC",
"j. c #A6ADB3",
"k. c #A1A9BC",
"l. c #A4B2B4",
"z. c #AAB5BD",
"x. c #A3B5BB",
"c. c #B5B7BE",
"v. c #CBA28C",
"b. c #D3AD9C",
"n. c #D4A593",
"m. c #D2A389",
"M. c #E5AC98",
"N. c #DEAFA5",
"B. c #C8B4AB",
"V. c #DCBFAC",
"C. c #D3B8A3",
"Z. c #C2B8B6",
"A. c #E0BAA5",
"S. c #BAC0BE",
"D. c #D6C29F",
"F. c #C7C0A4",
"G. c #D6C7AA",
"H. c #CDC1B6",
"J. c #D7C7BA",
"K. c #D3D2B6",
"L. c #E3CDBC",
"P. c #E7DEBF",
"I. c #AAB7C2",
"U. c #A9BBC6",
"Y. c #B3BCC7",
"T. c #C6BEC3",
"R. c #B9C2C4",
"E. c #B4C2CA",
"W. c #BBC3CA",
"Q. c #BECDCC",
"!. c #BFC9D5",
"~. c #BDD0E1",
"^. c #C6CBCF",
"/. c #DDCDC3",
"(. c #C4CDD1",
"). c #C3CFDA",
"_. c #C5D1D3",
"`. c #C3D1D8",
"'. c #CAD5DD",
"]. c #CDD2D5",
"[. c #D8DEDC",
"{. c #EACEC2",
"}. c #E4D4C4",
"|. c #E2DACD",
" X c #E3DBD3",
".X c #F2DFD1",
"XX c #F8D8CB",
"oX c #EBE6D9",
"OX c #FAF1D0",
"+X c #F1E3D8",
"@X c #CBD9E3",
"#X c #CDDDEC",
"$X c #C6D5E4",
"%X c #D4DFEA",
"&X c #CEDEF3",
"*X c #D1DEF1",
"=X c #CEE4EF",
"-X c #D3E2ED",
";X c #D8E6EF",
":X c #CEE1F3",
">X c #D4E3F2",
",X c #D9EAF8",
"<X c #F0F2E7",
"1X c #FDFEF1",
"2X c #FCFFFA",
"3X c #E8EEEE",
/* pixels */
"-.s.$.-.N C =.Q d G :.J J $.7 7 7 y K C j M K ) %.",
"R.R.z.s.<.3.2.:.) _ J D v $.S c v S ,.-.-.s.j.d.U.",
"].%X$X@X@X`.`._.^.(._.E.E.E.E.z.U.E.'.'.'.@X#X,X,X",
"oX3X(.).$X$X#X&X#X-X3XQ.W.'.;X,X=X,X>X-X>X>X>X&X*X",
"oX<X[.(.@X#X#X$X:X,Xg.> > q r `.>X:X#X>X>X-X>X*X>X",
"k Z 1.g.,.-.p.Y.I.c.9 7...T > -.).Y.!.E.a.j.R.W.<.",
"0 p q j k j t H =.9 R b.n.b.7.9 L K #.D m m m e = ",
"t.e.H.5.>.h.i.H q.] l E X...E k q.8.] =.2.Z ] ;.8 ",
"D.G.K.' | 5.3.u.oXr.E 1 ~ i , 6.3X Xz.1.h.>.| P.F.",
"T h g | ` < :.S.1X}. .o.N.X.U Z.2X1XQ.s.] q < / ' ",
"l 0 k 6.W [ Z.T.J.J.~ W s I U H. X|.W.c.r.l < g y.",
"> q B j M a ;.T.p.Q u i s , ] q.[ B.k.@.V V p C w.",
"e B e f P } G.OXY.r 8 ; 0 - B =.Z H.~.U.D N m v @.",
"J x e ) :.t.B.}.@.= W u $ , Y M [ J.@Xx.0.,.m w D ",
"G _ ) >.H #.v w @ c A.o...X.v.r 7 ! <.p.2.F <.H J ",
"F s._ 4.9.: # 2 . K XXM.m.b.{.A 2 7 z S ) b v <.g.",
"$.f.( ^ I   # % X =.L.V.V.C.}.Q @ * 3 % 5 ] n #.x.",
"l.a.a.Z.4 O o * X 8..XJ.J.L.+XK O 3 & % + F &.+.l.",
"l.j.;XI.@ O + $ . g.+X/././.oXQ o * & o o 6 *.O.@."
};
