/* XPM */
static const char *micro_jhureau[] = {
/* columns rows colors chars-per-pixel */
"25 19 215 2 ",
"   c #05080D",
".  c #0B0A0E",
"X  c #05050A",
"o  c #120C0E",
"O  c #180E0F",
"+  c #0E100D",
"@  c #050613",
"#  c #0B0B12",
"$  c #0B0B17",
"%  c #130C12",
"&  c #0F1316",
"*  c #111012",
"=  c #15141A",
"-  c #1B191C",
";  c #19171B",
":  c #221C1B",
">  c #311F1D",
",  c #38251B",
"<  c #020D21",
"1  c #1E1F2C",
"2  c #1A1922",
"3  c #221E27",
"4  c #1E2229",
"5  c #172122",
"6  c #292624",
"7  c #32292A",
"8  c #392926",
"9  c #332D33",
"0  c #3B2F33",
"q  c #26303C",
"w  c #3A3532",
"e  c #262632",
"r  c #533918",
"t  c #472A25",
"y  c #542B25",
"u  c #493223",
"i  c #553523",
"p  c #463B38",
"a  c #573A36",
"s  c #633A2B",
"d  c #6D372B",
"f  c #643E34",
"g  c #693B36",
"h  c #653C38",
"j  c #71372B",
"k  c #6F5A0B",
"l  c #5F432D",
"z  c #5D493E",
"x  c #5E513E",
"c  c #68462B",
"v  c #61433B",
"b  c #674537",
"n  c #7C4B3B",
"m  c #76503D",
"M  c #3D3A47",
"N  c #4A3641",
"B  c #3B4551",
"V  c #554749",
"C  c #554948",
"Z  c #54514A",
"A  c #555758",
"S  c #674C49",
"D  c #7F4D4A",
"F  c #6E5F4C",
"G  c #7C5A45",
"H  c #7B5246",
"J  c #6A5653",
"K  c #676257",
"L  c #454C68",
"P  c #6F5861",
"I  c #6F6F63",
"U  c #7B6B63",
"Y  c #736568",
"T  c #777167",
"R  c #79777E",
"E  c #887205",
"W  c #854E3A",
"Q  c #864F42",
"!  c #844F4B",
"~  c #8D5343",
"^  c #835A44",
"/  c #8D534A",
"(  c #8C584D",
")  c #81564C",
"_  c #935E4B",
"`  c #935740",
"'  c #895851",
"]  c #A45546",
"[  c #8B644B",
"{  c #91644D",
"}  c #886359",
"|  c #996B55",
" . c #99755C",
".. c #A76756",
"X. c #B36C57",
"o. c #837869",
"O. c #897769",
"+. c #907C63",
"@. c #9B6F70",
"#. c #867671",
"$. c #8B7B73",
"%. c #927F70",
"&. c #A37863",
"*. c #B87B66",
"=. c #AF7F71",
"-. c #B47A76",
";. c #B2801D",
":. c #B49C14",
">. c #BFA601",
",. c #A89829",
"<. c #C4A801",
"1. c #D1B001",
"2. c #D2B212",
"3. c #B4B75E",
"4. c #8A837A",
"5. c #928277",
"6. c #95876D",
"7. c #B2856E",
"8. c #AD887C",
"9. c #B1AA7E",
"0. c #E48543",
"q. c #C68879",
"w. c #D29370",
"e. c #C3A37D",
"r. c #5A6083",
"t. c #6E6C81",
"y. c #797A96",
"u. c #887C84",
"i. c #9A7586",
"p. c #AB7D88",
"a. c #778091",
"s. c #7C96BC",
"d. c #6FAEB5",
"f. c #6BB7C4",
"g. c #9D8E87",
"h. c #99938C",
"j. c #97899B",
"k. c #8E8E92",
"l. c #AA9788",
"z. c #BA9388",
"x. c #A99993",
"c. c #BA9E90",
"v. c #AC8485",
"b. c #96A087",
"n. c #B3A199",
"m. c #B9A698",
"M. c #B6B39C",
"N. c #A6A287",
"B. c #8A95A8",
"V. c #989DAA",
"C. c #919FB9",
"Z. c #9384A5",
"A. c #9CADB0",
"S. c #BCAAA7",
"D. c #BABCAF",
"F. c #A7AAB5",
"G. c #BCB6B5",
"H. c #C49C8C",
"J. c #CBB188",
"K. c #C3A598",
"L. c #CDB09E",
"P. c #DAA691",
"I. c #CCAEA3",
"U. c #D0A8A0",
"Y. c #C5B9A8",
"T. c #D5B7AC",
"R. c #C8B3B4",
"E. c #D5BCB5",
"W. c #E2B1A2",
"Q. c #F5B18E",
"!. c #CFC399",
"~. c #D9CD93",
"^. c #C5C0AC",
"/. c #DAC3AB",
"(. c #DBC4B6",
"). c #D7C4BB",
"_. c #DAD3B3",
"`. c #D3D5BD",
"'. c #C9C6BD",
"]. c #E3C4B3",
"[. c #E3D2B8",
"{. c #829FC1",
"}. c #939FC5",
"|. c #89A4C8",
" X c #97A9C8",
".X c #95ABD2",
"XX c #A3B3CC",
"oX c #A5B2C2",
"OX c #B4BDCB",
"+X c #A8B9D6",
"@X c #CACAC5",
"#X c #D4CAC8",
"$X c #DDD2CE",
"%X c #D6D3CC",
"&X c #CBCAD1",
"*X c #D4CED0",
"=X c #DCDED8",
"-X c #E2CFC1",
";X c #E4D3C6",
":X c #E3DDCD",
">X c #E8DCC8",
",X c #F2DACD",
"<X c #E5DAD2",
"1X c #ECDBD2",
"2X c #E4DBDA",
"3X c #EFDBDA",
"4X c #F2D9D5",
"5X c #EBE2D7",
"6X c #F4ECDA",
"7X c #E1F1D6",
"8X c #F6E1CC",
"9X c #E6E7E5",
"0X c #F9FBF7",
"qX c #FEFEFD",
"wX c #F8F7F9",
/* pixels */
"..^ A S.*X@X$X<X1X5X1X<X>X,X<X9X+.!.qXwXqX@X7X~.J.",
"~ #.q M G.%X%X2X5X>X<X9X<X;X<X5X+./.0XwX0X^.x.*.q.",
"' k.t.3 k.=X&X,X3X<Xh.Y U x F 6.P.w.m.0X9XT 4.&.^ ",
"{ y.}.a.4.$X*X<X>XE.J } &.v v G &.Q.G R.*X$.m.H m ",
"7.j.s.OX5X$X#X=X1XT.J | ` Q *.w.| [ v R ).| | l ^ ",
"].v.|.V.&X2X$X:XW.*.H } ( n _ *.*.z i R )...H c _ ",
"(.-.s. XF.[.$X<XI. .) S D / _ X.[ c W M.M.H f h P ",
"@Xq.C..X X_.2X].I.=.! a h g t H ..~ @._.J.b r 6 < ",
"OX8.Z. XXX).:Xq.0.8.' ! / n a ( ] f 1 9.e.u u a : ",
"XXH.j.{.+X@X;XH.c a ( D D Q ( X.| , $ o.N.8 t , - ",
"+XU.u.|.+X'.;XV 2 - m g t j ~ ` p 5 = A `.T 4 & B ",
"XXR.i..X&X:Xg.@ 2 = i f y d b , 9 4 & B Y.).A.d.b.",
"B.G.p.OX<X:Xw $ % # t s s y 8 X p G.p 2 h.m.D.f.3.",
"y.F.z.@X-Xx.& o % $ C s y > : o 6 ,X6XZ K $.g.B.2.",
"r.A.L.Y.S.V @ *   @ V } S 9 3 6 6 T.8X6Xo.K V &.1.",
"r.oXn.n.g.: @ # + X 0 $.Y = % e w Y.T.4Xn.I Z ;.>.",
"L V.x.n.5.- # . . o N u.Z - 4 - C (.K./.G.#.5.:.<.",
"M h.x.c.#.. X # X 7 P A w O 4 . U (.z.L.M.%.O.E <.",
"J x.l.l.U X   .   7 Y 9 6 7 2 . l./.8.K.m. .z k ,."
};
