/* XPM */
static const char *micro_kmartine[] = {
/* columns rows colors chars-per-pixel */
"25 19 201 2 ",
"   c #050505",
".  c #060806",
"X  c #0A0906",
"o  c #030708",
"O  c #0B070B",
"+  c #0C0B0B",
"@  c #0C0401",
"#  c #130E0A",
"$  c #120B03",
"%  c #15110D",
"&  c #18130F",
"*  c #0F0D12",
"=  c #0F1417",
"-  c #111213",
";  c #1A1611",
":  c #14151A",
">  c #18171C",
",  c #161A1C",
"<  c #1A1B1C",
"1  c #1E1916",
"2  c #241407",
"3  c #2A1E15",
"4  c #231C1C",
"5  c #292017",
"6  c #27221C",
"7  c #2C231C",
"8  c #2F281E",
"9  c #32231A",
"0  c #3A2719",
"q  c #36281F",
"w  c #3B2B1C",
"e  c #171D23",
"r  c #1E2424",
"t  c #242423",
"y  c #2C2423",
"u  c #292824",
"i  c #2E2A2A",
"p  c #312C23",
"a  c #302E2F",
"s  c #392F29",
"d  c #3D2D20",
"f  c #3F3126",
"g  c #3A342C",
"h  c #3A3432",
"j  c #3D3935",
"k  c #363533",
"l  c #442D1D",
"z  c #402F25",
"x  c #443224",
"c  c #47352B",
"v  c #493222",
"b  c #433A34",
"n  c #453C36",
"m  c #4D4235",
"M  c #4E443B",
"N  c #52453D",
"B  c #594739",
"V  c #53493E",
"C  c #59493C",
"Z  c #5D4636",
"A  c #664937",
"S  c #604939",
"D  c #403F44",
"F  c #4F4840",
"G  c #484848",
"H  c #5C4E44",
"J  c #5D544A",
"K  c #4C4B50",
"L  c #5B575C",
"P  c #624F43",
"I  c #6D4D40",
"U  c #675646",
"Y  c #69574A",
"T  c #63594D",
"R  c #6A5B4D",
"E  c #61574D",
"W  c #7A5D4B",
"Q  c #605855",
"!  c #6C5D53",
"~  c #615C58",
"^  c #73604F",
"/  c #676056",
"(  c #62615F",
")  c #6F6353",
"_  c #746354",
"`  c #786851",
"'  c #74665E",
"]  c #78675D",
"[  c #71685F",
"{  c #7C695B",
"}  c #6F5F60",
"|  c #696666",
" . c #6A686A",
".. c #7B6D62",
"X. c #726E6B",
"o. c #786F6A",
"O. c #726962",
"+. c #7A726A",
"@. c #6D6C71",
"#. c #797572",
"$. c #7B797D",
"%. c #77767B",
"&. c #926858",
"*. c #8F745F",
"=. c #806F67",
"-. c #847263",
";. c #897565",
":. c #8B7867",
">. c #81746B",
",. c #867A6A",
"<. c #8C7C6E",
"1. c #8C7468",
"2. c #947363",
"3. c #927E6C",
"4. c #997F6E",
"5. c #847971",
"6. c #8C7F76",
"7. c #817C79",
"8. c #97826F",
"9. c #98826B",
"0. c #99846A",
"q. c #8E8075",
"w. c #84807F",
"e. c #8C837C",
"r. c #928475",
"t. c #998474",
"y. c #938578",
"u. c #9F8F7F",
"i. c #A08E79",
"p. c #AF8B7D",
"a. c #A8937D",
"s. c #8F8A87",
"d. c #8A8787",
"f. c #948982",
"g. c #938E8A",
"h. c #9D9383",
"j. c #979088",
"k. c #9A928B",
"l. c #9F988E",
"z. c #8D8C91",
"x. c #908F94",
"c. c #9D9690",
"v. c #9E9893",
"b. c #A59887",
"n. c #A4998C",
"m. c #AD9C8C",
"M. c #B79480",
"N. c #B79C88",
"B. c #A49E96",
"V. c #A59C9A",
"C. c #A99C95",
"Z. c #A7A39E",
"A. c #AEA49C",
"S. c #B1A49A",
"D. c #B6AD9D",
"F. c #B3A696",
"G. c #A1A1A3",
"H. c #B3ACA2",
"J. c #BBAFA3",
"K. c #BAB1AC",
"L. c #BEB8B8",
"P. c #C79C8B",
"I. c #C4B9AD",
"U. c #C5B8A9",
"Y. c #D3B3A4",
"T. c #C1B9B1",
"R. c #C9BFB5",
"E. c #C7BCB8",
"W. c #CEC3B3",
"Q. c #CBC4BC",
"!. c #D4C6BE",
"~. c #D1CEBF",
"^. c #D4C8B7",
"/. c #CEC5C0",
"(. c #CEC9C3",
"). c #C8C7CC",
"_. c #D7CCC5",
"`. c #D9CFC5",
"'. c #D9CFCE",
"]. c #D0CCC9",
"[. c #DCD2C4",
"{. c #DDD4CC",
"}. c #D7D3CA",
"|. c #CECCD1",
" X c #DCD8D3",
".X c #D6CAD4",
"XX c #E3D7C7",
"oX c #E4D9CC",
"OX c #E2DCD3",
"+X c #EBDED2",
"@X c #E0DCD9",
"#X c #ECE4DC",
"$X c #EAE4DA",
"%X c #F0E9DF",
"&X c #EAE7E0",
"*X c #FAEDE7",
"=X c #FEF6EC",
"-X c #F6F3EA",
";X c #FFF7F5",
":X c #FCFEFD",
">X c #FFFDF3",
/* pixels */
"d 3 5 p 6 7 7 5 s ! n . o & # + 6 p j y # ; ; % ; ",
"' H s b J E T T .._ m 4 u 5 7 u p 7 g j b b g b h ",
"[.D.R C R ! H ! R ^ U J M H m F V b m N N N m M N ",
";X_.] ;.a.a.i.` R _ _ ! H C H T _ { _ _ _ _ _ _ _ ",
"h.r.3.9.*.4.t.3.h.b.y.Y 0 9 9 f R t.3.3.8.3.3.3.3.",
"*X!.t.t.9.N.0.9.J.>XI.l v z q 2 x <.:.:.;.;.-.-.{ ",
"W.D.y.b.u.m.r.r.r.k...A W { c x 3 6.>...<.<.' f.A.",
"#XQ.Q.=XoXU.[.b.-.f.c 2.M.1.Y Z Q (.B.n.`.T.5.{.:X",
"~.[.#X@X%XW.XX].l.5.m i.P.&.S P H.}.g.c.T.V.V.OX:X",
"~.[.{.(.=XW.+X X$Xj.p y.p.2.B >.`./.B.k.V.g.#.s.'.",
"OXI.{. XOXI.XX&X-XT.p F.N.I w q.E.K.f.w.d.#.| | L.",
"Q.R.{.Q.%XW.!.Q.$X+XV ,.Y.2.B ! w.Q.Z.7.w.X.@.| .X",
"v.S.H.j.#Xt.U.B.Z.o.6 8 P C g 3 + k K | d.| L $.|.",
"+.>.,./ A.-.y.X.< > : r 1 + < : - . - < i i y h } ",
"b ..y.+.O.=.6.n = > e e t t , : > - - + . . +   # ",
"y q.) e.V.N 5.j X 4 < + i v.. O - * + X + X   + + ",
"! C.b >.Q.s ~ u X X G G.@.).K x.> + X X + X X X + ",
"!.S.5 [ ! # X + X + < z.%.$.z.@.+ .   X + X X X + ",
">.b $ % @ 1 k X X X - < L $.D O X . . + - - % + a "
};
