/* XPM */
static const char *micro_mdiamant[] = {
/* columns rows colors chars-per-pixel */
"25 19 203 2 ",
"   c #05020B",
".  c #1E1A1B",
"X  c #2C1816",
"o  c #3B2F2F",
"O  c #3E3025",
"+  c #3C2A39",
"@  c #3A3535",
"#  c #272727",
"$  c #46260F",
"%  c #643916",
"&  c #412D24",
"*  c #4C3221",
"=  c #513A28",
"-  c #583C3D",
";  c #683323",
":  c #724B22",
">  c #77553A",
",  c #5C444F",
"<  c #574A49",
"1  c #4F4E56",
"2  c #564C57",
"3  c #4F5555",
"4  c #694942",
"5  c #68504C",
"6  c #785E44",
"7  c #6D5C57",
"8  c #6D5855",
"9  c #745F5C",
"0  c #6D604D",
"q  c #6B645A",
"w  c #645B63",
"e  c #735F60",
"r  c #6C6465",
"t  c #7A6667",
"y  c #797169",
"u  c #6B6F70",
"i  c #726B73",
"p  c #667376",
"a  c #7C7C7C",
"s  c #787678",
"d  c #92542D",
"f  c #8D5F3B",
"g  c #985D3B",
"h  c #A55B3E",
"j  c #9C663C",
"k  c #A16438",
"l  c #8E5C41",
"z  c #995D41",
"x  c #A45C43",
"c  c #9F6F49",
"v  c #9F6854",
"b  c #8C715C",
"n  c #AD7248",
"m  c #A7755A",
"M  c #B27A57",
"N  c #85716D",
"B  c #8F7D6E",
"V  c #847368",
"C  c #927D6C",
"Z  c #997E6D",
"A  c #847C72",
"S  c #857E7A",
"D  c #927E78",
"F  c #AA7E65",
"G  c #B67F6A",
"H  c #95816F",
"J  c #8D8171",
"K  c #938272",
"L  c #9A8876",
"P  c #9D8B7B",
"I  c #998975",
"U  c #BF8C65",
"Y  c #B08261",
"T  c #A28D7A",
"R  c #A48378",
"E  c #B98B78",
"W  c #A5927C",
"Q  c #D39D6E",
"!  c #C69171",
"~  c #D99171",
"^  c #DEA174",
"/  c #6C7F86",
"(  c #737C82",
")  c #787E8C",
"_  c #877C87",
"`  c #937F81",
"'  c #798389",
"]  c #84878C",
"[  c #9E8C81",
"{  c #948886",
"}  c #9F9184",
"|  c #8B8A91",
" . c #889396",
".. c #9B9B9A",
"X. c #949698",
"o. c #A38E83",
"O. c #A38E89",
"+. c #A98F82",
"@. c #B88881",
"#. c #A49181",
"$. c #AA9684",
"%. c #AB9A84",
"&. c #A3958B",
"*. c #A4998F",
"=. c #AC9B8A",
"-. c #A8968A",
";. c #B09D8D",
":. c #A39B92",
">. c #AC9E92",
",. c #A59898",
"<. c #B09E90",
"1. c #B3A18F",
"2. c #ACA296",
"3. c #ADA49B",
"4. c #A7A096",
"5. c #B4A495",
"6. c #BBA594",
"7. c #B5A79D",
"8. c #B1A99F",
"9. c #BDAB9D",
"0. c #9E9BA1",
"q. c #979EA4",
"w. c #A19FA4",
"e. c #98A5A6",
"r. c #A3A2A3",
"t. c #A8A7A7",
"y. c #B3A9A2",
"u. c #BCAFA3",
"i. c #B4AEAD",
"p. c #B0A4A4",
"a. c #BAB1A6",
"s. c #AAABB2",
"d. c #A4ABB1",
"f. c #ABB2B5",
"g. c #AAB3B8",
"h. c #B4B2B5",
"j. c #B4BCBD",
"k. c #B6B8BC",
"l. c #CB9A8B",
"z. c #C29882",
"x. c #D59B90",
"c. c #D7948C",
"v. c #DEA58A",
"b. c #C2AB9C",
"n. c #CAA698",
"m. c #D3A89B",
"M. c #C5B09B",
"N. c #E5AE99",
"B. c #EFBA92",
"V. c #C2AFA2",
"C. c #C8AAA7",
"Z. c #DAAFA5",
"A. c #C4B2A5",
"S. c #C4B4A9",
"D. c #C8B6A9",
"F. c #C9B9AC",
"G. c #D3B5A9",
"H. c #C3BAB3",
"J. c #C8BBB5",
"K. c #EFBEB0",
"L. c #CBC2BE",
"P. c #C7C0BA",
"I. c #E8CBBC",
"U. c #F2C8BC",
"Y. c #BCBDC2",
"T. c #B6BFC4",
"R. c #ACB8C4",
"E. c #B8C3C5",
"W. c #BCC5CA",
"Q. c #B9C5C7",
"!. c #BFCAD4",
"~. c #BAC7D0",
"^. c #C2C6C8",
"/. c #C7C9C7",
"(. c #D1CAC4",
"). c #D2D3CE",
"_. c #C4CCD3",
"`. c #CED5D5",
"'. c #C4D0DA",
"]. c #CAD6DA",
"[. c #CED9DC",
"{. c #D8DAD6",
"}. c #D5DAD9",
"|. c #C9D5CB",
" X c #E8D2C7",
".X c #E2E1DC",
"XX c #EDE3D9",
"oX c #FFE3D7",
"OX c #CED7E1",
"+X c #D3DCE6",
"@X c #D7E2E6",
"#X c #E2E4E6",
"$X c #E5E9EA",
"%X c #ECEBE9",
"&X c #F2EFEA",
"*X c #F3F1ED",
"=X c #FCF5ED",
"-X c #E7EEF3",
";X c #F4F4F2",
":X c #FCFCF6",
">X c #F6FDFD",
",X c #FCFEFD",
"<X c #F6F7F6",
/* pixels */
"H K B K L K y L.>XXX XJ.3.$.W [ T $.#.o.#.P B P #.",
"H C K C C K V { :.P I I P T T $.W I #.#.o.&.A q s ",
"W T P P P L K S R P W %.W %.#.P 2.(..X*X;X,XW.( ].",
";.=.$.$.=.#.[ &.+.<.J 0 6 b 9.8.A =X&X%X;X,X^. .-X",
">.5.;.=.1.=.} *.=.V & X $ % 6 a.:.,X;X:X;X,X/.u ^.",
"t.3.5.1.1.>.&.>.I * n.R m ^ U = X.,X,X,X,X,X^.a ].",
"f.i.7.6.6.5.>.y.B Z oXU.N.~ B.> A *X.X{.*X,X).X.@X",
"R.j.u.6.M.5.2.7.[ +.G.E l.v m c y <Xf...`.>XT.( W.",
"~.W.a.9.A.9.5.8.6.Z.z.l x.; f U O.:X}.`.$X>Xg.| `.",
"~._.H.b.V.9.9.3.C.I.K.c.v.h ~ Q *.=X%X#X#X<Xh.] }.",
"'.[.H.V.S.A.9.4.u.I.m.l.G d k ! a <Xj. .}.,Xg.p E.",
"!.OXP.A.D.9.9.y.b.G.G.m.@.x n T ' ,X@X^.<X,Xd./ '.",
"'.+X/.A.A.A.u.r.A.J.n.Z.@.z M W S $X`.}.{.*Xd.' !.",
"'.+XL.A.F.S.L.;X|...n.E > : j > t {.j.h.^.<X .g.+X",
"'.OX(.D.S.H.L._.,.s.O.l.F j g C &.(.)...@ 3 p e.W.",
"!.+Xi.-.S.*.r ) ] ,.1 7 M Y O < N 9 p.X.# . X.[.E.",
"Q.@Xs   | w + w _ + , w - 4 X 7 , - { e 5 o X._.E.",
"f. .a 1 0.s 2 _ 0.i s w.D 4 r y.t t ,.7 8 o ( j.j.",
"q.' h.r.Y.r._ t.Y.] | s.>.D X.J.` +.H.N N < s g.e."
};
