/* XPM */
static const char *micro_vgaspari[] = {
/* columns rows colors chars-per-pixel */
"25 19 206 2 ",
"   c #0C0500",
".  c #1B140C",
"X  c #2C1C18",
"o  c #372B23",
"O  c #3E302F",
"+  c #3E3C3D",
"@  c #453B33",
"#  c #533F36",
"$  c #4E433C",
"%  c #564833",
"&  c #4B553A",
"*  c #634934",
"=  c #4B4647",
"-  c #59544C",
";  c #4B4F50",
":  c #504E51",
">  c #4E5857",
",  c #57515F",
"<  c #5C4648",
"1  c #624E4A",
"2  c #665A4B",
"3  c #7C5A47",
"4  c #685B56",
"5  c #5D645D",
"6  c #5A6442",
"7  c #6A6254",
"8  c #77675A",
"9  c #6A715F",
"0  c #7E785B",
"q  c #75735C",
"w  c #696542",
"e  c #4D5A60",
"r  c #5C6368",
"t  c #6B6A6A",
"y  c #686867",
"u  c #746C65",
"i  c #756968",
"p  c #6A796B",
"a  c #79736B",
"s  c #757669",
"d  c #696F7F",
"f  c #706F74",
"g  c #757A78",
"h  c #627677",
"j  c #845B4C",
"k  c #8C664F",
"l  c #8A6155",
"z  c #82795C",
"x  c #9F7754",
"c  c #976856",
"v  c #A2745B",
"b  c #B37453",
"n  c #957D68",
"m  c #817C73",
"M  c #857C75",
"N  c #887D6B",
"B  c #A57561",
"V  c #A17866",
"C  c #BD7D67",
"Z  c #C6664E",
"A  c #76805D",
"S  c #718177",
"D  c #6C887A",
"F  c #E4A12E",
"G  c #838151",
"H  c #8A866A",
"J  c #989467",
"K  c #858371",
"L  c #86817B",
"P  c #91867A",
"I  c #979377",
"U  c #AF8066",
"Y  c #B08364",
"T  c #B98D76",
"R  c #A09577",
"E  c #A4A16E",
"W  c #C68979",
"Q  c #C99860",
"!  c #F09866",
"~  c #CFAA66",
"^  c #EDA47B",
"/  c #D4914D",
"(  c #3D7E9A",
")  c #7B7F80",
"_  c #6A7B83",
"`  c #8D7D80",
"'  c #3D9AAC",
"]  c #5F868B",
"[  c #5E909A",
"{  c #6E8C8A",
"}  c #788C87",
"|  c #75908B",
" . c #5A8DA2",
".. c #68CDFB",
"X. c #63CCEC",
"o. c #868989",
"O. c #888986",
"+. c #948A80",
"@. c #948685",
"#. c #84968B",
"$. c #99968C",
"%. c #9A9387",
"&. c #9E8D95",
"*. c #969694",
"=. c #A79787",
"-. c #BF978D",
";. c #A79A91",
":. c #BE9C90",
">. c #9BAE80",
",. c #A5A186",
"<. c #B3AA8D",
"1. c #AEA595",
"2. c #B2A093",
"3. c #B4AC99",
"4. c #929AA7",
"5. c #8CA2AA",
"6. c #96A5A9",
"7. c #97B7B8",
"8. c #8FA8B3",
"9. c #A3A7AA",
"0. c #BBAFA1",
"q. c #A7B0AF",
"w. c #B9B8AB",
"e. c #A4AEB5",
"r. c #A7B8B5",
"t. c #BCBCB5",
"y. c #B2B7BD",
"u. c #B4BBB4",
"i. c #BDABB7",
"p. c #C89B8B",
"a. c #C39F91",
"s. c #C2B195",
"d. c #C0AEAE",
"f. c #C7B6A9",
"g. c #C8BEB7",
"h. c #D3BCAC",
"j. c #C7C5AB",
"k. c #C6C4BB",
"l. c #CCC4BC",
"z. c #C9C3B7",
"x. c #D5C7BF",
"c. c #D3CCBA",
"v. c #D8D0BD",
"b. c #C8D0BB",
"n. c #BABFC5",
"m. c #C1BFC4",
"M. c #9FC5CE",
"N. c #BAC1C2",
"B. c #BDC7CF",
"V. c #B6C8CC",
"C. c #ADCFD9",
"Z. c #BFCCD2",
"A. c #B4CBD8",
"S. c #C7CBC2",
"D. c #C2C9CD",
"F. c #CFCECA",
"G. c #C8C6C5",
"H. c #D2CBC3",
"J. c #D7CDCC",
"K. c #D8C9C4",
"L. c #CCD4CD",
"P. c #D5D1CC",
"I. c #DAD5C9",
"U. c #C3CCD2",
"Y. c #C9CED4",
"T. c #C3CDD9",
"R. c #D1CFD0",
"E. c #C7D5DE",
"W. c #CAD7D9",
"Q. c #D3D4D3",
"!. c #DDDAD5",
"~. c #D9DDDB",
"^. c #D7D8D9",
"/. c #E2D3CE",
"(. c #E5D3D4",
"). c #E4DDD7",
"_. c #FEF1CF",
"`. c #E3E3DE",
"'. c #E9E1DD",
"]. c #EAEDDF",
"[. c #F0E5D1",
"{. c #CCCFE0",
"}. c #CDD9E2",
"|. c #C9D5E1",
" X c #D3DCE2",
".X c #D8DBE5",
"XX c #CDDDFF",
"oX c #E4DFE6",
"OX c #DDE5E4",
"+X c #D3E0EC",
"@X c #DBE4EC",
"#X c #D9E7E7",
"$X c #DDE7F1",
"%X c #DEEBF4",
"&X c #E3E4EA",
"*X c #E2E5E6",
"=X c #F1EDE2",
"-X c #E9F1EC",
";X c #FBF3E3",
":X c #FDFCEA",
">X c #F8F7E7",
",X c #E1E7F2",
"<X c #E3EBF3",
"1X c #E7F2FA",
"2X c #E9F3F8",
"3X c #FFFEF8",
/* pixels */
"{. X}.}.}.Q.>X>X].F.D.Z.Y.Q.G.U.Y..X X X.X@X,X1X<X",
" XE.T.E.^.`.>X;X>X<XE.W.OX@X+X#X,X@X#X@X%X,X@X@X$X",
"u.D. XU.~.].>X:X:X-X}.~.~.|.+X#X@X+X%X%X@X$X<X1X<X",
"- i @.M s $.w.w.w.t.N.Y.Q.*XQ.N.G.B.Z.y.q.D.n.*.*.",
"8 8 7 7 a t f K u u o O @ # a L m o.t y m t : = @ ",
"3.v.,.I 0.i.&.2.2.- X l 3 X @ =.1.O.) +.N m a o $ ",
",.1.0 J z d.G.;X;.  # p.p.1 . 2.).9.6.1.H I j.<.%.",
"% 2 0 E G f.=X>Xl.# * j l % $ '.3XT.6.K w 6 A J <.",
"* 7 0 q n w.[.c.s.a.b W T x =.f.w.S.u.%.4 & z H P ",
"= t K a 2 L K.t.; < C c k Y u t ` 6.g 4 4 9 P $.s ",
"5 , s K @.f._.m.= + V j j T u 1 d.XXe.y r r g f ; ",
"y - m L n =.w.9.t $.B 3 3 U ;.8 t.A.6.*.p - > g g ",
"#.#.P +.p { 6.B.#X).v v v B l.N.q.{ | d _ O.D O.o.",
"#.} 2 T ] 8.#X<X@X!.h.a.:.f.-X2X<XA.5.M > h 7.*.} ",
"6.g M -.8. XoX`.OXg.K.S.G.K.J.#X@X@X'.~ p e q.6.S ",
"4.y.T.D..XK.Q.@X&X(.I.I.H.I./.&X&X^. X>.X. .$.M.[ ",
"R H.V.y.(.G.J.).!.!.!.H.H.`.`.~.*XQ.H.C.....( 7.5.",
"F Q g 4.F.b.l.x.P.P.P.k.k.!.!.Q.Y.R.x.E.' [ ;.W Z ",
"j.k.r.L.I.k.l.K.H.H.H.z.g.I.P.F.c.S.F.P.$.^ ! / C "
};
