/* XPM */
static const char *micro_cguinot[] = {
/* columns rows colors chars-per-pixel */
"25 19 190 2 ",
"   c #040202",
".  c #090604",
"X  c #090806",
"o  c #0C0C0C",
"O  c #140D0C",
"+  c #14100E",
"@  c #1C130D",
"#  c #0F0F11",
"$  c #110F10",
"%  c #1F1812",
"&  c #1D1B1A",
"*  c #181314",
"=  c #23180E",
"-  c #231B16",
";  c #231D19",
":  c #2C1F1A",
">  c #272019",
",  c #2B221D",
"<  c #34251B",
"1  c #31281F",
"2  c #211F20",
"3  c #2F2621",
"4  c #332B24",
"5  c #3B2F23",
"6  c #383127",
"7  c #373028",
"8  c #3B332E",
"9  c #2F2D30",
"0  c #323031",
"q  c #3B3532",
"w  c #39383D",
"e  c #43342C",
"r  c #4C372D",
"t  c #45392E",
"y  c #4B3A2A",
"u  c #463D34",
"i  c #483A31",
"p  c #453633",
"a  c #4D4135",
"s  c #4B433C",
"d  c #57483B",
"f  c #3D3C41",
"g  c #4F4840",
"h  c gray31",
"j  c #4A4541",
"k  c #524A43",
"l  c #594E47",
"z  c #564D48",
"x  c #514745",
"c  c #5D544B",
"v  c #5F5347",
"b  c #5C5754",
"n  c #6B4D43",
"m  c #604C41",
"M  c #645143",
"N  c #65564A",
"B  c #6C5C4E",
"V  c #6B5045",
"C  c #725A4D",
"Z  c #655C57",
"A  c #6B5C51",
"S  c #645751",
"D  c #735D51",
"F  c #6F635A",
"G  c #6A6258",
"H  c #736254",
"J  c #75655A",
"K  c #74685E",
"L  c #7D6A5D",
"P  c #796155",
"I  c #5F5E66",
"U  c #625F68",
"Y  c #69666D",
"T  c #6A6765",
"R  c #766B64",
"E  c #7D6E64",
"W  c #706C6C",
"Q  c #78716A",
"!  c #706E72",
"~  c #77747B",
"^  c #7C7876",
"/  c #876A5A",
"(  c #92655F",
")  c #946E65",
"_  c #827062",
"`  c #8D7A65",
"'  c #85756C",
"]  c #84786D",
"[  c #8B7768",
"{  c #947E6B",
"}  c #997C6C",
"|  c #877B72",
" . c #8D7D72",
".. c #827C7A",
"X. c #9D7F75",
"o. c #95826E",
"O. c #99836D",
"+. c #8D837F",
"@. c #8F8373",
"#. c #968271",
"$. c #9A8472",
"%. c #9D8A76",
"&. c #948579",
"*. c #9C897A",
"=. c #988A7D",
"-. c #A38974",
";. c #A9967D",
":. c #B5877A",
">. c #7C7980",
",. c #837E82",
"<. c #8A8481",
"1. c #8D8989",
"2. c #858388",
"3. c #9A8C83",
"4. c #928C8B",
"5. c #958C87",
"6. c #999189",
"7. c #939692",
"8. c #999592",
"9. c #979996",
"0. c #9B9996",
"q. c #B78F87",
"w. c #A49384",
"e. c #AE9F8B",
"r. c #A39889",
"t. c #B89B8A",
"y. c #A39D9A",
"u. c #ABA39B",
"i. c #B5A698",
"p. c #A6A3A1",
"a. c #AAA3A3",
"s. c #ACA8A7",
"d. c #B1A7A3",
"f. c #B5ADA3",
"g. c #B4AEAC",
"h. c #BBAEAB",
"j. c #BFB6A7",
"k. c #B4B0AF",
"l. c #BBB2AC",
"z. c #BCB7B4",
"x. c #BCB9B3",
"c. c #BDBCBB",
"v. c #C79888",
"b. c #C8A99D",
"n. c #C0B19E",
"m. c #C4ACA2",
"M. c #C6B6A7",
"N. c #CDB8A7",
"B. c #C3B6AB",
"V. c #C6BCAD",
"C. c #C9BAAA",
"Z. c #C4BAB1",
"A. c #C5BEBB",
"S. c #D6C4AE",
"D. c #CEC4B4",
"F. c #C4C4BF",
"G. c #D2C6BC",
"H. c #D8C4BA",
"J. c #CABFC3",
"K. c #CBC5C3",
"L. c #CCCAC3",
"P. c #D5CCC2",
"I. c #D3CECD",
"U. c #D6D3CB",
"Y. c #DCD3CC",
"T. c #DBD5CA",
"R. c #D7D3D2",
"E. c #DAD3D4",
"W. c #DDD9D7",
"Q. c #D9D7D8",
"!. c #DDDADB",
"~. c #D7D6DB",
"^. c #E1D8C7",
"/. c #E0D8CC",
"(. c #E5D4CD",
"). c #E5DCD2",
"_. c #E8DAD2",
"`. c #E3DDDA",
"'. c #E4E1DE",
"]. c #EDE4DA",
"[. c #F2E7DD",
"{. c #DFDFE1",
"}. c #E8DCE0",
"|. c #DFE8E7",
" X c #E9E4E4",
".X c #EAE9E5",
"XX c #E7E5E8",
"oX c #F3EAE1",
"OX c #FFF6F4",
"+X c #FFF9F5",
/* pixels */
"t 5 1 , ; % @ @ = < G u . O - @ O q s s > @ - - ; ",
"R l 8 4 s c c c b K K t @ ; & & ; , > 7 8 4 8 q 8 ",
"D.j.=.v a N S c Z J J B d s s j s g u s k k z k z ",
"OX+XG.L ` %.;.o.P C M d N B H D B H H H B N A A B ",
"r.e.e.O.{ { w.*.[ y < , , e P -.#.O.$.$.$.O.$.#.$.",
"[._.i.*.%.-.;.O.a = + & * O < [ %.{ $.{ O.{ { { ` ",
"V.^.V.@.w.*.i.#.3 @ - : O O , F E  . .' _ [ L _ &.",
"l.).f.Z.[.D.n.S.p r V n r : 6 G ^ A.l.5.+.P.u.] R.",
"].U.U.].`.Y.V.).3./ v.) D m ' a.g.K.g.<.4.K.y...!.",
"/.c.L.P.F.oXC.).F.b.:.( n D f.9.y.A.z.<.4.4.1.W 0.",
"T.R.f.G.U./.C.P.|.(.b.q.C &.T.7.<.u.y...^ ,.W Y T ",
"P.x.B.G.A.T.M.P.c._.H.} C ' l.<.0.z.g.1.! ~ ! U ~ ",
"G.8.u.i.y.).3.x.4.G.N.t./ E d.J.z.p.0.W Y >.Y I 2.",
"F W | ] R d.K 8.L.).M.t.X.h.Q.!.'.L.! 2 9 w f w h ",
"i x R *.T Z l.XX.X.XY.m.H.E.{.`.'. Xc.0 X X # o o ",
"e , 3.E <.8.`.XX}.XX!.Y.Y.~.{.).Q.c.c.2.  o o X o ",
"M d 3.a  .Y.`.!. X'.'.R.I. X!.W.K.g.8.s.& X o o o ",
"*.V.Z.e | h.`.~.`.`.`.I.R.`.W.R.k.p.4.z.b   $ o o ",
"#.r.l @ % +.`.R.`.`.W.K.!.R.Q.I.a.y.1.K.7.X & $ + "
};
