/* XPM */
static const char *micro_ilbonnev[] = {
/* columns rows colors chars-per-pixel */
"25 19 195 2 ",
"   c #131213",
".  c #1B1A1B",
"X  c #191819",
"o  c #221E1C",
"O  c #29221D",
"+  c #1E1F23",
"@  c #2C2A24",
"#  c #2B2728",
"$  c #2D2B29",
"%  c #242925",
"&  c #372D2A",
"*  c #2E302D",
"=  c #35312E",
"-  c #3D352C",
";  c #3B382F",
":  c #373534",
">  c #3C3A36",
",  c #3D3B3A",
"<  c #40352F",
"1  c #453B33",
"2  c #4E3F38",
"3  c #4E4037",
"4  c #4C453B",
"5  c #48463C",
"6  c #50463C",
"7  c #393544",
"8  c #3C3947",
"9  c #363441",
"0  c #4D4B46",
"q  c #4F4A4C",
"w  c #4B4643",
"e  c #554C44",
"r  c #524D4A",
"t  c #584F49",
"y  c #56514C",
"u  c #5C544C",
"i  c #5D5347",
"p  c #4F4550",
"a  c #4E4B56",
"s  c #534C5D",
"d  c #5A5653",
"f  c #58505D",
"g  c #5D5852",
"h  c #62554C",
"j  c #635A4E",
"k  c #655C52",
"l  c #695E52",
"z  c #6E5F58",
"x  c #625E5B",
"c  c #6B6254",
"v  c #6B6259",
"b  c #716456",
"n  c #726659",
"m  c #75695B",
"M  c #7C6D5E",
"N  c #786956",
"B  c #574D65",
"V  c #5C5565",
"C  c #63586A",
"Z  c #665A72",
"A  c #6A6561",
"S  c #6F6969",
"D  c #7C6D61",
"F  c #766B69",
"G  c #7E7569",
"H  c #6C6274",
"J  c #6F6579",
"K  c #746577",
"L  c #756E74",
"P  c #72647C",
"I  c #726A7B",
"U  c #7A687E",
"Y  c #7A717D",
"T  c #806D55",
"R  c #806F5D",
"E  c #827363",
"W  c #887765",
"Q  c #83796F",
"!  c #8C7C6C",
"~  c #877864",
"^  c #937B6B",
"/  c #8D7E75",
"(  c #827E75",
")  c #8F8069",
"_  c #9C806B",
"`  c #8E8376",
"'  c #8B857A",
"]  c #938575",
"[  c #948679",
"{  c #9E8779",
"}  c #9F907D",
"|  c #A18C76",
" . c #AB967B",
".. c #7A6D85",
"X. c #7D6E8A",
"o. c #776B83",
"O. c #817385",
"+. c #82768B",
"@. c #887C89",
"#. c #857693",
"$. c #877B93",
"%. c #8B7C94",
"&. c #837799",
"*. c #847B9C",
"=. c #8D7E9C",
"-. c #907F9F",
";. c #8C7CA0",
":. c #8B8588",
">. c #958B81",
",. c #97928F",
"<. c #9D9387",
"1. c #8E809A",
"2. c #8D8092",
"3. c #9A9394",
"4. c #A19383",
"5. c #A39A8C",
"6. c #A59885",
"7. c #A29994",
"8. c #AFA08D",
"9. c #B1A28B",
"0. c #A9A49E",
"q. c #A6A19D",
"w. c #B1A090",
"e. c #BBAB97",
"r. c #BAAD9B",
"t. c #9383A3",
"y. c #A298A1",
"u. c #9DA0A9",
"i. c #ADABA7",
"p. c #B5ADA6",
"a. c #B0A5AD",
"s. c #BCB5AC",
"d. c #BCB8AD",
"f. c #B7ACB0",
"g. c #B9B5B1",
"h. c #BBB9B4",
"j. c #C1B3A3",
"k. c #C6BBA5",
"l. c #C2B7AC",
"z. c #C9B9AC",
"x. c #C7B9B0",
"c. c #C4BEBA",
"v. c #C8C0A9",
"b. c #CBC2B8",
"n. c #D7C8B3",
"m. c #D3CABE",
"M. c #D8CABD",
"N. c #D8D1B7",
"B. c #C3BFC0",
"V. c #CFCBC4",
"C. c #C5C3CA",
"Z. c #CAC6C4",
"A. c #D2CDC5",
"S. c #D5CBCA",
"D. c #CFD2C1",
"F. c #D4D3C1",
"G. c #DED7CD",
"H. c #DFD3C5",
"J. c #D2CDD3",
"K. c #DBD5D3",
"L. c #D7D7DA",
"P. c #D7D6D7",
"I. c #E3DFCC",
"U. c #E5D6C1",
"Y. c #E0D7D0",
"T. c #E1DCD2",
"R. c #E0DBD8",
"E. c #E0E0D6",
"W. c #ECE2D3",
"Q. c #E3E2DB",
"!. c #EAE5DB",
"~. c #EDEBD4",
"^. c #F0E7D6",
"/. c #DDDBE0",
"(. c #E7E7E5",
"). c #EFE8E0",
"_. c #ECE6E6",
"`. c #F4EEE3",
"'. c #F2EEEB",
"]. c #F4F3EC",
"[. c #FBF5ED",
"{. c #FCF9ED",
"}. c #F8F2E2",
"|. c #F0EEF1",
" X c #F5F7F2",
".X c #FFF0F1",
"XX c #FFFDF2",
"oX c #FFFFF5",
"OX c #FCFBF4",
"+X c #FFFFFB",
"@X c #FEFEF8",
"#X c #FFFFFF",
"$X c #FDFDFF",
"%X c #FCFBFE",
"&X c #F5F9F8",
/* pixels */
"c k k k Q G e O @ $ $ % * = @ 1 > > > > > : > > > ",
"h 4 6 u k v c t r 0 r r w r r q r g d 0 0 y d g v ",
"j.4.[ D k i h u t u i h i u y r e u y e u i e u j ",
"N ] ! m m l l v n m b j c n m m D m m m n m D m m ",
"! W W M [ M.r.Q E i 4 ; 5 c E T E E E M E D D E D ",
"R } ! E ! l.M.` k & & $ = - l M m m c m b m b n m ",
"b.5.G >.<.' k h z 1 2 3 1 < 7.V.s.s.s.s.' l.m.p.m ",
"XXs.A.oXA.{.( y H.4.| | ^ ] OX&XQ.+X+X{.h.].+X+XU.",
"#Xr.!.+X XF.! S I.z. ._ | I.oX!.V.OX`.).Z.'.+X X}.",
"#Xk.Q.+X#X].~ 0 K..X{ ^ ! {.$X_.A.XX!.!.0.K.OXOX[.",
"#Xv.E.+X%X#X5.5 ].`. .T ) N.`.W.A.`.T.G.3.Z.].(.~.",
"+Xk.!.oX$X$Xp.x C.@./ D / >.3.f.S.[.Y.A.,.B.|.L.F.",
"[.6.K.^.[.{.c.@.*.&.K K U O.t.1.a.K.K.A.,.J.L.L.Z.",
"W.8.b.n.W.D.y.#.*.&.+.+.%.%.t.1.O.y.L S d L C./.q.",
"j.9.s.e.x.i.H X.-.;.$.=.=.1.t.+.J Y , o $ # h.P.:.",
"e.~ d.w.F u.V P %.t.2.$.#.%.#.H s I q o $ $ g.c.0.",
"` - T.' 5 :.s a ..%.+.%.X...I s 8 H p   . X A.R.i.",
"k @ y ; = f s 8 Z ..o.#.o.o.J s 9 H C   X O s.K.g.",
"1 :   , q H B 7 Z ..X.%.X.o.I V 7 P Y . + . u A A "
};
