/* XPM */
static const char *micro_lpellegr[] = {
/* columns rows colors chars-per-pixel */
"25 19 216 2 ",
"   c #54433B",
".  c #61403B",
"X  c #646136",
"o  c #594D45",
"O  c #5B524A",
"+  c #585757",
"@  c #714C43",
"#  c #65554A",
"$  c #655953",
"%  c #605B5A",
"&  c #705F58",
"*  c #644D45",
"=  c #6A654F",
"-  c #726B4E",
";  c #67615B",
":  c #71645B",
">  c #766857",
",  c #79705F",
"<  c #6D7B57",
"1  c #4C5A6E",
"2  c #485B7A",
"3  c #5A5C6B",
"4  c #4E647C",
"5  c #586579",
"6  c #626A66",
"7  c #766A62",
"8  c #726D69",
"9  c #6A746B",
"0  c #767765",
"q  c #6C6D75",
"w  c #6A7476",
"e  c #7A7472",
"r  c #7B7C7C",
"t  c #797779",
"y  c #886B5F",
"u  c #80715C",
"i  c #9B785C",
"p  c #83736E",
"a  c #887966",
"s  c #867B77",
"d  c #A36661",
"f  c #A67F6E",
"g  c #B77E6B",
"h  c #A57A71",
"j  c #75905B",
"k  c #7A8354",
"l  c #7B8378",
"z  c #96886F",
"x  c #8D8272",
"c  c #89817B",
"v  c #988877",
"b  c #93917C",
"n  c #9D9579",
"m  c #A49D6F",
"M  c #AD8C7D",
"N  c #A08373",
"B  c #B78879",
"V  c #A3987D",
"C  c #BD9174",
"Z  c #B68469",
"A  c #9FA07E",
"S  c #CB8770",
"D  c #4D6785",
"F  c #536284",
"G  c #526982",
"H  c #566C8B",
"J  c #576A8A",
"K  c #5F728D",
"L  c #5A7392",
"P  c #5B739B",
"I  c #5C7A9A",
"U  c #537B9E",
"Y  c #47749B",
"T  c #64758B",
"R  c #697887",
"E  c #757C84",
"W  c #787B83",
"Q  c #617497",
"!  c #777C92",
"~  c #5D7BA6",
"^  c #647CA2",
"/  c #677BAA",
"(  c #827D83",
")  c #75848C",
"_  c #798C89",
"`  c #6A8696",
"'  c #7A8B93",
"]  c #779698",
"[  c #5F8AAA",
"{  c #5282B0",
"}  c #4A95B5",
"|  c #6184AA",
" . c #618BB3",
".. c #718AB2",
"X. c #7D9DB7",
"o. c #739CA8",
"O. c #7CA3A4",
"+. c #7AAAB6",
"@. c #7B9DC3",
"#. c #708BD0",
"$. c #6CB4DA",
"%. c #54C3FD",
"&. c #68C8F8",
"*. c #8C8683",
"=. c #838B87",
"-. c #818A89",
";. c #86858B",
":. c #928682",
">. c #8F918C",
",. c #96968E",
"<. c #9E9B86",
"1. c #838E98",
"2. c #869897",
"3. c #909394",
"4. c #929C96",
"5. c #92919C",
"6. c #989899",
"7. c #A18E80",
"8. c #A99B8A",
"9. c #B79889",
"0. c #A49D9A",
"q. c #B69E9A",
"w. c #8EA19F",
"e. c #9CA99F",
"r. c #ABA58A",
"t. c #BDA28E",
"y. c #B5B58F",
"u. c #A7A59A",
"i. c #B3A69A",
"p. c #B6B193",
"a. c #819EAC",
"s. c #929EAA",
"d. c #8A8CA3",
"f. c #A09FA4",
"g. c #93AAAF",
"h. c #9AA5A6",
"j. c #97AAB8",
"k. c #87A7B6",
"l. c #A4ACAE",
"z. c #A9A7A7",
"x. c #B9AFA5",
"c. c #B8B3AB",
"v. c #A7AFB1",
"b. c #B0AFBD",
"n. c #A8B3B6",
"m. c #B7B8B6",
"M. c #A3B3A6",
"N. c #C4988C",
"B. c #DBA189",
"V. c #C1AD92",
"C. c #D3AB93",
"Z. c #DCAF92",
"A. c #DFBC9E",
"S. c #E4B089",
"D. c #E2AB97",
"F. c #C5BDA9",
"G. c #C3B1A7",
"H. c #C4B8B8",
"J. c #D7B4A1",
"K. c #CFC6A9",
"L. c #D4C1A0",
"P. c #C7C4BA",
"I. c #CDCAB3",
"U. c #D9CCB7",
"Y. c #DCD8BD",
"T. c #E2C8B9",
"R. c #88AFC4",
"E. c #99B3C0",
"W. c #ABB9C1",
"Q. c #BABCC3",
"!. c #B7B9C6",
"~. c #C3BBC8",
"^. c #AEC4CF",
"/. c #B9C1C3",
"(. c #B3C3CC",
"). c #BCC1CA",
"_. c #BCCACB",
"`. c #ADC2D3",
"'. c #BBC3D1",
"]. c #BDCCD3",
"[. c #BBCCDC",
"{. c #B7CBD4",
"}. c #BFD0D8",
"|. c #C6C8C9",
" X c #C4CBD3",
".X c #CBCCD7",
"XX c #C5CDDC",
"oX c #C6D2DE",
"OX c #CBD5DB",
"+X c #C7D7D6",
"@X c #D5DBD9",
"#X c #D0C7D8",
"$X c #E6D6C7",
"%X c #E5D9D9",
"&X c #FFEDCE",
"*X c #E8F1DE",
"=X c #F2F7D9",
"-X c #F6E9D8",
";X c #C0CFE2",
":X c #C3D3E3",
">X c #CDDBE6",
",X c #CCDDEB",
"<X c #C9D6E4",
"1X c #D3DBE1",
"2X c #CDDDF5",
"3X c #D3DEF2",
"4X c #CCE3EE",
"5X c #D2E2ED",
"6X c #D7E3E3",
"7X c #D3E4F3",
"8X c #D3E3FA",
"9X c #EDEEE5",
"0X c #E3E6E7",
"qX c #F3EBE7",
"wX c #F1F5F5",
"eX c #F6F8EB",
/* pixels */
"-X@X).m.v.g.h.z.2._ -.E 1.' 3.,.) 3.6.4.h.n.l.n.(.",
"=X0X<X<XoX}.@X0X0X X].`.^.(.(.].{. X1XXX:X<X3X8X8X",
"*X+X[.:X;X[.6XeXqX0X>X>X5X1X>X7X4X5X5X4X7X,X,X4X,X",
"m._.>X[.:XoX@X9X9X@Xm.0.,.*.|.1X2X8X2X2X,X5X7X4X7X",
"; ;.v.3.=.4.m.P./.z.7 : : $ c x. X].:X(.W.Q.OXn.h.",
"s 8 : x b e t *.( e o # O % O p <.u.=.w 8 e r + ; ",
"G.I.F.r.F.|.t z.G.&       $ O o i.u.-.f.s c ,.% O ",
"K.Y.n V r.m.6.%X$X, * . y @ # O $X|.4.m.x.<.I.F.i.",
"- k b n > 8.Q.wX=Xp B g D.B C > qXwXj.8.0 < j A r.",
"a u b z 7.H.H.P.T.N.Z C f M 9.h $X@X/.m.v = X m z ",
"8 ;.l p s :.c.v.5.a i g d f a z G.W.4.;.x 0 7 z.<.",
"t 6 0 :.V L.&X#X! W i.M N.M u p V.>X'.d.r 9 q ) r ",
"r 6 s 6.9.p.U.~.5.T 0.i > : v s I.XX'.z.s.l + q W ",
"_ 1.,.-.t O.O.g.k.^ q.S.N 9.C.p D 2 j.h.) 4._ r >.",
"e.w.s t.1.o.+.R.| ~ 6.A.J.C.Z.c.U D @.+.w w ' M.4.",
"z.] , S O.+.X.#./ P 5 x N.B.t.` L 5 P R.y.9 R W.2.",
"n.g.b.!.`.../ ~ ^ ^ G 1 W >.5 1 3 H {  .g.O.' l.j.",
"+XOX.X.X`.I Q I L P H J R E 5 G L Q T H [ &.$.` E.",
"m. X).).E.2 F 4 K H H Q T T J H I K 5 F Y %.%.} a."
};
