/* XPM */
static const char *micro_jfarchic[] = {
/* columns rows colors chars-per-pixel */
"25 19 195 2 ",
"   c #050000",
".  c #0C0B06",
"X  c #130B05",
"o  c #19110E",
"O  c #1E181A",
"+  c #1C1714",
"@  c #2E1707",
"#  c #301F0B",
"$  c #37291C",
"%  c #342923",
"&  c #343837",
"*  c #4D2B12",
"=  c #5E3018",
"-  c #57381B",
";  c #542907",
":  c #612F0C",
">  c #66391C",
",  c #443D37",
"<  c #653821",
"1  c #7C451E",
"2  c #4A443D",
"3  c #7C4D2B",
"4  c #7B4322",
"5  c #62493C",
"6  c #654735",
"7  c #704630",
"8  c #564F45",
"9  c #5B5549",
"0  c #784E46",
"q  c #685046",
"w  c #63594F",
"e  c #7E5841",
"r  c #77574C",
"t  c #79574E",
"y  c #775F55",
"u  c #7D5B52",
"i  c #6D655D",
"p  c #72635A",
"a  c #7F605B",
"s  c #72695F",
"d  c #5A6465",
"f  c #6D6865",
"g  c #756C63",
"h  c #786F65",
"j  c #786F68",
"k  c #736E68",
"l  c #7A7166",
"z  c #7D746B",
"x  c #757572",
"c  c #7E7872",
"v  c #814D26",
"b  c #864E35",
"n  c #825B3E",
"m  c #A85F36",
"M  c #96673D",
"N  c #885A4C",
"B  c #855E5A",
"V  c #815854",
"C  c #9F6849",
"Z  c #966647",
"A  c #8C635E",
"S  c #87645E",
"D  c #926757",
"F  c #9F6250",
"G  c #9C6C56",
"H  c #8B684A",
"J  c #AD6B48",
"K  c #A86F5B",
"L  c #A97A58",
"P  c #BE7C5A",
"I  c #8B6262",
"U  c #896963",
"Y  c #81766B",
"T  c #84796D",
"R  c #8B7F6F",
"E  c #867466",
"W  c #967C6C",
"Q  c #957A67",
"!  c #847C74",
"~  c #8A7F73",
"^  c #827C7C",
"/  c #9C7D72",
"(  c #A37A65",
")  c #B1835E",
"_  c #9C816C",
"`  c #878070",
"'  c #8B8276",
"]  c #8D857D",
"[  c #8F887E",
"{  c #87827C",
"}  c #918376",
"|  c #9F8177",
" . c #92877B",
".. c #9D817C",
"X. c #948A7F",
"o. c #988A7D",
"O. c #A78665",
"+. c #A9836C",
"@. c #B1866A",
"#. c #A78772",
"$. c #A5867A",
"%. c #B78D7D",
"&. c #AE947B",
"*. c #B69079",
"=. c #BF967A",
"-. c #CB9275",
";. c #8D8682",
":. c #8F8B82",
">. c #938D84",
",. c #998C82",
"<. c #9C8480",
"1. c #9C9184",
"2. c #9C938B",
"3. c #949393",
"4. c #9D9B92",
"5. c #97989C",
"6. c #9A9E9A",
"7. c #9D9690",
"8. c #A68883",
"9. c #AB8E88",
"0. c #A19386",
"q. c #A99287",
"w. c #A19589",
"e. c #AE938C",
"r. c #A49A8F",
"t. c #AD9A87",
"y. c #B2958D",
"u. c #A39B93",
"i. c #AC9B93",
"p. c #B29F94",
"a. c #B99795",
"s. c #AAA097",
"d. c #A7A29C",
"f. c #ACA39B",
"g. c #B3A394",
"h. c #B3A29B",
"j. c #B39DA0",
"k. c #B4AAA2",
"l. c #B7ABA8",
"z. c #BDB4AD",
"x. c #BDB6B1",
"c. c #BEBAB1",
"v. c #BDBFBE",
"b. c #B5BABD",
"n. c #C39B81",
"m. c #C9A587",
"M. c #C8B19F",
"N. c #C9A897",
"B. c #CCB6AB",
"V. c #CCB8A8",
"C. c #C3BCB4",
"Z. c #C6B8B6",
"A. c #B8C3BD",
"S. c #CCC0AA",
"D. c #CBC1BF",
"F. c #CBC8BF",
"G. c #C3C3B9",
"H. c #D8C0B6",
"J. c #D3C6BB",
"K. c #D6C9BA",
"L. c #BCC0C3",
"P. c #CDCAC4",
"I. c #C6CACA",
"U. c #CCCECC",
"Y. c #CFC5CD",
"T. c #D4CAC3",
"R. c #D4CDCC",
"E. c #D3C6C0",
"W. c #D3D5CE",
"Q. c #D6D9CA",
"!. c #CECFD1",
"~. c #CFD4D7",
"^. c #D3D4D3",
"/. c #DBDAD5",
"(. c #D8DADB",
"). c #E2D5CD",
"_. c #E3DCD2",
"`. c #E2DDDA",
"'. c #DCE7D6",
"]. c #E1E1DD",
"[. c #E8E0D5",
"{. c #DDE6ED",
"}. c #ECEBE4",
"|. c #EDEDEA",
" X c #E4E5E3",
".X c #F3F2ED",
"XX c #FCF8EF",
"oX c #E7EEF2",
"OX c #ECF0F1",
"+X c #F3F4F3",
"@X c #FAFDF6",
"#X c #F2F6F8",
"$X c #F9F7F8",
"%X c #F7FBFB",
"&X c #FDFEFE",
/* pixels */
"h l h g h j g i ^ z._.&X&X&X}.g.w.s.>.z T R ' l } ",
"z h z h z l z i I.&X.Xc.' p g ! T Y Y z Y g s h l ",
"T Y z Y z l z k ` 1.9 X     o , T ! ! >.u.f.u.x l.",
"' ~ T T Y T z c T s X X + + .   w C./.@X&X&X&Xv.+X",
"d.[ ' ~  .~ ! { ;.f % W L 3 * # 2 .X&X&X&X@X&XI..X",
"^.d. . . . .] ;.2.p Q @.C Z Z > 8 }.&X%X&X&X&XI.|.",
"oX^.u.,.} o.X.:.] $.*.< N 6 * H c.|.&X&X&X&X&XU.+X",
"{.#Xx.,.1.o.>.>.8.%.-.J P 4 ; O.T.].&X&X&X&X&XW..X",
"~.%X].2.w.0.,.2.5.#.) G N > v m k./.&X&X&X&X&XP.}.",
"b.&X&Xk.1.w.2.2.4.E e K F = - m.Q./.&X&X&X&X&XF.|.",
"L.%X&XC.2.r.u.7.u.2.5 H b : 6 %X_.`.&X%X&X&X$XW.}.",
"!.+X&XR.2.r.u.u.3.h._ $ O @ &.&XP.R.&X@X&X&X&XA.}.",
"^.+X&X/.u.i.u.u.6.h.n.@.7 1 ) .X'./.&X@X&X&X&XA.|.",
"^.+X&X/.2.s.s.k.K.B.=.L C 3 M m.S.).&X&X&X&X&XW. X",
"^.+X&X/.d.k.h.C.x.Y.D.t.O.#.V.B.N.B.J.[.XX$X^.4.~.",
"U.OX&X XC.T.l.h.G.Z.D.P.E.T.E.V.J.K.M.+.#.,.& d oX",
"%X#X&XZ.<.8.q.$.h.g.i.i.p.h.y.q.a./ t r D H 2 6.%X",
"&X&X+Xj...U q 0 I B B V B I A A S 5 u / ( ( c 3.+X",
"&X&X|.l.i...y B ..$.| / ..9.e.e.y.W U S 0 n h >.x "
};
