/* XPM */
static const char *micro_tcarlier[] = {
/* columns rows colors chars-per-pixel */
"25 19 199 2 ",
"   c #040404",
".  c #090400",
"X  c #0C0C0C",
"o  c #0E0905",
"O  c #100E0F",
"+  c #1C140D",
"@  c #17120E",
"#  c #0F1110",
"$  c #131313",
"%  c #1E1612",
"&  c #1C1A18",
"*  c #1C1914",
"=  c #221B14",
"-  c #241D19",
";  c #2C231B",
":  c #24201D",
">  c #312417",
",  c #2C2B2F",
"<  c #292627",
"1  c #322B23",
"2  c #382A21",
"3  c #342D2A",
"4  c #392E2C",
"5  c #3D332A",
"6  c #332F30",
"7  c #333135",
"8  c #3B3631",
"9  c #3C3C3E",
"0  c #45382F",
"q  c #453C33",
"w  c #4B443C",
"e  c #4F483E",
"r  c #45403A",
"t  c #504239",
"y  c #52493F",
"u  c #63483D",
"i  c #3D3C41",
"p  c #4E4441",
"a  c #4B4C4E",
"s  c #414342",
"d  c #504742",
"f  c #534B43",
"g  c #5E4E44",
"h  c #5D544D",
"j  c #4F4E52",
"k  c #57585A",
"l  c #565657",
"z  c #62544B",
"x  c #6A554B",
"c  c #66584F",
"v  c #695A4D",
"b  c #6A5343",
"n  c #71574C",
"m  c #78564A",
"M  c #755C4D",
"N  c #6B5C51",
"B  c #645953",
"V  c #7A5D57",
"C  c #6D6053",
"Z  c #6C655F",
"A  c #736255",
"S  c #7B6454",
"D  c #726458",
"F  c #796B5A",
"G  c #76685B",
"H  c #656464",
"J  c #69666B",
"K  c #6C6A6F",
"L  c #7B6C63",
"P  c #746C69",
"I  c #7A736B",
"U  c #726F76",
"Y  c #7C7471",
"T  c #7B767B",
"R  c #747275",
"E  c #825E52",
"W  c #806355",
"Q  c #8B6D61",
"!  c #847364",
"~  c #8C7665",
"^  c #83766A",
"/  c #8A7769",
"(  c #847A6C",
")  c #8C7A6B",
"_  c #937D6D",
"`  c #9B7B6D",
"'  c #917866",
"]  c #837A72",
"[  c #8B7D72",
"{  c #847876",
"}  c #957E70",
"|  c #8C816F",
" . c #95816E",
".. c #9B846F",
"X. c #8D847D",
"o. c #958272",
"O. c #9A8573",
"+. c #998876",
"@. c #978679",
"#. c #91887F",
"$. c #9B8A7C",
"%. c #A08977",
"&. c #AB8A79",
"*. c #B08C7C",
"=. c #AC937F",
"-. c #7F7D82",
";. c #878286",
":. c #8A8383",
">. c #848188",
",. c #958B84",
"<. c #9B8F84",
"1. c #938D8B",
"2. c #918682",
"3. c #9B928C",
"4. c #97948D",
"5. c #8C8B90",
"6. c #939397",
"7. c #9C9391",
"8. c #9C9D9E",
"9. c #92929A",
"0. c #A29182",
"q. c #A6968A",
"w. c #BB9181",
"e. c #A19899",
"r. c #A69A94",
"t. c #BF9F90",
"y. c #9EA09F",
"u. c #A4A19D",
"i. c #ABA39E",
"p. c #BCA395",
"a. c #B1A098",
"s. c #B7A897",
"d. c #A8A7A5",
"f. c #A6A8A7",
"g. c #ACA9A4",
"h. c #ADAFAE",
"j. c #A3A5A4",
"k. c #BAAFA3",
"l. c #B5ADA7",
"z. c #B4B3AF",
"x. c #BBB2AD",
"c. c #AFB1B0",
"v. c #B3B5B5",
"b. c #BDB7B3",
"n. c #BDBBB5",
"m. c #BBBDBC",
"M. c #CEA798",
"N. c #C1B2A5",
"B. c #C1B4AC",
"V. c #CEBFAA",
"C. c #C8BCA6",
"Z. c #C0B7B2",
"A. c #C4BAB4",
"S. c #C4BEBA",
"D. c #CBBDB2",
"F. c #D3BFB4",
"G. c #CDC2AC",
"H. c #C7C2B9",
"J. c #CCC3BB",
"K. c #D5CABD",
"L. c #D5C8BD",
"P. c #C9BBC8",
"I. c #C4C4C5",
"U. c #CDC6C3",
"Y. c #C5C6C8",
"T. c #CEC7CE",
"R. c #CDCBCB",
"E. c #CBCCC7",
"W. c #D3CAC3",
"Q. c #D9CCC3",
"!. c #D2CDCA",
"~. c #D6D2CA",
"^. c #DBD2CA",
"/. c #DCDACD",
"(. c #D5D4D4",
"). c #D7D9D8",
"_. c #DDDBDC",
"`. c #DAD6D5",
"'. c #E5D8CF",
"]. c #E0D7D0",
"[. c #E5DCD5",
"{. c #E2DCDB",
"}. c #E4E0DF",
"|. c #EBE3DC",
" X c #E8E1D5",
".X c #DBDEE3",
"XX c #E0DEE1",
"oX c #E3E2E3",
"OX c #EAE6E5",
"+X c #ECEBE6",
"@X c #E5E6E9",
"#X c #ECEBEA",
"$X c #E5E8ED",
"%X c #F5ECE1",
"&X c #FDF6EC",
"*X c #FFFBEF",
"=X c #F5F2EB",
"-X c #FFFFFD",
";X c #F3F5F2",
/* pixels */
"2 > ; = = = % = > D q . $ & $ $ q w r - @ - % - - ",
"c 5 1 d f h B z F G q + * - : & - - 8 8 1 3 3 3 1 ",
"A.3.z t c z g N A A z y e w q y w q w w f f d p f ",
"*XK.D / 0.0.o.S N A C N C C v N D N N N v c v v v ",
"r.0._ ' ` =...' @.@.) _ / ) @.) _ o.o. .o._ _ o._ ",
" XN.+.%.O.=... .D.&Xp.b M ! / o._ _ _ ~ ~ _ ) / ! ",
"^.B.[ 0.+.s. .+.<.N.} W S n x L [ ^ / / / ! L [ ,.",
"|.Z.J.%XK.s.K.@.( @.Q ` Q u g ] b.S.3.,.W.i.] [.-X",
"/.^.%X}.|.G.|.z.#./ &.w.` V x a.~.b.3.7.U.u.g.+X-X",
"H.^.^.U.&XC.[.!.~.o.t.M.E n N r.J.H.1.7.e.1.:.d.oX",
" XZ./.{.].G.'.|.=Xq.M *.m x ] 3.g.i.:.{ :.T H R T.",
"H.A.L.U.[.V.Q.U.+Xx.x p.' N Y b.n.z.1.T ;.T K >..X",
"r.x.k.g.|.$.J.4.I.S.Q.F.) L x.I.n.g.H R -.U J 6.P.",
"] ] ( P i.! 2.u.).#X+X[.B.x.S.v.E.oX8., i a 7 l 9.",
"p L | I P ^ i.;X#X#X@X`.!.W.R..X@X_.oXk   X X X j ",
"4 ,.F ,.,.N {.oXOX@X$X@XoX{._._.oXY.I.8.X # X   j ",
"z <.0 3.x.P OX{.oXoX@X@X5.6._.`.).m.h.v.s   X   j ",
"L.k.; X.Z Y oX_.(.OXXXT , 9 I.R.(.c.f.v.a   $ X 7 ",
"q.f + ; o 7.{.R.`._.K < 7 < J (.R.j.y.v.k X $ O 6 "
};
