/* XPM */
static const char *micro_mcreus[] = {
/* columns rows colors chars-per-pixel */
"25 19 199 2 ",
"   c #020200",
".  c #0D0503",
"X  c #0E0C0B",
"o  c #080A0B",
"O  c #1F0700",
"+  c #150C03",
"@  c #190E00",
"#  c #120E0A",
"$  c #180F0A",
"%  c #120701",
"&  c #14110E",
"*  c #1B140B",
"=  c #111904",
"-  c #120612",
";  c #150D12",
":  c #0B1415",
">  c #151311",
",  c #1B1413",
"<  c #1D1A14",
"1  c #1B1018",
"2  c #1D1C1A",
"3  c #230F04",
"4  c #2B1A0D",
"5  c #27170A",
"6  c #251C16",
"7  c #391809",
"8  c #382B0B",
"9  c #2B241A",
"0  c #3A2414",
"q  c #302D1E",
"w  c #302728",
"e  c #332B26",
"r  c #3F3229",
"t  c #3D3630",
"y  c #54280D",
"u  c #593C0A",
"i  c #4C2C18",
"p  c #542C12",
"a  c #5B3316",
"s  c #40322F",
"d  c #5D3D2B",
"f  c #56382D",
"g  c #483A31",
"h  c #783C20",
"j  c #594A0F",
"k  c #6B561D",
"l  c #7B6519",
"z  c #5F5124",
"x  c #41403E",
"c  c #52463D",
"v  c #7D4828",
"b  c #7C422C",
"n  c #6F4537",
"m  c #724A3E",
"M  c #7D672D",
"N  c #574C45",
"B  c #5B534A",
"V  c #644F4C",
"C  c #645A4F",
"Z  c #67584F",
"A  c #6A5E54",
"S  c #685D55",
"D  c #77624F",
"F  c #6C6255",
"G  c #6D645A",
"H  c #716357",
"J  c #74655A",
"K  c #786658",
"L  c #7A6B5C",
"P  c #74685A",
"I  c #7D705F",
"U  c #61616B",
"Y  c #756860",
"T  c #7C6D62",
"R  c #736769",
"E  c #7D7067",
"W  c #7A7875",
"Q  c #887413",
"!  c #87472E",
"~  c #9B4E30",
"^  c #9E5E38",
"/  c #9F603D",
"(  c #9C724C",
")  c #856550",
"_  c #8E7056",
"`  c #927057",
"'  c #946956",
"]  c #AC7654",
"[  c #806C61",
"{  c #837364",
"}  c #83746A",
"|  c #86796B",
" . c #8B796A",
".. c #8E7666",
"X. c #937E6B",
"o. c #997D68",
"O. c #877E77",
"+. c #867874",
"@. c #907C71",
"#. c #AB7467",
"$. c #B47C6B",
"%. c #938522",
"&. c #B29329",
"*. c #838277",
"=. c #8D8075",
"-. c #8C827B",
";. c #938272",
":. c #9A8572",
">. c #92847D",
",. c #93897E",
"<. c #9C897B",
"1. c #A6866A",
"2. c #A88B77",
"3. c #B98F77",
"4. c #CB8363",
"5. c #C0926E",
"6. c #8E8D85",
"7. c #9B8D83",
"8. c #928984",
"9. c #9B9286",
"0. c #979485",
"q. c #808990",
"w. c #A58880",
"e. c #A3948C",
"r. c #A39C8E",
"t. c #AC9C8F",
"y. c #A69D94",
"u. c #A19690",
"i. c #B59485",
"p. c #BDA28D",
"a. c #A3A19D",
"s. c #AEA69D",
"d. c #B3A393",
"f. c #B5A89D",
"g. c #9EA1A6",
"h. c #A3A6AB",
"j. c #A9A6A5",
"k. c #B5ACA4",
"l. c #BBB6AB",
"z. c #BEBCAF",
"x. c #BFB2A1",
"c. c #ADB1B4",
"v. c #B5B5B1",
"b. c #BBBBB3",
"n. c #B7B8BC",
"m. c #CF958A",
"M. c #DE9F8E",
"N. c #CAAB9C",
"B. c #E1A896",
"V. c #EAB193",
"C. c #DDB8A5",
"Z. c #C0BEB2",
"A. c #E1ABA1",
"S. c #E3BDAA",
"D. c #C4C2B4",
"F. c #C6C1BA",
"G. c #EDC0AD",
"H. c #F3CBB2",
"J. c #FFD0BC",
"K. c #EAC4B7",
"L. c #BDC1C2",
"P. c #CFCAC0",
"I. c #CACBCA",
"U. c #D4CCC9",
"Y. c #CED1CA",
"T. c #D7D3C7",
"R. c #D6D3CB",
"E. c #DAD1CB",
"W. c #CCD3D5",
"Q. c #C6D7DE",
"!. c #D3DADD",
"~. c #DFDEDA",
"^. c #F9DCCD",
"/. c #FFDAC2",
"(. c #E0DDD4",
"). c #E3DEDA",
"_. c #E4E2DD",
"`. c #E8E0DD",
"'. c #D4DEE7",
"]. c #DCE5EA",
"[. c #D7E2E9",
"{. c #DEEBF4",
"}. c #E4E5E1",
"|. c #EBEAE5",
" X c #EFEEE9",
".X c #E8E7E3",
"XX c #F3EFE8",
"oX c #F5F1EC",
"OX c #FBF8E9",
"+X c #E8EDF3",
"@X c #E7F1F7",
"#X c #ECF5FD",
"$X c #EFF8FD",
"%X c #E9F1F3",
"&X c #F3F5F2",
"*X c #F8F6F7",
"=X c #FBFAF6",
"-X c #F3FAFE",
";X c #FDFEFC",
/* pixels */
"A A F C Z A C B N G O.f.E.;XXX1.e.7.r.d.d.x.f.| 9.",
"J F F F H H G B b.;X;X;XoXU.k.| }  .T L I { | L ;.",
"K J J H H H Y C y.F.e.=.L [ L L T T L J P H S A F ",
"L L L J J J P G S F D d 0 r A { L } ,.s.l.P.R.*.a.",
",.} { { { T T T } L _ 3.' d i ) 9.E.=X;X;X*X;Xv.}.",
"v.8.}  . .{ } } } ..C./.V.4.^ ( D.R.;X;X;X;X=Xb.}.",
"W.v.=. ... .| +.W e.^.K.B.4./ 1.Z.(.;X;X;X;X;Xv._.",
"Q.!.e.X.X. .| O.} p.H.#.m.b v 5.P._.;X;X;X;X;Xb.|.",
"I.].L.=.:.;.=.-.@.A.J.B.M.h ~ ] s.`.;X;X;X;X;XF. X",
"n.@XW.,.:.;.>.>.*.N.S.#.#.p ! ] l.).;X;X=X;X;Xl..X",
"g.#X+Xu.:.<.,.8.6.i.2.#.$.a y N.T._.;X;X;X;X;Xz. X",
"h.#X+Xy.2.<.7.-.R +.c m n 4 r OXD.~.;X;X;X;X;Xz.oX",
"c.#X#Xk.:.<.e.c   O w.V 6 5 f >.r..X;X*X;X;X;Xb.oX",
"c.@X$Xs.<.t.-.9 # 7 G.^.o.a i   q |.;X;X;X*X;Xb.&X",
"c.$X$Xj.7.E e # , ; s 1.` 3 X : * t -.(.;X;X;XY.-X",
"h.#X#Xj.g % # > & * + o X + + ; * $ + 9 6.a.h.I.].",
"!.{.-XW . < > > = : > , . - ; o 1 , 2 * * w U %X'.",
"].{.#Xx # , X < - * 4 z %.j 8 8 @ * & < * N 6.&X].",
"[.[.q.2 , # > & 0 l k M &.u u Q j 5 # # X e 0.|.]."
};
