/* XPM */
static const char *micro_acasanov[] = {
/* columns rows colors chars-per-pixel */
"25 19 204 2 ",
"   c #30261C",
".  c #1B262C",
"X  c #352B2A",
"o  c #3A3638",
"O  c #312F2C",
"+  c #42332A",
"@  c #423735",
"#  c #423B39",
"$  c #523E36",
"%  c #4B413E",
"&  c #444037",
"*  c #66553D",
"=  c #614C37",
"-  c #323E54",
";  c #3A4D5E",
":  c #3B424C",
">  c #324A62",
",  c #3C546A",
"<  c #3D5872",
"1  c #2D4A6A",
"2  c #4B4443",
"3  c #564942",
"4  c #4D4E55",
"5  c #4E565D",
"6  c #5B5856",
"7  c #53544C",
"8  c #69564A",
"9  c #705A4D",
"0  c #665A51",
"q  c #5E615A",
"w  c #586049",
"e  c #696646",
"r  c #676457",
"t  c #6B6152",
"y  c #6B655C",
"u  c #786859",
"i  c #687459",
"p  c #7A7557",
"a  c #455A71",
"s  c #465B7A",
"d  c #4F5A69",
"f  c #516063",
"g  c #4D627A",
"h  c #486177",
"j  c #576B78",
"k  c #53767C",
"l  c #6E6C6D",
"z  c #686865",
"x  c #726F6C",
"c  c #796C63",
"v  c #6A756D",
"b  c #757469",
"n  c #7A746B",
"m  c #6C7576",
"M  c #7D7974",
"N  c #7D7B7B",
"B  c #737576",
"V  c #87695C",
"C  c #956E59",
"Z  c #94725E",
"A  c #877F5A",
"S  c #A0765E",
"D  c #806C63",
"F  c #867262",
"G  c #897567",
"H  c #947464",
"J  c #997966",
"K  c #7B897E",
"L  c #8E896A",
"P  c #88846E",
"I  c #84837E",
"U  c #8C867A",
"Y  c #8A8679",
"T  c #938779",
"R  c #97907E",
"E  c #AA8268",
"W  c #A58576",
"Q  c #A6917E",
"!  c #BF957F",
"~  c #AF8E6F",
"^  c #B9A860",
"/  c #D69E6D",
"(  c #4B6886",
")  c #536A82",
"_  c #5A6D83",
"`  c #526D8B",
"'  c #526784",
"]  c #57728B",
"[  c #557190",
"{  c #5B7998",
"}  c #667888",
"|  c #777E83",
" . c #897F89",
".. c #598797",
"X. c #6A808B",
"o. c #7C8584",
"O. c #789794",
"+. c #648B9A",
"@. c #5681A1",
"#. c #5697BF",
"$. c #7498A9",
"%. c #7094B8",
"&. c #6587A3",
"*. c #73A0B7",
"=. c #5CAAC1",
"-. c #64BFD2",
";. c #5AB7E0",
":. c #65BDE3",
">. c #59C6F3",
",. c #828484",
"<. c #888381",
"1. c #81878D",
"2. c #888C88",
"3. c #958C8C",
"4. c #968D85",
"5. c #89918D",
"6. c #94918B",
"7. c #9A988E",
"8. c #9C9684",
"9. c #858F90",
"0. c #869695",
"q. c #969A96",
"w. c #A49A86",
"e. c #A6978C",
"r. c #B59785",
"t. c #AA9E99",
"y. c #9EA39F",
"u. c #A7A89A",
"i. c #B7AC9B",
"p. c #AFAA8A",
"a. c #899AA5",
"s. c #9299A6",
"d. c #899DB6",
"f. c #8AA2A6",
"g. c #9AA4A3",
"h. c #9AABAA",
"j. c #9EA8A7",
"k. c #86A3B5",
"l. c #8DB3BE",
"z. c #93B2B8",
"x. c #A5A9A7",
"c. c #B5ACA2",
"v. c #AEB0AB",
"b. c #B6B3AA",
"n. c #A4ACB5",
"m. c #A6A8B8",
"M. c #ABB2B4",
"N. c #ABB5B8",
"B. c #B3BABD",
"V. c #BABCBF",
"C. c #B8B9B4",
"Z. c #C19781",
"A. c #CBBE92",
"S. c #C3B4A6",
"D. c #C4BBB6",
"F. c #D3C1AD",
"G. c #D5CBB9",
"H. c #DAD2BF",
"J. c #EFD4B9",
"K. c #9FB5C3",
"L. c #ABB9C2",
"P. c #A0B9C0",
"I. c #B3BBC3",
"U. c #B8BBC9",
"Y. c #B5BFDA",
"T. c #C1BFCD",
"R. c #BAC3CA",
"E. c #BDCCD3",
"W. c #BDCCDC",
"Q. c #B7C6D6",
"!. c #A3C4D3",
"~. c #BED0E4",
"^. c #BED8FD",
"/. c #CACDCF",
"(. c #D9D5C8",
"). c #C4CCD3",
"_. c #C4CFDB",
"`. c #CBCCD3",
"'. c #C5D2DA",
"]. c #CCD4DA",
"[. c #DFDAD6",
"{. c #E0CDC6",
"}. c #F0DECA",
"|. c #E8E4D6",
" X c #F2E5D9",
".X c #FFF6DD",
"XX c #C8CFE2",
"oX c #C5D4E3",
"OX c #CBDAE5",
"+X c #CDDDEB",
"@X c #C7D8E4",
"#X c #D1DEEC",
"$X c #D1DEE4",
"%X c #CAD8F5",
"&X c #CFE1EE",
"*X c #D4E3ED",
"=X c #D8E5EE",
"-X c #D6E3F4",
";X c #DDEAF3",
":X c #E7EBE5",
">X c #EFF0E0",
",X c #F7F4E6",
"<X c #FFFEED",
"1X c #FAFBF8",
/* pixels */
"+X].).B.N.g.v.b.u.2.2.5.o.9.| m B | 7.4.5.x.x.x.L.",
"@XoXOX+XoXOX'.`.|.|.(.|.[.C.B.L.I.Q.`./.W._.].#X=X",
"@XOXoXW.~.W.W.E.>X,X X<X<X:X].+X*X&X$X$X&X*XOX&X+X",
"M.V.).).'.OX'.E.,X1X:X1X/.B.].=X-X@X+X+X+X#X#X+X-X",
"0 0 I 2.<.B y.x.b.C.B.,.6 2 z N.).R._.Q.I.B.).).n.",
"D c u y c n z N M x O $ H J 3 o y I 9.o.M n N z 6 ",
"S.i.H.w.w.D.3. .i.U   J ! Z.W % # 7.1.1.6.Y I b 2 ",
"p.i.p.p L R 2.m.}.c.& u V Z F 3 r (.g.j.i.R u.G.w.",
"u e * L A e s.`..XG.9 S ~ W ~ $ Y 1XI.s.P i p ~ p.",
"G t p Y G 8.M.T.S.Q + V W Z J o = {./.U.w.i w i L ",
"y z b z l t 8.V.t.u X 3 J H 9 . * e.m.<.F u r Y u.",
"M m 7 x  .r.J. Xt.8 # % C Z # O 9 c.^.s.l l m B o.",
"I v q 3.3.e.i.(.c.9 X % E Z O @ J F.%Xn.q.| 5 f ,.",
",.K 5.4.v O.0.l.s.8 + 4 T H o @ e.C.k.f.2.9.9.z ,.",
"K N.x r.6.+.k.%.} 4 o ; m N : 2 &.$.*.$.m j } h.q.",
"0.a.l E 7.$.f.( ' a 5 g h j , 6 ` ) f.j.i.m f h.h.",
"L.0.n.R.R.E.d.( a a h _ j _ ) [ @.s D.[./ O.k 7.P.",
"s.U.%XU.XX;Xd.s , < ` ] _ ] ) ` _ 1 z.!.P -.:.} z.",
"^ A.D.m.Y.K.` ( > < { { [ { ( [ ( - ..;.=.>.>.#.X."
};
