/* XPM */
static const char *micro_rayderha[] = {
/* columns rows colors chars-per-pixel */
"25 19 201 2 ",
"   c #00010D",
".  c #040112",
"X  c #0A151D",
"o  c #11161C",
"O  c #121A2D",
"+  c #192536",
"@  c #1C293E",
"#  c #182536",
"$  c #352A24",
"%  c #222635",
"&  c #22303B",
"*  c #383633",
"=  c #473E37",
"-  c #4B463D",
";  c #5B493F",
":  c #4F5D3A",
">  c #67493C",
",  c #092F44",
"<  c #1E2E47",
"1  c #222E42",
"2  c #242E49",
"3  c #243146",
"4  c #2D3245",
"5  c #25334B",
"6  c #29344D",
"7  c #303342",
"8  c #2C3A5B",
"9  c #2E3857",
"0  c #4A3D44",
"q  c #3F4543",
"w  c #3F535C",
"e  c #3F5177",
"r  c #4A4B4C",
"t  c #574A46",
"y  c #5C534A",
"u  c #5B5642",
"i  c #4D4E50",
"p  c #524552",
"a  c #4A5558",
"s  c #58585A",
"d  c #664F41",
"f  c #675D48",
"g  c #7B5A48",
"h  c #675A56",
"j  c #745C50",
"k  c #5E6247",
"l  c #676255",
"z  c #65675A",
"x  c #726A4F",
"c  c #404469",
"v  c #4B5667",
"b  c #615D6E",
"n  c #5C676A",
"m  c #5F7068",
"M  c #5E727D",
"N  c #51687A",
"B  c #636262",
"V  c #6D6C63",
"C  c #67686B",
"Z  c #736D66",
"A  c #6E7264",
"S  c #6E716E",
"D  c #75736C",
"F  c #7A7968",
"G  c #676B75",
"H  c #6F7A7A",
"J  c #677577",
"K  c #737574",
"L  c #76797C",
"P  c #797B77",
"I  c #856554",
"U  c #847C5E",
"Y  c #946D5A",
"T  c #8B6F61",
"R  c #887668",
"E  c #9B7966",
"W  c #877B77",
"Q  c #A07564",
"!  c #73815E",
"~  c #7D8376",
"^  c #71917C",
"/  c #83826D",
"(  c #8C846F",
")  c #83837E",
"_  c #8A8678",
"`  c #928D7E",
"'  c #928A73",
"]  c #95907A",
"[  c #A78C6F",
"{  c #B98065",
"}  c #D6AD6F",
"|  c #4B698F",
" . c #616D87",
".. c #6B7C88",
"X. c #747E80",
"o. c #7B7F80",
"O. c #827882",
"+. c #58808C",
"@. c #76878E",
"#. c #7D868C",
"$. c #798382",
"%. c #7D8B9C",
"&. c #669291",
"*. c #688593",
"=. c #4D8AA7",
"-. c #6897A5",
";. c #7A98B0",
":. c #56A4B1",
">. c #65AFBA",
",. c #5AAFD8",
"<. c #64AACE",
"1. c #5FC9FB",
"2. c #818487",
"3. c #8E8E83",
"4. c #81868B",
"5. c #878C8A",
"6. c #948D86",
"7. c #9E9583",
"8. c #93928C",
"9. c #999389",
"0. c #948E98",
"q. c #8D9698",
"w. c #969C9C",
"e. c #98949C",
"r. c #878F94",
"t. c #A3998A",
"y. c #A3948C",
"u. c #B39C8D",
"i. c #AB9D99",
"p. c #B19E90",
"a. c #8EAA9E",
"s. c #BDB380",
"d. c #A6AA9A",
"f. c #BAB59F",
"g. c #B6AD9C",
"h. c #8B96AB",
"j. c #949DA7",
"k. c #9B9EA2",
"l. c #929FAF",
"z. c #9D9EB0",
"x. c #A69DA0",
"c. c #8DA1A0",
"v. c #9EA8AC",
"b. c #98A5A8",
"n. c #98A8B1",
"m. c #91B3B4",
"M. c #8DA9B7",
"N. c #ABABAB",
"B. c #A6A7A7",
"V. c #B7B2A7",
"C. c #A9ADB9",
"Z. c #B1B9BE",
"A. c #B1B6B8",
"S. c #B2AFB4",
"D. c #C1AEA7",
"F. c #C2BCAC",
"G. c #C9B3A8",
"H. c #C5B3B1",
"J. c #CAC3AA",
"K. c #CDCBB8",
"L. c #DBCEBF",
"P. c #D6C5A9",
"I. c #EED9BE",
"U. c #9CB0CB",
"Y. c #ADBDCC",
"T. c #AEB8C1",
"R. c #BABCD8",
"E. c #AFB9CB",
"W. c #B5C1C6",
"Q. c #BBC5C5",
"!. c #B1C3D3",
"~. c #BDC7D3",
"^. c #BCCDD9",
"/. c #BFD1DF",
"(. c #BDCEE2",
"). c #C6C7C7",
"_. c #C2CEDA",
"`. c #C7CED4",
"'. c #CBD5DB",
"]. c #C7D4DD",
"[. c #D6D7DA",
"{. c #CED6C9",
"}. c #F8E8D5",
"|. c #C4D5E6",
" X c #CBDAE4",
".X c #C4D6EB",
"XX c #CCDCEB",
"oX c #CAD6E8",
"OX c #D3DDEB",
"+X c #D1DBE5",
"@X c #CEDDF2",
"#X c #D2DFF0",
"$X c #D5E2EC",
"%X c #D9E1EE",
"&X c #CFE2F1",
"*X c #DDEBF7",
"=X c #DAE9F9",
"-X c #E7EBE8",
";X c #F4EDE3",
":X c #FAF3E6",
">X c #FAFBF4",
/* pixels */
"_.W.v.j.4.8.9.) m A z s q.K q a a D W B K ~ #.%...",
" X X XoX~.).W.E.{.K.F.N.A.5.2.X.@.w.k.k.v.A.Z.!.^.",
" X X/.(.|.|./..X-X>X;X-X'.'.+XXXXX$X%XXX=X$X*X=X*X",
"`.'.]._.|.|.|.|.].'.[.$XXX&XXX.XXX|..X@XXXXXXX&XXX",
"h P N.w.q.C.T.W.Y. Xb.G #.Y.XX#XOX$XXXOXOX%X+X$X+X",
"h t y l y s K K J C * $ $ r 4.e.8.j.n.4.2.k.b.K S ",
"7.V.t.( t.x.s 8.6.- ; I T - - F W o.n S V h r = t ",
"J.L.' ' i.S.O.).F.= j E I y * V.D.8.q.d._ 6.N.y h ",
"f F A U - 3.k.>X;XW > E I g W >X>X~.%.7.U / P.J.g.",
"j f / R W B.Q.[.}.L.E Y Q Y V.:X:X[.A.` k : x ! ] ",
"y D z Z h L N.B.6.W j > d E y.` H.C.e.9.l u / f.` ",
"C s l S R H.}.S.s b i.t t y.O.p V.Y.r.s B B L 3.C ",
"z i Z 3.u.G.I.).X.$.u.g g [ _ V K..XZ.) n a v H n ",
"P L ) A W r.a.h. .v 0 h h h n G z.U.h.q.#.L r S L ",
"c.@.D p.M -.+.8 9 8 1 + & % 8 c e | ;.H a $.5.4.$.",
"b.m g { &.-.4 % 6 5 4 1 1 4 5 6 7 2 N d.z w b.c...",
"w.q.B.Z.!.n.X O 6 6 3 1 3 5 6 9 @ o p } ^ N 0.b.J ",
"0.oXR.R.=Xn.  O 5 3 1 1 1 3 3 5 + X < ~ >.<...m.-.",
"s.F.B.C.Y.v   O @ @ @ + + @ @ @ # . , :.,.1.=.*.M."
};
