/* XPM */
static const char *micro_locagnio[] = {
/* columns rows colors chars-per-pixel */
"25 19 207 2 ",
"   c #000201",
".  c #0E0302",
"X  c #060807",
"o  c #0C0B07",
"O  c #0C050C",
"+  c #020A09",
"@  c #0D0B0C",
"#  c #100D08",
"$  c #00100D",
"%  c #14120E",
"&  c #19140E",
"*  c #130D11",
"=  c #1D1612",
"-  c #1A1913",
";  c #151611",
":  c #290709",
">  c #3B090C",
",  c #29130C",
"<  c #251C1A",
"1  c #291C1D",
"2  c #271A14",
"3  c #3B1616",
"4  c #2B231D",
"5  c #26221A",
"6  c #362B1D",
"7  c #332816",
"8  c #272629",
"9  c #332B22",
"0  c #332D2A",
"q  c #3D2F22",
"w  c #2F3028",
"e  c #3D332B",
"r  c #3A362C",
"t  c #332F30",
"y  c #3B3631",
"u  c #373435",
"i  c #450A0B",
"p  c #5A0E0E",
"a  c #4D0D12",
"s  c #5D0E14",
"d  c #4D1812",
"f  c #571318",
"g  c #6B0F19",
"h  c #660F15",
"j  c #790E19",
"k  c #6F121A",
"l  c #65141B",
"z  c #73131C",
"x  c #7C131D",
"c  c #651521",
"v  c #641B22",
"b  c #751621",
"n  c #7E1622",
"m  c #4D3E2E",
"M  c #45362C",
"N  c #55322E",
"B  c #463E36",
"V  c #493C33",
"C  c #4A3F39",
"Z  c #443834",
"A  c #543C32",
"S  c #6F302F",
"D  c #51402C",
"F  c #4D4133",
"G  c #474038",
"H  c #4C413B",
"J  c #464533",
"K  c #51483D",
"L  c #584839",
"P  c #48484B",
"I  c #5B4D44",
"U  c #574E47",
"Y  c #5F534B",
"T  c #585D58",
"R  c #7A4B43",
"E  c #635347",
"W  c #63544B",
"Q  c #645C4E",
"!  c #6B5B4D",
"~  c #6B5847",
"^  c #7A574B",
"/  c #705C4B",
"(  c #6E5C52",
")  c #635957",
"_  c #715C51",
"`  c #765D54",
"'  c #72614D",
"]  c #6F6259",
"[  c #756556",
"{  c #75635A",
"}  c #776A5B",
"|  c #7B6A5B",
" . c #7C6856",
".. c #675C62",
"X. c #666364",
"o. c #686367",
"O. c #756B67",
"+. c #777464",
"@. c #797269",
"#. c #797567",
"$. c #7C6E72",
"%. c #716C70",
"&. c #7D7575",
"*. c #797779",
"=. c #81141C",
"-. c #8A161F",
";. c #8E0F22",
":. c #841B25",
">. c #8A1B24",
",. c #821222",
"<. c #961C29",
"1. c #921C24",
"2. c #8B2125",
"3. c #93222B",
"4. c #9A222D",
"5. c #932933",
"6. c #94504D",
"7. c #895F51",
"8. c #905451",
"9. c #8B755E",
"0. c #876C57",
"q. c #856A68",
"w. c #857462",
"e. c #8A7664",
"r. c #8D7965",
"t. c #8B766B",
"y. c #8B7B6C",
"u. c #837A6A",
"i. c #917D6A",
"p. c #917B63",
"a. c #8A7B73",
"s. c #8C7A78",
"d. c #957D72",
"f. c #987E79",
"g. c #A37E77",
"h. c #75817F",
"j. c #8C806A",
"k. c #9B826C",
"l. c #83827E",
"z. c #8C827C",
"x. c #888B78",
"c. c #958576",
"v. c #988A79",
"b. c #A78F77",
"n. c #A48C7A",
"m. c #A58B79",
"M. c #937D80",
"N. c #8A8A84",
"B. c #8D8D8D",
"V. c #9B8683",
"C. c #968C83",
"Z. c #9B8E89",
"A. c #989486",
"S. c #929290",
"D. c #BC8B87",
"F. c #A79787",
"G. c #A5948C",
"H. c #A99587",
"J. c #A49E95",
"K. c #A69D9A",
"L. c #A89E9C",
"P. c #B69991",
"I. c #AAA49B",
"U. c #ACA797",
"Y. c #B9A699",
"T. c #B8ACA6",
"R. c #BEB3A4",
"E. c #B9B8AA",
"W. c #BCB3B6",
"Q. c #C3948C",
"!. c #CC9C90",
"~. c #C7B19C",
"^. c #C1A9A5",
"/. c #C4B5A2",
"(. c #C3B4AB",
"). c #C5BEAC",
"_. c #C4BCB2",
"`. c #C8BDBA",
"'. c #C4BAB5",
"]. c #C5C1A8",
"[. c #CBC6BC",
"{. c #CBC7B9",
"}. c #D1CABE",
"|. c #D6C9BB",
" X c #B8BBC4",
".X c #CACBC2",
"XX c #CDC2C0",
"oX c #D6CAC1",
"OX c #DBCFC6",
"+X c #D2CAC8",
"@X c #D8D3C5",
"#X c #DCD3CB",
"$X c #C7C5D0",
"%X c #DBD5D1",
"&X c #E2D8CF",
"*X c #E5DCD3",
"=X c #E7DFDC",
"-X c #E4D4D0",
";X c #EAE2D6",
":X c #F1E6D4",
">X c #F7F2DF",
",X c #E3E2E0",
"<X c #F4E8E2",
"1X c #FCF2EB",
"2X c gray97",
"3X c #FFFDFD",
"4X c #FFFDF4",
/* pixels */
"6 , 4 5 = < = 2 7 Q r   o ; % o 9 r y - & = & = = ",
"W C 4 H U Y Y W { ` e < < 1 1 1 4 < r y 0 0 0 0 0 ",
").A.I F E Y I W ! W Y K G B B H H M C B C H H C H ",
"3X`.[ e.v.n.r.' ~ ! / ! ! [ [ E ( _ _ ! ! ! E ( ~ ",
"v.j.i.9.0.m.d.t.c.c.e.i.w.L [ y.i.r.i.i.r.i.r.e.r.",
"<X(.y.e.k.b.p.9._.4X_.{ V 6 4 Q t.w.w.9. .w.e.| [ ",
"{.U.y.F.c.F.d.y.a.Z.t._ P.Y.f.M ] a.| | y.} ! c.G.",
"<XE.@X1XoXR.|.c.u.u.D i.~.Y.y.m K.`.z.C.#XJ.@.*X3X",
"{.OX;X%X:X/.=XE.A.+.F g.Q E V M Y.oXz.S.T.V.L.,X2X",
"{.oXOX.X>X/.<X}.*X#.q g.D.t.K W Y.[.N.S.N.l.X.B.+X",
"&XT.&X#X@X).-X;X1XI.6 U.Q.` A f.(.I.l.$.$.O.T o.W.",
"(._.}.XX*XR.%XE.=X_.F ].b./ A z..X`.M.&.%...) *.$X",
"Z.I.U.K.-Xu.'.x.[.U.m 6.!.^ L M V.J.T T %.X.P h. X",
"O.O.+.) G.} &.w.H.8.5.4.7.i.^ v f N 5 ; t t 8 u *.",
"y q.#.@.{ +.s.6.4.<.<.:.p S f i l n b 3   + O . B ",
"w d.! N.C.J q.5.>.2.3.:.;.z k ,.j x z c : + $   P ",
"W n.9 x.^.4 R >.z 4.1.>.:.-.x x x c f a , X O   P ",
"{.H.4 #.W # d x l 1.-.n b =.z z h a > i , o @ X 8 ",
"a.e . & . - S j s >.=.z g x k g a > : i 3 @ * @ 0 "
};
