/* XPM */
static const char *micro_lolefevr[] = {
/* columns rows colors chars-per-pixel */
"25 19 192 2 ",
"   c #090000",
".  c #0D0D05",
"X  c #170D04",
"o  c #272C2F",
"O  c #462106",
"+  c #5A2611",
"@  c #59331C",
"#  c #553013",
"$  c #683218",
"%  c #4E382D",
"&  c #523726",
"*  c #483C36",
"=  c #583C31",
"-  c #623C2F",
";  c #78441F",
":  c #5B402D",
">  c #5A4132",
",  c #60412F",
"<  c #744224",
"1  c #7A4525",
"2  c #7C4E36",
"3  c #73533E",
"4  c #4A4D4B",
"5  c #534C46",
"6  c #5C5548",
"7  c #5F5B58",
"8  c #5E5953",
"9  c #665A4D",
"0  c #61544C",
"q  c #785749",
"w  c #655C54",
"e  c #695D55",
"r  c #6A5F59",
"t  c #625A58",
"y  c #6B6256",
"u  c #6C625A",
"i  c #71655C",
"p  c #75695D",
"a  c #7A6C5D",
"s  c #5C6262",
"d  c #6B6867",
"f  c #716660",
"g  c #756B62",
"h  c #7B6C62",
"j  c #776C69",
"k  c #7C7264",
"l  c #7D766C",
"z  c #6B6C70",
"x  c #7F7B70",
"c  c #865C39",
"v  c #905E39",
"b  c #8B5747",
"n  c #8B624D",
"m  c #82624D",
"M  c #956847",
"N  c #9D664A",
"B  c #85685D",
"V  c #996B58",
"C  c #9F725D",
"Z  c #A36E4C",
"A  c #A77859",
"S  c #816E60",
"D  c #8E6E61",
"F  c #837265",
"G  c #83756C",
"H  c #8A7B6E",
"J  c #857969",
"K  c #997360",
"L  c #8B7B72",
"P  c #887F7D",
"I  c #A26B64",
"U  c #A87D6B",
"Y  c #B0835C",
"T  c #9D8A6C",
"R  c #8E837D",
"E  c #868279",
"W  c #938576",
"Q  c #91857D",
"!  c #93887E",
"~  c #A98C64",
"^  c #B28969",
"/  c #A58077",
"(  c #AE8776",
")  c #A78979",
"_  c #B28A7A",
"`  c #B38379",
"'  c #A7977E",
"]  c #B79F7D",
"[  c #C7957C",
"{  c #717B85",
"}  c #7A858B",
"|  c #888683",
" . c #978E89",
".. c #988A83",
"X. c #989085",
"o. c #94908F",
"O. c #888B90",
"+. c #8C9194",
"@. c #9C9490",
"#. c #94999A",
"$. c #AF8F84",
"%. c #A88E8D",
"&. c #B58F83",
"*. c #AC9984",
"=. c #A3948D",
"-. c #A99586",
";. c #B49C86",
":. c #BB9E83",
">. c #B39E8A",
",. c #B9978B",
"<. c #A39592",
"1. c #A09895",
"2. c #AC9F97",
"3. c #AC9F99",
"4. c #A79D9B",
"5. c #B7A08E",
"6. c #BCA38B",
"7. c #BDA380",
"8. c #ABA19E",
"9. c #A3A69D",
"0. c #B3A193",
"q. c #B9A394",
"w. c #B5A49C",
"e. c #9E9FA1",
"r. c #9DA2A5",
"t. c #ADA4A2",
"y. c #A1ABAE",
"u. c #ADAAAC",
"i. c #A6A7A5",
"p. c #B1A6A3",
"a. c #B4AAA6",
"s. c #B2AEAC",
"d. c #BBB3AE",
"f. c #BEB9A5",
"g. c #AFAEB3",
"h. c #A8B5BC",
"j. c #B8B7B7",
"k. c #C18D80",
"l. c #D1AD93",
"z. c #C7B29E",
"x. c #CABAAD",
"c. c #C3BFBB",
"v. c #C0B2B2",
"b. c #CEC7BD",
"n. c #C8C5B7",
"m. c #D3CBBD",
"M. c #DDD0BF",
"N. c #ACBFC6",
"B. c #C1BFC2",
"V. c #B1C0C7",
"C. c #BAC4CA",
"Z. c #BECCD9",
"A. c #BCC8D6",
"S. c #CFCFC7",
"D. c #C3C9CC",
"F. c #D2CDC1",
"G. c #D5CDC5",
"H. c #D5D3C4",
"J. c #D8D6C7",
"K. c #D5D4CA",
"L. c #D8D9CC",
"P. c #DDD4CD",
"I. c #C3CDD5",
"U. c #C0CCDA",
"Y. c #CBD3DC",
"T. c #C5D2DA",
"R. c #DFDCD7",
"E. c #DCDDD8",
"W. c #E3DBD5",
"Q. c #E7E3DD",
"!. c #C9D7E3",
"~. c #D9DDE0",
"^. c #D7E5EC",
"/. c #DBE2E6",
"(. c #D8EFFD",
"). c #D4E6F0",
"_. c #DDF1FC",
"`. c #EFE4E8",
"'. c #E6E8E6",
"]. c #F1E9E7",
"[. c #EDF1EE",
"{. c #F2F2ED",
"}. c #F2FBEA",
"|. c #E1ECF4",
" X c #EAEEFA",
".X c #EDF2F3",
"XX c #EDF5FA",
"oX c #E5F0F4",
"OX c #FCFCF5",
"+X c #F7FBFC",
"@X c #FDFEFD",
"#X c #F8F7F3",
/* pixels */
"a p y u r 9 9 t e 5 j @X@X@X].K.a.R y r y e i u u ",
"l p a e e w 0 e 8 8 7 d.4.Q g y y e i g p u e w y ",
"#.P h a u u i 9 y e 8 4 * 5 g i i p i y k ..d.F.R.",
"y.r.| k k f i i i i * .   X * j g u Q X.b.@X#X@X@X",
"d h.y.R F h f h h 6 * = > & , q x c.@XH.F.@X+X@X@X",
"d } N.u.L J l h k 6 $.k.V N Z c Q.@X@XL.L.@X@X@X@X",
"S.s h.C.e.G F G a S ,.` N N v A OX@X@XL.K.@X+X@X@X",
"@Xo.O.!.V.P H H B / B > n @ @ C {.@X@XJ.F.@X@XOX@X",
"@XD.{ !.I.@.L E H &.A 2 V + ; Y @X+X@XF.K.@X#XOX@X",
"OX[.} A.^.u.G R L ,.U b I $ < l.OXOX@XP.W.+X@X@X@X",
"@X@X+.Z.).j.L W L -.m - = O # G.@X#X@Xm.H.@X@X@X@X",
"@X@X#.Z.(.C.R W ! ' _ ` q $ n .X@X@X@Xn.J.@X{.@X@X",
"@X@Xr.Z.(.I.R ! Q -.( D : $ [ @XOX@X@XK.W.@XOX@X@X",
"@X@Xr.U._.D.R  .9.F _ U 3 1 ^ }.@X@X@XF.M.@X@XXX[.",
"@X@Xr.I.oXc...@.v.%.&.( V c M z.`.OX.Xd.b.@X'.~./.",
"Q.E.+.h.i.Q ..@.u.a.) K b c ~ :.] f.Y.!.T. X'.s.4 ",
"T.I.j.g.=. ...<.t.a.8.=.-.*.;.6.7.;.q.x.m.'.XXi.o ",
"|.^.B.j.2.8.=.<.8.p.p.3.0.>.;.6.:.l.q.*.z.{.+X| 5 ",
"^.Y.s.u.4.d.3.<.4.t.p.w.w.0.>.;.>.q.5.T ' S.|.z % "
};
