/* XPM */
static const char *micro_tcassu[] = {
/* columns rows colors chars-per-pixel */
"25 19 204 2 ",
"   c #060602",
".  c #0B0502",
"X  c #0A0907",
"o  c #0C0C0B",
"O  c #170E07",
"+  c #180F06",
"@  c #110D0D",
"#  c #131007",
"$  c #12110F",
"%  c #1B120C",
"&  c #0F0F11",
"*  c #130F10",
"=  c #1C0D10",
"-  c #0E1211",
";  c #141213",
":  c #191516",
">  c #1A1A12",
",  c #1B1718",
"<  c #1D1A1A",
"1  c #151D1F",
"2  c #221C14",
"3  c #20171A",
"4  c #241D1B",
"5  c #221310",
"6  c #242017",
"7  c #2B221B",
"8  c #32251D",
"9  c #3D2618",
"0  c #392919",
"q  c #362617",
"w  c #1A1E22",
"e  c #272422",
"r  c #2C2622",
"t  c #2D2925",
"y  c #2E2A29",
"u  c #362E25",
"i  c #342E2B",
"p  c #382F2A",
"a  c #3B2F23",
"s  c #37322F",
"d  c #3E352E",
"f  c #373330",
"g  c #3B3231",
"h  c #3D3835",
"j  c #43382B",
"k  c #423429",
"l  c #453C35",
"z  c #413D3B",
"x  c #503E3E",
"c  c #553F34",
"v  c #4C4135",
"b  c #4C433B",
"n  c #554534",
"m  c #52453B",
"M  c #5A4B3E",
"N  c #664D3D",
"B  c #4A4644",
"V  c #504740",
"C  c #554941",
"Z  c #594B42",
"A  c #5C5246",
"S  c #5E544B",
"D  c #5F5459",
"F  c #674F43",
"G  c #665542",
"H  c #6A5245",
"J  c #60554F",
"K  c #62594E",
"L  c #695A4D",
"P  c #68564C",
"I  c #705F4D",
"U  c #79594A",
"Y  c #6D5F54",
"T  c #615C5D",
"R  c #665954",
"E  c #6A635A",
"W  c #756254",
"Q  c #7A6453",
"!  c #776758",
"~  c #7C655C",
"^  c #766A5B",
"/  c #7C6A5C",
"(  c #7E6E55",
")  c #666162",
"_  c #6B6464",
"`  c #686866",
"'  c #6E6168",
"]  c #6E6D6B",
"[  c #7C6A61",
"{  c #706F6E",
"}  c #7F7166",
"|  c #7F706B",
" . c #797576",
".. c #7B7875",
"X. c #826D5D",
"o. c #926A5E",
"O. c #83725F",
"+. c #89735E",
"@. c #836E62",
"#. c #857463",
"$. c #84776D",
"%. c #88776D",
"&. c #84796C",
"*. c #8D7B6C",
"=. c #8B7563",
"-. c #997167",
";. c #937C6A",
":. c #897B71",
">. c #887D7A",
",. c #867774",
"<. c #938467",
"1. c #84817F",
"2. c #8A827D",
"3. c #928373",
"4. c #998674",
"5. c #90857F",
"6. c #93897F",
"7. c #9C8C7E",
"8. c #978975",
"9. c #9D907D",
"0. c #A1896F",
"q. c #A08671",
"w. c #A48B73",
"e. c #AB8D7A",
"r. c #A6927A",
"t. c #AD947B",
"y. c #AF9476",
"u. c #B1967D",
"i. c #B49A7D",
"p. c #B09675",
"a. c #8C8482",
"s. c #8E8A87",
"d. c #8F8E8C",
"f. c #938A84",
"g. c #988C86",
"h. c #9F9281",
"j. c #97928F",
"k. c #9D948D",
"l. c #9F998D",
"z. c #959186",
"x. c #9A9391",
"c. c #9F9A96",
"v. c #A59683",
"b. c #AB9782",
"n. c #AD968D",
"m. c #AB9B8D",
"M. c #A59989",
"N. c #B39B84",
"B. c #B39788",
"V. c #AA9D97",
"C. c #BCA184",
"Z. c #BAA38D",
"A. c #A8A396",
"S. c #B7AA97",
"D. c #B2A89F",
"F. c #B8A696",
"G. c #ADAAA4",
"H. c #B7AEA5",
"J. c #B2ADAA",
"K. c #B6ABA8",
"L. c #B6B2AA",
"P. c #BBB4AB",
"I. c #BCB3A2",
"U. c #BCB6B5",
"Y. c #C69C8C",
"T. c #C1A693",
"R. c #D6AA9D",
"E. c #CCB39D",
"W. c #C6A989",
"Q. c #C3B7A7",
"!. c #CABCAB",
"~. c #C2BAAD",
"^. c #DDB9A3",
"/. c #C1B6B0",
"(. c #C5BDB4",
"). c #CEBAB1",
"_. c #CFC1A7",
"`. c #CDC0AF",
"'. c #D3C4A9",
"]. c #C5C1BA",
"[. c #CBC4BD",
"{. c #C9C1B6",
"}. c #D2C5BC",
"|. c #DCCCBD",
" X c #D3C9B7",
".X c #F0CCB4",
"XX c #C3B9C1",
"oX c #CCCBC3",
"OX c #D1CDC4",
"+X c #D9CEC8",
"@X c #DBD2C3",
"#X c #DDD4CD",
"$X c #D7D4CD",
"%X c #DAD6D7",
"&X c #DCDBD2",
"*X c #E5DAD4",
"=X c #E8DCD9",
"-X c #EDE0CF",
";X c #E5E1D8",
":X c #F6E5DB",
">X c #ECE7E2",
",X c #F3ECE4",
"<X c #FFF6EF",
"1X c #FFFDFB",
/* pixels */
"j u u r 4 4 4 7 9 #.M . % 6 > # l V C 7 7 7 2 t r ",
"E m k Z Y ! ! W *.:.b 4 e e t y p 7 v b d l b z l ",
"`.v.I G Q W W [ ( O.^ K S A C Z A C C Z A K S J K ",
"1X*X%.4.b.Z.r.#.+.O.*.@./ @.X.=.#.#.#.#.X.X.! / X.",
"I.S.b.t.t.T.B.n.N.N.t.N.N.C.i.y.N.N.u.N.t.u.N.N.u.",
":X|.Z.u.C.W.i.p.+X<X).F H H 7.m.r.t.t.t.t.t.w.0.q.",
"-X!.v.F.N.E.N.N.M.Q.4.w.q.Q n &.7.7.4.*.8.3.*.m.F.",
",X[.(.,X@X!.@Xh.#.=.e..X^.e.c | L.P.2.5.#XD.$.#X1X",
" X@X;X&X=X'.=XG.2.^ ;.;.~ P L m.].G.>.f./.k...&X1X",
"(.{.oX].>X'.*XoXOX%.B.R.-.X.P 6.U.J.2.a.a.1.) d.%X",
"OXH.[.OX$X_.}.&X>XM.U Y.o.N Z f.x.s. .{  ._ T _ J.",
"P./.~.L.*X X}.L.$X(.n N X.q v c.J.J.1.` { ) D ' U.",
"l.V.A.z.#X9.H.z.U.L.v G 0 a g e x.j.T E ] ) D ,.XX",
"$.$.8.R l.&.} 6.A._ 5 ~ n.L % o i z t < f g g g  .",
"b :.b._ ^ 7.:.,.z 4 3 = x 8 . - ; < $ X o @ @ @ z ",
"8 g.<.>.A.Y [ l % < w 1 X   > : ; < , & o o o   B ",
"M m.A #.|.m h w ; 4 < < ; ; : : ; ; ; o o o o . B ",
"|. Xj 3.:.% < ; ; < , : * : < < o o o o @ @ @ o i ",
"m.A + 2 O 2 4 ; ; < : : @ ; < < o o o o ; ; ; @ s "
};
