/* XPM */
static const char *micro_mkadri[] = {
/* columns rows colors chars-per-pixel */
"25 19 216 2 ",
"   c #231F16",
".  c #0E211F",
"X  c #0F1E3D",
"o  c #07162B",
"O  c #14273B",
"+  c #3A2C21",
"@  c #4E4C35",
"#  c #5E4237",
"$  c #6E593E",
"%  c #5D633D",
"&  c #1E2C44",
"*  c #1C2E49",
"=  c #162844",
"-  c #1C344B",
";  c #1F3044",
":  c #193759",
">  c #213246",
",  c #24354B",
"<  c #2A394A",
"1  c #2B344A",
"2  c #333A49",
"3  c #273856",
"4  c #2A3B55",
"5  c #2F3E5A",
"6  c #263B59",
"7  c #313C5C",
"8  c #283A60",
"9  c #36484C",
"0  c #2C425C",
"q  c #2E485F",
"w  c #30415B",
"e  c #3D5F5E",
"r  c #2F4364",
"t  c #374A67",
"y  c #31507C",
"u  c #294876",
"i  c #474745",
"p  c #5D594B",
"a  c #4B4E53",
"s  c #524D51",
"d  c #485758",
"f  c #5C5B54",
"g  c #565757",
"h  c #714F45",
"j  c #655749",
"k  c #624E59",
"l  c #645B52",
"z  c #685956",
"x  c #745445",
"c  c #5D714E",
"v  c #5A635F",
"b  c #4D644F",
"n  c #72764E",
"m  c #6C6C5D",
"M  c #6A645B",
"N  c #726152",
"B  c #7F6A57",
"V  c #7E745B",
"C  c #686345",
"Z  c #435760",
"A  c #535561",
"S  c #725A68",
"D  c #586667",
"F  c #4C6778",
"G  c #5E767A",
"H  c #5B6C74",
"J  c #6A6D67",
"K  c #646C6E",
"L  c #696B6C",
"P  c #646865",
"I  c #7F6F62",
"U  c #68726D",
"Y  c #787468",
"T  c #646E72",
"R  c #6B6F7A",
"E  c #6A747A",
"W  c #697876",
"Q  c #73747C",
"!  c #787A7A",
"~  c #767A76",
"^  c #895E58",
"/  c #886E53",
"(  c #836660",
")  c #847C6D",
"_  c #89776B",
"`  c #987A6B",
"'  c #847571",
"]  c #847974",
"[  c #976F67",
"{  c #7E847C",
"}  c #8C8D6D",
"|  c #9A846F",
" . c #879063",
".. c #87847F",
"X. c #8A897A",
"o. c #958374",
"O. c #90887B",
"+. c #8F9372",
"@. c #9E9578",
"#. c #A8846E",
"$. c #A88775",
"%. c #B28F73",
"&. c #465A8F",
"*. c #4F7F96",
"=. c #586F87",
"-. c #697A89",
";. c #7B7E86",
":. c #4F8496",
">. c #46969F",
",. c #6A8387",
"<. c #7C868D",
"1. c #7C8D8B",
"2. c #7B8986",
"3. c #6B8F9B",
"4. c #7C8D92",
"5. c #7B8893",
"6. c #7C9391",
"7. c #748FA0",
"8. c #7C96A3",
"9. c #6284B2",
"0. c #57BEE9",
"q. c #848483",
"w. c #838C8C",
"e. c #888787",
"r. c #928D88",
"t. c #999687",
"y. c #818A92",
"u. c #849695",
"i. c #969999",
"p. c #A4898A",
"a. c #AA9687",
"s. c #A89E96",
"d. c #B39A84",
"f. c #9AA596",
"g. c #81A599",
"h. c #A2A389",
"j. c #A9A597",
"k. c #B4A793",
"l. c #B4AC9D",
"z. c #B4A997",
"x. c #8E9BA2",
"c. c #939DA6",
"v. c #8B90B0",
"b. c #8EA1AA",
"n. c #89A1A1",
"m. c #9AA4AC",
"M. c #99A6AC",
"N. c #8CA2B0",
"B. c #9BA9B0",
"V. c #93AAB7",
"C. c #9DB2BE",
"Z. c #96B1BB",
"A. c #A7A7A7",
"S. c #B7B3AB",
"D. c #A6ABB6",
"F. c #AAB9BC",
"G. c #A2B6BF",
"H. c #B7BBBA",
"J. c #B8AAA7",
"K. c #C09189",
"L. c #D3B28F",
"P. c #D4AD90",
"I. c #C3B29C",
"U. c #E0BF9E",
"Y. c #C8B8A8",
"T. c #C4BAB6",
"R. c #DEB6AA",
"E. c #E0B7A3",
"W. c #E1BFB3",
"Q. c #EDC39D",
"!. c #C7C4B9",
"~. c #D3C6BB",
"^. c #E8CAB0",
"/. c #E3D1BD",
"(. c #E6D9A4",
"). c #80AFC3",
"_. c #AABBC1",
"`. c #B7BDCA",
"'. c #A8C2CC",
"]. c #B3C6CE",
"[. c #BCC8CD",
"{. c #BBC0C4",
"}. c #BBCCDC",
"|. c #B8CAD2",
" X c #B0CDD8",
".X c #BDD9EE",
"XX c #B8D3E1",
"oX c #CBC9CE",
"OX c #D8D8C5",
"+X c #C6D9DE",
"@X c #C3D2D7",
"#X c #DDD9D0",
"$X c #C7CED6",
"%X c #EAE5D1",
"&X c #F3ECDC",
"*X c #FFFED0",
"=X c #E9E2C8",
"-X c #C6DDEA",
";X c #C9DEEC",
":X c #C3DAE5",
">X c #DDDFEE",
",X c #C2DFF1",
"<X c #D0DFF2",
"1X c #C5E2EE",
"2X c #CDE2EE",
"3X c #C3E2F5",
"4X c #CBE5F4",
"5X c #CAE6F9",
"6X c #CEEAFB",
"7X c #C7EAFD",
"8X c #D3E6F2",
"9X c #D6EAF6",
"0X c #D2EBFA",
"qX c #DAEDFA",
"wX c #FCFCF6",
"eX c #E9EFE4",
/* pixels */
"C.b.u.u.~ ~ q.Q d v b e G D d 9 9 T ! l l U -.3.=.",
"3X-XXX|._.B.B.m.1.,.2.E 5.y.E D H 4.y.;.m.F.b.V.Z.",
"3X3X,X5X6X6X0X5X:X.X1X+X-XXX'.$X}.+X;X:XXX;X2X9X0X",
"-X4X4X5X.X3X3X3X7X5Xb.E n.1X0XqXqX0X5X6X5X4X4X;X;X",
"B.F.|.}.:X2X4X1X5X~ p.p.I Y <X0X4X0X5X0X8X8X9X0X4X",
"f f L L E <.c.M.<.o.E.R.^._ e.+X].].].[.F.`._.C.B.",
"O.r.O...e.! L i.M _ | d.` o.f ! e.w.T K v f g i s ",
"OX&Xl.S.#XT.! oXa.S k $.S k m A.S.j.! i.e...r.i p ",
"k.h.m } } c.v.wXY.%.%.W.K.#.a.eXeX{.x.~.j.i.~.S.z.",
"C @ ) @.n m.`.%XT.$.[ # $ #.s.wXwX>XN.t.c b n  .h.",
"V ) ] o.t.A.D.!.l.B h ^ x j s.%X=X$X'.J.) p % +.Y ",
"J P M ] Y h.OXD.r.N V N ( z s.a.Y.G.8.' ) Y J A...",
"Q a P O.k.(.*X[.A.` + .   _ A.I /.;X'.Q K D D y.D ",
"J P i.t.z.I.A.-.H.Q.` i / I.<.-.!.1X'.D.x.T 9 U T ",
"1.2.f.W -.F t y A I.U.P.L.M 5 &.=.9.V.S.{ S.T { w.",
"D.Y j.;.8 6 t 0 = & l j 1 X 1 r t u F 5.F H 8.f.1.",
"u...' 3 - 2 7 3 , O o o O > 4 4 q r : R X.Z w.Z.,.",
"N.A.s = - < 3 4 , , > ; & > 4 w 4 1 * 9 g.:.4.Z.3.",
"}.}.2 & , , 6 < , , > > > > 4 0 : 5 * O >.0.:.8.)."
};
