/* XPM */
static const char *micro_fabvalet[] = {
/* columns rows colors chars-per-pixel */
"25 19 199 2 ",
"   c #07080A",
".  c #0C0C0D",
"X  c #090807",
"o  c #120E0C",
"O  c #15120D",
"+  c #0F0F11",
"@  c #110F12",
"#  c #121113",
"$  c #1A1A1A",
"%  c #191918",
"&  c #221A16",
"*  c #231E1A",
"=  c #281F18",
"-  c #282117",
";  c #24221B",
":  c #2A231B",
">  c #262524",
",  c #2C2924",
"<  c #282B2D",
"1  c #372D27",
"2  c #3B342E",
"3  c #353437",
"4  c #3A3531",
"5  c #3E3935",
"6  c #383A39",
"7  c #47382E",
"8  c #473831",
"9  c #443F3B",
"0  c #483D37",
"q  c #503E32",
"w  c #4B4235",
"e  c #4B443D",
"r  c #514539",
"t  c #394345",
"y  c #4A4541",
"u  c #4F4840",
"i  c #49494B",
"p  c #464449",
"a  c #554D4A",
"s  c #5E4943",
"d  c #55514A",
"f  c #5B534C",
"g  c #454D50",
"h  c #5F5850",
"j  c #614F4F",
"k  c #62544E",
"l  c #69574D",
"z  c #6A5A4F",
"x  c #635550",
"c  c #695750",
"v  c #675851",
"b  c #685C55",
"n  c #765B50",
"m  c #76614E",
"M  c #6D6155",
"N  c #6D645A",
"B  c #726155",
"V  c #75665A",
"C  c #796659",
"Z  c #77695D",
"A  c #7A6A5C",
"S  c #5A5F62",
"D  c #666263",
"F  c #7A6C61",
"G  c #786861",
"H  c #716F72",
"J  c #7A7474",
"K  c #846C5C",
"L  c #93705A",
"P  c #837364",
"I  c #827368",
"U  c #8E7B6E",
"Y  c #887566",
"T  c #917E6D",
"R  c #967063",
"E  c #847D73",
"W  c #8A7C71",
"Q  c #897E7A",
"!  c #937E71",
"~  c #997F70",
"^  c #96816E",
"/  c #98816F",
"(  c #8D8172",
")  c #948572",
"_  c #9B8674",
"`  c #9B8876",
"'  c #968A7C",
"]  c #998A7A",
"[  c #92857C",
"{  c #A08A76",
"}  c #A38B7B",
"|  c #A6887A",
" . c #AB927D",
".. c #5F7D88",
"X. c #6C7F88",
"o. c #827F82",
"O. c #7D939E",
"+. c #7995A0",
"@. c #8A8987",
"#. c #8A8A8D",
"$. c #9C8C83",
"%. c #938A86",
"&. c #9B938A",
"*. c #999186",
"=. c #8D8B90",
"-. c #929295",
";. c #9A9494",
":. c #9F9A91",
">. c #9D999C",
",. c #A49284",
"<. c #A5968B",
"1. c #A99787",
"2. c #B49987",
"3. c #AB9C92",
"4. c #A49D9A",
"5. c #A19A94",
"6. c #B39E96",
"7. c #ACA08A",
"8. c #AAA296",
"9. c #AAA59F",
"0. c #B3A294",
"q. c #BCAA9B",
"w. c #B2A898",
"e. c #819EA4",
"r. c #92ACB4",
"t. c #8BA8B8",
"y. c #ABA5A1",
"u. c #AEA9A4",
"i. c #ABABAA",
"p. c #B0ACA3",
"a. c #B7AEAB",
"s. c #B1A3A0",
"d. c #B2B0A4",
"f. c #A8B8BB",
"g. c #BAB9B5",
"h. c #C09B89",
"j. c #C8A28D",
"k. c #C7A79A",
"l. c #C1B4A9",
"z. c #DEB7A8",
"x. c #D2B4A4",
"c. c #C3BBB4",
"v. c #C8B9B6",
"b. c #BDC1B3",
"n. c #CBC5BF",
"m. c #C6C6BA",
"M. c #D3C4BC",
"N. c #D5CEBE",
"B. c #E8CEBF",
"V. c #9EB9C0",
"C. c #A6BEC3",
"Z. c #A9C2C7",
"A. c #A6C3CD",
"S. c #ABC4C9",
"D. c #BAC1C4",
"F. c #ABC9D1",
"G. c #B1CDD4",
"H. c #B8D3DA",
"J. c #CDCAC3",
"K. c #C7C7C7",
"L. c #D4CCC4",
"P. c #D9CEC2",
"I. c #D1C6C0",
"U. c #D3D3CC",
"Y. c #DBD4CB",
"T. c #D8D2C3",
"R. c #D2CDD1",
"E. c #C2D2D2",
"W. c #CAD7DE",
"Q. c #C1D4DA",
"!. c #DCDBD4",
"~. c #D9DAD6",
"^. c #E2D8CC",
"/. c #E2DAD2",
"(. c #EDDED2",
"). c #E2DFDA",
"_. c #E4E1D5",
"`. c #E4E2DF",
"'. c #EBE4DD",
"]. c #ECE7D8",
"[. c #F3E6DE",
"{. c #CCDDE3",
"}. c #C2D8E4",
"|. c #D2DDE3",
" X c #E1DFE2",
".X c #CDE1E4",
"XX c #CBE6EF",
"oX c #EAEDE6",
"OX c #E8E7E8",
"+X c #F3EEE4",
"@X c #F2EEE9",
"#X c #FBEFE3",
"$X c #EBF0EC",
"%X c #F8F7EA",
"&X c #F4F2F2",
"*X c #FAF5F3",
"=X c #FCFBF5",
"-X c #FDFFFB",
";X c #F1F8F0",
/* pixels */
"1 : , ; ; ; - = q F - X O ; O & y y 9 $ & * * ; * ",
"v 8 7 f b N b G I G 1 * > > > , , , 9 5 5 4 4 5 5 ",
"M.<.s c V l B M A Z v x a a a d f u d f f f f f f ",
"%X<.P ,.q.1.) A C C B C A A C C F F A V V V B V Z ",
"w.] ] T {  .) ) <.,.] ) ) ` ` _ ` ` ` _ _ ` _ _ _ ",
"(.0.` }  .2.} { '.=XE r w M ) _ T T ^ ^ / ^ T P Y ",
"^.3.<.0.1.2._ } &.3.F q.U 7 M E &.' W U ] I W 8.8.",
"`.U.+X%XT.N.P.' 7.m k.z.j.n r g.).n.p.c.'.u.9.=X-X",
"OX'.@X$X].T.;Xb.s.U L K x 0 x `.`.J.5.c.I.a.K.=X*X",
"'.[.`.@X#XY.&X'./.! j.h.G l P J.!.L.u.c.a.y.@.K.OX",
"/.P.@X@X(.L.&X*X=XW { R s C ,.m.n.c.;.4.;.;.J i. X",
"_._.!.oX].Y.oXY.-X:.~ | j c w.~.Y.Y.5.>.>.=.o.g.&X",
"u.Y.g.!.^.8.U.p.+X[ } } k F <.D.n.u.J -.>.=.o.R.OX",
"%.$.J 4.0.' :.*.l.3.x. .z K $.#.@.i < 3 p i 3 H K.",
"k ,.Q &.I 3.%.%.~.!.B.2.~ ,.l.E.D.t   + @ # # + -.",
"N ' E c.( h g.`.XX|.M.x.k.q.d.G.Q.{.g   . o   # >.",
"( ! w L.$.e .X}.}..XU.v.6.i.C.A.Z.G.X.  o . # . >.",
"T.W 2 p.e 6 S.r.W..XE.D.f.f.Z.C.r.+.X.% o # . # D ",
"&.1 * > X S V.t.W.{.H.F.A.F.S.f.e...O.< O % % % D "
};
