/* XPM */
static const char *micro_mbetcher[] = {
/* columns rows colors chars-per-pixel */
"25 19 205 2 ",
"   c #0B0F19",
".  c #000D18",
"X  c #0C131C",
"o  c #06151E",
"O  c #121015",
"+  c #141E25",
"@  c #1D1C28",
"#  c #0E1C29",
"$  c #16232B",
"%  c #19262D",
"&  c #1E292D",
"*  c #1A2225",
"=  c #1B2733",
"-  c #1E2A35",
";  c #1A2A36",
":  c #2F282F",
">  c #232D35",
",  c #242D3B",
"<  c #312F3D",
"1  c #24323E",
"2  c #263135",
"3  c #3A3935",
"4  c #4D3E29",
"5  c #4D3F3F",
"6  c #3B413F",
"7  c #52483E",
"8  c #525A39",
"9  c #57492F",
"0  c #644735",
"q  c #1C3645",
"w  c #233443",
"e  c #2A3545",
"r  c #2C3A47",
"t  c #34384C",
"y  c #313743",
"u  c #393E54",
"i  c #523F41",
"p  c #274E5F",
"a  c #314254",
"s  c #3B4745",
"d  c #204369",
"f  c #444A4D",
"g  c #414449",
"h  c #544A46",
"j  c #55544B",
"k  c #494C53",
"l  c #4C5151",
"z  c #4F595B",
"x  c #4B5956",
"c  c #535556",
"v  c #595859",
"b  c #674D47",
"n  c #665648",
"m  c #705248",
"M  c #625955",
"N  c #59645D",
"B  c #6B6452",
"V  c #676550",
"C  c #79695A",
"Z  c #787658",
"A  c #666A49",
"S  c #475762",
"D  c #575F61",
"F  c #615C63",
"G  c #5A6762",
"H  c #596568",
"J  c #426B7D",
"K  c #66676D",
"L  c #626C6C",
"P  c #686967",
"I  c #746C62",
"U  c #7C6C61",
"Y  c #736A6B",
"T  c #73736C",
"R  c #767667",
"E  c #6B6D72",
"W  c #6B6C78",
"Q  c #716F70",
"!  c #697478",
"~  c #747B75",
"^  c #747A7C",
"/  c #797878",
"(  c #67726C",
")  c #855650",
"_  c #886959",
"`  c #83746D",
"'  c #8D7869",
"]  c #857669",
"[  c #827D79",
"{  c #9D7F74",
"}  c #987766",
"|  c #A37B69",
" . c #A27E71",
".. c #7A837E",
"X. c #8A8578",
"o. c #998972",
"O. c #9D927E",
"+. c #858166",
"@. c #BD907D",
"#. c #AD8E7B",
"$. c #3F718C",
"%. c #447687",
"&. c #687883",
"*. c #767D84",
"=. c #847E88",
"-. c #6D8487",
";. c #7C8386",
":. c #75848A",
">. c #788889",
",. c #7C8C93",
"<. c #778898",
"1. c #799099",
"2. c #4DA6CE",
"3. c #7EACC6",
"4. c #4BB5EF",
"5. c #68C5F0",
"6. c #848482",
"7. c #868A83",
"8. c #81838A",
"9. c #8C8B8D",
"0. c #848A88",
"q. c #978A84",
"w. c #9F928C",
"e. c #979589",
"r. c #838D94",
"t. c #8A8F93",
"y. c #84959A",
"u. c #8D9897",
"i. c #939B95",
"p. c #969999",
"a. c #A28E8D",
"s. c #A09083",
"d. c #A99F95",
"f. c #BE9E91",
"g. c #BE9885",
"h. c #9EA09D",
"j. c #B0B28B",
"k. c #A7A598",
"l. c #B4A999",
"z. c #8698A3",
"x. c #989DA7",
"c. c #8EA1AF",
"v. c #93A3AB",
"b. c #9DA5AA",
"n. c #9AA4A6",
"m. c #9AA9B1",
"M. c #92AEB2",
"N. c #A6A8AA",
"B. c #A5ADB0",
"V. c #A7B1B3",
"C. c #BBB5B3",
"Z. c #B4BBBF",
"A. c #B7B6BA",
"S. c #BDB3A8",
"D. c #C2A38F",
"F. c #D3A38D",
"G. c #C2B79C",
"H. c #C7A491",
"J. c #C8B6AB",
"K. c #C0BDB4",
"L. c #CAADA9",
"P. c #BAC0BE",
"I. c #D3CCBA",
"U. c #D5C4BD",
"Y. c #A3AFC5",
"T. c #AAB8C3",
"R. c #B6BCC7",
"E. c #B6C2CB",
"W. c #B9C4D0",
"Q. c #B7CAD8",
"!. c #BCCAD9",
"~. c #B8C5D4",
"^. c #BED1DA",
"/. c #BFCEE1",
"(. c #BED1E1",
"). c #CBC5C3",
"_. c #D9CCC3",
"`. c #DDD8C8",
"'. c #C3CCD4",
"]. c #C4D2DD",
"[. c #C9D3D5",
"{. c #DBDAD2",
"}. c #E7DDC8",
"|. c #E9DBD2",
" X c #FDE5CD",
".X c #EEEDDB",
"XX c #F2EFDE",
"oX c #C3D3E3",
"OX c #CBD3E3",
"+X c #C6D8E5",
"@X c #CBDAE6",
"#X c #C3D5EA",
"$X c #CADAEB",
"%X c #C5DBE9",
"&X c #D1DCE3",
"*X c #CCDFF8",
"=X c #D2DDF4",
"-X c #D1DFFA",
";X c #DBE1E2",
":X c #D6E2EE",
">X c #D0E1F3",
",X c #D4E0F8",
"<X c #F7ECE6",
"1X c #FFFCFA",
"2X c #F2F0EA",
/* pixels */
"k.0.:...7.[ Q P G G x x ^ H k z G / / T 0.t.>.y.1.",
"{.[.m.m.B.x.x.n.t.;.:.&.,.*.:.,.y.b.N.b.V.R.W.(.+X",
".X2XE.Q.^.oXoX^.&X]./.(.+X].^.+X#X,X=X*X>X=X-X*X$X",
"XX;X~.Q.Q.Q.!.@X~.!.=XT.B.[.:X$X>X$XoX%X@XoX#X$X#X",
"S.A.E.T.E.W.'.;X^.:Xx.h n I p.@XOX#X#X(.!.OXoXR.T.",
"h j / ~ v K 9.9.:.;.j #._ ' M 8.9.u.,.^ / 6.~ c j ",
"C ` R I X.6.v [ / h C D.H.f.U I 9./ L / Y V v 3 7 ",
"I.|.J.O.l.).Q C.U.q._ 0  .b C l._.i.i.C.w.k.{.k.w.",
"o.K.X.Z m X.r.<X<XJ. .@.F.g.{ L.1X].r.q.V Z j.S.I.",
"9 A C X.Z e.T.`.}.}.o.@.| | } `.<X[.R.d.V 8 8 Z +.",
"b C C I U q.Z.S.i.w.` ] ) _ n k.J.b.t.X.T j R k.[ ",
"l W ! ( I ] _.).W v a.m C n M E C.!.x.K K E P ^ l ",
"T F z X.s.G. XC.*.c M ' 4 B v k *.Y.W.p.8.z c *.E ",
"R N ^ 7.R e...S k k 2 3 i 5 6 D f S ! n.;.r.P L 8.",
"/ u.=.` / &., t t w , @   @ < e f r > ( H L p.u.~ ",
">.v.N #.h.p * y w e 1 2 > & 1 u g r $ s -.x y.M.-.",
"v.z.~ X.N.y X = e e , , , - w a d $ O : 1.%.~ V.-.",
"P.m.Z.{.Z.= X X = - > > > = = 1 , + o o %.5.J <.3.",
"l.'.@XR.z.#   X $ % & & & & % % $ + . @ q 4.2.$.c."
};
