/* XPM */
static const char *micro_dylmarti[] = {
/* columns rows colors chars-per-pixel */
"25 19 208 2 ",
"   c #1E191F",
".  c #202F34",
"X  c #25333D",
"o  c #273035",
"O  c #393735",
"+  c #6D131F",
"@  c #43322B",
"#  c #4C3735",
"$  c #484537",
"%  c #524D3C",
"&  c #273946",
"*  c #2C3A4C",
"=  c #2F3D45",
"-  c #333D4F",
";  c #2E3F5B",
":  c #4A3F45",
">  c #374149",
",  c #2F485E",
"<  c #354253",
"1  c #3A4555",
"2  c #3B4C54",
"3  c #3B465A",
"4  c #3C4A5B",
"5  c #36465A",
"6  c #2D4549",
"7  c #374B61",
"8  c #385268",
"9  c #3A5570",
"0  c #3F6071",
"q  c #564D48",
"w  c #5C554E",
"e  c #54544A",
"r  c #484B5E",
"t  c #5C5954",
"y  c #5B5857",
"u  c #664C46",
"i  c #63584D",
"p  c #625C54",
"a  c #765C57",
"s  c #754D4B",
"d  c #5F605A",
"f  c #69654B",
"g  c #656358",
"h  c #797757",
"j  c #76685F",
"k  c #42546C",
"l  c #4A5A6B",
"z  c #595C6F",
"x  c #4F5370",
"c  c #6F5971",
"v  c #5E6869",
"b  c #566374",
"n  c #656762",
"m  c #6C6464",
"M  c #6C6D63",
"N  c #6C6C6B",
"B  c #696468",
"V  c #756862",
"C  c #76676B",
"Z  c #6F746D",
"A  c #72726D",
"S  c #79756A",
"D  c #7B6F79",
"F  c #6F7571",
"G  c #7D7475",
"H  c #747A75",
"J  c #757D7A",
"K  c #7A7B78",
"L  c #A52136",
"P  c #9E3B57",
"I  c #955D5B",
"U  c #82685D",
"Y  c #8B6B69",
"T  c #956569",
"R  c #837A6A",
"E  c #92756D",
"W  c #987865",
"Q  c #857C72",
"!  c #8C7C74",
"~  c #807D7A",
"^  c #847677",
"/  c #997B71",
"(  c #A27F72",
")  c #A77E77",
"_  c #AE7967",
"`  c #D6477C",
"'  c #E1657D",
"]  c #718578",
"[  c #D3B43F",
"{  c #858368",
"}  c #88857A",
"|  c #9A867B",
" . c #83927F",
".. c #969778",
"X. c #989066",
"o. c #A68778",
"O. c #B38A78",
"+. c #A8856F",
"@. c #B6AB6C",
"#. c #CBAE4A",
"$. c #A1C17E",
"%. c #E8CF68",
"&. c #F5E77E",
"*. c #847F83",
"=. c #8B7E88",
"-. c #BC7E95",
";. c #D0748B",
":. c #688A89",
">. c #7C8384",
",. c #768488",
"<. c #748E9D",
"1. c #7A8D93",
"2. c #6F9F9F",
"3. c #7093A3",
"4. c #74B2BD",
"5. c #838484",
"6. c #8A8C86",
"7. c #8C8C8B",
"8. c #8C848A",
"9. c #948D8B",
"0. c #9C8A8E",
"q. c #88948B",
"w. c #9E9584",
"e. c #93928C",
"r. c #9C918B",
"t. c #9D988F",
"y. c #969C8E",
"u. c #8F8C95",
"i. c #839393",
"p. c #8E9494",
"a. c #979896",
"s. c #968F96",
"d. c #B58E86",
"f. c #A39685",
"g. c #BB9788",
"h. c #A99F9B",
"j. c #A69490",
"k. c #BA9491",
"l. c #96A48A",
"z. c #97A59F",
"x. c #BAA88D",
"c. c #B0B29D",
"v. c #A9A38B",
"b. c #A29FA6",
"n. c #81A5A3",
"m. c #9BA8AA",
"M. c #89B0AF",
"N. c #90B5AE",
"B. c #85AEB0",
"V. c #97B5B7",
"C. c #A2A3A5",
"Z. c #ABA7A9",
"A. c #B9A7A5",
"S. c #A5B4A9",
"D. c #BDB4A5",
"F. c #B7B4A3",
"G. c #ACABB5",
"H. c #BBBBB3",
"J. c #B1B2B5",
"K. c #C09781",
"L. c #C48887",
"P. c #C7A896",
"I. c #DDB39C",
"U. c #C7B39B",
"Y. c #CD8CA2",
"T. c #C7B9A7",
"R. c #C1ACBB",
"E. c #B1C28E",
"W. c #9CC4BB",
"Q. c #AFC7B3",
"!. c #FEEC88",
"~. c #EEE485",
"^. c #CDC0AF",
"/. c #CAC3B9",
"(. c #E5C0A5",
"). c #98A6C9",
"_. c #BEBFC1",
"`. c #ABBFDA",
"'. c #C0BFC4",
"]. c #D9B5C1",
"[. c #E4AFC9",
"{. c #BDC3C3",
"}. c #B2CEC0",
"|. c #A8D6C9",
" X c #90D7ED",
".X c #89E4FF",
"XX c #94EBF2",
"oX c #CDC6C3",
"OX c #C7CACB",
"+X c #D4CBC7",
"@X c #C7D7C7",
"#X c #CCCED2",
"$X c #C7D2D1",
"%X c #CEDBDD",
"&X c #C8D3D6",
"*X c #D1D6DB",
"=X c #D3DADE",
"-X c #DCD7C4",
";X c #CEE5C5",
":X c #CBDAE3",
">X c #D5DBE3",
",X c #D9E3E8",
"<X c #E3E3E1",
"1X c #EAEBE6",
"2X c #F0ECE9",
"3X c #FDFEFC",
"4X c #FBFCF3",
"5X c #E6F1F3",
/* pixels */
"&X*X>X=X*X=X,X>X,X%X,X&X_./.+X,X:X:X%X>X5X3X3X3X3X",
"K 6.6.J.{.C.Z.OX#XOX$Xu.D m N G.#X$XOXOX$X#X<X<X2X",
"$ $ e t g n y A e.6.Z O q p O O r.6.K 9.p.F N H H ",
"j.! Q r.} S a.7.5.h.q @ u ( g.u j } e.9.H 5.M M K ",
"+XT.^.T.f.v.Z.Z.s.H.i E o.g.P.P.| H.H.Z.a.H.j.} D.",
"r.R { X.h h % ~ J.4X} a u ! V ^ A.4X1XOXz.6.R R v.",
"Q i % f f f e a.'.A.E E a ) Y ^ j.oXA C.{.n g h { ",
"t O # w p q e } J.Q U d.) O.+.d.Y q w b.m.J S e p ",
"g s # e A q y *.+X5.: W _ Y E o.y   m ).,.5.y.h.t.",
"y + L w v B M w.(.w.d W O.d.| U.~ J A `.<.A K 8.7.",
"v u I ] i.G T x.P.D.K f.+./ o.T.oXR.i.m.1.>.,.] H ",
"F q.9.C.7.I ' ].G.v r | K.( ! *.G.I.x./.A...5.0.A.",
"N >.Z.m. .L.Y.<.k 7 k m d.k.G b b ,.X.$.[.I.E.a.A.",
"C 0.s.T ;.-.z 9 3 4 7 o V 8.> k 2 l b 4..X XXX2.2.",
"@XC.G P ` c 7 r 2 2 - X . X . - 9 r l z |.;X;XQ.:.",
"-XS.=.C c 8 7 6 3 4 5 5 < 1 1 3 x 7 4 8 @.&.%.!.~.",
"/.z.<.n.:.5 1 & 5 1 4 < < 4 1 4 8 4 > 1 M @.#.[ #.",
"F.S.V.W.:.* - & - < 4 < < 4 < 1 5 1 = ; l l.....l.",
"c.Q.}.@X:.* - X * * 1 - > 1 - < 5 4 = , 0 N.M.B.W."
};
