/* XPM */
static const char *micro_croche[] = {
/* columns rows colors chars-per-pixel */
"25 19 194 2 ",
"   c #0A0A04",
".  c #0B0C09",
"X  c #030400",
"o  c #160D04",
"O  c #0B140F",
"+  c #11120C",
"@  c #1A1309",
"#  c #090E11",
"$  c #0E1212",
"%  c #131413",
"&  c #1C1412",
"*  c #161915",
"=  c #1B1A15",
"-  c #171918",
";  c #1B1C1A",
":  c #151618",
">  c #231E19",
",  c #231A14",
"<  c #2D251C",
"1  c #24241C",
"2  c #1E2223",
"3  c #242424",
"4  c #2B2C2B",
"5  c #242829",
"6  c #342C23",
"7  c #383127",
"8  c #373229",
"9  c #3B372E",
"0  c #3B3832",
"q  c #6E3E1A",
"w  c #49392A",
"e  c #483F38",
"r  c #433D33",
"t  c #543E30",
"y  c #4E453A",
"u  c #47433A",
"i  c #524A3D",
"p  c #5A4335",
"a  c #784C31",
"s  c #76472B",
"d  c #3E4243",
"f  c #4F4B4C",
"g  c #564E42",
"h  c #514947",
"j  c #56554B",
"k  c #5C5950",
"l  c #645A54",
"z  c #666159",
"x  c #72675E",
"c  c #5E6263",
"v  c #6A6462",
"b  c #796C64",
"n  c #746861",
"m  c #7F726E",
"M  c #9A573A",
"N  c #A26338",
"B  c #8C6F5B",
"V  c #936E51",
"C  c #996649",
"Z  c #B26845",
"A  c #AA704A",
"S  c #B6774E",
"D  c #A96550",
"F  c #B37452",
"G  c #866D68",
"H  c #8B7561",
"J  c #8D7A6D",
"K  c #877569",
"L  c #937B6D",
"P  c #8D7C72",
"I  c #8C7D7A",
"U  c #857B77",
"Y  c #937F74",
"T  c #9C7F77",
"R  c #A97D60",
"E  c #95806D",
"W  c #8B827C",
"Q  c #948173",
"!  c #9C8474",
"~  c #94847A",
"^  c #96897B",
"/  c #9D8B79",
"(  c #BF886A",
")  c #A48878",
"_  c #AA967E",
"`  c #D2946F",
"'  c #CA8870",
"]  c #C49179",
"[  c #D3977B",
"{  c #8B8B8E",
"}  c #8F8882",
"|  c #9C8C83",
" . c #908E8F",
".. c #9B8E8A",
"X. c #908281",
"o. c #949188",
"O. c #9A918E",
"+. c #9B9386",
"@. c #8D949A",
"#. c #9D9993",
"$. c #9A9696",
"%. c #A18E82",
"&. c #A39384",
"*. c #A39A8C",
"=. c #AB9A8D",
"-. c #A99587",
";. c #B29C8B",
":. c #AB9B92",
">. c #A59C9A",
",. c #B4A08E",
"<. c #ABA194",
"1. c #A3A19D",
"2. c #B2A293",
"3. c #B6A598",
"4. c #BEA999",
"5. c #BAA695",
"6. c #969EA1",
"7. c #9696A0",
"8. c #9DA4A9",
"9. c #A1A7A7",
"0. c #ACA5A4",
"q. c #ADAAA5",
"w. c #BBADA7",
"e. c #B2A8A6",
"r. c #ADB1AD",
"t. c #B8B0A3",
"y. c #AEB3B4",
"u. c #AFB6BA",
"i. c #BBB5B3",
"p. c #B2B8BB",
"a. c gray71",
"s. c #CC988D",
"d. c #C0A999",
"f. c #D2A294",
"g. c #E8AD89",
"h. c #C3AFA6",
"j. c #D7ADA1",
"k. c #CAB9AD",
"l. c #C6B3A9",
"z. c #D5B9AD",
"x. c #CDBFB7",
"c. c #C5B9B4",
"v. c #E3BEAC",
"b. c #EFBBB0",
"n. c #D6C0AB",
"m. c #C5C3BC",
"M. c #CCC6BC",
"N. c #D6C6BB",
"B. c #E8C2B5",
"V. c #F6C7BD",
"C. c #B6BFC3",
"Z. c #B8BDC1",
"A. c #C1BFC0",
"S. c #BEC3C5",
"D. c #C4C9CC",
"F. c #CDCDCC",
"G. c #C7C6CE",
"H. c #D0CBC5",
"J. c #D6D2CB",
"K. c #DAD3CB",
"L. c #CACED2",
"P. c #C8D1D8",
"I. c #D5D5D3",
"U. c #D3D7D9",
"Y. c #D2DCDF",
"T. c #DBDCDB",
"R. c #D7D8D3",
"E. c #ECCFCB",
"W. c #F9CFC1",
"Q. c #FFD7C9",
"!. c #F9DACB",
"~. c #FCDBD4",
"^. c #E4E5DE",
"/. c #CDD7E1",
"(. c #D2DCE6",
"). c #DCE5EA",
"_. c #DDE4E7",
"`. c #E3E6E3",
"'. c #E9EBE3",
"]. c #E2E9EC",
"[. c #EAECEB",
"{. c #EBE7E6",
"}. c #EDF1EE",
"|. c #F3F2EE",
" X c #E4ECF1",
".X c #ECEFF0",
"XX c #EDF2F4",
"oX c #EEF7FE",
"OX c #F2F4F3",
"+X c #FBFBF6",
"@X c #F3F6FB",
"#X c #F6FAFB",
"$X c #FEFEFC",
"%X c #F7F8F5",
/* pixels */
"w M.$Xo.6 , & @ = ; O z N.J.i.j < < < v q.e.0.$.O.",
"#.:.=.J K n l y 6 > k M.x.0.h 6 r 7 < 0 u r 9 8 8 ",
"X.P L ) %.&.=.^ b g =.3.e.O.m H n b x l j y i i h ",
") / J P K H H J x #.K t p z.l.4.w...O.>.O.W O.} o.",
"&./ ^ ~ Q E Q J ..m.G B a C B %.) ! ! ! L Y ! ! ! ",
"r.+./ ! Q ^ P Y W b E.Q.g.g.V P <.t.M.J.H.#.J.i.0.",
"6.A.<.-.&.| -./ ~ T B.f.[ A R 2.'.+X$X$X}.I.$X$X%X",
" .7.G.q.*.=.;._ =.j.B.s.] q ] n.{.$X$X$X|.q.$X+X+X",
"%X{ Z.L.0.;.,.:.:.v.~.V.' Z ` x.T.$X$X$X@Xp.#X$X+X",
"$XF.@.).c.,.5.3.1.h.W.b.D M ~.m.I.$X|.$XOXy.OX'.}.",
"$X$X8.).I.5.d.3.>.e.Q.B.F F $XS.R.$X|.$XOXr.[.^.^.",
"$X$Xu./.[.w.4.h.l.v k.!.S N { F.R.+X|.+X.X9.}.`.K.",
"$X$XD.(.XXc.k.| g 3 f k.( s 4 j F.$X`.$XXX6.].XXT.",
"$X$XL.(.@X1.e , $ 3 2 3 w o % o 4 U T.$X].8. X]..X",
"$X+XD.).).4 ; ; 3 2 ; ; $ # : > = . 0 [.].C.oX XU.",
"_.OXa.].6.- 3 2 = 3 > 3 ; = ; * ; 1   z $.S. X XP.",
"T.T.u.Y.c - ; 3 2 ; ; ; : - ; = = + .   I OX). XU.",
"%X#XC.D.d % - 2 2 ; ; ; * - ; * + . .   I OX).XXu.",
"XX#Xp.y.5 % ; 3 2 - = = - ; - % + .   X m `.Y.).8."
};
