/* XPM */
static const char *micro_mmurru[] = {
/* columns rows colors chars-per-pixel */
"25 17 180 2 ",
"   c #020303",
".  c #00020A",
"X  c #0C0D11",
"o  c #0F1E19",
"O  c #282421",
"+  c #382E22",
"@  c #373E36",
"#  c #373B3E",
"$  c #453A34",
"%  c #5C432F",
"&  c #5F4C3B",
"*  c #654B3C",
"=  c #3C4446",
"-  c #4C5554",
";  c #505C5C",
":  c #675142",
">  c #60524F",
",  c #7A5C49",
"<  c #6B5C55",
"1  c #57605D",
"2  c #59625F",
"3  c #646C5F",
"4  c #756156",
"5  c #596563",
"6  c #58676C",
"7  c #4A6868",
"8  c #646F67",
"9  c #616C68",
"0  c #676868",
"q  c #68736B",
"w  c #70766C",
"e  c #657479",
"r  c #78777D",
"t  c #7C7F7E",
"y  c #747976",
"u  c #895D52",
"i  c #87695E",
"p  c #93605D",
"a  c #876F6D",
"s  c #8C6D67",
"d  c #8D7769",
"f  c #977262",
"g  c #947769",
"h  c #967A65",
"j  c #857E74",
"k  c #947970",
"l  c #A37565",
"z  c #7F827B",
"x  c #9B867A",
"c  c #A8916F",
"v  c #A98171",
"b  c #AC857C",
"n  c #B18079",
"m  c #B78679",
"M  c #A7927D",
"N  c #787F85",
"B  c #7D7D89",
"V  c #6F8C8A",
"C  c #708A87",
"Z  c #7E8D8F",
"A  c #718586",
"S  c #848684",
"D  c #878C87",
"F  c #8A8A86",
"G  c #8A8C89",
"H  c #868B8E",
"J  c #87908B",
"K  c #8C918C",
"L  c #94918A",
"P  c #938E92",
"I  c #8D9190",
"U  c #8A9A97",
"Y  c #859D9A",
"T  c #929492",
"R  c #959996",
"E  c #989A97",
"W  c #959C9A",
"Q  c #9C9D9C",
"!  c #9B9595",
"~  c #A68B84",
"^  c #B08E85",
"/  c #BF8C89",
"(  c #B98985",
")  c #BA958F",
"_  c #A19996",
"`  c #B59F92",
"'  c #8DA19F",
"]  c #81A19C",
"[  c #96A19C",
"{  c #9EA39D",
"}  c #A7A298",
"|  c #B6A591",
" . c #ACB69B",
".. c #9F9CA1",
"X. c #8798AA",
"o. c #80AAA0",
"O. c #8AA9A1",
"+. c #8FAEA8",
"@. c #9DA4A2",
"#. c #93ACA7",
"$. c #9DABAB",
"%. c #8DB0A9",
"&. c #84B2A8",
"*. c #94B2AC",
"=. c #9DB9AD",
"-. c #9DBAB4",
";. c #A2A4A1",
":. c #A8A5A3",
">. c #A4A9A5",
",. c #A9A9A7",
"<. c #A7ABAD",
"1. c #ABACAB",
"2. c #B1ADA8",
"3. c #ADB2AE",
"4. c #A1BBAE",
"5. c #BEB9A6",
"6. c #B4B0AD",
"7. c #BAADB6",
"8. c #A2B6B4",
"9. c #AEB1B3",
"0. c #A2BCB6",
"q. c #ADB9B3",
"w. c #ACBCBA",
"e. c #B3B4B4",
"r. c #B4B8B7",
"t. c #B8BAB7",
"y. c #B5B5BB",
"u. c #B9B7B8",
"i. c #B5BBBA",
"p. c #BABCBC",
"a. c #C59883",
"s. c #C0A886",
"d. c #CFAA8D",
"f. c #C2A98A",
"g. c #CEAFAD",
"h. c #C8B3B5",
"j. c #ACC0B7",
"k. c #A6C2BA",
"l. c #AFC9BE",
"z. c #ACC3BB",
"x. c #B5C1BB",
"c. c #BBC2BD",
"v. c #C0C0BE",
"b. c #CEC5BC",
"n. c #E4C5B1",
"m. c #F3D2BF",
"M. c #ACBCC2",
"N. c #A2B4C8",
"B. c #BABFC2",
"V. c #B2BBC0",
"C. c #C0BEC3",
"Z. c #ACC9C4",
"A. c #B4C2C2",
"S. c #BDC3C2",
"D. c #BEC9C5",
"F. c #B9C7CA",
"G. c #BFCBCB",
"H. c #BDD1CB",
"J. c #C1C5C3",
"K. c #C4CAC5",
"L. c #C6C3CA",
"P. c #C5CCCB",
"I. c #CBCDCC",
"U. c #D3CDCA",
"Y. c #C3D3CC",
"T. c #CCD2CF",
"R. c #D0D2CF",
"E. c #CCCDD0",
"W. c #CDD2D2",
"Q. c #C7D2D8",
"!. c #CDD8D2",
"~. c #D3D4D4",
"^. c #DBD6D4",
"/. c #D9D9D7",
"(. c #D3D5DA",
"). c #D6D9D8",
"_. c #D9DCDB",
"`. c #DEE2E1",
"'. c #E3E4E5",
"]. c #E3FBFF",
/* pixels */
"7 N V Q Y ' e.y.7.V.y.C.[ H D.v.p.p.J.p.E 9.r.<.Q ",
"e Z Z Y <.o.B.*.M.l.c.L...L } @.p.t I J.Q S.S.r.1.",
"A ..] $.8.#.+.8.*.*.E.I.,.,.E @.E t G ~.{ S.K.J.t.",
"C W w.y.*.%.i.A.F.-.S.(.9.K @.~.~.t.E ~.t.;.I.K.S.",
"$.O.O.#.i.8.A.&.F.Z.K.b.j F c.I.I.~.u.e.I.G S.T.K.",
"<.h.r.J.I.p.0.G.H.=.5.s.c d _ ^.~.~.I.;.,.T I.W.I.",
"r.q.D.S.D.H.z.k.M. .f.m.n.d.M C.J.p.e.Q T 1.).W.W.",
"u.S.K.I.U.^.~.!.'.| m g.g.a.h >.p.y 0 ,.1.,.).~.W.",
"r.Q Q ;.:.,.>.u.p.x , s ) u i 2.~.1.F Q :.T e./.W.",
"! 3.S 2.3.G ^.D 6.g l b ^ v f ~ r.S.'.).)._.;.K.~.",
"Q I.D x.>.>.K.E I.` v ( p n b } 1.>.r.W.I._.r.r.).",
"[ R.i.K.v.t.T.1.Q.U.k b / n x K 1.;.e.@.r.`.r.r.(.",
"U w.I.I.E.~.~.).Q.^.4 * , : < P ,.;.I.T r.).e.p.~.",
"*.*.A.P.P.P.Y.Y.`.F + & % : $ 0 t.F S ,.3.`.9.e.W.",
"*.w.0.-.x.Y.4.q.{ @   > a a O o W >.J.3.<.).<.e.P.",
"u.c.D.x.j.c.z w 3 - . B L.r   # 8 q y J K.W.3.<.J.",
"E r.B.-.k.S 1 5 5 6 = N.].X.X ; 5 5 9 2 @.~.R 9.r."
};
