/* XPM */
static const char *micro_fboulbes[] = {
/* columns rows colors chars-per-pixel */
"25 19 196 2 ",
"   c #050505",
".  c #0A0401",
"X  c #060608",
"o  c #0D0C0C",
"O  c #100F0B",
"+  c #1C150F",
"@  c #0F1316",
"#  c #131314",
"$  c #1C1512",
"%  c #181818",
"&  c #1E1915",
"*  c #24170D",
"=  c #281F16",
"-  c #201B18",
";  c #2B231E",
":  c #33261C",
">  c #3B291D",
",  c #2B2622",
"<  c #332A23",
"1  c #3A2C27",
"2  c #362F29",
"3  c #38322C",
"4  c #343334",
"5  c #3F3833",
"6  c #373538",
"7  c #3A3A3C",
"8  c #412E28",
"9  c #4E3A2B",
"0  c #44362A",
"q  c #513F29",
"w  c #423934",
"e  c #4A3D35",
"r  c #413E3C",
"t  c #47403A",
"y  c #4B423C",
"u  c #5B4A3D",
"i  c #413F41",
"p  c #4D4842",
"a  c #514741",
"s  c #544A43",
"d  c #5A4A4A",
"f  c #5C5145",
"g  c #5B524B",
"h  c #57544F",
"j  c #63554B",
"k  c #685649",
"l  c #705248",
"z  c #7A5E4B",
"x  c #745D4D",
"c  c #675E52",
"v  c #6B5D52",
"b  c #6C5F59",
"n  c #705E52",
"m  c #6F6154",
"M  c #736355",
"N  c #73655B",
"B  c #72685F",
"V  c #7A6B5C",
"C  c #7B6857",
"Z  c #5E5E60",
"A  c #635E64",
"S  c #6E6963",
"D  c #776D67",
"F  c #79726C",
"G  c #767273",
"H  c #787377",
"J  c #7C7779",
"K  c #7B7B7D",
"L  c #85624F",
"P  c #846D5F",
"I  c #826255",
"U  c #826E65",
"Y  c #837265",
"T  c #8B7563",
"R  c #82776E",
"E  c #857A6E",
"W  c #8F7A6A",
"Q  c #8B7868",
"!  c #937661",
"~  c #937B6A",
"^  c #847A73",
"/  c #8A7C72",
"(  c #837D7B",
")  c #837471",
"_  c #9C7A70",
"`  c #96816D",
"'  c #888179",
"]  c #8C8375",
"[  c #948575",
"{  c #9A8472",
"}  c #9D8A73",
"|  c #958679",
" . c #99867A",
".. c #948878",
"X. c #998A7B",
"o. c #A08478",
"O. c #A2897A",
"+. c #A48978",
"@. c #B48F7C",
"#. c #A6917E",
"$. c #807B81",
"%. c #898583",
"&. c #8C8889",
"*. c #988780",
"=. c #9A8D82",
"-. c #938E8C",
";. c #9C9184",
":. c #97928F",
">. c #9D948D",
",. c #93929A",
"<. c #9C9893",
"1. c #AF9981",
"2. c #AA998A",
"3. c #A89685",
"4. c #B69782",
"5. c #B09F8F",
"6. c #BA9784",
"7. c #A39C95",
"8. c #A49E99",
"9. c #A09591",
"0. c #B5A08B",
"q. c #A5A49E",
"w. c #ACA49C",
"e. c #AEA095",
"r. c #B0A79E",
"t. c #B7AE9F",
"y. c #B3A696",
"u. c #9F9FA1",
"i. c #ABA6A0",
"p. c #A6A6A8",
"a. c #ACABAA",
"s. c #AFABA2",
"d. c #B3A9A3",
"f. c #B7AAA6",
"g. c #BAB1A3",
"h. c #BCB3AC",
"j. c #B5AFB3",
"k. c #B4B5B8",
"l. c #BBBCBC",
"z. c #B6B2B1",
"x. c #C7A996",
"c. c #C2B9AC",
"v. c #CBBEAB",
"b. c #C3BBB2",
"n. c #C7BCB8",
"m. c #CCC5AB",
"M. c #CAC1B5",
"N. c #CDC6BE",
"B. c #D3C9B2",
"V. c #D3CCBE",
"C. c #D2C4BB",
"Z. c #BDBCC1",
"A. c #C5BFC9",
"S. c #C6C4C7",
"D. c #CCC3C2",
"F. c #CCCAC3",
"G. c #C8C4CB",
"H. c #C9C7CC",
"J. c #D5CAC3",
"K. c #D4CEC8",
"L. c #D4D0C6",
"P. c #DBD4C6",
"I. c #DBD4CD",
"U. c #D9D6CA",
"Y. c #CECBD2",
"T. c #D2CED2",
"R. c #D4D2D2",
"E. c #DDDAD4",
"W. c #D6D5D9",
"Q. c #D8D7DC",
"!. c #DDDADC",
"~. c #D9D5D6",
"^. c #E0D7CE",
"/. c #E4DACC",
"(. c #E3DED5",
"). c #E3DDDB",
"_. c #E9DFD3",
"`. c #DFE0DA",
"'. c #EAE4DA",
"]. c #ECE8DF",
"[. c #EAE3DA",
"{. c #DEDDE2",
"}. c #E0DDE4",
"|. c #E4E2E7",
" X c #E6E6E9",
".X c #ECE9EB",
"XX c #EAE8E4",
"oX c #F1E7E6",
"OX c #F4EDE4",
"+X c #FAEFE9",
"@X c #EFF0EA",
"#X c #F7F1E5",
"$X c #F8F2EA",
"%X c #F5F3F2",
"&X c #FEFAF5",
"*X c #FDFDFB",
/* pixels */
"0 * ; < ; , ; : 2 B e . # @ # O , 3 t ; + $ $ - & ",
"N g 2 y g c c c Y V 9 : = ; < : 3 , 5 w 5 w r 5 w ",
"P.t.v f N v j b v N v f p h a a a y a s s a s a s ",
"&XJ.D W #.0.} C x C V M V V V C N Y V M V M M N M ",
"3.X.} } ! #.O.{ 3.2.[ [ m M V  .{ { ` { { { { { ` ",
"+XC. .{ +.1.} ` b.&XJ.s : : * b ` W ~ ~ T T Q T P ",
"V.g...y.2.5.[ X.[ 2.Q 9 +.x.P > E =./ Y | / V =.r.",
"OXN.^.+X_.v./.2.] =.1 U o.~ n : 8.K.w.7.(.b.' (.*X",
"L./.oXE.$Xm.'.F.q./ l _ P v e 8 h.I.>.7.N.w.i.'.*X",
"I.P.).U.&XB.[.`.@X/ z x.o.k j j N.I.w.i.8.7.( :.R.",
"'.M.).'.[.B./.XX&Xc.q 4.6.I k ] b.h.q.%.:.( J G n.",
"F.V.^.L.#Xv./.L.].L.u 1.@.L u s.I.K.i.&.-.J H $.A.",
"8.c.g.8.#XX.M.<.M.D.j.f.! z M j.F.a.G G &.G A &.G.",
"^ R E F 7.E ;.%.F.|.Y.n.2.W 9.,.l.l.r # 4 6 4 6 G ",
"y / [ ( E ) ;.~.%X X{.).D.d.a.Z.H.|.R.7 X o X   6 ",
"1 *.V -.w.d d.%X{. X).H.T.}.W.!.{.W. Xa.X o o X i ",
"m e.0 | c.g E.|.XX!.R.T.{.!.}.!.!.W.l.k.7   # X i ",
"J.e.< R j S %XY.T.!.!.R.!.W.{.}.{.k.p.l.Z X o X , ",
"^ w $ $ . z..XG.~.!.R.S.!.{.{.Q.Y.,.u.l.K o % # 4 "
};
