/* XPM */
static const char *micro_odiachen[] = {
/* columns rows colors chars-per-pixel */
"25 19 196 2 ",
"   c #030201",
".  c #0B0401",
"X  c #0E0B09",
"o  c #0F0A06",
"O  c #120504",
"+  c #140D0A",
"@  c #1C0903",
"#  c #16110E",
"$  c #19120C",
"%  c #100E11",
"&  c #161310",
"*  c #1A1412",
"=  c #191813",
"-  c #211008",
";  c #2B1507",
":  c #361202",
">  c #241C19",
",  c #311813",
"<  c #33200F",
"1  c #29211A",
"2  c #38231E",
"3  c #1F1E23",
"4  c #2C2D28",
"5  c #352C25",
"6  c #422C15",
"7  c #4F361A",
"8  c #59371E",
"9  c #552C18",
"0  c #452C25",
"q  c #423628",
"w  c #543E2B",
"e  c #583B2A",
"r  c #5D452D",
"t  c #744E2A",
"y  c #664A3C",
"u  c #674235",
"i  c #7F4F38",
"p  c #685137",
"a  c #2E4E65",
"s  c #464647",
"d  c #4E4D52",
"f  c #59554A",
"g  c #6B5A4C",
"h  c #625E5B",
"j  c #746B5C",
"k  c #7D6853",
"l  c #666867",
"z  c #7B6A65",
"x  c #6D716F",
"c  c #787369",
"v  c #6B7577",
"b  c #737172",
"n  c #7C7D75",
"m  c #974A28",
"M  c #8A5C3B",
"N  c #A7633C",
"B  c #875949",
"V  c #8C694D",
"C  c #886C5E",
"Z  c #88755C",
"A  c #A76744",
"S  c #B16D46",
"D  c #A67354",
"F  c #B87854",
"G  c #866E65",
"H  c #857463",
"J  c #8D7565",
"K  c #857269",
"L  c #8A746D",
"P  c #8D7C6B",
"I  c #897962",
"U  c #917662",
"Y  c #957D65",
"T  c #937B6C",
"R  c #807C77",
"E  c #8B7E76",
"W  c #927D73",
"Q  c #9C7E74",
"!  c #AC7463",
"~  c #7A807E",
"^  c #8B806E",
"/  c #99806C",
"(  c #8C8676",
")  c #948574",
"_  c #9F8873",
"`  c #9B8A7C",
"'  c #97887B",
"]  c #A6826C",
"[  c #BB8464",
"{  c #A38E7A",
"}  c #AB8B77",
"|  c #B8977C",
" . c #C68662",
".. c #D08A70",
"X. c #5A7A87",
"o. c #7E8889",
"O. c #7E90A8",
"+. c #8E8D8C",
"@. c #838A8B",
"#. c #9A8F83",
"$. c #8C918D",
"%. c #939794",
"&. c #989C9E",
"*. c #A79B85",
"=. c #B29884",
"-. c #B89B95",
";. c #AEA38F",
":. c #ABA397",
">. c #A9A59C",
",. c #B3A291",
"<. c #BFAA95",
"1. c #8B9CAC",
"2. c #979FA1",
"3. c #959EAD",
"4. c #9FA8A7",
"5. c #99A2A7",
"6. c #A3A7AB",
"7. c #A5A9A5",
"8. c #B3ADA1",
"9. c #ACB1AD",
"0. c #B5B2AB",
"q. c #B9B3A5",
"w. c #B1AFB2",
"e. c #B0BBBD",
"r. c #C39683",
"t. c #D29C90",
"y. c #D0B999",
"u. c #D9A899",
"i. c #E4AC9B",
"p. c #D5AFAC",
"a. c #C6BFAF",
"s. c #C4B3A7",
"d. c #DFB1A4",
"f. c #C8BFBA",
"g. c #E2B4A4",
"h. c #EFBDB2",
"j. c #D8C09E",
"k. c #D4C3AD",
"l. c #E1C4B5",
"z. c #F6CCBC",
"x. c #EFDBBB",
"c. c #E5D1B8",
"v. c #82B6C6",
"b. c #B6BAC3",
"n. c #BDC4CC",
"m. c #C3C4C3",
"M. c #C5C9CC",
"N. c #CCCACB",
"B. c #DDD8CD",
"V. c #C6CDD3",
"C. c #C9D3D5",
"Z. c #CBD5DC",
"A. c #DBD9D6",
"S. c #D3D5D9",
"D. c #D3DBDC",
"F. c #DBDDDD",
"G. c #D5CAC4",
"H. c #ECCDC1",
"J. c #EDD7C0",
"K. c #E1D7CB",
"L. c #F7DFC3",
"P. c #FCD5C6",
"I. c #E5DDD7",
"U. c #EBE6DD",
"Y. c #E7E2D8",
"T. c #FFE0D0",
"R. c #FFEFD7",
"E. c #F8E7DA",
"W. c #FDF5DB",
"Q. c #FEF4D7",
"!. c #CDD7E0",
"~. c #D9DDE5",
"^. c #DBE3E4",
"/. c #DEE3EB",
"(. c #D8E4EC",
"). c #DAE3F4",
"_. c #E3E4E4",
"`. c #E7E8E0",
"'. c #EDE9E4",
"]. c #E3E6E9",
"[. c #EBEBEA",
"{. c #E9E8E5",
"}. c #F4ECE3",
"|. c #F2EBE8",
" X c #FDEBE1",
".X c #F4F3EE",
"XX c #FDFBED",
"oX c #FAF2E6",
"OX c #EDEFF2",
"+X c #E6EEF1",
"@X c #EFF2F4",
"#X c #F4F2F2",
"$X c #FCFBF5",
"%X c #F3F5F9",
"&X c #F4FBFE",
"*X c #FEFEFD",
/* pixels */
"&.( Z U G H H G z j j H K H I J U K ^ ` :.$X*X*X*X",
"w.>.#.T T P P T J c R L Y ) E T P #.Y.U.q.*X$X*X*X",
"+.b.6.` / ) ) Y J T T Q y p Y W s.$X$X}.a.*X*X$X*X",
"h 5.n.0.` _ { _ ) C e w 2 ; 6 s.$X*X$X|.q.$X*X*X*X",
"7.x M.M.:.} } { ' g - 0 y , @ *.$X*X*X[.8.*X*X*X$X",
"$Xn 9.!.m.=.| ,.] e g l.g.! 9 7 #X*X*X[.8.*X$X*X$X",
"*X0.%.(.C.,.| <.Y : l.R.h...A 7 B.*X$X.X:.*X$X*X*X",
"*XA.o.)./.B.c.J.K.W -.Q } u B t G.*X$X|.' #X$X$X}.",
"$XOX$.D.OX$X$X*X*XH.H.p.r.i D F '.*X$X[.n (.#X*XU.",
"*X%X2.^.*X$XXX$X*X Xz.d.i.m N | $X*X*X.X( &X$X*X$X",
"*X%X&./.*XXXW.XX*X*XH.z.t.m S f..XOXF.`.k.A.I.].F.",
"*X*X6.].*XoXR.R.$X&XoXP.u.A [ +X&X@X~.oXx.I.U.@X^.",
"$X*X%.].*XoXx.L.W.Y.z T.r.M 8 c 4.m.Z.$Xj.A..X#XC.",
"$X*X+.S.%XI.k.c.Q.>.O W =.< . 5 ~ *X&X`.y.{.$XR b ",
"]._.$.C.&XA.*.L f = * . o   X   4 b 6.F.<.D.~.q u ",
"S.M.x V.3.@.1 O X # $ $ % o . X . .   s Z e.b.w [ ",
"Z.m.x 5.3 + * * * * & # + + + + # & *   1 1.O.p  .",
"C.N.l v s # # & & # # # # # + + # # +   > X.a r D ",
"C.N.l v d . # * # # # # # # # # + & +   . v.v.k V "
};
