/* XPM */
static const char *micro_luponce[] = {
/* columns rows colors chars-per-pixel */
"25 19 181 2 ",
"   c #352315",
".  c #3B3320",
"X  c #59351C",
"o  c #582718",
"O  c #643312",
"+  c #563B28",
"@  c #693B22",
"#  c #594834",
"$  c #734226",
"%  c #73512E",
"&  c #6E4B38",
"*  c #784E36",
"=  c #6A5C3F",
"-  c #7F5C34",
";  c #684E46",
":  c #6C534F",
">  c #6A5858",
",  c #675356",
"<  c #705858",
"1  c #745955",
"2  c #676658",
"3  c #796D5D",
"4  c #6A5E60",
"5  c #705B60",
"6  c #616860",
"7  c #746465",
"8  c #796162",
"9  c #7A6669",
"0  c #757265",
"q  c #7D7564",
"w  c #737269",
"e  c #7A756A",
"r  c #7D7A6C",
"t  c #797B70",
"y  c #84522D",
"u  c #844D38",
"i  c #845638",
"p  c #945F3F",
"a  c #8E603B",
"s  c #94633B",
"d  c #A4633B",
"f  c #8F5A48",
"g  c #825C57",
"h  c #80654A",
"j  c #916451",
"k  c #937A5C",
"l  c #886B59",
"z  c #A5724B",
"x  c #A46E52",
"c  c #A67B5B",
"v  c #B37A5C",
"b  c #8A6F66",
"n  c #827C6C",
"m  c #8B756A",
"M  c #816D70",
"N  c #827E73",
"B  c #857778",
"V  c #95787C",
"C  c #A57C6A",
"Z  c #B37F67",
"A  c #7F8078",
"S  c #B38454",
"D  c #87826F",
"F  c #868073",
"G  c #8A8475",
"H  c #85837A",
"J  c #8B857B",
"K  c #8D8A79",
"L  c #97807A",
"P  c #918C7A",
"I  c #9A8E7C",
"U  c #9C8578",
"Y  c #BC8768",
"T  c #AE8370",
"R  c #BD8771",
"E  c #B8927D",
"W  c #C08C64",
"Q  c #877781",
"!  c #947D84",
"~  c #8A7B92",
"^  c #8E8781",
"/  c #9B8582",
"(  c #94848B",
")  c #98848F",
"_  c #968D82",
"`  c #99958C",
"'  c #9E998C",
"]  c #989686",
"[  c #948695",
"{  c #958B95",
"}  c #998C96",
"|  c #9B8E9C",
" . c #95879E",
".. c #9E9D91",
"X. c #9C929D",
"o. c #9C9C9C",
"O. c #949794",
"+. c #A88F8B",
"@. c #A1878A",
"#. c #A4968A",
"$. c #B89086",
"%. c #B3978D",
"&. c #B8988D",
"*. c #A49491",
"=. c #AB9F95",
"-. c #A4959A",
";. c #A8939E",
":. c #A69F99",
">. c #A69996",
",. c #B49D95",
"<. c #A3A38F",
"1. c #B6A08B",
"2. c #A6A092",
"3. c #B2A497",
"4. c #978EA1",
"5. c #9A8EA3",
"6. c #9D93A2",
"7. c #9E92A8",
"8. c #A195A5",
"9. c #A49AA4",
"0. c #A297A8",
"q. c #A79DA8",
"w. c #A99EAF",
"e. c #A39FB0",
"r. c #AA9FB6",
"t. c #97A1A0",
"y. c #98A1A0",
"u. c #AAAAA3",
"i. c #A7ACA8",
"p. c #A8A4AF",
"a. c #B2B3AE",
"s. c #ACA1B0",
"d. c #A9A9B6",
"f. c #B6ACBE",
"g. c #B3A8B6",
"h. c #AFB4B8",
"j. c #BBBAB2",
"k. c #B5BBBA",
"l. c #D29882",
"z. c #C0A59C",
"x. c #DAAC94",
"c. c #DCB8AA",
"v. c #CEBBB6",
"b. c #C6B8AB",
"n. c #BDC1BC",
"m. c #C4C2BC",
"M. c #BBBFC8",
"N. c #B8C1C0",
"B. c #C2C3C3",
"V. c #CBCDC9",
"C. c #C2C7CA",
"Z. c #D7CCCA",
"A. c #CED1CE",
"S. c #D3D3CC",
"D. c #D5D2C2",
"F. c #D2D5D3",
"G. c #D7D9D7",
"H. c #E1D4CC",
"J. c #DFE4DE",
"K. c #D5DFE1",
"L. c #DBE2E3",
"P. c #E3E7E6",
"I. c #E3E9E6",
"U. c #E7ECEF",
"Y. c #EBEEEC",
"T. c #EEE4E5",
"R. c #F6EFE5",
"E. c #F0ECED",
"W. c #EAF0EC",
"Q. c #F3F3ED",
"!. c #E8EFF4",
"~. c #EBF1F4",
"^. c #EFFBF7",
"/. c #EFF9FB",
"(. c #F2F3F3",
"). c #F8F6F2",
"_. c #F6FBF7",
"`. c #FCFBF4",
"'. c #F5F6FB",
"]. c #F4FBFD",
"[. c #FDFEFD",
/* pixels */
"A N n q e w 0 0 e 6 O.`.[.[.R.D.2.r F F r r q 3 2 ",
"a.J N e e 0 0 e 0 w ' D.3.#.D N n F n q r N J _ r ",
"m.V.o.H N N e r r e t 2   # q J n N F j.G.Y.Q.[.a.",
"` h.G.i.J J F H n ^ 2 . + X = _ ' S.j.).[.[.[.[.k.",
"Q.o.k.I.u.K P K P F U R Y W % I [.[.n.[.[.[.[.[.V.",
"[.I.O.L.J...P P K _ c.l.v z a k [.).A._.[.[.[.`.A.",
").[.B.M.].n.` I P =.&.C j $ z y v.`.F.'.[.[.[.[.S.",
"[.[.(.h./.L.` #.] %.E c x s S d z.`.S._.[.[.[.[.S.",
"[.[.[.C.~.'.u.] ` 1.x.R f X i S E.[.S.`.[.[.[.[.V.",
"[.[._.F.~.[.j.] ..,.$.i p O @ R `.[.m.).[.[.[.[.F.",
"[.`.[.G.U.[.m.' <.=.%.T Z u $ a m / *.T.[.[.[.[.F.",
"[.[.[.L.Y.[.j.' <.:.*.l * o @ - g g < Z.[.^._.[.A.",
"[.[.[.G.W.`.m.*.:.f.6.L h & ; ; : : 9 H.`.[.[.[.~.",
"(.Y.[.A.Y.[.B.-.9.r.d.| *.! 9 , 4 M / +.v.Z.i.N.G.",
"Y.P.(.C.U.'.s.| 4.7.r.f. .~ [ B ) ;.-.-.@./ e O.'.",
"].[.].d.L.p.4.5.6.0.| g.q.} X.8.;.X.o.} ! V L b.].",
"'.[.].t.M.e.X.0.7.4.7.s.9.X.X.X.6.| } ( B M 8 ,.~.",
"~.].^.y.d.7.6.s.0.6.6.q.X.} 6.6.6.| ( B 9 5 < b V.",
"K.!.].d.e.5.6.w.0.6.6.9.{ { 8.8.X.[ Q 7 > , 8 1 / "
};
