/* XPM */
static const char *micro_rstride[] = {
/* columns rows colors chars-per-pixel */
"25 19 183 2 ",
"   c #030000",
".  c #230E00",
"X  c #2E2323",
"o  c #2E2D2A",
"O  c #3C312B",
"+  c #3E3C3A",
"@  c #393835",
"#  c #492A0E",
"$  c #462712",
"%  c #533012",
"&  c #562F20",
"*  c #413026",
"=  c #483123",
"-  c #4F372D",
";  c #553B26",
":  c #433938",
">  c #503230",
",  c #643C2C",
"<  c #6E3B26",
"1  c #3F413E",
"2  c #564636",
"3  c #5A483A",
"4  c #584332",
"5  c #77553A",
"6  c #494844",
"7  c #454D42",
"8  c #5A4F4B",
"9  c #4D5852",
"0  c #5C5D55",
"q  c #605040",
"w  c #675A4C",
"e  c #665C50",
"r  c #6C5A54",
"t  c #775C53",
"y  c #78664E",
"u  c #6F6559",
"i  c #7D6951",
"p  c #71675D",
"a  c #7B6C5A",
"s  c #726457",
"d  c #6B6562",
"f  c #6A6A65",
"g  c #66656A",
"h  c #75736D",
"j  c #767266",
"k  c #7A7770",
"l  c #7F7F7A",
"z  c #7B7A76",
"x  c #835C4B",
"c  c #825550",
"v  c #986548",
"b  c #94684F",
"n  c #986744",
"m  c #8A6751",
"M  c #826C59",
"N  c #88745C",
"B  c #A56F4D",
"V  c #8F6A61",
"C  c #9D6661",
"Z  c #837461",
"A  c #857868",
"S  c #8F7E6C",
"D  c #8C7762",
"F  c #927F66",
"G  c #907E68",
"H  c #867C70",
"J  c #A57B62",
"K  c #94816A",
"L  c #9C886F",
"P  c #83827C",
"I  c #8D8175",
"U  c #9C8973",
"Y  c #9C8C7B",
"T  c #958574",
"R  c #A7896F",
"E  c #AB896E",
"W  c #AF8974",
"Q  c #A0887C",
"!  c #B38B71",
"~  c #C1937B",
"^  c #878681",
"/  c #898582",
"(  c #868887",
")  c #8C8A85",
"_  c #8E8E8A",
"`  c #978B83",
"'  c #9A8D83",
"]  c #958B8C",
"[  c #989085",
"{  c #94918C",
"}  c #9D948B",
"|  c #8B8F90",
" . c #80919B",
".. c #929291",
"X. c #9B9792",
"o. c #969897",
"O. c #9E9B93",
"+. c #979998",
"@. c #9C9B99",
"#. c #A98B83",
"$. c #A1958C",
"%. c #A49B8D",
"&. c #A69686",
"*. c #B89987",
"=. c #B09F8F",
"-. c #A49B95",
";. c #AD9C93",
":. c #A49E9B",
">. c #A39690",
",. c #B39D94",
"<. c #ABA295",
"1. c #A5A29C",
"2. c #ABA49A",
"3. c #A3A195",
"4. c #B5A69C",
"5. c #B9A69F",
"6. c #B5A99C",
"7. c #9FA9AB",
"8. c #A4A5A4",
"9. c #ACA6A2",
"0. c #ADACA6",
"q. c #B6ACA3",
"w. c #BBAFA1",
"e. c #B3AEA9",
"r. c #B0A5A3",
"t. c #B3B1AB",
"y. c #BCB0A4",
"u. c #ABB0B3",
"i. c #B2B3B3",
"p. c #BBB6B1",
"a. c #B6B8B7",
"s. c #BAB9B3",
"d. c #BCBDBD",
"f. c #B4B9BD",
"g. c #C09A97",
"h. c #C9AC9C",
"j. c #CABBA4",
"k. c #C2BFBD",
"l. c #BDC4BD",
"z. c #C5C3BD",
"x. c #CDC1B5",
"c. c #B9BDC1",
"v. c #B6C4CD",
"b. c #BBCCD6",
"n. c #C4C4C5",
"m. c #CAC9C6",
"M. c #CCCBCD",
"N. c #C4C9CC",
"B. c #D4CDC3",
"V. c #D8D3CD",
"C. c #D3D4D4",
"Z. c #D7DADD",
"A. c #DBDBDB",
"S. c #D2D6D9",
"D. c #E3DCD4",
"F. c #DFE0DB",
"G. c #E1E1DE",
"H. c #F9E0D9",
"J. c #DBDFE2",
"K. c #D8E6EF",
"L. c #D2E0E9",
"P. c #E5E5E4",
"I. c #E8E7E5",
"U. c #E6E8E5",
"Y. c #EBEAE5",
"T. c #E3E7EB",
"R. c #E4EAEA",
"E. c #ECECEB",
"W. c #F2EBE4",
"Q. c #F0EFED",
"!. c #EEF0EF",
"~. c #F1F1EE",
"^. c #FAF2EA",
"/. c #E9EDF1",
"(. c #EBF1F6",
"). c #E9FAFF",
"_. c #EDF5F8",
"`. c #F4F5F3",
"'. c #F8F7F5",
"]. c #FEFBF6",
"[. c #F4F6F9",
"{. c #F5F9FE",
"}. c #FDFEFD",
/* pixels */
"p.z.V.p.1.X.) z g 9 7 O 8 l.R.F.d + 6 @ o + @ + 1 ",
"/ ) ) ) ) ^ { { $.{ 0 : ] s.s.q.P h P _ / P h f f ",
"i.@....._ ^ l P / o   X X d.}.}.z.t.t.t.0.s.1.t.t.",
"a.n.n.o.( _ / ^ r M x v n 5 y.@.) _ P ) ) ) l _ { ",
"M.| c.S.i..._ _ w h.~ B n % s +...o.m.A.I.}.n.I.!.",
"P.[.c.u.T.d...@.j r > - - 3 h 7.M.M.E.}.}.}.A.[.}.",
"E.E.}.N.f.[.d.@.U V c , ; m Q ].}.G.}.}.}.}.A.[.}.",
"W.E.}.}.c.T.E.8.} g.C < 5 b H.{.].G.~.].}.}.U.`.}.",
"~.~.}.}.T.C.}.n.,.#.x , & t ].}.}.C.[.}.}.}.A.~.}.",
"I.E.}.}.{.Z.}.C.i.d * = . w Y.}.].P.'.}.}.}.E.~.}.",
"I.E.}.}.}.E.}.I.t.' 4 $ # 5 K j.D.B.^.].}.}.C./.}.",
"P.E.}.}.}.I.D.z.5.,.*.W J ! E R &.w.x.W.].}.Z.{.}.",
"E.I.}.}.Q.k.9.X.r.;.4.,.;.;.4.6.=.=.Y 6.^.].J.(.}.",
"}.'.}.`.m.9.1.-.2.<.<.6.2.3.3.O.&.U U K 6.O.8._.{.",
"[.}.}.A.p.e.e.2.%.<.%.<.<.<.<.$.T S D K Y p 0.}.[.",
"}.}.A.k.e.t.q.<.-.-.:.:.9.-.>.` S a i N G ' z.}.{.",
"(.}.P.s.-.X.p.1.} } } -.-.-.$.T F i q H Z U -.b.K.",
"/.{.C.0.) { e.:.} } } $.>.} ` A N i 2 u Z L %. .v.",
"T.[.z.1.k ) 9.O.} } [ } } ` I a y M 2 e a F D.).L."
};
