/* XPM */
static const char *micro_kethouve[] = {
/* columns rows colors chars-per-pixel */
"25 19 205 2 ",
"   c #020204",
".  c #03050B",
"X  c #05090D",
"o  c #080808",
"O  c #060B12",
"+  c #0B0C14",
"@  c #030E1A",
"#  c #0D0711",
"$  c #081117",
"%  c #141212",
"&  c #191B16",
"*  c #0D1124",
"=  c #091D28",
"-  c #131825",
";  c #2A2E2F",
":  c #2D2D37",
">  c #312F30",
",  c #283736",
"<  c #333B3E",
"1  c #332826",
"2  c #162F33",
"3  c #40362C",
"4  c #603F2C",
"5  c #694839",
"6  c #4F4F2B",
"7  c #1C3643",
"8  c #292E41",
"9  c #403A44",
"0  c #4E4A45",
"q  c #524B45",
"w  c #465045",
"e  c #5C5241",
"r  c #58544A",
"t  c #42565F",
"y  c #5B5B5B",
"u  c #664E42",
"i  c #694B41",
"p  c #67564C",
"a  c #785746",
"s  c #675956",
"d  c #705453",
"f  c #5C6143",
"g  c #5E645D",
"h  c #676543",
"j  c #6A6459",
"k  c #696658",
"l  c #7A6A57",
"z  c #7A755A",
"x  c #766D4C",
"c  c #565D63",
"v  c #545363",
"b  c #5D6563",
"n  c #51636C",
"m  c #576467",
"M  c #5F7F7E",
"N  c #6C6964",
"B  c #6A6A6B",
"V  c #696867",
"C  c #726B63",
"Z  c #7A6E69",
"A  c #7E7566",
"S  c #777566",
"D  c #6F7574",
"F  c #737573",
"G  c #787673",
"H  c #787B76",
"J  c #687272",
"K  c #80593C",
"L  c #855E4D",
"P  c #93684E",
"I  c #866553",
"U  c #906A55",
"Y  c #93705D",
"T  c #A07C58",
"R  c #816A64",
"E  c #8B776A",
"W  c #8B7D6E",
"Q  c #877967",
"!  c #90796B",
"~  c #887A76",
"^  c #907F75",
"/  c #7D825A",
"(  c #618E77",
")  c #7E837A",
"_  c #CEA33D",
"`  c #A58749",
"'  c #888767",
"]  c #82837D",
"[  c #88877A",
"{  c #95817A",
"}  c #968A78",
"|  c #99977B",
" . c #A8836C",
".. c #B88D6D",
"X. c #AC8C73",
"o. c #B88B78",
"O. c #AFA779",
"+. c #D2B265",
"@. c #577786",
"#. c #7F8C9C",
"$. c #7C9193",
"%. c #788186",
"&. c #4C85A0",
"*. c #6B90A2",
"=. c #7299A0",
"-. c #6A95B5",
";. c #44A4BC",
":. c #77A7B3",
">. c #49A6CF",
",. c #65B5CE",
"<. c #56B9E0",
"1. c #4DB8E6",
"2. c #74C8ED",
"3. c #838781",
"4. c #8B8683",
"5. c #888989",
"6. c #938A81",
"7. c #9E8D85",
"8. c #8D938E",
"9. c #8A9086",
"0. c #99958A",
"q. c #8E8C94",
"w. c #8C9493",
"e. c #82939B",
"r. c #9C9E9E",
"t. c #9A9893",
"y. c #A29389",
"u. c #A59988",
"i. c #A69C93",
"p. c #A39995",
"a. c #B89D94",
"s. c #88A299",
"d. c #ADA080",
"f. c #A6A29A",
"g. c #B0A391",
"h. c #B5A69B",
"j. c #AFB19C",
"k. c #B5B79F",
"l. c #8D92A5",
"z. c #9598A6",
"x. c #9EA5A5",
"c. c #9BA9AB",
"v. c #90ADB3",
"b. c #9CB3BB",
"n. c #A3A4A2",
"m. c #A6A9A3",
"M. c #A3AEAA",
"N. c #BDB3A4",
"B. c #B9B6AC",
"V. c #A3ABB4",
"C. c #B0A3B4",
"Z. c #A9B5B9",
"A. c #BBBBB5",
"S. c #B3B9BD",
"D. c #B9BABD",
"F. c #A4B2A5",
"G. c #C2A399",
"H. c #C6B69F",
"J. c #C7B8A9",
"K. c #C4BEB2",
"L. c #C2B2B3",
"P. c #CEC4BC",
"I. c #CAC4B7",
"U. c #D9C9B9",
"Y. c #9FB2C1",
"T. c #ADB9C2",
"R. c #B6B5C5",
"E. c #C1BDC3",
"W. c #BBC1C3",
"Q. c #BBC3CC",
"!. c #BFCCD5",
"~. c #BEC6D1",
"^. c #BCCAE4",
"/. c #C2C4CA",
"(. c #C6C9C8",
"). c #D7D4C9",
"_. c #C3CBD2",
"`. c #CACDD3",
"'. c #C4CEDA",
"]. c #CCCBDB",
"[. c #C7D3D9",
"{. c #CBD4DC",
"}. c #CBD7D7",
"|. c #D3DCDD",
" X c #DDDCD8",
".X c #E3D9CB",
"XX c #ECDBD3",
"oX c #E4E3CF",
"OX c #E6E1D2",
"+X c #E8E5DA",
"@X c #F3EAD8",
"#X c #EEF1DE",
"$X c #FCE2C9",
"%X c #CEDAE5",
"&X c #D1DAE4",
"*X c #D5DDEA",
"=X c #D7D8F2",
"-X c #D7E1EE",
";X c #DDE3EB",
":X c #DEE6F3",
">X c #DEE8F2",
",X c #FCFAE8",
"<X c #FFFDF2",
"1X c #FAF7F8",
"2X c #E9E8E6",
/* pixels */
"&X{.Q.S.M.x.n.K.t.) 9.[ H 3.b m c F 9.] 3.r.x.x.Z.",
"}.&X%X{.[.'./. X#X).+X+X).A.S.Z.T.W._./.`.{.&X;X>X",
"|.[.'.!.!.'.~.|.,XoX,X<X<X2X;X&X-X%X*X:X&X*X-X:X*X",
"m.D.`._._.'._.}.,X#X,X).B.(.|.%X&X%X&X&X&X*X&X*X;X",
"r q 4.] G H r.f.A.B.i.} 7.6.n.Q.D.S._.S.Z.D.`.S.r.",
"l Z j k k Z N [ C p R G.G.a.s B S ] D D N C N 0 0 ",
"H.J.U.} g.P.~ p.h.{ i a L 5 u Z i.0.B 8.] A Q q 3 ",
"u.N.| z z p.4.E.OXg.5 U  .I p N..XI.w.m.f.W I.K.y.",
"e h h y.h S V.OX,X@X .P P Y E 1X1X1Xc.w.x f / | | ",
"l p E A Q y.C.A.K.U.y.d 5 5 P..XI.(./.L.E e 6 ' ' ",
"p V k k j j f.B.5.s { I 4 a h.C W t.l.j S g k 0.0.",
"G g w Z ~ d.$XXXz.: ! ..K X.} < 7.`.^.) m c s F B ",
"D r V 4.[ u.J.H , % 1 d L u > ; 9 %.T.u.q.F 0 c F ",
") 8.3.^ k $.v . @ - .   # . + - - X t n.B 5.H J ] ",
"4.c.y o.6.*.8 . + @ O . @ $ + * $ O 7 #.B n J F.9.",
"s.$.k T 0.=.& . + o X O %   O X * . , k.O.b m Z.$.",
"Z.w.T.W.].V..   X X X X O O O O @   < U.` -.M i.v.",
"q.E.=XR.=Xz.  o . . . . . . . X X   2 :.( 2.,.@.b.",
"_ +.j.w.Y.n   o .     . . . . . #   = >.;.<.1.&.e."
};
