/* XPM */
static const char *micro_lalouis[] = {
/* columns rows colors chars-per-pixel */
"25 19 205 2 ",
"   c #273639",
".  c #5B4E3E",
"X  c #5A583A",
"o  c #2E3A49",
"O  c #2A3944",
"+  c #333B47",
"@  c #373A48",
"#  c #42364A",
"$  c #3B444D",
"%  c #33434A",
"&  c #3A4555",
"*  c #394D72",
"=  c #484449",
"-  c #534C4A",
";  c #534844",
":  c #4E534F",
">  c #53584C",
",  c #504758",
"<  c #4B535C",
"1  c #55575C",
"2  c #444758",
"3  c #705D56",
"4  c #5D6247",
"5  c #706C4F",
"6  c #72724E",
"7  c #64625B",
"8  c #6B695B",
"9  c #6A665B",
"0  c #7C6158",
"q  c #766559",
"w  c #747F54",
"e  c #4B5462",
"r  c #435566",
"t  c #545F6A",
"y  c #565864",
"u  c #615C70",
"i  c #645A65",
"p  c #4F6467",
"a  c #5E666A",
"s  c #5B6665",
"d  c #4C6174",
"f  c #646664",
"g  c #636964",
"h  c #6C6C64",
"j  c #64696E",
"k  c #6C6965",
"l  c #726B69",
"z  c #6D716B",
"x  c #68756D",
"c  c #797264",
"v  c #77776B",
"b  c #656B71",
"n  c #696F76",
"m  c #6A6B76",
"M  c #726F73",
"N  c #737473",
"B  c #737872",
"V  c #7B7A79",
"C  c #6B7871",
"Z  c #896552",
"A  c #8D6A5A",
"S  c #936C5F",
"D  c #817E57",
"F  c #81766D",
"G  c #8D796D",
"H  c #867866",
"J  c #9B7564",
"K  c #98796F",
"L  c #837D72",
"P  c #8C7871",
"I  c #927F79",
"U  c #A4776A",
"Y  c #AD7169",
"T  c #B17669",
"R  c #A87D78",
"E  c #79867D",
"W  c #818163",
"Q  c #8A8566",
"!  c #9E846D",
"~  c #8D847B",
"^  c #868679",
"/  c #988778",
"(  c #9F9A7A",
")  c #A8856C",
"_  c #A78973",
"`  c #B58C77",
"'  c #BB8A72",
"]  c #B1857A",
"[  c #A59F7F",
"{  c #B59179",
"}  c #CAB042",
"|  c #D8BB6D",
" . c #527186",
".. c #4D7F96",
"X. c #6D7F8A",
"o. c #727F87",
"O. c #857F81",
"+. c #987D82",
"@. c #3D92B7",
"#. c #3E88A5",
"$. c #66818C",
"%. c #758181",
"&. c #7B8181",
"*. c #7C888E",
"=. c #638591",
"-. c #7B969F",
";. c #669198",
":. c #579FB8",
">. c #538BA4",
",. c #6C8EA7",
"<. c #7A9AA7",
"1. c #71ADB8",
"2. c #47BFF4",
"3. c #6BCAF6",
"4. c #828482",
"5. c #848B8C",
"6. c #8C8F8E",
"7. c #8A8B83",
"8. c #948B86",
"9. c #95928A",
"0. c #9A998E",
"q. c #999589",
"w. c #838C93",
"e. c #908A96",
"r. c #939B94",
"t. c #93949B",
"y. c #929A9B",
"u. c #9E9996",
"i. c #8C9793",
"p. c #AC9180",
"a. c #B69685",
"s. c #A39C92",
"d. c #86A391",
"f. c #9BA79E",
"g. c #A1A09B",
"h. c #B9AA95",
"j. c #B4AA92",
"k. c #8B97A8",
"l. c #969FA0",
"z. c #9C9DA6",
"x. c #9195A0",
"c. c #849FB2",
"v. c #8DA7A8",
"b. c #99A3A6",
"n. c #9BA3A9",
"m. c #93A6A4",
"M. c #99B3B8",
"N. c #A9A8A8",
"B. c #B0ACA4",
"V. c #B9ACA1",
"C. c #B5AAAE",
"Z. c #ACB7AF",
"A. c #AAADB1",
"S. c #A3A9B7",
"D. c #ACB7BC",
"F. c #B7B8B9",
"G. c #C39282",
"H. c #C89988",
"J. c #D5A891",
"K. c #C9AFA0",
"L. c #C2B7A9",
"P. c #C9BDB1",
"I. c #E9B6A4",
"U. c #F0B8A1",
"Y. c #E9B1B2",
"T. c #ACC0BF",
"R. c #D1CEAF",
"E. c #CDC7B7",
"W. c #D7C6B8",
"Q. c #D6D3B0",
"!. c #F3D5BB",
"~. c #9DBAC0",
"^. c #ADBBC2",
"/. c #A3BAC8",
"(. c #C1B7C2",
"). c #B6C4C7",
"_. c #BDCDD3",
"`. c #B8CADA",
"'. c #BFD0D7",
"]. c #BDD2E3",
"[. c #C3C9C5",
"{. c #D4C9C3",
"}. c #C3C9D5",
"|. c #C6D5DD",
" X c #D1D5C4",
".X c #E2D6C3",
"XX c #EBEFD8",
"oX c #EDE8CB",
"OX c #D2CFE0",
"+X c #C3D4E2",
"@X c #CAD7E2",
"#X c #CCDCE4",
"$X c #CADBEA",
"%X c #C6DCE7",
"&X c #D4DEE5",
"*X c #D5DFE7",
"=X c #CCD8F4",
"-X c #CCE2E9",
";X c #D3E2EB",
":X c #DAE4E3",
">X c #D4E2F3",
",X c #DBEAF8",
"<X c #E8EDE9",
"1X c #FAF9EC",
"2X c #FAFBF8",
/* pixels */
"#X@X+X_.).^.^.D.Z.E.E.g.y.y.5.*.w.t.A.A.A.D.)._.@X",
"}.|.+X'.+X+X+X$X#X<X<X:X|.|.#X+X#X;X;X;X>X>X>X,X,X",
"<X&X'.+X+X+X+X].].}.:X;X-X#X$X$X%X#X-X;X@X;X>X$X>X",
"0.r.[.).D.D._.'.`.*XF.6.5.A.*X$X>X=X$X$X#X|.&X*X#X",
". ; h l 7 f B 5.o.V 0 0 0 G 9.l.t.t.S.b.5.6.N.n.B ",
"G ~ ~ v F 8.k N ^ q ) G.G.H.H h L L B h z 9 7 : - ",
".XW..X/ j.{.6.t.P._ ` G.G.` ! q.L.B.5.b.N.9.s.B.7 ",
"Q ( Q D 5 c 4.}.1Xp.Z A J Z K {.1X2Xn.l.0.H p.Q.R.",
"q X 6 j.D Q ^.{.XXG.Y R H.T ] W.2X1XT.N.L 4 4 w W ",
"q 9 F l c I z.F.V.! T T U U U V.W.E.D.N./ 8 X W h.",
"> g k x h q L. Xw.1 S Y S J _ 9 / C.S.M 7 z 9 4.9.",
"v g - z 8.h.!.oXS.y A ' R R a.l q.OX=Xb.&.n 1 b &.",
"V x N u.L r.B.[.e.= ! ) H K a.m ~ }./.f.y.*.g : V ",
"4.d.E ~ C ;.c.=.+ $ K.J.a.H.I.~ < o.<.m.%.$.i.E 7.",
"E m.h { 0.,.d r O $ +.Y.I.U.I.P 2 t  .X.%.p s M.r.",
"v.k.N ' N.* $   = f a M / ^ C u i : r e ^ E g m.v.",
"~.f.).|.k.O @ ; y b b j n j b < 1 , & & e 1.>.O.M.",
"x.(.=X}.t   + # < a j j b n n y + @ % & o :.3...-.",
"} | B.n.O     O < n b a s b b < o $ % + + #.2.@.$."
};
