/* XPM */
static const char *micro_mounali[] = {
/* columns rows colors chars-per-pixel */
"25 19 191 2 ",
"   c #0A0008",
".  c #1C0E02",
"X  c #160C0D",
"o  c #1A1005",
"O  c #1E1108",
"+  c #150E15",
"@  c #1A1612",
"#  c #1E1B15",
"$  c #1B1D1C",
"%  c #240C02",
"&  c #281710",
"*  c #221E1C",
"=  c #2F1A15",
"-  c #3D220D",
";  c #2C241A",
":  c #2E2C1F",
">  c #33291E",
",  c #34251E",
"<  c #272524",
"1  c #362D23",
"2  c #382F28",
"3  c #392F26",
"4  c #36322D",
"5  c #3F362B",
"6  c #2B2831",
"7  c gray19",
"8  c #3B3332",
"9  c #3D3938",
"0  c #43311C",
"q  c #56371D",
"w  c #4F260E",
"e  c #632B14",
"r  c #6C3A17",
"t  c #502F26",
"y  c #453B31",
"u  c #4A3C31",
"i  c #573A28",
"p  c #7F431E",
"a  c #45413B",
"s  c #4F433A",
"d  c #5A4538",
"f  c #774927",
"g  c #644F3E",
"h  c #7A5E36",
"j  c #675839",
"k  c #403B41",
"l  c #4C4A44",
"z  c #4E4F49",
"x  c #524D44",
"c  c #564D45",
"v  c #595449",
"b  c #564D52",
"n  c #5E5951",
"m  c #63594B",
"M  c #645343",
"N  c #675F52",
"B  c #6A5D53",
"V  c #745B54",
"C  c #67615B",
"Z  c #6D655C",
"A  c #6F695B",
"S  c #74655B",
"D  c #78675A",
"F  c #6B6861",
"G  c #726B63",
"H  c #7A6E62",
"J  c #7A6F69",
"K  c #726A65",
"L  c #7B7267",
"P  c #76736C",
"I  c #7D746B",
"U  c #7B786F",
"Y  c #7E7570",
"T  c #7F7B72",
"R  c #824B2D",
"E  c #85552F",
"W  c #93582C",
"Q  c #AF6538",
"!  c #81594D",
"~  c #9C5C41",
"^  c #856854",
"/  c #AA7C5A",
"(  c #9B6D60",
")  c #83736C",
"_  c #8A7768",
"`  c #81796E",
"'  c #847467",
"]  c #857C73",
"[  c #897C72",
"{  c #827D7C",
"}  c #837670",
"|  c #987764",
" . c #8B8076",
".. c #87837C",
"X. c #8C837B",
"o. c #8F8878",
"O. c #878175",
"+. c #918374",
"@. c #93867B",
"#. c #968B7E",
"$. c #9C8B7D",
"%. c #998175",
"&. c #B88668",
"*. c #D08A57",
"=. c #CB8F6D",
"-. c #C8967D",
";. c #E8A77F",
":. c #797E81",
">. c #8F8C85",
",. c #938B83",
"<. c #9B8D82",
"1. c #9C9087",
"2. c #96928A",
"3. c #9B938A",
"4. c #979185",
"5. c #9A9692",
"6. c #9D9A94",
"7. c #9E9C9D",
"8. c #AE8E83",
"9. c #A89587",
"0. c #AE9B82",
"q. c #A2948B",
"w. c #A39A8F",
"e. c #AA9A8A",
"r. c #B59888",
"t. c #BA9A81",
"y. c #A49A93",
"u. c #A99D94",
"i. c #A7A193",
"p. c #ABA295",
"a. c #A8A19B",
"s. c #B2A59D",
"d. c #B8A894",
"f. c #AB9FA1",
"g. c #9CA0A1",
"h. c #A0A0A0",
"j. c #AAAAA6",
"k. c #B9ADA3",
"l. c #BCB4AA",
"z. c #BCB3A2",
"x. c #BAB6B3",
"c. c #B6BABB",
"v. c #B8BAB5",
"b. c #C99B84",
"n. c #CFAB87",
"m. c #C8A48B",
"M. c #D4A68C",
"N. c #CAA996",
"B. c #C3BAAE",
"V. c #D7B2A2",
"C. c #C1BCB4",
"Z. c #E1B8A2",
"A. c #C1C3BA",
"S. c #FCD0B5",
"D. c #FFE0B9",
"F. c #BCC0C3",
"G. c #C1C5C4",
"H. c #CACCC2",
"J. c #C8CCCB",
"K. c #D4CFCC",
"L. c #D2D1CD",
"P. c #CDCED2",
"I. c #D2D5D3",
"U. c #DEDCD5",
"Y. c #D7D8DA",
"T. c #DADBDB",
"R. c #E5DBCF",
"E. c #FCDCCB",
"W. c #FADAC5",
"Q. c #E1DEDB",
"!. c #FFE1CE",
"~. c #EDE0D7",
"^. c #E6E2DE",
"/. c #EAE3DC",
"(. c #D9DDE0",
"). c #EFEDE4",
"_. c #E2E7EA",
"`. c #E5E9EB",
"'. c #EBECEB",
"]. c #E6E6E5",
"[. c #F2ECE3",
"{. c #F0EFED",
"}. c #F1F1EB",
"|. c #EEF1F4",
" X c #F5F5F1",
".X c #FAF6F5",
"XX c #FDFBF5",
"oX c #F2F6F9",
"OX c #F6FAFB",
"+X c #FDFEFD",
"@X c #F2F8F6",
/* pixels */
"} ] O.o.#.#.] C l I i.p.k.$.' N B m L ` I U G n C ",
"K G Z Z A H J F S L ,.l.^.OX).0.s.k.l.k.l.B.B.i.C.",
") I I L I J J C v.}.+XXX)./.l.,.@. .` H H H L A H ",
") L L J } Y Y G H.R.[ s > 0 d ) [ ` ` ` X.X.T P 3.",
"] ] ] ) ) L U U S 8   X < # o g  .4.l.L.^..X'.h.'.",
"@.[  . .[ [ ] ..K , ^ &.*.W - * 3.[.+X+X+X+X+XG.OX",
"x.6.X.@.+.@. .>.B M E.S.;.Q f & ..{.+X+X+X+X+XG.@X",
"`.x.,.<.@.#.X.5.b ) m.&.b.w i q 5. X+X+X+X+X+XA..X",
"`.`.j.,.<.$.@.2.{ t.m.-.=.w f E e.{.+X+XXX+X+XL. X",
"(.OXL.3.q.q.1.2.q.Z.!.W.&.e ~ R ^ [.+X+X+X+X+XH. X",
"F.+X Xa.1.q.3.3.7.N.E.8.d = - j d./.+X+X+X+X+XA. X",
"c.oX+XC.3.y.3.6.7.9.%.! ( t % f.}.T.+XXX+X.X+XI.}.",
"P.|.+XK.q.u.q.y.6.i.n 1 8 * . k.U.L.+X+X+X+XXXv.'.",
"Y.'.+XU.q.w.u.y.{ r.V.V 6 + q h +.R.XXOX+X+X+Xc.'.",
"Y.'.+XQ.y.u.s.,.F D 0.D.n.r p q 0 _ ~.+X+XOX+XI.'.",
"T.|.+XQ.y.p.p.` k < 8 | M./ f 3 : o u U.+X+XXXc.'.",
"I.].+X].w.z.o.v z l x n c D d y > ; 1 d $.s.P :._.",
"J._.+Xj.] X.I c l x G l 2 . O * > x 5 5 m s 4 g.+X",
"oX|.I.9 a c l * $ 9 z 7 @ @ # $ ; 4 # # y ; a x.+X"
};
