/* XPM */
static const char *micro_svidal[] = {
/* columns rows colors chars-per-pixel */
"25 19 200 2 ",
"   c #060200",
".  c #0A0200",
"X  c #080A00",
"o  c #140301",
"O  c #1B0303",
"+  c #1A0901",
"@  c #150D09",
"#  c #1C0D0A",
"$  c #1C1607",
"%  c #250500",
"&  c #2C0401",
"*  c #230D03",
"=  c #2A0D0A",
"-  c #240A0B",
";  c #3C0A04",
":  c #3C0B08",
">  c #2C130D",
",  c #221A0F",
"<  c #331607",
"1  c #291715",
"2  c #351C15",
"3  c #3B1715",
"4  c #3D2405",
"5  c #38271A",
"6  c #2C2E21",
"7  c #313222",
"8  c #4A0C09",
"9  c #480706",
"0  c #5B0A06",
"q  c #540C0C",
"w  c #530001",
"e  c #461609",
"r  c #431311",
"t  c #571715",
"y  c #640C0C",
"u  c #640702",
"i  c #66110D",
"p  c #730A11",
"a  c #6B1912",
"s  c #6C1A1B",
"d  c #761718",
"f  c #572907",
"g  c #422618",
"h  c #4D2410",
"j  c #51261A",
"k  c #542A1E",
"l  c #50311F",
"z  c #623516",
"x  c #793913",
"c  c #5A1728",
"v  c #452823",
"b  c #562D26",
"n  c #543328",
"m  c #583A34",
"M  c #612421",
"N  c #7E3F3A",
"B  c #42433E",
"V  c #5D4132",
"C  c #51473B",
"Z  c #68412B",
"A  c #7D4220",
"S  c #644537",
"D  c #7B4636",
"F  c #7F5130",
"G  c #5C4442",
"H  c #5E5B54",
"J  c #694C48",
"K  c #7D4342",
"L  c #695146",
"P  c #795945",
"I  c #765E57",
"U  c #6C595B",
"Y  c #736454",
"T  c #7A665C",
"R  c #7D6C5E",
"E  c #77655B",
"W  c #696964",
"Q  c #7F6E69",
"!  c #756A64",
"~  c #7D7A65",
"^  c #7E7168",
"/  c #92191E",
"(  c #883A15",
")  c #841E23",
"_  c #881D23",
"`  c #921C23",
"'  c #84343F",
"]  c #8C451C",
"[  c #A1451C",
"{  c #824121",
"}  c #9C5F26",
"|  c #945439",
" . c #AB4E2D",
".. c #C26A3C",
"X. c #825D55",
"o. c #85695C",
"O. c #9B6051",
"+. c #976858",
"@. c #8A735F",
"#. c #81725F",
"$. c #B66048",
"%. c #B87444",
"&. c #A96653",
"*. c #BB755B",
"=. c #836D63",
"-. c #8A6B65",
";. c #837262",
":. c #87756E",
">. c #8C756B",
",. c #8C7A6D",
"<. c #897868",
"1. c #92756C",
"2. c #927C6A",
"3. c #907E66",
"4. c #8C7B73",
"5. c #817E75",
"6. c #927F74",
"7. c #9C7E73",
"8. c #9B7574",
"9. c #A17471",
"0. c #D37C55",
"q. c #95816E",
"w. c #8D8476",
"e. c #958274",
"r. c #93857A",
"t. c #9C8475",
"y. c #B5826E",
"u. c #A38576",
"i. c #A38A7C",
"p. c #A4857B",
"a. c #CB886C",
"s. c #D0836F",
"d. c #D9947D",
"f. c #EE977B",
"g. c #7F8D90",
"h. c #8D8A87",
"j. c #9B8883",
"k. c #95918E",
"l. c #898D90",
"z. c #949792",
"x. c #A78F83",
"c. c #AF938B",
"v. c #A39587",
"b. c #A69B97",
"n. c #B8908E",
"m. c #ACA18F",
"M. c #BDA99E",
"N. c #9EABB1",
"B. c #A5A3A7",
"V. c #B5ACAB",
"C. c #BAACA9",
"Z. c #B1B3A8",
"A. c #BBAFBB",
"S. c #B9B8B7",
"D. c #A9B4B8",
"F. c #DA9D80",
"G. c #C69E92",
"H. c #E59D87",
"J. c #E9A88B",
"K. c #FFAA8F",
"L. c #FBB38D",
"P. c #F4B59B",
"I. c #C6B3AD",
"U. c #CCB2AD",
"Y. c #EBB4A3",
"T. c #E7B2A0",
"R. c #C7C2BA",
"E. c #F6C3A6",
"W. c #ADBBC0",
"Q. c #BCC9CB",
"!. c #CECEC9",
"~. c #C8CAC7",
"^. c #DDCFC6",
"/. c #D5D3CC",
"(. c #D7D3C9",
"). c #D5D8D7",
"_. c #E1D7CE",
"`. c #F0DACF",
"'. c #E3DDD8",
"]. c #EDE6DD",
"[. c #D3DAE2",
"{. c #D6E8E9",
"}. c #DCF5EF",
"|. c #D8ECF1",
" X c #DBF6F8",
".X c #E5EDEA",
"XX c #E7F2EC",
"oX c #FEF5EC",
"OX c #E5ECF3",
"+X c #F1EFF0",
"@X c #E4F4FC",
"#X c #EDF5FF",
"$X c #EBF8FC",
"%X c #E4F7F9",
"&X c #F6F4F5",
"*X c #FFF3F3",
"=X c #FEFBF2",
"-X c #F2FBFE",
";X c #FDFEFD",
":X c #F5F5FB",
/* pixels */
"o.o.Y Y E I E Y U :.m.~ ,.8.>.~ @.;.T =.;.<.w.:.W ",
"4.=.R R T E T Y ! ! Y @.V l P +.#.R v.I.(.].oX*XS.",
"B.h.:.>.;.;.=.=.! ^ =.v o X + t v.R.'.;X;X;X;X;X!.",
"Q.S.j.>.2.<.>.1.5.4.J 3 # o b 9 L ^.].;X;X;X;X;X!.",
"W.).V.6.q.3.2.1.5.=.m n Z a.0...< M.].;X;X;X;X;XR.",
"g.[.).b.6.2.e.,.r.G v m y.f.0.%.h -.oX;X;X;X;X;X/.",
"l.Q.|.S.r.t.u.e.7.v 2 -.O.d.| z h S =X;X;X;X;X;X!.",
"S.D. X).j.u.i.r.1.* v Y.J.L.] ] e V =X;X;X;X;X;XR.",
").B.#X{.b.p.i.x.X.  N K.F.s.(  .$ 5 oX;X;X;X;X;X/.",
".XA.@X%XC.p.e.c.S   k P.E.*.A z   5 `.;X;X&X;X;X/.",
"XXA.#X XV.i.v.c.v   g Y.P.$.{ o . * I.;X-X;X;X;X/.",
"&XS.OX-XS.t.m.=.= o 3 T.H.[ x , @ . Q ;X;X;X:X;X).",
"+XW.#X-XZ.x.+.> o 1 % y.J.} f $ . @ 1 _.=X;X;X;X~.",
"&XN.@X:XI.D 8 O X O > F a.%.( D # . o V =X;X~.H B ",
".X[.|.$Xn.w 8 & > O g &.H.d.$.&.+ O = & 7.;Xz.5 W ",
"%X:X X}.' p ; ; 9 c * F O.S Z 4 O - 3 9 j *Xk.C l.",
":X@X%XU.i t 9 : y ) s r 2 7 6 > y a 0 r % G.q.I w.",
"OX@XOX9.y q q ; p ` _ s M b b t d i i : % j P L :.",
"OX@X{.K u 0 8 ; p / ` ) d a s d d a 0 & & e o.J z."
};
