/* XPM */
static const char *micro_hhecquet[] = {
/* columns rows colors chars-per-pixel */
"25 19 197 2 ",
"   c #040202",
".  c #090907",
"X  c #070709",
"o  c #0C0B0C",
"O  c #0C0606",
"+  c #120D0C",
"@  c #190B0A",
"#  c #13120A",
"$  c #1B120B",
"%  c #131312",
"&  c #1B1612",
"*  c #1B1A18",
"=  c #1D1A13",
"-  c #221B14",
";  c #281E15",
":  c #291D19",
">  c #2A241D",
",  c #26221F",
"<  c #302418",
"1  c #2E2B25",
"2  c #2B2A2D",
"3  c #292624",
"4  c #332E27",
"5  c #3F2F22",
"6  c #302F2D",
"7  c #35322C",
"8  c #3D362E",
"9  c #312F32",
"0  c #3B3531",
"q  c #3D3932",
"w  c #4E361E",
"e  c #4A3927",
"r  c #483928",
"t  c #493E38",
"y  c #4E443C",
"u  c #534335",
"i  c #52453B",
"p  c #5B4938",
"a  c #4F4440",
"s  c #464447",
"d  c #504541",
"f  c #544940",
"g  c #5A4B42",
"h  c #5F5347",
"j  c #5C544B",
"k  c #545353",
"l  c #5F5A51",
"z  c #575759",
"x  c #694F40",
"c  c #675747",
"v  c #62564A",
"b  c #69574D",
"n  c #65584F",
"m  c #6B5C4D",
"M  c #6D5B47",
"N  c #705A44",
"B  c #72594D",
"V  c #6D5D52",
"C  c #615E55",
"Z  c #705F55",
"A  c #7D634C",
"S  c #666257",
"D  c #6D6154",
"F  c #6F665F",
"G  c #65625B",
"H  c #736355",
"J  c #736459",
"K  c #7B6A5D",
"L  c #7D675C",
"P  c #6E696C",
"I  c #686562",
"U  c #736963",
"Y  c #716C6C",
"T  c #7E7065",
"R  c #74726E",
"E  c #7C746B",
"W  c #7C7574",
"Q  c #7E7A75",
"!  c #7D787C",
"~  c #846757",
"^  c #846D55",
"/  c #85725D",
"(  c #A57C5C",
")  c #816F61",
"_  c #857462",
"`  c #8C7563",
"'  c #84766B",
"]  c #86786B",
"[  c #8C7C6C",
"{  c #8B7868",
"}  c #927A64",
"|  c #927D6A",
" . c #837C73",
".. c #837C7A",
"X. c #887E7D",
"o. c #8B7E76",
"O. c #937D70",
"+. c #A47A61",
"@. c #9B8168",
"#. c #92836E",
"$. c #8C847E",
"%. c #8F8373",
"&. c #938575",
"*. c #9B8373",
"=. c #9D8975",
"-. c #94857C",
";. c #9D8C7D",
":. c #A8826F",
">. c #B18868",
",. c #A38C75",
"<. c #AD8D72",
"1. c #A58F7A",
"2. c #AA937A",
"3. c #B3937D",
"4. c #C09477",
"5. c #8B8A86",
"6. c #918E86",
"7. c #968C8A",
"8. c #9C9688",
"9. c #9B9489",
"0. c #979494",
"q. c #979893",
"w. c #9E9B91",
"e. c #9B9690",
"r. c #B38F81",
"t. c #A29384",
"y. c #A49B8C",
"u. c #AA9888",
"i. c #B89B89",
"p. c #A49D95",
"a. c #A99F96",
"s. c #A09F9D",
"d. c #A09694",
"f. c #BDA38B",
"g. c #AAA097",
"h. c #ABA29D",
"j. c #B6A498",
"k. c #B1A99F",
"l. c #ABA5A3",
"z. c #ADA9A5",
"x. c #AFAEAC",
"c. c #ABA6AA",
"v. c #B0A7A0",
"b. c #B7AEA6",
"n. c #B4ADAB",
"m. c #B6B1AE",
"M. c #BCB3AD",
"N. c #B7B3B1",
"B. c #BFBBB8",
"V. c #C3A48F",
"C. c #C5A692",
"Z. c #D4AE99",
"A. c #C2B39E",
"S. c #C4B5A7",
"D. c #C1B9AF",
"F. c #C9BBAE",
"G. c #D0B7A1",
"H. c #C2BDBB",
"J. c #C4B8B3",
"K. c #D1C5AF",
"L. c #C7C0B0",
"P. c #CCC2B1",
"I. c #C6C2BC",
"U. c #CBC4BD",
"Y. c #C9C9BF",
"T. c #DBCAB6",
"R. c #D5C8BF",
"E. c #D4C7B7",
"W. c #C7C3C1",
"Q. c #CAC5C3",
"!. c #CDC9C4",
"~. c #CDCBC8",
"^. c #D3CBC3",
"/. c #DACDC3",
"(. c #D1CDCA",
"). c #DCD6C6",
"_. c #D5D1CC",
"`. c #DAD3CC",
"'. c #DBD8CF",
"]. c #DBD6D3",
"[. c #DDDAD2",
"{. c #DFDBD8",
"}. c #E0D1C5",
"|. c #E0DACF",
" X c #E2D6CA",
".X c #E2D7D6",
"XX c #E3DCD5",
"oX c #E3DFDC",
"OX c #EAE4DB",
"+X c #EAE5DA",
"@X c #F9E6D7",
"#X c #F6ECE3",
"$X c #FCF2E7",
"%X c #F6F1EC",
"&X c #F4F2E5",
"*X c #F8F7F5",
"=X c #FFFFFD",
/* pixels */
"5 < - > > - > ; : p v + O # % o = 4 q 7 # & & & & ",
"F l 4 8 f j v v K J v > : > > , 1 > 3 q 7 7 0 0 0 ",
"}.S._ u h D j j c n n j y t f i y t t y y y a d y ",
"%X%X' ) *.1.,./ M Z J D m J H M V J K m V H n V H ",
";.=.| | ` *.;.[ #.u.-._ | { O.} | | | | | | | | | ",
"$XXXt.| } 2.@.} 8.$X@X=.| { [ [ _ _ _ { _ / / / L ",
"S.P.&.t.u.;.u.[ o.&.u.^ A ^ H v T &.] K ' [ J ' p.",
"|.|.D.#XOXF.T.A.U t.2.C.V.^ _ U M.I.l.$.J.^.o.v.=X",
"!.)..XXX+X/.T.XXw.1.3.r.*.N H k.^.!.p.$.n.h.7.U.*X",
"_.P..X!.+X XK.OX).,.+.:.~ p u %.M.U.z...d.X...Y N.",
"+XP.U.[.+XE.K.OX&Xf.4.Z._ K r [ b.p.e.Q ..W P k 0.",
"U.L./.I.[.}.P.^.Y.f.( 3.b g r &.D.U.l.Q W Y P k l.",
"w.8.S.6.'.j.y.b.8.3.( i.K g e / g.h.Q k ! P I z c.",
"U S [ C 6.[  .E ;.<.>.<.B x w N  .l 1 % 3 9 2 2 s ",
"0 j =.E R L Q a.R.T.G.i.;.| u.y.M.Q   o X   o o + ",
"@ G ` U z.B 7.#XoXoX`.~.Q.J.U.~.`.I.7   o o X . % ",
"f -.D u /.E _.[.{.].].!.I.!.!.W.B.m.R   o o o o % ",
"k./.i y E W oX_.(.(.(.W.H.W.H.N.n.z.5.* o o o o o ",
"-.V $ =   W `.m.Q.Q.~.W.H.H.x.s.q.q.q.6 o % % % * "
};
