/* XPM */
static const char *micro_hduflos[] = {
/* columns rows colors chars-per-pixel */
"25 19 168 2 ",
"   c #0A090C",
".  c #14110F",
"X  c #131215",
"o  c #141319",
"O  c #1C1619",
"+  c #1B1B1B",
"@  c #211C1C",
"#  c #252323",
"$  c #2B2523",
"%  c #2A2927",
"&  c #2D2B2D",
"*  c #302627",
"=  c #332925",
"-  c #3C2D26",
";  c #342A29",
":  c #3B322D",
">  c #3D3331",
",  c #3B3A36",
"<  c #3F3B39",
"1  c #41392E",
"2  c #423534",
"3  c #443935",
"4  c #4A3D37",
"5  c #443C3A",
"6  c #4B3D3B",
"7  c #46413F",
"8  c #4B423D",
"9  c #51473B",
"0  c #54483C",
"q  c #474342",
"w  c #4C4442",
"e  c #4C4845",
"r  c #4F4B48",
"t  c #524642",
"y  c #524B45",
"u  c #594D46",
"i  c #544F4B",
"p  c #5C4F49",
"a  c #5D5246",
"s  c #57504A",
"d  c #5D544D",
"f  c #565554",
"g  c #5B5551",
"h  c #5E5D5F",
"j  c #62554B",
"k  c #655A4D",
"l  c #685A4F",
"z  c #6C554D",
"x  c #615551",
"c  c #645A52",
"v  c #695E54",
"b  c #665F5C",
"n  c #6A5F5B",
"m  c #6C6256",
"M  c #63605B",
"N  c #6D635A",
"B  c #726255",
"V  c #73665A",
"C  c #75695E",
"Z  c #7A6B5D",
"A  c #656462",
"S  c #6D6562",
"D  c #6F6862",
"F  c #726A62",
"G  c #7D6E63",
"H  c #746464",
"J  c #7C726A",
"K  c #7E7A7B",
"L  c #806F5F",
"P  c #866E64",
"I  c #837365",
"U  c #83756A",
"Y  c #837B6D",
"T  c #93786D",
"R  c #837771",
"E  c #867A71",
"W  c #807778",
"Q  c #937D75",
"!  c #87806E",
"~  c #8E8174",
"^  c #89827A",
"/  c #938575",
"(  c #988A7D",
")  c #9B827B",
"_  c #97927E",
"`  c #7E7C81",
"'  c #818085",
"]  c #8E8E8F",
"[  c #918D8C",
"{  c #938C84",
"}  c #9A9287",
"|  c #9D9982",
" . c #9C948B",
".. c #9F988E",
"X. c #8D8F93",
"o. c #969495",
"O. c #999393",
"+. c #949398",
"@. c #999798",
"#. c #A08F87",
"$. c #A39D93",
"%. c #AC9E94",
"&. c #A7A191",
"*. c #A9A393",
"=. c #A3A19C",
"-. c #A1A99E",
";. c #B5A79A",
":. c #A5A5A7",
">. c #ADAAA6",
",. c #ABA9AE",
"<. c #B2ABA4",
"1. c #B8B5A2",
"2. c #B3B1AA",
"3. c #B9B9AF",
"4. c #A9A7B2",
"5. c #AFADB2",
"6. c #B5B7B6",
"7. c #BAB4B3",
"8. c #BDB9B5",
"9. c #BCBABC",
"0. c #C0AFA5",
"q. c #C5BBB3",
"w. c #C1BCBE",
"e. c #CBC9B0",
"r. c #BCBDC2",
"t. c #C1BEC4",
"y. c #C3C3C5",
"u. c #CAC4C2",
"i. c #CCCAC3",
"p. c #C7C8CD",
"a. c #CCCFC8",
"s. c #D2CEC6",
"d. c #DBCDC2",
"f. c #D3CECB",
"g. c #C9D0C9",
"h. c #D7D0C0",
"j. c #DED0C3",
"k. c #DBD5CC",
"l. c #DCD9CE",
"z. c #D1CFD4",
"x. c #D2D1D4",
"c. c #DCD2D0",
"v. c #DBDAD4",
"b. c #D5D6DA",
"n. c #DDDDDC",
"m. c #E2DEDD",
"M. c #E7E3D7",
"N. c #E6E2DF",
"B. c #EAE5DF",
"V. c #E8E7E2",
"C. c #ECECE4",
"Z. c #E7EBEA",
"A. c #EDECEC",
"S. c #F1E8E3",
"D. c #F0F0E6",
"F. c #F8F8EC",
"G. c #F3F3EB",
"H. c #F4F4F2",
"J. c #F9FAF5",
"K. c #FCFBF6",
"L. c #FFFBF4",
"P. c #F9F7F8",
"I. c #F7FDFB",
"U. c #FFFBF8",
"Y. c #FFFFFA",
"T. c #FFFFFB",
"R. c #FBFFFF",
"E. c #FFFEFF",
/* pixels */
"x d d c J D > . O + X + + + @ & $ # # # # # # # # ",
"8 4 2 t d g i 7 , 5 < 5 5 < 5 5 r e q q q 7 q i f ",
"%.J J N j x s y y y t t w t y 8 8 y y 8 8 w s 8 d ",
"I ~ ~ v a j d c k v v S N v m m v v c N v v m v v ",
"Z L B Z / ;.( Z Z G V u y F C Z V G Z Z V C Z V V ",
"Z / I B / j.d.U V B 0 1 : 9 v B m m k v V m j m C ",
"%.~ v Y Y C c u R N #.0.%.E Y $.} { .. .N $.<.^ a ",
"L...q.C.<.s.g 7 v.<.G Q P j s.V.v.L.H.v.=.J.Y.C.} ",
"H.| v.E.C.-.c M 3.q.) T I N 8.c.6.G.M.l.w.P.L.F.h.",
"A.| v.H.Y.g.s < a.S.Q z l F B.f.9.A.l.v.@.n.Y.D.k.",
"E.&.n.E.J.I.S q H.U.x 6 = J Y.u.y.N.u.8.` y.H.V.e.",
"H. .n.U.J.R.^ g H.>.S 2 = s 7.7.9.m.u.9.` r.A.x.2.",
"l.E i.v.C.Z...i F y x t 4 3 8 c [ i.u.7.' p.b.x.4.",
"1.J >.*.i.6.G t y y 6 4 6 4 p t q b W K f X.x.z.] ",
"_ R =.Y 2.] 3 y u t t w t 6 t 8 8 w ; + + # 9.t.h ",
"Y H O.! D ` - 6 6 t w 3 w w 6 6 : : 8 # # & :.5.+.",
"N > v.A w x ; > 3 5 6 5 6 2 5 > $ = 5 O   o t.t.X.",
"y + f % $ 3 = : > 2 3 3 3 > 2 ; @ = 5 @   + ,.w.o.",
"; .   # : 2 $ * : > 3 3 3 > > ; @ $ > $ X X h S b "
};
