/* XPM */
static const char *micro_asaux[] = {
/* columns rows colors chars-per-pixel */
"25 19 204 2 ",
"   c #060401",
".  c #0B1009",
"X  c #1E1212",
"o  c #29251A",
"O  c #312E25",
"+  c #373528",
"@  c #4B3A2B",
"#  c #4B402C",
"$  c #495027",
"%  c #584739",
"&  c #47443D",
"*  c #695638",
"=  c #334B4B",
"-  c #4D4D49",
";  c #4E504B",
":  c #5D5849",
">  c #4C5552",
",  c #525753",
"<  c #5B5751",
"1  c #595954",
"2  c #545E56",
"3  c #4A4951",
"4  c #764D48",
"5  c #695D48",
"6  c #635E5B",
"7  c #6B5E58",
"8  c #586359",
"9  c #6B6A47",
"0  c #7D7A4D",
"q  c #69685B",
"w  c #76655A",
"e  c #706A5A",
"r  c #72725D",
"t  c #757656",
"y  c #766343",
"u  c #566464",
"i  c #466462",
"p  c #656B60",
"a  c #6B6C64",
"s  c #686866",
"d  c #746E69",
"f  c #706D64",
"g  c #6C766A",
"h  c #667067",
"j  c #7B7B6C",
"k  c #787569",
"l  c #776C70",
"z  c #6B7876",
"x  c #767A7D",
"c  c #707078",
"v  c #835A52",
"b  c #85554B",
"n  c #8A685A",
"m  c #887C58",
"M  c #8F6A61",
"N  c #916B60",
"B  c #8B7165",
"V  c #85786A",
"C  c #977263",
"Z  c #9B766D",
"A  c #837E73",
"S  c #8D7D70",
"D  c #957D71",
"F  c #A07C70",
"G  c #798257",
"H  c #7E8379",
"J  c #7E8176",
"K  c #8B825B",
"L  c #878165",
"P  c #8B8B68",
"I  c #83847D",
"U  c #86847A",
"Y  c #95877B",
"T  c #B4806B",
"R  c #B98C7A",
"E  c #A6937A",
"W  c #A4A07D",
"Q  c #C78E7D",
"!  c #CF9178",
"~  c #5C7E8A",
"^  c #6C7981",
"/  c #857F83",
"(  c #7A8383",
")  c #788784",
"_  c #7F9088",
"`  c #798A90",
"'  c #559EBF",
"]  c #78A2B2",
"[  c #7AB3BE",
"{  c #828380",
"}  c #8B8D86",
"|  c #8A8D8D",
" . c #898886",
".. c #938983",
"X. c #928E8B",
"o. c #8F9788",
"O. c #9D9184",
"+. c #94958B",
"@. c #938F90",
"#. c #8F9B9A",
"$. c #889696",
"%. c #969396",
"&. c #969A95",
"*. c #9E9C94",
"=. c #92969A",
"-. c #979D9C",
";. c #A18881",
":. c #A8948B",
">. c #B79A87",
",. c #A79F9D",
"<. c #9DA89A",
"1. c #AAA789",
"2. c #BCA386",
"3. c #BBB38F",
"4. c #AAA197",
"5. c #ACA19A",
"6. c #AFB19C",
"7. c #B4A592",
"8. c #8C99A1",
"9. c #9EA6A3",
"0. c #9CABB0",
"q. c #98B2B8",
"w. c #A1A6A6",
"e. c #A4A9A4",
"r. c #ACACAB",
"t. c #A7AAA8",
"y. c #B5ABA4",
"u. c #BAB4AB",
"i. c #A9A6B0",
"p. c #AFB2B4",
"a. c #B6BAB5",
"s. c #C69982",
"d. c #C6A68D",
"f. c #D9B697",
"g. c #C9B1A2",
"h. c #C8B8AA",
"j. c #DDB4A3",
"k. c #C2B5BC",
"l. c #D0BCB5",
"z. c #E1B3A6",
"x. c #C8C08F",
"c. c #D4C3AF",
"v. c #CEC3BA",
"b. c #C8C3B7",
"n. c #D6C8B7",
"m. c #D1DCBC",
"M. c #E7C9BF",
"N. c #EBD5BB",
"B. c #B9BEC4",
"V. c #B7BFCC",
"C. c #BEC2C6",
"Z. c #BBC6CB",
"A. c #90E4FE",
"S. c #C6C6C5",
"D. c #D3CAC2",
"F. c #D6CBC4",
"G. c #D3D6CE",
"H. c #DCD4CD",
"J. c #DCDACA",
"K. c #C6CDD4",
"L. c #C5D3DA",
"P. c #D8D7D6",
"I. c #D3D9D3",
"U. c #DDD9D4",
"Y. c #D5DADD",
"T. c #DEDCDB",
"R. c #D1D2D6",
"E. c #EAC9C0",
"W. c #E5D6C5",
"Q. c #E5D9CC",
"!. c #E1D5D4",
"~. c #E3DBD3",
"^. c #E2DDDB",
"/. c #EDDFD2",
"(. c #DBE6DE",
"). c #F6E6C9",
"_. c #EEE3D5",
"`. c #E3E1DD",
"'. c #E9E2DB",
"]. c #E3E1D5",
"[. c #CDDCE4",
"{. c #C9D4E2",
"}. c #D2DDE4",
"|. c #DADCE4",
" X c #D0DFF4",
".X c #E6DDE0",
"XX c #D5E4E6",
"oX c #D4E4EC",
"OX c #DAE4EC",
"+X c #D6E9ED",
"@X c #DEE7E7",
"#X c #D3E3F0",
"$X c #DCEBF5",
"%X c #D7E9F6",
"&X c #CBE5ED",
"*X c #E5E4E4",
"=X c #E1E6E9",
"-X c #EEEEEA",
";X c #EBE7E7",
":X c #F0EFEB",
">X c #FFFCEB",
",X c #E3EBF2",
"<X c #EDEEF5",
"1X c #F8F7F9",
/* pixels */
"m.a.i.&.U A ..U u p 8 u _ j U , > A k d I +.} $.` ",
"XX}.{.L.Z.C.C.a.9.&.$.$.#.e.e.+.` r.r.w.a.b.S.}.Y.",
"L.[.[.+XXX+XXX(.&XoX$X+XL.XX}.[.%XOXOXOX,X-X:X1X=X",
"}.{.{.[.oX XoXoX&X%XB.w.B.r.OX%XoX+X#XoX,X*X`.-XOX",
"I p.K.p.a.Z.[.K.}.F.g.E.E.g.y.,X@XXX+X}.@X=X*XT.K.",
"5 : d k q q I J x Y j.z.j.f.S =.*.e.#.x I -.&.p 6 ",
"O.5.Y O.4...s +. .S n n v n w d ..{ h q q < - + % ",
"n.).W 1.b.k./ v.c.E N F Z M B 7.v.%.-.u.O.5.u.e w ",
"L P m m 5 @.9.>X).s.! Q R s.C l.1XS.%.:.t G W x.3.",
"* * L P m r.V.n.J.d.F v 4 C n _.>XG.u.O.9 $ 9 0 K ",
"w B 7 a m Y i.,.>.5 % b 4 @ # d.h.t.*.Y r : r 1.V ",
"8 2 1 d V 2.N.w.s l X o O   6 4.y.B.-.< s 6 f H 1 ",
"a & 7 ;.:.f.).H.{.1XD .   @ l.,XT.%XZ.| c 3 ; z , ",
"h q } k r 6.-X=X<X_.N.>.C 2.n.^.*X$XL.| ( ( ; a { ",
"=. .A A I 1X|.|.|.^./.W.n.W.^.I.T.@X<XS.2 ) | o.H ",
"t.g y R !.*XQ..X*X~.Q.J.].~.~.`.;XY.|.1X_ = 8.<.z ",
"&.| / u._.~.!.;X'.~.U.~.H.~.^.*X;X(.J.*XC.i X.0.z ",
"S.R.S.H./.F.H.'.~.~.~.~.H.~.^.P.G.P.!.P.T.[ ~ 0.] ",
"I.Y.S.D.W.n.D.H.~.~.U.H.H.~.`.S.g S.D.D.~.A.' ^ q."
};
