/* XPM */
static const char *micro_dthabet[] = {
/* columns rows colors chars-per-pixel */
"25 19 189 2 ",
"   c #2E1500",
".  c #341807",
"X  c #301E1C",
"o  c #37281A",
"O  c #402311",
"+  c #5D351C",
"@  c #6C3B16",
"#  c #693D1C",
"$  c #743F1D",
"%  c #493C2C",
"&  c #593E29",
"*  c #703E23",
"=  c #514237",
"-  c #5D4736",
";  c #584328",
":  c #7C4820",
">  c #794727",
",  c #6C4232",
"<  c #6A5337",
"1  c #7C5537",
"2  c #58544F",
"3  c #5C5958",
"4  c #6C534C",
"5  c #765340",
"6  c #615851",
"7  c #615B5B",
"8  c #6F6855",
"9  c #776757",
"0  c #7A6959",
"q  c #766A5E",
"w  c #7A725F",
"e  c #5E5E60",
"r  c #6A5F63",
"t  c #5D6572",
"y  c #6A6867",
"u  c #756C63",
"i  c #7A6E63",
"p  c #7B7166",
"a  c #7C726A",
"s  c #717169",
"d  c #6D6E74",
"f  c #706F77",
"g  c #6F787D",
"h  c #6E7273",
"j  c #757473",
"k  c #76767C",
"l  c #7E7D7D",
"z  c #7B7673",
"x  c #844D26",
"c  c #84512C",
"v  c #8A562E",
"b  c #8C5C34",
"n  c #915032",
"m  c #9C613F",
"M  c #A96F3F",
"N  c #A46731",
"B  c #B37635",
"V  c #985E53",
"C  c #896541",
"Z  c #9A664C",
"A  c #886557",
"S  c #8A795F",
"D  c #9E7D5C",
"F  c #B0704D",
"G  c #AD735D",
"H  c #B0785F",
"J  c #B37257",
"K  c #827365",
"L  c #837569",
"P  c #85796C",
"I  c #897B6C",
"U  c #847B71",
"Y  c #8A7D72",
"T  c #857F7F",
"R  c #887F78",
"E  c #827773",
"W  c #9B8B6A",
"Q  c #8D8375",
"!  c #8B847B",
"~  c #918171",
"^  c #958A7C",
"/  c #9C8C7D",
"(  c #968878",
")  c #BD826C",
"_  c #B78667",
"`  c #A58C78",
"'  c #B48B74",
"]  c #B88E7B",
"[  c #BE9372",
"{  c #BD987B",
"}  c #C68B65",
"|  c #C6976D",
" . c #C58D74",
".. c #D09873",
"X. c #7C7A81",
"o. c #737780",
"O. c #817F80",
"+. c #907D81",
"@. c #7C848B",
"#. c #7C8994",
"$. c #838484",
"%. c #8A8381",
"&. c #82858C",
"*. c #8C898C",
"=. c #898987",
"-. c #978C83",
";. c #9A8E82",
":. c #9F8F8F",
">. c #9C948A",
",. c #9F9387",
"<. c #838792",
"1. c #858C95",
"2. c #8B8D94",
"3. c #898E99",
"4. c #818F9C",
"5. c #908E93",
"6. c #8A9196",
"7. c #8E929D",
"8. c #9E9A90",
"9. c #93969C",
"0. c #959A9B",
"q. c #999391",
"w. c #AA9381",
"e. c #A99888",
"r. c #B89F89",
"t. c #A49A98",
"y. c #A4A19D",
"u. c #A9A399",
"i. c #B3A99C",
"p. c #8C94A2",
"a. c #949AA3",
"s. c #9199A7",
"d. c #97A2A8",
"f. c #99A1AE",
"g. c #99A4B2",
"h. c #99A5BD",
"j. c #ACA9A3",
"k. c #A8A7AD",
"l. c #A9A8A6",
"z. c #B4A6A3",
"x. c #BAB5AB",
"c. c #A3ABB5",
"v. c #A8AFB7",
"b. c #A3ACB9",
"n. c #ADB1B0",
"m. c #B3B3B1",
"M. c #BFBCB7",
"N. c #BDBBBD",
"B. c #B8B7B7",
"V. c #DBAB87",
"C. c #E7AF9E",
"Z. c #C9BFB6",
"A. c #C2B8B6",
"S. c #C7C0B6",
"D. c #C4C3BD",
"F. c #C9C6BF",
"G. c #CEC9BE",
"H. c #D9C6B7",
"J. c #F5C8A1",
"K. c #B7BCC4",
"L. c #C7C7C5",
"P. c #CBC9C4",
"I. c #C2C2CA",
"U. c #D5CEC5",
"Y. c #D2D1C9",
"T. c #CECFD4",
"R. c #D6D6D5",
"E. c #D5DADC",
"W. c #DDDBD9",
"Q. c #DADAD5",
"!. c #E2DCD4",
"~. c #E6E2DD",
"^. c #EAE6DD",
"/. c #D6DEE1",
"(. c #DFE7EA",
"). c #D8E0E3",
"_. c #EBE6E1",
"`. c #EDEAE3",
"'. c #E2E4E9",
"]. c #E7E9E8",
"[. c #E8ECED",
"{. c #F6ECEB",
"}. c #F2F1EE",
"|. c #FEF7ED",
" X c #ECF3F7",
".X c #F3F3F4",
"XX c #FDFBF4",
"oX c #F5FAFB",
"OX c #FDFEFD",
/* pixels */
"P p p a u u q 0 0 8 h ~.XXOXoX].Z.,.L K K L K L L ",
"P L K i i p p i a w s t.:.i.w.Y L P L P Y P L L K ",
"Q P L L p p u a s % o . .   ; U I P P P L U >.j.D.",
"x.>.R Y P L L Y = , _ } F m c - ~ Q I ^ ,.!.XXOXOX",
"R.L.y.! Q I ~ K o { J...J N B @ 9 ( x.|.S.`.OXOXOX",
"0.E.R.j.Q ~ ( 0 X ] ' H G c v + = !.XXOXx._.OXOXOX",
"%.n.'.R.8.( / P - ` 5 * Z O & - -.OXOXXXD.`.OXOXOX",
"^.=.E.[.F.-.^ ;.] V._ ) _ # c M _.OXoXOXY.`.OXOXOX",
"OXB.m. X(.y./ ` w.C. .} _ > n | OXOXoXOXG._.OXOXOX",
"OX}.y. XoXM.;.e.S r.[ J V # $ H.OXOXOXOXP.!.OXOXOX",
"OXOXm.).oXW.-.t.z ` [ ) Z @ 1 {.OXXXOXOXY.`.OXXXOX",
"OXXXL./.OX~.8.l.@.A V. .Z : b W A.~.XXOXP.W.OXOXOX",
"OXOXR.E.OX.Xj.k.c.+.' _ 1 > x < a u.OXOXP.R.OXOXOX",
"OXOXW.E.OX}.N.v.g.p.! D C < A X.R Q `.OXU.W.OXOXOX",
"OXOXE.E..XN.k.b.p.4.#.r 4 R j e 6 u u.{.G.!.OXoXOX",
"OXOX].K.B.5.f s.7.h.g.d t g 2 2 y a %.8.,.!.OXOXOX",
"oX.X'.K.<.9.y 3.1.s.b.o.3 k @.l 6.%.d.5.l z.XXOX`.",
"oX.XT.c.@.X.d 3.&.7.g.1.7 $.<.O.0.T d.*.j E U.OX~.",
"OX.XI.f.#.d k s.<.1.s.9.7 &.1.$.a.*.6.2.3 u i.OXP."
};
