/* XPM */
static const char *micro_grobledo[] = {
/* columns rows colors chars-per-pixel */
"25 19 189 2 ",
"   c #0B0602",
".  c #140A05",
"X  c #0F100A",
"o  c #15140E",
"O  c #1A130D",
"+  c #101211",
"@  c #1A1711",
"#  c #1C1A15",
"$  c #1D1D19",
"%  c #1E141C",
"&  c #23160D",
"*  c #371804",
"=  c #30180C",
"-  c #3D1E02",
";  c #231E16",
":  c #221C1A",
">  c #281A16",
",  c #24211D",
"<  c #2B241D",
"1  c #2F2B1F",
"2  c #362015",
"3  c #231F20",
"4  c #2A2523",
"5  c #2B2925",
"6  c #2D2C2A",
"7  c #272322",
"8  c #362720",
"9  c #322B24",
"0  c #312D2D",
"q  c #2D352A",
"w  c #313826",
"e  c #33312E",
"r  c #2C2B30",
"t  c #3A2D36",
"y  c #353434",
"u  c #383637",
"i  c #3C3B37",
"p  c #393738",
"a  c #3C3A3A",
"s  c #472C1A",
"d  c #582812",
"f  c #572E1A",
"g  c #55321C",
"h  c #673617",
"j  c #433920",
"k  c #4A3D38",
"l  c #613B28",
"z  c #6E3B28",
"x  c #4B432E",
"c  c #46423D",
"v  c #504F3B",
"b  c #5C4034",
"n  c #6C4526",
"m  c #7C4C2B",
"M  c #714A2D",
"N  c #60433B",
"B  c #454442",
"V  c #4E4B46",
"C  c #544F49",
"Z  c #57524E",
"A  c #595144",
"S  c #514C50",
"D  c #585550",
"F  c #5C5952",
"G  c #69564F",
"H  c #66554B",
"J  c #635B53",
"K  c #695F55",
"L  c #785C58",
"P  c #6F6357",
"I  c #6C6259",
"U  c #666259",
"Y  c #706853",
"T  c #72695E",
"R  c #756655",
"E  c #75725F",
"W  c #6B6764",
"Q  c #6F6860",
"!  c #626365",
"~  c #706760",
"^  c #746C63",
"/  c #7A6B64",
"(  c #77716A",
")  c #7D746B",
"_  c #7C786D",
"`  c #7E7A73",
"'  c #7D7670",
"]  c #834E2F",
"[  c #8F5226",
"{  c #A05E3E",
"}  c #846850",
"|  c #81665F",
" . c #95695C",
".. c #A87653",
"X. c #82796F",
"o. c #8A7B6D",
"O. c #997A6D",
"+. c #847C73",
"@. c #8B7E73",
"#. c #927E77",
"$. c #A16A63",
"%. c #C1775E",
"&. c #888069",
"*. c #8E8475",
"=. c #86827A",
"-. c #8A847B",
";. c #958474",
":. c #978A7D",
">. c #9B8F7F",
",. c #B2896D",
"<. c #AF847B",
"1. c #B48777",
"2. c #B99779",
"3. c #C78474",
"4. c #8C8782",
"5. c #938A83",
"6. c #998E84",
"7. c #948D89",
"8. c #9D9286",
"9. c #979088",
"0. c #9B938B",
"q. c #9E998D",
"w. c #9D9C98",
"e. c #A88C87",
"r. c #A3938C",
"t. c #A4998C",
"y. c #A09486",
"u. c #A29C94",
"i. c #BA9E9D",
"p. c #9EA39F",
"a. c #ABA293",
"s. c #AAA39B",
"d. c #BEA095",
"f. c #BCAEA3",
"g. c #B3B1AA",
"h. c #B8B3AF",
"j. c #BEB2A2",
"k. c #B6B5B2",
"l. c #BFBEBA",
"z. c #BABAB2",
"x. c #A7A9A8",
"c. c #CB9686",
"v. c #D4A394",
"b. c #E0A897",
"n. c #F3AF9C",
"m. c #C9ACA4",
"M. c #D3ADA4",
"N. c #C8BDA9",
"B. c #DDBBA2",
"V. c #CDBEBB",
"C. c #E4BBA6",
"Z. c #ECB0A8",
"A. c #ECB4A5",
"S. c #FFBBB6",
"D. c #BFC1BC",
"F. c #C2C2BD",
"G. c #C8C4B8",
"H. c #F9C8B8",
"J. c #C5C5C2",
"K. c #CAC9C6",
"L. c #C6CBCF",
"P. c #CCCCCB",
"I. c #D1C6C0",
"U. c #D0CECA",
"Y. c #D2D1CD",
"T. c #D1D1C5",
"R. c #C9D6DF",
"E. c #DADDDD",
"W. c #DCD8D5",
"Q. c #E1DBCD",
"!. c #FDD6CF",
"~. c #F4D0C2",
"^. c #E3DCD6",
"/. c #E2E1DF",
"(. c #CEDBE1",
"). c #D7E0E5",
"_. c #DAE2E5",
"`. c #DEE8F1",
"'. c #EEEAE4",
"]. c #E0E7EF",
"[. c #E8E7E5",
"{. c #F1F2EE",
"}. c #E2EBF4",
"|. c #EDF1F2",
" X c #EDF6FB",
".X c #F5F5F4",
"XX c #F6FCFC",
"oX c #FEFEFD",
"OX c #FDFCF7",
/* pixels */
"U 9 < ; @ o # + 4 t.I.[.G.k > 9 9 4 W -.` ) ~ J D ",
") X.^ U J V 6 y -.j.f.q.v 1 c w 6 5 $ # o O # o X ",
"^ ^ ^ +.) ^ C Z ) X.9.s.*.o./ =.q.5.q.-.^ =._ +.s.",
"I I K J U J ^ u.l.'.^.u.A G e.r.:.>.t.>.:.a.6.y.a.",
"^ ^ ^ ^ ( U u.OX|.V.b s & O > Y R P P J K T ^ T P ",
") ^ ^ ^ ^ Q ( ` E k M.H.1.z - j h.U.W.U.w.[.K.k.p.",
"+.+.) ) ) ) ) ' R | !.H.n.%.] g .XoXoX[.L.oXoXoX.X",
"6.*.o.@.@.X.+.-./ e.C.,.1.l n M '.OXOX{.D.oXOXOXoX",
"L.7.o.;.@.+.-.-.&.d.S.A.2.h { } oXoXoX.XP.oXoXoXoX",
"].k.*.;.:.4.4.5.+.i.Z.c.$.d m O.oXoXoX.XP.oXOXoXoX",
"}.E.6.:.5.5.5.5.0.#.<.v.3.h * 7.oXoXOX{.J.oXOXoXoX",
"}.|.s.6.6.5.0.5.r.N.H m. .s = T.oX.XoX.XY.OXoXoXOX",
"`.XXg.8.8.6.0.0.u.Q.O.8 % . f 2./.oXOX'.F.oXoXOXOX",
"}.XXz.0.t.u.0.+.B S ~.B.L f [ h 5 =.Y..XK.oXoXoXoX",
").oXF.6.u.) k 5 5 r L C.b...m 2 @ O < F g.OXOXoXoX",
"}.XXJ.0.H 4 6 y 0 q 6 t N x ; 3 < 9 9 # , P.oXXXoX",
"_.XXK.W a u y 0 6 6 0 6 7 4 6 0 e c , 5 @ c .XXXOX",
"(.oXx.i B u p 0 6 6 6 6 0 0 6 4 i Z : $ o   4.oXXX",
"R. X! u u a y a e 6 5 6 0 e 0 4 , # : o o . $ E._."
};
