/* XPM */
static const char *micro_truello[] = {
/* columns rows colors chars-per-pixel */
"25 19 218 2 ",
"   c #363339",
".  c #473E29",
"X  c #443C33",
"o  c #423E3D",
"O  c #384237",
"+  c #484726",
"@  c #5B402B",
"#  c #5C5B2F",
"$  c #44413D",
"%  c #464236",
"&  c #52453B",
"*  c #5F4E3E",
"=  c #5E4638",
"-  c #685D3F",
";  c #76563B",
":  c #3C4B48",
">  c #3E5867",
",  c #356768",
"<  c #4C4C45",
"1  c #4B4C4E",
"2  c #554E4A",
"3  c #574843",
"4  c #475049",
"5  c #535244",
"6  c #595045",
"7  c #5A524A",
"8  c #59594A",
"9  c #5B5B56",
"0  c #465C5A",
"q  c #684D42",
"w  c #795A4A",
"e  c #675F54",
"r  c #6E5C52",
"t  c #645C5A",
"y  c #725F58",
"u  c #685C42",
"i  c #5F6149",
"p  c #5D625D",
"a  c #576259",
"s  c #6B684A",
"d  c #60624D",
"f  c #64635B",
"g  c #6C635B",
"h  c #636758",
"j  c #7A6D58",
"k  c #7F7957",
"l  c #645F63",
"z  c #5F6064",
"x  c #4B717C",
"c  c #54727A",
"v  c #6A6B63",
"b  c #6E6B6A",
"n  c #626765",
"m  c #746F6C",
"M  c #6D7066",
"N  c #6B766E",
"B  c #70736D",
"V  c #787667",
"C  c #606676",
"Z  c #697773",
"A  c #7C7C77",
"S  c #7A7776",
"D  c #825E4B",
"F  c #895945",
"G  c #816C5C",
"H  c #886855",
"J  c #9A6A58",
"K  c #966B58",
"L  c #A07258",
"P  c #837E6D",
"I  c #887769",
"U  c #9F7662",
"Y  c #8B7C72",
"T  c #847F7C",
"R  c #907B76",
"E  c #7A8179",
"W  c #98895E",
"Q  c #8C8767",
"!  c #95866A",
"~  c #838275",
"^  c #8A847C",
"/  c #888979",
"(  c #9C8A7A",
")  c #91847E",
"_  c #9C937B",
"`  c #AC866D",
"'  c #AC8668",
"]  c #BA8468",
"[  c #AC8675",
"{  c #B68C7A",
"}  c #BA967C",
"|  c #B1A277",
" . c #C2997C",
".. c #C3967F",
"X. c #698186",
"o. c #7B8583",
"O. c #758386",
"+. c #7F989F",
"@. c #778E8D",
"#. c #5DA9C0",
"$. c #69B9DC",
"%. c #5ED4FF",
"&. c #8D8E8D",
"*. c #878C84",
"=. c #948D86",
"-. c #8B9689",
";. c #999687",
":. c #848C91",
">. c #959893",
",. c #989896",
"<. c #8C9695",
"1. c #AC9A83",
"2. c #A49E8C",
"3. c #A59486",
"4. c #B79B85",
"5. c #A49A93",
"6. c #9CA39D",
"7. c #95A299",
"8. c #B7A28D",
"9. c #A3A393",
"0. c #A9A89C",
"q. c #B7AB9A",
"w. c #BEBB9C",
"e. c #A9A288",
"r. c #9C9FA4",
"t. c #9AA4A7",
"y. c #8BA8B0",
"u. c #A7ABA8",
"i. c #B2AAA9",
"p. c #B6B0A7",
"a. c #A2A9B1",
"s. c #A8BCBA",
"d. c #B6B6B5",
"f. c #BBBEB6",
"g. c #B5BCBB",
"h. c #BDBBBC",
"j. c #B8B8B6",
"k. c #C69884",
"l. c #D09C87",
"z. c #C1A68D",
"x. c #C3A082",
"c. c #C4A698",
"v. c #C7BD99",
"b. c #D5A797",
"n. c #C3B6AD",
"m. c #C1B5AB",
"M. c #D2BFA1",
"N. c #C1BEB6",
"B. c #CDBEB4",
"V. c #C6BDB9",
"C. c #C8BEBC",
"Z. c #D3BFB6",
"A. c #DDC7AF",
"S. c #C2C4BC",
"D. c #CDC2BB",
"F. c #CBCAB8",
"G. c #D5C7B9",
"H. c #DDD3BA",
"J. c #E5C1AB",
"K. c #E7D2B5",
"L. c #80B8C9",
"P. c #ACB4C1",
"I. c #BEBEC0",
"U. c #AAC1CF",
"Y. c #BBC1C6",
"T. c #CCC4C3",
"R. c #CBCDCA",
"E. c #C5C7C7",
"W. c #D3C5C4",
"Q. c #DAC7C3",
"!. c #D4CAC4",
"~. c #D6CCC8",
"^. c #DAD1C1",
"/. c #DBD2CE",
"(. c #DCDACD",
"). c #D7CED1",
"_. c #CCD1D4",
"`. c #CDD6DD",
"'. c #CED9DD",
"]. c #CCDAD4",
"[. c #D4DAD5",
"{. c #DBDAD6",
"}. c #D5D4DB",
"|. c #D3DBDD",
" X c #D8D7D8",
".X c #C9C8D6",
"XX c #E5D3CC",
"oX c #E8DACA",
"OX c #E2D2D4",
"+X c #E4DBDC",
"@X c #DCE2DD",
"#X c #D5E1DD",
"$X c #FFE1C5",
"%X c #E1E1DC",
"&X c #E8E7DA",
"*X c #FFF3D9",
"=X c #D3DDE2",
"-X c #DDDDE2",
";X c #DDDBEA",
":X c #CBD7ED",
">X c #E3DEE2",
",X c #DAE3E5",
"<X c #D6E1EA",
"1X c #DCE4EC",
"2X c #DDE9ED",
"3X c #D7E0E7",
"4X c #DFE6F1",
"5X c #DCE4F9",
"6X c #EDE1E2",
"7X c #E2E5EE",
"8X c #E2EBED",
"9X c #EAECE7",
"0X c #EEF4EA",
"qX c #F1F2E8",
"wX c #E3EBF3",
"eX c #F8EDF8",
"rX c #EFFEF9",
"tX c #FBFFFF",
/* pixels */
".XY.u.t.&.9.;.^ V V ~ v *.E p f n A =.T ^ 9.;.6.a.",
"-X,X#X=X_.E.R.E.R.(.F.0.u.a.r.u.u.f.S.I.E.E.|.;X2X",
"#X].].=X`.'.=X=X-X{.qX0X8XwX4X7X2X8XwX2X7XwX1X5X,X",
"%X[.[.|.3X3X'.'.|.3X Xf.S. X2X<XwX<X<X<X=X8X|.2X4X",
"g V i.>.&.,.d.g.s.R.=.= = I p.|._.|.|._.R.R. XE.d.",
"* & 6 7 7 2 f M p e G J J { ( P P ^ A M f m A < 5 ",
"1.q.q.Q 3.p.7 ^ 3.G [ k.l.b.1.j _ ~ v / M g g X X ",
"v.H.e.k ! 5.S T.K.8.H D ' ; G ) XXh.*.u.2.Y G.w._ ",
"+ - 8 ! + r >.&X*X^.` ] k.[ U q.tX9X:.&.u # Q | v.",
"* . V Y j =.g.V.M.A.} L F K ` z.oX^.N.0.s + + s j ",
"X 5 7 2 6 h 5.i.S y w K F H q Y 1.u.A V e % 5 ;./ ",
"< 4 3 5 9 ! $XF.C   R D U w r   2.Y.P.2 4 9 < v 2 ",
"b $ & M ^ 1.J.F.t n m.H . ; z.g 1._.Y.=.M 1 o p f ",
"l d ~ n 8 N O.7.p.}.G. .`  .x.N.3.t.O.:.b S 9 $ B ",
"o.-.d ( a X.U.2XeX7XXX..k.{ c.-X`.+.x c : 4 o.-.h ",
"*.o.w ] X.:XeX;X X>X+XZ.4.c.oX%X6XqXs.@.p O Z t.N ",
"6.B A >.j.OXOX X6X/.D.G.B.m.!.&X}.@XrXK.W > a i.X.",
"<.h.R.R./.Q.W.{.+X/.!.Q.D.n.V.T.-XW.-XQ.@.$., Z y.",
":.}.E.d.D.n.B.(.).).~.!.!.W.~.!.).W.C.T.L.%.#.0 y."
};
