/* XPM */
static const char *micro_aaudeber[] = {
/* columns rows colors chars-per-pixel */
"25 19 187 2 ",
"   c #2F2C25",
".  c #383127",
"X  c #393A35",
"o  c #683918",
"O  c #413A32",
"+  c #66401B",
"@  c #7A461E",
"#  c #4B4237",
"$  c #49453C",
"%  c #52473C",
"&  c #554939",
"*  c #774A26",
"=  c #7E4F3F",
"-  c #655031",
";  c #7F523B",
":  c #4F4B44",
">  c #5C544C",
",  c #64594D",
"<  c #695C4E",
"1  c #665548",
"2  c #745A46",
"3  c #635A53",
"4  c #6D5D53",
"5  c #75604B",
"6  c #6E6255",
"7  c #676058",
"8  c #6D635B",
"9  c #756556",
"0  c #7B6A56",
"q  c #74665B",
"w  c #7A6758",
"e  c #75695B",
"r  c #796C5D",
"t  c #6F6860",
"y  c #696F6B",
"u  c #746761",
"i  c #726B64",
"p  c #7A6C60",
"a  c #7C7264",
"s  c #7E726B",
"d  c #797772",
"f  c #9A572D",
"g  c #8D5935",
"h  c #855737",
"j  c #A96937",
"k  c #9F5844",
"l  c #826548",
"z  c #976E58",
"x  c #9F715C",
"c  c #9C795D",
"v  c #A96542",
"b  c #A46D58",
"n  c #AA7C5C",
"m  c #A67658",
"M  c #B87F54",
"N  c #B57744",
"B  c #8A6F68",
"V  c #837465",
"C  c #847469",
"Z  c #85796C",
"A  c #8A796B",
"S  c #8E7964",
"D  c #917D6A",
"F  c #837D72",
"G  c #877A7A",
"H  c #B97B64",
"J  c #98816F",
"K  c #8D8174",
"L  c #8D847C",
"P  c #83827E",
"I  c #938374",
"U  c #9A8476",
"Y  c #92857B",
"T  c #988678",
"R  c #9D8C7C",
"E  c #A88462",
"W  c #BB8361",
"Q  c #B48E75",
"!  c #AC917E",
"~  c #BE9B73",
"^  c #C28359",
"/  c #C8926E",
"(  c #C18970",
")  c #C9947B",
"_  c #CDA275",
"`  c #7D8788",
"'  c #858682",
"]  c #968C83",
"[  c #9B8E82",
"{  c #968E8A",
"}  c #9A938C",
"|  c #968D90",
" . c #8F9497",
".. c #9C9394",
"X. c #9D9A9B",
"o. c #9C9899",
"O. c #A39486",
"+. c #A1988D",
"@. c #B19589",
"#. c #A29A93",
"$. c #A99D93",
"%. c #A29898",
"&. c #96A09F",
"*. c #BFA78D",
"=. c #AAA29A",
"-. c #B6AC9C",
";. c #B5A497",
":. c #979CA3",
">. c #A89FA0",
",. c #A29DA3",
"<. c #9FA4A7",
"1. c #9FA8A7",
"2. c #ACA3A4",
"3. c #A6A3AC",
"4. c #AAA7AB",
"5. c #A7AAAF",
"6. c #ACA9AE",
"7. c #ABABA3",
"8. c #B1A3A6",
"9. c #BBAAA1",
"0. c #B1A7A8",
"q. c #B3ACAD",
"w. c #BDA8AF",
"e. c #B1AFA3",
"r. c #B3B1AF",
"t. c #BCB3AC",
"y. c #ABACB1",
"u. c #B2AFB3",
"i. c #B0A5B3",
"p. c #ABB2B3",
"a. c #B9B4B6",
"s. c #B9BAB3",
"d. c #B6B6BA",
"f. c #B5B9BC",
"g. c #BDBABB",
"h. c #B7B3B8",
"j. c #C5BAAC",
"k. c #C0B7B8",
"l. c #C9BABA",
"z. c #BEC0BD",
"x. c #C0C0B6",
"c. c #C4C2BB",
"v. c #CBC3BC",
"b. c #CCC8BF",
"n. c #CAC0B4",
"m. c #D1CABA",
"M. c #BFBEC2",
"N. c #CABBC2",
"B. c #BEC5CD",
"V. c #BFC9D5",
"C. c #C5C4C3",
"Z. c #CCCECC",
"A. c #CDC3C2",
"S. c #D2CDC3",
"D. c #D2CFC9",
"F. c #D6D6CD",
"G. c #CDCED4",
"H. c #C7CBD4",
"J. c #CDD2D5",
"K. c #CED2DB",
"L. c #D3D4D3",
"P. c #DADCD5",
"I. c #D2D3DD",
"U. c #E2D3CE",
"Y. c #E3DCD2",
"T. c #E3DED8",
"R. c #DEE0DD",
"E. c #E6E1DC",
"W. c #EBE8DF",
"Q. c #D4DEE4",
"!. c #D6E3EB",
"~. c #DBE6EE",
"^. c #DAE9F3",
"/. c #E5E5E5",
"(. c #E7E9EC",
"). c #F1EEE7",
"_. c #F1EEE9",
"`. c #F5F6EB",
"'. c #FAF5EA",
"]. c #EBECF0",
"[. c #EDF5FC",
"{. c #EAF2F3",
"}. c #F6F5F3",
"|. c #FDFBF5",
" X c #F6FAFD",
".X c #FEFEFD",
"XX c #F8F7FC",
/* pixels */
"t u u s a a V w 1 X X D ' L q & & # # % $ O O .   ",
", , 3 > , < < 6 3 : : 5 F #.D.n.C Y F K [ +.-.=.a ",
"0 6 8 8 4 4 4 3 > i z._..X.X.Xv.Z K I a p a V C e ",
"q e e 6 4 q q 8 3 } |.#.> , e 6 q e e e e q e 9 7 ",
"G q e 9 6 8 6 9 q 3 2 * * g g r V p Z +.t.D.W.E.P ",
"y...C V s u r 0 9 8 Q / ^ ^ N l Y [ b..X.X.X.X.X7.",
" .M.o.s Z V C C p O.Q z n g f ~ .XE.D..X.XXX.X.Xe.",
"y <.H.=.C S C G d ! W ; n o @ _ .X/.L..X.X.X.X.Xs.",
"Z.d Z.J.{ A D A B ( ) H M f v j T.'.F..X.X.X.X.Xb.",
".XX.p.~.r.I I K D U ) m = @ j E .X).F..X.X.X.X.Xx.",
".XL.:.^.J.Y I I Y L x W k h * U..X}.P..X.X.X.X.Xc.",
".XXX:.!.(.#.I T Y L J l h + l |..X`.F.XX.X.X.X.Xb.",
".X.Xy.!.[.=.T R [ ' O.c - o m |..XW.c..XXX.X.X.Xb.",
".X.Xf.!.[.q.Y [ ] 5.q.b n x @.j.Y.Y.S.|..X.XXX.XC.",
".X.Xd.Q.[.C.} } $.5.V.#.2 #.%.*.;.t.v.m.'..X.X.XP.",
".X.Xf.!.~.f.2.X.%.3.6.f.i.#.;.N.j.l.l.-.j.(./.`.R.",
"}..Xp.K.I.M.4.3.a.>.8.2.q.3.a.A.g.w.g.r.9.O.$ &.Q.",
"]./.1.H.I.C.X.,.d.q.2.2.:.y.g.v.s.8.u.c.9.;.] s. X",
"[.{.` B.G.u.%.| u.a.0.2.o.d.g.k.7...f.C.9.;.U $.{."
};
