/* XPM */
static const char *micro_fguillet[] = {
/* columns rows colors chars-per-pixel */
"25 19 205 2 ",
"   c #0B0B00",
".  c #110C08",
"X  c #13120D",
"o  c #1E1300",
"O  c #101010",
"+  c #1A1613",
"@  c #1C1D19",
"#  c #1A1915",
"$  c #321C0C",
"%  c #201710",
"&  c #221D1A",
"*  c #341814",
"=  c #29241E",
"-  c #2A291F",
";  c #242218",
":  c #2C2723",
">  c #272621",
",  c #372C27",
"<  c #363225",
"1  c #3D3A33",
"2  c #462A07",
"3  c #552D16",
"4  c #643617",
"5  c #783719",
"6  c #442925",
"7  c #453E3A",
"8  c #583C26",
"9  c #66362A",
"0  c #3E422B",
"q  c #6D431B",
"w  c #754018",
"e  c #56473F",
"r  c #4D5138",
"t  c #714321",
"y  c #645127",
"u  c #6A4A35",
"i  c #7A4F3C",
"p  c #68563E",
"a  c #775237",
"s  c #6B462C",
"d  c #464040",
"f  c #5D4942",
"g  c #574E47",
"h  c #4F554B",
"j  c #4A5044",
"k  c #5C544D",
"l  c #52544F",
"z  c #4D5655",
"x  c #5C5A54",
"c  c #535D5C",
"v  c #6B5A4D",
"b  c #635A51",
"n  c #6B5E52",
"m  c #675B57",
"M  c #7E5C53",
"N  c #53625F",
"B  c #77604A",
"V  c #6D635D",
"C  c #6C6052",
"Z  c #75695E",
"A  c #72655F",
"S  c #546464",
"D  c #5E6860",
"F  c #5D6D6C",
"G  c #596864",
"H  c #5E716D",
"J  c #5F7A7E",
"K  c #6B6461",
"L  c #6A6A63",
"P  c #666F6C",
"I  c #7C6C61",
"U  c #756F6C",
"Y  c #7E726A",
"T  c #72716D",
"R  c #627B7A",
"E  c #7D7673",
"W  c #7F7A75",
"Q  c #7E7D79",
"!  c #8D481E",
"~  c #8A4B2C",
"^  c #814739",
"/  c #8C5830",
"(  c #935C3B",
")  c #995837",
"_  c #A15931",
"`  c #9C603C",
"'  c #A96535",
"]  c #925C4A",
"[  c #956948",
"{  c #826B59",
"}  c #8B725A",
"|  c #B96F42",
" . c #BA764F",
".. c #AB7259",
"X. c #806F65",
"o. c #837265",
"O. c #84766B",
"+. c #8A796E",
"@. c #82796A",
"#. c #827C75",
"$. c #8B7D73",
"%. c #837D79",
"&. c #937867",
"*. c #AA7261",
"=. c #A47D76",
"-. c #BA786C",
";. c #66807E",
":. c #6C827D",
">. c #8C837C",
",. c #898175",
"<. c #938175",
"1. c #94837A",
"2. c #98877E",
"3. c #988B7D",
"4. c #B48B6F",
"5. c #BA8A78",
"6. c #D08661",
"7. c #C78B75",
"8. c #CF967B",
"9. c #DB9D7A",
"0. c #D4977A",
"q. c #668384",
"w. c #6C8A8B",
"e. c #6D8586",
"r. c #798C86",
"t. c #71918E",
"y. c #6C8A92",
"u. c #728D94",
"i. c #7C9091",
"p. c #8D8482",
"a. c #8E8B85",
"s. c #848A88",
"d. c #938483",
"f. c #958C83",
"g. c #9A8B82",
"h. c #938C89",
"j. c #9D9286",
"k. c #98948A",
"l. c #8B9B9B",
"z. c #899594",
"x. c #A29386",
"c. c #A3988B",
"v. c #A8978B",
"b. c #A09090",
"n. c #A89C97",
"m. c #BA9B89",
"M. c #ABA19C",
"N. c #A8A598",
"B. c #B3A69C",
"V. c #B5A99E",
"C. c #949FA1",
"Z. c #AEA9A3",
"A. c #B3AFA4",
"S. c #B9B6AA",
"D. c #A9ADB0",
"F. c #B7B4B3",
"G. c #C79E8D",
"H. c #DD9690",
"J. c #D3A08D",
"K. c #CEA798",
"L. c #DEA490",
"P. c #E2AD8E",
"I. c #E6A191",
"U. c #EAB798",
"Y. c #C0AFA5",
"T. c #DAB2A1",
"R. c #D4B6AB",
"E. c #CDBAB3",
"W. c #C4B6AB",
"Q. c #E9B5A3",
"!. c #E7BAA6",
"~. c #E2BAB2",
"^. c #F0BAB0",
"/. c #C6C3BC",
"(. c #CBC4BF",
"). c #D5C3B8",
"_. c #F4CAB9",
"`. c #EED4BB",
"'. c #FFD5BD",
"]. c #EBC7BB",
"[. c #CCC6C2",
"{. c #C2C7CB",
"}. c #D3CFCA",
"|. c #D1CEC5",
" X c #D5D3CD",
".X c #DDD6CE",
"XX c #C7CFD1",
"oX c #D7D8D4",
"OX c #DDDDDA",
"+X c #D0D2D1",
"@X c #E0C9C1",
"#X c #E3D3C3",
"$X c #FBD7C3",
"%X c #E1DDDA",
"&X c #FED7D0",
"*X c #F5C8C2",
"=X c #E8E7DE",
"-X c #F5EAD8",
";X c #EBE3E2",
":X c #E6E7E4",
">X c #F9EEE8",
",X c #FCF3EB",
"<X c #FEFCF5",
"1X c #F5FCFD",
"2X c #FEFEFD",
/* pixels */
"X X O O . g V.W.)..Xa.: + @ = , & x h.p.Q T K K m ",
"7 , > - e c.B.M.S.,.- ; < < ; @ # + + + X # & & @ ",
"Z b 1 d %.>.,.,.b f f 6 * 6 e e 7 1 1 < > : = = & ",
"b k g k b V >.M.oXv.$ o   % $ B B.V.M.#.3.j.>.Y f.",
"m k E Z. X,X2X2X;XM L.8.[ 3 3 2 } 3.j.$.j.v.v.x.c.",
"V k [.2X<X;X(.A.&.T.'.U.9. ._ ! u B n k C v n n v ",
"K V Y k.@.I A V } `.$XQ.0.6.' | { 3.a.L W f.a.%.%.",
"Z V V V Z I o.o.=.].G.5.7...t ( ).<X2XD.+X2X:X{.F.",
"I U U Y o.O.Y +.H._.4...0.4 9 / J.<X2X}.OX2X2X2X2X",
"X.E W O.O.+.$.+.9._.!.^.I.5 ~ ' 5.2X1X(.oX2X<X2X2X",
"O.#.#.O.+.$.O.n.#X*XQ.Q.-.5 ~ ` R.2X2XF.OX2X<X2X2X",
"O.#.%.+.<.$.k.>X2X~.P.7.^ 4 w ..<X2X2X|.OX2X2X2X2X",
"$.>.>.$.<.$. X2X2X@X5.8.] q 4 E.2X1X2X|.OX2X2X2X2X",
"1.>.p.1.<.M.2X2X1X,Xm.] s 2 a ,X2X2X2XS.OX2X2X2X2X",
"<.p.d.2.<.[.2X1X/.!.$XG.8 s ) [ N.%X2X/. X2X<X<X2X",
"2.h.p.g.2./.XXC.:.K.&X].( ~ ) y 0 x B.S.=X2X<X<X-X",
"g.d.s.z.z.r.:.u.t.r.Y.T.*.i p r h j h x a.=X<X2X,X",
"f.b.l.i.e.;.;.w.u.y.q.R H c z c D D D P l L :X2X<X",
"g.n.l.w.J q.q.q.e.w.q.J R F S G S N F F c 1 k.2X2X"
};
