/* XPM */
static const char *micro_glambrig[] = {
/* columns rows colors chars-per-pixel */
"25 17 170 2 ",
"   c #030D19",
".  c #090828",
"X  c #060A23",
"o  c #02152B",
"O  c #09102C",
"+  c #001A2C",
"@  c #101626",
"#  c #1A182D",
"$  c #160B35",
"%  c #011433",
"&  c #041D33",
"*  c #041C3A",
"=  c #0B1C36",
"-  c #141838",
";  c #251D32",
":  c #351230",
">  c #05212D",
",  c #01223C",
"<  c #082839",
"1  c #003132",
"2  c #372136",
"3  c #4E021C",
"4  c #56011D",
"5  c #5D001B",
"6  c #560913",
"7  c #59181C",
"8  c #57161C",
"9  c #6B0017",
"0  c #64051E",
"q  c #6C021D",
"w  c #610417",
"e  c #72001D",
"r  c #580121",
"t  c #520B33",
"y  c #620323",
"u  c #6D0325",
"i  c #67002F",
"p  c #740123",
"a  c #7B0124",
"s  c #76042B",
"d  c #7B032A",
"f  c #700829",
"g  c #7B0E2D",
"h  c #760532",
"j  c #7F0337",
"k  c #6A0735",
"l  c #4D3B2D",
"z  c #482136",
"x  c #1C1F42",
"c  c #002043",
"v  c #042A47",
"b  c #07294A",
"n  c #0A2F49",
"m  c #0B2746",
"M  c #122346",
"N  c #1C2945",
"B  c #043144",
"V  c #0D3147",
"C  c #192652",
"Z  c #003951",
"A  c #0C3052",
"S  c #173058",
"D  c #2D2940",
"F  c #3D2C4E",
"G  c #29304C",
"H  c #212852",
"J  c #243956",
"K  c #7E1941",
"L  c #492742",
"P  c #512549",
"I  c #69384E",
"U  c #7C2454",
"Y  c #004157",
"T  c #324563",
"R  c #774141",
"E  c #7D6257",
"W  c #59687B",
"Q  c #80001F",
"!  c #820026",
"~  c #84022B",
"^  c #8B022B",
"/  c #83092E",
"(  c #92012D",
")  c #9A002E",
"_  c #8C0332",
"`  c #8D0C33",
"'  c #8A053A",
"]  c #940433",
"[  c #9C0433",
"{  c #940D36",
"}  c #9A0B36",
"|  c #90003B",
" . c #9C0039",
".. c #940B3A",
"X. c #9D0E3B",
"o. c #841032",
"O. c #8B1234",
"+. c #8E1838",
"@. c #96133A",
"#. c #9B133B",
"$. c #931A3A",
"%. c #9B1A3B",
"&. c #991232",
"*. c #B3132F",
"=. c #A20033",
"-. c #A00839",
";. c #A5063E",
":. c #A2153C",
">. c #AC163C",
",. c #A41A3E",
"<. c #B70A38",
"1. c #99233B",
"2. c #A3213B",
"3. c #8F1345",
"4. c #9E1E41",
"5. c #931544",
"6. c #851A50",
"7. c #A01745",
"8. c #AC1442",
"9. c #A41B41",
"0. c #AA1A41",
"q. c #B51244",
"w. c #B31B44",
"e. c #B81F57",
"r. c #962C40",
"t. c #923142",
"y. c #A52241",
"u. c #AB2345",
"i. c #AC264A",
"p. c #AF2848",
"a. c #A52A49",
"s. c #B02346",
"d. c #B82247",
"f. c #B22649",
"g. c #BE254D",
"h. c #B42A4B",
"j. c #B92D4F",
"k. c #AF304D",
"l. c #A82455",
"z. c #BA2E50",
"x. c #BC3152",
"c. c #C12D51",
"v. c #8B4F51",
"b. c #A94A59",
"n. c #956F7E",
"m. c #986866",
"M. c #C25268",
"N. c #99997F",
"B. c #656F88",
"V. c #6E7A88",
"C. c #8F848C",
"Z. c #898B97",
"A. c #B78E88",
"S. c #BE8B8A",
"D. c #BAA297",
"F. c #8297AC",
"G. c #CF8B8C",
"H. c #CA9C8D",
"J. c #D08E90",
"K. c #E19B9D",
"L. c #DAAFA8",
"P. c #D3ADA4",
"I. c #C7B1A4",
"U. c #D7BBAF",
"Y. c #DDB7AC",
"T. c #EAB2B5",
"R. c #E5CDC1",
"E. c #F5C6C0",
"W. c #EED2DE",
"Q. c #D7E1ED",
/* pixels */
"u s / ` @.@.#.:.0.9.%.u.w.s.a.g.p.h.h.p.y.%.$.O.g ",
"p d / ` { @.:.:.:.w.h.h.d.g.h.h.h.j.h.f.u.y.$.+.o.",
"p a ~ _ { #.:.,.u.>.r.8 6 r.k.j.z.z.j.h.p.y.4.$.o.",
"a a ^ ] { #.,.0.,.x.7 l E R r.z.z.z.j.h.f.u.4.#.O.",
"a ! ^ ] } #.,.0.s.&.v.L.E.A.t.j.j.j.j.h.f.u.9.#.` ",
"p ! ^ ] } #.,.0.0.p.m.P.Y.I.b.c.h.h.f.f.p.u.,.#.` ",
"p a ^ ( } #.:.0.9.>.S.U.D.R.M.>.i.p.u.y.y.9.#.{ ' ",
"p a ^ ( [ X.:.0.i.<.b.K.G.J.f.f.u.y.y.,.,.9.#.{ _ ",
"Q ! ~ ] =.O.$.q.*.e.I N.H.n.z h.2.2.1.9.7.5...=._ ",
"q p s _ [ } :.8.w.U ; D.T.Z.D l.q.8.%.:.X...] ( ~ ",
"w p f ^ ) [ ;.K L - = C.W.F.n F 6.3.-.[ ] ] _ ~ d ",
"9 a p ! ^ ] ' 2 B A % V.Q.T c Z J P  .) ^ ^ ^ ~ a ",
"9 p p a ~ ] k > x v , B.W % S C Y G | ( ! ! ~ d p ",
"5 0 q p ~ ] t + . , v N - V b H M N j d ! ! ! f u ",
"4 4 q 0 ! ~ : o & , , m M , B , $ < h s a p p u y ",
"4 4 e 0 a d # o X O m b * & < % o 1 h s a y y 5 r ",
"3 3 5 q p s @ o   o * , * & & o o b y u i 5 4 4 3 "
};
