/* XPM */
static const char *micro_artperez[] = {
/* columns rows colors chars-per-pixel */
"25 19 208 2 ",
"   c #050403",
".  c #090605",
"X  c #060709",
"o  c #0C0B0D",
"O  c #0D0906",
"+  c #100E0F",
"@  c #140500",
"#  c #171008",
"$  c #19160F",
"%  c #0E0D12",
"&  c #0D091A",
"*  c #100E11",
"=  c #1A0F17",
"-  c #100E19",
";  c #0F1014",
":  c #141114",
">  c #1C1412",
",  c #14131A",
"<  c #18161E",
"1  c #131F1F",
"2  c #1B1A1D",
"3  c #231B0E",
"4  c #221C16",
"5  c #231D1C",
"6  c #26221C",
"7  c #2C2218",
"8  c #34251C",
"9  c #342415",
"0  c #141722",
"q  c #1A1622",
"w  c #1B1B23",
"e  c #1C1A2B",
"r  c #181827",
"t  c #1F1D32",
"y  c #221B23",
"u  c #281C20",
"i  c #1B2023",
"p  c #242223",
"a  c #21222D",
"s  c #2D2722",
"d  c #342C22",
"f  c #382E25",
"g  c #302428",
"h  c #372E29",
"j  c #3E3120",
"k  c #3B342C",
"l  c #34312C",
"z  c #322C3A",
"x  c #2F3130",
"c  c #272935",
"v  c #42332E",
"b  c #49362F",
"n  c #413B2F",
"m  c #423C34",
"M  c #473C38",
"N  c #4C3F36",
"B  c #4B4235",
"V  c #48403D",
"C  c #47433A",
"Z  c #54453B",
"A  c #50483D",
"S  c #5C483D",
"D  c #624F3A",
"F  c #494748",
"G  c #4A4646",
"H  c #554B44",
"J  c #5C4E44",
"K  c #544C4B",
"L  c #594F4D",
"P  c #57504A",
"I  c #5C534B",
"U  c #5D5145",
"Y  c #585757",
"T  c #63564C",
"R  c #645848",
"E  c #6E5745",
"W  c #705043",
"Q  c #705A4F",
"!  c #665A52",
"~  c #6A5D52",
"^  c #625E5D",
"/  c #79644F",
"(  c #776457",
")  c #7A6052",
"_  c #75655A",
"`  c #796759",
"'  c #7C6D5D",
"]  c #68676D",
"[  c #6A696B",
"{  c #676466",
"}  c #796E68",
"|  c #796B60",
" . c #7C766A",
".. c #767576",
"X. c #7A7A77",
"o. c #816051",
"O. c #836C5B",
"+. c #89705C",
"@. c #896E63",
"#. c #837262",
"$. c #887161",
"%. c #8C7A64",
"&. c #8C7A6B",
"*. c #84786C",
"=. c #937867",
"-. c #937C6C",
";. c #9B7562",
":. c #857C76",
">. c #897B72",
",. c #927F70",
"<. c #94816C",
"1. c #8D8373",
"2. c #84807D",
"3. c #938272",
"4. c #9B8472",
"5. c #9D8A75",
"6. c #9A8779",
"7. c #96887D",
"8. c #9B897A",
"9. c #94837B",
"0. c #A28C77",
"q. c #A98F76",
"w. c #A28E7B",
"e. c #A5907B",
"r. c #AA947D",
"t. c #898585",
"y. c #8E8C83",
"u. c #8B8688",
"i. c #958F81",
"p. c #9B8C82",
"a. c #958D8A",
"s. c #9B9186",
"d. c #99958C",
"f. c #958F91",
"g. c #969090",
"h. c #9F9994",
"j. c #969698",
"k. c #9D9C98",
"l. c #AA8E80",
"z. c #A49583",
"x. c #AC9683",
"c. c #A89688",
"v. c #AC998F",
"b. c #A89B89",
"n. c #B09A83",
"m. c #A49A94",
"M. c #AB9A92",
"N. c #AFA08D",
"B. c #A5A39A",
"V. c #ACA39D",
"C. c #AEA191",
"Z. c #B1A39B",
"A. c #BAAC9C",
"S. c #BAA998",
"D. c #ABA3A0",
"F. c #ADA8A5",
"G. c #B2A9A3",
"H. c #B9AFAE",
"J. c #BDACA4",
"K. c #BBB2A6",
"L. c #BCB8B7",
"P. c #C7A794",
"I. c #C9B8A6",
"U. c #C5B6AF",
"Y. c #C5B8AF",
"T. c #CEBFAC",
"R. c #C6B6A7",
"E. c #C1BBB2",
"W. c #E0BBA9",
"Q. c #CBC1B4",
"!. c #CBC4BC",
"~. c #D0C2B7",
"^. c #DFCAB7",
"/. c #D0C7BE",
"(. c #DCCCBA",
"). c #D4C9B7",
"_. c #F3CDBA",
"`. c #E2D1BD",
"'. c #CEC9CD",
"]. c #D4CCC3",
"[. c #D9CDC1",
"{. c #D4D5CE",
"}. c #D7D4CA",
"|. c #DAD5D1",
" X c #DDDCD5",
".X c #DDD8DE",
"XX c #E2D1C7",
"oX c #E0D9CF",
"OX c #E6D8CB",
"+X c #E1DFD0",
"@X c #E2DEDB",
"#X c #E3E3DB",
"$X c #E9E2DB",
"%X c #ECE9DF",
"&X c #E6E3D5",
"*X c #F1E6DA",
"=X c #E9EAE3",
"-X c #F0E7E0",
";X c #F2EFE6",
":X c #F8EEE5",
">X c #F2ECE9",
",X c #F3F1E4",
"<X c #FFF5E7",
"1X c #F6F6EE",
"2X c #F9F3ED",
"3X c #FEFBF2",
"4X c #FFFDFD",
"5X c #FCF7F3",
/* pixels */
"Z 8 f H H J J J ~ >.k . , , : > 5 s n d 4 s 4 6 6 ",
"M.*.H N ~ _ ~ ` %.#.R B m m B B V m A P H L I P P ",
"3X[.` ' 6.&.#.' ` ( | ! ! T I I ! R U T T I T J T ",
"[.A.&.4.n.P.x.&.+.-.$.=.4.4.5.,.&.3.<.-.-.&.-.3.<.",
"A.z.r.r.q.r.e.e.R.).C.e./ D ' 1.r.e.0.e.r.w.0.5.w.",
"<X(.w.w.x.S.r.5.E.,X].J &.#.d 6 -.<.3.4.%.<.4.&.%.",
"/.G.Z.Q.J.A.z.N.8.v.Q W _.W.@.@ R Q.Z.7.S.z.*.Y.}.",
"2X|.=X3X%X[.*XA.i.s.f S =.) Z 2 P |.L.H.-X!.m.>X4X",
"}.OX=X#X>X^.=X{.E.:.8 -.P.;.-.b Y @Xh.G.Q.V.H.$X4X",
"&XOX#X X5X(.,X X2Xd.9 O.P.o.( 8 y.$XV.G.D.m.2.k.@X",
"%X~.=X#X%X`.+X1X3XE.B O.l.) Z H !.Q.m.a.k.t...X.'.",
"!.XXoX{.:XT.&X!.;X|.L _ x.E T m D. XF.g.f.u...j..X",
"B.J.s.B.*X&.Q.V.L.] z g 6.-.` u , F Y { t.{ ^ t.L.",
" .9.3.X.v.p.b.:.x 0 t q v c.v = 0 % , 2 p 5 5 > [ ",
"k p.5.d.&.} 1.I - a a e y 5 : , q q 2 % X o o . F ",
"C M.D y.R.M p.K & r i w e e 0 1 < , % ; % X o   Y ",
"S.I.j M.Z.7 m y : < a w q q q q : o % : % o o . K ",
"U. .3 I h # O w % , w < , , < , % o o % % o o X p ",
"G 4 $   : l [ c % % < , , , , % % o o : w p p p Y "
};
