/* XPM */
static const char *micro_daboyer[] = {
/* columns rows colors chars-per-pixel */
"25 19 208 2 ",
"   c #191315",
".  c #1B1519",
"X  c #1F191B",
"o  c #201010",
"O  c #211718",
"+  c #221A1C",
"@  c #291C1D",
"#  c #30241A",
"$  c #36281D",
"%  c #1F1C24",
"&  c #241D23",
"*  c #291E25",
"=  c #252126",
"-  c #2A2224",
";  c #272028",
":  c #2A222A",
">  c #2D2A2C",
",  c #31272E",
"<  c #362D2B",
"1  c #362827",
"2  c #3E312B",
"3  c #2A2730",
"4  c #2D2B30",
"5  c #342A32",
"6  c #363135",
"7  c #393235",
"8  c #3A333B",
"9  c #45352E",
"0  c #4F3429",
"q  c #53382D",
"w  c #483C37",
"e  c #513F3B",
"r  c #47403A",
"t  c #4F403D",
"y  c #54433A",
"u  c #614A3A",
"i  c #3E3C47",
"p  c #4D484E",
"a  c #534442",
"s  c #5A4A42",
"d  c #544A4B",
"f  c #5C4C49",
"g  c #594642",
"h  c #5B514F",
"j  c #524B53",
"k  c #5A5558",
"l  c #674D44",
"z  c #625248",
"x  c #765749",
"c  c #645951",
"v  c #6B5A55",
"b  c #635B59",
"n  c #6C5D59",
"m  c #645553",
"M  c #725E59",
"N  c #765E52",
"B  c #65615E",
"V  c #74655A",
"C  c #7B635B",
"Z  c #776454",
"A  c #5B5B77",
"S  c #635D6B",
"D  c #625F72",
"F  c #5E666B",
"G  c #696061",
"H  c #776A65",
"J  c #7B6C65",
"K  c #746B6C",
"L  c #7B6D6B",
"P  c #7C6762",
"I  c #72716C",
"U  c #6F6870",
"Y  c #766C78",
"T  c #787976",
"R  c #815344",
"E  c #8B6456",
"W  c #826B5C",
"Q  c #896F5E",
"!  c #936B5F",
"~  c #836A62",
"^  c #8D6D63",
"/  c #806D6B",
"(  c #8A6C6A",
")  c #837162",
"_  c #84716B",
"`  c #8D766C",
"'  c #8B7A6C",
"]  c #887564",
"[  c #96796B",
"{  c #887C7A",
"}  c #877874",
"|  c #967E79",
" . c #A97E6D",
".. c #B07F6E",
"X. c #AB7B71",
"o. c #89807B",
"O. c #9D8276",
"+. c #96837B",
"@. c #99867A",
"#. c #928177",
"$. c #A6816F",
"%. c #A68C7A",
"&. c #AB8C7A",
"*. c #AA817B",
"=. c #BE857E",
"-. c #B7907F",
";. c #6E6E86",
":. c #706F8F",
">. c #726984",
",. c #6E7394",
"<. c #6A7A93",
"1. c #877781",
"2. c #948580",
"3. c #988780",
"4. c #978885",
"5. c #9C898B",
"6. c #959593",
"7. c #A68980",
"8. c #A98D8C",
"9. c #A79C8F",
"0. c #A49288",
"q. c #BA9384",
"w. c #A39493",
"e. c #A49896",
"r. c #AC9893",
"t. c #B49A92",
"y. c #B99D93",
"u. c #B9A28F",
"i. c #B5A193",
"p. c #B9A194",
"a. c #B5A39A",
"s. c #BCA69C",
"d. c #BAAC9F",
"f. c #ACA7AB",
"g. c #BCAEAA",
"h. c #B6A6A3",
"j. c #BDB3AE",
"k. c #BBB1A5",
"l. c #AFB4B0",
"z. c #B9B3B3",
"x. c #C88C84",
"c. c #C59389",
"v. c #C6A29C",
"b. c #C3AA9C",
"n. c #CAA199",
"m. c #C8B19E",
"M. c #D8A69B",
"N. c #E0A293",
"B. c #CAACA3",
"V. c #C6B1A7",
"C. c #CDB4A3",
"Z. c #C4B2AC",
"A. c #CCB6A9",
"S. c #CFB9AE",
"D. c #D3B6A6",
"F. c #D7BEA8",
"G. c #D9BEAC",
"H. c #D5BAA7",
"J. c #C9B7B0",
"K. c #CEBBB4",
"L. c #C9BDB7",
"P. c #D4BDB4",
"I. c #DABDB3",
"U. c #DAB8B8",
"Y. c #E0A6A5",
"T. c #EAB3B4",
"R. c #E7B5B8",
"E. c #E5B6B5",
"W. c #F3BFB4",
"Q. c #E7B3A5",
"!. c #D6C0B5",
"~. c #D3C1BB",
"^. c #DAC3BA",
"/. c #DCC9BD",
"(. c #CCC6B8",
"). c #EDC4BD",
"_. c #F6C6BA",
"`. c #D5BFC1",
"'. c #C9C6C2",
"]. c #DAC7C1",
"[. c #D6CFC4",
"{. c #DDCAC3",
"}. c #D6CDCB",
"|. c #D5D5D0",
" X c #DCD9D2",
".X c #E0CBC3",
"XX c #F0CBC3",
"oX c #E4D3C3",
"OX c #E4D3CC",
"+X c #EAD9CF",
"@X c #FBD6C6",
"#X c #E7DAD4",
"$X c #FFDCD1",
"%X c #E2E2DB",
"&X c #EEE4DD",
"*X c #EAEBDB",
"=X c #FFE9DF",
"-X c #F3ECDC",
";X c #EAE9E2",
":X c #F6ECE9",
">X c #FAECEB",
",X c #F5EDE0",
"<X c #F3F1EB",
"1X c #FDF6EE",
"2X c #FDF6F4",
"3X c #FDFBF3",
"4X c #FFFDFA",
"5X c #F6F5F0",
/* pixels */
"D.F.G.H.C.V.V y l g m n n M 0.}.@.#.' ) ` O.b.u.r.",
"7.7.O.| ^ C v _ ] u l N N u [ oXP y w 9 1 n Z.L.s ",
"a a e f f t a m c V s q l 0 ~ OXQ Z W ) ) ' d.9.%.",
"|.%X;X5X3X3X4X4X4X].~ n.n.B.( 8.D.C.C.m.C.b.p.i.t.",
"4X3X3X<X;X;X%X%X+X[ _.@X@X$X).[ | / L / C ` J g.#X",
"=X!.s.3.v c 2.L.[.) &.-.B.t.I.y.'.|.|. X'.L B 6.l.",
"@XG.s.+.9 2 w.4X&XC ^ ^ | h.r.t.1X4X3X3X<XI F F A ",
"F.m.i.k.} b I T ! ..N.x.R.U.R.W.`.5.} 1.Y >.:.,.<.",
"A.A.p.b.b.b.!.C.$. .Q.=.Y.R.).).K.4.G k j S D ;.,.",
"G.^.V.i.| @.` 0.&.E c.c.T.E.U.I.K.e.K d d 7 p i b ",
".X{.V.a.V H V 9.a.7.E M._.E.v.P.{.w.K { j.H w r W ",
"!.!.K.h.} H j.&X3XS.x R X.*.I.OX~.h.h < s $ # w V ",
"/.].J.3X1X4X4X4X}.+.I.q.n.XX^.Z.OXg.}.o.n n z f M ",
"{.~.Z.g.>X:Xz.K < n ` y.B.P./ # H e.2X2X&X>X>X#XK.",
".XP.J.2.{ d + * = K 1 @ < - + - O > f.4X:X3X4X3X*X",
"^.{.s.e o @ * , & 6 4 % 3 % % > * ; = k [.,X-X(.U.",
"/..Xb + . + + * + & 8 . > + - ; & - 5 & 7 j.+Xu.s.",
"oX~.a     X + &   6 U & . + & & & & , & & K a.%.p.",
") H @   + X . + X & Y ; & 6 & & & X ; ; & w _ W t."
};
