/* XPM */
static const char *micro_btiza[] = {
/* columns rows colors chars-per-pixel */
"25 19 203 2 ",
"   c #191A1D",
".  c #112120",
"X  c #322421",
"o  c #2A2D37",
"O  c #3A3735",
"+  c #403E29",
"@  c #4A2034",
"#  c #4A3A39",
"$  c #463C3A",
"%  c #54393B",
"&  c #652330",
"*  c #653437",
"=  c #79353D",
"-  c #772434",
";  c #4F4B32",
":  c #525037",
">  c #694330",
",  c #413F42",
"<  c #573C4A",
"1  c #582A47",
"2  c #602843",
"3  c #6F3946",
"4  c #325050",
"5  c #4A4B45",
"6  c #484747",
"7  c #564D4E",
"8  c #4E504B",
"9  c #525246",
"0  c #55524D",
"q  c #5E5D4B",
"w  c #4B5053",
"e  c #5D5755",
"r  c #5A5B51",
"t  c #5A5B5A",
"y  c #525B57",
"u  c #605B45",
"i  c #7C504F",
"p  c #665E55",
"a  c #6A5E54",
"s  c #665F59",
"d  c #765D5D",
"f  c #6F4946",
"g  c #5B6357",
"h  c #6C614D",
"j  c #626251",
"k  c #6D635B",
"l  c #6D695B",
"z  c #64615A",
"x  c #75675B",
"c  c #7F7957",
"v  c #535A60",
"b  c #6A5F62",
"n  c #5A6464",
"m  c #5F696A",
"M  c #5B6665",
"N  c #536F72",
"B  c #646263",
"V  c #6C6A64",
"C  c #636E6E",
"Z  c #6F6C6B",
"A  c #686865",
"S  c #7C6361",
"D  c #736A64",
"F  c #736D6B",
"G  c #766967",
"H  c #66706F",
"J  c #6F7666",
"K  c #74736C",
"L  c #7C746A",
"P  c #7B7C6E",
"I  c #777465",
"U  c #666E71",
"Y  c #697673",
"T  c #747571",
"R  c #787674",
"E  c #737874",
"W  c #7E7D73",
"Q  c #737E7F",
"!  c #787B7C",
"~  c #7B767C",
"^  c #942A34",
"/  c #9A2D39",
"(  c #9E353D",
")  c #892A32",
"_  c #A32D3B",
"`  c #AA253A",
"'  c #A5373A",
"]  c #8D3E41",
"[  c #A83645",
"{  c #AA2E48",
"}  c #984C4E",
"|  c #A85551",
" . c #846857",
".. c #84785C",
"X. c #AB6852",
"o. c #BD755C",
"O. c #896C64",
"+. c #936A64",
"@. c #84746D",
"#. c #8D7C6D",
"$. c #86796A",
"%. c #9A766B",
"&. c #837D7A",
"*. c #857974",
"=. c #AF7A6C",
"-. c #A37E73",
";. c #D24F5F",
":. c #7C8269",
">. c #73897C",
",. c #86805C",
"<. c #8B8568",
"1. c #888579",
"2. c #938C74",
"3. c #96857A",
"4. c #A59A7C",
"5. c #B9847C",
"6. c #4C7E89",
"7. c #7E7F81",
"8. c #BF7181",
"9. c #768383",
"0. c #7C8885",
"q. c #7D8A8B",
"w. c #7A8587",
"e. c #768A92",
"r. c #76948A",
"t. c #77C2E2",
"y. c #858481",
"u. c #8C8C84",
"i. c #818B8C",
"p. c #8B8B89",
"a. c #978D88",
"s. c #889589",
"d. c #93928B",
"f. c #9D9E8E",
"g. c #979187",
"h. c #878F91",
"j. c #8A9597",
"k. c #929193",
"l. c #949993",
"z. c #959B9B",
"x. c #A68885",
"c. c #B18C83",
"v. c #A7998A",
"b. c #B19389",
"n. c #B49A8B",
"m. c #A4959A",
"M. c #ACA187",
"N. c #BCA88A",
"B. c #ADAE9E",
"V. c #B8AA97",
"C. c #B8B09D",
"Z. c #979FA3",
"A. c #8C9AA5",
"S. c #9BA3A3",
"D. c #9AA7AB",
"F. c #A3A2A3",
"G. c #A3A6A9",
"H. c #A3AAAB",
"J. c #B2A7A1",
"K. c #A7B3AC",
"L. c #ABB1AD",
"P. c #B9B6AB",
"I. c #A8AFB4",
"U. c #ABB4BA",
"Y. c #B9B6BA",
"T. c #B1B5B6",
"R. c #D9AE8C",
"E. c #C2B09A",
"W. c #C5BDAA",
"Q. c #A5C1B3",
"!. c #C3C2BC",
"~. c #C5CDBE",
"^. c #D7CEBD",
"/. c #E6C9B4",
"(. c #A6B9C0",
"). c #BABEC2",
"_. c #C4CBCC",
"`. c #C8C8C4",
"'. c #D2CFC8",
"]. c #DAD2C4",
"[. c #D9D7CA",
"{. c #C5CAD2",
"}. c #CACFD3",
"|. c #CDD3D5",
" X c #CCD5DA",
".X c #CFD8D7",
"XX c #D3D5D4",
"oX c #DCDCD6",
"OX c #D4DCDE",
"+X c #D6D7D9",
"@X c #EACCC1",
"#X c #E5D3C6",
"$X c #E3DFD6",
"%X c #E3E2DA",
"&X c #E6E5D6",
"*X c #F2E9D8",
"=X c #D6DFE1",
"-X c #DBE4E6",
";X c #DFE9EB",
":X c #D9E3E5",
">X c #E1EAEC",
",X c #F5EBE1",
"<X c #F9F4E4",
/* pixels */
"M j.j.j.Q 0.l.! Y C q.w.q.9.m C H U d.g.F A 0.q.j.",
"z.H.j.i.Q Y E ! Y y C n C 9.m n n m p.u.&.y.s.j.Z.",
"OX.X|._.U.H.H.S.S.0.q.i.q.j.h.i.i.z.!.P.P.!.`.{. X",
".XOX:X:X;X>X-X>X-X-X-X>X-X=X|. X.X X%X[.$X,XoXXX}.",
".X:XOX=X=X-X:X:X;XI.T.S.G.{.;X.X X{.XX%X%X,X&XXX|.",
"F.G.T.XX_._.OX:X=Xw O , 6 6 ).OX|. X+X%X'.'.[.'.H.",
"5 5 0 K K A T k.p.6 F F L e Z z.y.p.y.W F V W V 6 ",
"k k D k a L &.V R s L *.@.G D F L 1.1.V B t K B O ",
"/.E.W.V.<.v.J.7.v.@.S x.L 3.L g.C.V.K.Q.v.#.:.C.<.",
"N.<.4...,.: L Z.@X-.b.O.x.c.#X,X*X<XXXL.1.x g :.2.",
"#.+ ; ..2.u g.).].v.$.x +.n.*X$X].W.`.Y.1.q 9 : l ",
"% O 9 x j j G F.m.3.%.d S v.].K @.D k.w.E r 5 l 1.",
"# 6 e d V 0 @.#XD.&.O.a x C.,XW $ @.I.A.t t B D R ",
"p P r p @.P M./.8.i -. .+.3.b.5.7 &.{.U.~ B w 0 T ",
"K P J 1.a.f.I * ` ) h ..%.k f ;.d d.D.e.w.F ! y g ",
"M 1.s.1.v.8 o 2 _ { * > f < < [ 3 0 e.e.Y y b s.s.",
"z e.>.x S . & / ' [ _ / _ = % X.| 1 v s.M.<.4 T K.",
"l.D.s.2.X   & [ =.} ^ / _ * 5 N.o.* O ^.R.4.N g H.",
"~.Y.`.B.    - ( ( ( / ) ^ * # X.] @ o (.2.r.t.6.H "
};
