/* XPM */
static const char *micro_yseguin[] = {
/* columns rows colors chars-per-pixel */
"25 19 191 2 ",
"   c #050403",
".  c #0A0604",
"X  c #0A0905",
"o  c #04090C",
"O  c #0B0C0C",
"+  c #00050B",
"@  c #130600",
"#  c #100A06",
"$  c #100708",
"%  c #120B09",
"&  c #1C140E",
"*  c #0B0D13",
"=  c #0B0E1A",
"-  c #100F1E",
";  c #0D1115",
":  c #0E121D",
">  c #141315",
",  c #1B1512",
"<  c #1D1915",
"1  c #10121C",
"2  c #16191A",
"3  c #1A181A",
"4  c #131814",
"5  c #201E0F",
"6  c #231B13",
"7  c #281D17",
"8  c #241A1A",
"9  c #2A1F19",
"0  c #1C211D",
"q  c #28241C",
"w  c #36281D",
"e  c #30261C",
"r  c #0E1424",
"t  c #131323",
"y  c #141825",
"u  c #1C1B25",
"i  c #171A29",
"p  c #1C1829",
"a  c #201F24",
"s  c #17212D",
"d  c #2B2424",
"f  c #28282B",
"g  c #322A24",
"h  c #382C25",
"j  c #36312C",
"k  c #3C352E",
"l  c #2D2D34",
"z  c #302E31",
"x  c #392E32",
"c  c #3B3436",
"v  c #393738",
"b  c #363C30",
"n  c #462C1D",
"m  c #43301F",
"M  c #472F23",
"N  c #46382F",
"B  c #48392D",
"V  c #523827",
"C  c #5F3E2B",
"Z  c #453B35",
"A  c #4B3C32",
"S  c #483F38",
"D  c #4D4037",
"F  c #4D433B",
"G  c #444132",
"H  c #54493E",
"J  c #55423C",
"K  c #604F3F",
"L  c #47484A",
"P  c #484849",
"I  c #5A4C42",
"U  c #544D49",
"Y  c #554A43",
"T  c #5B574E",
"R  c #4D4B50",
"E  c #544B52",
"W  c #5A5452",
"Q  c #57565A",
"!  c #604F45",
"~  c #625346",
"^  c #6A5444",
"/  c #63554A",
"(  c #65594B",
")  c #6C5B4D",
"_  c #725746",
"`  c #615650",
"'  c #6A5751",
"]  c #665D52",
"[  c #6A5C52",
"{  c #645F5E",
"}  c #685C5C",
"|  c #745851",
" . c #66635F",
".. c #6F625A",
"X. c #726356",
"o. c #74665C",
"O. c #7C6959",
"+. c #766A5C",
"@. c #5E5E60",
"#. c #6A5F63",
"$. c #636163",
"%. c #6A6666",
"&. c #6A6865",
"*. c #726B65",
"=. c #7B6E64",
"-. c #736E6C",
";. c #756868",
":. c #7E7663",
">. c #7B7675",
",. c #7D7A73",
"<. c #78777B",
"1. c #875F53",
"2. c #83634C",
"3. c #8D6E5C",
"4. c #856E5C",
"5. c #9A6D58",
"6. c #87725F",
"7. c #857363",
"8. c #8B7564",
"9. c #8D7965",
"0. c #85766C",
"q. c #8D7B6B",
"w. c #917764",
"e. c #927B69",
"r. c #9C7D6B",
"t. c #837B72",
"y. c #897C74",
"u. c #837C7B",
"i. c #9A7F76",
"p. c #A37B6B",
"a. c #A37971",
"s. c #99846F",
"d. c #8D827A",
"f. c #8F8272",
"g. c #948272",
"h. c #9C8672",
"j. c #988976",
"k. c #92897A",
"l. c #A6816E",
"z. c #A08D7C",
"x. c #B28F7E",
"c. c #817F84",
"v. c #8A888D",
"b. c #9A8C82",
"n. c #948E8C",
"m. c #958C85",
"M. c #9C9286",
"N. c #9C938C",
"B. c #9C9593",
"V. c #A3968B",
"C. c #A6988D",
"Z. c #AA998A",
"A. c #A59281",
"S. c #A79B93",
"D. c #AA9F94",
"F. c #A0969E",
"G. c #A39C9B",
"H. c #ACA195",
"J. c #A5A39E",
"K. c #AEA995",
"L. c #B4A493",
"P. c #B4AA9C",
"I. c #B9A999",
"U. c #9C99A2",
"Y. c #AEA9A5",
"T. c #AAA5A6",
"R. c #B7AAA1",
"E. c #B4ACAA",
"W. c #BDB6A4",
"Q. c #B8B1AB",
"!. c #B3ADB7",
"~. c #B2B0B1",
"^. c #C39888",
"/. c #C4B9A8",
"(. c #C4BDB4",
"). c #C6BDB8",
"_. c #C8BEB5",
"`. c #CDC2BA",
"'. c #D7C8B5",
"]. c #D4C9BC",
"[. c #C1BCC3",
"{. c #C8C6C7",
"}. c #CCCCC2",
"|. c #DFD3CB",
" X c #D7C8C3",
".X c #E6D6C9",
"XX c #E7DACB",
"oX c #E1D8D1",
"OX c #F9F3EC",
"+X c #F6F4F3",
"@X c #FFFCF7",
/* pixels */
"e 6 6 & & & , & n ( 5 . % 8 . 4 k k k & , < & 8 < ",
"D g g F H Y Y ` ..T q > 3 > 3 0 6 6 j g d g j g g ",
"D.=.D N / I I / ( ( H D B B A B S k Z D Z S F Z D ",
"@XC.) 7.g.g.O.^ ~ ) [ / / ] [ ( ~ ) ) ~ ~ ~ ~ / ( ",
"V.g.7.8.8.h.e.9.s.w.3.w.9.) ) q.e.8.9.e.e.9.8.q.9.",
".XZ.q.9.h.h.9.e.|.OXS.[ 9 # % f 8.8.7.7.4.6.7.O.O.",
"|.b.0.z.h.A.7.g.b.H.k.A M i.B @ S 0.o.X.7.X.o.d.d.",
"oXM.].XXZ./.P.[ o.H :.9.3.x.r.m W B.*.m.`.t.,.OX+X",
"(./.XX)./.I._.,.&.A _ x.a.| I w u.n.*.n.Y.u.u.@X+X",
"Y.W.D.).].L.].J.E.Z G j.^.p.^ K N.B.*.u.>.-.{ ~.{.",
"J.M.(.Q.P.L.`.}. XU b K.l.5.V ! u.u.} -.%.$.Q <.T.",
"G.H.V.E.W.L.R.N.'.=.U H.r.2.h #.Y.n.%.$.$.$.R v.[.",
">.N.t.G.P.q.N.,./.;.x ' p.C g f L @.L $.@.Q E F.!.",
"W +.(  .t.~ ;. .Q l : c a.1.H 2 + ; 2 f l c d E U.",
"Z f...U ] o.} z r t s a J | , > 1 t : * *   . $ <.",
"Z 7.] >.*.F ;.u y p p o   X + = t - = 1 o o X X c.",
") 0.h S.y.g %.- t i i * O O O ; : 1 * * * * o   u.",
"/.y.7 d.Z X > 1 t y y * O O O ; : * * * * * O X P ",
"=.e # , X < f = 1 y y * O O O * = * O O * * * O v "
};
