/* XPM */
static const char *micro_norabino[] = {
/* columns rows colors chars-per-pixel */
"25 19 195 2 ",
"   c #040405",
".  c #0D0D0D",
"X  c #110D0C",
"o  c #120904",
"O  c #16100D",
"+  c #19110E",
"@  c #141414",
"#  c #1E1A16",
"$  c #1D1A19",
"%  c #181615",
"&  c #211914",
"*  c #231E1B",
"=  c #27231F",
"-  c #28221E",
";  c #1E1E20",
":  c #232222",
">  c #2A2521",
",  c #2C2925",
"<  c #2A2C2B",
"1  c #3A2C23",
"2  c #36322E",
"3  c #3D3329",
"4  c #393430",
"5  c #3E3934",
"6  c #43392F",
"7  c #493D33",
"8  c #423D38",
"9  c #4C443E",
"0  c #454239",
"q  c #53453C",
"w  c #564C3C",
"e  c #624D3C",
"r  c #3E3D42",
"t  c #403E43",
"y  c #4F4842",
"u  c #47484C",
"i  c #4D4D4A",
"p  c #4C4741",
"a  c #544B43",
"s  c #5C4D42",
"d  c #524D49",
"f  c #504644",
"g  c #5B534B",
"h  c #595452",
"j  c #5A5858",
"k  c #655447",
"l  c #62574C",
"z  c #66594E",
"x  c #6A5A4C",
"c  c #6E5445",
"v  c #655A52",
"b  c #6C5E52",
"n  c #6A5550",
"m  c #725952",
"M  c #73644F",
"N  c #6E6155",
"B  c #6B625B",
"V  c #66625F",
"C  c #726254",
"Z  c #79685D",
"A  c #75665A",
"S  c #6B6A63",
"D  c #766D6A",
"F  c #7F7164",
"G  c #7B736C",
"H  c #726D71",
"J  c #717274",
"K  c #7F7872",
"L  c #7E7A7D",
"P  c #7A7677",
"I  c #81695F",
"U  c #87725F",
"Y  c #826F60",
"T  c #8C6F61",
"R  c #847364",
"E  c #8D7867",
"W  c #85776B",
"Q  c #8A7768",
"!  c #87796D",
"~  c #8D7B6B",
"^  c #877A66",
"/  c #917B66",
"(  c #917D6C",
")  c #9B7C68",
"_  c #8D7E72",
"`  c #877E79",
"'  c #A07C66",
"]  c #9E8163",
"[  c #8D8077",
"{  c #8D847C",
"}  c #938375",
"|  c #998676",
" . c #95877D",
".. c #9D8A79",
"X. c #96947D",
"o. c #A78178",
"O. c #A38F7C",
"+. c #A98F7A",
"@. c #A9907C",
"#. c #837E84",
"$. c #8A8887",
"%. c #948B83",
"&. c #9B8D81",
"*. c #918C8B",
"=. c #9E968F",
"-. c #9C9784",
";. c #8D8C91",
":. c #918F94",
">. c #9E9893",
",. c #9B999C",
"<. c #AB8882",
"1. c #A99B8E",
"2. c #A19C95",
"3. c #A49D9C",
"4. c #AAA39E",
"5. c #AAA299",
"6. c #A09FA4",
"7. c #9DA0A5",
"8. c #ADA7A3",
"9. c #AEA8A8",
"0. c #A5A4AA",
"q. c #B2A6A2",
"w. c #B8AFAA",
"e. c #B3AAA3",
"r. c #BCB5AD",
"t. c #B9B1A9",
"y. c #ACADB3",
"u. c #B6B5B2",
"i. c #BCB4B1",
"p. c #BDB9BD",
"a. c #BCB8B5",
"s. c #C7A798",
"d. c #CDA895",
"f. c #D2B498",
"g. c #C4B0AF",
"h. c #CFBBA2",
"j. c #C4BBB3",
"k. c #D7BCA7",
"l. c #CDC0B7",
"z. c #C9C1BC",
"x. c #D5CABF",
"c. c #BDBEC3",
"v. c #C2BCC0",
"b. c gray78",
"n. c #CCC5C2",
"m. c #CECAC4",
"M. c #C4C4CA",
"N. c #CBCACF",
"B. c #C5C8CD",
"V. c #D6CDC4",
"C. c #DBCEC2",
"Z. c #D4CDCD",
"A. c #DACFCB",
"S. c #D7D0C6",
"D. c #DDD2C3",
"F. c #DCD4CB",
"G. c #D5D0CA",
"H. c #CCCDD2",
"J. c #D2CFD3",
"K. c #D8CDD3",
"L. c #D5D3D3",
"P. c #DCDAD6",
"I. c #D5D6DA",
"U. c #D7D8DD",
"Y. c #DCDBDE",
"T. c #E2D2C4",
"R. c #E2D8CC",
"E. c #E4DFD5",
"W. c #E5E2DB",
"Q. c #EBE4DC",
"!. c #EDE9DE",
"~. c #FBEBDE",
"^. c #E1DEE5",
"/. c #DEE4EC",
"(. c #DEE2E1",
"). c #E4E4E3",
"_. c #EAE5E2",
"`. c #ECECE6",
"'. c #E4E4E9",
"]. c #E7E8EC",
"[. c #ECECEE",
"{. c #F4ECE1",
"}. c #F0EEEC",
"|. c #F2E5EF",
" X c #EBF1E8",
".X c #F4F7EE",
"XX c #ECEDF2",
"oX c #ECEFFF",
"OX c #E5EAF3",
"+X c #F2EBF2",
"@X c #F4F3F2",
"#X c #F9F3F3",
"$X c #F4F3F8",
"%X c #F3FBFC",
"&X c #FFFFFB",
/* pixels */
"> * , = > * > = e x o X @ @ X & 5 5 2 O # # % # # ",
"g 3 6 a l v b B G g > * : : : , = 2 8 2 2 4 5 2 4 ",
"C.} q l b w k C B B l s q y i i 9 p a g g y d d g ",
"{.[ A &.1.&.F N x C x k C Z b b b N l z z z v v x ",
"_ ! ~ R } } ~ Q ..R _ W B b R ( ~ ( ~ ( ~ ~ ~ ~ ~ ",
"T...| / @.+./ O.~.{.K , $ * 7 ! Q Q E / U Q R Y R ",
"x.&. ...O.} ~ | =.e.8 & , * X h  . .R F W F W %.{ ",
"b.u._.!.r.j.r.{ 4.l 1 q Z q > 3._.A.4.j.S.>.4.&X@X",
"E.P.{.`.V.D.'.2.*.w Z ] ) A w q.P.w.3.A.F.8.m.&X@X",
"F.E.V.@XF.T.(.F.j.7 I d.o.m M g.).a.3.i.8.4.8._.).",
"F.W.Q.[.R.C.[.{.`.0 F s.<.n ^ z.z.i.>.9.3.*.H p.Z.",
"n.V.W.).D.x.).!..XS { k.T s X.n.n.i.*.,.:.;.H v.Z.",
"r.l.4.}.t.r.n.r._.B } f.' c ~ K.m.8.$.6.;.;.#.J.N.",
"%.} S m.&.=.2.2.n.u.Q.h.+.R -.^.Z.L : u u r t L M.",
"v | P G W $.G a.}.%X%X{.C.G.`./.XXXXJ   @ %   : y.",
"G E V q.b d w.#X#XXXoX+X|.+XW.OXOX/.I.<   . . ; 0.",
"5.C 7 V.v 5 L.[.[.$X$X].].[.].].'.B.H.j   . . : p.",
"j.q 9 ` = $ L.Y.[.c.J.XX^.).[.U.H.y.N.J   @ . @ P ",
"f + & O X h '.I.Y.N.H.Y.^.).I.N.c.7.M.;.. @ @ $ j "
};
