/* XPM */
static const char *micro_fgras_ca[] = {
/* columns rows colors chars-per-pixel */
"25 19 194 2 ",
"   c #0F0C07",
".  c #100702",
"X  c #180D09",
"o  c #120D07",
"O  c #17100A",
"+  c #1C130E",
"@  c #1F180E",
"#  c #1B1611",
"$  c #1C1918",
"%  c #25160D",
"&  c #2A190A",
"*  c #201712",
"=  c #231B14",
"-  c #231E1A",
";  c #291C16",
":  c #3C270C",
">  c #282117",
",  c #26211B",
"<  c #2A231E",
"1  c #3F2F1F",
"2  c #372B1A",
"3  c #272320",
"4  c #2D2522",
"5  c #2B2928",
"6  c #312723",
"7  c #332B26",
"8  c #392C24",
"9  c #3C322C",
"0  c #3B3A33",
"q  c #3F3734",
"w  c #46260D",
"e  c #563514",
"r  c #432918",
"t  c #6E3A15",
"y  c #43372D",
"u  c #50332F",
"i  c #523C2F",
"p  c #473E39",
"a  c #593F32",
"s  c #67382E",
"d  c #7B451F",
"f  c #694222",
"g  c #7F4A20",
"h  c #73503A",
"j  c #554D4A",
"k  c #554E4A",
"l  c #5B544D",
"z  c #5D5145",
"x  c #695C4E",
"c  c #755143",
"v  c #645C54",
"b  c #6C5F52",
"n  c #635E58",
"m  c #68614F",
"M  c #7D634A",
"N  c #6C6154",
"B  c #6A635A",
"V  c #746354",
"C  c #786956",
"Z  c #72665C",
"A  c #76695C",
"S  c #7C6C5B",
"D  c #776856",
"F  c #756D64",
"G  c #796D62",
"H  c #786F68",
"J  c #736E68",
"K  c #7C7166",
"L  c #7C746B",
"P  c #787370",
"I  c #905831",
"U  c #8C613F",
"Y  c #94633A",
"T  c #A6663A",
"R  c #914E48",
"E  c #805D47",
"W  c #865B4A",
"Q  c #915F44",
"!  c #A05D40",
"~  c #82695D",
"^  c #8D6154",
"/  c #936D58",
"(  c #967551",
")  c #96694C",
"_  c #A66944",
"`  c #AB7352",
"'  c #8B6D62",
"]  c #827364",
"[  c #83766B",
"{  c #8A746A",
"}  c #83796F",
"|  c #8B7B6D",
" . c #9C7266",
".. c #847B72",
"X. c #8B7E72",
"o. c #837E78",
"O. c #A57966",
"+. c #8D8174",
"@. c #8F8875",
"#. c #89847D",
"$. c #87837A",
"%. c #948374",
"&. c #978A77",
"*. c #948679",
"=. c #94897D",
"-. c #9A8A7C",
";. c #9C8478",
":. c #B1876F",
">. c #A68178",
",. c #A68B70",
"<. c #BA8B7B",
"1. c #AC947C",
"2. c #B59378",
"3. c #D5805B",
"4. c #D7986C",
"5. c #8E8781",
"6. c #8A8B85",
"7. c #918B85",
"8. c #9B8E83",
"9. c #948E8A",
"0. c #988F88",
"q. c #8E918A",
"w. c #9D9185",
"e. c #9D938A",
"r. c #9D9692",
"t. c #A18F81",
"y. c #A19384",
"u. c #A2968B",
"i. c #A79A8D",
"p. c #A19986",
"a. c #A39996",
"s. c #AC9F96",
"d. c #AEA18E",
"f. c #ADA99E",
"g. c #B1A79E",
"h. c #B4AB9F",
"j. c #B4A796",
"k. c #AAA9A3",
"l. c #B5AEA7",
"z. c #ADB4A2",
"x. c #BCB5AC",
"c. c #B9B6A8",
"v. c #B6BBB2",
"b. c #BCBBB6",
"n. c #C78D82",
"m. c #CE9987",
"M. c #D19E89",
"N. c #C5A78F",
"B. c #D3AD96",
"V. c #DBB79F",
"C. c #DDB89B",
"Z. c #E9B798",
"A. c #C0B7A6",
"S. c #C3B6AD",
"D. c #DCBCAB",
"F. c #C2BDBA",
"G. c #E7B9A1",
"H. c #C4C0B7",
"J. c #D3CCBF",
"K. c #D5C1B6",
"L. c #EEC1AE",
"P. c #FCC2AB",
"I. c #F7C8AE",
"U. c #E8C7B4",
"Y. c #E7CBBD",
"T. c #F1CCB9",
"R. c #EFD1B7",
"E. c #FED2B5",
"W. c #C4C3C1",
"Q. c #D5CFC3",
"!. c #D6D7D9",
"~. c #D9D9D5",
"^. c #E3D3C9",
"/. c #E5DBCF",
"(. c #FFD8C2",
"). c #F1D6CB",
"_. c #E4DDD4",
"`. c #F9DBD1",
"'. c #FFE2C8",
"]. c #E3E3DD",
"[. c #EDE4DD",
"{. c #E8E8E0",
"}. c #EDEAEA",
"|. c #EAE6E2",
" X c #F4EBE9",
".X c #F2F4EE",
"XX c #FBF4EC",
"oX c #EEF2F3",
"OX c #F9F5F2",
"+X c #F7F9F2",
"@X c #FCFBF6",
"#X c #F3FAFC",
"$X c #FDFEFD",
"%X c #F3F5F2",
/* pixels */
"b v v v k l n L 0.S.].$X^.{ u.%.e.l.h.A.c.h.} @.=.",
"N N B l J F._.XX$X$X#X+XJ.+.9.a.=.G | &.&.i.=.p.j.",
"A Z Z v r.@X@X[.K.s.w.} N V ~ A C K V V C b x N x ",
"V A Z B F $.} F D F V i % & 2 m ] F K ] G F N L o.",
"S A Z F F Z G K } Z c M.<.O.) w +.F.~._.|.~.q.W.!.",
"] ] K F H L } [ ..V D.'.E.Z.4.I S $X$X$X$X$Xv.}.$X",
"{ [ } } ..} } | X.;.).Y.T.G.` T M OX$X$X$X$Xv.}.$X",
"| | ....o...X.X.| N.V./ Z.:.h f (  X$X$X$X$Xz. X$X",
"X.| [ $.#.X.%.+.%.D.R.m.P._ I Y T ^.$X$X$X$Xl.oX$X",
"%.%.X.#.#.+.*.+.d.`.(.P.C.d _ 3.T _.$X$X@X$Xx.%X$X",
"*.%.%.7.5.*.-.=.}.U.I. .W s u ! U +X$X@X$X$Xx..X$X",
"-.&.*.7.7.0.=.g.$XQ.2.O.n.R a e 1.@X$X$X$X@Xf.+X$X",
"-.-.-.9.9.0.*.J.$X].~ { >.^ 8 : /.$X#X$X$X$Xc.%X$X",
"8.t.8.9.7.e.0._.$Xz ' 0 j 0 ; f o.@X$X$X$X@Xv.@X$X",
"w.8.w.r.9.e.u.H.e.$ E ,.k & t g * c.@X$X$X$Xk.@X$X",
"y.y.i.r.P l 9 # % 5 & B.L.( Q r 6 ; y L k.{.b.+X$X",
"u.e.a.k 4 = ; - 4 4 # + p q = < , + X @ @ y 0.$X$X",
"w.s.v - 4 6 , , - - 4 + . + $   o * = < 2 = 8 {.$X",
"i.=.9 6 7 4 4 , 3 < 4 4 4 - # - < < 4 , > 8 O 6.#X"
};
