/* XPM */
static const char *micro_nimorel[] = {
/* columns rows colors chars-per-pixel */
"25 19 206 2 ",
"   c #040202",
".  c #0B0706",
"X  c #120B0D",
"o  c #180E0D",
"O  c #12110C",
"+  c #1A1A16",
"@  c #161516",
"#  c #251C1F",
"$  c #22231E",
"%  c #31251A",
"&  c #3D2B22",
"*  c #352D22",
"=  c #3D352C",
"-  c #363533",
";  c #3C3731",
":  c #3B3A35",
">  c #2B2623",
",  c #4A362C",
"<  c #453627",
"1  c #583E29",
"2  c #463D33",
"3  c #4A3D34",
"4  c #443B3B",
"5  c #3D4039",
"6  c #6A4D15",
"7  c #7B571B",
"8  c #54422E",
"9  c #5F5025",
"0  c #46423F",
"q  c #4C443C",
"w  c #51463B",
"e  c #53493D",
"r  c #5C4A3E",
"t  c #655225",
"y  c #6B543F",
"u  c #795739",
"i  c #634928",
"p  c #706136",
"a  c #4F3C42",
"s  c #4D4A4C",
"d  c #4A4744",
"f  c #544B42",
"g  c #524D4D",
"h  c #584E44",
"j  c #5D5144",
"k  c #5E534C",
"l  c #54514A",
"z  c #4F4F51",
"x  c #5B5657",
"c  c #6C4B42",
"v  c #645649",
"b  c #675A4E",
"n  c #6C5D4D",
"m  c #6F5546",
"M  c #745E4A",
"N  c #635C54",
"B  c #6C5E51",
"V  c #645D5E",
"C  c #625350",
"Z  c #75614C",
"A  c #7F6C4E",
"S  c #6E6253",
"D  c #6D625A",
"F  c #656354",
"G  c #726354",
"H  c #74665A",
"J  c #7A6759",
"K  c #756A5D",
"L  c #7C6A5A",
"P  c #786757",
"I  c #7D705F",
"U  c #6E6969",
"Y  c #6F6F63",
"T  c #746B61",
"R  c #736A6A",
"E  c #7A6F65",
"W  c #6E706D",
"Q  c #7D7163",
"!  c #6A6176",
"~  c #786E77",
"^  c #727872",
"/  c #7D7A72",
"(  c #787376",
")  c #9E7A2C",
"_  c #856631",
"`  c #8D7136",
"'  c #957636",
"]  c #84662A",
"[  c #A27633",
"{  c #A67B36",
"}  c #937843",
"|  c #806C5A",
" . c #8F6B55",
".. c #8D7254",
"X. c #96745B",
"o. c #837465",
"O. c #81756A",
"+. c #8F796B",
"@. c #917B66",
"#. c #847E73",
"$. c #8D7F72",
"%. c #927F70",
"&. c #A78130",
"*. c #B78F39",
"=. c #B98C39",
"-. c #BA923E",
";. c #BA9731",
":. c #C49E3D",
">. c #D9B03C",
",. c #AC8A41",
"<. c #A5894C",
"1. c #BB8E40",
"2. c #BB9343",
"3. c #BD954D",
"4. c #BE9C54",
"5. c #A89548",
"6. c #8D8467",
"7. c #99886E",
"8. c #8B827C",
"9. c #8D8476",
"0. c #948475",
"q. c #99897C",
"w. c #978A7A",
"e. c #A0816C",
"r. c #A09778",
"t. c #B8A07A",
"y. c #C49C44",
"u. c #CA9D4B",
"i. c #C29848",
"p. c #C79B52",
"a. c #C4A144",
"s. c #CAA44B",
"d. c #CAA947",
"f. c #D4A949",
"g. c #D6B14D",
"h. c #DDB94C",
"j. c #DAB54D",
"k. c #CEA352",
"l. c #D4A952",
"z. c #D2A959",
"x. c #D6B654",
"c. c #E8B755",
"v. c #E3B74A",
"b. c #C6AD6D",
"n. c #D5BD65",
"m. c #D6B776",
"M. c #827D84",
"N. c #7C8081",
"B. c #938B81",
"V. c #948B88",
"C. c #99968B",
"Z. c #9E939B",
"A. c #AB9A89",
"S. c #B49F8E",
"D. c #A39F93",
"F. c #A19C98",
"G. c #9FA090",
"H. c #B8A58A",
"J. c #A7A296",
"K. c #ADA393",
"L. c #A9A29A",
"P. c #B5AA9D",
"I. c #B7AA9D",
"U. c #A998A0",
"Y. c #A8A8A3",
"T. c #B2ADA2",
"R. c #B9ADA7",
"E. c #BEBBB3",
"W. c #B8B6B5",
"Q. c #BBB7AB",
"!. c #C2AC83",
"~. c #C4B8AD",
"^. c #C4BCB2",
"/. c #C8B8B8",
"(. c #D6BBA8",
"). c #E5CB80",
"_. c #F5E391",
"`. c #DCC1AC",
"'. c #CCC5BD",
"]. c #CACEBD",
"[. c #E0D2A3",
"{. c #CDCAC1",
"}. c #C2C3CA",
"|. c #CBCBCC",
" X c #D3CFCC",
".X c #CBD1C7",
"XX c #D8D3C5",
"oX c #D6D1CC",
"OX c #CFCED3",
"+X c #D7D7D5",
"@X c #D3CBD8",
"#X c #E2D5CC",
"$X c #E1D9CB",
"%X c #E1D3C6",
"&X c #E0D5DB",
"*X c #EDE6DD",
"=X c #EDECDD",
"-X c #E3E2DE",
";X c #DFD8E0",
":X c #EAE8E4",
">X c #E7E8E8",
",X c #FCF2E8",
"<X c #FFFCF3",
"1X c #FCFEFE",
"2X c #F6F3F7",
"3X c #F9E9EC",
/* pixels */
"= 3 = e k j q 2 ; ; = : : : : 4 d 0 0 0 q q f l h ",
"w.G D b h j j w q q f 2 q q q 3 q q q 2 q w w e D ",
"o.w.o.G v v b B B G B H S S n n B B n n n n B G n ",
"| o.L L 0.I.$.K L L J P G Z J I J J L o.G o.J B G ",
"L 0.L G q.%X~.H G G H J @.A.| S S n b G B k b J G ",
"A.0.o.o.E K w D w.K j G (.`.S.O.8.B.9.D F.W.#.3 f ",
",XD.XX^.#.C.* O.$X^.I.+.e.e.m q.oX*X~.T.:X1XoXH C.",
"*XJ.T.<XD./ = T P.$X#XA.X. .y q. X^.'.E.|.1X{.K.D.",
"2XH.E.<X>XL.% F =X-XXX0...c , 8.+XR.T.W K.3X'.B.T ",
">XH.+X:X1X*X% / 1X2X#X7.y r < 6./.U.J.#.P.;X].r.N ",
":XA.Y.,X.X=Xd V.<X[.).n.Z a , 5.b.!.I.~ Z.2XW.K.N ",
"{.n x R.C.Q.g #._.x.v.>.' u u &.a.x.t.! }.+XW.( V ",
"9.D B.o.G.9.0 A j.l.c.c.d.{ [ u.z.;.<.e 5 Y.@Xx x ",
"j T E n Y B.k <.u.l.h.g.g.p.y.g.l.,.` t   ^ |.R x ",
"B f D Q - V.j p.*.a.h.x.k.y.s.s.a.' _ } o N.+X( s ",
"w.> R f @ 4 < y.[ *.i.-.3.:.s.-.} 6 7 ' . M.&X^ U ",
"g +   . $   3 X.i ) =.-.a.s.2.,.] t 3 8 X x V.R N ",
"o O + - + s C u M 4.i.k.s.i.2.' ` 9 & 1 # z / ( U ",
"X O g V + d k 1 %.m.1.k.y.2.2.' _ p & < s }.2XOX|."
};
