/* XPM */
static const char *micro_lucmansa[] = {
/* columns rows colors chars-per-pixel */
"25 19 195 2 ",
"   c #0C0B0B",
".  c #050706",
"X  c #110D0C",
"o  c #0E100F",
"O  c #12110F",
"+  c #0E0E11",
"@  c #141314",
"#  c #14151A",
"$  c #17181B",
"%  c #1B1B1C",
"&  c #1A1718",
"*  c #20160D",
"=  c #231E1C",
"-  c #1E201E",
";  c #25201D",
":  c #2B241D",
">  c #3C2A1D",
",  c #0E0F21",
"<  c #1C1C23",
"1  c #151E23",
"2  c #201E21",
"3  c #1D2024",
"4  c #1D222B",
"5  c #172123",
"6  c #252323",
"7  c #2C2622",
"8  c #22242B",
"9  c #292629",
"0  c #2D2D25",
"q  c #332C25",
"w  c #322F2C",
"e  c #392F25",
"r  c #35312D",
"t  c #3E312B",
"y  c #222732",
"u  c #2E313A",
"i  c #383330",
"p  c #3E3934",
"a  c #3E3D3E",
"s  c #402F27",
"d  c #422F2B",
"f  c #47382F",
"g  c #443B35",
"h  c #433E3B",
"j  c #4B3E36",
"k  c #5D402E",
"l  c #4D4138",
"z  c #554235",
"x  c #5B453B",
"c  c #59483E",
"v  c #58463A",
"b  c #78653B",
"n  c #4B4A4C",
"m  c #524C45",
"M  c #554F47",
"N  c #4F504A",
"B  c #5D5045",
"V  c #5B524D",
"C  c #464D53",
"Z  c #4C5059",
"A  c #5C5552",
"S  c #54535D",
"D  c #62544A",
"F  c #7E5F4B",
"G  c #665D54",
"H  c #6B5E53",
"J  c #645C58",
"K  c #6A5F5A",
"L  c #775A52",
"P  c #5F605B",
"I  c #7A6747",
"U  c #65655D",
"Y  c #746255",
"T  c #7C6552",
"R  c #73655A",
"E  c #75685D",
"W  c #5E5C6A",
"Q  c #67686C",
"!  c #6C6A6C",
"~  c #62636A",
"^  c #7A6D62",
"/  c #706E6F",
"(  c #746860",
")  c #696C74",
"_  c #737274",
"`  c #7D7975",
"'  c #7B7A7D",
"]  c #707579",
"[  c #826D5D",
"{  c #866F61",
"}  c #896B60",
"|  c #827264",
" . c #89786A",
".. c #95796A",
"X. c #857C76",
"o. c #8B7E78",
"O. c #97845C",
"+. c #9C836D",
"@. c #90846A",
"#. c #878076",
"$. c #938273",
"%. c #988371",
"&. c #9E8976",
"*. c #93867C",
"=. c #9B8B7C",
"-. c #978B78",
";. c #97917B",
":. c #A48B73",
">. c #A88E77",
",. c #A7877C",
"<. c #A28C7A",
"1. c #A6917E",
"2. c #AB937D",
"3. c #8C8482",
"4. c #8E8C8F",
"5. c #9C8E83",
"6. c #9D9389",
"7. c #9C9286",
"8. c #8B8D92",
"9. c #9A999B",
"0. c #969394",
"q. c #A49282",
"w. c #AE9583",
"e. c #AD9985",
"r. c #A59889",
"t. c #B89E87",
"y. c #A49B94",
"u. c #AA9B93",
"i. c #A29899",
"p. c #9FA09A",
"a. c #A4A29D",
"s. c #A8A09E",
"d. c #AEA093",
"f. c #B4A493",
"g. c #BCAC9C",
"h. c #B3A59A",
"j. c #A3A1A6",
"k. c #A9A5A3",
"l. c #ABA8AC",
"z. c #BAADA3",
"x. c #B2AEAE",
"c. c #B3ACA6",
"v. c #B5B1AD",
"b. c #BBB3AB",
"n. c #B4B0B2",
"m. c #BAB5B5",
"M. c #BBBAB4",
"N. c #BDB9BC",
"B. c #C8A58F",
"V. c #C6A489",
"C. c #C2AC97",
"Z. c #DDB89D",
"A. c #C3B7AB",
"S. c #CABDB2",
"D. c #C4BEBC",
"F. c #C6BDB6",
"G. c #BFC3BA",
"H. c #CCC3BF",
"J. c #D5CCBE",
"K. c #D3C8B6",
"L. c #D9D3B9",
"P. c #CCCBC5",
"I. c #C9C6C6",
"U. c #D0C7C2",
"Y. c #D3CAC4",
"T. c #DACFC3",
"R. c #D4CDC9",
"E. c #D9CFCD",
"W. c #D5D1CD",
"Q. c #DBD7D3",
"!. c #DCDCD4",
"~. c #DFDEDB",
"^. c #D7D6D2",
"/. c #E1D0C0",
"(. c #E0D7D2",
"). c #E5DCD6",
"_. c #E4DED8",
"`. c #E5E4DE",
"'. c #EBE3DE",
"]. c #EAE3D7",
"[. c #EBE6E2",
"{. c #EDEBE3",
"}. c #EEEBEA",
"|. c #E5E3E6",
" X c #F6EBE3",
".X c #F4EFEA",
"XX c #F1F1EC",
"oX c #FFF9EF",
"OX c #FEF5EE",
"+X c #F1EFF3",
"@X c #F7F5F6",
"#X c #F9F3F1",
"$X c #FEFCF5",
"%X c #F7F9F8",
"&X c #FDFCFB",
/* pixels */
"p r p = 7 = ; 7 > [ z & - e : ; G G V 7 : q : q q ",
"H f q V G H G G ` X.g & % & 6 3 7 7 h p w w i r r ",
"K.h.H c R R Y | X.| Y B B D m A V V A A J J A J J ",
"oXT. .5.z.r.=.| E | ^ ^ ^ ^ E E ^ E E R R R R R R ",
"A.d.-.=.1.f.e.&.:.+.%.=. ...1.:.<.&.<.1.<.<.<.&.<.",
"/.g.e.w.2.t.2.>.K.OXs.l g i V r.&.1.<.&.&.1.&.:.%.",
" XS.q.q.e.C.&.2.h.H.D { <.t : ( =.-.*.$.$.$. .=.6.",
"~.D.R. XT.S.J.7.y.X.> B.V.s X m ).R.c.b.(.F.y.).$X",
"{.).#XXX}.L..XM.i.X.z ..+.x d 9.}.Q.v.D.[.P.D.#X&X",
"!.'.'.`.&XK..X!.].X.{ Z...} T W.[._.v.Y.H.N.x.P.@X",
"{.Y.'..X{.L. XXX$Xp.f ,.L x  .H.R.Q.v.n.m.x.4.9.|.",
"~.R.].~.`.K.'.`.%XG.B w.T x *.P.Q.W.m.k.l.j.0.l.+X",
"M.E.J.P.$Xg._.v..XU.I V.F k +.R.~.^.k.l.n.j.8.N.+X",
"y.y.;.0.Y.*.z.a.N.! l >.$.[ c 9 _ ' a n Q ~ S ' I.",
"K o.-.3.#.5.y.P y 5 % 6 w 9 # 1 $ 6 @ + @ @ $ + _ ",
"j u.@.s.6.( K 6 - y 8 $ , < % 4 < % 3 @   @     Q ",
"H u.v u.U.h 6 < 4 C S N I N ~ Z @ @ # $     O . / ",
"Y.A.e y.3.6 2 @ 4 ] W U O.` ) u   + # $ X X @   n ",
"b.G * g & 9 % + 8 8.W 0 b m ) 4   + # $ & @ @ o a "
};
