/* XPM */
static const char *micro_fbourgue[] = {
/* columns rows colors chars-per-pixel */
"25 19 200 2 ",
"   c #0C0300",
".  c #170801",
"X  c #140600",
"o  c #261816",
"O  c #22211E",
"+  c #28281E",
"@  c #372215",
"#  c #31301E",
"$  c #282722",
"%  c #282820",
"&  c #2D2E29",
"*  c #242621",
"=  c #33332C",
"-  c #3D392B",
";  c #373328",
":  c #3B3D38",
">  c #462307",
",  c #452517",
"<  c #59361A",
"1  c #60381E",
"2  c #68321A",
"3  c #492F20",
"4  c #473526",
"5  c #493C2C",
"6  c #5A3928",
"7  c #653927",
"8  c #723C24",
"9  c #6D3E36",
"0  c #42423C",
"q  c #48453E",
"w  c #504D3A",
"e  c #644229",
"r  c #7C4B2B",
"t  c #634937",
"y  c #6E483F",
"u  c #604439",
"i  c #7E4F3F",
"p  c #7B4B34",
"a  c #6B5234",
"s  c #76573B",
"d  c #4A4B45",
"f  c #544D42",
"g  c #534B4D",
"h  c #5D5A4E",
"j  c #505052",
"k  c #684E48",
"l  c #7D554A",
"z  c #735451",
"x  c #685849",
"c  c #5D625C",
"v  c #6C6655",
"b  c #6D6A5E",
"n  c #686659",
"m  c #75665D",
"M  c #72715F",
"N  c #7C5E60",
"B  c #6D6C63",
"V  c #626962",
"C  c #716D64",
"Z  c #796662",
"A  c #747266",
"S  c #7B7367",
"D  c #7A766B",
"F  c #7D796C",
"G  c #77746B",
"H  c #737570",
"J  c #7B7B71",
"K  c #88442D",
"L  c #885837",
"P  c #9A5C37",
"I  c #9E673E",
"U  c #835442",
"Y  c #895F47",
"T  c #865C43",
"R  c #985B48",
"E  c #9C5C43",
"W  c #8B604F",
"Q  c #97654C",
"!  c #8F695C",
"~  c #996D58",
"^  c #B16F5F",
"/  c #A67356",
"(  c #8A6C62",
")  c #8A746E",
"_  c #8F7868",
"`  c #857869",
"'  c #937361",
"]  c #827D72",
"[  c #8C7972",
"{  c #9A7D7F",
"}  c #888677",
"|  c #80817A",
" . c #8B867A",
".. c #8E8B7D",
"X. c #868474",
"o. c #9C8375",
"O. c #9B847C",
"+. c #938C7D",
"@. c #A9856C",
"#. c #A68C7D",
"$. c #AD8D7E",
"%. c #B4857D",
"&. c #C8997D",
"*. c #937F8B",
"=. c #8D8C83",
"-. c #8B8D88",
";. c #968484",
":. c #928D82",
">. c #9C8A82",
",. c #9D8E8C",
"<. c #998785",
"1. c #8F9186",
"2. c #8D908F",
"3. c #949182",
"4. c #9A9286",
"5. c #95948B",
"6. c #9C958B",
"7. c #9E9B8F",
"8. c #9D9980",
"9. c #968C94",
"0. c #8E9291",
"q. c #989792",
"w. c #9A9A92",
"e. c #959A94",
"r. c #A58E80",
"t. c #A79285",
"y. c #A19F86",
"u. c #A29A8E",
"i. c #A89588",
"p. c #A19C93",
"a. c #A39C9C",
"s. c #AA9C9A",
"d. c #A79692",
"f. c #97A085",
"g. c #A6A199",
"h. c #ACA39B",
"j. c #ACAC9C",
"k. c #A6A292",
"l. c #B3A393",
"z. c #B8A79D",
"x. c #B3A19F",
"c. c #B2B19D",
"v. c #A099A0",
"b. c #A99FA7",
"n. c #ACA3A5",
"m. c #ACABA6",
"M. c #ACA4AB",
"N. c #AEA9AF",
"B. c #A7A4A3",
"V. c #B0ABA2",
"C. c #B1A7AC",
"Z. c #B3A9AD",
"A. c #BAABAA",
"S. c #BEACA0",
"D. c #ADB1A3",
"F. c #B3B2AB",
"G. c #B9B7AA",
"H. c #B8B4A7",
"J. c #B5ACB3",
"K. c #B8AEB6",
"L. c #BBB2B5",
"P. c #B6BBB3",
"I. c #BBBDB3",
"U. c #B8B5B7",
"Y. c #C0B8AD",
"T. c #C2BEBC",
"R. c #C6B7BA",
"E. c #BAC1BA",
"W. c #C7C0B6",
"Q. c #C3C5BD",
"!. c #CAC0BF",
"~. c #D7CCBC",
"^. c #B0B3C6",
"/. c #BBC6C0",
"(. c #C5C9C3",
"). c #CECFC9",
"_. c #C1C6C2",
"`. c #D7CEC9",
"'. c #DFD3CB",
"]. c #C7CAD1",
"[. c #CFD8D5",
"{. c #C8D4D4",
"}. c #D9D7D5",
"|. c #E5DECC",
" X c #E3E6DA",
".X c #EBEDDF",
"XX c #DCDFE6",
"oX c #D7E4EA",
"OX c #E6E4E4",
"+X c #E4E8EB",
"@X c #ECF1ED",
"#X c #EFF8F7",
"$X c #ECF3F8",
"%X c #EFFBFB",
"&X c #F3F4F4",
"*X c #FFFBF5",
"=X c #F6F7F9",
"-X c #F6FCFE",
";X c #FEFEFD",
":X c #F9F6F1",
/* pixels */
"S b h f - ; % * o g Y.~..X Xh O - - = O O = & & = ",
"+.:.=.:.} F B : d w.c.G.V.v w g f f q 0 0 = = + $ ",
"b B C C D D B V V A 3.I.!.|.y.,...7.F.H.G.G.k...j.",
"A D B A b C n H D.}.F.c j p.j.6.g.u.} ..3.6.....k.",
"D D D D D D B B.;XT.o .   X @ M D ] F D b C b C S ",
"] J G D D D J H -.5 Y ~ U L r t } X.:.g.F.T.m.-._.",
"} ] ] F ] ] J | v t &./ Q P I e 5. X:X;X;X;X&XF.;X",
"+...} } } } | -.b N z 4 u , e a 5.;X;X;X-X;X@XE.;X",
"U.=.+.+. .} ..2.` ' U e U > < s p.;X=X;X;X;X&XP.;X",
"+Xm...4.:...1.0.{ %.^ R Y 2 K E h.;X*X;X;X;X=X(.;X",
"$X[.5.6.>.3.5.2.+.o.l 9 4 , 1 L j.;X;X;X;X;X&X(.;X",
"$X&Xm.4.6.4.5.e.f.` k y 7 @ # 8.T.;X-X;X;X;X=XP.;X",
"%X-XQ.4.u.6.w.w.u.>.m x 6 3 , S.).;X-X;X;X;X=XQ.;X",
"#X-X}.6.u.p.a.q.J.( ! v 5 6 8 @.W.*X;X;X;X;X=XQ.;X",
"&X;XOX7.u.h.B.a.^.;.7 Q T p i r.#.d.'.*X;X;X=XP.;X",
"&X;XOXg.V.n.9.a.Z.*.Z 7 L l m [ @.' o.l.'.;X&X/.;X",
"&X;X$XL.N.s.9.Z.N.v.A.,.6 W ) _ o.<.>.s.$.~.*X(.;X",
"&X;XXXL.N.d.n.Z.b.J.n.R.k ! ) O.t.x.d.A.#.l.`.[.-X",
"&X=X].C.n.;.K.M.b.N.a.U.O.( ,.i.h.A.t.C.>.t.z.{.oX"
};
