/* XPM */
static const char *micro_ssalce[] = {
/* columns rows colors chars-per-pixel */
"25 18 202 2 ",
"   c #0A080A",
".  c #170C0C",
"X  c #19150D",
"o  c #1D1615",
"O  c #18191B",
"+  c #180E16",
"@  c #370B0C",
"#  c #27160D",
"$  c #261A14",
"%  c #261A1A",
"&  c #381314",
"*  c #2A211E",
"=  c #32241C",
"-  c #3C2C1F",
";  c #2B2928",
":  c #322A23",
">  c #3A2B22",
",  c #3B2B28",
"<  c #3E3127",
"1  c #2E2E30",
"2  c #343338",
"3  c #460A12",
"4  c #530C12",
"5  c #48181A",
"6  c #56171A",
"7  c #601F1D",
"8  c #57261F",
"9  c #5C1E21",
"0  c #463426",
"q  c #57352B",
"w  c #483A33",
"e  c #5C3D31",
"r  c #573A37",
"t  c #612831",
"y  c #662C2A",
"u  c #4B4238",
"i  c #5A4033",
"p  c #664639",
"a  c #764C3F",
"s  c #413F44",
"d  c #4A4648",
"f  c #584C48",
"g  c #565449",
"h  c #4D565B",
"j  c #614B45",
"k  c #744E41",
"l  c #6A5C4E",
"z  c #695549",
"x  c #775C4B",
"c  c #6E5050",
"v  c #7D5D51",
"b  c #775D5E",
"n  c #66675F",
"m  c #767559",
"M  c #706A6A",
"N  c #74797A",
"B  c #707672",
"V  c #6F706E",
"C  c #973426",
"Z  c #B54132",
"A  c #875945",
"S  c #83584A",
"D  c #855D53",
"F  c #89614B",
"G  c #906449",
"H  c #9A724F",
"J  c #896656",
"K  c #9A6C5B",
"L  c #956958",
"P  c #8E7058",
"I  c #99765A",
"U  c #A57A57",
"Y  c #A6725C",
"T  c #A6785A",
"R  c #B4775B",
"E  c #B26758",
"W  c #946F67",
"Q  c #81776D",
"!  c #9C7361",
"~  c #9C7667",
"^  c #877F75",
"/  c #9B7D72",
"(  c #896B69",
")  c #A97962",
"_  c #A67867",
"`  c #B47C65",
"'  c #B8786C",
"]  c #A37E78",
"[  c #C67D77",
"{  c #AD845A",
"}  c #B2825C",
"|  c #88877D",
" . c #AB8262",
".. c #AC836B",
"X. c #A08067",
"o. c #B98A6C",
"O. c #B58A67",
"+. c #BC926D",
"@. c #BD8E72",
"#. c #BE9078",
"$. c #C78B6A",
"%. c #C4976F",
"&. c #D69B76",
"*. c #737E82",
"=. c #877F83",
"-. c #8D8486",
";. c #8D8C84",
":. c #8D8E89",
">. c #848A89",
",. c #938E84",
"<. c #948E8B",
"1. c #988E8D",
"2. c #8D9385",
"3. c #8D918C",
"4. c #87938F",
"5. c #959285",
"6. c #9C9386",
"7. c #93938B",
"8. c #9A938D",
"9. c #979A8D",
"0. c #9C988C",
"q. c #889B98",
"w. c #949593",
"e. c #979992",
"r. c #9B9A93",
"t. c #9C9C99",
"y. c #969999",
"u. c #A39B8C",
"i. c #B29084",
"p. c #A59E9E",
"a. c #A89B92",
"s. c #9EA08A",
"d. c #9BA19C",
"f. c #9CA498",
"g. c #A2A399",
"h. c #A8A698",
"j. c #9EA6A8",
"k. c #A5ACAB",
"l. c #AAAAA8",
"z. c #A4B1AA",
"x. c #ADB1AB",
"c. c #ACBCA2",
"v. c #B2B2AC",
"b. c #B1BEAA",
"n. c #AEB3B9",
"m. c #B7BBB6",
"M. c #CE9881",
"N. c #E3A783",
"B. c #C6BEBB",
"V. c #AFCEBE",
"C. c #B8C3BB",
"Z. c #C4C2B3",
"A. c #C3CAB9",
"S. c #D8E5B9",
"D. c #B0BFC2",
"F. c #BBCBCA",
"G. c #BAC4C6",
"H. c #BACDD5",
"J. c #ABDED7",
"K. c #BAD4E3",
"L. c #B2E6E2",
"P. c #C3CAC7",
"I. c #D4C9C9",
"U. c #CDD2CC",
"Y. c #CEDAC9",
"T. c #D8DEC8",
"R. c #C9D6D9",
"E. c #DCDDD4",
"W. c #D3DBDB",
"Q. c #E2DEDD",
"!. c #DBE3C8",
"~. c #CFE4D5",
"^. c #D5E5DD",
"/. c #DAE4DB",
"(. c #DAE7D5",
"). c #E2ECD3",
"_. c #D4DEE0",
"`. c #DBDCE1",
"'. c #CBE3E9",
"]. c #DFEAE3",
"[. c #DDE5EA",
"{. c #D6E5E6",
"}. c #DFF5E8",
"|. c #DFEDF2",
" X c #D4EBF1",
".X c #C8F2F0",
"XX c #D2FEFF",
"oX c #E3E6E4",
"OX c #E9EDE3",
"+X c #E5EAEC",
"@X c #EEEDEB",
"#X c #E3E9E8",
"$X c #F1E6E0",
"%X c #EDFDEC",
"&X c #ECF4E9",
"*X c #FAF3E7",
"=X c #F3F4EC",
"-X c #ECEFF6",
";X c #EBF3F2",
":X c #E5F5F2",
">X c #FBFEFC",
",X c #F3F8F5",
/* pixels */
"g.3.3.;.;.-.<.2.4.e.u.n B 5.d.0.r.r.t.e.g.t.l.k.k.",
"5.1.1.;.9.e.7.9.h.3.f   1 l | u.e.w.7.7.;.;.| ;.| ",
"2.7.w.2.7.8.8.f.Q 1 r a i 0 w l 8.l.t.e.7.7.8.5.7.",
",.:.:.;.<.w.y.p.; j _ R $.x : 0 u h.A.m.v.e.7.8.e.",
"7.3.y.p.q.J..Xn.w ! K ! T @.p * > u v.x.m.P.x.7.,.",
"e.z.R.@Xq.L.XXj.f v S K p F ..= - < r.=Xd.>.C.P.x.",
"B.;X;X@Xp.,X>X-.d j e M.K p #.G # < g =XU.U.P.j.P.",
"U.W.W./.3.oX@Xg w v c _ R R N.N.> $ : h.E.OX>XE.d.",
"/././.#X>.W._.s c _ D L ' A ) N.k   = x h./.*X&XT.",
">X,X&X;Xy.:X^.; f ~ D S E Y ` &.L % % j u.~.(.%X).",
"-X[.#X`.>.{.P.: * ] W K ` M.o.&.p $ X z 6.C.%XOX!.",
"'.H.R.R.B D.G.d   ( i.! Y o.+.} < . X m s.Z.&X/.S.",
" X'.{._.*.F._.d   , / P A G H } 0 o + ^ b.A.!.}.(.",
"-X+X=XQ.y.;X;X=.O o x P S L U $.e X 2 ,.f.c.(.&X#X",
"H.F.{.U.B F.#X@Xf . J X.K ) { &.x # 5.T.g.Y./.`.[.",
"K.H.|.;XN k.l.=.r & a ..~  .{ %.U 8 I.,Xz.Y.~.{.|.",
"H.^.Z.W t 5 @ @ 6 6 q I T _  .+.{ C E *XV.U.$X{.#X",
"2 b y 4 3 & 5 6 9 7 e _  ...O.%.T C Z [ a.M n h N "
};
