/* XPM */
static const char *micro_lseiberr[] = {
/* columns rows colors chars-per-pixel */
"25 19 184 2 ",
"   c #0C0500",
".  c #140B04",
"X  c #150F0B",
"o  c #180E0F",
"O  c #0F100A",
"+  c #14120D",
"@  c #1A130D",
"#  c #161510",
"$  c #1A1512",
"%  c #1D1A16",
"&  c #181918",
"*  c #21180F",
"=  c #201614",
"-  c #2A1710",
";  c #231B11",
":  c #221C19",
">  c #26211D",
",  c #322114",
"<  c #3D2312",
"1  c #5F2F1B",
"2  c #542E17",
"3  c #4C3216",
"4  c #543018",
"5  c #622C14",
"6  c #412E20",
"7  c #4F372B",
"8  c #463427",
"9  c #453B39",
"0  c #5B402D",
"q  c #4F483E",
"w  c #49423A",
"e  c #5A4A3B",
"r  c #6A4026",
"t  c #7F4A22",
"y  c #774F2C",
"u  c #7C4B2A",
"i  c #7A472C",
"p  c #7E5132",
"a  c #4C4843",
"s  c #434544",
"d  c #564B45",
"f  c #52514E",
"g  c #565855",
"h  c #704A41",
"j  c #60564A",
"k  c #64594D",
"l  c #665D56",
"z  c #6F6253",
"x  c #64625D",
"c  c #6D635B",
"v  c #6F695D",
"b  c #716557",
"n  c #74665D",
"m  c #7A6759",
"M  c #7A6C5C",
"N  c #726A5F",
"B  c #6F6661",
"V  c #6A6661",
"C  c #746B63",
"Z  c #7B6E64",
"A  c #716B6B",
"S  c #777165",
"D  c #7C7065",
"F  c #7C7469",
"G  c #77736A",
"H  c #7F7872",
"J  c #854424",
"K  c #8F5F3B",
"L  c #8C5C36",
"P  c #A7663E",
"I  c #805743",
"U  c #8E5F45",
"Y  c #86584B",
"T  c #9E6740",
"R  c #936C45",
"E  c #AD7053",
"W  c #A46949",
"Q  c #817365",
"!  c #82746A",
"~  c #857B6E",
"^  c #8C7B6D",
"/  c #887265",
"(  c #987967",
")  c #937664",
"_  c #867774",
"`  c #8D7E75",
"'  c #867D78",
"]  c #887D79",
"[  c #847A70",
"{  c #A47669",
"}  c #8B8379",
"|  c #91877B",
" . c #9D867B",
".. c #93887D",
"X. c #9D8D7E",
"o. c #B88C79",
"O. c #B0967B",
"+. c #C18C7C",
"@. c #C7987E",
"#. c #7F8382",
"$. c #868987",
"%. c #918681",
"&. c #948D83",
"*. c #9C8F86",
"=. c #9C958C",
"-. c #9C958B",
";. c #879192",
":. c #919793",
">. c #9C9E9D",
",. c #9B9390",
"<. c #A18F81",
"1. c #A4978E",
"2. c #A4998F",
"3. c #A8998A",
"4. c #BF9A80",
"5. c #BC9D8B",
"6. c #A79B93",
"7. c #AF9B90",
"8. c #A39C98",
"9. c #B09E94",
"0. c #AEA398",
"q. c #B4A99C",
"w. c #BCA89A",
"e. c #A0A0A0",
"r. c #A8A6A7",
"t. c #ACAEAB",
"y. c #ADAEA6",
"u. c #B3ACA2",
"i. c #B5B1AA",
"p. c #AEB2B3",
"a. c #B3B5B5",
"s. c #B2B8B6",
"d. c #B8BABC",
"f. c #CB9589",
"g. c #D69C84",
"h. c #D1A38F",
"j. c #CCA794",
"k. c #D3A495",
"l. c #D6A693",
"z. c #CEB29D",
"x. c #E4AC95",
"c. c #E4B09A",
"v. c #CEBEA4",
"b. c #D6B8AD",
"n. c #C3BFBE",
"m. c #E1BEAB",
"M. c #C1C0BC",
"N. c #DEC2B4",
"B. c #EDC0A9",
"V. c #F7C3B5",
"C. c #FACBB4",
"Z. c #F6D2BC",
"A. c #BCCACB",
"S. c #C2C4C1",
"D. c #CDCCC5",
"F. c #C5CCCE",
"G. c #D5CDC0",
"H. c #D5D3CC",
"J. c #DCD9CD",
"K. c #C6CED2",
"L. c #CFD5D5",
"P. c #DFD6D1",
"I. c #DDDDD7",
"U. c #D9DAD8",
"Y. c #E4E4DE",
"T. c #EBE5DE",
"R. c #D9DCE1",
"E. c #E4E6E2",
"W. c #EBE6E0",
"Q. c #EBE9E4",
"!. c #E4EAED",
"~. c #ECEEED",
"^. c #E5E6EA",
"/. c #F6EFE9",
"(. c #FFF5EC",
"). c #EDEEF2",
"_. c #F1EFF0",
"`. c #EDF1F2",
"'. c #F4F5F4",
"]. c #F7F8F2",
"[. c #FCFDF7",
"{. c #F2F6F9",
"}. c #F4F9FA",
"|. c #FEFEFD",
/* pixels */
"M c B C v C S H ~ Q k w C ~ ..&...z b j [ ..~ } F ",
"Q ! C n c c l x c x g C =.d.E.|.(.2.2.0.1.6.q.q.q.",
"] Q Q Z Z A C N Z c G Q.Q./.T.i.*.! D Q Z n l z k ",
"a.&.! Z S B Z n m m k a : , 8 D Z ~ ! D ! %.2.0.u.",
":.S.r.%.F ! Z Z ~ d @ 6 7 - . e ~ Q ~ u.W.].|.|.|.",
"e.;.A.s...^ ^ ~ ' 8 ) C.@.I < , ..G.J.H.|.|.|.|.|.",
"|.a.$.U.n.%.` | F 0 B.c.g.W p 3 H.[.Q.H.|.|.|.|.|.",
"[.|.8.a.!.p.|  .^ / b.Y +.1 r R '.|.Q.Y.|.|.|.|.|.",
"|.|.Q.>.!.R.,... .f.V.l.x.J L E P.|.T.J.|.|.|.|.|.",
"|.|.|.a.K.{.i...<.k.C.h.{ 5 t P T.|.Q.H.|.|.[.|.|.",
"|.|.|.L.K.|.D.&.<.7.j.h.o.i u z.|.|.Q.I.|.|.|.|.|.",
"|.|.|.!.K.}.I.*.X.=.5.4.k.U r Y.|.|.E.D.|.|.|.|.|.",
"|.|.|.!.K.|.I.=.9.2.m.o.h 2 u v.|.|.Y.H.|.|.[.|.|.",
"|.|.|.`.F.|.Q.8._ a N.Z.j.K T 3 l H.Q.H.|.|.|.|.|.",
"|.|.|.).F.|.M.9 % # c w.O.y 4 * X : q -.|.|.].[.|.",
"[._.|.^.d.#.% $ % ; @ o & @ X & ; = @ . A |.y.f >.",
"|.`.{.~.f X : : % % % $ $ $ $ $ $ # % : . S.y.V :.",
"~.{.|.t.: > % $ % $ $ $ + + + + @ + + @   x &.` 6.",
"'.}.}.s $ : % % $ $ $ + + + + + X + O @ . ; M ( 7."
};
