/* XPM */
static const char *micro_flonaben[] = {
/* columns rows colors chars-per-pixel */
"25 19 186 2 ",
"   c #050509",
".  c #0C0A0F",
"X  c #070206",
"o  c #0E0E11",
"O  c #100E11",
"+  c #141215",
"@  c #1A1512",
"#  c #14161A",
"$  c #191718",
"%  c #1B1C1D",
"&  c #15191C",
"*  c #25201C",
"=  c #38271F",
"-  c #211F22",
";  c #232224",
":  c #2A2624",
">  c #2E2B2A",
",  c #342C2A",
"<  c #382F2A",
"1  c #342B26",
"2  c #3A322A",
"3  c #353334",
"4  c #3A3634",
"5  c #3E3A37",
"6  c #3D3B3C",
"7  c #443731",
"8  c #423A34",
"9  c #4A3B33",
"0  c #413E3B",
"q  c #4B3F3B",
"w  c #44403C",
"e  c #4C423D",
"r  c #54463E",
"t  c #444242",
"y  c #4C4542",
"u  c #4D4844",
"i  c #4B4A48",
"p  c #544B44",
"a  c #534C4A",
"s  c #584F4A",
"d  c #5C524A",
"f  c #4D4C53",
"g  c #544F53",
"h  c #5E5651",
"j  c #5A5A5C",
"k  c #61574E",
"l  c #65594D",
"z  c #695C4D",
"x  c #605750",
"c  c #645A51",
"v  c #6A5D53",
"b  c #605F5B",
"n  c #685F58",
"m  c #715F51",
"M  c #6E6256",
"N  c #6D625A",
"B  c #726355",
"V  c #796856",
"C  c #74665B",
"Z  c #796658",
"A  c #76695D",
"S  c #7A6A5C",
"D  c #5F5D68",
"F  c #646463",
"G  c #6A6561",
"H  c #6A6B6A",
"J  c #6B666C",
"K  c #736B64",
"L  c #7B6D62",
"P  c #7C7369",
"I  c #6B6871",
"U  c #7B7E77",
"Y  c #78777D",
"T  c #77787A",
"R  c #7D7D7D",
"E  c #757477",
"W  c #827464",
"Q  c #8E7E6F",
"!  c #8A7F74",
"~  c #827B73",
"^  c #8B847C",
"/  c #92877C",
"(  c #7D7C81",
")  c #838383",
"_  c #868789",
"`  c #868A8C",
"'  c #8C8B89",
"]  c #948C84",
"[  c #928E8A",
"{  c #9C8E81",
"}  c #8E908F",
"|  c #9A9286",
" . c #92938A",
".. c #9C938A",
"X. c #9F998D",
"o. c #8A8893",
"O. c #8F9190",
"+. c #8F969C",
"@. c #9C9791",
"#. c #969897",
"$. c #9E9A97",
"%. c #93969C",
"&. c #9D9C9D",
"*. c #919294",
"=. c #A19B95",
"-. c #A89D96",
";. c #9EA09D",
":. c #AAA399",
">. c #B5A79C",
",. c #9799A5",
"<. c #9E9DA5",
"1. c #9AA0AC",
"2. c #A4A4A4",
"3. c #AAA6A4",
"4. c #A7A8A3",
"5. c #A9A8A6",
"6. c #A2A4AA",
"7. c #ADA7A9",
"8. c #A4A9AD",
"9. c #ACADAE",
"0. c #B8AFAA",
"q. c #B4AFAB",
"w. c #AEB0AB",
"e. c #B4B1AD",
"r. c #BCB4AA",
"t. c #A6A6B0",
"y. c #ADAFB4",
"u. c #ACB1B4",
"i. c #B5B5B5",
"p. c #B8B6B7",
"a. c #B5B4BB",
"s. c #B7B9BC",
"d. c #B9BABC",
"f. c #C2BCBD",
"g. c #C2BBB3",
"h. c #C0C2BF",
"j. c #CAC3BA",
"k. c #BEBFC3",
"l. c #C0BEC1",
"z. c #BFC0C4",
"x. c #BEC7CE",
"c. c #C4C2C4",
"v. c #C3C4CA",
"b. c #C5C9CE",
"n. c #CACACB",
"m. c #C8C8C4",
"M. c #D2CFC6",
"N. c #D0CFCD",
"B. c #D5D6CE",
"V. c #DAD3CD",
"C. c #DBD8CF",
"Z. c #C7C7D1",
"A. c #CBCCD3",
"S. c #D1CCD2",
"D. c #CFD2D5",
"F. c #D5D4D3",
"G. c #D9D9D6",
"H. c #D3D6D9",
"J. c #D9D7DA",
"K. c #D6DADE",
"L. c gray86",
"P. c #D9D5D6",
"I. c #E4DFD7",
"U. c #E0DFDD",
"Y. c #ECE4DD",
"T. c #E3E2D9",
"R. c #F7EBDF",
"E. c #D0D9E0",
"W. c #DBDBE3",
"Q. c #E4E4E3",
"!. c #EAEAE6",
"~. c #ECECEB",
"^. c #F3EFEC",
"/. c #EFF0EB",
"(. c #F2F1EF",
"). c #EBEFF2",
"_. c #F2F2F2",
"`. c #F7F9F6",
"'. c #FCFAF6",
"]. c #F6F6F8",
"[. c #FEFDFA",
"{. c #FAFDFF",
"}. c #FFFFFF",
"|. c #FEFEFE",
" X c #FAFBFB",
".X c #FBF7F4",
/* pixels */
"h d s p N K h @ @ + $ # # & % % > ; ; % ; % % - ; ",
"8 0 8 8 p h h u 0 3 5 4 4 5 6 6 5 t i t w t i t a ",
"| / N C c d p p u u p r p e y w e y u y w w u u u ",
"A ! / L z d d k l c l n M c v M n c c c c c c M c ",
"B S Z Z Z { -.P V A A a u N L Z A A S Z S L B C C ",
"B W Q W v >.R.r.B B e G a < n m M M v v z v v v M ",
"| ..K n ! C n h c K q N a , N @.^ ] ^ ] P P =.=.C ",
"'.Y.~ I.j.q.3.> ( f.q r 9 1 2.{.n.~.!.!.e.e.}. Xj.",
"}.V.| .X}.m. .0 [ =.d e 7 2 e.}.5.P.Q.G.m.n.[. XY.",
" XM.X.^._. X .< b (.H - o j }._.2.L.U.F.p.&.`.`.T.",
"}.I...[. X XT., R {.9.$ o R _.~.4.L.n.l.&.) Q.!.B.",
"}.C.X.'.{.`./.t %.}.0.9 = c F.).;.H.v.a.<.Y A.~.k.",
"].r.N -.Q.Q.G.g +.L.V.M A ..i.K.6.v.A.a.%.o.W.b.v.",
"J.:.2 x 5.h.2.n.D.s.H.v.v.8.2.n.K.a.Y ( I D t.A.d.",
"7.^ l N [ w.h.L.F.D.y.E.x.8.H.F.b.d.3 O ; # f Z.%.",
"f.L z L G U F.n.F.N.m.$.e.F.n.z.u.d.F @ : $ f y.,.",
"r.w 0 3.0 H n.y.c.n.f.E $.n.p.%.O.i.T   +   6 S.1.",
"g.* 5 0 + t m.&.i.i.c.' 2.d.2.` } i._ o o . t c.6.",
"u : X . ; F n.&.9.p.m.R _ i.9._ #.s.*.% + . ; J F "
};
