/* XPM */
static const char *micro_ypanares[] = {
/* columns rows colors chars-per-pixel */
"25 19 200 2 ",
"   c #0E0700",
".  c #130900",
"X  c #18130D",
"o  c #323833",
"O  c #38342B",
"+  c #473624",
"@  c #3D4B32",
"#  c #4C4A3E",
"$  c #4E4137",
"%  c #5D4E39",
"&  c #78523F",
"*  c #7B463E",
"=  c #364540",
"-  c #464C45",
";  c #4E4E46",
":  c #514D48",
">  c #4A514E",
",  c #59584B",
"<  c #495755",
"1  c #545651",
"2  c #545559",
"3  c #585A58",
"4  c #655245",
"5  c #615E5C",
"6  c #685A56",
"7  c #765F52",
"8  c #795449",
"9  c #586546",
"0  c #576856",
"q  c #68644A",
"w  c #796247",
"e  c #64625E",
"r  c #6B6457",
"t  c #78695B",
"y  c #7A7658",
"u  c #525561",
"i  c #5C5F64",
"p  c #52696D",
"a  c #586668",
"s  c #5E726B",
"d  c #4D6E7D",
"f  c #5C7071",
"g  c #45686E",
"h  c #6A6563",
"j  c #686B6B",
"k  c #696E68",
"l  c #756A66",
"z  c #6C726C",
"x  c #7B7567",
"c  c #666E75",
"v  c #617474",
"b  c #6A7679",
"n  c #737473",
"m  c #787A77",
"M  c #875C49",
"N  c #8B634E",
"B  c #906344",
"V  c #8B6C59",
"C  c #8B6F57",
"Z  c #97725A",
"A  c #8D6E59",
"S  c #A8765F",
"D  c #877966",
"F  c #967667",
"G  c #867B79",
"H  c #A17C60",
"J  c #7D835D",
"K  c #75876F",
"L  c #7A807D",
"P  c #818562",
"I  c #878578",
"U  c #948675",
"Y  c #98927B",
"T  c #958169",
"R  c #A9846F",
"E  c #A48074",
"W  c #B58B77",
"Q  c #AD917B",
"!  c #B99A6E",
"~  c #CA917E",
"^  c #537483",
"/  c #7C7A86",
"(  c #558394",
")  c #4B969C",
"_  c #6B8183",
"`  c #7B8384",
"'  c #738384",
"]  c #698092",
"[  c #778996",
"{  c #7F8D90",
"}  c #7D909E",
"|  c #7EA4AF",
" . c #7FA9BF",
".. c #49A7CC",
"X. c #47C4FF",
"o. c #65CBF3",
"O. c #868889",
"+. c #928C8E",
"@. c #9C928D",
"#. c #9A9685",
"$. c #918F90",
"%. c #829292",
"&. c #8C9597",
"*. c #9B9A93",
"=. c #939C9B",
"-. c #A29887",
";. c #BB9988",
":. c #A89D93",
">. c #9BA19A",
",. c #B5A68A",
"<. c #B1A394",
"1. c #BDA792",
"2. c #8A9CA6",
"3. c #959CA6",
"4. c #97A4AA",
"5. c #8DA9BA",
"6. c #97ABB5",
"7. c #9AA9B5",
"8. c #9FB1BD",
"9. c #A8A6A9",
"0. c #B3ACA2",
"q. c #BAB6AB",
"w. c #A3AAB5",
"e. c #B0AFB4",
"r. c #A4B2B9",
"t. c #AFB9BC",
"y. c #ABBBB0",
"u. c #B6BCB9",
"i. c #C29180",
"p. c #C0AD8D",
"a. c #D1A78F",
"s. c #DEB19C",
"d. c #CEAD97",
"f. c #CABEAC",
"g. c #B5C1BD",
"h. c #D4C2B6",
"j. c #D6C9BD",
"k. c #CCD2BD",
"l. c #CBC3B1",
"z. c #E6C0AD",
"x. c #E5D0BD",
"c. c #8AB3C9",
"v. c #A7BBC9",
"b. c #B3BEC3",
"n. c #B3BDCB",
"m. c #B4B7C0",
"M. c #C3BFC0",
"N. c #B6C5CE",
"B. c #B9C3CC",
"V. c #BECBC9",
"C. c #AEC3D4",
"Z. c #BDCAD4",
"A. c #BCCEDA",
"S. c #B4CAD7",
"D. c #BED2D8",
"F. c #B7D4EB",
"G. c #CAC8C8",
"H. c #D4CFCC",
"J. c #C1CCD1",
"K. c #CBC5D3",
"L. c #C3D2DD",
"P. c #CED9DC",
"I. c #CBD5D5",
"U. c #D4D4D5",
"Y. c #D9D6D4",
"T. c #DBDBD5",
"R. c #DCDBDB",
"E. c #D7D4DA",
"W. c #E0CFC8",
"Q. c #E5D4CA",
"!. c #E1DFDA",
"~. c #CFE2DE",
"^. c #E4E3DB",
"/. c #E7EBDD",
"(. c #F2E3D5",
"). c #F1E2DB",
"_. c #C4DBED",
"`. c #CADDEB",
"'. c #C9D6E4",
"]. c #DCDDE2",
"[. c #D7D6E3",
"{. c #CCDFF6",
"}. c #E1DFE0",
"|. c #CEE2EA",
" X c #C7E2ED",
".X c #DCE2E5",
"XX c #D0E1EE",
"oX c #D9E5E5",
"OX c #CAE4F2",
"+X c #D2E6F3",
"@X c #D7E8F9",
"#X c #E4E2E2",
"$X c #EDEBE5",
"%X c #E8E7E9",
"&X c #F3EEE6",
"*X c #FCFAEE",
"=X c #E3EBF2",
"-X c #F3EDF1",
";X c #E9F3F2",
":X c #F8F8FD",
/* pixels */
"T.V.t.9.=.%.%.` f a j a b s z n a n O.n O.>.&.4.4.",
"/.I.D.A.L.N.J.T.G.t.7.6.8.7.w.t.v.B.n.n.Z.J.'._.+X",
"^.V.A.S.C.A..X&X$X[.+XOX@X@X+X`. X|.XX+X`.|.`. X`.",
"u.B.A.A.A.A.].*X=XP.2.' 2.n.{._.OX_._._.`.`.'.@XXX",
": $.4.L ` 3.b.u.N.m   . X o r.'.Z.Z.L.N.B.Z.'.r.7.",
"6 : , r l 3 z k i $ V F 8 + , / m &.' 3 5 m z ; - ",
"-.f.Y U q.$.j *.U F z.a.s.;.4 G @.O.b n 3 5 1 O # ",
"l.l.x Y :.9.+.Q.1.D C R H F x k.h.>.=.q.-.@.G.I x ",
"w , P t % @.K.*Xp.C & W M 4 D $X:XI.} I q 9 y ,.,.",
"4 q #.D U u.t.k.d.i.~ a.W R E (.(.U.m.-.q @ 9 J D ",
"2 l h r 6 m 9.$.I E S A A F C #.<.3./ G h 1 k 0.I ",
"1 $ 3 z D ,.x.9.u 7 Z * 8 U D 6 0.F.4.; < > i c 3 ",
"- # j I #.#.j.9.u D H N 7 -.<.6 h.F.r.z b > o e 2 ",
"c v O.r f ^ [ 3.g.f.Z w w T j.*.:.2.] c c ` 1 e n ",
"4.s Q U g 5.D.oX;XQ.W N Z ;.).;X~.| ( p < p %.%.L ",
"&.0 B G c.:X#XoX=X-XW.1.d.Q.%X'.[.@Xv.#.y = _ 6.v ",
"&.2.7.e.Y.E..X].}.#X$X&X$X#XE.E.I.oX+X! K d m 8._ ",
"P.L.N.G.H.Y.R.].#X!.^.^.!.R.R.].oXK.[.-.) o.( [ 5.",
"u.b.w.M.h.T.E.R.R.E.R.T.T.R.R..X[.E.G.y...X...^ 5."
};
