/* XPM */
static const char *micro_dsoum[] = {
/* columns rows colors chars-per-pixel */
"25 19 199 2 ",
"   c #0E0906",
".  c #100B08",
"X  c #1C110D",
"o  c #140D11",
"O  c #100E1C",
"+  c #0E111B",
"@  c #081012",
"#  c #151115",
"$  c #151219",
"%  c #18141A",
"&  c #301C01",
"*  c #2E1C19",
"=  c #341B14",
"-  c #23221D",
";  c #3A291F",
":  c #1B1A25",
">  c #191A2B",
",  c #1A1826",
"<  c #141A34",
"1  c #1C1E32",
"2  c #201F25",
"3  c #211F35",
"4  c #1C252C",
"5  c #1F233B",
"6  c #1A2337",
"7  c #25242C",
"8  c #252429",
"9  c #242433",
"0  c #22243B",
"q  c #2D2C3C",
"w  c #2B2934",
"e  c #302E3B",
"r  c #3C393B",
"t  c #35333B",
"y  c #5B2D1E",
"u  c #4A3216",
"i  c #53331C",
"p  c #553B2E",
"a  c #413634",
"s  c #553D36",
"d  c #76451A",
"f  c #5B4831",
"g  c #7F5B39",
"h  c #644934",
"j  c #2A2C42",
"k  c #312F41",
"l  c #2C3342",
"z  c #333143",
"x  c #422C41",
"c  c #403B4A",
"v  c #4F4F51",
"b  c #4E505C",
"n  c #5B5159",
"m  c #444643",
"M  c #6C685F",
"N  c #5B666C",
"B  c #6A656A",
"V  c #66686A",
"C  c #7A6A62",
"Z  c #72696C",
"A  c #676F72",
"S  c #726D74",
"D  c #777678",
"F  c #697375",
"G  c #85492A",
"H  c #885937",
"J  c #805D4A",
"K  c #935E50",
"L  c #946249",
"P  c #80695B",
"I  c #986E56",
"U  c #A06B49",
"Y  c #A27349",
"T  c #A3675B",
"R  c #B36F58",
"E  c #A57753",
"W  c #83736B",
"Q  c #8D7A6C",
"!  c #8D7460",
"~  c #927E6D",
"^  c #8D7474",
"/  c #877C76",
"(  c #947C72",
")  c #B87A69",
"_  c #C87660",
"`  c #82826A",
"'  c #93806C",
"]  c #8D8070",
"[  c #958373",
"{  c #9A8473",
"}  c #9C8C74",
"|  c #9B877A",
" . c #9D8C7C",
".. c #968B77",
"X. c #BF886A",
"o. c #A28C7A",
"O. c #A48574",
"+. c #B78770",
"@. c #A6937D",
"#. c #C48A6A",
"$. c #D2916E",
"%. c #C18D7F",
"&. c #D49A75",
"*. c #DBA179",
"=. c #727D83",
"-. c #7F8C94",
";. c #9C8D83",
":. c #848D92",
">. c #8C9294",
",. c #8A959C",
"<. c #91939E",
"1. c #999D9E",
"2. c #82878A",
"3. c #A48D81",
"4. c #A58881",
"5. c #B18B82",
"6. c #A69484",
"7. c #AB9285",
"8. c #AA978A",
"9. c #AB9A8C",
"0. c #A5968A",
"q. c #B19D8A",
"w. c #BA9D8B",
"e. c #A69D92",
"r. c #A99D94",
"t. c #AC9F99",
"y. c #B39E90",
"u. c #BA9994",
"i. c #B4A28E",
"p. c #AEA193",
"a. c #ACA29A",
"s. c #A7A29F",
"d. c #B5A293",
"f. c #BCA695",
"g. c #B2A399",
"h. c #BDA799",
"j. c #BDAA9B",
"k. c #B7AA9A",
"l. c #989EA5",
"z. c #9AA5A9",
"x. c #A6A7A8",
"c. c #BBADA3",
"v. c #BDAFAB",
"b. c #B6ABA5",
"n. c #BDB2AB",
"m. c #BFB6A5",
"M. c #B8BCBC",
"N. c #AAB4B5",
"B. c #C3928B",
"V. c #C0999A",
"C. c #DB9888",
"Z. c #D8A48C",
"A. c #C2AC9D",
"S. c #D6A19B",
"D. c #C5B09F",
"F. c #E3AA87",
"G. c #E5B090",
"H. c #C3AEA0",
"J. c #CBAEA0",
"K. c #C4B1A3",
"L. c #CBB5A6",
"P. c #C2B5AB",
"I. c #CCB7AB",
"U. c #DCB3AF",
"Y. c #D2BDAC",
"T. c #C5B6B2",
"R. c #C5BAB5",
"E. c #D7B9B2",
"W. c #E7BFBD",
"Q. c #DBCEBB",
"!. c #E6C4BE",
"~. c #FDCCBD",
"^. c #C6C5C8",
"/. c #D1C7C6",
"(. c #CFD6DC",
"). c #D3D6D6",
"_. c #D2D9DC",
"`. c #EACCC7",
"'. c #FCCCC8",
"]. c #FBD6C8",
"[. c #EBDCD5",
"{. c #FCDED4",
"}. c #D3E0D7",
"|. c #ECE1CF",
" X c #FEE8DC",
".X c #CED9E1",
"XX c #D3DAE0",
"oX c #DEE5E4",
"OX c #ECE9E6",
"+X c #F4EBE2",
"@X c #F2F2EC",
"#X c #FCF8EA",
"$X c #EDEEF3",
"%X c #EFF1F0",
"&X c #F3F3F2",
"*X c #FDFCF5",
"=X c #F5FCFB",
"-X c #FDFDFB",
";X c #F0F7F7",
/* pixels */
"~ ( [ { ~ C / k./.OX-X-X-X-XT.i.c.g...{ 4.} } ^ [ ",
"' { [ { [ W P.*X*X*X#X|.Q.m.9. .o.@.o.@.3.} } [ o.",
"Q Q ~ ' ' W ;.P.p.y.C s p f O.7.7.3.o.8.e.e.e.Z M ",
"} |  .} { [ W ] o.P * * = & u [ 0.t.P.[.OX@X-Xl.:.",
"6.7.o.@.o.| ;.6.3.p | 5.) E H f ` @X@X+XOX@X-Xz.2.",
"q.8.q.q.8.6.0.9.W ;.#X{.~.Z.G.g [ =X-X-X*X-X*Xz.V ",
"i.8.f.q.6.8.0.p.( E.`.W.B.K R $.%.-X=X-X-X=X-Xx.>.",
"f.d.q.f.9.r.9.9.8.U.O.Z.+.I #.F._ 9.}.R.).-X*XM.>.",
"n.f.f.j.q.r.a.i.i.`.!.'.C.) F.*.$.X F x.N.&X*Xz.D ",
"n.h.A.K.h.a.a.d.h.!. X`.T G X.&.H   : x.;X&X-Xz.1.",
"^.c.A.H.h.b.a.j.g.E. XV.T G U #.h # $ B $XoX*X,.>.",
"^.P.K.K.A.c.r.h.v.e.U.'.S.) Y H ; # : r M.;X-X<.A ",
").P.A.K.D.c.t.j.I.m n Y.! y d i . % $ v oX=X@X<.=.",
"_.P.K.L.A.c.a.K.d.7 6 ^ w.J L - @ 8 o S $X%X=X,.-.",
"(.T.L.L.H.n.b.n.D 1 < x u.{.^ + 4 # % : c B ^.,.N ",
"XXT.H.L.I.v.D a < l , 0 r Q 6 : O o 7 l l w r b l.",
"_.T.J.Y.s.c > > 0 0 j 0 9 , + + 9 q z q z z e 7 V ",
".XT.L.a.e 1 3 6 0 j 0 j > 9 , 9 q q q q z w 9 7 2 ",
".XT.L.n 1 5 0 5 0 j 0 j > w 9 z z k q q k 9 : 2 2 "
};
