/* XPM */
static const char *micro_malauzie[] = {
/* columns rows colors chars-per-pixel */
"25 19 217 2 ",
"   c #251E1C",
".  c #362B1C",
"X  c #252118",
"o  c #2B2B24",
"O  c #28272A",
"+  c #342C2A",
"@  c #382C26",
"#  c #393732",
"$  c #131017",
"%  c #46372A",
"&  c #413535",
"*  c #473D37",
"=  c #564638",
"-  c #4E5939",
";  c #6F503E",
":  c #6C4B3A",
">  c #51613D",
",  c #37484A",
"<  c #4A4946",
"1  c #4D4A46",
"2  c #594E46",
"3  c #49524F",
"4  c #555846",
"5  c #475755",
"6  c #5A5A54",
"7  c #535C5B",
"8  c #505E51",
"9  c #674D40",
"0  c #725D4F",
"q  c #625D54",
"w  c #6B5F53",
"e  c #695848",
"r  c #5F6245",
"t  c #5B615C",
"y  c #576557",
"u  c #7C604B",
"i  c #64645B",
"p  c #6C6559",
"a  c #73645A",
"s  c #756858",
"d  c #6E735F",
"f  c #6F7250",
"g  c #5B5F62",
"h  c #475B64",
"j  c #5B6466",
"k  c #546867",
"l  c #5A7879",
"z  c #646461",
"x  c #636E69",
"c  c #666B66",
"v  c #6D726C",
"b  c #77746A",
"n  c #677679",
"m  c #737474",
"M  c #767A7C",
"N  c #787978",
"B  c #7A6D67",
"V  c #8A6A56",
"C  c #96735C",
"Z  c #907C5B",
"A  c #917156",
"S  c #947C65",
"D  c #917E70",
"F  c #867679",
"G  c #A57C69",
"H  c #7A837E",
"J  c #67807A",
"K  c #89855F",
"L  c #838176",
"P  c #8B8674",
"I  c #83877A",
"U  c #8B8C79",
"Y  c #978978",
"T  c #95947B",
"R  c #929270",
"E  c #87876D",
"W  c #A8856B",
"Q  c #AE8A76",
"!  c #A58976",
"~  c #B79279",
"^  c #B78F76",
"/  c #C48041",
"(  c #C49172",
")  c #DCA765",
"_  c #567D8C",
"`  c #6B7F86",
"'  c #747D82",
"]  c #408089",
"[  c #688080",
"{  c #7B8A8A",
"}  c #778C92",
"|  c #769194",
" . c #799A9C",
".. c #689B9E",
"X. c #5A87A7",
"o. c #668EA0",
"O. c #6697A7",
"+. c #7C9BA4",
"@. c #6CA0B5",
"#. c #4DB2D0",
"$. c #48A8D8",
"%. c #69CFF1",
"&. c #868A87",
"*. c #918A80",
"=. c #8B9589",
"-. c #999687",
";. c #858E94",
":. c #8D9695",
">. c #889599",
",. c #969996",
"<. c #A89A8A",
"1. c #BA9A85",
"2. c #AA8F8A",
"3. c #84A19C",
"4. c #96A39A",
"5. c #A5AA8D",
"6. c #BFA08B",
"7. c #AEA09F",
"8. c #B2AE9E",
"9. c #BBB79C",
"0. c #869CA7",
"q. c #949EA0",
"w. c #8D9EB2",
"e. c #9FABAD",
"r. c #97A2AA",
"t. c #92B0AE",
"y. c #89A9B4",
"u. c #9CAFB6",
"i. c #97B0B3",
"p. c #A6A7A3",
"a. c #A2A7AB",
"s. c #BCADA3",
"d. c #A6B1AB",
"f. c #A9B9AF",
"g. c #B6B6A7",
"h. c #A1ADB3",
"j. c #ABACB6",
"k. c #AABCBC",
"l. c #A4B8B9",
"z. c #B2B5B3",
"x. c #B4BBB3",
"c. c #B6BCB7",
"v. c #C49C84",
"b. c #C09B89",
"n. c #C4A18D",
"m. c #CAAD96",
"M. c #D1AD93",
"N. c #C9BF9C",
"B. c #DBB69B",
"V. c #EAB68F",
"C. c #E3BA9A",
"Z. c #C5AFA2",
"A. c #C6B7A3",
"S. c #C1BEB9",
"D. c #B0C5B6",
"F. c #CEC7BA",
"G. c #D4CFBC",
"H. c #D8D7BB",
"J. c #92B6C3",
"K. c #A8BBC8",
"L. c #ADC1CB",
"P. c #AFC8C3",
"I. c #B4C4CA",
"U. c #B8C4C4",
"Y. c #AAC5D9",
"T. c #B4CFD6",
"R. c #B6CBD9",
"E. c #B8CDDE",
"W. c #B7C6D4",
"Q. c #BCD4D7",
"!. c #B5D4DD",
"~. c #BCD3DA",
"^. c #BCD9DD",
"/. c #B6D4E6",
"(. c #BCDAE2",
"). c #BBD6E9",
"_. c #BFD6E4",
"`. c #BAE1ED",
"'. c #BDE0F6",
"]. c #CAC6C2",
"[. c #CCCACB",
"{. c #CFD7CA",
"}. c #DBD6CA",
"|. c #C4CFD5",
" X c #C2D4D5",
".X c #CFD9D4",
"XX c #C3D5DB",
"oX c #C3DBDD",
"OX c #CCDBDB",
"+X c #CAD7D5",
"@X c #D4DADD",
"#X c #D2D3D7",
"$X c #E3D8C7",
"%X c #D2E3DD",
"&X c #E6E8D6",
"*X c #FFF2D5",
"=X c #C0CFE4",
"-X c #C3DDEB",
";X c #CADFEB",
":X c #C9D8E2",
">X c #DDD5E2",
",X c #C7DEF1",
"<X c #C2E0EE",
"1X c #CCE2EE",
"2X c #CEE0E0",
"3X c #D5E5E7",
"4X c #C5E4F3",
"5X c #CAE3F2",
"6X c #CDE9F4",
"7X c #CAEBFC",
"8X c #D9EBF5",
"9X c #E5F2EC",
"0X c #FFFBEF",
"qX c #EAEEF1",
"wX c #EAF3F4",
"eX c #FAFFFF",
"rX c #E2EDE7",
/* pixels */
"=X^.!./._.2X9XqX:X~.T.!.!.R.~.Q.(.;X^.(.:X1X6X8X8X",
"W.~.(.Y.).XX9XrX=X-X4X`.4X6X<X4X4X,X5X<X;X5X-X8X5X",
"k. Xl.R.E.XXwX3X).-X-X-X;X-X4X7X4X5X,X5X5X-X1X8X1X",
"j ;.H x n >.e.>.0.l.r.M m q.I.K.P.I.L.u.h. XU.:.;.",
"z 6 b P b g M c t i s Y Y 2 q N =.&.j 7 x v 1 < # ",
"H.9.<.s.].m ,.8.U e 6.B.M.S . *.p.H &.m z L 1 < * ",
"9.s P T z.&.[.$X8.s Q ^ G S % <.#X;.z.c.=.g.g.I b ",
"4 E T r &.h.wX0X&Xs ; Q V 0 q S.eXh.:.b > f R 5.T ",
"f Y U ! 4.j.U.G.}.1.( n.b.v.V F.&XI.z.U 4 - T K d ",
"x c i p N x.d.;.L V ^ C V C D <.j.w.M F p y ,.p.z ",
", 6 b -.A.*X}.;.2 = W G A Z = <.Q./.{ j 8 5 x k 5 ",
"3 z I -.5.$X].:.& * 0 ~ W A p g.OXE.a.0.n , 1 7 5 ",
"' &.U c | | i.&.% $ = W V W A.%XK.+.>.n } ` t m j ",
"| s 1.[ o...,.2 @ O . ~ 1.v.s.oXoX`.J.p 8 l t.;.J ",
"l s 2.+.o.3.a @ # O X S C.m.[. X+XoX1XN.y h i.{ n ",
"l.k.W.Y.R.d.2 @ + + o 0 V.N.3X@X:X{.T.f.@.}  .y._ ",
":X|.W.'.5X7.= & + + @ : m.}..X+X:X+Xx.L.%.%.X.y.O.",
"k.k.r.J.y.B % & + o o 9 Z..XOX@X>XP.D.W.$.#.X.0.2.",
"l.k.} ..} w % @     o a F.OXXXOX=Xe.g.c.] *.( ) / "
};
