/* XPM */
static const char *micro_rkerman[] = {
/* columns rows colors chars-per-pixel */
"25 19 211 2 ",
"   c #060503",
".  c #090601",
"X  c #0B0B06",
"o  c #0D0B0C",
"O  c #100E0F",
"+  c #180F08",
"@  c #1D0F04",
"#  c #12100E",
"$  c #0F0C13",
"%  c #100D14",
"&  c #1B1818",
"*  c #231E1A",
"=  c #271E15",
"-  c #292616",
";  c #26211C",
":  c #2A241D",
">  c #222013",
",  c #382719",
"<  c #34321E",
"1  c #292620",
"2  c #342D24",
"3  c #332D2B",
"4  c #3A2E20",
"5  c #373226",
"6  c #3B3B23",
"7  c #37322B",
"8  c #3C332B",
"9  c #393031",
"0  c #3E3A31",
"q  c #472D2C",
"w  c #433B2F",
"e  c #4A392B",
"r  c #423C34",
"t  c #453F3A",
"y  c #4A432D",
"u  c #544A2E",
"i  c #464237",
"p  c #4D4334",
"a  c #46433E",
"s  c #4C453B",
"d  c #4A4A32",
"f  c #544E33",
"g  c #52453C",
"h  c #544A3E",
"j  c #5B4B3B",
"k  c #554935",
"l  c #545135",
"z  c #5A553B",
"x  c #5C583C",
"c  c #57533A",
"v  c #65543E",
"b  c #675C3E",
"n  c #72563E",
"m  c #3D3E42",
"M  c #4F4846",
"N  c #544A44",
"B  c #5E4D46",
"V  c #5C5D46",
"C  c #5D554E",
"Z  c #5A5548",
"A  c #5D5552",
"S  c #5A5758",
"D  c #655E43",
"F  c #64564C",
"G  c #6A5548",
"H  c #6A5B4C",
"J  c #695748",
"K  c #72504F",
"L  c #7C5C45",
"P  c #655D55",
"I  c #685B52",
"U  c #60575A",
"Y  c #666045",
"T  c #696346",
"R  c #66634A",
"E  c #6C674A",
"W  c #706144",
"Q  c #6E6256",
"!  c #6F6B50",
"~  c #6D6859",
"^  c #7C6C54",
"/  c #72665C",
"(  c #786858",
")  c #766954",
"_  c #6D7055",
"`  c #7A7354",
"'  c #7B7659",
"]  c #7A6B61",
"[  c #746C6F",
"{  c #7E7263",
"}  c #7F7968",
"|  c #736F74",
" . c #787576",
".. c #83644E",
"X. c #836D5F",
"o. c #81745C",
"O. c #8C725D",
"+. c #837567",
"@. c #84756A",
"#. c #8C7C6C",
"$. c #897869",
"%. c #9D706A",
"&. c #8B7F73",
"*. c #9C7A71",
"=. c #A57D64",
"-. c #9A836C",
";. c #878876",
":. c #8E8678",
">. c #948271",
",. c #9A8574",
"<. c #9D8A74",
"1. c #978778",
"2. c #958979",
"3. c #9B8A7B",
"4. c #9C917B",
"5. c #8A866B",
"6. c #A48E77",
"7. c #A18E7B",
"8. c #AB8E7A",
"9. c #A28371",
"0. c #AD9677",
"q. c #A5907B",
"w. c #AA937C",
"e. c #B2927A",
"r. c #B49C7D",
"t. c #BB977D",
"y. c #C0967D",
"u. c #8C8586",
"i. c #8D8B8A",
"p. c #878185",
"a. c #9F8F80",
"s. c #918788",
"d. c #928B8D",
"f. c #938481",
"g. c #999788",
"h. c #999186",
"j. c #9A9594",
"k. c #AB9682",
"l. c #A49985",
"z. c #A3968A",
"x. c #A89787",
"c. c #B29C84",
"v. c #B39E8B",
"b. c #B59A86",
"n. c #A39693",
"m. c #A29A96",
"M. c #A69A95",
"N. c #B7A58F",
"B. c #ACA198",
"V. c #B2A49A",
"C. c #B2A696",
"Z. c #BCB19D",
"A. c #A69DA0",
"S. c #ABA3A0",
"D. c #ACACA0",
"F. c #B0A7A2",
"G. c #B3AAA4",
"H. c #BCAFA7",
"J. c #BDAEAA",
"K. c #BDB1A5",
"L. c #B9B2AB",
"P. c #BABFB8",
"I. c #BBB6B8",
"U. c #C3A78F",
"Y. c #CCA78C",
"T. c #C3AD94",
"R. c #C7A693",
"E. c #C5B59C",
"W. c #D2B49A",
"Q. c #E2B892",
"!. c #C2B2A5",
"~. c #C9B8A8",
"^. c #C3B7A9",
"/. c #C3B7B7",
"(. c #C3BBB4",
"). c #D1CAAE",
"_. c #CEC2BD",
"`. c #C4C1BC",
"'. c #D5C8B7",
"]. c #D3C5B9",
"[. c #D2C8BA",
"{. c #DDD3BB",
"}. c #CFCAC0",
"|. c #D0C5C3",
" X c #D3CAC3",
".X c #D3CDC9",
"XX c #D7D5C6",
"oX c #DED7C2",
"OX c #D4D3CB",
"+X c #DBD4CE",
"@X c #DAD8CC",
"#X c #D2CCD0",
"$X c #D7D0D7",
"%X c #DCDAD7",
"&X c #E0D2C5",
"*X c #E3DCD2",
"=X c #E1DDDA",
"-X c #E8DED7",
";X c #E3E2DC",
":X c #E8E3DD",
">X c #EAE3D7",
",X c #F2E8DF",
"<X c #EAEBE6",
"1X c #EAE7E5",
"2X c #F3E9E3",
"3X c #F7EFEC",
"4X c #F8EFE8",
"5X c #F9F4EA",
"6X c #F9F5F2",
"7X c #FDFDFD",
"8X c #F9F6F5",
/* pixels */
"s s t 9 3 3 1 5 w ( B 2 7 h r m @./ C r 8 0 i r r ",
"s : 4 p p g g N n >.7 . X & # @ : 2 t 3 ; : : * : ",
"l.+.h B / ] ( o.,.@.F g h a a s M r N C A A A P F ",
"5X[.{ { a.1.+.+./ $.X.Q C / Q P Q I H H I F F F I ",
">X!.1.k.v.T.v.>.#.,.j ; 1 w $.q.<.7.6.7.<.<.q.<.<.",
"E.N.v.b.8.U.r.0.'.C.e v e + g k.w.c.6.w.c.w.6.w.8.",
"8X'.k.0.r.T.w.k. X!.b.Y.e.F = 2.3.1.7.7.>.,.,.,.>.",
"+XL.K.&X~.~.Z.l.3.R.=.9.G j j $.H.H.z.z.K.M.&.].=X",
"5X*X6X8X<X{.,XD.d.W.Q.e.) ^ J _.;XOXF.L.2X(.F.3X7X",
"@X-X:X;X6X).4XOXP.<.y.%.K G 2.OX:X.Xm.L.G.F.I.=X6X",
";X+X:X%X6XoX2X1X7X>...*.q j K.F.|.|.m.S.S.i. .i.%X",
"*X X,X;X:X{.-X<X8X!.-..., H z./._.(.m.u.j.p. .i.#X",
"}.+XoX.X4X].-X`.<XZ.r.t.L J h :.XX}.j.d.d.p.| A.$X",
"B.J.l.S.*X>.^.g.5.` W O.O.k f u _ ;.C S  .[ U s.I.",
"} f.4.[ h.3.<.} ` ! l c y 6 l b x R r o & & * & | ",
"p n.4.m.:.>.o.` ' _ ! v v V V V x f i & o o # . S ",
"g x.P B.J.' ^ ` ' E R D T D Y x d 5 6 ;   o o   S ",
"V.~.8 V.G.x u T ` T R D T D z d < - 6 : o O $ X M ",
"*X1.: ] 8 l f f T z c z x f y < - > 6 1 o # % X 3 "
};
