/* XPM */
static const char *micro_yonieva[] = {
/* columns rows colors chars-per-pixel */
"25 19 212 2 ",
"   c #2D1807",
".  c #352A21",
"X  c #362D28",
"o  c #3E3232",
"O  c #49382E",
"+  c #523F36",
"@  c #494039",
"#  c #584B38",
"$  c #434D28",
"%  c #6B4836",
"&  c #60543A",
"*  c #714B38",
"=  c #5B663E",
"-  c #373C45",
";  c #413F40",
":  c #3D4652",
">  c #37525D",
",  c #534A46",
"<  c #58554A",
"1  c #444A5D",
"2  c #4A5251",
"3  c #5C5B51",
"4  c #5C5B58",
"5  c #565757",
"6  c #695A4D",
"7  c #6D5245",
"8  c #785C46",
"9  c #645C5A",
"0  c #635B55",
"q  c #5B615F",
"w  c #686748",
"e  c #78624F",
"r  c #6D6354",
"t  c #64645E",
"y  c #686256",
"u  c #756959",
"i  c #7F725E",
"p  c #4D5A6C",
"a  c #485565",
"s  c #515860",
"d  c #4A5B72",
"f  c #535F71",
"g  c #525B78",
"h  c #5A626F",
"j  c #5D6C66",
"k  c #4E627B",
"l  c #566375",
"z  c #56677A",
"x  c #5B697C",
"c  c #596877",
"v  c #4C797F",
"b  c #5A707B",
"n  c #686865",
"m  c #716F6C",
"M  c #776C63",
"N  c #607065",
"B  c #717169",
"V  c #6C6C73",
"C  c #64697D",
"Z  c #697E7F",
"A  c #767371",
"S  c #7C7B74",
"D  c #797979",
"F  c #766E7B",
"G  c #8F654F",
"H  c #8C6853",
"J  c #84735C",
"K  c #847B5B",
"L  c #967059",
"P  c #827B6D",
"I  c #897766",
"U  c #997665",
"Y  c #857875",
"T  c #907F75",
"R  c #866961",
"E  c #A37F73",
"W  c #7E8C7B",
"Q  c #7A876D",
"!  c #89826A",
"~  c #898372",
"^  c #8F847E",
"/  c #9C9174",
"(  c #9E9878",
")  c #958877",
"_  c #A8836D",
"`  c #BA8A74",
"'  c #A6947D",
"]  c #AD9078",
"[  c #99A27A",
"{  c #BCA174",
"}  c #DB8C51",
"|  c #FD925A",
" . c #E7A15B",
".. c #C18966",
"X. c #FCA06F",
"o. c #566E87",
"O. c #5E6E83",
"+. c #556884",
"@. c #587187",
"#. c #616582",
"$. c #617285",
"%. c #65758A",
"&. c #6C798B",
"*. c #7D7E80",
"=. c #74768F",
"-. c #667B95",
";. c #5B818C",
":. c #498699",
">. c #6A8789",
",. c #7E8B8B",
"<. c #748485",
"1. c #6A8297",
"2. c #72859D",
"3. c #758997",
"4. c #799388",
"5. c #6DAD9D",
"6. c #7488A6",
"7. c #7896A9",
"8. c #7D98B5",
"9. c #4EA0CF",
"0. c #5CAFD1",
"q. c #55C3E8",
"w. c #67C6F4",
"e. c #8A8C81",
"r. c #828C8C",
"t. c #8B8E8D",
"y. c #858782",
"u. c #968988",
"i. c #989588",
"p. c #848A91",
"a. c #889894",
"s. c #949491",
"d. c #999795",
"f. c #8C968D",
"g. c #A89587",
"h. c #B29386",
"j. c #A69793",
"k. c #92A093",
"l. c #ADA28C",
"z. c #BEA386",
"x. c #A6A399",
"c. c #A9A399",
"v. c #B6A996",
"b. c #BDB591",
"n. c #899BAB",
"m. c #8C9BB1",
"M. c #98A8AC",
"N. c #9DB1A6",
"B. c #85ACB9",
"V. c #95A3B3",
"C. c #9FB9B6",
"Z. c #A9A5A3",
"A. c #ADAAA7",
"S. c #A9AFAF",
"D. c #B4A8A1",
"F. c #A4B3AC",
"G. c #ACB2AB",
"H. c #BBB2AD",
"J. c #BFB2A1",
"K. c #B3B9B4",
"L. c #C59A89",
"P. c #C5A28B",
"I. c #D2A283",
"U. c #C2AC9E",
"Y. c #D4B499",
"T. c #C4AEA1",
"R. c #C7B7AB",
"E. c #D9B6A2",
"W. c #C4BBB5",
"Q. c #BFC2AF",
"!. c #D0C9BF",
"~. c #CEC6AC",
"^. c #FEDCAC",
"/. c #A0B1C3",
"(. c #B5BEC1",
"). c #BDC5C3",
"_. c #BACDCA",
"`. c #BCCAD5",
"'. c #C7C9C2",
"]. c #CCCBC3",
"[. c #C9CDCC",
"{. c #C0D5CC",
"}. c #D2D3C9",
"|. c #C2CCD2",
" X c #CACED2",
".X c #C5CFD8",
"XX c #CAD4DB",
"oX c #CCD5D8",
"OX c #D3D5DC",
"+X c #D3DBDD",
"@X c #D9DBDE",
"#X c #DBD7D8",
"$X c #E9D9C4",
"%X c #E0DBD8",
"&X c #DCE6DB",
"*X c #FFE8C9",
"=X c #EAE3D0",
"-X c #E3E3DF",
";X c #EEE6D2",
":X c #D1CCE3",
">X c #D4DDE4",
",X c #D9DFE4",
"<X c #D6DCE8",
"1X c #CECBE6",
"2X c #D6E2E5",
"3X c #DDE3E3",
"4X c #D6E2EB",
"5X c #DCE3EB",
"6X c #DFE9F3",
"7X c #DCE2F5",
"8X c #FFFAF4",
"9X c #FCF4E7",
/* pixels */
"=X}.).|.|.`.XX-X.XXX<X<X4X4X4X4X7X7X6X4X5X5X5X2X2X",
"=X'. X XOXXXoX-X[.@X+XXX>X,XOX3X>X5X+X2X4X5X<X6X5X",
"M Z.K.s.s.S.].].Q.OX|.|..X.X>XOX@X X>X+X X X,X[.K.",
"# , 0 r 3 5 A M q n m A.#XA.*.D D t.f.n m S e.3 , ",
"I i.~ i i.e.9 ^ Y 6 h.E.Y.Y.g.M ~ e.t S y 3 3 o , ",
"~.$X/ ' v.W.A H.W.g.` I.I.P.' J.R.d.t.H.j.~ !.T r ",
"J ! w J # S d.9X;XR.H G _ 8 I $X8X3Xt.d.I w [ b.~.",
"& # ( / J x.}.=X*Xz.H L L.G U P.8X&XK.c.u $ = K K ",
"< R J e i ) Q.D.j.U ` ` _ U _ h.T.D.k.i.Y 3 w v.l.",
"5 5 0 t y / $XH.V @ * * % 7 + < v.(.V.9 0 0 n *.n ",
"y + y Q j.Y.^.!.D V < O 7 O X t E.<X1Xj.D < - j 4 ",
"n y P S P i.Z.M.p.V.C .   . n d.H.C.n.s.,.W 5 0 B ",
"r.f.T h.j 3.m.7.m.2.s e L 6 s 7.n.B.8.,.2 N r.s.y.",
"f.Z 8 ..4.7.3.3.6.d : 3 u @ - o.2.6.8.x.K 2 <.N.D ",
"F.a.x.U._.7.$.c %.&.x p : 5 h &.1.%.-.i.[ o.F G.<.",
"@XOX#X_.:X-.+.g o.$.%.k d x x -.-.h z =.5.w.>.r.B.",
"T.'.K.(./.@.x d x %.$.z d $.O.$.#.a h C 0.q.9.v M.",
"g.G.F.p.2.%.h 1 l x x f p x z x a > b @.:.>.u.` } ",
"i.F._.M.1.O.V F p l f p p l l z 1 a $.o.;.{ X.|  ."
};
