/* XPM */
static const char *micro_axemicha[] = {
/* columns rows colors chars-per-pixel */
"25 19 191 2 ",
"   c #040503",
".  c #0C0606",
"X  c #060709",
"o  c #080609",
"O  c #0C0C0B",
"+  c #120E0D",
"@  c #0F110E",
"#  c #15110D",
"$  c #18100E",
"%  c #140F13",
"&  c #141314",
"*  c #1E1A14",
"=  c #1E1D1A",
"-  c #221C16",
";  c #231E1A",
":  c #281E1F",
">  c #25201C",
",  c #2C241B",
"<  c #382719",
"1  c #1D1C21",
"2  c #2B2524",
"3  c #2E2A25",
"4  c #2B292B",
"5  c #312B25",
"6  c #302C2A",
"7  c #31312F",
"8  c #3D352D",
"9  c #3E3226",
"0  c #583E2D",
"q  c #443B34",
"w  c #493B30",
"e  c #463F39",
"r  c #443434",
"t  c #4E4133",
"y  c #4C443B",
"u  c #52453D",
"i  c #574B3F",
"p  c #5B493D",
"a  c #674B3D",
"s  c #433F40",
"d  c #4B4841",
"f  c #4C4B4C",
"g  c gray27",
"h  c #544C45",
"j  c #5A4C42",
"k  c #5E5047",
"l  c #55544B",
"z  c #5D5249",
"x  c #5F5850",
"c  c #565658",
"v  c #585553",
"b  c #615246",
"n  c #63554A",
"m  c #66584D",
"M  c #6A5C4E",
"N  c #6A5542",
"B  c #705F4F",
"V  c #655A51",
"C  c #6B5F51",
"Z  c #625F5C",
"A  c #62565A",
"S  c #705E50",
"D  c #6B645C",
"F  c #6D6155",
"G  c #736354",
"H  c #786757",
"J  c #74655A",
"K  c #786659",
"L  c #756A5D",
"P  c #7A695C",
"I  c #625D63",
"U  c #6E6A64",
"Y  c #6E646C",
"T  c #706561",
"R  c #766C62",
"E  c #7B6D62",
"W  c #726E6F",
"Q  c #7E746D",
"!  c #6D6A71",
"~  c #736E75",
"^  c #747177",
"/  c #7B7672",
"(  c #7A777E",
")  c #7A7879",
"_  c #836D5D",
"`  c #8A6A5B",
"'  c #837264",
"]  c #83766A",
"[  c #897669",
"{  c #8C7B6C",
"}  c #9C7D6B",
"|  c #867170",
" . c #857C73",
".. c #8D7E70",
"X. c #817D7A",
"o. c #9D7E72",
"O. c #8A8075",
"+. c #8D847A",
"@. c #8C887F",
"#. c #86837E",
"$. c #978577",
"%. c #928A7E",
"&. c #9A8B7D",
"*. c #9A847A",
"=. c #848283",
"-. c #8B8484",
";. c #8D8A85",
":. c #868883",
">. c #938684",
",. c #928B84",
"<. c #998F86",
"1. c #958E8A",
"2. c #94938D",
"3. c #9B908C",
"4. c #9E9994",
"5. c #9A9998",
"6. c #A49386",
"7. c #A1938A",
"8. c #B39A8E",
"9. c #A99C97",
"0. c #9DA29E",
"q. c #A6A19C",
"w. c #ADA39C",
"e. c #BCAE9F",
"r. c #B7AB9B",
"t. c #A69DA2",
"y. c #A5A5A2",
"u. c #A6A8A7",
"i. c #AEABA6",
"p. c #AEAEA9",
"a. c #B0A7A2",
"s. c #B5ADA5",
"d. c #B8ACA0",
"f. c #B0AFAA",
"g. c #BEB2A4",
"h. c #B3B2AC",
"j. c #BBB3AC",
"k. c #B6B6B3",
"l. c #B9B6B2",
"z. c #BCBAB6",
"x. c #BFBCB8",
"c. c #C5B8A7",
"v. c #C0B7AE",
"b. c #C8BCAE",
"n. c #C3BBB2",
"m. c #C2BDB9",
"M. c #C3C2BE",
"N. c #CDC5BA",
"B. c #D1C5BA",
"V. c #D5C8BD",
"C. c #DCCFBE",
"Z. c #D6C3B5",
"A. c #BCBBC0",
"S. c #CABFC5",
"D. c #CCC5C2",
"F. c #CCCBC4",
"G. c #CECEC9",
"H. c #C4C4C6",
"J. c #D4CDC3",
"K. c #CFD0CB",
"L. c #DDD2C7",
"P. c #D4D2CC",
"I. c #DAD4CE",
"U. c #DBD8CF",
"Y. c #CDCDD7",
"T. c #DAD5D2",
"R. c #DCDAD4",
"E. c #DDD7D9",
"W. c #DDDDD9",
"Q. c #D5D4D0",
"!. c #E3D5C3",
"~. c #E2D6CC",
"^. c #ECDDCA",
"/. c #E6DFD7",
"(. c #E2DFD8",
"). c #E1D6DC",
"_. c #DDE0D9",
"`. c #E3E0D7",
"'. c #E3E1DC",
"]. c #EBE7DE",
"[. c #EEE2D6",
"{. c #F3E6DA",
"}. c #E8E6E7",
"|. c #EEEBE3",
" X c #F6EAE8",
".X c #E9F0E9",
"XX c #FEF3E7",
"oX c #F2F1EF",
"OX c #FFF4EC",
"+X c #F7F1F1",
"@X c #FEFBFC",
/* pixels */
"; # - > * ; - - 9 z *   O O @ O 3 3 3 # & % + # # ",
"z 8 5 q y h y h m n , ; = = > ; ; - 5 3 6 6 6 5 5 ",
"j.O.q u V y j j n j u q e q q q e 8 e q q q q e e ",
"XX&.b [ ..{ P b j j m k k m n n m n n b n n j k b ",
"..J P G K ' K K %.O.J P P G P L K K K G H K K P G ",
"[.6.G G [ { K K J.XX&.n < < t F M G J S B B M m n ",
"v.+...&.{ $.P ' L ] G K *.p w k O.] J J [ C D 1.4.",
"/.j.{.{.Z.e.B.E +.i j $.8.*.m Q J.s.,.a.L.%.;.@X@X",
"B.~.P.R.^.e.|.y.9.h n o.} _ t | R.i.X.w.w.3.q._.}.",
"J.V.I.(.!.c.|.I.~.y w 8.} N M >.n.n.,.4.>.-.Z y.D.",
"N.g.P.R.C.r.`.].OXU y Z.` 0 m s.d.w./ =.-.^ I =.A.",
"j.V.M.I.!.g.U.s. X@.l L.o.a P h.N.j.-.( ( ~ Y t.Y.",
",.d.1.l.b. .h.,.L.D l N.6._ E 2.G.;.g ^ ^ ! A 9.S.",
"Z E x /  .R / E q.2.l.'.9.[ <.h.5.u.c 1 4 4 : r 5.",
"q ] D X.h Q U R R.+X XR.F.w.j.:.0.W.oXZ   O O . ! ",
"d L z 4.R e / 7..XE.).W.G.n.4.5.G.F.T.4.  O X o X.",
"E R , s.Q 2 v f.'.K.W.W.T.D.x.G.G.M.M.u.=   O   W ",
"n.V , / 5 $ . k.Q.G.W.P.m.j.x.P.p.z.k.h.7   O O s ",
"T ; # + O 2 f H.P.D.G.i.-.X.#.2.4.x.p.M.f O & & v "
};
