/* XPM */
static const char *micro_picarlie[] = {
/* columns rows colors chars-per-pixel */
"25 19 205 2 ",
"   c #040918",
".  c #0A101E",
"X  c #2B1C14",
"o  c #1C1E2A",
"O  c #11172F",
"+  c #081830",
"@  c #0E2432",
"#  c #1B313C",
"$  c #182534",
"%  c #2A253F",
"&  c #3B3130",
"*  c #372B37",
"=  c #4A3C36",
"-  c #47302A",
";  c #4B4F3E",
":  c #534A37",
">  c #515D35",
",  c #78523D",
"<  c #252944",
"1  c #2C344B",
"2  c #283445",
"3  c #333644",
"4  c #2C3252",
"5  c #343957",
"6  c #2D2C4C",
"7  c #363961",
"8  c #273D62",
"9  c #38435B",
"0  c #3A494E",
"q  c #384664",
"w  c #305170",
"e  c #494545",
"r  c #54534C",
"t  c #5A5649",
"y  c #434A57",
"u  c #4A5558",
"i  c #5C5C58",
"p  c #5A5653",
"a  c #674D44",
"s  c #6A5F41",
"d  c #665956",
"f  c #755B54",
"g  c #5A6552",
"h  c #656546",
"j  c #677043",
"k  c #666252",
"l  c #736C5D",
"z  c #756958",
"x  c #756F51",
"c  c #434668",
"v  c #40516D",
"b  c #585C69",
"n  c #47577F",
"m  c #605E61",
"M  c #506872",
"N  c #5B7F73",
"B  c #6B6A63",
"V  c #6C6C6A",
"C  c #62696F",
"Z  c #756864",
"A  c #716C6C",
"S  c #786867",
"D  c #6C7366",
"F  c #72736C",
"G  c #767B6C",
"H  c #7A7A6D",
"J  c #6A6F7A",
"K  c #676B75",
"L  c #726C74",
"P  c #757574",
"I  c #767975",
"U  c #6B727A",
"Y  c #825A4C",
"T  c #8E6454",
"R  c #976A5D",
"E  c #856F62",
"W  c #857467",
"Q  c #997969",
"!  c #827C75",
"~  c #9E7E73",
"^  c #876B77",
"/  c #BA7E76",
"(  c #B3766A",
")  c #CE7B52",
"_  c #6C817C",
"`  c #7A8276",
"'  c #DB961D",
"]  c #82895D",
"[  c #89836A",
"{  c #83817B",
"}  c #898B7A",
"|  c #988B7B",
" . c #92917F",
".. c #90876A",
"X. c #BB8C7A",
"o. c #A19E7D",
"O. c #B09F71",
"+. c #A5826C",
"@. c #AAA07D",
"#. c #DB814C",
"$. c #EC9957",
"%. c #EFBE47",
"&. c #C18E79",
"*. c #DF9475",
"=. c #D1996D",
"-. c #D3A875",
";. c #626A8E",
":. c #6E7482",
">. c #767C85",
",. c #777195",
"<. c #827F89",
"1. c #5A8B88",
"2. c #79868A",
"3. c #7D9388",
"4. c #788691",
"5. c #6486AB",
"6. c #77A7A5",
"7. c #7EB5B8",
"8. c #34C6DF",
"9. c #67C8CF",
"0. c #71E4FF",
"q. c #858585",
"w. c #948A82",
"e. c #938F8C",
"r. c #91938E",
"t. c #9A9988",
"y. c #848B97",
"u. c #889895",
"i. c #989897",
"p. c #8A9C84",
"a. c #A99588",
"s. c #A29D93",
"d. c #B28685",
"f. c #9CA899",
"g. c #94A490",
"h. c #A8A398",
"j. c #B3A696",
"k. c #BBA387",
"l. c #8B98A2",
"z. c #9199A2",
"x. c #9697A7",
"c. c #8CA6A3",
"v. c #91A5AC",
"b. c #9FB1A3",
"n. c #8FB8B2",
"m. c #9AB3B3",
"M. c #98B7B8",
"N. c #A3A3A4",
"B. c #AAA9AA",
"V. c #BAAFA9",
"C. c #BAB5A7",
"Z. c #A5A6B5",
"A. c #AAB9B9",
"S. c #B3BABC",
"D. c #C29887",
"F. c #C69D94",
"G. c #C2A188",
"H. c #C6A799",
"J. c #C1B197",
"K. c #D4B48E",
"L. c #C9BCB7",
"P. c #C6B8AD",
"I. c #8DC5BA",
"U. c #AFCDAB",
"Y. c #BFCDB6",
"T. c #E3D096",
"R. c #E8C581",
"E. c #C8C2A6",
"W. c #D3CEAE",
"Q. c #D2C3B6",
"!. c #C1C7B9",
"~. c #A8B7C5",
"^. c #B3BEC0",
"/. c #ABBEE6",
"(. c #C5BFC7",
"). c #97C9CD",
"_. c #BAC7C7",
"`. c #BDCDDC",
"'. c #A2D3D0",
"]. c #AFCDCB",
"[. c #B8D4EC",
"{. c #A4F0FE",
"}. c #C4C8CA",
"|. c #D1CDC2",
" X c #C4D3C8",
".X c #D0D2CD",
"XX c #C5CED4",
"oX c #CBD3D5",
"OX c #CED6DC",
"+X c #CCDBD7",
"@X c #D0D5DA",
"#X c #D5DADD",
"$X c #D8E1CE",
"%X c #D5E6DB",
"&X c #EFE5DA",
"*X c #C9CEE1",
"=X c #CEDBE3",
"-X c #CED7E0",
";X c #D3DCE5",
":X c #D5DBEA",
">X c #DAE3E5",
",X c #DAE4EC",
"<X c #D8E5E8",
"1X c #FDF2EC",
"2X c #E4E7F5",
/* pixels */
"#X;XOX>X;X>X%X:X>X=X,X,X,X,X;X<X:X;X=X;XOX#XOXOXOX",
".X>X>X#X2X,X<X2X>X,X=X;X;X;X,X=X-X-X=X=X;X:X*X:X,X",
"p q.N.r.r.B._.(.}._.oX>X@XoXXXOX@XOXXXXX}.}.#XS.S.",
"d e r k t V ` { V P P { { e.q.>.P q.u.V B G G r r ",
"| C. .[ h.h.P s.a.Z X X = l ! P w.q.P L p V m * = ",
"E.W.[ ..| B.<.L.P.a f H.H.a.W C.j.i.i.B.w.} C.S z ",
"s x h x : <.Z.1X&XE ~ F.D.H.j.&X1X}.u.} h j ] @.j.",
": : l z x x.}.E.P.| a R R Y | |.L.oX^.A t > j x k ",
"e d l t g A s.i.S z X./ / D.+.f D N.r.V d ; d } t ",
"r u p Z A L Q.S.3 - R T Y Q f & L /.z.r F ` q.I i ",
"g u i I { F V.Z.u F E ( d.W l e w.[.x.:.>.I H i.! ",
"D q.q.I ` 3.4.v.3.m.a., z W J.c.B.m.l.2.4.} H q.r.",
"p.M.G =.g.n.I.].Z.;.^ X.Q G.F.,.v.M.c. .J _  Xf.i.",
"u.u.G &.A.A.).4.v 8 5 p l B b c n 5.A.R.t.N S. Xf.",
"~.i.A.(.`.*Xn 7 2 q 7 $ o % 5 q 5 q J @.'.6.g._.6.",
"o.A.*XQ.,X~.< # % 4 1 3 1 4 5 9 2 o < 1.0.{.6.].).",
"' %.a.f.].M O + < K b y.2.>.y 9 6 @ o w 8.9.~.k.( ",
"K.T.!.+X+X0     K 4.y.K U z.:.l.c + . 1 7.G.*.$.) ",
"#XY.U.%X$X*     C y.J b C K y.z.y     $ b.#.) =.-."
};
