/* XPM */
static const char *micro_kouali[] = {
/* columns rows colors chars-per-pixel */
"25 19 192 2 ",
"   c #170E09",
".  c #160F05",
"X  c #1C130A",
"o  c #1D1805",
"O  c #1C1D19",
"+  c #251203",
"@  c #22180C",
"#  c #321807",
"$  c #3C1A03",
"%  c #331500",
"&  c #221D16",
"*  c #2C1B14",
"=  c #231D1B",
"-  c #25221C",
";  c #2D251D",
":  c #30261D",
">  c #39251A",
",  c #272420",
"<  c #292522",
"1  c #2C2A26",
"2  c #2E2C28",
"3  c #252B29",
"4  c #312925",
"5  c #382D27",
"6  c #312C2A",
"7  c #302424",
"8  c #33312D",
"9  c #3B352B",
"0  c #353126",
"q  c #293334",
"w  c #4C230F",
"e  c #4B2B1C",
"r  c #5E2C12",
"t  c #522D13",
"y  c #51321E",
"u  c #64331A",
"i  c #783910",
"p  c #44382C",
"a  c #573C2A",
"s  c #6B3D23",
"d  c #454137",
"f  c #494037",
"g  c #4E443B",
"h  c #47423E",
"j  c #51483F",
"k  c #564838",
"l  c #694325",
"z  c #714E32",
"x  c #785339",
"c  c #7D5436",
"v  c #4E4848",
"b  c #494845",
"n  c #504D48",
"m  c #5D5345",
"M  c #56524E",
"N  c #5A554B",
"B  c #5F594B",
"V  c #5B5852",
"C  c #61564D",
"Z  c #63594F",
"A  c #765840",
"S  c #7E5E47",
"D  c #735A4A",
"F  c #645B52",
"G  c #685F58",
"H  c #675E59",
"J  c #6C6256",
"K  c #676058",
"L  c #6C635B",
"P  c #786755",
"I  c #72655C",
"U  c #746A5F",
"Y  c #76675B",
"T  c #6F6860",
"R  c #706760",
"E  c #746B63",
"W  c #7A6E63",
"Q  c #7D6F6C",
"!  c #7B7166",
"~  c #7B726A",
"^  c #7E7F7A",
"/  c #7C7471",
"(  c #87512F",
")  c #8F5223",
"_  c #8F5839",
"`  c #90563E",
"'  c #905F3F",
"]  c #93623A",
"[  c #9A5E42",
"{  c #9C6F45",
"}  c #95714D",
"|  c #8C6651",
" . c #9A765D",
".. c #A77344",
"X. c #B67E4F",
"o. c #A26B56",
"O. c #B97958",
"+. c #876C61",
"@. c #827565",
"#. c #82756B",
"$. c #85796E",
"%. c #8C7C6E",
"&. c #867966",
"*. c #937363",
"=. c #917E6F",
"-. c #987D68",
";. c #9C7B64",
":. c #807772",
">. c #857B72",
",. c #8B7D72",
"<. c #837E78",
"1. c #907E70",
"2. c #BC825D",
"3. c #8E8173",
"4. c #83817D",
"5. c #8C847C",
"6. c #968375",
"7. c #92857B",
"8. c #998779",
"9. c #948A7D",
"0. c #9A8A7B",
"q. c #BD8467",
"w. c #A08D7E",
"e. c #A8947B",
"r. c #C7987C",
"t. c #C5967C",
"y. c #8B8682",
"u. c #8F8A86",
"i. c #948B85",
"p. c #9C9286",
"a. c #9C948C",
"s. c #979390",
"d. c #9C9992",
"f. c #A08E80",
"g. c #AF9588",
"h. c #A59789",
"j. c #A39A92",
"k. c #A99F96",
"l. c #A39E9B",
"z. c #AAA296",
"x. c #AEA49C",
"c. c #A8A49B",
"v. c #B3AA9B",
"b. c #B5AA9B",
"n. c #B6ACA3",
"m. c #B4B4AD",
"M. c #B8B8AC",
"N. c #BCB3AA",
"B. c #BEB5B0",
"V. c #B7B8B0",
"C. c #BBBAB6",
"Z. c #BFBEBA",
"A. c #B3B8BB",
"S. c #CC9F8A",
"D. c #D39B84",
"F. c #E0AC87",
"G. c #C7B1A6",
"H. c #D4B8A8",
"J. c #C3BDB3",
"K. c #C1BDBA",
"L. c #E3B8AF",
"P. c #ECBDA9",
"I. c #C2C2BA",
"U. c #D1C2BB",
"Y. c #F2C8B0",
"T. c #F0C8BC",
"R. c #F4C7B2",
"E. c #F9D5BF",
"W. c #BAC2C5",
"Q. c #DDCEC7",
"!. c #DDD7CB",
"~. c #CCD6DF",
"^. c #D7DBDE",
"/. c #D0D1D3",
"(. c #FBDED8",
"). c #FFE1D7",
"_. c #FFE8DB",
"`. c #DEE3E7",
"'. c #E8E9E8",
"]. c #F1EDEC",
"[. c #F4F5ED",
"{. c #F9F0EB",
"}. c #E3ECF3",
"|. c #EAF1F7",
" X c #E7F4FD",
".X c #ECF5FC",
"XX c #F3F2F5",
"oX c #F8F7F3",
"OX c #FDFCF6",
"+X c #F2F7FC",
"@X c #F3FAFE",
"#X c #FEFEFD",
/* pixels */
"J m g p : 4 - - O B b.N.!.J.9 = 5 4 - O O - - - , ",
"$.$.$.>.~ H n 1 V i.j.l.i.C g v g f d d 9 9 0 - < ",
"F Z J F I T V M N ! ! E N &.@.,.,.j.v.v.b.v.,.z.z.",
"L G J J F F N 5.K.#.> * + + a 0.p.3.@.3.%.3.$.9.8.",
"R L I L U U K '.{.I +.*. .c % k W U U I I G C L J ",
"L E U I I E J :.P g._.E.F.X.l k ,.5.j.n.B.N.<.J.A.",
"#.W W W W E E ~ Y H.).T.S._ ' x U.OXOX#X#X#XZ.[.#X",
"$.$.@.#.$.~ :./ 5.H.t.S.*.t ] ) Q.OX#X#X#X#XC.[.#X",
"5.=.%.$.%.:.4.$.e.R.L.Y.r.` O.{ [.#X#X#X#X#XV.oX#X",
"m.,.1.,.%.,.4.,.%.G.(.P.q.r s  .#X#X#X#X#X#XI.oX#X",
"^.p.6.8.6.3.y.5.y.-.2.O.o.r $ A #X#X#XOX#X#XC.XX#X",
"}.C.7.6.6.7.i.5.9.;.i [ D.( $ D OX#X#X#X#X#Xm.OX#X",
" X/.7.0.f.7.i.u.0.n.| u u w # } OX#X#X#X#X#XI.[.#X",
" X`.h.w.9.i.a.s.^ M D ;.a e l ..m c.OX#X#X#XM.[.#X",
".X}.j.8.a.a.~ b 6 ; 2 Q g.S z y X   N x.].#XM.OX#X",
"@X|.z.f.y.h ; < 6 8 q = 7 3 & = * < @ o 9 d.I.XX#X",
"+X Xk.j.H 4 6 6 2 2 2 1 < < < < - = ; 1 O X $.@X#X",
".X Xx.5.b 4 6 6 2 2 2 1 < < < < < < ; - - . j +X.X",
".X Xx.W 8 1 1 8 1 1 1 1 < < < < , = & & O X - W.~."
};
