/* XPM */
static const char *micro_yaolive[] = {
/* columns rows colors chars-per-pixel */
"25 19 205 2 ",
"   c #0A0300",
".  c #030000",
"X  c #1A0100",
"o  c #1C0C00",
"O  c #150601",
"+  c #250B02",
"@  c #2A0D02",
"#  c #230600",
"$  c #2A1303",
"%  c #21120D",
"&  c #371300",
"*  c #3F1800",
"=  c #331A0A",
"-  c #351308",
";  c #391C12",
":  c #3A240A",
">  c #3F2406",
",  c #3C2517",
"<  c #3F2C1D",
"1  c #451A04",
"2  c #541C02",
"3  c #651D04",
"4  c #412000",
"5  c #4F2C0F",
"6  c #492309",
"7  c #592808",
"8  c #4B2B14",
"9  c #542C16",
"0  c #5E2810",
"q  c #4C3412",
"w  c #5F3014",
"e  c #722E09",
"r  c #63351C",
"t  c #713914",
"y  c #482B21",
"u  c #4C3223",
"i  c #5B3225",
"p  c #5A3627",
"a  c #683728",
"s  c #623B2C",
"d  c #683C23",
"f  c #753A28",
"g  c #5D4634",
"h  c #5E513E",
"j  c #65452C",
"k  c #63502F",
"l  c #684638",
"z  c #7A563D",
"x  c #674E47",
"c  c #69534B",
"v  c #7B5E4B",
"b  c #755445",
"n  c #745F5A",
"m  c #6C675D",
"M  c #7D6452",
"N  c #76695F",
"B  c #7B6C64",
"V  c #746C62",
"C  c #7C7365",
"Z  c #7B7169",
"A  c #75706C",
"S  c #7A7874",
"D  c #82371A",
"F  c #8C4321",
"G  c #814A25",
"H  c #95542C",
"J  c #864A30",
"K  c #835A3E",
"L  c #94573B",
"P  c #A55936",
"I  c #A45824",
"U  c #9A643E",
"Y  c #B66A39",
"T  c #885B49",
"R  c #975E4A",
"E  c #AB5D43",
"W  c #8B6144",
"Q  c #846C57",
"!  c #86635F",
"~  c #946D50",
"^  c #9C755D",
"/  c #A8664B",
"(  c #BB6F4D",
")  c #A36550",
"_  c #806E62",
"`  c #926E62",
"'  c #906D6B",
"]  c #827467",
"[  c #8B7361",
"{  c #82746A",
"}  c #857B6D",
"|  c #8C7A6E",
" . c #857966",
".. c #907C6E",
"X. c #957D65",
"o. c #8C7D72",
"O. c #927A74",
"+. c #967B76",
"@. c #A27E66",
"#. c #B67B67",
"$. c #C0735F",
"%. c #87806E",
"&. c #9D806E",
"*. c #898075",
"=. c #8D857D",
"-. c #928374",
";. c #93867B",
":. c #99877C",
">. c #91897F",
",. c #9C8C7C",
"<. c #998175",
"1. c #AC8265",
"2. c #B4846C",
"3. c #B08C76",
"4. c #A9937B",
"5. c #A78C7B",
"6. c #C2816D",
"7. c #CD8376",
"8. c #D99A7D",
"9. c #CD9079",
"0. c #9D8D82",
"q. c #928D86",
"w. c #9A928B",
"e. c #9C9080",
"r. c #9D9A93",
"t. c #A08F84",
"y. c #A39284",
"u. c #A3948A",
"i. c #AE9689",
"p. c #B69C8B",
"a. c #A39C94",
"s. c #A29D99",
"d. c #A99C96",
"f. c #BAA38C",
"g. c #ADA296",
"h. c #A5A29C",
"j. c #AFA59C",
"k. c #B5A39B",
"l. c #B7A99A",
"z. c #8CA4AE",
"x. c #9FA5A5",
"c. c #AFAEA9",
"v. c #ABACA7",
"b. c #B3A8A4",
"n. c #AEB0AB",
"m. c #B9B3AB",
"M. c #ADB7B9",
"N. c #BCBCB6",
"B. c #BFBDBE",
"V. c #D29A81",
"C. c #E59688",
"Z. c #D6A88D",
"A. c #C7AC98",
"S. c #DCA99C",
"D. c #D8A99B",
"F. c #E4A38D",
"G. c #E7B197",
"H. c #E1B49D",
"J. c #C9B7A6",
"K. c #D1BBAD",
"L. c #C3B9B1",
"P. c #E5ABAA",
"I. c #EDBAA5",
"U. c #F7BDAB",
"Y. c #F5BFB3",
"T. c #BFC3B9",
"R. c #C7C9BC",
"E. c #D3C7B9",
"W. c #A4BCC8",
"Q. c #B9B8C0",
"!. c #B7C6C9",
"~. c #CDCCC7",
"^. c #CBC9CA",
"/. c #C7C8C3",
"(. c #CED0C9",
"). c #D2D2CB",
"_. c #DBD4CC",
"`. c #C4CED7",
"'. c #C7D4D9",
"]. c #D3D4D1",
"[. c #DADCD4",
"{. c #D4DAD8",
"}. c #E6DFD9",
"|. c #E6D9C9",
" X c #D9DEE1",
".X c #DBE8EE",
"XX c #DCEBF3",
"oX c #DFEFFE",
"OX c #E1E3E5",
"+X c #EEECE3",
"@X c #EFF0EC",
"#X c #E6F0EF",
"$X c #F4F2EC",
"%X c #FFF9ED",
"&X c #FEF5EC",
"*X c #E5EFF0",
"=X c #E3F3F9",
"-X c #EBF5FE",
";X c #EBFAFE",
":X c #E9F3F4",
">X c #FEFBF5",
",X c #F3F7FA",
"<X c #F5FDFE",
"1X c #FDFDFD",
"2X c #F1F5F4",
/* pixels */
"N B B m V V m q.l.>.S =.} C } C | B N ] } *.q.A S ",
"{ B B B B Z m Z B C M b ! O.]  .Z g.L._.+X$X$Xc.n.",
"*.{ o.| } } Z B v = + = : k ,.b.h.$X1X1X1X<X1XN.).",
">.o.-.| o.{ -. .p 9 4 q > @ [ >Xm.$X1X1X1X<X1XT.).",
"c.>.<.| -. .y.Q l 2./ $.E 3 8 +XR.$X1X1X1X1X1X(.(.",
" Xs.:.:.:.-.i.j @.U.C.7.E Y 6 ^._.$X1X1X1X1X>X[.[.",
"=XB.:.,.:.,.5.9 P./ U ~ 7 H 7 g.[.@X1X1X1X1X1X~.[.",
"oXOXu.t.0.u.&.r U.#.6.T 2 I t { [.@X1X1X1X1X1X].).",
"=X:Xk.0.w.f.1.p Y.P.F.P F ( D h |.,X1X1X<X1X1X`.[.",
";X<Xm.t.w.A.^ $ S.S.7.F e P 2 < E.2X1X1X<X1X>X].[.",
";X;XN.u.u.D.T   ` I.C.L G J $ + J.1X1X1X<X1X&X).~.",
"-X<XR.e.i.H.z . u G.7.R G 1   + X.%X1X1X<X1X1X/.[.",
",X<XT.,.p.Z.d   , V.#.f 7 o % # 5 A.%X1X1X1X<X{.OX",
",X<XN.y.A.9.w O $ 2.Z.) 0 o ; - * W K.}.>X1X<X*X;X",
"#X<X^.a.k.2.r X y M 1.8.#.6 & - & K i.L.J.Z M.].'.",
":XXXQ.c.j.z 1 + l %.W 8.S.a 5 i = j l.b.A.C x.>XXX",
";X!.v.g.c + + $ l ;.O.' ` s 1 : $ p Q O.b.3.J.;X.X",
"W.'.N.{ x y X + c >.>.+...s 1 8 g v [ B a.@.f.-XXX",
"z.`.h.c +.+.; , { w.s.d.0.l 9 j _ <...n r.^ 4.XX'."
};
