/* XPM */
static const char *micro_aandrieu[] = {
/* columns rows colors chars-per-pixel */
"25 19 202 2 ",
"   c #17120F",
".  c #311804",
"X  c #231B1C",
"o  c #281817",
"O  c #38270E",
"+  c #2D241B",
"@  c #382416",
"#  c #282221",
"$  c #352C26",
"%  c #312928",
"&  c #33322D",
"*  c #3C362C",
"=  c #38352B",
"-  c #2C2E31",
";  c #282B3C",
":  c #3D2F3E",
">  c #363531",
",  c #393632",
"<  c #40220A",
"1  c #412716",
"2  c #572A16",
"3  c #5F3318",
"4  c #6C3E1D",
"5  c #492722",
"6  c #512F26",
"7  c #4D3020",
"8  c #543425",
"9  c #462F35",
"0  c #5B3D34",
"q  c #463835",
"w  c #662A24",
"e  c #623E23",
"r  c #60302C",
"t  c #6C3432",
"y  c #474039",
"u  c #674225",
"i  c #794C2A",
"p  c #694936",
"a  c #7D5437",
"s  c #794A3A",
"d  c #3B3949",
"f  c #513740",
"g  c #653F4C",
"h  c #454748",
"j  c #554D42",
"k  c #584A49",
"l  c #5B564A",
"z  c #4A5157",
"x  c #5D5852",
"c  c #644F4B",
"v  c #794A48",
"b  c #68564D",
"n  c #79584F",
"m  c #6B5D52",
"M  c #635E58",
"N  c #705451",
"B  c #696157",
"V  c #7A6559",
"C  c #5F6460",
"Z  c #6A6763",
"A  c #67666B",
"S  c #726463",
"D  c #766B62",
"F  c #786E65",
"G  c #776C6D",
"H  c #7A7364",
"J  c #7C736B",
"K  c #75766C",
"L  c #616473",
"P  c #797878",
"I  c #88552D",
"U  c #96502C",
"Y  c #834339",
"T  c #925634",
"R  c #AA462E",
"E  c #A15D30",
"W  c #B45038",
"Q  c #854D40",
"!  c #855A44",
"~  c #965E4F",
"^  c #8B5952",
"/  c #AE5945",
"(  c #93624C",
")  c #9C6B4D",
"_  c #826B5D",
"`  c #876656",
"'  c #996856",
"]  c #98745A",
"[  c #A87055",
"{  c #AE7151",
"}  c #955E63",
"|  c #85776F",
" . c #857A6E",
".. c #8B7C6D",
"X. c #89756A",
"o. c #9F7966",
"O. c #857B72",
"+. c #8A7D72",
"@. c #817670",
"#. c #9B7E72",
"$. c #967F77",
"%. c #A87568",
"&. c #B87B68",
"*. c #CC7D56",
"=. c #B58159",
"-. c #8D8172",
";. c #8D837A",
":. c #928476",
">. c #93847B",
",. c #9B8579",
"<. c #988B7D",
"1. c #A4816E",
"2. c #BB8364",
"3. c #A58878",
"4. c #B38C78",
"5. c #A99071",
"6. c #BE9175",
"7. c #D38B65",
"8. c #C0877C",
"9. c #D0817C",
"0. c #D59F79",
"q. c #EB937F",
"w. c #768491",
"e. c #8E8582",
"r. c #8B8B86",
"t. c #948B81",
"y. c #9B8E84",
"u. c #998A84",
"i. c #9D9182",
"p. c #9D958C",
"a. c #9C998C",
"s. c #939486",
"d. c #9E9D9C",
"f. c #989A99",
"g. c #AE8D84",
"h. c #A2958B",
"j. c #A3998C",
"k. c #A69586",
"l. c #B79786",
"z. c #A49B91",
"x. c #A49C99",
"c. c #AB9D96",
"v. c #BF9795",
"b. c #A9A39C",
"n. c #B3A99D",
"m. c #979DA4",
"M. c #97A0A7",
"N. c #AEABA3",
"B. c #A7A8AA",
"V. c #B3ABA9",
"C. c #A1ADB9",
"Z. c #AEB6B8",
"A. c #B3B4BB",
"S. c #BCBFBA",
"D. c #B9B4B3",
"F. c #C79C84",
"G. c #C5AD93",
"H. c #D7A797",
"J. c #CEB69E",
"K. c #E0A48A",
"L. c #E1A791",
"P. c #C6B4AD",
"I. c #C2B3A3",
"U. c #D0B5A0",
"Y. c #C3BCB5",
"T. c #C8B9B3",
"R. c #D2BFB8",
"E. c #C6A4A3",
"W. c #EEB4A6",
"Q. c #C8C4B7",
"!. c #F1C3A9",
"~. c #EDC2B3",
"^. c #E3CAB9",
"/. c #F3CDB8",
"(. c #AEB8C1",
"). c #BAC1C9",
"_. c #C9C9C5",
"`. c #D4CCC4",
"'. c #D9D1CF",
"]. c #CBCDD6",
"[. c #CCD3D9",
"{. c #D2D8DE",
"}. c #FFDFCF",
"|. c #E5C9C5",
" X c #E7E3DB",
".X c #FEE4D3",
"XX c #CBD8E1",
"oX c #D6DFE6",
"OX c #DBE5EE",
"+X c #D9E2E1",
"@X c #DFEBF7",
"#X c #F2ECE5",
"$X c #F3F4EA",
"%X c #E1EEF7",
"&X c #EFFDFF",
"*X c #F5F6F6",
"=X c #FCF6F6",
"-X c #FFFDF5",
";X c #F4FBFC",
":X c #FEFEFD",
">X c #F3F4F9",
",X c #E6E8E5",
/* pixels */
"b.-X#Xb.b j y * > - - & $ j.T.Y.T.G , j j h , = = ",
"p.Y.p.O.;.;.O.+.H V j > P x.z.a.J M B m B Z K H H ",
"J J J @.O.| +.+...J x m X.O.e.j.S.z.y.c.h.p.j.n.I.",
"+.| | J F D D D G Z k.L.7.2.^.:X:X`.,.h.y.-...O.| ",
":...+. .J J | J _ l.}.~.K.7.0.U.a.:.$.O.;.:...t.i.",
">.+. .+. .J F O.H ^.~.F.6.! a 5.-.-.>.;.t.z.`.#X=X",
"Z.d.e.;. .+.O.J  .R.g.! o.6 p =.3.>.p.N.Y.:X:X:X:X",
"C.).V.u.>.>.:.>.$.^./.H.W.T E *.1.n.$X$XQ.:X;X:X:X",
"K m.].Z.s.<.y.>.i.H..XH.[ 4 U T G.:X:X=X_.:X-X:X:X",
" XP A.{.S.y.<.u.y.l.4.&.&.i 3 e  X:X:X=XQ.:X:X:X:X",
":X`.P XXoXV.h.p.h.,.! v %.u O p *X:X*X*XQ.:X:X:X:X",
":X:Xd.(.@X].p.j.k.p.l.p 5 1 O u D.-X:X;XQ.:X;X:X:X",
":X:X+Xm.%XOXN.k.j.e.S J.` 7 a I 0 #.I.,XT.:X:X:X:X",
":X:X;XB.OX&X_.3.G : k ] !.F.) ( N . < l V '.:X:X:X",
":X:X:XA.OX[.G r A d # 8 s ) &.0 + @ 2 V b = k.-X:X",
":X:X:X].m.h N } r.L C S E.i 6.V.= c %.P.x.l e 4.:X",
":X-X:X|.#.M.v.9.Y.u.>.V K.( l.c.4 Q R 2.( 2 8 @ P.",
";X:X>X..~ ^ / W 8.Y t w R ' _ X $ 9 w n k o #   _ ",
":X:X{.h f g v ` w.d ; ; t c y - z d 5 q & o # X ` "
};
