/* XPM */
static const char *micro_afontan[] = {
/* columns rows colors chars-per-pixel */
"25 19 194 2 ",
"   c #040303",
".  c #090604",
"X  c #0C0B0C",
"o  c #120B03",
"O  c #18130E",
"+  c #0D0E10",
"@  c #151413",
"#  c #1B1918",
"$  c #1A1511",
"%  c #261C16",
"&  c #241E19",
"*  c #281E15",
"=  c #2A2016",
"-  c #2B241C",
";  c #36281D",
":  c #2A2522",
">  c #252527",
",  c #332B23",
"<  c #3E2F24",
"1  c #362E2B",
"2  c #3B3129",
"3  c #3F382E",
"4  c #3E3731",
"5  c #3F3832",
"6  c #493A2E",
"7  c #563F2F",
"8  c #453B32",
"9  c #443C39",
"0  c #4D3D30",
"q  c #523A30",
"w  c #4A423A",
"e  c #46413D",
"r  c #544437",
"t  c #584537",
"y  c #53453C",
"u  c #55493E",
"i  c #5C4939",
"p  c #654E3E",
"a  c #4D4842",
"s  c #554B44",
"d  c #5B4D42",
"f  c #564F49",
"g  c #5C5045",
"h  c #5C544C",
"j  c #5E5A5C",
"k  c #585355",
"l  c #6A4F46",
"z  c #704F46",
"x  c #645145",
"c  c #6B5444",
"v  c #66584E",
"b  c #6B5A4D",
"n  c #60564D",
"m  c #75564A",
"M  c #735A4A",
"N  c #775B46",
"B  c #675D53",
"V  c #6B5C52",
"C  c #725E53",
"Z  c #67605A",
"A  c #6D645B",
"S  c #756355",
"D  c #7C6454",
"F  c #7F6956",
"G  c #74655A",
"H  c #7C6659",
"J  c #77695F",
"K  c #7D695C",
"L  c #5E5E60",
"P  c #656162",
"I  c #6A6667",
"U  c #7F6F60",
"Y  c #726D6D",
"T  c #7E7263",
"R  c #737376",
"E  c #7D797D",
"W  c #777376",
"Q  c #826C5D",
"!  c #8A6F5E",
"~  c #8B675B",
"^  c #87725E",
"/  c #826E62",
"(  c #847264",
")  c #8C7665",
"_  c #8C7769",
"`  c #867B6F",
"'  c #8C7B6B",
"]  c #8A7862",
"[  c #927A66",
"{  c #927D6D",
"}  c #987E6A",
"|  c #997263",
" . c #847C73",
".. c #8D7E72",
"X. c #807C7B",
"o. c #947E70",
"O. c #A57E6F",
"+. c #A87E70",
"@. c #A17F73",
"#. c #98826D",
"$. c #93816D",
"%. c #8A8179",
"&. c #938373",
"*. c #9C8473",
"=. c #998779",
"-. c #93887D",
";. c #9A8B7D",
":. c #9C8A74",
">. c #9F907D",
",. c #A08674",
"<. c #AF8172",
"1. c #A48C75",
"2. c #A28F7E",
"3. c #AA897A",
"4. c #AF9177",
"5. c #A9927B",
"6. c #A6927A",
"7. c #B1947E",
"8. c #8C8481",
"9. c #868188",
"0. c #858182",
"q. c #938B83",
"w. c #9D8E83",
"e. c #938B89",
"r. c #9B938C",
"t. c #9A9289",
"y. c #999293",
"u. c #A58F82",
"i. c #A49483",
"p. c #AD9581",
"a. c #A0978E",
"s. c #A6988C",
"d. c #AE9E8E",
"f. c #B29C8D",
"g. c #B79A84",
"h. c #A39C95",
"j. c #A59D99",
"k. c #AB9D97",
"l. c #B29F90",
"z. c #B1A08E",
"x. c #ACA39C",
"c. c #AFA194",
"v. c #BEAB9C",
"b. c #B5A495",
"n. c #ADA8A5",
"m. c #B7ABA1",
"M. c #ADB0A7",
"N. c #BCB5AD",
"B. c #BBB1A7",
"V. c #AFADB0",
"C. c #BAAFB7",
"Z. c #B7B6B2",
"A. c #BAB5B1",
"S. c #C2A88F",
"D. c #C3A897",
"F. c #CFAB9B",
"G. c #D7AC99",
"H. c #C4B7A6",
"J. c #C2B5A9",
"K. c #C5B8A8",
"L. c #CCBBAB",
"P. c #D1BEAF",
"I. c #DDBCAB",
"U. c #C0B6B7",
"Y. c #C3BEB9",
"T. c #C9BCB3",
"R. c #D3C3AB",
"E. c #C4C1BC",
"W. c #CEC5BB",
"Q. c #D4CABE",
"!. c #C7BAC1",
"~. c #C6C0C0",
"^. c #CBC8C3",
"/. c #D1CBC3",
"(. c #D2CFCA",
"). c #DED2C4",
"_. c #DFD8C8",
"`. c #D8D3CC",
"'. c #DCDAD3",
"]. c #DED6D3",
"[. c #E1D3CB",
"{. c #EBDFD3",
"}. c #E4E0D7",
"|. c #E7E0DA",
" X c #ECE5DD",
".X c #F0E7DE",
"XX c #ECEAE2",
"oX c #E9E3E3",
"OX c #F4EBE4",
"+X c #FFF4E6",
"@X c #F6F0EB",
"#X c #FFF8EF",
"$X c #FDFEFD",
"%X c #F7F5F3",
/* pixels */
"0 ; < y w y r r V ` = o O @ @ @ - , w & % & & & & ",
"..B 8 d V G G ( o.G y 8 9 4 4 9 8 3 s s s h h h h ",
"#Xm.G G ' ( G G D K G V g v b d g g d d d d u h h ",
"{.c.) ,.p.b.i.' Q ( ( ' &.' $.] { _ { { { _ { ' [ ",
"d.i.p.4.4.7.5.6.H.L.f.Q M F :.5.5.p.6.1.7.1.1.1.2.",
"+XP.5.1.g.S.1.5._.+Xf.! D.} b >.#.*.*.,.} #.#.} [ ",
"W.k.s.L.z.v.i.i.q.w._ I.F.f.C J x.m.;.' i.&...J.Y.",
"@XA.|.@XQ.W.).-. .J ,.O.+.m V k.~.Y.h.x. Xx.t.%X$X",
"(.Q.oX'.[.R.}.M.t.x 7.G.<.~ K w.E.h.%.h.N.-.8.%X$X",
"^.).E.'.OXR.XXE.'.v ! g.| z V h.N.n.X.y.e.8.P V.'.",
"/.K.].`.[.R.'.XXOX .7 3.@.l y a.j.e.R E E Y k E U.",
"N.L.W.E.).L./.N..Xs.D p.m q d A x.j.0.R R R j y.!.",
"r.d.` Z.Q.' B.t.K._ F } *.M r r T q.a j R L k e.C.",
"A ;.T Y i...;.w.{ _ ! c M i x S U ` B & # > & : 9.",
"w u.&.Y T / ' o.o.*.( D H b K ( ( ( ( s . X @ X P ",
"f u.i y.i.x ^ ! o._ _ S K G / / ( S c G :   X . W ",
"v.l.< J.=.N N J { { ( H K Q ' ( S n w u r . + X W ",
"T.V * Z 6 D p s Q ( K H Q H Q S i 2 , r d & X . 9 ",
"e $ $   8 Q t 2 D K J K / Q S x 0 % - u v 1 @ # I "
};
