/* XPM */
static const char *micro_tgibert[] = {
/* columns rows colors chars-per-pixel */
"25 19 208 2 ",
"   c #382518",
".  c #101E21",
"X  c #1C2723",
"o  c #1F2E31",
"O  c #2B2E2D",
"+  c #242B27",
"@  c #2A342E",
"#  c #23322F",
"$  c #2A3534",
"%  c #2A3B39",
"&  c #273636",
"*  c #373D3D",
"=  c #383C37",
"-  c #372F27",
";  c #4D3828",
":  c #553828",
">  c #443F3C",
",  c #3A413D",
"<  c #46473B",
"1  c #6F4C39",
"2  c #655A3E",
"3  c #2D3E44",
"4  c #343C43",
"5  c #383F45",
"6  c #2E4A4E",
"7  c #354344",
"8  c #3E4844",
"9  c #3D4648",
"0  c #374B4E",
"q  c #3B4956",
"w  c #394F64",
"e  c #4C4B43",
"r  c #4C4E4A",
"t  c #414649",
"y  c #4C5657",
"u  c #4F5955",
"i  c #44595B",
"p  c #545652",
"a  c #5C5F5B",
"s  c #565D56",
"d  c #4E504C",
"f  c #6D4F46",
"g  c #7F5C4A",
"h  c #7A5A45",
"j  c #665C53",
"k  c #6F5B4C",
"l  c #5F6041",
"z  c #55635C",
"x  c #5C615C",
"c  c #666845",
"v  c #67695C",
"b  c #7C7B56",
"n  c #7A6353",
"m  c #4F6767",
"M  c #5A6965",
"N  c #596A73",
"B  c #5A7377",
"V  c #646C63",
"C  c #6C6C62",
"Z  c #626B65",
"A  c #736F63",
"S  c #6C756D",
"D  c #66716B",
"F  c #73756D",
"G  c #79766B",
"H  c #797865",
"J  c #656E76",
"K  c #6B7C72",
"L  c #677678",
"P  c #7D7571",
"I  c #797E7E",
"U  c #767A73",
"Y  c #835E4B",
"T  c #86634F",
"R  c #926E4E",
"E  c #866857",
"W  c #9E6F5B",
"Q  c #8D7159",
"!  c #997A5E",
"~  c #8A7968",
"^  c #9A7462",
"/  c #9B756A",
"(  c #917D78",
")  c #A87962",
"_  c #6B837C",
"`  c #74817A",
"'  c #7C837C",
"]  c #7F8372",
"[  c #8D865C",
"{  c #8B8A69",
"}  c #8D8B7C",
"|  c #85867A",
" . c #989778",
".. c #978A77",
"X. c #A4866C",
"o. c #A58976",
"O. c #B88C75",
"+. c #B58C70",
"@. c #BF9172",
"#. c #B1917A",
"$. c #A5A17E",
"%. c #637D8C",
"&. c #5F8085",
"*. c #698784",
"=. c #748785",
"-. c #7C8485",
";. c #7B8D8C",
":. c #768A87",
">. c #678C9E",
",. c #78939A",
"<. c #679299",
"1. c #858B85",
"2. c #888B84",
"3. c #8D8C8A",
"4. c #828784",
"5. c #978381",
"6. c #839386",
"7. c #86918D",
"8. c #9B9484",
"9. c #828D91",
"0. c #8C9593",
"q. c #8B9699",
"w. c #879997",
"e. c #919B9C",
"r. c #9D9E9E",
"t. c #939892",
"y. c #A49985",
"u. c #BC9584",
"i. c #B99A85",
"p. c #AB9790",
"a. c #97A59C",
"s. c #9AA294",
"d. c #A6A385",
"f. c #A2A699",
"g. c #A8A698",
"h. c #B6AA97",
"j. c #A7B196",
"k. c #8F9CA5",
"l. c #9B9DA6",
"z. c #A19FA4",
"x. c #8EA4AC",
"c. c #99A7A6",
"v. c #91AEB4",
"b. c #A1ACAB",
"n. c #AAAAA5",
"m. c #B3AFAE",
"M. c #B7B5AA",
"N. c #A1AFB0",
"B. c #A3B3B4",
"V. c #ACB8BA",
"C. c #A9B7B7",
"Z. c #B2B9B7",
"A. c #A5B5AA",
"S. c #C09B89",
"D. c #C89B83",
"F. c #C5A188",
"G. c #C8A495",
"H. c #D8AA91",
"J. c #C7BDAD",
"K. c #C9B8B8",
"L. c #DDB5AB",
"P. c #E7B9A9",
"I. c #D1C299",
"U. c #C4C6BD",
"Y. c #D5CEB3",
"T. c #D6C9BD",
"R. c #C9CBA6",
"E. c #E0CDAC",
"W. c #F0C5BC",
"Q. c #EAD9BB",
"!. c #EACABD",
"~. c #A6B9C6",
"^. c #B2BAC5",
"/. c #ACC2C5",
"(. c #B4C2C3",
"). c #B9C5CA",
"_. c #B7C7CA",
"`. c #BACDD4",
"'. c #BDD3D9",
"]. c #B8D5D8",
"[. c #BAD6E1",
"{. c #C6C7C3",
"}. c #D3CECC",
"|. c #DCCAC5",
" X c #C0D1D3",
".X c #C1D4DD",
"XX c #C9D6DA",
"oX c #D8DAD8",
"OX c #CCD0CC",
"+X c #F8CDC3",
"@X c #E4D4C6",
"#X c #FFD9D4",
"$X c #E3E1C8",
"%X c #E7E7DC",
"&X c #F2F4DF",
"*X c #CBDCE4",
"=X c #C6DCE9",
"-X c #CBDEEB",
";X c #CCE1EC",
":X c #D2E4EC",
">X c #D7E6E3",
",X c #CDE4F1",
"<X c #D4E7F5",
"1X c #E8E9E5",
"2X c #F7F8E8",
"3X c #FCFCF6",
"4X c #FBF6F0",
"5X c #E9F6ED",
/* pixels */
"j.6.c.S ' | F M m =.*.*.K i N D D 0.4.V z ` w.,.` ",
"}.A.a.s.:.V ' J m a u m L p a u y I S x K ;.;.:.L ",
"2X>X_._.~.V.U.Z.a.0.1.=.,.7.f.w.9.c.e.e.B.N.B._./.",
"%X X.X'.[.XX1X3X5X:XXXoX*X.X'.]..X*X*XXX*X:X<X:X:X",
"OX`.'.`.[. X1X4X1XK.K.T.|.oX<X,X,X=X,X,X=X=X;X,X-X",
"` (.(.c.~.).oX&X}.S.G.G.G.p. X;X;X*X-X;X-X:X*X:X*X",
"p x A H M S t.4.8.#.D.F.X.o.p.c.b.Z.b.q.c.(.c.-.U ",
"y.h.~ y.M.F G 2.o.k g +.: ~ y.P s.| v x a V < e > ",
"Q.$X .h.|.l.r.T.S.W O.H.) X./ G.J.;.N.n.| M.} j j ",
" .{ { c H f.OX3Xi.D.F.u.O.@.^ %X3XB.r.8.{ d.R.Y.y.",
"2 b $.[  .{.}.@XX.) T f E R ! &X4X).m.~ l c b {  .",
"P U v G 5.z.Z.n.k 1 h g E ; n Y.U.B.n.8.v l  .g.H ",
"V C G | ..E.$Xx.G : E ! Q ; 5.g.U./.I C F C 6.1.x ",
"x v } d.I.Q.M.L @X^   -   Y W.3.l.,X^.t.J y S S s ",
"L -.t.] 4.J q & J.P.f - j u.L.r t %.k.a.w.L u ' 1.",
"c.| 8.N w 7 , 4 F #XP.@.H.!.( % t 6 y D =.q.7.t.3.",
"t.S 2.r , $ 4 5 @ | +X+XP.( O 4 , 3 = 0 M B B.w.=.",
"0.1.e O + @ 7 9 7 + e j < @ % 7 8 3 + o i &.c.x._ ",
"C.V.O + X $ 9 9 = * @ # % % % * 8 4 X . 0 <.e.v.>."
};
