/* XPM */
static const char *micro_flverge[] = {
/* columns rows colors chars-per-pixel */
"25 19 201 2 ",
"   c #221A27",
".  c #423F38",
"X  c #4D493D",
"o  c #525037",
"O  c #453D4A",
"+  c #693F41",
"@  c #31444C",
"#  c #3C4B4F",
"$  c #354449",
"%  c #3C4C51",
"&  c #384557",
"*  c #3C5252",
"=  c #4D484E",
"-  c #5B4A48",
";  c #565343",
":  c #414E56",
">  c #4E4B54",
",  c #445457",
"<  c #46545B",
"1  c #5C5B52",
"2  c #555758",
"3  c #634E5D",
"4  c #6C5555",
"5  c #5D625D",
"6  c #6A6848",
"7  c #707147",
"8  c #666255",
"9  c #69655A",
"0  c #746857",
"q  c #747F5F",
"w  c #4D5B63",
"e  c #4D5B6A",
"r  c #495966",
"t  c #505D65",
"y  c #535F69",
"u  c #615B62",
"i  c #4F6068",
"p  c #536162",
"a  c #596463",
"s  c #54636B",
"d  c #59646F",
"f  c #4E6573",
"g  c #576674",
"h  c #596572",
"j  c #5C6974",
"k  c #5B667B",
"l  c #556D7B",
"z  c #596979",
"x  c #5C777C",
"c  c #63666A",
"v  c #6A6A64",
"b  c #756D6B",
"n  c #796E6D",
"m  c #716967",
"M  c #71726D",
"N  c #626876",
"B  c #706E71",
"V  c #61747B",
"C  c #6F7873",
"Z  c #7A7673",
"A  c #757974",
"S  c #757775",
"D  c #6A746C",
"F  c #A93041",
"G  c #86685A",
"H  c #A65E62",
"J  c #BA4071",
"K  c #8B6C64",
"L  c #836964",
"P  c #936B63",
"I  c #8A756A",
"U  c #93756E",
"Y  c #907365",
"T  c #827C79",
"R  c #877971",
"E  c #917D73",
"W  c #836678",
"Q  c #AC6F6A",
"!  c #A37C6F",
"~  c #A07B73",
"^  c #6D8477",
"/  c #7B837C",
"(  c #768477",
")  c #77876D",
"_  c #83845E",
"`  c #8C8C5E",
"'  c #878269",
"]  c #8A8474",
"[  c #89867B",
"{  c #94837C",
"}  c #978576",
"|  c #928F71",
" . c #A1867F",
".. c #A4A176",
"X. c #A6AD69",
"o. c #DEDC77",
"O. c #576880",
"+. c #616F8A",
"@. c #687786",
"#. c #747A83",
"$. c #797E87",
"%. c #617290",
"&. c #B85888",
"*. c #887983",
"=. c #A47389",
"-. c #CF608A",
";. c #C07E8C",
":. c #6B8286",
">. c #74838A",
",. c #768597",
"<. c #7B8F98",
"1. c #729698",
"2. c #7BA29F",
"3. c #7AAAA9",
"4. c #75AAB0",
"5. c #8B8C85",
"6. c #8D8E8A",
"7. c #888588",
"8. c #978D81",
"9. c #83988A",
"0. c #809189",
"q. c #9B9A8B",
"w. c #949288",
"e. c #859799",
"r. c #969593",
"t. c #9C9A92",
"y. c #969A99",
"u. c #AD8C83",
"i. c #B68C84",
"p. c #A4948A",
"a. c #A69E8B",
"s. c #AB9A8B",
"d. c #A89189",
"f. c #B29689",
"g. c #A59B95",
"h. c #B39C93",
"j. c #BC999B",
"k. c #85A09B",
"l. c #9DA19C",
"z. c #9DB29F",
"x. c #98A28A",
"c. c #A5A19C",
"v. c #A6A595",
"b. c #B5AA9C",
"n. c #B9AB96",
"m. c #B2A68A",
"M. c #959BA8",
"N. c #8C9CB3",
"B. c #8FA1A3",
"V. c #9FA6A5",
"C. c #92A3AD",
"Z. c #9CA8AB",
"A. c #9CA7AB",
"S. c #9DBDAE",
"D. c #99ADB4",
"F. c #A9A6A5",
"G. c #B7A8A5",
"H. c #AAB5AC",
"J. c #BBB7AC",
"K. c #B0A3B5",
"L. c #A5B1B7",
"P. c #BBB5B1",
"I. c #B5B9B8",
"U. c #C29F99",
"Y. c #C9BF9B",
"T. c #C3ACA8",
"R. c #C3B9B0",
"E. c #BAC18E",
"W. c #BCC1BD",
"Q. c #D9D29B",
"!. c #D9CCAC",
"~. c #CBD0A8",
"^. c #C6C4BB",
"/. c #D7C7BD",
"(. c #E0C9B9",
"). c #EBECB2",
"_. c #A7BBD6",
"`. c #9FC1C2",
"'. c #B5CECE",
"]. c #C6C7C9",
"[. c #DDCBC1",
"{. c #C5CBD1",
"}. c #C6CEDB",
"|. c #C6D1D4",
" X c #CBD6DC",
".X c #C7D1DB",
"XX c #D2DADC",
"oX c #D2D9D9",
"OX c #E3D1C5",
"+X c #E3D8D4",
"@X c #CDDBE3",
"#X c #D3DBE4",
"$X c #D8DDE0",
"%X c #DCE3E6",
"&X c #D6E2E9",
"*X c #D7E8F2",
"=X c #E1EBED",
"-X c #E4E7EE",
";X c #F0F1EC",
":X c #FEFCF5",
">X c #FDFDFD",
/* pixels */
" X}.#X%X#XXX&X@XoX&X*X{.|.*X@X X-X:X:X>X>X:X:X>X>X",
"oXoX XXXXX%X X#X X$Xy.b 7.y.{. X@X=X>X>X>X>X>X>X>X",
"A l.W.V.H.I.{.].@Xc.E h.d.d.P. X.X|.%X>X>X:X:X:X;X",
"1 ; v c 9 M 6.q.>.R f.f.u.u.G.y.5.6.l.6.6.5.c./ A ",
"{ a.8.[ w.c.Z q.8.{ U P ! L b.] R 5.S B u c c > = ",
"/.Y.a.v.a.P.7.^.n.{ L G ~ 4 R h.J.V.e.I.g.] J.n.] ",
"0 ` _ | o Z M.>X(.} f.u.U. .h.OX:X=XB.t.' _ E.Q.).",
"X 7 7 I 6 w.{.^.T.f.! U K G f.+X[.].'.t.9 q ` ` ..",
". 1 9 8 0 Z H.r.b } Y Y U K E T n M.I.[ v ; 6 q.[ ",
"+ 2 *.a m ( /.G.O ; G i.i.} 8   - L.<.5.H.F.r.C 1 ",
"F 9 ^ m D ..!.J.u v.s.- 4 0 b.7.#._.N.S 6.r.F.P.v.",
"H *.9.[ =.T.h.y.,.6.^.g.R b.r.C.Z.D.C.e.<.9.( F.I.",
"x.A.9.Q -.N.<.:.+.s a n b 2 w #.#.>.e.Z.t.p./.G.j.",
"G.H.n.s.>.l V +.V z e # , s j @.,.+.O.$.R.g.]./.j.",
"K.T ;.$.l j d %.l k N a p N k l x @.k s ^ 3.4.'.3.",
"T J &.a 5 r x c N s s s e i j N l V f e 2 k.1.`.S.",
"*.W 3 2 : < h h j j d t w s d j k a y , & ] o.n.~.",
"2.:.< * @ % d g z h s w w t s d g p e * @ 5 X.v.J.",
"3.x # # $ : j g h h s w w t s s s y r % @ % ) z.F."
};
