/* XPM */
static const char *micro_jlefevre[] = {
/* columns rows colors chars-per-pixel */
"25 19 188 2 ",
"   c #251307",
".  c #3E2401",
"X  c #27241F",
"o  c #3B2C1C",
"O  c #3C2418",
"+  c #2C2A25",
"@  c #2C2721",
"#  c #2D3029",
"$  c #3C3229",
"%  c #502715",
"&  c #44331D",
"*  c #4A351D",
"=  c #46381E",
"-  c #55381A",
";  c #402F27",
":  c #443426",
">  c #4C3923",
",  c #4A3D2D",
"<  c #453B33",
"1  c #4F3D31",
"2  c #544229",
"3  c #4B4235",
"4  c #414139",
"5  c #524333",
"6  c #5B4130",
"7  c #554837",
"8  c #5F4639",
"9  c #56483D",
"0  c #5A4B3C",
"q  c #724A27",
"w  c #724C33",
"e  c #784D3C",
"r  c #61523F",
"t  c #6B5035",
"y  c #7C543A",
"u  c #684438",
"i  c #4E4A47",
"p  c #534E4A",
"a  c #5C5144",
"s  c #615443",
"d  c #6F5A47",
"f  c #64574F",
"g  c #655A4A",
"h  c #6C5C4B",
"j  c #6C5746",
"k  c #75594A",
"l  c #625751",
"z  c #6A5E53",
"x  c #645C59",
"c  c #655C56",
"v  c #6C6256",
"b  c #6D635A",
"n  c #756656",
"m  c #73665B",
"M  c #736A5F",
"N  c #7A6A5B",
"B  c #7D675C",
"V  c #6F6161",
"C  c #746B62",
"Z  c #7C6C64",
"A  c #746061",
"S  c #747265",
"D  c #7C7166",
"F  c #7B746B",
"G  c #737369",
"H  c #6B7174",
"J  c #6E7379",
"K  c #717870",
"L  c #7D7270",
"P  c #905C2A",
"I  c #915D38",
"U  c #92563A",
"Y  c #A36E3C",
"T  c #9F754F",
"R  c #866C55",
"E  c #8C7257",
"W  c #A86D4B",
"Q  c #A6785B",
"!  c #807465",
"~  c #837569",
"^  c #837A6F",
"/  c #8A7A6B",
"(  c #987C67",
")  c #907B6A",
"_  c #877C73",
"`  c #8D7F74",
"'  c #96816C",
"]  c #868277",
"[  c #8D8174",
"{  c #87807A",
"}  c #8D857A",
"|  c #858978",
" . c #91887F",
".. c #968576",
"X. c #A4846F",
"o. c #BE896A",
"O. c #A18379",
"+. c #BE8F75",
"@. c #B18779",
"#. c #B08B79",
"$. c #878682",
"%. c #938C83",
"&. c #988F84",
"*. c #9D9087",
"=. c #979389",
"-. c #9A938C",
";. c #898E92",
":. c #95989A",
">. c #A19385",
",. c #A59887",
"<. c #A09488",
"1. c #A1998E",
"2. c #BA9A8B",
"3. c #B49785",
"4. c #A09991",
"5. c #A69D96",
"6. c #ACA39B",
"7. c #ADA99E",
"8. c #B6A197",
"9. c #989DAD",
"0. c #9DA0A5",
"q. c #A5A6A5",
"w. c #BAB8AD",
"e. c #BBB4AC",
"r. c #A9A8B0",
"t. c #B3B4B4",
"y. c #BEB7B1",
"u. c #B4BCBE",
"i. c #C29286",
"p. c #DA9F8D",
"a. c #CBB09F",
"s. c #C5A598",
"d. c #E4B89F",
"f. c #E2B29C",
"g. c #D3ADA2",
"h. c #D5B5A3",
"j. c #C0B9B1",
"k. c #CDBFBE",
"l. c #C7B6A4",
"z. c #F0B8A7",
"x. c #E9BFB3",
"c. c #C7C1BC",
"v. c #CAC1BA",
"b. c #EBC7B7",
"n. c #E6C6B9",
"m. c #E5C9BB",
"M. c #B6B9C2",
"N. c #B6C0C1",
"B. c #BDC8CE",
"V. c #BAC3C9",
"C. c #BECBD3",
"Z. c #CBCAC5",
"A. c #C4C5C9",
"S. c #D0C7C2",
"D. c #D3CDC5",
"F. c #D4D0C5",
"G. c #D3D3CE",
"H. c #D9D4CC",
"J. c #C4CBD3",
"K. c #CCD2D3",
"L. c #DBD7D2",
"P. c #DEDCD6",
"I. c #D8DCDF",
"U. c #FFDDCE",
"Y. c #FFDBC2",
"T. c #E2DED6",
"R. c #E3DED8",
"E. c #E4E1DB",
"W. c #EDE4DD",
"Q. c #F1E7DB",
"!. c #DDDEE0",
"~. c #D1D9E4",
"^. c #E5DFE1",
"/. c #DBE4ED",
"(. c #E6EAEB",
"). c #EAECEC",
"_. c #E3E5E0",
"`. c #F2EBE5",
"'. c #ECF0EF",
"]. c #FFF5EC",
"[. c #EBEFF4",
"{. c #EFF9FF",
"}. c #EDF0F5",
"|. c #F3F6F6",
" X c #FDFCF5",
".X c #FCF7F9",
"XX c #F5FCFC",
"oX c #FEFEFD",
/* pixels */
"A C S G D D _ L D n g 4 # G -.=.} a < 3 < $ + @ X ",
"N b V z v c l z b N m p i c C { 4.%.C D M ]  .} _ ",
"F D Z Z m b v v x z f x 5.v.W. X XT._ *.<.[ [ <.,.",
"r.%.! m C m b b b C b F `.Q.D.q.%.D D C m N m z z ",
"H 0.q.] M Z Z b b m 0 ;   O r C m ! ~ ~ F %.6.j.c.",
"Z.H 9.M.-.Z D F ~ 8 k 2.e w w N ` ~ [ 1.e. X X XoX",
" X_.J 9.A.=.^ ~ ~ 8 h.U.f.o.Q R _ 6. XR.D. X XoXoX",
".XoXP.K N.J.%./ [ h a.#.+.I q E c. X XE.G.oXoXoXoX",
"oXoX Xt.:./.t.` ' @.n.h.x.Q P s.oXoXoXT.H.oXoXoXoX",
"oXoXoX).;.~.I.&.[ g.b.Y.z.W Y m.oXXX XE.D.oXoX XoX",
".XoXoXoXr.J.[.q.[ O.2.d.p.U T ]..XoXoXT.H.oXXX XoX",
"oXoXoX XV.V.{.t.>.B k X.i.e R oX XoXoXP.D.oXoX XoX",
"oXoXoXoXK.C.XXA...~ r ) u % 2 3 S..XoXL.D.oX.XoXoX",
" XoXoXoXK.B.XXZ./ v s n 3.y - . 5. XoXE.L.oXoX.XoX",
" XoXoXoXK.K.oXy.! M h : d t * - l. X XH.F. XoXoXoX",
" XoXoXoXA.u.:.a a b j 9 , o @ o > g R.D.w. XoX.X X",
"oX!.(.oXF._ 0 1 a a g s 5 o & & = O 6 w.G.oX^.| $.",
"oX).'.[.7.z s , 3 0 0 7 0 5 > * * : > F H.oXk.h 6.",
"|.}.|.(.%.9 g : $ s s 7 7 , & * * : 2 3 &. X8.( 8."
};
