/* XPM */
static const char *micro_olthorel[] = {
/* columns rows colors chars-per-pixel */
"25 19 196 2 ",
"   c #060504",
".  c #0A0907",
"X  c #0C0B0C",
"o  c #120E0B",
"O  c #181109",
"+  c #17120C",
"@  c #0E0F12",
"#  c #0E171E",
"$  c #131314",
"%  c #15151A",
"&  c #18141A",
"*  c #16191E",
"=  c #1B1A1C",
"-  c #1C1814",
";  c #201511",
":  c #291610",
">  c #211A17",
",  c #211C18",
"<  c #2A2017",
"1  c #2D231A",
"2  c #1E1D22",
"3  c #221E22",
"4  c #1C2124",
"5  c #222126",
"6  c #292525",
"7  c #242329",
"8  c #2D2927",
"9  c #302720",
"0  c #322A23",
"q  c #3A2D24",
"w  c #352E2A",
"e  c #36312D",
"r  c #3B332D",
"t  c #242E30",
"y  c #2F2F33",
"u  c #262533",
"i  c #302F35",
"p  c #323134",
"a  c #3B3036",
"s  c #3D3834",
"d  c #403428",
"f  c #41382F",
"g  c #473D31",
"h  c #453C3A",
"j  c #4C3E33",
"k  c #45403C",
"l  c #49423D",
"z  c #584235",
"x  c #504438",
"c  c #5A4739",
"v  c #454445",
"b  c #4C4543",
"n  c #46454A",
"m  c #554C44",
"M  c #5C4942",
"N  c #55514C",
"B  c #5A514A",
"V  c #575352",
"C  c #5C5551",
"Z  c #5F5852",
"A  c #68514B",
"S  c #6F5E4E",
"D  c #63594D",
"F  c #735D4F",
"G  c #655B53",
"H  c #6B5C52",
"J  c #6D5B59",
"K  c #715F55",
"L  c #6F6154",
"P  c #6C635C",
"I  c #74675D",
"U  c #766A5D",
"Y  c #7C6A5D",
"T  c #786355",
"R  c #6E6A67",
"E  c #676464",
"W  c #716360",
"Q  c #766A61",
"!  c #7E6E61",
"~  c #7B7064",
"^  c #797069",
"/  c #6F6E73",
"(  c #6C7071",
")  c #7D7A79",
"_  c #737172",
"`  c #806E60",
"'  c #837265",
"]  c #8A7767",
"[  c #8E7966",
"{  c #81776D",
"}  c #8A7768",
"|  c #8D7B6B",
" . c #82786C",
".. c #937C69",
"X. c #97756C",
"o. c #8B7D73",
"O. c #857E77",
"+. c #937D70",
"@. c #848077",
"#. c #8D8077",
"$. c #84807F",
"%. c #8F857B",
"&. c #958273",
"*. c #9A8572",
"=. c #9F8A77",
"-. c #998779",
";. c #97897C",
":. c #9C8A7B",
">. c #A08D7B",
",. c #A88878",
"<. c #B2887C",
"1. c #A7917C",
"2. c #A9927D",
"3. c #7D7C81",
"4. c #848183",
"5. c #848388",
"6. c #948B83",
"7. c #9C8E81",
"8. c #928E8F",
"9. c #91908B",
"0. c #9E948A",
"q. c #918F92",
"w. c #9B9594",
"e. c #959396",
"r. c #A19385",
"t. c #A5998D",
"y. c #AA9C8F",
"u. c #B19788",
"i. c #B29C8D",
"p. c #A69C95",
"a. c #A69F99",
"s. c #AA9E92",
"d. c #AAA097",
"f. c #A5A19C",
"g. c #ACA39C",
"h. c #B2A293",
"j. c #B2A69A",
"k. c #B0A89D",
"l. c #BAAC9D",
"z. c #A0A0A2",
"x. c #AAA4A1",
"c. c #ADABA7",
"v. c #A8A3A9",
"b. c #AAAAAA",
"n. c #B3ACA4",
"m. c #BBAEA4",
"M. c #B4ACA9",
"N. c #B7B0AA",
"B. c #BEB6AD",
"V. c #ACABB0",
"C. c #BFB5B3",
"Z. c #BDBBB6",
"A. c #B5B6BB",
"S. c #C1B1A1",
"D. c #C4BBB3",
"F. c #C6BCBA",
"G. c #C7C0B6",
"H. c #C9C4BE",
"J. c #D2C9BD",
"K. c #D5C9BA",
"L. c #E8CEBF",
"P. c #E4CABB",
"I. c #C6C7C2",
"U. c #CDC9C2",
"Y. c #D4CDC5",
"T. c #D9CFC3",
"R. c #D4CFC9",
"E. c #CBD0C9",
"W. c #D4D1CC",
"Q. c #DBD3CB",
"!. c #D5CBD3",
"~. c #DAD7D2",
"^. c #DEDBD4",
"/. c #E4DBD2",
"(. c #E8DED2",
"). c #E5DFD9",
"_. c #DFE0DB",
"`. c #EDE1D5",
"'. c #E2E3DE",
"]. c #ECE4DB",
"[. c #EFE8DE",
"{. c #E4DFE3",
"}. c #ECE6E2",
"|. c #EEEAE4",
" X c #E6EAE9",
".X c #EDEFEC",
"XX c #E5E7E1",
"oX c #F3ECE2",
"OX c #FFF3E7",
"+X c #F5F4ED",
"@X c #F9F5EB",
"#X c #FFF8EE",
"$X c #EEECF1",
"%X c #FBFBF3",
"&X c #FDFFFB",
"*X c #FBF7F4",
/* pixels */
"q < 0 e 0 w 0 q l ^ 8 . $ % % X w s l , - , - > > ",
"{ m f m G P G Q ] Y j 1 9 0 0 r e w k h k l k k k ",
"Q.k.H L ' H I I I U G Z B N V N B m B B m m m B B ",
"%Xl.' >.i.h.-.Y T Y ' ' ! ' ` Y ! ' ' ' ' ! ! ~ ! ",
"t.:.=...,.2.*.*.j.j.Y c &.*.*.*.:.>.*.*.*.*.*.&.*.",
"OXl.&.*.1.2.=.*./.Y.Q H K | :.| ] | ......[ | } ' ",
"T.k.s.m.h.l.>.-.| i.L.P.u.F S ' d.t.;.&.r.o.o.g.B.",
"+XQ.@X#X].J.`.y.:.+.Y T M G @.Z.}.Y.n.D.}.N.f.*X&X",
"_.oX}. X@XJ.%XE.S.<.<.T D G x.).}.R.p.C.F.M.Z.|.*X",
"XX(.|. X@XT.+XXXoXi.X.z g o.m.G.W.~.a.M.M.x.$.c.}.",
"'.T.|..X[.T.oX+X&Xp.A H 1 a.B.B.U.H.w.w.w.8._ z.{.",
"~.`.].'.oXK.oXU.&Xf.q : ; b x.^.).W.f.e.w.q.3.V.$X",
"x.K.n.I.`.r.U.c.W.b W J h 8 v b.Z.f.E 4.e.5./ A.!.",
"O.7.~ 9.t.;.f.) V = e b a $ 2 2 n v = 5 p p y n v.",
"m -.%.f. .7.R 6 2 * = 6 & @ * 2 2 = $ X X . $   ( ",
"Z -.Q Z.0.x 6 2 u # t p 7 % 4 3 * = @ X . X .   4.",
";.r.d D.g.6 3 2 5 2 7 i 5 = 2 = @ % % X X X X . ) ",
"/.#.q 6.b = & 2 2 2 7 y 2 % = % @ $ % $ X X X . v ",
"6.r O + o 3 = * 2 = 5 i 2 % % $ X @ % = = = = = E "
};
