/* XPM */
static const char *micro_ewrandri[] = {
/* columns rows colors chars-per-pixel */
"25 19 178 2 ",
"   c #0E0F0A",
".  c #130F0B",
"X  c #13110F",
"o  c #1C1206",
"O  c #0E1213",
"+  c #151514",
"@  c #181617",
"#  c #1A1916",
"$  c #18161A",
"%  c #1C1C1C",
"&  c #201911",
"*  c #271F1C",
"=  c #1F211E",
"-  c #23211E",
";  c #1B1E21",
":  c #221E21",
">  c #1F2525",
",  c #232323",
"<  c #282725",
"1  c #232824",
"2  c #21212A",
"3  c #2A262B",
"4  c #25292B",
"5  c #2D2B2A",
"6  c #2D2A25",
"7  c #332B24",
"8  c #302E2F",
"9  c #363226",
"0  c #34312E",
"q  c #3C3429",
"w  c #332F30",
"e  c #353233",
"r  c #3E3A39",
"t  c #393938",
"y  c #4A3D2D",
"u  c #413A32",
"i  c #433F3A",
"p  c #3E403F",
"a  c #4C4234",
"s  c #44423D",
"d  c #4C453C",
"f  c #54473E",
"g  c #554E3E",
"h  c #584A3D",
"j  c #664E34",
"k  c #454643",
"l  c #4C4B47",
"z  c #4C4C49",
"x  c #544D44",
"c  c #5A4F44",
"v  c #524F4A",
"b  c #54524D",
"n  c #5D544A",
"m  c #504E51",
"M  c #555756",
"N  c #5D5752",
"B  c #5C5954",
"V  c #5C5F58",
"C  c #615547",
"Z  c #61564B",
"A  c #64594C",
"S  c #6B5B4F",
"D  c #745A4B",
"F  c #645C54",
"G  c #6A5F53",
"H  c #625E5C",
"J  c #6E6353",
"K  c #66615B",
"L  c #6C635A",
"P  c #726658",
"I  c #7C6D5D",
"U  c #736858",
"Y  c #5F6364",
"T  c #686360",
"R  c #666869",
"E  c #7C6F62",
"W  c #756E64",
"Q  c #7E7264",
"!  c #77746D",
"~  c #7D7569",
"^  c #6B6F70",
"/  c #7D7877",
"(  c #826F5E",
")  c #84715E",
"_  c #8E755F",
"`  c #846E60",
"'  c #837464",
"]  c #897662",
"[  c #8D7961",
"{  c #83776B",
"}  c #85796C",
"|  c #927766",
" . c #8E836F",
".. c #95826D",
"X. c #9B8267",
"o. c #84827C",
"O. c #8C877B",
"+. c #948471",
"@. c #9B8371",
"#. c #95897A",
"$. c #9B8D7C",
"%. c #A6917E",
"&. c #B59576",
"*. c #878B8C",
"=. c #8F8E8C",
"-. c #958C81",
";. c #9C9486",
":. c #96938E",
">. c #9A9389",
",. c #959190",
"<. c #9A9792",
"1. c #9A9893",
"2. c #A69B87",
"3. c #A5998B",
"4. c #B6A18E",
"5. c #ABA39A",
"6. c #B0A997",
"7. c #B0A99F",
"8. c #B9A99A",
"9. c #B4A495",
"0. c #B9B19A",
"q. c #9FA3A4",
"w. c #ADA8A2",
"e. c #AEADAA",
"r. c #A5A4A3",
"t. c #B7AFA4",
"y. c #B8AFA0",
"u. c #BBB1A1",
"i. c #B7B1AA",
"p. c #BDB4AC",
"a. c #B4B3B2",
"s. c #B6B9B2",
"d. c #BFBBB0",
"f. c #BFBDBE",
"g. c #C1B29F",
"h. c #C0B0A0",
"j. c #C4BBAC",
"k. c #C2BEB4",
"l. c #C2BDB9",
"z. c #D2C3AE",
"x. c #CDC1B2",
"c. c #C6C2BC",
"v. c #CCC4BC",
"b. c #D3C7B9",
"n. c #CDCAC6",
"m. c #D1CCC8",
"M. c #D3D0C7",
"N. c #D5D1CC",
"B. c #DDD5CB",
"V. c #DAD5D3",
"C. c #D6D6D8",
"Z. c #D9D7D8",
"A. c #DCDBD9",
"S. c #E5DDD2",
"D. c #DCE0DF",
"F. c #E8E2D6",
"G. c #E7E4DD",
"H. c #ECE5DC",
"J. c #ECE8DF",
"K. c #F0E4D4",
"L. c #E8E5E0",
"P. c #ECEAE4",
"I. c #EBEBE9",
"U. c #F2ECE3",
"Y. c #F0EFEA",
"T. c #F8EFE8",
"R. c #FCF4E5",
"E. c #F5F4EE",
"W. c #F6F5F1",
"Q. c #F3F9F7",
"!. c #FEFCF4",
"~. c #F7FCFF",
"^. c #FDFDFA",
"/. c #FAFFFF",
"(. c #FFFFFD",
"). c #FDFEFF",
"_. c #FDFCFC",
"`. c #FDF3F1",
/* pixels */
"u d a f n F n f s s s s k k k z l v b v z l v b N ",
">.O.Z P L F L Z h c B b z b n x x K F v v v x F N ",
"-.3.8.} G n n Z F n Z S A Z Z Z A A G n Z F n Z Z ",
"J ) ) ' I } { I W ~ J G U ' Q Q Q ' I ' I I ] Q I ",
"] +...] ' x.R.9.) G 0 > e K ' ) Q ' I I ' I I I E ",
"{ +...I ' Q #.#.S 7 % < , 6 F } ~ Q Q I P E } Q P ",
"H.b.Q ;.t.7.-.d k & P 4.( o o./.M.J.B.S.p.i.!.L.0.",
"^.G.5.!.P.n.c.i o.x ] X._ y e./.A.E.!.!.N.n.^.).R.",
").B.u.^./.P.5.a ;.%.&.&.X. .T._.c.U.T.U.B.N.^.^.R.",
").B.y.^.~.).d.9 O.K.@.| ' v.!.^.c.U.H.U.v.w.W.^.R.",
").U.u.!./.^.E.d s.S.` D S B.!.Q.k.H.F.S.i.<.Y.E.G.",
").B.6.!.E.^.W.B m n @.j [ C :.).k.U.S.B.i.<.I.I.N.",
"!.x.g 2.S.E.=.r 3 7 I I ' q - R o.V.n.c.r.,.Z.C.n.",
"z.j.J $.x.l.5 , 4 , , e : , 4 1 < r e r e w / A.a.",
"g.;.U ] $.i ; 1 4 , % ; 2 2 , 1 < % 5 8 e 5 H V.a.",
"z.x g h.c : ; 1 3 X V l + , % + % - % @ % . K m.e.",
"p.7 v H e , % , = < D.q.O , ; $ % % @ % +   T `.f.",
"n 7 . X 0 , + % % p r.*.t % % % + % + + @ X s 5.1.",
"* 0 % 1 5 + % % % M R ^ Y > % $ + , % % % @ t / ! "
};
