/* XPM */
static const char *micro_evella[] = {
/* columns rows colors chars-per-pixel */
"25 19 214 2 ",
"   c #00000B",
".  c #100108",
"X  c #080917",
"o  c #11141D",
"O  c #2E201F",
"+  c #030B24",
"@  c #050B2E",
"#  c #0A1629",
"$  c #121123",
"%  c #0E1933",
"&  c #0D1730",
"*  c #121C35",
"=  c #141D39",
"-  c #1E1F31",
";  c #231B25",
":  c #15223A",
">  c #18243E",
",  c #152437",
"<  c #32342F",
"1  c #401E1C",
"2  c #44312B",
"3  c #433C38",
"4  c #573A32",
"5  c #3D433F",
"6  c #545F27",
"7  c #49463B",
"8  c #534838",
"9  c #59533B",
"0  c #664A3E",
"q  c #4E633A",
"w  c #5B613B",
"e  c #11244A",
"r  c #1B2644",
"t  c #1E2A50",
"y  c #1F3157",
"u  c #262849",
"i  c #333A56",
"p  c #474949",
"a  c #43574E",
"s  c #57524D",
"d  c #534D51",
"f  c #5D5C57",
"g  c #59595B",
"h  c #48565F",
"j  c #68574B",
"k  c #635C54",
"l  c #685B5D",
"z  c #745B52",
"x  c #5F6156",
"c  c #6D6D4B",
"v  c #766048",
"b  c #646459",
"n  c #6B6359",
"m  c #6A6457",
"M  c #756758",
"N  c #63705F",
"B  c #7E7359",
"V  c #4A5469",
"C  c #5D597A",
"Z  c #5D6262",
"A  c #59666E",
"S  c #596575",
"D  c #666A63",
"F  c #6E6965",
"G  c #676967",
"H  c #716E69",
"J  c #657162",
"K  c #7E776C",
"L  c #6C6D76",
"P  c #6E7272",
"I  c #6B777D",
"U  c #667679",
"Y  c #7C7C73",
"T  c #757977",
"R  c #865D4B",
"E  c #A75B44",
"W  c #85604D",
"Q  c #866A5A",
"!  c #85785C",
"~  c #97675B",
"^  c #A37456",
"/  c #8C6A60",
"(  c #996F61",
")  c #857869",
"_  c #9D7762",
"`  c #9E7964",
"'  c #9A7C6A",
"]  c #837771",
"[  c #987C70",
"{  c #A37D70",
"}  c #A2786C",
"|  c #7F817B",
" . c #778477",
".. c #898668",
"X. c #888676",
"o. c #9A9278",
"O. c #A9836A",
"+. c #A09A6A",
"@. c #A48774",
"#. c #A88879",
"$. c #B48A79",
"%. c #A5977C",
"&. c #B3907D",
"*. c #B78666",
"=. c #CBAD7B",
"-. c #416E83",
";. c #5E7C87",
":. c #5D7291",
">. c #398BB0",
",. c #788283",
"<. c #79949D",
"1. c #6C88A0",
"2. c #74AEB0",
"3. c #419AC4",
"4. c #4CA1C0",
"5. c #61B1D2",
"6. c #68BCE8",
"7. c #5DC6F5",
"8. c #838484",
"9. c #85878B",
"0. c #978E88",
"q. c #9A9587",
"w. c #8E8E93",
"e. c #8B9998",
"r. c #959798",
"t. c #989797",
"y. c #8D9389",
"u. c #B78D81",
"i. c #A79483",
"p. c #A18D96",
"a. c #A99C96",
"s. c #86A09F",
"d. c #9BA39C",
"f. c #ACA086",
"g. c #ACA88D",
"h. c #BAB08C",
"j. c #AAA39C",
"k. c #A5A89F",
"l. c #BAA699",
"z. c #B2A489",
"x. c #899AA3",
"c. c #9E9FA1",
"v. c #999BB0",
"b. c #AC9FA9",
"n. c #9EA3A3",
"m. c #99A7A6",
"M. c #99B0B6",
"N. c #A3A3A9",
"B. c #A7A9A8",
"V. c #B8AEAF",
"C. c #BAAAA5",
"Z. c #B0B2A7",
"A. c #A1AAB4",
"S. c #ABACB2",
"D. c #A4A7B0",
"F. c #ABB1B6",
"G. c #B8B8B5",
"H. c #A9B6AD",
"J. c #C7A290",
"K. c #C5BC9E",
"L. c #D0B19D",
"P. c #DAA196",
"I. c #C6B7A9",
"U. c #C3BAB9",
"Y. c #D5B8A8",
"T. c #E5BBA2",
"R. c #AEC3BA",
"E. c #B9C0B9",
"W. c #C7C2AE",
"Q. c #D0D0AE",
"!. c #D4CABB",
"~. c #DED3BF",
"^. c #CBC9B4",
"/. c #F1D1BA",
"(. c #B5BAC2",
"). c #ADB7C3",
"_. c #B9C1C4",
"`. c #BEC3C9",
"'. c #ADC2D3",
"]. c #BDCCD3",
"[. c #A6C4C6",
"{. c #C7C8C9",
"}. c #C3CDD3",
"|. c #CECED4",
" X c #C1CFD8",
".X c #C6D3D5",
"XX c #CBD5D4",
"oX c #C4D6DA",
"OX c #CBD3DD",
"+X c #CCDBDD",
"@X c #D2D3C9",
"#X c #E6D9D1",
"$X c #E5E0CC",
"%X c #EBEBDC",
"&X c #F4EFD9",
"*X c #F8F1DF",
"=X c #F3EACB",
"-X c #CDDCE6",
";X c #CCD8E7",
":X c #D2DDE4",
">X c #DADFEB",
",X c #D5DCE9",
"<X c #D4DCF3",
"1X c #D3E1E7",
"2X c #D5E2EB",
"3X c #DCE7ED",
"4X c #DAE5E9",
"5X c #CAE0F7",
"6X c #DBE5F2",
"7X c #D8E9F7",
"8X c #E7E4E5",
"9X c #F7FBE7",
"0X c #FFF8FC",
"qX c #E2ECF6",
/* pixels */
"@XXX_.).S.S.N.d.e.w.8.Y T ,.T L I ,.t.r.r.S.G.E.}.",
"%X%X}. X.XoXOX.X.X4X}.].].].].}. XOXOX2X,X,X6X6X6X",
"&X9XXX].+X].-XoX-XXX2X7X3XqX7X+X-X-X1X:X1X2X;X1X:X",
"I.^.{.`._..X].+X>X+X(.p p L (.3X<X;X;X2X3X:X1X:X,X",
"8 8 Y 8.H D 8.B.w.m.k Q M 2 O e.S.D.(.D.9.r.G.N.T ",
"M M n k m K l F ] s Q T.L.Y./ < ) K Y x n n s 3 7 ",
"I.K.~.q.f.!.t.Y C.i.Q _ @.@.[ z l.a.Y r.t.] 0.0.3 ",
"f.h.%.M ! ) 8.F.*X&./ 4 ( 0 j u.#X8Xn.n.j...%.Q.K.",
"v 8 w g.! c k.{.9XJ.^ *.P.u.O.$.0X9XR.S.! q 6 B ..",
"j k B X.) [ B.U.G.I.&.O.~ { @.l.W.!.G.V.i.k 9 X.g.",
"7 f b k n M a.!.w.d j ` R W %.K 0.C.v.P k F F X.q.",
"f l p n ) i./.=XN.L ] ` _ _ #.G o.@X5XA.I Z p b P ",
"D Z b ) X.0.z.$X|.OXg z 0 z l V 8.U.'.c.t.| g p G ",
" . . .i.P U G.A.S i # X ; ; - e e i :.x.J D 9.I Y ",
"G n.N } p.<.b.@ + @ = & + # * t > : e x.| h A m.y.",
"e.s.T #.j.[.5 + r u : & = * , u u r + X.=.J a d.e.",
"{.OX}.{.8X{.$ $ r > % * % % * V C # X g +.5.;.X.M.",
"Z.{.XX(.|.V.X X % % % * * * % r y + . U 2.7.6.-.<.",
"q.B.H.w.r.t.  o > % * & # = : = = 1 E 0.>.4.3.1.#."
};
