/* XPM */
static const char *micro_vcamille[] = {
/* columns rows colors chars-per-pixel */
"25 19 206 2 ",
"   c #1A0100",
".  c #2D0802",
"X  c #211009",
"o  c #261E11",
"O  c #30291F",
"+  c #2E1D23",
"@  c #2A2321",
"#  c #392922",
"$  c #352D20",
"%  c #4D1F0F",
"&  c #6F3317",
"*  c #723313",
"=  c #412C29",
"-  c #45332A",
";  c #583C35",
":  c #523628",
">  c #5B452E",
",  c #49443E",
"<  c #5D493B",
"1  c #5C4734",
"2  c #65473A",
"3  c #7D4627",
"4  c #4D4C4A",
"5  c #5C544B",
"6  c #52534E",
"7  c #545453",
"8  c #5A5753",
"9  c #555B5B",
"0  c #5A5C5C",
"q  c #595954",
"w  c #4F5151",
"e  c #604F48",
"r  c #68564B",
"t  c #76584B",
"y  c #725F51",
"u  c #6B5C55",
"i  c #5B605A",
"p  c #65615E",
"a  c #726259",
"s  c #7F6B5E",
"d  c #746455",
"f  c #5B5E61",
"g  c #5E6264",
"h  c #5B6768",
"j  c #626362",
"k  c #666B6E",
"l  c #696B6C",
"z  c #61666A",
"x  c #726F6A",
"c  c #6C7560",
"v  c #78716B",
"b  c #626F77",
"n  c #6A7278",
"m  c #757E7D",
"M  c #93452F",
"N  c #854A35",
"B  c #965036",
"V  c #844B2D",
"C  c #BC6132",
"Z  c #8D5B42",
"A  c #9B674E",
"S  c #97704F",
"D  c #8A6A51",
"F  c #91665D",
"G  c #8B705F",
"H  c #AE7359",
"J  c #B0745A",
"K  c #AC654E",
"L  c #816E66",
"P  c #866F69",
"I  c #8B7464",
"U  c #8A746B",
"Y  c #877567",
"T  c #927666",
"R  c #957B6B",
"E  c #9A7C6D",
"W  c #98786A",
"Q  c #8C7B77",
"!  c #927D74",
"~  c #CB674F",
"^  c #DB7C44",
"/  c #9D816F",
"(  c #978376",
")  c #9D8372",
"_  c #9B8778",
"`  c #A0846F",
"'  c #A18574",
"]  c #A98675",
"[  c #A38B7A",
"{  c #AA8C7C",
"}  c #A6877A",
"|  c #BD8D7C",
" . c #B5877A",
".. c #AB927D",
"X. c #BF9370",
"o. c #C2875B",
"O. c #DE946F",
"+. c #C68879",
"@. c #E8A974",
"#. c #666E81",
"$. c #7C8386",
"%. c #838689",
"&. c #998D85",
"*. c #94928E",
"=. c #969189",
"-. c #848B91",
";. c #849297",
":. c #9C9D9A",
">. c #929494",
",. c #A68C80",
"<. c #B48C80",
"1. c #A69382",
"2. c #AC9383",
"3. c #AA978B",
"4. c #AC998B",
"5. c #A89C82",
"6. c #B39583",
"7. c #B49886",
"8. c #BA9B84",
"9. c #B49B8D",
"0. c #B99B8B",
"q. c #AB9B94",
"w. c #A59995",
"e. c #BB9F93",
"r. c #9CA29E",
"t. c #ADA08F",
"y. c #BAA28B",
"u. c #A4A19C",
"i. c #BBA293",
"p. c #BDA99D",
"a. c #B6A79D",
"s. c #8799A3",
"d. c #9EA3A6",
"f. c #A1A5A4",
"g. c #ACAAA6",
"h. c #A5ABAB",
"j. c #B9A9A6",
"k. c #BFB6A7",
"l. c #BBB2AD",
"z. c #A8AFB3",
"x. c #A5B1B5",
"c. c #ACB7BB",
"v. c #B6B9B8",
"b. c #C39B8A",
"n. c #C29F96",
"m. c #D39892",
"M. c #C3A695",
"N. c #C5AC9C",
"B. c #CBAC9B",
"V. c #CCA596",
"C. c #D4AF9D",
"Z. c #F6B28F",
"A. c #E2AD9F",
"S. c #F5AB86",
"D. c #C3ABA2",
"F. c #CAAEA0",
"G. c #D4A9A0",
"H. c #CAB1A3",
"J. c #C5B3AB",
"K. c #CBB8AC",
"L. c #D6B5A9",
"P. c #CDBFB3",
"I. c #C2B9B4",
"U. c #F2AFA6",
"Y. c #FEBCA3",
"T. c #F0BAA0",
"R. c #CCC2B2",
"E. c #D1C7BE",
"W. c #E6CABE",
"Q. c #F3C8B6",
"!. c #F0D4BF",
"~. c #A9BBC5",
"^. c #C1BFC4",
"/. c #B7C5CD",
"(. c #BAC3CB",
"). c #B3C6C4",
"_. c #BEC7D0",
"`. c #C5CCCE",
"'. c #C5C7C5",
"]. c #DECEC3",
"[. c #D9D0C7",
"{. c #C3CBD2",
"}. c #CAD1D4",
"|. c #D3D7D8",
" X c #FFDACB",
".X c #FFD1CB",
"XX c #E0E1DC",
"oX c #FFEEDD",
"OX c #C9D8E3",
"+X c #D3DDE6",
"@X c #DBE2E5",
"#X c #E4E7E5",
"$X c #E8E8E6",
"%X c #FFECE6",
"&X c #FFEAE9",
"*X c #F5EFEF",
"=X c #EEF5ED",
"-X c #F2F3EF",
";X c #F5F7EE",
":X c #E8EDF0",
">X c #EEF3F4",
",X c #FEF1F5",
"<X c #F6FBF7",
"1X c #F5FCFD",
"2X c #FCFDFD",
"3X c #F7F7F3",
/* pixels */
"0.i.9.2./ G y - # u J.J.D.3.r - ; ; = # $ O @ + o ",
"R ) [ 6.7.2.( a < T 8.8.{ 4.,.R ! U P U s d L r e ",
"R T I I T T s a v 1.6.t X Q %XB.R.K.q.( _ ) _ I U ",
") E ) ) ' / I ( *X].2 t -   : ] 1.4.2.' { ....[ { ",
"/ R ) E ` ) R 3.oX< W. XT.A * 3 |  .] 6.{ } [ L U ",
"' / ' ) ] ) I ! t U &X XY.S.Z.V D y.t.k.P.E.|.r.h ",
"6.{ } ' { { _ 1.r ! j.W | V A Z 1 R.;X=X2X<X1X).-.",
"0.0.0.7.7.6.1.3.E <.Q. .+.N J H t j.2X$X*X,X2X^.m ",
"u.i.b.0.i.8.2.q.B.L..XU.Y.C ^ O.( E.2X1X2X2X2Xv.l ",
"f.p.M.e.i.y.7.w.n.G.A.F ; % B +.a.l.2X2X2X1X2X}.-.",
"x.l.D.D.N.M.i.q.B.U ,. .m.M * 9.g.*.>Xv.'.-X2X{.$.",
"~.v.l.H.F.M.i.a.n.=.&. XK ~ & '.f.>.1Xf.g.XX2Xx.n ",
"/.(.I.N.B.N.p.a.D.].1.r = . 2 2Xv.h.1X@X=X#X2Xc.$.",
"(.}.'.N.C.L.J.a.5.P.%X&.@ > X.Q.*.:.<X}.|.#X1Xc.n ",
"(.OX'.H.L.J.w.=.c v.,X&XV.o.@.S r *.<Xz.d.:X1Xx.h ",
"{.OX`.K.L.w.l i #.n k.!.b.J A e < 5 :.`.@X>X1Xx.n ",
"_.|.|.v.>.j 0 k k 9 g l g 7 4 6 q 5 , l g.[.-X~.b ",
"(.@X'.%.k j g g z 9 9 0 0 9 0 0 8 q x f 4 w.-Xs.;.",
"/.+Xz.k g f f 9 g 9 7 9 0 j j 7 7 5 8 0 p 5 j w ;."
};
