/* XPM */
static const char *micro_tbrunier[] = {
/* columns rows colors chars-per-pixel */
"25 19 209 2 ",
"   c #000909",
".  c #0B1D1D",
"X  c #21261F",
"o  c #181C24",
"O  c #0E1A26",
"+  c #17232F",
"@  c #1A2531",
"#  c #1C2B34",
"$  c #23212E",
"%  c #382C2B",
"&  c #3D3029",
"*  c #242C36",
"=  c #262E3B",
"-  c #2E2C39",
";  c #2B333C",
":  c #31303E",
">  c #41322F",
",  c #4D3D33",
"<  c #494F2D",
"1  c #4F4C39",
"2  c #55473C",
"3  c #684F3B",
"4  c #64583E",
"5  c #2E3543",
"6  c #2F3842",
"7  c #2D3949",
"8  c #263242",
"9  c #323942",
"0  c #353D49",
"q  c #3D3A45",
"w  c #403F45",
"e  c #39494E",
"r  c #364759",
"t  c #494845",
"y  c #534C42",
"u  c #504742",
"i  c #57534E",
"p  c #5A5449",
"a  c #404A53",
"s  c #4F5A5E",
"d  c #5C5B5B",
"f  c #575A56",
"g  c #4C534B",
"h  c #7F4A46",
"j  c #6B5A4A",
"k  c #625649",
"l  c #645C51",
"z  c #6D5F55",
"x  c #625D5A",
"c  c #6B5D5A",
"v  c #765B48",
"b  c #6A6647",
"n  c #796E4E",
"m  c #646454",
"M  c #61625E",
"N  c #68685B",
"B  c #796255",
"V  c #746C57",
"C  c #4E5462",
"Z  c #565963",
"A  c #445C74",
"S  c #615964",
"D  c #5B6266",
"F  c #5F6E71",
"G  c #4D6378",
"H  c #6C6A63",
"J  c #646C6B",
"K  c #6D6C6A",
"L  c #676761",
"P  c #766E65",
"I  c #6D726D",
"U  c #727165",
"Y  c #7B736B",
"T  c #797668",
"R  c #6C7772",
"E  c #687B76",
"W  c #777472",
"Q  c #797A77",
"!  c #656D7A",
"~  c #8F5E4E",
"^  c #826958",
"/  c #877058",
"(  c #92755A",
")  c #A67C5D",
"_  c #886C65",
"`  c #867869",
"'  c #9A7B65",
"]  c #857C74",
"[  c #A57A67",
"{  c #7A827D",
"}  c #8B8168",
"|  c #95896A",
" . c #82847C",
".. c #8B857A",
"X. c #8A8479",
"o. c #918372",
"O. c #96897A",
"+. c #8F9571",
"@. c #95927A",
"#. c #989A69",
"$. c #A4836A",
"%. c #AB8A76",
"&. c #A68978",
"*. c #B98E7B",
"=. c #B8957E",
"-. c #B89878",
";. c #4E7187",
":. c #647B81",
">. c #7A7E85",
",. c #8A7983",
"<. c #7F8A82",
"1. c #798187",
"2. c #7D8E9E",
"3. c #769794",
"4. c #73908F",
"5. c #5293B0",
"6. c #6997A8",
"7. c #7B96A9",
"8. c #4DB2D0",
"9. c #57A6C4",
"0. c #6BBFEB",
"q. c #5CC4EB",
"w. c #8D8D8A",
"e. c #888A86",
"r. c #958D87",
"t. c #8C928C",
"y. c #999386",
"u. c #8C9393",
"i. c #8C959C",
"p. c #899B9D",
"a. c #969C9C",
"s. c #99999A",
"d. c #949895",
"f. c #A59886",
"g. c #B09287",
"h. c #A59E94",
"j. c #A59E95",
"k. c #99A798",
"l. c #BFA58C",
"z. c #A9A59B",
"x. c #BCAB93",
"c. c #AFAF93",
"v. c #9CA1A1",
"b. c #8FA4B9",
"n. c #9AA4B4",
"m. c #9DB0B4",
"M. c #A3A4A1",
"N. c #A5AAAC",
"B. c #A9A4A8",
"V. c #B9B1A3",
"C. c #AEACB2",
"Z. c #A3AAB8",
"A. c #AEB2B5",
"S. c #A9B1B9",
"D. c #B3B6BC",
"F. c #B8B9B6",
"G. c #C6A98B",
"H. c #D9AD8E",
"J. c #CCBB9F",
"K. c #C6BCB7",
"L. c #D2BFB8",
"P. c #C8BBAA",
"I. c #BDC7BE",
"U. c #C7C0AD",
"Y. c #CFCAB7",
"T. c #D3CAB7",
"R. c #E4D0B8",
"E. c #E3CDB6",
"W. c #92B3C2",
"Q. c #BABAC4",
"!. c #BBBECD",
"~. c #C1BFC9",
"^. c #BDC3CE",
"/. c #BEC2C4",
"(. c #BDCAD3",
"). c #BDC9D6",
"_. c #BDD2EF",
"`. c #C2CACD",
"'. c #CAC9CB",
"]. c #D3CBC5",
"[. c #D6D4C6",
"{. c #C4C5D1",
"}. c #C4CBD4",
"|. c #CACED7",
" X c #C2CCDC",
".X c #C4D1D4",
"XX c #C6D1DB",
"oX c #CBD6D8",
"OX c #D1D4DC",
"+X c #D3DBDE",
"@X c #F8DFC0",
"#X c #F0DCD5",
"$X c #EDD8C5",
"%X c #D5E0D8",
"&X c #E5E0CD",
"*X c #E7EADF",
"=X c #F9F3DD",
"-X c #CBDAE6",
";X c #CCD6E4",
":X c #D1DBE5",
">X c #D3DBE8",
",X c #D8DDE0",
"<X c #D3DBF2",
"1X c #D9E3EA",
"2X c #D8E1E8",
"3X c #FEFEE5",
"4X c #FFF9E9",
"5X c #FCFAF9",
"6X c #EBF1E9",
/* pixels */
"I.S.n.i. .r.j.] I H Y I { J D d L ..X.Q t.z.d.S.S.",
"oX-X X`.`./.F.[.&XU.T.[.F.a.v.N.Z.~.{.!.}.'.,X>X1X",
"XX).(..X). X(.%X3X=X=X4X6X2X:X>X1X+XOX2X>X+X2X-X;X",
"|.}.}..XXX X^.oX6X*Xz...w.A.2X-XoX>X:X>X:X>X;X<X:X",
"i s.C.e.w.B.D.N./.e.% & , u s.`.^.(.^.D.A.Q.'.M.s.",
"k 2 y l p i K L d & , ^ ' / j ] P { R L N U U y i ",
"o.V.o.} f.r.M r.r.2 ^ %.=.$.B ] O.Q I  .Y Y W u p ",
"P.T.} | h.B.] Y.P.` j v ' 3 O.].T.M.u.V.@.O.[.c.O.",
"m b / n < Q B.3X#X) ) %.g.' &.5X5XOX2. .b b | #.f.",
"j 4 f.o.o.M.Q.].E.G.) ~ h ( x.R.J.].D.h.V 1 b +.` ",
"k V f c z T s.B.,.K ( [ [ | y._ _ n.>.V m m U M...",
"H g m H P G.@XC.S t $._ B -.h.> Y _.Z.K s d x Q M ",
"M t L ] f.l.$XK.H o.H.$._ G.z.m x.).D.w.1.d t M K ",
"I N w.T T u.n.a.C Z =.-.-.&.Z ! w.b.p.t.R u.J I  .",
"d.<.O.y.E 6.A e r 7 t z l w r r e G 7.1.s Z <.k.{ ",
"a.J ~ *.4.r % 8 6 9 9 6 5 6 q q q - F V.+.e Q m.E ",
"e.1.s.Q.>.. @ * 5 5 9 0 9 9 0 0 0 X d H.@.5.H N.3.",
"a.{.~.OXD   + * = = ; 6 ; ; 9 9 : $ 7 <.3.0.6.:.W.",
"v.|.C.{.a   O o @ # * ; = ; 9 ; - o # 5.9.q.8.;.p."
};
