/* XPM */
static const char *micro_iboukart[] = {
/* columns rows colors chars-per-pixel */
"25 19 184 2 ",
"   c #060302",
".  c #0B0301",
"X  c #0E0A05",
"o  c #0C0B0A",
"O  c #07050A",
"+  c #130B05",
"@  c #120E0C",
"#  c #15110E",
"$  c #1D120B",
"%  c #1C150A",
"&  c #110E15",
"*  c #151512",
"=  c #1A1611",
"-  c #1D1812",
";  c #17181A",
":  c #2A0F04",
">  c #2C190D",
",  c #261207",
"<  c #301600",
"1  c #341D0D",
"2  c #281D16",
"3  c #341C11",
"4  c #37210C",
"5  c #28201E",
"6  c #25221B",
"7  c #302618",
"8  c #3C2618",
"9  c #302B27",
"0  c #322F28",
"q  c #31342D",
"w  c #3E3B35",
"e  c #2C2829",
"r  c #442518",
"t  c #45351C",
"y  c #5A3116",
"u  c #56311F",
"i  c #693C1C",
"p  c #402E22",
"a  c #463120",
"s  c #4B3120",
"d  c #553D23",
"f  c #433F36",
"g  c #583D33",
"h  c #653E26",
"j  c #79431D",
"k  c #454138",
"l  c #594435",
"z  c #5B4939",
"x  c #6C4728",
"c  c #774628",
"v  c #7D4B29",
"b  c #6D4B3F",
"n  c #704735",
"m  c #714C39",
"M  c #794F3F",
"N  c #7A553A",
"B  c #7D5B3E",
"V  c #494440",
"C  c #574D44",
"Z  c #5C544C",
"A  c #595344",
"S  c #4F4D50",
"D  c #5F5852",
"F  c #5B5754",
"G  c #61594E",
"H  c #705947",
"J  c #785D48",
"K  c #635C5A",
"L  c #705F55",
"P  c #5E605F",
"I  c #656155",
"U  c #65615D",
"Y  c #6D665D",
"T  c #736C5D",
"R  c #7B6B5B",
"E  c #6E6A61",
"W  c #736B64",
"Q  c #786F68",
"!  c #7A6E62",
"~  c #747067",
"^  c #7A7165",
"/  c #75726C",
"(  c #7C756C",
")  c #7F786E",
"_  c #7E7A71",
"`  c #864B29",
"'  c #835946",
"]  c #996A4E",
"[  c #8A6052",
"{  c #AC7D5E",
"}  c #A17654",
"|  c #856F62",
" . c #83776B",
".. c #827A6E",
"X. c #907562",
"o. c #837B71",
"O. c #887F7A",
"+. c #8C7E71",
"@. c #AB7764",
"#. c #898275",
"$. c #878078",
"%. c #8D857A",
"&. c #8F8878",
"*. c #918474",
"=. c #91877C",
"-. c #93897C",
";. c #AC8161",
":. c #B08069",
">. c #B18A63",
",. c #AA8977",
"<. c #B7917A",
"1. c #8E8881",
"2. c #8B8680",
"3. c #948D83",
"4. c #9C8F82",
"5. c #948F89",
"6. c #998F89",
"7. c #93928B",
"8. c #9C948B",
"9. c #9C988F",
"0. c #939184",
"q. c #9B9794",
"w. c #9B9A93",
"e. c #9D9D9B",
"r. c #A1958C",
"t. c #A19A8A",
"y. c #B59481",
"u. c #A39B92",
"i. c #AA9E93",
"p. c #A39E99",
"a. c #AC9A98",
"s. c #B09E90",
"d. c #A7A08D",
"f. c #B1A08E",
"g. c #ACA399",
"h. c #A7A299",
"j. c #B4A898",
"k. c #A6A7A1",
"l. c #ADADA8",
"z. c #B2B0A4",
"x. c #BAB2A6",
"c. c #B7B7AD",
"v. c #BEBAAD",
"b. c #BDB4AA",
"n. c #BEBCB7",
"m. c #B9B9B7",
"M. c #D89F8C",
"N. c #DBA082",
"B. c #C4A39A",
"V. c #C5BEAE",
"C. c #BFC0BA",
"Z. c #C1C1BA",
"A. c #CBCABD",
"S. c #C2C3C1",
"D. c #C8C9C4",
"F. c #CEC9C6",
"G. c #D0CFCD",
"H. c #CFD1CE",
"J. c #D8D3CB",
"K. c #C8CDD1",
"L. c #D6D6D1",
"P. c #DBDBD6",
"I. c #E1D8D3",
"U. c #DEE2D3",
"Y. c #E4E2DD",
"T. c #EBEAD6",
"R. c #DBE6EC",
"E. c #E1E2E1",
"W. c #E9E9E7",
"Q. c #EAEBE9",
"!. c #E5E9EC",
"~. c #F0EDE8",
"^. c #EFF1EE",
"/. c #FFF5E5",
"(. c #F4F3ED",
"). c #E6EDF3",
"_. c #ECF2F3",
"`. c #E9F3F6",
"'. c #F4F4F3",
"]. c #FAFAF7",
"[. c #F9F7F8",
"{. c #F5FBFD",
"}. c #FDFEFD",
"|. c #FFF3F1",
/* pixels */
"3.=.#...^ I k w 0.p.u.s.L D I A C E W W T T G Z Y ",
"W W ^ ..( W K U W O.u.h.T.d.-.a.t.g.g.b.V.V.x.u.A.",
"W W Y Y W W U q.F./.j.=.r.| H R *.+.! ^ ^ ^ Y W R ",
"/ / Q W W W 1.}.U.E e &   . %   z  . ...o.%.) _ 5.",
") W ^ ( ^ ~ / 5.z . O . + + + $ 7  .b.J.Y.(.Y.w.`.",
"..o.) ..^ ) _ f . ;   % > @ O @ . ( }.}.}.}.Q.k.}.",
"%.%.o.#.#.o.1.Z - + g ,.;.B a $ X 6 L.}.}.}.(.l.}.",
"3.%.=.%.%.$.5.W . p ,.m ] v h 4   w P.}.}.}.].c.}.",
"n.7.-.*.-.1.5.W r | { i { i t d 7 n.}.}.}.}.}.C.}.",
"^.h.3.4.=.3.8.2.[ :.N.@.M.` v c &.}.}.}.}.}.}.n.].",
").H.6.4.8.5.3.7.R B <.m M y v N v.}.}.}.}.}.}.Z.[.",
"`._.p.8.r.8.9.w.3.z l ' n 8 < f.J.}.}.}.}.}.}.Z.[.",
"{.{.c.6.r.r.8.7.g.X.r ' h 3 l (.z.}.[.}.}.}.}.Z.W.",
"{.}.S.9.u.8.p.e.u.y.u : > , i.{.v.}.}.}.}.}.}.D.Q.",
"[.}.G.9.i.g.w.S K B.@.g 3 b |.}.A.'.}.].}.}.}.D.^.",
"[.}.P.9.%.C 5 O q i.} >.x N I.}.z.}.}.}.}.}.}.L.Q.",
"{.].q.9 * o # # * V s j x J A E.x.~.}.}.].}.}.}.{.",
"}.S.@ # - * @ # # X > y 1 8 - 0 ) ~.}.'.D.l.E.K.).",
"{.P # 2 = o # # - * # > + . - + + / }.G.F / !.R.R."
};
