/* XPM */
static const char *micro_evbrehau[] = {
/* columns rows colors chars-per-pixel */
"25 19 196 2 ",
"   c #030402",
".  c #0D0301",
"X  c #160900",
"o  c #140808",
"O  c #160903",
"+  c #1C1406",
"@  c #161817",
"#  c #230901",
"$  c #221306",
"%  c #23140B",
"&  c #2D150B",
"*  c #331304",
"=  c #3A1404",
"-  c #3C1A05",
";  c #311C0C",
":  c #37180C",
">  c #210E12",
",  c #2A1E14",
"<  c #341B14",
"1  c #391B11",
"2  c #3E240D",
"3  c #2B201A",
"4  c #352213",
"5  c #382016",
"6  c #3B241A",
"7  c #34231B",
"8  c #2A282D",
"9  c #3D342B",
"0  c #2F3130",
"q  c #411A09",
"w  c #4D260D",
"e  c #482B0D",
"r  c #51230C",
"t  c #542D0E",
"y  c #4A2512",
"u  c #4D2A12",
"i  c #47231C",
"p  c #592C16",
"a  c #5C3015",
"s  c #5A321C",
"d  c #54321A",
"f  c #602819",
"g  c #643511",
"h  c #693817",
"j  c #683719",
"k  c #6A3C1A",
"l  c #432C23",
"z  c #482D22",
"x  c #542922",
"c  c #423221",
"v  c #413029",
"b  c #4B3828",
"n  c #533424",
"m  c #5D3A24",
"M  c #583829",
"N  c #4B3A33",
"B  c #5E3933",
"V  c #653C24",
"C  c #623D2A",
"Z  c #5B402D",
"A  c #6D4427",
"S  c #62412D",
"D  c #68472E",
"F  c #774721",
"G  c #784729",
"H  c #774826",
"J  c #674836",
"K  c #744D36",
"L  c #564D44",
"P  c #6F5240",
"I  c #755642",
"U  c #7A5648",
"Y  c #615A52",
"T  c #7C6146",
"R  c #69625A",
"E  c #7B6255",
"W  c #736157",
"Q  c #656460",
"!  c #7F6C65",
"~  c #6E6F74",
"^  c #6F797A",
"/  c #7D7A75",
"(  c #844A2A",
")  c #894728",
"_  c #8A522A",
"`  c #955A2E",
"'  c #92483D",
"]  c #835A3F",
"[  c #895535",
"{  c #956038",
"}  c #835848",
"|  c #84654D",
" . c #906145",
".. c #876859",
"X. c #906A57",
"o. c #9D755A",
"O. c #97745E",
"+. c #A36A42",
"@. c #A6664B",
"#. c #B16A40",
"$. c #B67448",
"%. c #A26455",
"&. c #A2765A",
"*. c #A87858",
"=. c #B0765E",
"-. c #846C68",
";. c #8F7364",
":. c #827467",
">. c #9B766E",
",. c #8C7971",
"<. c #837F7A",
"1. c #947E70",
"2. c #C27645",
"3. c #77807D",
"4. c #93816A",
"5. c #83847D",
"6. c #8B867C",
"7. c #8C8A7C",
"8. c #948679",
"9. c #A98E7B",
"0. c #B88776",
"q. c #BB8978",
"w. c #C2866A",
"e. c #C98D73",
"r. c #897E84",
"t. c #7D8383",
"y. c #7F888A",
"u. c #858681",
"i. c #8B8683",
"p. c #858A84",
"a. c #8B8B86",
"s. c #82868A",
"d. c #8E8E89",
"f. c #828B88",
"g. c #918788",
"h. c #918F89",
"j. c #879289",
"k. c #94928C",
"l. c #9A948A",
"z. c #8E9494",
"x. c #9C9C9A",
"c. c #A39082",
"v. c #B69E8A",
"b. c #BB9C8A",
"n. c #B89583",
"m. c #A29E97",
"M. c #A5A39B",
"N. c #B8A392",
"B. c #AAAAA4",
"V. c #ABA9A6",
"C. c #B3B3AD",
"Z. c #BBB5A9",
"A. c #B4B6B2",
"S. c #BABAB5",
"D. c #BABCBB",
"F. c #C39584",
"G. c #D49C8B",
"H. c #E19C97",
"J. c #C3A48F",
"K. c #DBA38F",
"L. c #D8A586",
"P. c #C8A595",
"I. c #D4A996",
"U. c #E4A095",
"Y. c #C8B6A8",
"T. c #C4B2A8",
"R. c #C5BEB5",
"E. c #F1BCAA",
"W. c #DAC4AF",
"Q. c #C6C5BE",
"!. c #D3C3B4",
"~. c #E0CDBE",
"^. c #CBC9C5",
"/. c #CCCBC9",
"(. c #D0C9C1",
"). c #D2D2CE",
"_. c #DCD4CA",
"`. c #D5D5D3",
"'. c #DBDAD6",
"]. c #DDDCDA",
"[. c #E2DAD4",
"{. c #E3E2DD",
"}. c #EBE4DC",
"|. c #FEE1D3",
" X c #E5E5E2",
".X c #E9EAE6",
"XX c #E6EAEA",
"oX c #ECEDEB",
"OX c #E4E7E6",
"+X c #F3EFEC",
"@X c #F8F2E9",
"#X c #EDF0F7",
"$X c #F6F6F5",
"%X c #FCFAF5",
"&X c #FDFEFC",
"*X c #F5F8F8",
/* pixels */
"/ Q.$X.XS.d.a.a.i.6.t.3.<./ y.^ u.5.5.5.5.5.5.u.5.",
"/ M.C.oX%X`.x.p.j.f.7.7.p.p.6.5.5.d.u.u.i.5.a./ <.",
"B.&XQ.M.}.%X XB.p.z.g.-.! :.6.y.d.a.h.a.d.d.u.x.^.",
"B.%X&X{.m.{.%X.XB.,.N 3 $ , 8 r.k.h.k.k.d.u.S.%X&X",
"V.$X&X&X{.B.+X&XT.; $ % n 5 . 3 Y k.k.k.d.^.&X&X&X",
"A.*X&X&X&X).R.[.T $ l n.K.@.A + . R m.k.C.&X%X*X%X",
"B.$X&X&X&X%XR.E X.i } E.G.=.( j . L M.k..X&X$XoX$X",
"C.+X&X&X&X%X!...| s ..>.0.=.K S . 9 l.C.&X&X*X$X&X",
"A.*X&X&X&X&X9.| V a ..U q.B v m   7 8.`.&X%X%X&X&X",
"C.XX&X&X&X_...J.D %.U.w.L.x i n   , 1.[.&X%X&X&X&X",
"A..X&X&X%Xc.;.O.y K.F.F.0.p K l   4 4.(.XX&X%XoX&X",
"A.].*X&XY.Z ;.I > I.P.H.' r H % o c 8.'.#X$X%X&X&X",
"V.).&X*Xv.d E M : *.|.I.) f d $ < b l.OX&X&X%X&X*X",
"D. X&X}.n.u J 6 e 2.e.b.D 2 - = ; c l.].oX^.'.`.).",
"D.].@Xv.I K n 5 1 $.#.[ a r q < $ ; b N.@XQ x.&X$X",
"x.`.~.o.D m C l X m [ h = = # ; + # q t 4.@ ~ &X&X",
"Z.W.J.&.V S I & . O 1 s y * : u - - g k m 6 s.&X&X",
"_.v.9.o.] P S 6 * = a ( ( G G _  .A _ F m W t.XXoX",
"_.v.n.&.] S m z w w g _ ` { +.$.+.H ( F u ,.s.@ 0 "
};
