/* XPM */
static const char *micro_tle_saut[] = {
/* columns rows colors chars-per-pixel */
"25 19 193 2 ",
"   c #070707",
".  c #0C0C0C",
"X  c #14130D",
"o  c #151314",
"O  c #1B1514",
"+  c #1C1A16",
"@  c #171719",
"#  c #191718",
"$  c #1D1C1D",
"%  c #281710",
"&  c #231E1A",
"*  c #2C1A18",
"=  c #1C211D",
"-  c #262216",
";  c #25211E",
":  c #2D241F",
">  c #34231B",
",  c #1E1E20",
"<  c #221E24",
"1  c #242324",
"2  c #292522",
"3  c #2D2925",
"4  c #242429",
"5  c #2C2C2C",
"6  c #322A25",
"7  c #362E2D",
"8  c #332421",
"9  c #3D3027",
"0  c #34312C",
"q  c #39322C",
"w  c #2E2E31",
"e  c #312F32",
"r  c #2D3134",
"t  c #343234",
"y  c #3B3536",
"u  c #3B3935",
"i  c #36353B",
"p  c #393738",
"a  c #3C3C3B",
"s  c #343C3F",
"d  c #473D33",
"f  c #473E38",
"g  c #3B443F",
"h  c #48423C",
"j  c #574B3F",
"k  c #5D4C3C",
"l  c #554939",
"z  c #3E3C43",
"x  c #383F49",
"c  c #323D41",
"v  c #403F45",
"b  c #423E4D",
"n  c #3F414D",
"m  c #43444B",
"M  c #4E4945",
"N  c #524942",
"B  c #5B4D40",
"V  c #554D49",
"C  c #594F4D",
"Z  c #5D5047",
"A  c #5B524A",
"S  c #504E51",
"D  c #5C5551",
"F  c #5F5954",
"G  c #5D585E",
"H  c #645242",
"J  c #63574E",
"K  c #6B5C4B",
"L  c #725C4E",
"P  c #625A54",
"I  c #6B5E53",
"U  c #6D6259",
"Y  c #68625A",
"T  c #726353",
"R  c #736957",
"E  c #74665B",
"W  c #76685D",
"Q  c #7C6859",
"!  c #5B5C60",
"~  c #6F6764",
"^  c #756B64",
"/  c #7C6D63",
"(  c #796B6A",
")  c #7F776C",
"_  c #7D7A78",
"`  c #805A4D",
"'  c #876C5C",
"]  c #8A6A5D",
"[  c #816F65",
"{  c #817265",
"}  c #83766A",
"|  c #86796C",
" . c #8B7869",
".. c #9D7E69",
"X. c #92766A",
"o. c #847B75",
"O. c #8A7D73",
"+. c #877978",
"@. c #96816E",
"#. c #96886E",
"$. c #99846F",
"%. c #8C8379",
"&. c #948373",
"*. c #9A8673",
"=. c #9C8C74",
"-. c #95877A",
";. c #9D8B7A",
":. c #A28D7A",
">. c #A88975",
",. c #A5907C",
"<. c #AC937B",
"1. c #A7987B",
"2. c #B0967F",
"3. c #807E81",
"4. c #868489",
"5. c #9C8E82",
"6. c #998E88",
"7. c #958B81",
"8. c #9C9083",
"9. c #97908A",
"0. c #9B928A",
"q. c #959186",
"w. c #878E94",
"e. c #97969E",
"r. c #9C979D",
"t. c #9C9793",
"y. c #A69683",
"u. c #A99684",
"i. c #A99688",
"p. c #A69B8D",
"a. c #AC9C8A",
"s. c #A89788",
"d. c #B49B84",
"f. c #B29F8A",
"g. c #AB9F93",
"h. c #A59E97",
"j. c #B8A18B",
"k. c #ACA193",
"l. c #A5A19C",
"z. c #ABA59A",
"x. c #BEAF90",
"c. c #B5A79A",
"v. c #AFA8AF",
"b. c #A8A5A5",
"n. c #B2A6A5",
"m. c #BBAFA2",
"M. c #B4ADA5",
"N. c #B6B2AC",
"B. c #B9B7B6",
"V. c #CBAD89",
"C. c #C0AC91",
"Z. c #C8B39E",
"A. c #C4BEB3",
"S. c #CBBFB4",
"D. c #C5B7AA",
"F. c #BFC2B9",
"G. c #C6C2BA",
"H. c #CFCDBE",
"J. c #CBC2B9",
"K. c #D1C6BB",
"L. c #DCCBB9",
"P. c #E4CCB5",
"I. c #CDCAC5",
"U. c #D6CDC6",
"Y. c #D4CCC4",
"T. c #DED2C4",
"R. c #DED8C8",
"E. c #CECFD3",
"W. c #DCDAD4",
"Q. c #DAD6D3",
"!. c #E3DACC",
"~. c #E1DBD4",
"^. c #E9DFD3",
"/. c #E5E0CC",
"(. c #EBE1D6",
"). c #EBE5DC",
"_. c #E4E5DD",
"`. c #F2E4DC",
"'. c #DDDDE6",
"]. c #E3E1E3",
"[. c #ECE6E3",
"{. c #EDEBE2",
"}. c #EFEEEC",
"|. c #FAEEEC",
" X c #F7EDE3",
".X c #F2F2ED",
"XX c #FCF6EC",
"oX c #F3EEF2",
"OX c #F4F3F1",
"+X c #F8F7F5",
"@X c #FCF9F5",
"#X c #F4F5F8",
"$X c #FCFCFB",
/* pixels */
"q 0 3 ; ; + & ; l R - X ; 5 O y P D f & 2 2 2 6 3 ",
"j 9 d J U I I W +.( & & + + - - : 7 h q 0 t 0 0 0 ",
"D.-.B K I K W Q { W P V F F D D A N A A F P D P P ",
"XXs.| g.c.p.&.W [ / W E U d A U / / W T E T E E W ",
"m.8.;.&.y.a.;.;.=.#.=.;.H > 8 +.;.;.,.,.:.:.;.;.=.",
"L.f.,.:.d.<.<.d.|.`.s.a.P.C.=.1.:.@.*.*.$.:.*.&.@.",
"!.p.s.u.f.j.*.u.z.S.*.j.d.2.'  .-.5.&.&.&.O.O.y.8.",
"W.I.{. XK.U.J.7.z.B a.P.....Q X.U.U.h.K.!.h.M.$X+X",
"{.[.OX#X(./.#XN.m.A p.Z.>.` ' T n.n.l.I.Q.B.Q.$X+X",
").|.W.$X`.R.$X[.H.M ( | T J y ; K R ^ J.N.M.l.W.}.",
"W.~..XOX(.!.OX@XXXZ K d.k * % H x.a.f _ b.t._ F.].",
"~.)._..X^.R.{.).@XO.T d.>.] ] V.U 8 + G v.r._ E.oX",
"G.!.G..XT.S.W.A._.! i 2 k L B l t m m m 3.r.4.'.].",
"9.k.o.B.k.6.z.M.q.w x t 3 7 e c n m s = u Y S e.'.",
"^ y.%.0.O.n.%.5.C u u a e b z g a r 4 5 3 $ X $ B.",
"o.=.9.A.} ( k.{ 5 t z p w z v 0 2 o 4 4 < 1 . + w.",
";.} Z !.) V h.d 1 t p 5 p z p 4 @ o 1 1 , $ o # b.",
"T./ N A.h O o 2 $ 5 e 5 t e 1 @ .   @ $ $ $ o o 4.",
"k.6 6 6 O t < ; @ $ 4 5 t 1 @ . .   @ $ 1 1 # # ~ "
};
