/* XPM */
static const char *micro_gmattler[] = {
/* columns rows colors chars-per-pixel */
"25 19 212 2 ",
"   c #1C1C14",
".  c #120A17",
"X  c #383029",
"o  c #3B3B36",
"O  c #303028",
"+  c #411C16",
"@  c #542420",
"#  c #453C35",
"$  c #503E30",
"%  c #483828",
"&  c #48423B",
"*  c #55453A",
"=  c #5E5D3E",
"-  c #404527",
";  c #484B47",
":  c #584D46",
">  c #4A524A",
",  c #4F5740",
"<  c #59554A",
"1  c #4B5D55",
"2  c #525551",
"3  c #555E5A",
"4  c #5F5C5A",
"5  c #5D5954",
"6  c #6B4C51",
"7  c #764756",
"8  c #675E5A",
"9  c #615C56",
"0  c #664E4A",
"q  c #526359",
"w  c #646549",
"e  c #7B734E",
"r  c #6C625A",
"t  c #65645B",
"y  c #796958",
"u  c #6D705F",
"i  c #70734F",
"p  c #5F5B6A",
"a  c #6B5A60",
"s  c #526B63",
"d  c #6A6866",
"f  c #796C69",
"g  c #6E7A6E",
"h  c #72736D",
"j  c #7D716E",
"k  c #797766",
"l  c #676C70",
"z  c #6D7676",
"x  c #7B7573",
"c  c #7C7E7B",
"v  c #797772",
"b  c #746771",
"n  c #870B25",
"m  c #813D4C",
"M  c #932351",
"N  c #A1305B",
"B  c #DC2C6D",
"V  c #835E5C",
"C  c #BD4358",
"Z  c #866158",
"A  c #91665F",
"S  c #807555",
"D  c #945260",
"F  c #AB4A69",
"G  c #8D6661",
"H  c #9E6E6C",
"J  c #89786A",
"K  c #837C7A",
"L  c #947471",
"P  c #A27B65",
"I  c #B2736E",
"U  c #A17872",
"Y  c #768460",
"T  c #6C827E",
"R  c #77817A",
"E  c #7E827D",
"W  c #D0A022",
"Q  c #B9A546",
"!  c #958B67",
"~  c #82827D",
"^  c #888176",
"/  c #988479",
"(  c #90997C",
")  c #97986E",
"_  c #B5836C",
"`  c #AB8C78",
"'  c #AC967E",
"]  c #A1967C",
"[  c #B49479",
"{  c #BB9169",
"}  c #A3A164",
"|  c #B7B874",
" . c #CCAF47",
".. c #C09A76",
"X. c #C3BB72",
"o. c #E3CE41",
"O. c #F9D867",
"+. c #FD4698",
"@. c #E77083",
"#. c #5D8F84",
"$. c #628B89",
"%. c #788585",
"&. c #798A99",
"*. c #689893",
"=. c #799999",
"-. c #7DA088",
";. c #6799A4",
":. c #6FA6A3",
">. c #7DB6AF",
",. c #7ADED6",
"<. c #8B8982",
"1. c #878785",
"2. c #968C87",
"3. c #959789",
"4. c #839A98",
"5. c #9A9495",
"6. c #899184",
"7. c #A59385",
"8. c #A89485",
"9. c #A99C88",
"0. c #BC9B8D",
"q. c #B49685",
"w. c #A09591",
"e. c #B98786",
"r. c #9EA480",
"t. c #8FA99E",
"y. c #9EAD96",
"u. c #ABA886",
"i. c #BAA787",
"p. c #A1A397",
"a. c #AFAE99",
"s. c #BCAB92",
"d. c #B6A897",
"f. c #989BAA",
"g. c #A99FA0",
"h. c #89A3A4",
"j. c #99A4A3",
"k. c #96A4B1",
"l. c #A8A8A7",
"z. c #B4ABA6",
"x. c #AAB2AB",
"c. c #BFB9A1",
"v. c #ACB8B3",
"b. c #BDBFBE",
"n. c #B6B5B3",
"m. c #C68687",
"M. c #C59685",
"N. c #CBA98D",
"B. c #D4A18E",
"V. c #C4A997",
"C. c #C4B39D",
"Z. c #C9B39C",
"A. c #D6B487",
"S. c #E6BC94",
"D. c #D19EA3",
"F. c #C5AEA3",
"G. c #CBBAA3",
"H. c #CCBEAB",
"J. c #C5B8A2",
"K. c #D1BDA5",
"L. c #DCB6A9",
"P. c #CBBCB6",
"I. c #E7AEAE",
"U. c #86C3BB",
"Y. c #A1C1B6",
"T. c #BCC5B3",
"R. c #C6C1A6",
"E. c #D3C3AE",
"W. c #D8C8A7",
"Q. c #D4C4BB",
"!. c #DACBBC",
"~. c #D6CAB5",
"^. c #DAD1B9",
"/. c #D3CFB0",
"(. c #E3D3BC",
"). c #B5B2C3",
"_. c #E2BFC3",
"`. c #9BC4C5",
"'. c #AAC4C9",
"]. c #BBC5C8",
"[. c #B5D0D7",
"{. c #BED4EB",
"}. c #CECDC5",
"|. c #C5C6CA",
" X c #DBCEC0",
".X c #DACBCC",
"XX c #CDD2CC",
"oX c #DBDAC9",
"OX c #C9CDD0",
"+X c #DACED0",
"@X c #CDD3D4",
"#X c #CDD5D9",
"$X c #D3D4D4",
"%X c #D3DBDB",
"&X c #DADCDD",
"*X c #D7D6D9",
"=X c #E7D5CA",
"-X c #E3D7C3",
";X c #DFE2D1",
":X c #F3EADB",
">X c #DDDFE1",
",X c #D2DBE2",
"<X c #DAE2E5",
"1X c #E2E4E5",
"2X c #EBEAE9",
"3X c #E8E6E7",
"4X c #E8F2E3",
"5X c #F4F5EF",
"6X c #F9F4F7",
"7X c #FDFDFD",
"8X c #FDFEF6",
"9X c #F2EDEA",
/* pixels */
"x.j.j.4.T 3 h v 3 1 q 1 z l z R 5.L.` 3.a.*X{.[.}.",
"&X&X%X@X].v.l.l.4.R 1.c 1.%.1.l.T.-X!.oXoXoX4X4X5X",
"#X&X$X1X3X>X1X<X<X*X*X$X%X%XXX6X8X7X7X7X7X7X7X7X7X",
"#X@X>X&X1X&X<X<X,X<X1X$Xz.n.&X@X2X7X7X7X8X7X7X7X7X",
"h h ~ l.n.v.b.|.OX$Xb.t o X <.+X@X2X7X7X7X7X6X9X3X",
"% X # & 2 : 8 <.~ c 9 * U V * <.<.3.<.1.3.x h t r ",
"F.8.7.9.J 2.w.x 7.J & y U U J 2.^ c x 8 d 5 o o o ",
"9.] i.! S w ~ 5.-XV.G H A L /  X}.h.3.! u./.i.7.` ",
"J 0 $ = i - u |.Q.Q.V.P I U F.:X;X).K i ) | X.] i.",
"* O O * * : j j.f f y P Z V J r v ].j < , w J 5 r ",
"* % + > 2 o t Q.b . 4 0.Z L     f.&.x ~ j k > & ; ",
"2 @ n > x > J S.e * 8.B.M.L.2.l k.&.a K ~ 3.p.k 4 ",
"p 7 D E g m m.N.W.-XL._ _ 0.=X*XT.h.%.T c ^ z.g.2.",
"d 6.p.y.k C I.1X=X.XQ.s.q.H.E.E..X X..{ q._.D.2.3 ",
"5 E z./ e.@.L.H.K.!.H.s.Z.J.G.H.C.d.'.U.=.'.x.=.s ",
"6 2.L N +.B m.u.J.!.^.W.H.H.~.E.s.[ `.,.:.;.`.*.$.",
"XXP.b 7 M F M.u.Z.E.(.(.~.^.!.H.d.' A.o.O.X.R.} ! ",
"b.v.$.#.*.t.s.[ Z.K.E.~.E.E.H.J.i.' N. .W Q c.( e ",
"d.x.4.h.>.Y.V.[ Z.G.G.K.E.G.s.C.u.9.s.r.Y -.v.<.s "
};
