/* XPM */
static const char *micro_momillio[] = {
/* columns rows colors chars-per-pixel */
"25 19 210 2 ",
"   c #0C1A1D",
".  c #0D1C24",
"X  c #0A192D",
"o  c #161B26",
"O  c #281E27",
"+  c #09212D",
"@  c #192A2A",
"#  c #14322D",
"$  c #1C2534",
"%  c #142B33",
"&  c #1A2D35",
"*  c #1B2D3B",
"=  c #132838",
"-  c #1E323B",
";  c #1E3A3B",
":  c #1D3632",
">  c #0D2738",
",  c #2C2F2C",
"<  c #282826",
"1  c #272B36",
"2  c #21333D",
"3  c #2D323D",
"4  c #223B3F",
"5  c #383A35",
"6  c #6F3B3F",
"7  c #4B4C3B",
"8  c #4A463A",
"9  c #53413D",
"0  c #565C36",
"q  c #67683E",
"w  c #1A2C40",
"e  c #1A3745",
"r  c #1F3250",
"t  c #282F41",
"y  c #233542",
"u  c #253945",
"i  c #22344B",
"p  c #273947",
"a  c #363849",
"s  c #253E5A",
"d  c #303354",
"f  c #433A4D",
"g  c #154341",
"h  c #36444F",
"j  c #294156",
"k  c #314552",
"l  c #3A575B",
"z  c #3C566D",
"x  c #584E45",
"c  c #575549",
"v  c #5C5E5B",
"b  c #585E50",
"n  c #48554C",
"m  c #675749",
"M  c #684D4D",
"N  c #5C6554",
"B  c #566C45",
"V  c #686556",
"C  c #64785F",
"Z  c #747659",
"A  c #6F6A4D",
"S  c #41536B",
"D  c #566F73",
"F  c #587772",
"G  c #696A62",
"H  c #676B69",
"J  c #736F63",
"K  c #667162",
"L  c #65716B",
"P  c #73746A",
"I  c #797A6B",
"U  c #6D7572",
"Y  c #727371",
"T  c #7C7A74",
"R  c #796473",
"E  c #A8142E",
"W  c #D03D69",
"Q  c #844E5C",
"!  c #9B5B59",
"~  c #807F4F",
"^  c #88675C",
"/  c #897459",
"(  c #A17A5D",
")  c #865268",
"_  c #876964",
"`  c #956968",
"'  c #847264",
"]  c #867866",
"[  c #997B6D",
"{  c #867C75",
"}  c #957D73",
"|  c #AC7D73",
" . c #A26577",
".. c #C74A5A",
"X. c #74845A",
"o. c #6A8A7F",
"O. c #788272",
"+. c #78856B",
"@. c #96955F",
"#. c #8B8B6C",
"$. c #8C8C7C",
"%. c #86877B",
"&. c #928B7B",
"*. c #988378",
"=. c #89927A",
"-. c #91907E",
";. c #8C9168",
":. c #A28575",
">. c #A08D7C",
",. c #A59876",
"<. c #A5A378",
"1. c #BABA70",
"2. c #C5BE53",
"3. c #C0857D",
"4. c #5D7189",
"5. c #AA6B88",
"6. c #E44B83",
"7. c #D67B9A",
"8. c #7A8589",
"9. c #74968C",
"0. c #6B8290",
"q. c #679F92",
"w. c #73909E",
"e. c #78A79B",
"r. c #7CA5A1",
"t. c #7FB5BF",
"y. c #898C87",
"u. c #998787",
"i. c #899289",
"p. c #9B968B",
"a. c #949686",
"s. c #918F90",
"d. c #8D9295",
"f. c #9A9C9B",
"g. c #979795",
"h. c #8D8A93",
"j. c #AD8E82",
"k. c #B78B80",
"l. c #A8958F",
"z. c #BA958A",
"x. c #BA9488",
"c. c #A79893",
"v. c #BC9D93",
"b. c #B59F91",
"n. c #98A498",
"m. c #93A88F",
"M. c #ABA485",
"N. c #B2AE8B",
"B. c #B5B18C",
"V. c #ACAB96",
"C. c #A2A69A",
"Z. c #B6A693",
"A. c #A1B59C",
"S. c #B6B599",
"D. c #8BA3AF",
"F. c #97A9A6",
"G. c #89BDB0",
"H. c #88B1A3",
"J. c #A3ACA3",
"K. c #AFA9A9",
"L. c #B0ADA8",
"P. c #ACB3AC",
"I. c #AAB7AA",
"U. c #B5B5AF",
"Y. c #AEADB3",
"T. c #AFBAB6",
"R. c #B7BDB7",
"E. c #D39197",
"W. c #C3AD9F",
"Q. c #D0A094",
"!. c #C7B199",
"~. c #DA97A0",
"^. c #CAA7A4",
"/. c #C7BDAA",
"(. c #C1BEB9",
"). c #A4C7BA",
"_. c #C9C49C",
"`. c #C2D2AB",
"'. c #C4C2B9",
"]. c #DCC0B2",
"[. c #D6C1A6",
"{. c #EAF192",
"}. c #9CB7C0",
"|. c #98BCD6",
" X c #89C0C7",
".X c #B9C1C4",
"XX c #A2D3C5",
"oX c #BAD8CB",
"OX c #BFD3D2",
"+X c #A9C4D9",
"@X c #C4CBC6",
"#X c #C5D4C9",
"$X c #C3CED0",
"%X c #C9DBD6",
"&X c #CCDBDB",
"*X c #C2D4D3",
"=X c #E4DFDC",
"-X c #CEE2DB",
";X c #D0E3DB",
":X c #F7F0DE",
">X c #CEDEE2",
",X c #C5DFE0",
"<X c #D0DFE4",
"1X c #D4E4E4",
"2X c #D7E6E9",
"3X c #DCF2F0",
"4X c #E5EBE5",
"5X c #FEFEFD",
"6X c #F7F9F6",
"7X c #EAF5F1",
/* pixels */
"&X&X&X%X1X;X;X;X>X1X3X*X8.F.>X2X-X4X6X5X6X5X5X6X5X",
"&X2X&X1X2X>X<X2X1X3Xi., , < H %X&X>X2X7X5X5X5X5X5X",
"%.n.@XJ.P.T.$X@X#XI.c u.l.l.m C.OX$X$X.XR.@X=X@XP.",
"x 7 V G N G i.a.%.V } ^.z.v.b.&.%.%.i.U H L Y v v ",
"I &.&.T $.C.T p.p.' } j.z.j.Z.b.a.p.y.s.I K p.T c ",
"/._.M.V.V.L.h.U./.*.' m :.^ A W.'.'.n.U.S.=.M.S.S.",
"] @.~ #.0 I g.4X:X*.:.[ z.:.} Z.6X6X).C.] X.<.;.<.",
"x q A Z 0 O..X#X/.>.| 3.Q.x.k.z.'.(.oXU.Z B Z X.#.",
"5 b V b v U f.J.V J / ( ^ ^ :.V x i.F.s.&.O.Y V v ",
"6 x C N K P c.'.n O 9 ] _ _ b 5 a D.|.8.$.A.C.K.a.",
"E M L L G $.M._.{ { T 7 7 8 G f.f.F.+X8.U 8.+.n.L.",
"! P o.8.` z.!.[.,.F { ` 3 c ,.D 0.F.}.F.i.d.p.y.C.",
"=.n.-.' ..~.Y.w.z r 1 ' *.&.n s z S 4.s.B.Z.^.].Q.",
"g.I.a.-.E.u.u s s s w . .   o i k j e h n.XXr.oXF.",
"f.y. .7.5.1 ; 2 y : % > # % i y d a 4 & j  Xe.t.XX",
"g.Q W 6.f > $ & t 2 2 * * * y 2 g p 2 - X X.{.m.`.",
"s.R ) M * $ & * y y y * * - 2 y 4 u t $ % # 1.2.V.",
"9.q.e.n + o @ u y u y y 2 2 y u u i y & . X m N.J.",
"H.G.J.[ 3 ; e.k y y y y y 2 2 y y w l 9.@ a _ I.)."
};
