/* XPM */
static const char *micro_tladron_[] = {
/* columns rows colors chars-per-pixel */
"25 19 216 2 ",
"   c #18180E",
".  c #272820",
"X  c #383931",
"o  c #4E352E",
"O  c #5F3E35",
"+  c #3B4239",
"@  c #41463F",
"#  c #544936",
"$  c #4A5D30",
"%  c #565737",
"&  c #684F3B",
"*  c #3A4C46",
"=  c #336B78",
"-  c #4D4B46",
";  c #4D524E",
":  c #59574C",
">  c #545453",
",  c #5C5E52",
"<  c #525B5A",
"1  c #724A49",
"2  c #655E42",
"3  c #775C47",
"4  c #6E4D54",
"5  c #665F51",
"6  c #7D5D52",
"7  c #674442",
"8  c #5F6A48",
"9  c #5D6256",
"0  c #6B604A",
"q  c #79644F",
"w  c #696455",
"e  c #6E685E",
"r  c #736257",
"t  c #776D5E",
"y  c #7B6857",
"u  c #757456",
"i  c #5F5F69",
"p  c #5C6463",
"a  c #596B6A",
"s  c #436D7D",
"d  c #5F7374",
"f  c #5E7666",
"g  c #646564",
"h  c #6C6461",
"j  c #626B69",
"k  c #726962",
"l  c #7A6C66",
"z  c #6F7062",
"x  c #7D7B6F",
"c  c #676F72",
"v  c #6B7D7C",
"b  c #6A7578",
"n  c #727474",
"m  c #787976",
"M  c #935E4E",
"N  c #855446",
"B  c #84764F",
"V  c #82635E",
"C  c #846A5F",
"Z  c #8F775B",
"A  c #A47156",
"S  c #896360",
"D  c #877A6A",
"F  c #987C67",
"G  c #857E7A",
"H  c #867274",
"J  c #997D72",
"K  c #A77B6A",
"L  c #A17A7B",
"P  c #7F815C",
"I  c #77827E",
"U  c #9E8662",
"Y  c #83877D",
"T  c #8B8178",
"R  c #998777",
"E  c #99937D",
"W  c #A5836D",
"Q  c #AA8165",
"!  c #A3847A",
"~  c #AE827C",
"^  c #A48B76",
"/  c #B09A75",
"(  c #4D7A8D",
")  c #537787",
"_  c #6F7D80",
"`  c #7C7F84",
"'  c #7A8785",
"]  c #7F8D98",
"[  c #7B939A",
"{  c #648284",
"}  c #759AA0",
"|  c #7BA5B3",
" . c #4AA6CF",
".. c #58B8E0",
"X. c #7FC0DC",
"o. c #4BC8FF",
"O. c #848482",
"+. c #848A8C",
"@. c #888D86",
"#. c #8E938C",
"$. c #9E9686",
"%. c #9A8E92",
"&. c #8A9598",
"*. c #919391",
"=. c #919993",
"-. c #929399",
";. c #999E9B",
":. c #939D9D",
">. c #968A8A",
",. c #A68B80",
"<. c #B78A81",
"1. c #A69C89",
"2. c #B79789",
"3. c #AB9C92",
"4. c #A19B99",
"5. c #9DA69F",
"6. c #94A39E",
"7. c #B0A089",
"8. c #AFAA96",
"9. c #BEAB9C",
"0. c #ABA58D",
"q. c #869BB0",
"w. c #9DA7A8",
"e. c #9EB0B2",
"r. c #98A6B3",
"t. c #AEADAC",
"y. c #A4A7A8",
"u. c #B3ACA5",
"i. c #B8AEA4",
"p. c #A9B3AC",
"a. c #BDB2A6",
"s. c #B3B1A4",
"d. c #A2AAB4",
"f. c #ABBBBA",
"g. c #A9B7B7",
"h. c #B5B8B3",
"j. c #BCBCB3",
"k. c #B4B9BA",
"l. c #B6B8B9",
"z. c #C98F81",
"x. c #C29383",
"c. c #C29E92",
"v. c #C4AD8E",
"b. c #D6B09B",
"n. c #C1B69A",
"m. c #C8B9A6",
"M. c #DEBFA0",
"N. c #C4BEB9",
"B. c #E3B5AA",
"V. c #EABAAE",
"C. c #D4C9AA",
"Z. c #C8C4BA",
"A. c #D6CAB9",
"S. c #E0D3B1",
"D. c #F9E9B6",
"F. c #96B7C6",
"G. c #A9BBC3",
"H. c #B8BFC5",
"J. c #C3BEC2",
"K. c #8AC3D7",
"L. c #BEC6CA",
"P. c #BCCBCB",
"I. c #B4C4C7",
"U. c #BCCDD3",
"Y. c #B6C9D0",
"T. c #BED1D7",
"R. c #A9C4CF",
"E. c #A6D3E8",
"W. c #C7C6C4",
"Q. c #CACAC6",
"!. c #C5CACA",
"~. c #DECDC5",
"^. c #CCD0CF",
"/. c #D4D2CD",
"(. c #DAD4CB",
"). c #D2D5C8",
"_. c #C7C8D2",
"`. c #CCD5D3",
"'. c #CBD4DB",
"]. c #CAD5D9",
"[. c #D4D5D4",
"{. c #D4D4D8",
"}. c #D4DBDC",
"|. c #D9D9DA",
" X c #DAD8D3",
".X c #E0D9CF",
"XX c #E2DBD3",
"oX c #D8E4DA",
"OX c #E3E4DB",
"+X c #E8E4D8",
"@X c #C5DAE3",
"#X c #CEDBE6",
"$X c #CADAEB",
"%X c #D3DBE1",
"&X c #DBDDE3",
"*X c #D3DEE9",
"=X c #D6D7E7",
"-X c #CEDFF3",
";X c #CDE2E8",
":X c #CDE0E4",
">X c #D2E3ED",
",X c #D7E6E6",
"<X c #D4E5F2",
"1X c #D3E8F3",
"2X c #DCEBF3",
"3X c #D7E9F9",
"4X c #DEF2F3",
"5X c #CBE6F1",
"6X c #E6E5E1",
"7X c #EFE4E8",
"8X c #E1ECF4",
"9X c #E6EFFA",
"0X c #E9F3F4",
"qX c #E3F3FD",
"wX c #E6FAFF",
"eX c #F9F9FD",
/* pixels */
"#X@XU.f.f.w.=.:.@.v b v d ' #.I a b &.-.@.5.h.g.G.",
"<X3X3X1X>X>X#X$X@XU.Y.I.I.I.I.I.P.P.}.%X].'.%X*X2X",
":X:X;X>X;X;X1X1X3X>X3XwX0XeXqX8X4X2X2X2X2X8X8X9X2X",
"L.].*X$X<X>X1X1X1X<X2X&.< j Y.qXqX1X<X<X8X0X0X0X8X",
"h g n ` +.&.w.f.f.Y.@.  .   > `.'._.U.U.L.k.j.h.y.",
"y w 5 5 w e , j x g J 2.V ,.2.k x Y I j g > > - X ",
"m.m.A.a.3.N.t.n a.3.c.V.B.M.c.C $.s.=.n @.G m O.- ",
"m.C.C.D 1.i.y.-.OXA.y O K & # R ~.+Xh.;.Q.u.$.Z.0.",
"U 2 : 9 B & ] k.eXm.K M b.W K Q A.eX|.:.1.5 $ 8 P ",
"R q 0 D ^ ^ y.l.A.9.x.z.~ ! <.~ A.+X`.I.8.t % # u ",
", g w , k t Y j.4.>.J N 1 1 6 V 1.n.d.+.G H e k 1.",
": 9 + - z R M.D.k.i r F V 6 Z t r C.$XG.g p < < ' ",
"h 9 @ n T 1.v.S.p.c D W V y F R D C.-XT.5.=.; + g ",
"a n v #.k c { [ !._.L <.C q W 2.4.).q.[ ;.O.*.p p ",
"f :.m / E ) F.@X2XeXH S ! F 2.6 g.wXR.| v * a &.=.",
"v &.l A *.E.9X=X&X,X|.l o 7 4 %.7X=X2X5Xp.g * _ e.",
"w.6.r.d.!.|.{.].{.|.6X+XZ.i.Z.6X[.%X%X&XOX} = D g.",
"&XoX'.L.W.J.W.^.|.|. X(..XXX X/. X{.}.!.l.K...( ] ",
"Q.).H.k.j.u.N.Q.{. X[./.(.(././.[.}.`.h.t.X.o. .s "
};
