/* XPM */
static const char *micro_wifons[] = {
/* columns rows colors chars-per-pixel */
"25 19 198 2 ",
"   c #100F0B",
".  c #130A03",
"X  c #131213",
"o  c #181510",
"O  c #1A1A19",
"+  c #1C1B17",
"@  c #271E17",
"#  c #26211D",
"$  c #34261A",
"%  c #252525",
"&  c #2C2C2B",
"*  c #322E2E",
"=  c #33322E",
"-  c #343332",
";  c #393634",
":  c #3B3A35",
">  c #3C3B3B",
",  c #403428",
"<  c #4B3B2E",
"1  c #413F3D",
"2  c #46423E",
"3  c #634E39",
"4  c #3F4140",
"5  c #444343",
"6  c #494542",
"7  c #4D4944",
"8  c #4E4D4D",
"9  c #52494A",
"0  c #545047",
"q  c #5F554B",
"w  c #545352",
"e  c #585755",
"r  c #5D5950",
"t  c #57565C",
"y  c #595758",
"u  c #5D5B5A",
"i  c #605247",
"p  c #6A5D4C",
"a  c #655B54",
"s  c #6B5E52",
"d  c #635D5D",
"f  c #735F58",
"g  c #6D6153",
"h  c #67645F",
"j  c #6F6059",
"k  c #716353",
"l  c #7B6B56",
"z  c #72635A",
"x  c #7C6D5C",
"c  c #756A58",
"v  c #7F735C",
"b  c #656563",
"n  c #6B6562",
"m  c #6C6C6B",
"M  c #6D6A63",
"N  c #726761",
"B  c #746D65",
"V  c #7E6E62",
"C  c #726E6B",
"Z  c #7E7162",
"A  c #73736E",
"S  c #7C756C",
"D  c #757373",
"F  c #7A7270",
"G  c #7E7A72",
"H  c #797A78",
"J  c #836A52",
"K  c #807056",
"L  c #82725D",
"P  c #8E795E",
"I  c #837363",
"U  c #887767",
"Y  c #857867",
"T  c #85796B",
"R  c #8C7E6D",
"E  c #847669",
"W  c #9E7F6B",
"Q  c #827D74",
"!  c #887F70",
"~  c #817E79",
"^  c #8C816B",
"/  c #98866E",
"(  c #8A8277",
")  c #86827F",
"_  c #8C857D",
"`  c #928373",
"'  c #968A75",
"]  c #978E7F",
"[  c #9A8C7D",
"{  c #928479",
"}  c #9B907C",
"|  c #A68D6D",
" . c #AA8A73",
".. c #AB9076",
"X. c #A59178",
"o. c #BD9A7E",
"O. c #827D81",
"+. c #848583",
"@. c #8A8780",
"#. c #8A8986",
"$. c #87888C",
"%. c #888888",
"&. c #9A8E80",
"*. c #968C8A",
"=. c #969084",
"-. c #9B978E",
";. c #929292",
":. c #9E9D9E",
">. c #A19587",
",. c #A89680",
"<. c #AA9C8B",
"1. c #B89E8D",
"2. c #A69E93",
"3. c #ADA392",
"4. c #ACA49C",
"5. c #AEA898",
"6. c #A6A39E",
"7. c #B8A793",
"8. c #BAAB94",
"9. c #B5AC9E",
"0. c #BBAD9C",
"q. c #B4A391",
"w. c #BEB19E",
"e. c #AEA7A1",
"r. c #AEADAB",
"t. c #B1AAA0",
"y. c #B8AFA8",
"u. c #B1ADAA",
"i. c #B6B0A4",
"p. c #B5B2AB",
"a. c #B8B6AA",
"s. c #BCB0A4",
"d. c gray74",
"f. c #CCA885",
"g. c #C3A78F",
"h. c #C6AB8D",
"j. c #D0AB8E",
"k. c #CFBFA5",
"l. c #C2B9AB",
"z. c #C6BCA7",
"x. c #C4BCB4",
"c. c #C9C3AD",
"v. c #DCC4AC",
"b. c #C6C4BC",
"n. c #CDCBBE",
"m. c #D1CEBF",
"M. c #DCCEBC",
"N. c #D5D1B8",
"B. c #D9D3B8",
"V. c #CFC5C4",
"C. c #CDCDC4",
"Z. c #D3CDC4",
"A. c #DACDC3",
"S. c #D3CECA",
"D. c #D5D3C3",
"F. c #D9D1C4",
"G. c #D6D4CD",
"H. c #DBD4CB",
"J. c #DEDBCE",
"K. c #DDD6D0",
"L. c #D6D6D5",
"P. c #E3D8C6",
"I. c #E3DBCD",
"U. c #E2D3C8",
"Y. c #E6DFD7",
"T. c #ECDFD6",
"R. c #E2DFDA",
"E. c #E5E2D4",
"W. c #ECE4D4",
"Q. c #E5E5DC",
"!. c #EBE5DD",
"~. c #EDE9DF",
"^. c #F1ECD3",
"/. c #F2E6D8",
"(. c #F4E8DC",
"). c #FCE9D8",
"_. c #F8F2DC",
"`. c #EAE5E1",
"'. c #ECEAE3",
"]. c #E2E2E0",
"[. c #F5EEE4",
"{. c #F5F1E6",
"}. c #F5F3EB",
"|. c #FAF3EA",
" X c #FEFBEE",
".X c #F6F6F4",
"XX c #FBF7F4",
"oX c #FEFAF6",
"OX c #FEFEF5",
"+X c #FCFBF5",
"@X c #F7FCF8",
"#X c #FFFAFA",
"$X c #FFFFFB",
"%X c #FEFEF8",
"&X c #FAFEFD",
"*X c #FEFFFF",
"=X c #FFFDFD",
"-X c #FDFDFC",
/* pixels */
"z p s j k f z k j k k z k s s p p s p g p z g k z ",
"L <.^ v I L L v V I U I L U V L I I I V x x x x I ",
"` U./.' V U L Y U l x x L x I l V l l I I x L x Z ",
"R T ` l E Y I k x ` &.[ x ` R R T ] R Y k x I x x ",
"y.I.z a T.x.V.*.4.}.|.9.Y I P.I.m.+X!.z.' 4.A.M.Y.",
"D.N.c c ^.I.%XJ.Q.%Xx.3.).7.} [.D.=X+X^.B.`.=XE.}.",
"}.~.a z I.{.%XG.!.=X9.X.g...K F.C.XX|.^.N.K.=X XW.",
"%X#XN q XX%XOXL.E.#X0.h.j.f.| F.p.}.|._.c.Z.+XOX+X",
"&X%X_ M =X&X=XH.I.+XM.f. .o.| F.p.}.'.W.8.w.OX@X=X",
"Q.OX2.B %X.X%XH.`.%X(.W P J 1.G.u.+X'.W.8.z. X.X%X",
"J.(.<.g {.~.{.l.A.`.P...3 J v.Z.:.].'.H.0.x I.+X~.",
"2.9.3.! i.n.{.5.{ D s / Z ` ,.n 5 5 R.F.>.$ s.|.l.",
"0 t.( =.Q a.Q.G e H b 6 : 1 d +.D 6 S.x., < A.(.0.",
"= p.7 S -.b.b.: D %.y w w b D w 5 u `.B . $ i [ [ ",
"= 2 - 7 e.XX6.= r 9 a @.O.w 7 F b b C.7 o # @ 2.q.",
"* - : 2 Q 4.G = 4 A D t > w $.~ > : b & X O o 4.7.",
"> b e A r.L.m + 8 u ; 5 H m 5 ; = % m % O %   A k.",
"w ) n #.%X=XD > 1 > 5 m m - - 8 & - :.;.d.w = 5 S ",
"; h C #..X=X+.& * y b 8 - 5 b 5 & % ;.=XL.7 - + X "
};
