/* XPM */
static const char *micro_rjacquet[] = {
/* columns rows colors chars-per-pixel */
"25 19 187 2 ",
"   c #0A0A07",
".  c #050608",
"X  c #090708",
"o  c #0C0C0C",
"O  c gray2",
"+  c #130D0B",
"@  c #14130E",
"#  c #0D0E12",
"$  c #121114",
"%  c #191513",
"&  c #1E1A17",
"*  c #15141A",
"=  c #18171C",
"-  c #141819",
";  c #1A191D",
":  c #221A17",
">  c #201C1C",
",  c #2F1C18",
"<  c #2B2219",
"1  c #322A1F",
"2  c #32251D",
"3  c #1E1C22",
"4  c #1B1F28",
"5  c #1C2123",
"6  c #222324",
"7  c #2C2521",
"8  c #2D2B24",
"9  c #23242A",
"0  c #29272A",
"q  c #2B2A2C",
"w  c #352E2A",
"e  c #352C25",
"r  c #30352E",
"t  c #39332D",
"y  c #3D3632",
"u  c #3E3A31",
"i  c #393738",
"p  c #483C2E",
"a  c #443A33",
"s  c #433E3D",
"d  c #4A3F39",
"f  c #4A453E",
"g  c #51473D",
"h  c #524535",
"j  c #3B3F40",
"k  c #4C4542",
"l  c #4E4944",
"z  c #4A494E",
"x  c #554C44",
"c  c #5A4C44",
"v  c #514C48",
"b  c #5A5047",
"n  c #54504F",
"m  c #5E534A",
"M  c #5A585B",
"N  c #55595C",
"B  c #615547",
"V  c #63544B",
"C  c #63584D",
"Z  c #6E5C4C",
"A  c #6D5249",
"S  c #735E4E",
"D  c #7E5D4A",
"F  c #665D54",
"G  c #695E55",
"H  c #695F5D",
"J  c #605C5B",
"K  c #725F53",
"L  c #7B5D5B",
"P  c #6D6159",
"I  c #6C695E",
"U  c #716355",
"Y  c #786352",
"T  c #7E6954",
"R  c #726559",
"E  c #776A5C",
"W  c #7C6C5C",
"Q  c #686765",
"!  c #6B6768",
"~  c #6E6A61",
"^  c #746761",
"/  c #7D6F62",
"(  c #766D68",
")  c #73736B",
"_  c #79787E",
"`  c #787776",
"'  c #816F61",
"]  c #837264",
"[  c #82756C",
"{  c #89776B",
"}  c #837C6C",
"|  c #8C7C6C",
" . c #907967",
".. c #99776D",
"X. c #917D6C",
"o. c #897D73",
"O. c #837A73",
"+. c #94826E",
"@. c #8E8175",
"#. c #85817E",
"$. c #948373",
"%. c #9A8674",
"&. c #9A8779",
"*. c #96887E",
"=. c #9C8B7C",
"-. c #A18C76",
";. c #A38E7C",
":. c #A48475",
">. c #A6917C",
",. c #7B7A80",
"<. c #8A8483",
"1. c #8A8888",
"2. c #928683",
"3. c #948C83",
"4. c #99948D",
"5. c #948F93",
"6. c #9C979A",
"7. c #9D9694",
"8. c #A08E80",
"9. c #A39285",
"0. c #AB9784",
"q. c #A39A8D",
"w. c #AC9C8D",
"e. c #B89C89",
"r. c #A59A91",
"t. c #AA9E99",
"y. c #A79C96",
"u. c #A4A097",
"i. c #A6A29B",
"p. c #ACA297",
"a. c #B3A291",
"s. c #B8A99C",
"d. c #AFA8A0",
"f. c #A7A3A2",
"g. c #B1A6A2",
"h. c #B4ABA3",
"j. c #B2AFA8",
"k. c #BCB3AC",
"l. c #BBB3B3",
"z. c #BEBBB4",
"x. c #C3AD98",
"c. c #C3B9AD",
"v. c #C5B6AC",
"b. c #C0B7B2",
"n. c #C1BBB3",
"m. c #CABFB3",
"M. c #CBC4BC",
"N. c #C6C3BE",
"B. c #DDC7B9",
"V. c #D2CABF",
"C. c #E1CBB6",
"Z. c #B8B6C1",
"A. c #C0BEC1",
"S. c #C6C7C9",
"D. c #CDC8C2",
"F. c #D2CEC5",
"G. c #D1CCC8",
"H. c #D3D3CD",
"J. c #DED6CB",
"K. c #DBD1C5",
"L. c #DEDFD5",
"P. c #D2D4DA",
"I. c #D8D7D8",
"U. c #E1D4C4",
"Y. c #E6DBC7",
"T. c #E3DBCD",
"R. c #EEDFCC",
"E. c #E3DDD3",
"W. c #EADED0",
"Q. c #E7DED9",
"!. c #E7E0D6",
"~. c #EDE1D4",
"^. c #E3E2DD",
"/. c #EAE3DC",
"(. c #F3E6D6",
"). c #F1E9DE",
"_. c #DCDCE6",
"`. c #EEECE9",
"'. c #ECE9E4",
"]. c #F2EDE7",
"[. c #F8EDE8",
"{. c #F7F4ED",
"}. c #FCF5EE",
"|. c #EDF5F2",
" X c #F6F7F4",
".X c #FCFBF5",
"XX c #FDFCFA",
/* pixels */
"1 < y a a a a d U G + + @ @ o 3 w y y & % & & : & ",
"} x a x G G G [ ] G y w u t t s t t k f l v k v l ",
"W.*.G o.| U R P U U P B m C V m F c m b b c x b C ",
"U.$.{ 8.a.0.| W W W / ] W W ] ] ] ] ] ] ] ] { / ' ",
"=.%.&.X.>.-.%.=.v.w.$.$.&.=.=.$.&.$.$.%.$.X.$.$.+.",
"(.9.%.$.0.-.| w.~.[.=.{ W V E $.] | | ] ] | ] ] ] ",
"n.r.k.v.a.w.q.@.r./ =./ 2 7 e F h.q.@.w.p.o.3.m.k.",
"^.^.XX}.K.~.V.3.g.g q.C t w 7 8 G.F.d.T.E.p.M.XXXX",
"/.'.Q. XT.Y.|.N.t.x } h A L , w M.n.u.M.b.k.D. X`.",
"!.]./.XXT.Y.|.{.J.a K e.e.X.Y Z k.M.i.n.g.y.<.H.L.",
"F.E.].`.E.U.|.{.[.x | C.e.D S | M.h.3.i.7.5.` S.I.",
"J.).H. XJ.J.^.E.}.I q.R.:...c j./.n.7.f.6.5._ P._.",
"k.m.4.`.s.h.z.c.L.I [ B.;.S c t.l.#.Q 1.<.1.,.P.P.",
"O.%.) u.*.r.3.q.k.P ^ 9.x.T W E J 0 o q q 0 9 N P.",
"( ;.1.4.] <.o.r.2.s j 8 V S p 1 ; 6 - . $ $   6 Z.",
"2.T ` M.K H r.R r 5 9 4 #   # $ ; 6 9 5 O o   6 A.",
"s.Z B J.x a n 0 3 9 6 3 = ; ; ; ; ; = = * $   > l.",
"v.a f ~ : + X ; = 3 3 3 = ; ; ; ; = $ $ # o O ; ! ",
"k % @   % M z * $ ; ; ; = ; ; = $ # # $ ; 6 6 i 6."
};
