/* XPM */
static const char *micro_romlambe[] = {
/* columns rows colors chars-per-pixel */
"25 19 208 2 ",
"   c #000105",
".  c #01030D",
"X  c #06090E",
"o  c #020913",
"O  c #0D0F1A",
"+  c #080B12",
"@  c #0C111B",
"#  c #15131B",
"$  c #051823",
"%  c #181826",
"&  c #0C1532",
"*  c #201E23",
"=  c #1E2B31",
"-  c #3F3F3F",
";  c #212526",
":  c #40362A",
">  c #4D3F36",
",  c #4B4F38",
"<  c #56473D",
"1  c #575737",
"2  c #4C4729",
"3  c #6C4C3D",
"4  c #645639",
"5  c #7B5C3F",
"6  c #383F49",
"7  c #36474F",
"8  c #3C5A65",
"9  c #4D4D46",
"0  c #524B45",
"q  c #56514A",
"w  c #424A57",
"e  c #4A5456",
"r  c #5C5B55",
"t  c #5A5857",
"y  c #6A5848",
"u  c #735B4A",
"i  c #6A5D56",
"p  c #715F55",
"a  c #5E6156",
"s  c #67614E",
"d  c #6B6942",
"f  c #676356",
"g  c #64635B",
"h  c #6B655D",
"j  c #6F6C5D",
"k  c #79695B",
"l  c #79765E",
"z  c #7A624A",
"x  c #4A5E65",
"c  c #695E62",
"v  c #5B6765",
"b  c #636462",
"n  c #696363",
"m  c #676D68",
"M  c #716E62",
"N  c #6D716D",
"B  c #7C7165",
"V  c #72736E",
"C  c #7A726B",
"Z  c #777565",
"A  c #656F70",
"S  c #6E7775",
"D  c #697778",
"F  c #767A72",
"G  c #7D7F7B",
"H  c #787976",
"J  c #824D3D",
"K  c #825140",
"L  c #835D52",
"P  c #8B674C",
"I  c #876C5C",
"U  c #85795B",
"Y  c #947755",
"T  c #A56D4C",
"R  c #946C60",
"E  c #88776A",
"W  c #957866",
"Q  c #807F7A",
"!  c #A97A70",
"~  c #B27E73",
"^  c #AC7B6A",
"/  c #7F8464",
"(  c #79837B",
")  c #81837A",
"_  c #888378",
"`  c #988C7B",
"'  c #9B9271",
"]  c #9A826A",
"[  c #A98774",
"{  c #B78B73",
"}  c #BB9577",
"|  c #AC9671",
" . c #C08B6C",
".. c #546D81",
"X. c #507A92",
"o. c #707A83",
"O. c #657886",
"+. c #798285",
"@. c #778D93",
"#. c #72929F",
"$. c #609CB6",
"%. c #7799A3",
"&. c #76B8C4",
"*. c #4EABCA",
"=. c #76D2FF",
"-. c #868583",
";. c #848C86",
":. c #8B8D8C",
">. c #8B8586",
",. c #938D82",
"<. c #958E89",
"1. c #8E928B",
"2. c #9A9587",
"3. c #9A8E92",
"4. c #859894",
"5. c #989C96",
"6. c #969C9A",
"7. c #919193",
"8. c #A39B8F",
"9. c #A99987",
"0. c #A19C99",
"q. c #A49F92",
"w. c #B19E97",
"e. c #B49988",
"r. c #ACA48F",
"t. c #B7A384",
"y. c #AAA094",
"u. c #B9A899",
"i. c #BAB687",
"p. c #94A1A3",
"a. c #9DA1A6",
"s. c #9DABAE",
"d. c #9EA6A8",
"f. c #8FAAB3",
"g. c #A7A8A6",
"h. c #B7ACA3",
"j. c #B7B2AB",
"k. c #A3ACB0",
"l. c #A7B1B3",
"z. c #ABB3B4",
"x. c #ACB8B8",
"c. c #B4BABB",
"v. c #B2B5B8",
"b. c #C39F89",
"n. c #D19F88",
"m. c #CBA18A",
"M. c #C8A588",
"N. c #D4A58C",
"B. c #C7AA96",
"V. c #D5AE94",
"C. c #D6B99B",
"Z. c #E4B194",
"A. c #C8B9A5",
"S. c #D0BAAC",
"D. c #C6BEBD",
"F. c #C9BABF",
"G. c #D2BFB1",
"H. c #CEC0A5",
"J. c #D3C6A8",
"K. c #C7C2B8",
"L. c #D3CCBB",
"P. c #DECEBF",
"I. c #E0C8AC",
"U. c #E7D1BC",
"Y. c #B9BCC1",
"T. c #CABEC0",
"R. c #BEC5C8",
"E. c #B8CDE0",
"W. c #C2C3C3",
"Q. c #C3C9CB",
"!. c #CBCDCD",
"~. c #C5C6C7",
"^. c #D8CCC3",
"/. c #C3CBD1",
"(. c #C9CED4",
"). c #C8CFD8",
"_. c #CFD2D5",
"`. c #CDD4DA",
"'. c #CEDCDF",
"]. c #D3D9DD",
"[. c #D4D7D5",
"{. c #D6D5C3",
"}. c #E5D8C9",
"|. c #EADDCD",
" X c #E8D6CA",
".X c #E6DDD2",
"XX c #E9E4CB",
"oX c #FFE2C5",
"OX c #ECE1D4",
"+X c #EBE8D5",
"@X c #F6E9D7",
"#X c #CCDAE5",
"$X c #D4DDE3",
"%X c #D4DDE9",
"&X c #DADFE5",
"*X c #DCE2E5",
"=X c #D5E2EA",
"-X c #DCE2E9",
";X c #DEE9F1",
":X c #E6E5E9",
">X c #E4E5E7",
",X c #F6EBE2",
"<X c #F9EDE4",
"1X c #FAF3EB",
"2X c #F7F1E4",
"3X c #FEFAF3",
"4X c #FBFFFF",
"5X c #E1EBF5",
/* pixels */
"XX{.g.a.d.5.1.,.H m N v S S v A V H >.G ) 0.7.p.p.",
"+X2X~.R./.Q.W.!.W.c.z.l.z.k.g.z.x.Y.W.c.W.W._.'.&X",
"+X[.Q.Q./././.]._.`.$X=X=X=X-X*X=X%X5X;X*X:X-X=X%X",
"L.K.~.R.(.).`.>X`.-X-X].$X$X#X%X=X#X$X=X$X*X).;X*X",
"< h 5.( F :.g.j.k.W.8.` h.j.!.).!._.`.Q.Q.!.$XQ.c.",
"z i f s Z n n Z f y [ V.m.W B V C -.F b n V F 9 q ",
"H.P.K.| A.D.c 8.u.W m.N.N.b.y ,.8.) N <.C f j : > ",
"t.J.9.U l 3.>.+X|.W 3 R R u k .XOXK.:.j.q.` XXA.r.",
"2 1 / ' 4 Q l.@X@X} T n.{ P W 3X4X.X6.<.4 d | i.J.",
"< p k I E w.^.h.A.B.^ ~ ! [ e.P.L.^.D.y.s , 1 l U ",
"q g f f a U J.g.G i L J K I u.E u.a.-.B h 9 f 2._ ",
"g r h M C M.oXT.S 0 I P 5 ] u.< S.E.a.i b g r C 9 ",
"M 9 C _ 2.e.G.F.H W M.z u t.B.E A.#Xc.,.+.e t N t ",
"F ( ) M m 4.4.D - [ Z.m.B.M.B.b h.f.@.7.G ;.r g -.",
"5.1.E e.o...7 $ e  X{ { { V.,Xw 6 O.#.A e m y.) b ",
"g.;.Y } w & # . +.3XU.C.I.@X1Xb # ; 8 @.v e 6.p.D ",
"g.-.v.>.O # @ . <.1XOX@X@X|.1X_   % % t 4.x -.s.S ",
"v.!.:Xt   + O . h.,X}.|.|.}.<Xh.o O o = &.$.x s.%.",
"*X*XW.*   X + @ K.,X|.|.|.|.<X^.@   . $ *.=.X.+.f."
};
