/* XPM */
static const char *micro_cgeoffra[] = {
/* columns rows colors chars-per-pixel */
"25 19 184 2 ",
"   c #0E0500",
".  c #0D0805",
"X  c #140A03",
"o  c #150E0A",
"O  c #190D0B",
"+  c #160602",
"@  c #12140F",
"#  c #180D13",
"$  c #151114",
"%  c #1D1210",
"&  c #1A1817",
"*  c #231506",
"=  c #2A1401",
"-  c #24170B",
";  c #3F1E0B",
":  c #2D1C16",
">  c #291816",
",  c #3A2516",
"<  c #282216",
"1  c #181D23",
"2  c #1E2129",
"3  c #283038",
"4  c #36373D",
"5  c #2D272C",
"6  c #411B04",
"7  c #4B2D0B",
"8  c #743612",
"9  c #4B2F2B",
"0  c #5F3D22",
"q  c #5C3E34",
"w  c #61382B",
"e  c #594D3F",
"r  c #6E492F",
"t  c #7C512F",
"y  c #734C32",
"u  c #1E3954",
"i  c #2B3641",
"p  c #2E3B43",
"a  c #313B44",
"s  c #413F42",
"d  c #344355",
"f  c #3E5574",
"g  c #5B534C",
"h  c #5D5652",
"j  c #444349",
"k  c #6A5A4C",
"l  c #68584A",
"z  c #695E53",
"x  c #6A5C55",
"c  c #735F54",
"v  c #775B45",
"b  c #6D6155",
"n  c #6A615A",
"m  c #726355",
"M  c #73655B",
"N  c #78675A",
"B  c #73695F",
"V  c #7A6A5C",
"C  c #7E6E54",
"Z  c #4A5668",
"A  c #525D6F",
"S  c #445F7D",
"D  c #756B62",
"F  c #7B6E64",
"G  c #706760",
"H  c #7E7164",
"J  c #7C736A",
"K  c #77726C",
"L  c #696864",
"P  c #83522A",
"I  c #984C3C",
"U  c #956034",
"Y  c #87654A",
"T  c #8C6654",
"R  c #816D5E",
"E  c #826955",
"W  c #A26449",
"Q  c #B26E57",
"!  c #A97559",
"~  c #81766B",
"^  c #8C7B6C",
"/  c #877869",
"(  c #917E6D",
")  c #857D73",
"_  c #8A7D73",
"`  c #887F78",
"'  c #A97963",
"]  c #BD815F",
"[  c #8A8277",
"{  c #8B847C",
"}  c #938374",
"|  c #93867A",
" . c #968A7D",
".. c #9C8B7C",
"X. c #B78165",
"o. c #A38E7E",
"O. c #BB8771",
"+. c #C89274",
"@. c #CB886C",
"#. c #385B81",
"$. c #466183",
"%. c #597491",
"&. c #6E7E8B",
"*. c #717B89",
"=. c #5A7AA0",
"-. c #5981A4",
";. c #5C89B0",
":. c #618EB8",
">. c #6895B9",
",. c #7497BD",
"<. c #6498C0",
"1. c #6CA3C7",
"2. c #75A5C3",
"3. c #8E8985",
"4. c #958C83",
"5. c #9D8D82",
"6. c #9A8F89",
"7. c #9D9085",
"8. c #9C938C",
"9. c #8F9094",
"0. c #989491",
"q. c #A29384",
"w. c #A1948B",
"e. c #A99686",
"r. c #A39E9C",
"t. c #A39D94",
"y. c #A4A39B",
"u. c #ABA09E",
"i. c #ACA394",
"p. c #B4A89A",
"a. c #869BB0",
"s. c #95A1AD",
"d. c #AEABA9",
"f. c #B6ACA5",
"g. c #BEB7AD",
"h. c #AAB3B7",
"j. c #ABB4BB",
"k. c #B6BCBF",
"l. c #B9BDBA",
"z. c #B5B7B4",
"x. c #EDAC8C",
"c. c #E6AD98",
"v. c #C3BCAB",
"b. c #D5B5A0",
"n. c #C1BEB6",
"m. c #ECBFA0",
"M. c #BEC0BD",
"N. c #C9C3B9",
"B. c #D1C8BD",
"V. c #8BADC8",
"C. c #B1B9C4",
"Z. c #BCC6CE",
"A. c #BFC8CF",
"S. c #B9C7D3",
"D. c #C3C4C2",
"F. c #C8C7C3",
"G. c #C9C8C5",
"H. c #C9CCC7",
"J. c #D3CDC9",
"K. c #D5CDC2",
"L. c #CFD1CE",
"P. c #D2D2CF",
"I. c #DAD3CD",
"U. c #C4CED3",
"Y. c #CCD4D8",
"T. c #DFD4D8",
"R. c #E1DCD6",
"E. c #E1E2DF",
"W. c #E9E3DC",
"Q. c #CFD9E2",
"!. c #C6DFF3",
"~. c #C5E2F4",
"^. c #E6E6E3",
"/. c #E8E7E2",
"(. c #EDECE6",
"). c #EFEEE9",
"_. c #F2EFEB",
"`. c #F1F0EB",
"'. c #F8F5EC",
"]. c #EEFFFF",
"[. c #F5F6F6",
"{. c #FEFCF6",
"}. c #FEFEFD",
"|. c #FFF7F5",
/* pixels */
"k z n g g h K d.W.}.}.g.....q.v.B.N.B.v.[ i.p...i.",
"b z z g ) I.{.{.'.J.r.~ | w.u.~ H } |  .~ w.q.q.e.",
"M F D g f.{.N.t./ V c V N x F V R N m b l m z k l ",
"m B B n G F D B R R ^ N ~ _ V C V H ) ) B ) { { [ ",
"V F D D D D ~ F K ~ l , - e { y.J.R.(.).y.P.E.P.l.",
"/ V J J J J H ^ { k r X.! 6 _ }.}.}.}.}.l.[.}.}.}.",
"/ ^ / ) ) ` _ ^ ^ r m.x.@.W ; T.}.[.}.}.M.^.}.}.}.",
"( ^ _ ) ` ) _ | E E b.' ] U 7  .}.}.}.}.N._.}.}.}.",
"} } ^ ` 4._ ^ 5.c T O.T ! w q m }.}.}.}.F.).}.}.}.",
"} ..} { 3.4.| 8.V Y c.! @.t t , `.}.}.}.G./.}.}.}.",
"..o...6.4.| | g.^ v +.W Q 8 P * n.}.}.}.F.`.}.}.}.",
"5.o...4.4.7.| K...9 +.@.I 8 w X t.}.[.}.F./.}.}.}.",
"8.5.7.8.4.7. .W.f.+ Y c.W r >   8.}.}.}.F.^.}.}.}.",
"q.e.e.7.7.7.w._.u.= * y 0 = o X 8.}.[.}.L.(.[.}.}.",
"e.o.q.8.0.r.9.*.4 * % - @ o < O F |.}.}.H.E.}.}.}.",
"L f.G.A.S.a.%.#.p % # 2 u 5 : - 5 h d.L.l.l.D.k.z.",
"& N.}.!.2.1.=.$.a O . i $.3 % % : s Z &.Z.k.h.j.h.",
"$ n.].V.>.<.,.-.3 O O i S 2 o O > j A Z s.Y.U.Z.U.",
"$ z.~.2.;.:.>.1.d   O 1 f 3   O X 4 Z d &.C.A.Q.Y."
};
