/* XPM */
static const char *micro_sfroidev[] = {
/* columns rows colors chars-per-pixel */
"25 19 190 2 ",
"   c #14130E",
".  c #1C1E1D",
"X  c #1E2B11",
"o  c #3B250E",
"O  c #28281E",
"+  c #222118",
"@  c #32201E",
"#  c #212422",
"$  c #272A25",
"%  c #2C2A24",
"&  c #272928",
"*  c #2A2D2B",
"=  c #2A2521",
"-  c #312E29",
";  c #2D312E",
":  c #33342F",
">  c #2D3432",
",  c #2D3935",
"<  c #2E3939",
"1  c #263835",
"2  c #313633",
"3  c #333A35",
"4  c #373538",
"5  c #333D3C",
"6  c #3D3E3A",
"7  c #3B343C",
"8  c #42382E",
"9  c #413F33",
"0  c #6E3C23",
"q  c #2B443A",
"w  c #36403F",
"e  c #5F411B",
"r  c #7E471F",
"t  c #41423C",
"y  c #4A462B",
"u  c #6D4428",
"i  c #784324",
"p  c #6E5133",
"a  c #785535",
"s  c #393C41",
"d  c #344743",
"f  c #3A4342",
"g  c #364945",
"h  c #3A4C4B",
"j  c #384B47",
"k  c #3C7D5F",
"l  c #4F4B45",
"z  c #404A4B",
"x  c #4E554D",
"c  c #535552",
"v  c #7F5D41",
"b  c #615A52",
"n  c #74665C",
"m  c #766A5E",
"M  c #796C5E",
"N  c #696A65",
"B  c #756C64",
"V  c #796D62",
"C  c #7C7164",
"Z  c #7B756C",
"A  c #7C7A72",
"S  c #7E7A79",
"D  c #8B5338",
"F  c #985535",
"G  c #A15933",
"H  c #98623C",
"J  c #8F6649",
"K  c #966441",
"L  c #8B6854",
"P  c #996A57",
"I  c #9D7C5F",
"U  c #A3775A",
"Y  c #837465",
"T  c #827669",
"R  c #84796D",
"E  c #8C7B6C",
"W  c #8B7A66",
"Q  c #837D74",
"!  c #8B7E72",
"~  c #B07E67",
"^  c #9E896A",
"/  c #878070",
"(  c #8E8171",
")  c #8D877A",
"_  c #938273",
"`  c #978078",
"'  c #9A8A7C",
"]  c #9B8873",
"[  c #A3826F",
"{  c #A28C7C",
"}  c #A88A70",
"|  c #C38463",
" . c #D79879",
".. c #7B8285",
"X. c #888782",
"o. c #85898B",
"O. c #938981",
"+. c #998B81",
"@. c #979086",
"#. c #9C948B",
"$. c #94958F",
"%. c #9E9B94",
"&. c #A29386",
"*. c #A69789",
"=. c #A3988D",
"-. c #BB9B87",
";. c #A69D95",
":. c #A29E9A",
">. c #AB9F93",
",. c #90A996",
"<. c #ADA49B",
"1. c #B2A69D",
"2. c #B8A698",
"3. c #AAA8A4",
"4. c #B2ABA1",
"5. c #B4AFAB",
"6. c #B7B2AC",
"7. c #AAABB0",
"8. c #ACB3B8",
"9. c #B7B9B5",
"0. c #C89788",
"q. c #D09188",
"w. c #D09E85",
"e. c #D7A38D",
"r. c #C5A692",
"t. c #D7A999",
"y. c #D6A69A",
"u. c #E0AB99",
"i. c #E3B19A",
"p. c #F4B39F",
"a. c #D5A5A1",
"s. c #C9B1A4",
"d. c #DAB7A5",
"f. c #C3BDB5",
"g. c #F8BCA2",
"h. c #EABBA7",
"j. c #C7C7BD",
"k. c #C9C5BD",
"l. c #CAC5BB",
"z. c #F5C5AF",
"x. c #E9C6B8",
"c. c #F5DABD",
"v. c #B9BEC2",
"b. c #B9C2C6",
"n. c #C5C6C1",
"m. c #CBCBC4",
"M. c #C1C5CC",
"N. c #C6C9CD",
"B. c #CDCDCC",
"V. c #D1CECC",
"C. c #D3D2CD",
"Z. c #D7D1C5",
"A. c #C3CCD3",
"S. c #C3C7D0",
"D. c #CED2D1",
"F. c #D3D4D3",
"G. c #D6D8D7",
"H. c #DBDAD1",
"J. c #DEDDD8",
"K. c #FFD7C2",
"L. c #F0D3CD",
"P. c #EAD7D0",
"I. c #ECDCD4",
"U. c #DAE1DA",
"Y. c #E5E3DD",
"T. c #F6E5DD",
"R. c #D2DBE4",
"E. c #D5E2E5",
"W. c #DAE1E4",
"Q. c #D7E5E8",
"!. c #E3E5E3",
"~. c #E7E8E4",
"^. c #ECEBE6",
"/. c #EAEDEB",
"(. c #E7E7E7",
"). c #F0EEEA",
"_. c #EFF0EA",
"`. c #F5F1EA",
"'. c #FDF5EE",
"]. c #F9F4E9",
"[. c #EFEFF1",
"{. c #E3EEF4",
"}. c #EBF1F3",
"|. c #E7F2F6",
" X c #F5F5F4",
".X c #F9F7F4",
"XX c #FDFBF6",
"oX c #F4F7FA",
"OX c #F5FCFE",
"+X c #FEFEFD",
/* pixels */
"Y Y M n Z B V n B (.+XXX`.Z.1.` ( ' E Y Y _ _ E *.",
"T Y Y V B B V M Z f.5.@./ V C T Y Y C T V m V n m ",
"%.Q T R C T C C A O.+.*.E W ( Z T R ) O.#.;.;.Q <.",
"C.:.Q _ E E R Q 4.2.s.x.r.} ] ) #.f.`.XX+X+X.X9.+X",
"F.F.:.! _ _ ! %.l.d.h.t.w.U -.'.H.Y.+X+X+X+X X9.+X",
"%.(.B.O.` ] ( 4.T.K.g.u.~ K I `.B.J.+X+X+XoXXXB.+X",
"$.D.}.5.' { ` <.P.i. .e.J H J V.C.Y.+X+X+X+X X9.+X",
"j.9.OXB.+.{ { >.P.w.| P u r I ).H.~.+X+X+X+X Xm.+X",
"^.8.OX(.#.&.+.;.c.z.p.F G F [ XXk.).XX+X+X+X).k.+X",
" Xb.OX(.;.*.*.=.x.y.0.i r D 2.+Xk.`.+X+X+X+X~.j.+X",
"XXN.OX X1.&.*.#.s.a.q.0 e ^ '.+XC.^.+XXXXX+X_.m.+X",
"+XN.OX X4.&.*.=.;.L.d.v a L I.OX9.^.+X+X+X+X~.n.+X",
" XN.+X X<.=.<.6.,.1.-.u p o 8 U.C.XXXX+XXX+XF.n.+X",
"[.M.oXOX4.;.Z c k Q 0.P y X + @ N !.+XXX/.F.F.G.oX",
"OXW.OX/.N l 3 > q x b 9 O = - 2 2 6 n.XXA 6 o.}.E.",
"+XW.|.}.N t f h s f 1 1 < 7 4 q 6 * % ^.X.: 3.+X{.",
"+XE.A.M.o.d j z f w 5 3 2 2 3 2 * & + l B O.S 7.W.",
"OXE.b.M...g g f f 5 3 , > > ; * . & $ % O.'.V.8.v.",
"OXQ.8.S...j d 5 5 < , , ; * & # # # ;   Q .X!.R.A."
};
