/* XPM */
static const char *micro_bgonon[] = {
/* columns rows colors chars-per-pixel */
"25 19 196 2 ",
"   c #010202",
".  c #0B0500",
"X  c #06070C",
"o  c #0A070E",
"O  c #04090B",
"+  c #0B0D0E",
"@  c #0C0807",
"#  c #140F0A",
"$  c #0C100F",
"%  c #19190F",
"&  c #0B0C12",
"*  c #060F14",
"=  c #110C12",
"-  c #081012",
";  c #0E181C",
":  c #131319",
">  c #12191C",
",  c #1A1C1B",
"<  c #111516",
"1  c #201712",
"2  c #201E1C",
"3  c #27271F",
"4  c #37291E",
"5  c #0D1725",
"6  c #161A21",
"7  c #191E24",
"8  c #101E29",
"9  c #1D2225",
"0  c #14222F",
"q  c #182631",
"w  c #1F2D38",
"e  c #142538",
"r  c #222326",
"t  c #282520",
"y  c #262B2B",
"u  c #2C2E2B",
"i  c #222629",
"p  c #362E28",
"a  c #2F302B",
"s  c #323633",
"d  c #373939",
"f  c #413B37",
"g  c #4B3829",
"h  c #44463D",
"j  c #4C443C",
"k  c #564639",
"l  c #233249",
"z  c #333D46",
"x  c #233D58",
"c  c #34454F",
"v  c #3B4756",
"b  c #354552",
"n  c #384D60",
"m  c #39536A",
"M  c #474842",
"N  c #494A48",
"B  c #554C45",
"V  c #585A4F",
"C  c #505143",
"Z  c #404C5C",
"A  c #465052",
"S  c #575A51",
"D  c #5B5756",
"F  c #695A49",
"G  c #675952",
"H  c #765C56",
"J  c #636156",
"K  c #6E6455",
"L  c #6B645A",
"P  c #6B6B5E",
"I  c #63625E",
"U  c #75675D",
"Y  c #4A5162",
"T  c #475565",
"R  c #535C6D",
"E  c #475F77",
"W  c #5B616D",
"Q  c #5D6A77",
"!  c #576674",
"~  c #6C6B66",
"^  c #6E7063",
"/  c #727165",
"(  c #7A726A",
")  c #7C7A6E",
"_  c #616A73",
"`  c #6E777E",
"'  c #777872",
"]  c #7E7D7B",
"[  c #7B7E73",
"{  c #806E58",
"}  c #89735E",
"|  c #837262",
" . c #8D796E",
".. c #93796C",
"X. c #807772",
"o. c #857D75",
"O. c #A07E72",
"+. c #838174",
"@. c #83837B",
"#. c #8C887D",
"$. c #9B8A7B",
"%. c #A88A7F",
"&. c #A48A7D",
"*. c #677580",
"=. c #707E89",
"-. c #607890",
";. c #77848F",
":. c #668099",
">. c #798696",
",. c #758BA2",
"<. c #868682",
"1. c #8A8A8C",
"2. c #928981",
"3. c #8E9085",
"4. c #96948A",
"5. c #9A988E",
"6. c #9B9283",
"7. c #838F99",
"8. c #868B91",
"9. c #969593",
"0. c #9E9D92",
"q. c #999995",
"w. c #A68E82",
"e. c #A59589",
"r. c #B49E87",
"t. c #A59890",
"y. c #A6A69C",
"u. c #AEA698",
"i. c #BCA39A",
"p. c #BDA495",
"a. c #8692A0",
"s. c #869DB3",
"d. c #9CA2A3",
"f. c #98A2AC",
"g. c #8DA6BC",
"h. c #98ACBD",
"j. c #A9A9A3",
"k. c #BEABA3",
"l. c #B1ADA2",
"z. c #B4B4AD",
"x. c #BAB3AD",
"c. c #B4A9B1",
"v. c #B8B7B5",
"b. c #BABAB0",
"n. c #C7AA9A",
"m. c #CDB8A7",
"M. c #C6B8A8",
"N. c #D3BAA4",
"B. c #C0B7B0",
"V. c #C2BFB0",
"C. c #CBB6B1",
"Z. c #CCC0BD",
"A. c #CBC6B9",
"S. c #DDC7B0",
"D. c #D2CDBE",
"F. c #DAC9B5",
"G. c #A5B6C8",
"H. c #B7BEC6",
"J. c #C9BCC5",
"K. c #BCC7CD",
"L. c #B7CADB",
"P. c #CBCAC3",
"I. c #CDCACA",
"U. c #C8C5C2",
"Y. c #DACECC",
"T. c #D8D2C6",
"R. c #C9D0D6",
"E. c #DCDBD9",
"W. c #E8D2C7",
"Q. c #F5DCC6",
"!. c #E2DCD3",
"~. c #E2DFDA",
"^. c #E7E4DA",
"/. c #F1E4DC",
"(. c #DAE3EA",
"). c #EBE3E3",
"_. c #EDE9E4",
"`. c #EBE9EC",
"'. c #E3E6E7",
"]. c #FAEFEB",
"[. c #F4ECE3",
"{. c #EEF0ED",
"}. c #F8FDE7",
"|. c #F6F3E9",
" X c #FFF7EA",
".X c #FFFCED",
"XX c #F5F8E7",
"oX c #E6EEF2",
"OX c #EDECF0",
"+X c #EBF4FB",
"@X c #F4F4F3",
"#X c #FDFBF6",
"$X c #F5F7F9",
"%X c #F5FCFD",
"&X c #FDFEFD",
"*X c #FAF7F7",
/* pixels */
"#.T./. X.XD.A.D./.].#X_.] @.f z.&X`.J.*X%X%X%X&X}.",
"L +.!..X^.V.D.!.[.[.!.P.<.<.B I.&XH.c.&X&X%X%X$X}.",
"L j 2.|.^.y._.#X#X#XP.5.@.' <.*X%X`.OX&X&X%X%XoX}.",
"4.5.P #.|.b.y.P.P.b.3.^ J S j.#X$X&X&X&X&X&X%X$Xz.",
"M @.@.P ) 5.4./ ( e.6.K C h ~ #X&X&X*X).].#X'.N % ",
"y s ~ #./ +.0.P G w.$.| K L 9.*X&X*X{.~.Z.#XX.. J ",
"i u a N [ P C u.....n.p.| o.Z.`.&X&X*X_.k.W.e.4 F ",
"r r u u h S V L e.%.O.w. .t.).@X&XE.v.x.i.&.p.m.g ",
"7 7 i y d s s 2 p k.i.H U Y.Y.I.&X_.^.[.M.} N.Q.{ ",
"6 9 9 9 y 9 $ d f 2.C.H B G D 9.&X*X*X|.M.F.S.r.F ",
"> 7 7 > 9 <   I U.( j #   @ 2 1.&X$X`._.l.u.$.k . ",
"> 7 6 & : +   a !.o.t     O + ] &X&X`.'.^.z.B.1 # ",
"; > : o = .     L 0.d   O   & <.&X&X$XOX@X&XU., d ",
"> O X = o       3 j.M > O -   q.&X&X$X+XoX%X8.6 W ",
"+ O O & X       , d.R.(.` O   ] &X&X%X%X%X%X7.Y R ",
"O X & &           d.%X+X%X_ 9 N %X%XoXK.f.;.Q v Y ",
"X X & X           A +XH.G.! T h.L.G.>.v w q 8 q Z ",
"X O & X           ; z b n ,.h.g.:.E l 5 0 c Q 7.a.",
"X O & X           * 5 T s.s.-.m x e l R =.;.*.! R "
};
