/* XPM */
static const char *micro_tat_nguy[] = {
/* columns rows colors chars-per-pixel */
"25 19 199 2 ",
"   c #0D0B0C",
".  c #11100E",
"X  c #151515",
"o  c #181617",
"O  c #171518",
"+  c #1A1A1B",
"@  c #1C1B17",
"#  c #261E1E",
"$  c #3B2B1E",
"%  c #232325",
"&  c #262A2C",
"*  c #322E28",
"=  c #373026",
"-  c #38362C",
";  c #302E31",
":  c #273035",
">  c #293132",
",  c #2D363C",
"<  c #343333",
"1  c #383637",
"2  c #373833",
"3  c #343C3B",
"4  c #3E3D39",
"5  c #3E3A37",
"6  c #44362B",
"7  c #413C36",
"8  c #384239",
"9  c #44433B",
"0  c #4A443C",
"q  c #4E4539",
"w  c #51493E",
"e  c #2B3841",
"r  c #3B3D42",
"t  c #393F4B",
"y  c #3C4342",
"u  c #3F4843",
"i  c #3E464D",
"p  c #3F4650",
"a  c #444543",
"s  c #4B4742",
"d  c #444E46",
"f  c #4C4A46",
"g  c #444C4C",
"h  c #4C4C4A",
"j  c #534C45",
"k  c #594E43",
"l  c #534E4A",
"z  c #415049",
"x  c #4B554D",
"c  c #4F594D",
"v  c #4D5442",
"b  c #5C5146",
"n  c #56514C",
"m  c #5D544B",
"M  c #4A4E55",
"N  c #464D57",
"B  c #4D5451",
"V  c #4F5950",
"C  c #465059",
"Z  c #4F5958",
"A  c #545551",
"S  c #535B55",
"D  c #5E5B53",
"F  c #585F58",
"G  c #54585B",
"H  c #644C40",
"J  c #61554B",
"K  c #655B4E",
"L  c #6C5D4E",
"P  c #6A5446",
"I  c #625A52",
"U  c #685F58",
"Y  c #625F5A",
"T  c #506056",
"R  c #5A625C",
"E  c #6C6256",
"W  c #676558",
"Q  c #6A6459",
"!  c #726153",
"~  c #72665A",
"^  c #75695D",
"/  c #7A6C5D",
"(  c #7C6055",
")  c #7E715E",
"_  c #546060",
"`  c #5C6868",
"'  c #5B6862",
"]  c #626A64",
"[  c #6C6867",
"{  c #646C6F",
"}  c #736B62",
"|  c #7A6D61",
" . c #756D6A",
".. c #7D7264",
"X. c #7D746A",
"o. c #6E7870",
"O. c #787575",
"+. c #806F5F",
"@. c #8A705F",
"#. c #887765",
"$. c #837B6E",
"%. c #897C6D",
"&. c #847664",
"*. c #927868",
"=. c #867D72",
"-. c #957E74",
";. c #79827D",
":. c #94836F",
">. c #8A8277",
",. c #948B7B",
"<. c #998776",
"1. c #96917E",
"2. c #AB927E",
"3. c #7E8880",
"4. c #858586",
"5. c #8A8581",
"6. c #928F8D",
"7. c #968C84",
"8. c #9A9387",
"9. c #93968D",
"0. c #8A8B90",
"q. c #969495",
"w. c #949897",
"e. c #9B9A9B",
"r. c #9A9995",
"t. c #A39387",
"y. c #AB9B8E",
"u. c #A89887",
"i. c #A39C94",
"p. c #A09F9B",
"a. c #B19D92",
"s. c #9EA095",
"d. c #AFA89E",
"f. c #B7A899",
"g. c #B0B29D",
"h. c #9E9FA3",
"j. c #A6A8A7",
"k. c #ABABA3",
"l. c #A7A3A5",
"z. c #B2ACA0",
"x. c #BBB3A1",
"c. c #B6B6AD",
"v. c #ABACB0",
"b. c #B4B3B3",
"n. c #BAB7B0",
"m. c #BDB9B3",
"M. c #BEBAB9",
"N. c #CCAC95",
"B. c #CCB395",
"V. c #C3A688",
"C. c #C4B7A6",
"Z. c #CBBFAF",
"A. c #C2BDB9",
"S. c #C5C3BD",
"D. c #CAC4BB",
"F. c #CBC6B8",
"G. c #D0C6BD",
"H. c #C3C3C5",
"J. c #CDC7C6",
"K. c #CDC9C6",
"L. c #C7C7CF",
"P. c #C7C8CD",
"I. c #D3CDC9",
"U. c #D3CCC4",
"Y. c #DED7C7",
"T. c #D6D1CC",
"R. c #DDD4CB",
"E. c #DCDACD",
"W. c #D4D2D1",
"Q. c #DCD6D2",
"!. c #D8D7DD",
"~. c #D9D8DD",
"^. c #F2DDCC",
"/. c #E3DBD3",
"(. c #E8DCD0",
"). c #EAE2CF",
"_. c #E4E1DD",
"`. c #EBE3D9",
"'. c #EEE8D8",
"]. c #ECE3D4",
"[. c #DCDCE4",
"{. c #EAE6E3",
"}. c #EFE8E2",
"|. c #E7E8EA",
" X c #ECECED",
".X c #E4E3E8",
"XX c #F4ECE5",
"oX c #EDF0E7",
"OX c #F3F2EE",
"+X c #FAF6EF",
"@X c #FCF2E6",
"#X c #F6F5F2",
"$X c #FFFAF7",
"%X c #FCFBF5",
"&X c #FFFEFB",
"*X c #FCFFF9",
"=X c #FFFEFE",
"-X c #FCFDFE",
";X c #F7F9F6",
/* pixels */
"9 0 w w m I j q 9 4 4 4 5 a a a f l f f h a f l A ",
"7.} J E Q U I b j j n j n n j 0 j D m s 0 j l j I ",
"t.y.u.~ J w J k b b m m k m k K J m m m m J b b J ",
"L +./ / ..=.^ ^ / | | X...^ &.^ | | | ^ / / ^ ..| ",
"#.:.#.) %.(.].,.| ..E q E ..| | | / | / / / / ^ ^ ",
"..<.......$.8.$.~ w J ! $ J X.} } | ~ ^ ~ ..X.~ E ",
"/.z.~ i.i.i.} = 7.J y.^.f.6 I.OXK.T./.R.8.U.%XT.,.",
"&XA.m.&XI.J.6.7 D.7.-.u.<.! R.;XW.&X+X+Xn.{.&X;X).",
"=Xx.F.*X-XW.X.0 g.f.N.V.B.2.XXoXc.+X}._.S._.&X#X`.",
"=Xx.D.&X-X-X=.* S.R.-.*.@.a.$X Xn.XXQ.{.p.S.=X X'.",
"=XG.S.&X-X=Xn.5 {.$X-.( H G.%X.Xb.XXQ.J.6.j.|. XE.",
"$Xz.S.*XOX=XF.s {.s.E P ! W c.+Xb.{.I.K.q.e.|.[.H.",
"@X,.z.Y.`._.F.9 r.x W / K v c 9.w.W.M.M.4.b.P.L.H.",
"C.t.d.C.Z.A.k.D B a A f - 9 x R { G ; 1 1 < h.!.q.",
"u.1.5.f.%.l.3.] _ h A y u R ' Z C M & % < % 4.~.e.",
"u.- k.d.k 0.y ` ' B h x T F S z e N r O o . q.b.e.",
">.# q.Y 2 M t i S S ;.o.c V S 3 , i y + X . r.{.v.",
"0 #   @ 2 r i , d x ] R x x x 3 : 3 3 % X . [ l.q.",
"* < 1 O.f r g & 8 d x d x x g 3 > > 3 & X o h O. ."
};
