/* XPM */
static const char *micro_adelattr[] = {
/* columns rows colors chars-per-pixel */
"25 19 194 2 ",
"   c #050404",
".  c #0B0B0B",
"X  c #0C0602",
"o  c #110907",
"O  c #14130F",
"+  c #141210",
"@  c #1B1613",
"#  c #1C1A1B",
"$  c #201B18",
"%  c #281F18",
"&  c #241B14",
"*  c #2B241E",
"=  c #392518",
"-  c #201E21",
";  c #242425",
":  c #2E2A24",
">  c #27252A",
",  c #332B25",
"<  c #382C2C",
"1  c #3A322C",
"2  c #37342D",
"3  c #343234",
"4  c #3E3832",
"5  c #3D3630",
"6  c #40372E",
"7  c #4D3D2E",
"8  c #433732",
"9  c #433933",
"0  c #483F36",
"q  c #433E3A",
"w  c #4A3E3A",
"e  c #44413D",
"r  c #4B423B",
"t  c #4B4135",
"y  c #53483F",
"u  c #5D4C3D",
"i  c #54463A",
"p  c #3C3B40",
"a  c #4C4542",
"s  c #484642",
"d  c #504740",
"f  c #554B43",
"g  c #594F46",
"h  c #5D534B",
"j  c #59575A",
"k  c #585657",
"l  c #624D48",
"z  c #6A5746",
"x  c #6F504E",
"c  c #6B5A4E",
"v  c #635449",
"b  c #645B53",
"n  c #6C5E53",
"m  c #6C635A",
"M  c #746354",
"N  c #75665C",
"B  c #7C6C5D",
"V  c #76685B",
"C  c #6F6963",
"Z  c #6B696F",
"A  c #68666B",
"S  c #7A6C64",
"D  c #7C6F6F",
"F  c #746968",
"G  c #7B726E",
"H  c #7D7465",
"J  c #676F71",
"K  c #716F74",
"L  c #787679",
"P  c #816D5D",
"I  c #926C5C",
"U  c #86705B",
"Y  c #806E60",
"T  c #837263",
"R  c #85766A",
"E  c #887668",
"W  c #83796A",
"Q  c #8B7A6C",
"!  c #897667",
"~  c #927567",
"^  c #937E6C",
"/  c #927C67",
"(  c #8A7D75",
")  c #857C75",
"_  c #947E70",
"`  c #97826F",
"'  c #8C8173",
"]  c #85837C",
"[  c #948272",
"{  c #998472",
"}  c #9B8976",
"|  c #91827D",
" . c #9C887B",
".. c #AC8F7F",
"X. c #A68B79",
"o. c #A7917C",
"O. c #B6937F",
"+. c #767E80",
"@. c #837C83",
"#. c #7E8185",
"$. c #818181",
"%. c #8C8583",
"&. c #8F8882",
"*. c #82848A",
"=. c #8F8C8F",
"-. c #87878A",
";. c #958C84",
":. c #91888B",
">. c #8E938C",
",. c #9B9389",
"<. c #8A8E91",
"1. c #939295",
"2. c #9B9493",
"3. c #98979C",
"4. c #989999",
"5. c #A29283",
"6. c #A2948B",
"7. c #AC9887",
"8. c #B19780",
"9. c #B29E8C",
"0. c #A29897",
"q. c #AC9E92",
"w. c #A59D9A",
"e. c #AC9F99",
"r. c #B6A089",
"t. c #BAA08F",
"y. c #AAA39C",
"u. c #B5A392",
"i. c #BFA290",
"p. c #B1A69B",
"a. c #BCB19F",
"s. c #9E9FA4",
"d. c #9BA0A3",
"f. c #A4A3A6",
"g. c #A7A8A3",
"h. c #AEAAAC",
"j. c #B2A9A4",
"k. c #B3ACAA",
"l. c #B8AAA3",
"z. c #B7B0A0",
"x. c #B7B4AF",
"c. c #BBB2AD",
"v. c #B1AFB0",
"b. c #B5B4B6",
"n. c #BCBBBC",
"m. c #B9B6B6",
"M. c #C0AF9D",
"N. c #D2A794",
"B. c #C4B3A3",
"V. c #C3B7AE",
"C. c #CABCA9",
"Z. c #C2BBB5",
"A. c #C3B9BA",
"S. c #CDC2AD",
"D. c #CAC2BD",
"F. c #CCC9B8",
"G. c #D4CDBD",
"H. c #BDBDC1",
"J. c #C3C4C4",
"K. c #CBC5C2",
"L. c #CAC9CA",
"P. c #C9C8C8",
"I. c #D0C6C7",
"U. c #D3CBC1",
"Y. c #D6CFCB",
"T. c #DBCEC6",
"R. c #DBD1CE",
"E. c #DCD8CF",
"W. c #D4D3CF",
"Q. c #D0C9D0",
"!. c #CDD3DA",
"~. c #D3D2D2",
"^. c #DBDAD4",
"/. c #DBD7DD",
"(. c #DBDADA",
"). c #D6D8D2",
"_. c #E3DBCF",
"`. c #E3DCD3",
"'. c #E3DDDA",
"]. c #DCE1DB",
"[. c #EDE2D9",
"{. c #E9EADC",
"}. c #F2E8DF",
"|. c #FBEBDE",
" X c #DBDFE0",
".X c #E6E5EE",
"XX c #EFEBE8",
"oX c #E6E5E0",
"OX c #F3EDE5",
"+X c #FBF1E6",
"@X c #F7F0E8",
"#X c #F9F6EA",
"$X c #FEFDFC",
"%X c #F4F9F3",
/* pixels */
"r 0 r 4 1 9 5 1 0 h f 8 e k s k ( m b a a d a r d ",
"1 & * , , , , , 9 S 1 X X O O o , 1 1 @ + @ @ $ @ ",
"W b 6 r h m b m R N r , 2 : , 1 1 : q a e e a q e ",
"[.l.n n R M n M z V n h g h g y f f f y y f y f f ",
"|.B.Y [ o.9.{ P B V V S S n N R T T T T B Y Y B P ",
"7. .{ ^ / o.{ ` q.B.o.! u = = c } { ^ ` { { ^ _ ^ ",
"+XV.[ { { 9.^ [ V.#XB.U i...Q 7 B R E ! T T T T B ",
"U.p.5.B.u.9.5.{ ( ' M 8.O.X.P v ;.q.( Q 6.( S p.Z.",
"@XK.OX$X`.C.[.>.] D l t.I ~ i z A.K.2.w.'.k.2.XX$X",
"U.R.`.~.OXC.}.J.z.n y r.N.I M B Z.D.%.w.k.0.h.(.%X",
"^.Y.`.^.@XS.[.^.OXG 4 ' ~ x w C D.j.2.2.2.:.K 1.'.",
"E.c._.^.'.S._.oX%Xw.< V.c 8 * ( c.k.%.L -.@.Z #./.",
"m.R.G.K.OXa.`.x.{.l.v M.8.z u M c.x.] $.=.L Z s..X",
"&.e.,.y.).W c.;.D.I.W.F.7. .b W k.n.#.j L K j 3.!.",
"C S R C %.' | ) (..X!.).j.%.=.g.b.P. XL # > - > *.",
"1 | Q &.G H G c.].Q./.P.D.k.h.A.J.J.n.H.p   +   j ",
"9 [ b 6.q.q %.Y.n.L.(.P.J.b.n.J.P.n.d.3.1.. .   A ",
"] u., 6.p.# D P.f.n.~.J.H.n.J.J.H.f.#.*.<.; .   j ",
"T.} % N t   D P.1.v.P.J.n.J.P.J.b.3.J +.*.3 . . 3 "
};
