/* XPM */
static const char *micro_dmoreux[] = {
/* columns rows colors chars-per-pixel */
"25 19 193 2 ",
"   c #0B0801",
".  c #0D0C0C",
"X  c #100E0E",
"o  c #160D06",
"O  c #0E0E10",
"+  c #110F10",
"@  c #131213",
"#  c #1A1612",
"$  c #1A1816",
"%  c #16151A",
"&  c #19161B",
"*  c #1A1A1D",
"=  c #171B1E",
"-  c #281A0F",
";  c #211D1C",
":  c #2A2117",
">  c #2C241D",
",  c #26211B",
"<  c #37291E",
"1  c #1D1D22",
"2  c #1F2229",
"3  c #212025",
"4  c #2A2621",
"5  c #2C2824",
"6  c #25242B",
"7  c #332A24",
"8  c #302C2B",
"9  c #3B342C",
"0  c #3B382F",
"q  c #2A2D32",
"w  c #3E3731",
"e  c #3C3A3B",
"r  c #463120",
"t  c #483727",
"y  c #43362D",
"u  c #47392E",
"i  c #4E3B2D",
"p  c #553B2E",
"a  c #413733",
"s  c #453C35",
"d  c #463F3C",
"f  c #4B3D30",
"g  c #4B433D",
"h  c #554534",
"j  c #51473E",
"k  c #574A3C",
"l  c #5B493E",
"z  c #654939",
"x  c gray28",
"c  c #4F4840",
"v  c #504742",
"b  c #554C45",
"n  c #5C4E44",
"m  c #5F5347",
"M  c #5D544C",
"N  c #4F4E53",
"B  c #6F4F40",
"V  c #634F46",
"C  c #625345",
"Z  c #6B5443",
"A  c #64554B",
"S  c #655A4D",
"D  c #6B5A4E",
"F  c #635753",
"G  c #635B54",
"H  c #6B5D53",
"J  c #635C5C",
"K  c #7C614E",
"L  c #686157",
"P  c #726254",
"I  c #7A6659",
"U  c #7C6A5C",
"Y  c #75675C",
"T  c #696366",
"R  c #6E6A6D",
"E  c #636162",
"W  c #756B62",
"Q  c #7A6D63",
"!  c #7E6F68",
"~  c #79716F",
"^  c #7D7165",
"/  c #767273",
"(  c #7E797A",
")  c #836C5E",
"_  c #886D5A",
"`  c #826E60",
"'  c #847466",
"]  c #887767",
"[  c #847B6B",
"{  c #89786A",
"}  c #817368",
"|  c #927F6C",
" . c #8A7E75",
".. c #827C7D",
"X. c #A07F6C",
"o. c #86806A",
"O. c #928273",
"+. c #9B8572",
"@. c #9D8B7B",
"#. c #9A8874",
"$. c #99917A",
"%. c #A3806D",
"&. c #A98D77",
"*. c #A28E7B",
"=. c #A58A77",
"-. c #A4917C",
";. c #AC967E",
":. c #B59B7F",
">. c #877E81",
",. c #8D8686",
"<. c #8F8689",
"1. c #8F8B8B",
"2. c #848285",
"3. c #948E86",
"4. c #9D8C83",
"5. c #938D89",
"6. c #9D9289",
"7. c #9C9391",
"8. c #9A9A9D",
"9. c #A29383",
"0. c #AD9585",
"q. c #A59887",
"w. c #A7968B",
"e. c #AB9B8C",
"r. c #A49B8C",
"t. c #B39684",
"y. c #B39B83",
"u. c #B49E88",
"i. c #BA9F84",
"p. c #A59C95",
"a. c #A69F99",
"s. c #BBA28A",
"d. c #ADA99E",
"f. c #B6A696",
"g. c #BBAD9B",
"h. c #BAA999",
"j. c #ADA4A1",
"k. c #A0A0A8",
"l. c #A9A8AD",
"z. c #B7AEA5",
"x. c #B4AEAB",
"c. c #BEB0A5",
"v. c #BCB4AE",
"b. c #B3B3B3",
"n. c #BFBBB7",
"m. c #BDBABB",
"M. c #C3A88C",
"N. c #C3AA90",
"B. c #C3AE99",
"V. c #D6B39D",
"C. c #CBBBAA",
"Z. c #C4B5A8",
"A. c #C5BDB6",
"S. c #C6BFB7",
"D. c #CFC2B4",
"F. c #C6C1BC",
"G. c #CBC3BE",
"H. c #C6C3B4",
"J. c #D4C9BA",
"K. c #D2C8B4",
"L. c #DBD3BC",
"P. c #E4C0AA",
"I. c #E0CFBD",
"U. c #D3CBC4",
"Y. c #D1CCC9",
"T. c #D7D0C0",
"R. c #D9D2C4",
"E. c #D6D1CE",
"W. c #DAD8CC",
"Q. c #C4C6D2",
"!. c #D7D3D0",
"~. c #DBD7D2",
"^. c #DFDCD7",
"/. c #DCD7D9",
"(. c #E3D3C1",
"). c #E9DFC4",
"_. c #E3D4CB",
"`. c #E7D9CD",
"'. c #E1DDD5",
"]. c #E6DBD7",
"[. c #E7E0D0",
"{. c #E5E1DC",
"}. c #EFE8DE",
"|. c #F1E3DB",
" X c #ECE5E0",
".X c #EFEAE2",
"XX c #E0E0EA",
"oX c #FEF0E1",
"OX c #F3F1EB",
"+X c #FFF8EC",
"@X c #F4F2F0",
"#X c #FFFEFC",
"$X c #FDFAF3",
/* pixels */
"g s w 5 7 > > > h ] y : 9 g 7 d } S b 7 9 9 a 9 a ",
"f < u k n n n A _ { : . @ $ o - > 9 g > 4 , > 7 4 ",
"w.' h C U I ) ] O.Q m j b g g c g s M G G G J F S ",
"+Xh.Q O.9.O.O.U ^ { ` P P P W L P H S C S D A S H ",
"_.e.-.-.h.B.0.+.+.| @.' l t Z *.-.*.-.;.-.*.=.-.&.",
"Z.u.N.:.:.M.i.s.I.(.+.Z K z r | s.u.;.;.y.y.;.;.;.",
"oXC.;.y.N.N.;.u.R.oX=.V.P.t.l W 9.*.*.*.*.@.@.@.#.",
"Y.p.C.(.g.C.f.q.9.#.U ) ) Z i { D.c.4.w.Z.4.4.].'.",
"@XT.#XOX_.).'.3.3.Y ` &.%.B V p.{.F.a.G. Xj.n.#X#X",
"!.[./. X|.K..XA.z.A I t.X.z D U.~.F.5.x.v.j.n.OX@X",
"E.R.~.{.|.L.OX~.}.M H 0._ p A G.E.A.7.j.7.<./ b.].",
"Y.J.'.^.`.J.'..X$X5.g 4.4.l G d ( x.1.,.<.>.T l./.",
"F.J.H.~.`.C.W.A.b.x * 4 g a # @ & e R 1...( R m.XX",
"7.g.[ n.D. .v. .* 1 q 1 @ X & = * @ 1 E / T J 8.Q.",
"Q w.o.~ @.6.6.A & 1 2 6 1 & 3 1 1 & @ & @ ; $ 5 k.",
"F e.$.5.O.! 3.s & 6 6 1 * * @ N 6 % . . X . X . 2.",
"Y q.n S.r.b d.8 1 1 3 1 * * * & @ . . . . . . . 8.",
"J.q.y J.Q > 0 & * 1 3 1 & & & & O . . . . . . . ..",
"D.k 7 S : #   & & * 3 1 & & & & . . . O @ + X X v "
};
