/* XPM */
static const char *micro_lefoffan[] = {
/* columns rows colors chars-per-pixel */
"25 19 187 2 ",
"   c #030402",
".  c #0A0A06",
"X  c #03070A",
"o  c #090708",
"O  c #050A0B",
"+  c #0C0B0B",
"@  c #120C03",
"#  c #1F0E06",
"$  c #100D0D",
"%  c #1A150D",
"&  c #11120D",
"*  c #0B0F11",
"=  c #110F10",
"-  c #0F1110",
";  c #0F1418",
":  c #121212",
">  c #181617",
",  c #1C1916",
"<  c #161619",
"1  c #1B1A1B",
"2  c #221B12",
"3  c #261D1E",
"4  c #2A2118",
"5  c #26211B",
"6  c #30271E",
"7  c #1D1E20",
"8  c #2B2A25",
"9  c #292728",
"0  c #2E2B2A",
"q  c #312D2B",
"w  c #352E24",
"e  c #3B3127",
"r  c #32312F",
"t  c #3F352C",
"y  c #333332",
"u  c #3D3A36",
"i  c #3C3C3C",
"p  c #4D3B2D",
"a  c #453C34",
"s  c #493F36",
"d  c #433D3A",
"f  c #46413D",
"g  c #4C423A",
"h  c #4F483E",
"j  c #4D4337",
"k  c #564032",
"l  c #52493E",
"z  c #5D4B3D",
"x  c #5C4535",
"c  c #3E4148",
"v  c #444041",
"b  c #4A4542",
"n  c #4B4843",
"m  c #4B4C4E",
"M  c #514640",
"N  c #534A42",
"B  c #5C4D43",
"V  c #5A4F49",
"C  c #514B4B",
"Z  c #52524E",
"A  c #5C544C",
"S  c #5B5444",
"D  c #5A5551",
"F  c #635344",
"G  c #62554C",
"H  c #66594C",
"J  c #6D5B4D",
"K  c #735346",
"L  c #615851",
"P  c #6C5E53",
"I  c #645D5D",
"U  c #705F55",
"Y  c #7B604D",
"T  c #6E6154",
"R  c #67645F",
"E  c #6B655B",
"W  c #6C685D",
"Q  c #726355",
"!  c #72665A",
"~  c #796759",
"^  c #76685B",
"/  c #7B6B5C",
"(  c #7D6155",
")  c #5C5B60",
"_  c #696464",
"`  c #6A6867",
"'  c #6F6B6A",
"]  c #686568",
"[  c #766D63",
"{  c #7A6D62",
"}  c #726C6B",
"|  c #7B7167",
" . c #777068",
".. c #7A736A",
"X. c #7E786A",
"o. c #7D7670",
"O. c #797876",
"+. c #79777C",
"@. c #7B7A78",
"#. c #816758",
"$. c #826E5D",
"%. c #837363",
"&. c #8A7564",
"*. c #8D7D6E",
"=. c #837A6C",
"-. c #9B796B",
";. c #877D73",
":. c #8C7D72",
">. c #827D7A",
",. c #898176",
"<. c #87827F",
"1. c #8C837B",
"2. c #8D8A7B",
"3. c #988775",
"4. c #938D7F",
"5. c #9F8C7E",
"6. c #91847C",
"7. c #AA8F7B",
"8. c #AB907F",
"9. c #918A80",
"0. c #9E8A81",
"q. c #959387",
"w. c #9C9284",
"e. c #97928F",
"r. c #9C948B",
"t. c #9D998C",
"y. c #989491",
"u. c #9E9995",
"i. c #9A9B9E",
"p. c #A29487",
"a. c #AC9C8C",
"s. c #A4998D",
"d. c #A39996",
"f. c #B39D92",
"g. c #B4A28E",
"h. c #ADA296",
"j. c #A5A39D",
"k. c #ABA39B",
"l. c #ADA99E",
"z. c #B0A99F",
"x. c #B9A294",
"c. c #A8A4A1",
"v. c #ACA9A0",
"b. c #ADACAC",
"n. c #B6ACA4",
"m. c #B5AEAA",
"M. c #B8AFA8",
"N. c #B8B1A7",
"B. c #B6B1AB",
"V. c #BBB3AE",
"C. c #BCB7B2",
"Z. c #BDB9B3",
"A. c #BCBBBB",
"S. c #D3B7AB",
"D. c #C3BDB4",
"F. c #C2BFBA",
"G. c #C5B5A6",
"H. c #C6C3BC",
"J. c #CAC4BC",
"K. c #D4CBBF",
"L. c #D4C3B9",
"P. c #BDBEC2",
"I. c #CCC7C1",
"U. c #CECAC3",
"Y. c #CBCBCD",
"T. c #D3CCC4",
"R. c #DBD6CE",
"E. c #D5D2CB",
"W. c #CCD1D7",
"Q. c #D0D1D5",
"!. c #DDD9D6",
"~. c #D6D6D8",
"^. c #E0D2C5",
"/. c #E8DFD8",
"(. c #E7DCD2",
"). c #EAE2D6",
"_. c #E3E1D9",
"`. c #F4EBDC",
"'. c #DDE1E4",
"]. c #EBE9EC",
"[. c #F1ECE4",
"{. c #F3F1E6",
"}. c #F3F1EE",
"|. c #FBF7F6",
" X c #F6F6F8",
".X c #FFFEFA",
"XX c #FDFAF5",
/* pixels */
"a e s N A V M g a d u u d b u b n b f b n b N A L ",
"w.^ Q H B G B j l h h h g l g a M g g s g N g S ! ",
"$.3.%.Q F F H T J Q Q T T P / T P Q J Q P Q Q P J ",
"&.$.$.Q a.G.*./ / ~ J J ~ / ~ / / %.Q ~ %.~ Q Q ~ ",
"&.*./ / p.^.h.P Q F J k p T T Q U J Q J H P P ! T ",
"f.:.{ ;.| [ a =.%.J S.x.z l k.;.6.w.;...V.C...a A ",
"(.r.).z.9.,.6 n.a.#.-.( z g D.M.(.).J.b.|..XZ.E Z.",
").4.T.{.q.W w ;.g.8.-.K z ,.N.d.T.D.U.Z.].|.I.t.D.",
"`.w.T.}.!.<.2 1./.5.7.Y J R.H.l.T.M.n. .I.{.J.=.2.",
").h.[.[.XXH.% N..XL.$.x { J.B.j.V.k.d.o.H._.I.X...",
"K.1.K._.R.E.u u.O.X.:.B P 0 Z y.C.M.M.} A.}.F.t.I ",
"s.l s.t.v.j.y 1 + % g a , + : 1 @.c.e.` Y.~.b.} } ",
";.T ,...t.Z < 1 7 1 + $ = < : * 1 r q 9 i P.A.v >.",
"G ! [ E R 0 + < < < - : : < < + : + + + : i.Y.I ` ",
"! t 1.D q > + < 1 : < : 1 < + + + : + . o i.Y.} m ",
"! 4 [ q $ = + : : : * : + : + + * : & + o b.Y.' ] ",
"y @   * 2 #   * + : : + + + + + X @ * O . R 1._ A ",
"o % 3 m N 0.8 + + : : + + + + + 8 p 1 ; > ` <.+.} ",
"9 5 d ) P f.8 o + : : + + + + + E 7.C c ] '. XW.Q."
};
