/* XPM */
static const char *micro_babreton[] = {
/* columns rows colors chars-per-pixel */
"25 19 204 2 ",
"   c #030100",
".  c #0A0301",
"X  c #0D0B04",
"o  c #060B05",
"O  c #130D0B",
"+  c #120806",
"@  c #16120E",
"#  c #19110F",
"$  c #1A1312",
"%  c #1B1915",
"&  c #161912",
"*  c #21170B",
"=  c #26190A",
"-  c #381800",
";  c #241C18",
":  c #2A1917",
">  c #301E15",
",  c #361E1C",
"<  c #33210D",
"1  c #2E251A",
"2  c #372116",
"3  c #232225",
"4  c #2A2523",
"5  c #2A2C2D",
"6  c #272928",
"7  c #332B2B",
"8  c #373129",
"9  c #2E2B36",
"0  c #312F34",
"q  c #2B3131",
"w  c #3C3532",
"e  c #343636",
"r  c #451B03",
"t  c #44240D",
"y  c #452818",
"u  c #4F301C",
"i  c #613D1B",
"p  c #452D23",
"a  c #443120",
"s  c #58382F",
"d  c #453B35",
"f  c #5B3D32",
"g  c #703925",
"h  c #5C432F",
"j  c #4A443F",
"k  c #5A4335",
"l  c #7D4F2B",
"z  c #705333",
"x  c #6D4838",
"c  c #3C3D41",
"v  c #4D4343",
"b  c #5F4F4F",
"n  c #564A47",
"m  c #595049",
"M  c #4E5251",
"N  c #505050",
"B  c #5A5551",
"V  c #7D5844",
"C  c #6D5D53",
"Z  c #765E54",
"A  c #7F634D",
"S  c #6D6158",
"D  c #726153",
"F  c #74695E",
"G  c #79675C",
"H  c #6A6462",
"J  c #6C6F66",
"K  c #6C6D6B",
"L  c #736C61",
"P  c #7C6F64",
"I  c #766762",
"U  c #7D736A",
"Y  c #7D7365",
"T  c #6E6B72",
"R  c #777776",
"E  c #874B2A",
"W  c #8B5833",
"Q  c #965A37",
"!  c #916445",
"~  c #9C6B44",
"^  c #836F5C",
"/  c #896B56",
"(  c #9F6250",
")  c #82735C",
"_  c #98725B",
"`  c #AC6B43",
"'  c #B36841",
"]  c #AE7349",
"[  c #B17448",
"{  c #AB6B50",
"}  c #BC7C56",
"|  c #AB7559",
" . c #826663",
".. c #837463",
"X. c #8A7668",
"o. c #8D7B6D",
"O. c #877769",
"+. c #947A65",
"@. c #937B6A",
"#. c #997F6E",
"$. c #857B73",
"%. c #8C7A73",
"&. c #927F71",
"*. c #A27860",
"=. c #B17A66",
"-. c #95816D",
";. c #8B8176",
":. c #88887E",
">. c #948274",
",. c #998373",
"<. c #91837A",
"1. c #9D867A",
"2. c #9C897D",
"3. c #9A8A73",
"4. c #A08E7F",
"5. c #A88176",
"6. c #B3897D",
"7. c #B9957F",
"8. c #BA896B",
"9. c #C08366",
"0. c #7C7E82",
"q. c #788484",
"w. c #838383",
"e. c gray53",
"r. c #958A83",
"t. c #9B8D83",
"y. c #998F8A",
"u. c #938E8A",
"i. c #9C9289",
"p. c #9C9A9A",
"a. c #9A9A96",
"s. c #A49285",
"d. c #A6968D",
"f. c #A19693",
"g. c #A49B96",
"h. c #AA9C92",
"j. c #A69C9B",
"k. c #A9A499",
"l. c #B5A496",
"z. c #B6A99B",
"x. c #9E9FA1",
"c. c #95A2AA",
"v. c #A4A6A5",
"b. c #A3A4A9",
"n. c #ABADAB",
"m. c #A9AEA7",
"M. c #B4ACA4",
"N. c #BDB4AA",
"B. c #BBB3A8",
"V. c #A9AEB1",
"C. c #B1AFB2",
"Z. c #AEB3B6",
"A. c #ACB7BD",
"S. c #B7B5B6",
"D. c #C69F90",
"F. c #CB9B99",
"G. c #C8A897",
"H. c #D9AC9E",
"J. c #C1B6AD",
"K. c #D7B7AC",
"L. c #C2BFB5",
"P. c #D7BFBF",
"I. c #DFB6B2",
"U. c #E4B9AC",
"Y. c #E6BFBA",
"T. c #CCC1B3",
"R. c #CBC3BB",
"E. c #D0C7BE",
"W. c #D3CABC",
"Q. c #D8CBBA",
"!. c #DCD1BF",
"~. c #E7C7B8",
"^. c #F0CBBB",
"/. c #B8B8C2",
"(. c #CCCBC3",
"). c #C3C4C8",
"_. c #D6C5C1",
"`. c #D9D3C6",
"'. c #CBD0D3",
"]. c #D7D7D5",
"[. c #EED1C3",
"{. c #F5D2CE",
"}. c #E6DADC",
"|. c #E1E1DE",
" X c #EBE5D9",
".X c #D6D9E0",
"XX c #DFE1E0",
"oX c #E4E4E5",
"OX c #E9E6E3",
"+X c #E6E8E7",
"@X c #EDECEC",
"#X c #EDEAE3",
"$X c #F2EEE9",
"%X c #F8ECE3",
"&X c #F5F2ED",
"*X c #F9F4ED",
"=X c #EDEDF2",
"-X c #EFF3F4",
";X c #F4F3F3",
":X c #FAF5F4",
">X c #F5F9F5",
",X c #FFFEF7",
"<X c #F7FFFB",
"1X c #FEFDFD",
/* pixels */
"e.r.j.g.y.d.2.>.>.X.G C m d 8 4 P J.N.M.$.8 d j w ",
"/ ^ U U O...O.;.<.<.t.4.3...n N t.t.r.%.F S D C C ",
",.-.+.@.....U L L F Y P G I S L $.g.R.#X%Xh.z.l.i.",
"b.f.1.#.>.>.o.X.) D k y u h t.#X1X,X1X$X_.r.;.2.<.",
"0.p.C.f.<.&.X.@.s > ; * = < ..%XR.M.y.$.$.<.>.&.o.",
"E.m R b.V.u.>.A , : # + > y - z X.X.o.>.,.&.-.3.J.",
" XT.N.K c.A.k.^ a Z s g Q ] l t ,.1.1.4.>.l.T.T.1X",
"OX(.,X].K x.).w.f K.+.*.| E V 2 &.s.t.r.E.,X*X(.1X",
"$X!.1X1X].J S./.V I./ 6.=.r ! i 1.s.i.`.1X1X&X`.1X",
"$XQ.1X1X1Xm.w..X5.U.G.H.9.W } Q 1.s.T.1X1X1X:XW.1X",
"&XQ.1X1X:X>Xe.)._.Y.U.H.{ E ' 8.d.h.*X1X1X1X*XL.1X",
"$XQ.<X1X1X<XZ.Z.-XP.U.F.( E ` G.z.R.1X1X1X1X:XC.1X",
":XW.1X1X1X1X].n.q.b ^.I.=.~ ] 1 1 B.1X1X>X1X@Xp.<X",
":XB.1X1X1X<X+XN   n ~.G._ W [ 2 . v @X<X-X1XoXR -X",
"@Xl.>X1X1X1Xp.  4 v [.~.7.~ } p O 7 &X1X1X1X;Xn.1X",
"=Xl.1X1X1X1XH . 5 9 %.{.D.! Q > $ 4 J (.=X=X+Xk.OX",
":XL.,X1X1Xv.e 0 $ 7 :  .5.x 2 4 w @ + # B |.oX0.}.",
";Xa.,X;XR 3 3 6 6 q 6 X = * X e H O $ % $ j XXV.].",
"oX:.1XT 3 5 5 3 6 c M o & & X 4 u.@ $ O ; @ v.'.|."
};
