/* XPM */
static const char *micro_jlongin[] = {
/* columns rows colors chars-per-pixel */
"25 19 185 2 ",
"   c #050304",
".  c #0B0A07",
"X  c #0F100B",
"o  c #14120F",
"O  c #090C11",
"+  c #100E13",
"@  c #141215",
"#  c #161817",
"$  c #1D1813",
"%  c #1E1C1C",
"&  c #1A1613",
"*  c #2A2017",
"=  c #31221A",
"-  c #38271D",
";  c #242122",
":  c #2B2A25",
">  c #332920",
",  c #392F26",
"<  c #342F2A",
"1  c #35322E",
"2  c #3B342C",
"3  c #393431",
"4  c #3E3A35",
"5  c #37363B",
"6  c #3D3B3C",
"7  c #42342A",
"8  c #45382F",
"9  c #453F3F",
"0  c #483E34",
"q  c #404036",
"w  c #4A4036",
"e  c #464239",
"r  c #4C433C",
"t  c #54473F",
"y  c #51483F",
"u  c #5C4C3D",
"i  c #4B4644",
"p  c #4D4842",
"a  c #4D4849",
"s  c #504740",
"d  c #544C42",
"f  c #5A4F44",
"g  c #544B4A",
"h  c #515147",
"j  c #5F5244",
"k  c #56514E",
"l  c #5B534A",
"z  c #575453",
"x  c #5E5A55",
"c  c #5B5758",
"v  c #55565B",
"b  c #614D42",
"n  c #635446",
"m  c #685044",
"M  c #61564C",
"N  c #665A4C",
"B  c #6D5D4E",
"V  c #655E52",
"C  c #695D52",
"Z  c #655C5E",
"A  c #7B604F",
"S  c #6C6155",
"D  c #6C645A",
"F  c #726355",
"G  c #75665A",
"H  c #75695B",
"J  c #7B6B5C",
"K  c #7D6654",
"L  c #7D705F",
"P  c #656368",
"I  c #746B62",
"U  c #7B6B61",
"Y  c #706D6D",
"T  c #7D7265",
"R  c #757168",
"E  c #7A726C",
"W  c #7F7B6E",
"Q  c #756D71",
"!  c #7C7674",
"~  c #7E7A77",
"^  c #835F4F",
"/  c #837364",
"(  c #8B7463",
")  c #84796E",
"_  c #8D7A6D",
"`  c #81746B",
"'  c #987162",
"]  c #937967",
"[  c #937462",
"{  c #847D72",
"}  c #8A7E72",
"|  c #857D7A",
" . c #7F8072",
".. c #848175",
"X. c #8B8375",
"o. c #8D857B",
"O. c #8E887D",
"+. c #968676",
"@. c #93867A",
"#. c #938B7E",
"$. c #9A8B7B",
"%. c #92917F",
"&. c #9E937D",
"*. c #AB8C77",
"=. c #7A7B80",
"-. c #847E82",
";. c #928781",
":. c #958E82",
">. c #9A8F84",
",. c #948C8A",
"<. c #969383",
"1. c #9A9285",
"2. c #9B938A",
"3. c #9D998C",
"4. c #95928D",
"5. c #9E9A93",
"6. c #A29484",
"7. c #A89380",
"8. c #A1958A",
"9. c #A49C8C",
"0. c #A39882",
"q. c #B79981",
"w. c #A09790",
"e. c #A59E93",
"r. c #A89E94",
"t. c #A69D98",
"y. c #ADA295",
"u. c #ABA49B",
"i. c #B5AA9D",
"p. c #BAAC9F",
"a. c #B7B09E",
"s. c #A8A9AB",
"d. c #ACABA6",
"f. c #B4AAA0",
"g. c #B0ABA8",
"h. c #B9AEA8",
"j. c #B7B3AA",
"k. c #BCB5AC",
"l. c #BAB6A7",
"z. c #AFB3B6",
"x. c #BCB5B1",
"c. c #BBB9B6",
"v. c #BBBCBA",
"b. c #CFB9A4",
"n. c #C3BCAB",
"m. c #C5BCB4",
"M. c #C9C2B0",
"N. c #C6C3BD",
"B. c #C9C7BB",
"V. c #DACABD",
"C. c #CBC5C0",
"Z. c #C9C7C8",
"A. c #D2CCC4",
"S. c #D3CFCC",
"D. c #DDD3C7",
"F. c #D6D2C8",
"G. c #DBD3CD",
"H. c #DBD9CC",
"J. c #CECED0",
"K. c #DFDFD7",
"L. c #D9D7DA",
"P. c #DBDADC",
"I. c #D5D5D5",
"U. c #E3D9CF",
"Y. c #ECDCCF",
"T. c #E3D7CB",
"R. c #E3DDD3",
"E. c #E1E1D7",
"W. c #EBE2D6",
"Q. c #E4E2DC",
"!. c #E8E5DE",
"~. c #F7EBDD",
"^. c #DCDBE0",
"/. c #E2DDE3",
"(. c #ECEBE6",
"). c #F4EAE0",
"_. c #EFF0EA",
"`. c #F1F2E9",
"'. c #F5F3EC",
"]. c #FAF1EA",
"[. c #F6F7F1",
"{. c #FAF7F4",
"}. c #FFFCF5",
"|. c #FFFFFB",
" X c #FFFFFE",
/* pixels */
"f d r M S d < < < 1 3 1 4 4 9 a i i a i g g l V D ",
"f 0 M M l l d s d y r d r r r s l r 0 r r r d V H ",
"6.+.G n j f f j u j N d V V N N n N N N N S C B B ",
"( _ J F J J G J J G T H M S T J / J J L J H G U J ",
"( / / / V.Y.$.J I T N 7 7 8 C I F G G F S S G U G ",
"+./ G T ) >.) N V I - b _ = * I / ` H E t.;.C d D ",
"p.} #.1.w.E > f.e.#.m ( ] B w j.U.R.x.g.|.'.u.V C.",
"T.f.}.x.4.E 2 k.F.~.b.q.*.K #.N.W.R.S.Z. X{.F.<.(.",
"W.1.!.`.j.D , 1./._.n.[ ' m 5.v.G.C.C.5.`.'.B.O.l.",
").:.(.[.(.,.$ m.{.`.M.] ^ J k.v.A.m.t.E K.E.A.) r.",
"R.k.R.d.|.c.1 A.].H.n.7.A u X.j.n.i.h.| S.!.G.X.{ ",
"D.1.2.e Q.N.4 k.m.l.a.$.F B X.u.n.k.k.~ L.(.c.o.E ",
"y.S 6.>.k.4.l i.e.r.r.o.X.} @.y.9.,.x a =.P.Z.k ,.",
"/ J J U o.I o.i.o.2.u.3.3.e.y.3.:.O.:   O z.J.c ! ",
"D j u M x 4.{ 9...8.>.<.3.>.8.#.W ..p   # s.L.-.z ",
"! = U t 1 Y l 6. .8.@.<.<.X.#.%.T o.d . X c.P.Q ~ ",
"x o ; @ : % g &.I 9.#.<.1.X.<.:.R { h   + ~ u.! I ",
"& $   % % ; Z 0.D { #.:.1.X.<.:.D I q . @ z ! Q Y ",
"o $ 6 c 1 P Z 9.D S :.:.:.X.#.O.S W x 5 v I. XL.^."
};
