/* XPM */
static const char *micro_gdornic[] = {
/* columns rows colors chars-per-pixel */
"25 19 197 2 ",
"   c #0A0501",
".  c #0C0B05",
"X  c #0C0C0A",
"o  c #010C08",
"O  c #130B06",
"+  c #110E0C",
"@  c #120500",
"#  c #12110E",
"$  c #1B120B",
"%  c #1F1307",
"&  c #0D0E10",
"*  c #151310",
"=  c #191613",
"-  c #1A1916",
";  c #1C1B19",
":  c #250D02",
">  c #2B0D03",
",  c #251508",
"<  c #361C04",
"1  c #3A1E0E",
"2  c #341808",
"3  c #271811",
"4  c #2A1C19",
"5  c #321412",
"6  c #371F13",
"7  c #3C210C",
"8  c #362216",
"9  c #3A211A",
"0  c #232428",
"q  c #352621",
"w  c #31302E",
"e  c #363B3E",
"r  c #431D12",
"t  c #43200C",
"y  c #4A2513",
"u  c #4A2814",
"i  c #4D2C1A",
"p  c #40251C",
"a  c #502A15",
"s  c #543218",
"d  c #6D371B",
"f  c #743216",
"g  c #753E1D",
"h  c #753B15",
"j  c #482E26",
"k  c #583928",
"l  c #4C392B",
"z  c #623E2D",
"x  c #673C27",
"c  c #753C21",
"v  c #4B4A3A",
"b  c #5D4C3D",
"n  c #594A39",
"m  c #6E412E",
"M  c #7E452A",
"N  c #7D4F2D",
"B  c #614936",
"V  c #714431",
"C  c #444648",
"Z  c #544C44",
"A  c #5B4C44",
"S  c #584F48",
"D  c #5F5345",
"F  c #59564C",
"G  c #555859",
"H  c #604D49",
"J  c #635647",
"K  c #63554C",
"L  c #63584C",
"P  c #6A5A4D",
"I  c #69564F",
"U  c #775645",
"Y  c #635A51",
"T  c #6B5E53",
"R  c #645550",
"E  c #705D56",
"W  c #7A634E",
"Q  c #71614A",
"!  c #6B6053",
"~  c #6D615A",
"^  c #716053",
"/  c #74655A",
"(  c #7A685A",
")  c #6B6663",
"_  c #736E68",
"`  c #7C736A",
"'  c #766D72",
"]  c #6F7170",
"[  c #757771",
"{  c #787677",
"}  c #8B512B",
"|  c #834D33",
" . c #865635",
".. c #834826",
"X. c #9D663F",
"o. c #835241",
"O. c #935848",
"+. c #81614A",
"@. c #9C664A",
"#. c #966C5D",
"$. c #A96B52",
"%. c #B27559",
"&. c #966F60",
"*. c #8F7463",
"=. c #907363",
"-. c #827C72",
";. c #A96A61",
":. c #A67C63",
">. c #9C8763",
",. c #8F887E",
"<. c #AA8572",
"1. c #B08177",
"2. c #B39278",
"3. c #C38A7C",
"4. c #C38578",
"5. c #747D83",
"6. c #7D7C81",
"7. c #778284",
"8. c #7A8389",
"9. c #82898F",
"0. c #898789",
"q. c #9E9B88",
"w. c #878C94",
"e. c #8A8E99",
"r. c #8E959F",
"t. c #A89988",
"y. c #BD9B82",
"u. c #A7A096",
"i. c #ABA49D",
"p. c #B7A995",
"a. c #949DA8",
"s. c #9EA2A5",
"d. c #99A0B0",
"f. c #A6A7A8",
"g. c #BAAEAE",
"h. c #B6B4A3",
"j. c #B8B4A3",
"k. c #BBB7AD",
"l. c #B7B8A8",
"z. c #B8BAAF",
"x. c #A6ABB1",
"c. c #ACB6BD",
"v. c #B6BBBB",
"b. c #C58D83",
"n. c #D59B90",
"m. c #D59788",
"M. c #CFA79D",
"N. c #D1A79B",
"B. c #E7A99E",
"V. c #DFADA4",
"C. c #C0B2AF",
"Z. c #D2B5AF",
"A. c #E8B7A8",
"S. c #EDBDAF",
"D. c #ECBDB7",
"F. c #F7BDB6",
"G. c #C3C1B4",
"H. c #CAC5BE",
"J. c #C3C2BE",
"K. c #CED0BB",
"L. c #F9C3BB",
"P. c #FDC9BB",
"I. c #ADB8C6",
"U. c #B0BFC7",
"Y. c #B9C0C6",
"T. c #B7CDDB",
"R. c #C5C8C8",
"E. c #D5CFCF",
"W. c #D9C9C8",
"Q. c #CED0CF",
"!. c #D7D2C9",
"~. c #C1CFDC",
"^. c #CBD2D9",
"/. c #CBD3DA",
"(. c #DDDCD5",
"). c #D4D5DB",
"_. c #D6D8D7",
"`. c #FACEC5",
"'. c #E2DED9",
"]. c #E1DED7",
"[. c #DEE0DF",
"{. c #CCDAE4",
"}. c #CBDBE9",
"|. c #CAD6E0",
" X c #D2DCE3",
".X c #CBE1EE",
"XX c #D4E3EC",
"oX c #DDE1E2",
"OX c #DDEFF9",
"+X c #E1E5E6",
"@X c #FFEFEF",
"#X c #F2EBE1",
"$X c #F2F1ED",
"%X c #F8F3EB",
"&X c #FCFBF5",
"*X c #F7FDFF",
"=X c #FEFDFC",
/* pixels */
"] Y J D A H A v A n D v _ C.,./ L L L K J P K K b ",
"0.0.) L P A R S A A n Z Z Z A K K K K T L D ! -.u.",
"G e.w.[ T P I K F I Y P I L E L T T T D ` ` j.&X=X",
"[ C r.a.6.T ^ T T P l B j 8 b ( ^ ~ ~ i.&X!.k.=X=X",
"=X-.F a.d.{ ^ ! W k z <.&.k > B ( ~ H.=X=X].G.=X=X",
"=X%XF 7.I.f./ (  .s 3.P.A.#.7 i W !.=X&X=X(.G.=X=X",
"=X=Xz.G c.U.0.=.@.M m.B.3.o.a t B @X=X&X=X'.j.=X=X",
"=X*X*X' a.T.f.:.X.$.O.4.;.x V u < W.=X&X=X!.h.=X=X",
"=X=X=Xs.8.{.Y.2. .%.n.D.4.f g s > >.=X=X=X(.l.=X=X",
"=X=X=XR.7.|.^.y.} $.F.L.b.f c z 1 s !.=X=X_.j.=X=X",
"=X=X=X^.8. X^.2...m V.F.b.M M r , 2 p.=X=Xv.q.=X=X",
"=X=X=X).9.{.).<.N 7 #.L.V.| g y . : n #X=XR.i.=X=X",
"=X*X=XoXw.{. X+.x : k S.1.d h y X 5 < t.=XR.g.=X=X",
"=X=X=X+X9.}./.U u 6 > M.`.@.| i O 5 1 >.%XH.t.&X=X",
"$X$X=X[.5.}.~.*.2 p 9 j Z.N.U 3 O @ % Q '.).p.=X=X",
"'.J.!.Q.5.}.~.n % 8 q   4 ( , o . X X = G I.K.*X=X",
").XX.XU.{ x.e X - ; = = . X X + + + = - + $ k.=X=X",
"R.|.OXc.C 0 & - - ; - - X + + # * * * - =   Z &X=X",
"E. XXXv.w = * = - ; = - X # # * = + + = . $ O ` i."
};
