/* XPM */
static const char *micro_jrinaudo[] = {
/* columns rows colors chars-per-pixel */
"25 19 201 2 ",
"   c #0C0C0C",
".  c #131213",
"X  c #161719",
"o  c #1A1A1C",
"O  c #1A1615",
"+  c #211C1C",
"@  c #28231F",
"#  c #26221F",
"$  c #181E29",
"%  c #171B24",
"&  c #1D2027",
"*  c #1C222C",
"=  c #242222",
"-  c #282725",
";  c #24252A",
":  c #2F2B28",
">  c #2A2925",
",  c #312726",
"<  c #312A24",
"1  c #2C3228",
"2  c #383226",
"3  c #33322E",
"4  c #3B352C",
"5  c #3C382D",
"6  c #242B36",
"7  c #2B2B31",
"8  c #252D3E",
"9  c #2A2937",
"0  c #302F3B",
"q  c #373131",
"w  c #3A3634",
"e  c #3E3C35",
"r  c #3C3A3F",
"t  c #443E2C",
"y  c #443B34",
"u  c #423D3A",
"i  c #3C413A",
"p  c #44413C",
"a  c #4C423A",
"s  c #534031",
"d  c #53483D",
"f  c #2C374A",
"g  c #333C4D",
"h  c #3A3941",
"j  c #333E53",
"k  c #3C3F52",
"l  c #262B49",
"z  c #3E404D",
"x  c #374255",
"c  c #36445E",
"v  c #3A465C",
"b  c #3E4D64",
"n  c #474340",
"m  c #4A4642",
"M  c #4C4948",
"N  c #534D49",
"B  c #5A4F49",
"V  c #564943",
"C  c #5D5445",
"Z  c #56524B",
"A  c #5D554C",
"S  c #55574A",
"D  c #5C4D50",
"F  c #565050",
"G  c #5C5452",
"H  c #5D5A53",
"J  c #5F595A",
"K  c #60554C",
"L  c #695749",
"P  c #62594D",
"I  c #615142",
"U  c #715C4B",
"Y  c #645C54",
"T  c #645E59",
"R  c #655A55",
"E  c #68624C",
"W  c #73604F",
"Q  c #79634C",
"!  c #6D6254",
"~  c #67605A",
"^  c #6B625A",
"/  c #726555",
"(  c #706458",
")  c #756B5C",
"_  c #7A6D5C",
"`  c #786956",
"'  c #79715E",
"]  c #434E68",
"[  c #4A5361",
"{  c #44536D",
"}  c #4F576C",
"|  c #465771",
" . c #4B5B75",
".. c #47577B",
"X. c #48567D",
"o. c #4B5A79",
"O. c #515C72",
"+. c #506175",
"@. c #51617B",
"#. c #6B6464",
"$. c #6D6C65",
"%. c #6B696C",
"&. c #766A62",
"*. c #7A6F61",
"=. c #7E7363",
"-. c #7B7269",
";. c #7B7777",
":. c #81604F",
">. c #836C5A",
",. c #81715F",
"<. c #90715C",
"1. c #806E62",
"2. c #827263",
"3. c #8A7662",
"4. c #8B7A64",
"5. c #83796C",
"6. c #8A7C6C",
"7. c #937E69",
"8. c #93816D",
"9. c #878070",
"0. c #8A8272",
"q. c #8E867D",
"w. c #8C8F7E",
"e. c #9C8471",
"r. c #9B8877",
"t. c #93867A",
"y. c #9D8C7A",
"u. c #928779",
"i. c #A1836B",
"p. c #A38972",
"a. c #928F88",
"s. c #9C948B",
"d. c #AC8E83",
"f. c #A49486",
"g. c #AA9B8B",
"h. c #A4988C",
"j. c #A49C93",
"k. c #A69C9A",
"l. c #A8A093",
"z. c #ADA59A",
"x. c #A9A69A",
"c. c #B1A294",
"v. c #B2AD95",
"b. c #B5A797",
"n. c #B7B199",
"m. c #BDB29C",
"M. c #AAA3A2",
"N. c #BAACA3",
"B. c #B2ADAA",
"V. c #ACB3A3",
"C. c #B6B4A7",
"Z. c #BBB0A2",
"A. c #BCB6B5",
"S. c #C1AF97",
"D. c #C6B9AE",
"F. c #C0B4A4",
"G. c #C2BAB7",
"H. c #C7C1A7",
"J. c #DCC0A8",
"K. c #CDC6BD",
"L. c #CCC4B7",
"P. c #D0C9BF",
"I. c #D9C9B5",
"U. c #D7D1BB",
"Y. c #E8CCB4",
"T. c #CFC4C0",
"R. c #CDC9C4",
"E. c #C4C9C5",
"W. c #D6CCC3",
"Q. c #D9CDC0",
"!. c #D9D1C4",
"~. c #DDD4CC",
"^. c #DCD8CF",
"/. c #DBD6D2",
"(. c #D8D9D1",
"). c #E2D5C4",
"_. c #E8D8CE",
"`. c #E2DCD5",
"'. c #E1D6D4",
"]. c #E2E0D7",
"[. c #EBE4D3",
"{. c #E4E3DC",
"}. c #EBE3DC",
"|. c #E7E8D8",
" X c #EAE8DC",
".X c #F8EFDE",
"XX c #F3E6DD",
"oX c #E5E5E4",
"OX c #EDE9E4",
"+X c #EDEDEB",
"@X c #F2ECE4",
"#X c #F2EEEC",
"$X c #F6F2E9",
"%X c #F6F1E9",
"&X c #F4F5F3",
"*X c #FEFCF5",
"=X c #F6F8FB",
"-X c #FFFFFD",
";X c #FFFDFE",
":X c #FDFDFB",
">X c #F6F7F2",
/* pixels */
"A P K K ~ -.&.y 1 3 3 q q w 3 i p p n m u p m u M ",
") Y d C Y ~ ~ Y G N H S S H T D Z T Y G G Z A T ~ ",
"z.Z.f.t.^ P A P C C K R G B C K A A P A A K A A K ",
"! 2.r.2.) ) ( ! ) *._ ` 2.2.) *.=.*.=._ _ _ *.*._ ",
"2.8.3.4.2.D._.c.1.2.2.) E _ 2.2.2.3.2._ 4.,.2.2.2.",
"5.6.y.,._ t.Z.c.' ` _ 8.f._ _ ) ) _ _ _ _ / 2.) &.",
"P.L.6.0.z.j.q.a $.z.7.J.Y.b.s.(.K.T.!.Q.N.z.`.^.v.",
":X@Xj.*XOX/./.y j.XXy.>.e.W h.*XoX>X:X*X`.R.:X;X*X",
";X].N.*X:X|.V.V v.I.7.p.d.<.4.>X!. X*X$X[.Q.:X:X*X",
":X{.F.:X=X*XE.y 0._.e.p.:.i.` !.~.}.>X$X!.Z.*X:X*X",
";X+Xn.;X;X:X&Xa x.A.y U U I t x.Q.}.@X}.K.l.OX>X$X",
";X{.v.*X;X*X*X) s.%.e L s K p $.m..X}.`.T.k.OX=X].",
";XU.=.Q.@X#X[.w./ C 5 U Q ! < d 9.@X}./.G.M.#XoX/.",
"'.I.! y.).~.H.;.m e > H 5.F 0 ; r #.J J G m a.{.R.",
"D.S.0.6.g.C.q.z v g x { [ [ ] | k 0 7 = : + H {.A.",
").3.C g._ w.;.l X.O. ...+.} o...g 6 7 - - . #./.G.",
"W.t Z M.5 N h ; { @.{ {  . . .{ 6 & ; X X   J %XR.",
"s.2 @ + 4 = 6 % j ] c c b v x f % % ; o X . N W.B.",
", e O + w M 0 $ 8 g f j v g 8 * $ & ; o o . # ^ #."
};
