/* XPM */
static const char *micro_lduthill[] = {
/* columns rows colors chars-per-pixel */
"25 19 186 2 ",
"   c #150C04",
".  c #130E0B",
"X  c #0F1106",
"o  c #0E100D",
"O  c #191007",
"+  c #15110D",
"@  c #1A130E",
"#  c #151411",
"$  c #1A1512",
"%  c #1D1916",
"&  c #111518",
"*  c #1E1C1C",
"=  c #22180C",
"-  c #231C15",
";  c #211D1A",
":  c #1F201B",
">  c #25211B",
",  c #2C251D",
"<  c #282919",
"1  c #2A2215",
"2  c #3A281E",
"3  c #2A2322",
"4  c #2C2B26",
"5  c #3B2F2F",
"6  c #392F25",
"7  c #39322A",
"8  c #492F1E",
"9  c #6C3E1D",
"0  c #463C35",
"q  c #693720",
"w  c #643E29",
"e  c #52483E",
"r  c #554536",
"t  c #7D4D27",
"y  c #694432",
"u  c #4E4741",
"i  c #43434B",
"p  c #534A41",
"a  c #5F574C",
"s  c #57524C",
"d  c #575958",
"f  c #5D5E58",
"g  c #66564A",
"h  c #78554C",
"j  c #605B56",
"k  c #665F59",
"l  c #696057",
"z  c #67625D",
"x  c #6B635B",
"c  c #71665D",
"v  c #74695E",
"b  c #646363",
"n  c #6F6962",
"m  c gray42",
"M  c #726762",
"N  c #736B62",
"B  c #796D64",
"V  c #766F69",
"C  c #7A6F6A",
"Z  c #7A6560",
"A  c #727164",
"S  c #7A7166",
"D  c #7D746B",
"F  c #76726F",
"G  c #7D7975",
"H  c #805737",
"J  c #855A36",
"K  c #8C5D41",
"L  c #955D46",
"P  c #876043",
"I  c #976648",
"U  c #926442",
"Y  c #896E51",
"T  c #996E57",
"R  c #AD6841",
"E  c #A16A55",
"W  c #A97659",
"Q  c #826F60",
"!  c #82766C",
"~  c #847668",
"^  c #987A68",
"/  c #817670",
"(  c #847B73",
")  c #8B7F74",
"_  c #8B7E78",
"`  c #AA7C6C",
"'  c #B37F69",
"]  c #B17D70",
"[  c #8D8276",
"{  c #878078",
"}  c #8C857A",
"|  c #968577",
" . c #968D7F",
".. c #9F8479",
"X. c #A08F7F",
"o. c #A2857F",
"O. c #B89379",
"+. c #A5866A",
"@. c #D38360",
"#. c #C9907D",
"$. c #878380",
"%. c #8D8680",
"&. c #8E8980",
"*. c #8A8E8F",
"=. c #84888B",
"-. c #9B8780",
";. c #938B83",
":. c #928E89",
">. c #9B8881",
",. c #96928C",
"<. c #9B938B",
"1. c #8E9193",
"2. c #87949D",
"3. c #A1998E",
"4. c #BE9F8B",
"5. c #B29985",
"6. c #A39E99",
"7. c #B59D93",
"8. c #A9A39C",
"9. c #B9A49F",
"0. c #9FA7A9",
"q. c #A0A0A0",
"w. c #ABA5A3",
"e. c #AEA9A2",
"r. c #AAABAA",
"t. c #A4ACAF",
"y. c #B3AEA5",
"u. c #B8B3A7",
"i. c #BEB7AD",
"p. c #BFB8AE",
"a. c #A5ACB2",
"s. c #B7B7B5",
"d. c #BCBAB4",
"f. c #B7BABC",
"g. c gray73",
"h. c #C19585",
"j. c #CA9587",
"k. c #D69F8B",
"l. c #D99D83",
"z. c #C4A69B",
"x. c #DCBBAD",
"c. c #DBB9A5",
"v. c #E2BFA9",
"b. c #BBC6B8",
"n. c #CFC7BC",
"m. c #DCD4BD",
"M. c #EEC0A6",
"N. c #E1C1AA",
"B. c #EEC7B8",
"V. c #F4CCB8",
"C. c #B7BFC2",
"Z. c #B8BDC0",
"A. c #BEC3C4",
"S. c #BCC3CA",
"D. c #BDCAD0",
"F. c #C7C6C4",
"G. c #CFCCC7",
"H. c #C1C6CB",
"J. c #CCCDCA",
"K. c #D3D4CC",
"L. c #D8D8CE",
"P. c #C4CBD1",
"I. c #C8D1D8",
"U. c #D8D5D0",
"Y. c #DADBD7",
"T. c #D7D8D8",
"R. c #E0D7D0",
"E. c #E3E4DE",
"W. c #E8E3DF",
"Q. c #D7DFE2",
"!. c #D9E1E3",
"~. c #DBE4EA",
"^. c #E4E4E2",
"/. c #ECECE6",
"(. c #E5E6E8",
"). c #EEEAE9",
"_. c #F3EDE3",
"`. c #FDEEEB",
"'. c #F3F2EF",
"]. c #E7F3FB",
"[. c #E9F4FC",
"{. c #E8F0F3",
"}. c #F3F5F3",
"|. c #F3F7F8",
" X c #FEFEFD",
".X c #F9FAF7",
/* pixels */
"s.:.( N g e 6 , $ + X . i w.e.J.6.- - 3 ; % * ; : ",
"G G ( ( / { ( D N p 7 4 A ;.;. .N 0 , > > > ; $ # ",
"x x j j j j x n A n b f ! ,.A._..Xy.&.} } y.i.p.u.",
"! B N n n z z k l f d C ~ n. X^.u.( ;.3.3.! [  .<.",
"! D D V n N N N Z x Q h.' W O.S x N v B B B B v c ",
",.G V V B N c S M B V.M.l.@.R Y ! ( ! / D S D / } ",
"A.r.$.D / D N S M -.z.^ ` E I T D ( S D :.w.G./.}.",
"2.H.s.:.( ( ( D ^ 5...h h 2 r P ( ( d.e.^. X X X X",
",.1.I.S.:._ ) ( o.V.x.] #.w H U 8.). XL./. X X X X",
" X*.a.Q.g.&.} [ } x.c.h.` q K 4.'. X XK./. X X X X",
" XY.=.!.!.q.;.| _ <.N.j.T 9 +.`. X X XJ.E. X X X X",
" X Xr.C.[.P.%.X.>.8.v.k.L J m. X X X XK./. X X X X",
" X XT.t.[.~.6.| S 9.B.O.t I _.b.J. X XY./. X X X X",
" X X}.f.].].r.B < 0 7.c.J y 5 = s  X XK.E. X X X X",
" X X XZ.{. Xd.u ; $ ; g 8   @ = 7 W. XL.^. X X.X X",
" X X XH.|.^.m # * 3 .   o & O # 1 V U.L.E. X X X X",
" X X XF.F 3 # * % % % + @ $ $ $ - O - a R. X X}.'.",
" X|. Xb + ; ; % % $ % + + + $ $ @ > @   <.^.(.0.1.",
"|. XU.4 ; ; % % $ $ $ . . + @ @ $ $ $ $ ; 1.~.D.S."
};
