/* XPM */
static const char *micro_nsion[] = {
/* columns rows colors chars-per-pixel */
"25 19 198 2 ",
"   c #0D0804",
".  c #1B0C04",
"X  c #160A06",
"o  c #1D1003",
"O  c #18120A",
"+  c #130911",
"@  c #181310",
"#  c #1D1815",
"$  c #240E01",
"%  c #2B1804",
"&  c #2C140C",
"*  c #261509",
"=  c #39180F",
"-  c #361A07",
";  c #221612",
":  c #291A10",
">  c #221D1C",
",  c #231812",
"<  c #3C1C16",
"1  c #2A2118",
"2  c #39211A",
"3  c #392618",
"4  c #372928",
"5  c #411E18",
"6  c #431B14",
"7  c #501D19",
"8  c #42230E",
"9  c #4A2313",
"0  c #42231A",
"q  c #442C19",
"w  c #522418",
"e  c #542F1F",
"r  c #47301E",
"t  c #4C301A",
"y  c #57351A",
"u  c #733F18",
"i  c #532C24",
"p  c #552921",
"a  c #423425",
"s  c #49352D",
"d  c #43372F",
"f  c #52342B",
"g  c #533125",
"h  c #423934",
"j  c #5A3D35",
"k  c #66412E",
"l  c #794928",
"z  c #724F3C",
"x  c #65453A",
"c  c #584F46",
"v  c #584945",
"b  c #6F5F4F",
"n  c #665543",
"m  c #635C53",
"M  c #685E5C",
"N  c #766048",
"B  c #77694F",
"V  c #6B645C",
"C  c #69625A",
"Z  c #7C6453",
"A  c #72675D",
"S  c #736A5E",
"D  c #7C6A5B",
"F  c #766456",
"G  c #6E6D67",
"H  c #756B62",
"J  c #7A6D63",
"K  c #726F68",
"L  c #7B7267",
"P  c #7B736B",
"I  c #757168",
"U  c #7E7A71",
"Y  c #717372",
"T  c #834B28",
"R  c #955228",
"E  c #8D4932",
"W  c #914D38",
"Q  c #8A5738",
"!  c #885839",
"~  c #915435",
"^  c #9D633D",
"/  c #82654A",
"(  c #8C6345",
")  c #976240",
"_  c #93674C",
"`  c #9E6C46",
"'  c #816D5C",
"]  c #916C51",
"[  c #8D715C",
"{  c #AB734E",
"}  c #A67A5F",
"|  c #837264",
" . c #83756C",
".. c #867C6F",
"X. c #887568",
"o. c #957E6C",
"O. c #9A7761",
"+. c #807771",
"@. c #857C73",
"#. c #8A7D72",
"$. c #907C73",
"%. c #B07F61",
"&. c #94846A",
"*. c #8C8076",
"=. c #8C847B",
"-. c #928377",
";. c #97877A",
":. c #96887F",
">. c #998B7E",
",. c #BB886B",
"<. c #A08071",
"1. c #B78E7C",
"2. c #AF907C",
"3. c #C08A68",
"4. c #CF8A75",
"5. c #C29077",
"6. c #CB9374",
"7. c #C89B72",
"8. c #CFA17F",
"9. c #7E8281",
"0. c #8C8A82",
"q. c #8F8480",
"w. c #948B83",
"e. c #9C8C84",
"r. c #938F89",
"t. c #9C8B86",
"y. c #9D9286",
"u. c #94908C",
"i. c #9C938D",
"p. c #9F9B8F",
"a. c #939591",
"s. c #999591",
"d. c #9B9996",
"f. c #A08E84",
"g. c #A4958C",
"h. c #A5978B",
"j. c #A29B93",
"k. c #AB9D96",
"l. c #A69F9C",
"z. c #B69987",
"x. c #B8A28D",
"c. c #A2A19C",
"v. c #ACA39B",
"b. c #ABA89F",
"n. c #BCAD9A",
"m. c #A3A2A1",
"M. c #ADA9A4",
"N. c #ADABA8",
"B. c #B3ADA4",
"V. c #B1AEAB",
"C. c #ACB0AF",
"Z. c #BDB0A7",
"A. c #BCBAAD",
"S. c #ABB5BA",
"D. c #AFB8BD",
"F. c #B4B9BE",
"G. c #BABCB7",
"H. c #D99F89",
"J. c #C4B29E",
"K. c #E5AD92",
"L. c #E9B89E",
"P. c #C5B6A8",
"I. c #C4BAB3",
"U. c #C0BDBF",
"Y. c #E8BEA5",
"T. c #BFC2B9",
"R. c #C2C1BC",
"E. c #B6BCC4",
"W. c #C1BCC0",
"Q. c #C8C7C5",
"!. c #CDCDCD",
"~. c #C7CAC4",
"^. c #D3CAC4",
"/. c #D6D0C4",
"(. c #C2CCD5",
"). c #CAD4D4",
"_. c #CAD4DD",
"`. c #DAD6D5",
"'. c #E6DCD3",
"]. c #DDE2DE",
"[. c #D8DFE7",
"{. c #D1DAE3",
"}. c #EBEBE6",
"|. c #E4EBEF",
" X c #E6E9E8",
".X c #F1ECEB",
"XX c #EFF1E4",
"oX c #F4F3E6",
"OX c #F3F3ED",
"+X c #FAF1EA",
"@X c #E1EBF2",
"#X c #EAEFF3",
"$X c #E5EFF9",
"%X c #EAF4F9",
"&X c #FEFBF4",
"*X c #F5F9FE",
"=X c #FDFEFD",
"-X c #F3F7FA",
/* pixels */
"A A A V m ^.=X=XOX/.b...S K ..I A J J S C J D ' | ",
"A A H V C V.I.i.X.J D J  .| A X.P J J H m G L H F ",
"H H J J H V V H J +. .@.P  .q. .w.i.v.B.0.c.N.d.a.",
" .J L J P P @. .U @.C : 3 1 m }.=X=X=X=XG. X=X*X].",
"@.#.#. .@.+.+.#.*.D r ] ( t . U =X*X*X=XT.}.=X=X=X",
"*.#.*.*.@.=.=.#.e.s _ L.6.Q - , `.=X=X=X!..X=X=X=X",
"-.-.-.#.=.=.*.w. .s 1.5.6.Q q . w.=X=X*XQ.}.=X=X=X",
">.;.>.=.w.0.=.y.F [ 2.%.{ ! y o b &X&X=XQ..X=X=X=X",
"f.>.>.e.0.w.e.j.' ,.Y.H.~ ` ) * a oX=X=X!..X=X=X=X",
"f.y.e.:.i.u.w.B.M O.K.4.W ^ T $ 3 '.&X=XR.OX&X=X=X",
"v.w.e.g.r.u.w.I.v f L.4.E R l , & ^.=X=XT.oX=X=X=X",
"k.h.h.y.s.i.g.n.p X O.8.` u - > $ I.=X=X~.XX=X=X&X",
"v.e.h.j.s.u.y.x.w   q 7.l - o 3 $ Z.=X=XC.OX&X=X&X",
"M.g.h.j.U.Q.I.z.6 O . } 3.k : 9 % P.&X=XF.#X=X*X=X",
"c.y.j.a.|.=X+X<.= : + 2 _ z a i = Z J.y.V.|.[.|.-X",
"u.4 r.).{.@XM.x < 8 ; O % d h p 6 e / &.B.=X$X@X#X",
"s.@ 9.=X$XW.t.0 9 0 : . : d & 5 7 w / o.o.A.(.*X%X",
"d.# Y *X).U.i.j f J v O c w.v 2 i g N Z ' p.S.E.F.",
"m.> G =XS.m.l.k.e.v.M.r.j.V.l.w.$.D B n D v._.E.D."
};
