/* XPM */
static const char *micro_pabatail[] = {
/* columns rows colors chars-per-pixel */
"25 19 195 2 ",
"   c #060807",
".  c #070C0A",
"X  c #0C0C0C",
"o  c #120D0C",
"O  c #0E100F",
"+  c #15110C",
"@  c #1C140D",
"#  c #0D0C11",
"$  c #100F12",
"%  c #1A0A14",
"&  c #0C1112",
"*  c #0E171C",
"=  c #141314",
"-  c #1A1414",
";  c #1E1913",
":  c #141519",
">  c #1A171B",
",  c #17191C",
"<  c #1B1A1D",
"1  c #231914",
"2  c #241D1A",
"3  c #26201B",
"4  c #2D241C",
"5  c #2B2117",
"6  c #35281F",
"7  c #31241C",
"8  c #1A1C22",
"9  c #231F20",
"0  c #2A1F25",
"q  c #262322",
"w  c #2B2523",
"e  c #2D2A26",
"r  c #2D2D2B",
"t  c #332623",
"y  c #332B23",
"u  c #332C2C",
"i  c #382B22",
"p  c #393027",
"a  c #393228",
"s  c #3D3532",
"d  c #39383D",
"f  c #44342B",
"g  c #483A2F",
"h  c #433A31",
"j  c #4A3D35",
"k  c #473C38",
"l  c #573C3A",
"z  c #41403C",
"x  c #4C443C",
"c  c #584237",
"v  c #53453B",
"b  c #5F493E",
"n  c #6E4D3C",
"m  c #4D4643",
"M  c #464549",
"N  c #534C45",
"B  c #5B4E44",
"V  c #564F49",
"C  c #5F4C4A",
"Z  c #5C524B",
"A  c #5F5345",
"S  c #504F54",
"D  c #5D5B5E",
"F  c #65444D",
"G  c #6C5144",
"H  c #63554C",
"J  c #66584C",
"K  c #6A5B4E",
"L  c #764A57",
"P  c #7A4D57",
"I  c #6F5056",
"U  c #655953",
"Y  c #6C5D53",
"T  c #605E5F",
"R  c #725E52",
"E  c #76575D",
"W  c #6E6055",
"Q  c #6F655C",
"!  c #726154",
"~  c #74655C",
"^  c #7A6759",
"/  c #79695C",
"(  c #716863",
")  c #7A6D64",
"_  c #7D7166",
"`  c #77726F",
"'  c #7C716A",
"]  c #6B6C70",
"[  c #787775",
"{  c #7B7B7E",
"}  c #76777C",
"|  c #86555B",
" . c #896859",
".. c #846354",
"X. c #876F63",
"o. c #9A676E",
"O. c #847364",
"+. c #8A7565",
"@. c #8C7866",
"#. c #85766A",
"$. c #8C7C6D",
"%. c #8B756A",
"&. c #927E6C",
"*. c #9B7764",
"=. c #996875",
"-. c #8B7D72",
";. c #857C73",
":. c #94816D",
">. c #99836E",
",. c #8E8171",
"<. c #81807E",
"1. c #8E8279",
"2. c #938273",
"3. c #9A8572",
"4. c #938478",
"5. c #9C8A79",
"6. c #A48E7D",
"7. c #A9897A",
"8. c #A6907B",
"9. c #BC937F",
"0. c #8A8687",
"q. c #8B898C",
"w. c #8B8883",
"e. c #958B85",
"r. c #95938F",
"t. c #99938D",
"y. c #8E8F93",
"u. c #939296",
"i. c #95949A",
"p. c #9E9A9A",
"a. c #B38089",
"s. c #AB9887",
"d. c #A0988D",
"f. c #A79588",
"g. c #B1978A",
"h. c #BB9A89",
"j. c #A09790",
"k. c #AC9F96",
"l. c #A29E9E",
"z. c #A79D94",
"x. c #A7A09A",
"c. c #ACA39B",
"v. c #B2A69D",
"b. c #B1A192",
"n. c #A5A3A3",
"m. c #ADA9A9",
"M. c #A8A7A7",
"N. c #B2A7A1",
"B. c #BDAEA2",
"V. c #B4ADA3",
"C. c #B9B0AA",
"Z. c #ABACB1",
"A. c #B5B1B0",
"S. c #BBB7B8",
"D. c #B8B4B3",
"F. c #C0A89C",
"G. c #D3AE9C",
"H. c #C3B5AA",
"J. c #C6B9AC",
"K. c #C8B8AB",
"L. c #CDBFB1",
"P. c #C0BBB8",
"I. c #C3BCB4",
"U. c #C4C2BF",
"Y. c #CEC7BF",
"T. c #CEC2B4",
"R. c #D1C4BA",
"E. c #E1C5B9",
"W. c #BBBCC1",
"Q. c #CBC6C3",
"!. c #C7C8CD",
"~. c #CAC8C8",
"^. c #D3CDC4",
"/. c #D8CFC0",
"(. c #D4CFCC",
"). c #DDD1C5",
"_. c #D4D1CD",
"`. c #DCD5CC",
"'. c #DDDDDA",
"]. c #D7D6D3",
"[. c #E0D6CC",
"{. c #E3DCD3",
"}. c #EFE1D4",
"|. c #E5E3DC",
" X c #EEE5DA",
".X c #E1DCE2",
"XX c #E6E7EC",
"oX c #ECE9E4",
"OX c #F3EEE6",
"+X c #FFF9EB",
"@X c #F4F1EC",
"#X c #F0EDF4",
"$X c #F7F4F3",
"%X c #FFFCF1",
"&X c #FFFFFE",
/* pixels */
"y 4 y @ 1 ; ; ; 6 Q a o - e - 2 N x x 2 2 3 q q 4 ",
"x p t N N Z N Z ~ ) 4 + ; + 1 2 3 3 s u w e u w e ",
"v.1.v x H H J Y ^ Y Z m x N k j x h x N N N N V N ",
"%XB./ 2.f.5.O.! K ! ~ U Z U ~ Y J W Y H J J A K K ",
"B.f.+.&.>.8.3.@.2.$.$.j 7 1 i -.&.2.3.:.&.:.$.:.&.",
").b.3.3.3.6.3.:./.+X#.c 4.-.g B 5.+.@.&.+.+.&.+.O.",
"{.c.,.6.5.s.2.2.d.H.R g.E.F.Y j 2.-.#.O.-.) _ 4.e.",
"|.V.).}.L.K.J.-.;.! G .. .G j ) ^.I.t.x.{.x.t.@X&X",
"'.).OX|. XT.|.M.t.H X.G.9.*.%.1.].P.r.A.Q.A.l.$X&X",
"~.).^.'. XL.oX_._.B b h.*.n R N.(.U.r.m.m.M.q.~.oX",
"].J.{.'.`.L.{.oX@X' f 6.7.G B C.D.A.0.u.p.i.{ M..X",
"U.R.Y._.[.L.`.U.$Xp.f g.+.c Z Z n.S.u.q.u.u.{ Z.#X",
"n.H.C.U.[.f.Q.r.{ s @ U e.C s X = M D q.u.u.} W.XX",
"` $.' <.z._ w.r - - 9 - 1 2 X : : # $ d M S M ] !.",
"m $.' [ _ 1.z , , 8 , < < o = , , , = X X X X X y.",
"m 2._ l.;.Z q = : , 8 , , < , : # , X : = X X X u.",
"K 1.h c.c.e > & * % X . X & X > 0 o X = = X X   q.",
"R.k.5 j.( - > = - F E l L P =.=.u = X X = X X   T ",
"v.v @ y o > > X t a.o.| P I C s > # X O - $ = = M "
};
