/* XPM */
static const char *micro_mjochum[] = {
/* columns rows colors chars-per-pixel */
"25 19 200 2 ",
"   c #150B03",
".  c #190D06",
"X  c #1A1209",
"o  c #160C14",
"O  c #230C04",
"+  c #24150B",
"@  c #2B1B0D",
"#  c #241605",
"$  c #341907",
"%  c #201710",
"&  c #2A1D15",
"*  c #261D18",
"=  c #341E13",
"-  c #381C18",
";  c #3B220D",
":  c #2D251B",
">  c #3B2512",
",  c #352119",
"<  c #33291E",
"1  c #372717",
"2  c #2A2523",
"3  c #322B23",
"4  c #3F2F20",
"5  c #302722",
"6  c #39352A",
"7  c #333029",
"8  c #441908",
"9  c #4F250C",
"0  c #482310",
"q  c #442B1B",
"w  c #46321C",
"e  c #5A351C",
"r  c #672F0A",
"t  c #69330F",
"y  c #703B19",
"u  c #462F29",
"i  c #5C2E21",
"p  c #4A3426",
"a  c #45362A",
"s  c #5E3C33",
"d  c #713A25",
"f  c #524536",
"g  c #5B4337",
"h  c #69442D",
"j  c #68462A",
"k  c #694536",
"l  c #65503F",
"z  c #494842",
"x  c #514E45",
"c  c #5A5E5F",
"v  c #7D5D46",
"b  c #6C5D53",
"n  c #665E53",
"m  c #734746",
"M  c #7F634E",
"N  c #6A645C",
"B  c #756556",
"V  c #7C6955",
"C  c #75655C",
"Z  c #736B59",
"A  c #7C6B5B",
"S  c #79655A",
"D  c #7A725D",
"F  c #606060",
"G  c #6D6D6D",
"H  c #676A63",
"J  c #746861",
"K  c #7D6D63",
"L  c #7E6F68",
"P  c #7E7165",
"I  c #777367",
"U  c #6E7975",
"Y  c #787A77",
"T  c #8D5536",
"R  c #905F37",
"E  c #90593B",
"W  c #965F40",
"Q  c #826856",
"!  c #81725A",
"~  c #89705C",
"^  c #B86E47",
"/  c #816E60",
"(  c #837563",
")  c #867469",
"_  c #8B7A6B",
"`  c #887667",
"'  c #9C7C65",
"]  c #927B6C",
"[  c #9A7664",
"{  c #837D72",
"}  c #8C7D73",
"|  c #817775",
" . c #927D72",
".. c #A66F68",
"X. c #B37D63",
"o. c #8D816B",
"O. c #9A8268",
"+. c #8B837B",
"@. c #84807D",
"#. c #948176",
"$. c #96887D",
"%. c #A08E78",
"&. c #A88572",
"*. c #BD8A7A",
"=. c #C78B73",
"-. c #7E8285",
";. c #848586",
":. c #958D83",
">. c #999087",
",. c #9D958C",
"<. c #8D8E90",
"1. c #8D9796",
"2. c #9E9C92",
"3. c #959896",
"4. c #A19A8D",
"5. c #AE968D",
"6. c #BF9587",
"7. c #B29287",
"8. c #A89C90",
"9. c #B4A796",
"0. c #B0A798",
"q. c #B9A49F",
"w. c #BDB09D",
"e. c #A4A796",
"r. c #999EA1",
"t. c #9399A9",
"y. c #9FA8AF",
"u. c #9FA4A7",
"i. c #A3A5A4",
"p. c #AAA9A7",
"a. c #B8AEAF",
"s. c #B7ACA7",
"d. c #BAB2A4",
"f. c #BEB8AD",
"g. c #A5ACB2",
"h. c #AFADB0",
"j. c #AFB4B8",
"k. c #B4B3B1",
"l. c #CDA48E",
"z. c #C9AE9B",
"x. c #D2A296",
"c. c #C5AEA3",
"v. c #C3BCAA",
"b. c #C1B5A9",
"n. c #D4B3A3",
"m. c #E6B8A8",
"M. c #EABCA5",
"N. c #E8BDB6",
"B. c #B8C2BA",
"V. c #C6C5B6",
"C. c #CCC5B5",
"Z. c #CCC1BA",
"A. c #CDCABC",
"S. c #C7C5B9",
"D. c #D3C4B3",
"F. c #D9C7B9",
"G. c #F3CAB6",
"H. c #BECCD5",
"J. c #C1C7C3",
"K. c #CFC6C3",
"L. c #C7CBCB",
"P. c #D6CCC3",
"I. c #DFCEC4",
"U. c #C2D2CF",
"Y. c #DED4C7",
"T. c #D5D0CC",
"R. c #C1CFD2",
"E. c #C7D2D6",
"W. c #DFD7D4",
"Q. c #DDDED9",
"!. c #D6D7D5",
"~. c #EBDAC6",
"^. c #F2D4CA",
"/. c #E5DDD4",
"(. c #E5DFDC",
"). c #E7D9D7",
"_. c #FFE4CF",
"`. c #E0E0D8",
"'. c #EAE3DE",
"]. c #E3DEE2",
"[. c #DDE5ED",
"{. c #D9E2E1",
"}. c #DCE6F3",
"|. c #EDE5E3",
" X c #E5EBEA",
".X c #E7EAE6",
"XX c #F2EBE7",
"oX c #F3F3EA",
"OX c #FBF4EC",
"+X c #E2EBF6",
"@X c #E9ECF1",
"#X c #ECF3F5",
"$X c #ECFFFF",
"%X c #F5F4F4",
"&X c #FBF6F3",
"*X c #F6F9F5",
"=X c #FDFBF5",
"-X c #F3F6F9",
";X c #F6F9FC",
":X c #FDFEFD",
/* pixels */
"t.,.#.) _ P D V V J J C B n Q.:X=XXXP.9.) K ! P / ",
"| { u.3.` ~ ! L B Z V A B C f.s.>.{ K A ) ) ! K ( ",
"&XZ c 1.p.:._ ) ( ~ V D I J b S A K _ ( ( ( o.Z.|.",
":Xv./.G -.j.2. .} ] ] ) n N _ } ]  . .( 8./.d.=X:X",
":XC.:X;X@.Y B.i.#.%.A s k > w P #. .} v.=X:XV.&X:X",
":XA.%X:X&XY 1.H.e.O.g n.M.X.t $ _ $.Z.=X%X:XA.&X:X",
":XA.=X=X:X!.U L.U.[ 7._.M.=.^ ; f b.=X*X:X;XV.&X:X",
":XC.&X:X=X:X3.h.}. .5.6.*.v R h a /.:X:X:X:Xf.OX:X",
":XD.%X:X*X:XJ.r.+X9.z.x.*.d W j j :X:X;X:X:XS.oX:X",
"=XC.%X:X:X=X{.r.#Xc.N.m.' y ^ T M :X:X:X:X:X2.Q.:X",
":XC.XX:X:X:X Xy.$Xq.&.[ s 8 T 9 l :X*X:X:X:X4.Q.:X",
":X0.W.:X:X:X#Xg.=X' w 5...i ;   p XX*X-X%X;XY.'.#X",
":XC.|.:X:X:X#Xg.=Xk + 5 u +   o $ I.Q.@XE.[.~.Y.(.",
":Xd.(.:X*X:X.Xp..Xq h ` * . ; . O c.2.;.}.+X~.P.%X",
"-X4.'. XL.%XoX,.&.e e G.l.E r # $ h f +.:X+XD.`.%X",
"#Xd.T.:X X.X:.< - $ Q ^.F.n.&.q , 0 # @ H [.w.J. X",
" Xk.F.;X XY , @ O + N K.K.a.C = > q 1 &   +.2.Y i.",
"{.<. .].k.7 a < & < : 3 2 * + 4 p > , &   3 x F ;.",
"R.Y m ).F 3 6 6 3 : < 3 2 2 : : = @ + X % . z G z "
};
