/* XPM */
static const char *micro_jelefevr[] = {
/* columns rows colors chars-per-pixel */
"25 19 199 2 ",
"   c #060100",
".  c #0C0703",
"X  c #120C05",
"o  c #150508",
"O  c #1C1102",
"+  c #141309",
"@  c #150E15",
"#  c #1A1614",
"$  c #1E1A13",
"%  c #1B1718",
"&  c #211809",
"*  c #281A06",
"=  c #34160C",
"-  c #281F18",
";  c #251C17",
":  c #1F201B",
">  c #35200D",
",  c #2D241B",
"<  c #3C2B1C",
"1  c #3A2A19",
"2  c #472205",
"3  c #53240A",
"4  c #482915",
"5  c #482719",
"6  c #532E13",
"7  c #5B361C",
"8  c #6E3C1B",
"9  c #4C2C22",
"0  c #532C27",
"q  c #5E3524",
"w  c #403732",
"e  c #443B32",
"r  c #493F36",
"t  c #463C3B",
"y  c #513E38",
"u  c #4B3A26",
"i  c #623629",
"p  c #6D3F32",
"a  c #56483B",
"s  c #6E4622",
"d  c #6B4B3C",
"f  c #704937",
"g  c #65553E",
"h  c #7E5537",
"j  c #784C29",
"k  c #544A45",
"l  c #5A4B44",
"z  c #58524C",
"x  c #505251",
"c  c #5D5C5A",
"v  c #4A4B46",
"b  c #6A4D44",
"n  c #62564C",
"m  c #675B4B",
"M  c #6A594C",
"N  c #665545",
"B  c #765F4F",
"V  c #655B54",
"C  c #695C53",
"Z  c #635B59",
"A  c #715955",
"S  c #7E6046",
"D  c #666158",
"F  c #6D635A",
"G  c #6B6253",
"H  c #726356",
"J  c #726459",
"K  c #7C655A",
"L  c #756B5C",
"P  c #796A5C",
"I  c #796453",
"U  c #6B6461",
"Y  c #6A6A64",
"T  c #656768",
"R  c #776C63",
"E  c #7A6D63",
"W  c #746C69",
"Q  c #7E7265",
"!  c #7D726A",
"~  c #797877",
"^  c #874221",
"/  c #8A4921",
"(  c #8E5B2E",
")  c #88563F",
"_  c #9F5C3F",
"`  c #AC693E",
"'  c #814E4A",
"]  c #80554F",
"[  c #885B46",
"{  c #925945",
"}  c #80644C",
"|  c #8C6858",
" . c #826755",
".. c #9A6D5A",
"X. c #87755D",
"o. c #A16751",
"O. c #A97454",
"+. c #817462",
"@. c #8C7263",
"#. c #83756A",
"$. c #877C6D",
"%. c #8B7A6D",
"&. c #92786B",
"*. c #877E74",
"=. c #837978",
"-. c #BC7E73",
";. c #89806F",
":. c #97836C",
">. c #8D857C",
",. c #938373",
"<. c #968A7E",
"1. c #988779",
"2. c #AD957B",
"3. c #A4927C",
"4. c #B59A7C",
"5. c #CC8267",
"6. c #C78F7E",
"7. c #878380",
"8. c #868887",
"9. c #8F8E8C",
"0. c #988C85",
"q. c #9B9087",
"w. c #9C938A",
"e. c #9C9490",
"r. c #999795",
"t. c #BB8A83",
"y. c #A89D89",
"u. c #A59D95",
"i. c #A59B99",
"p. c #BEA385",
"a. c #ACA398",
"s. c #B3A392",
"d. c #B8AC9C",
"f. c #979FA2",
"g. c #99A3AC",
"h. c #AAAAAD",
"j. c #AAAAAA",
"k. c #B0A8A5",
"l. c #B3ADAE",
"z. c #B9ABA2",
"x. c #B7B2AE",
"c. c #BCB3AC",
"v. c #BCB5A5",
"b. c #A7AFB2",
"n. c #ABAEB0",
"m. c #ADB5B8",
"M. c #B6B0B0",
"N. c #B9B3B5",
"B. c #B6B9B9",
"V. c #C0A280",
"C. c #C0A789",
"Z. c #C0A88E",
"A. c #C8B29A",
"S. c #C7B6A4",
"D. c #C2B7A8",
"F. c #C0BDBD",
"G. c #C3BCB3",
"H. c #C6C4B5",
"J. c #C3C3BB",
"K. c #CBC9B9",
"L. c #AAB7C0",
"P. c #ADBBC4",
"I. c #B6BEC1",
"U. c #C0BEC1",
"Y. c #C1C6CB",
"T. c #C7C9C8",
"R. c #C9C6C5",
"E. c #D1CAC2",
"W. c #D0D2C7",
"Q. c #D7D2CE",
"!. c #DCD3CB",
"~. c #DBD3C6",
"^. c #CBCFD2",
"/. c #D6CFD6",
"(. c #CCD5DC",
"). c #DBDBD7",
"_. c #E2D3C6",
"`. c #ECDFD9",
"'. c #D5DEE5",
"]. c #DEE3E7",
"[. c #D6E0E9",
"{. c #D9E2EA",
"}. c #E3E7E4",
"|. c #EEE7E1",
" X c #E5E7EB",
".X c #F5EEE7",
"XX c #F7F2EF",
"oX c #E2EBF3",
"OX c #E9EDF3",
"+X c #EDF2F3",
"@X c #EEF4FC",
"#X c #F5F7F3",
"$X c #FDF6F2",
"%X c #F6FCF5",
"&X c #FCFBF5",
"*X c #F7F6FB",
"=X c #F7F9F8",
"-X c #FEFEFD",
";X c #FFF5FB",
/* pixels */
"C C n m V c C B L D z k n Y ~ ;.0.L G C H $.! Q Q ",
"J J F C C n C C M V z E w.F. X;X&Xa.<.w.<.<.q.y.d.",
"E P H F H I H U J Z ~ =X-X=XQ.c.0.L P E H J J m m ",
"9.R P J J J H F F U F ,.E P L G R ! ! E R #.>.w.u.",
"h.h.7.! +.L R P J F 1 O & * M =.! E Q <.!..X=X-X-X",
"Y g.P.9.#.%.! #.@.l b b 9 q 7 P *.c.~.G.-X-X-X-X-X",
"E.T L.Y.w.#.%.#.#.K 6.5._ ` ( +.).-X&XH.-X-X-X-X-X",
"-Xx.~ (.Y.>.%.%.$.J | ) [ 8 j D.-X-X#XW.-X-X-X-X-X",
"-X-X8.I.[.h.*.:.&.] S p { 2 s t.-X-X$XK.-X%X-X-X-X",
"-X-XT.f.oX^.>.,.1...O.-.o.^ / S.-X-X$XH.-X-X&X-X-X",
"-X-X}.f.oX].e.,.q.$.} ' q 3 h %X-X-X=XK.-X-X-X-X-X",
"-X-X-Xb.[.@Xk.<.A ; a f i 4 5 #.|.-X=XB.-X-X-X-X-X",
"-X-X-Xm.[.@XN.! +   y g 1 > <   a XX*XJ.-X&X&X-X-X",
"-X-X-XI.[.@XF.l . X 0  .a 4 5 % O k.-XJ.-X&X-X-X-X",
"-X=X-XB.{.-Xr.. X + = f d 6 1 $ # w `.v.-X&X-X-X-X",
"-X-X-Xn.'.[.h.k : @ o * 9 0 - $ % e s.S.-X-X#XE.Q.",
").}. Xn.U.l.N./.R.r.W k , r n N X.V.p.Z..X-X!.v x ",
"+X+X Xh.R.M.l.R.B.u.e.t e >.z.s.A.4.:.2._.-XG.! >.",
"OX@XOXm.W.x.a.c.j.D i.U >.R ,.3.C.2.u  ._.-Xu.K @."
};
