/* XPM */
static const char *micro_iarrar[] = {
/* columns rows colors chars-per-pixel */
"25 19 193 2 ",
"   c #020204",
".  c #07060A",
"X  c #130E12",
"o  c #061414",
"O  c #131315",
"+  c #220F11",
"@  c #23181E",
"#  c #23221D",
"$  c #3E221F",
"%  c #201E21",
"&  c #2D1E21",
"*  c #2A2C2D",
"=  c #2D2A30",
"-  c #383C3F",
";  c #38353A",
":  c #6E0006",
">  c #61000E",
",  c #6D020A",
"<  c #72020C",
"1  c #680816",
"2  c #740514",
"3  c #7C0515",
"4  c #740A14",
"5  c #7B0A15",
"6  c #7C0C19",
"7  c #6D1F1F",
"8  c #7E1117",
"9  c #741B28",
"0  c #442F2C",
"q  c #4C382F",
"w  c #4B3C3F",
"e  c #74272D",
"r  c #7E2E3B",
"t  c #3F3E43",
"y  c #573C41",
"u  c #4F4647",
"i  c #4E484A",
"p  c #444347",
"a  c #494950",
"s  c #594D51",
"d  c #545457",
"f  c #565857",
"g  c #555459",
"h  c #59585C",
"j  c #4C5657",
"k  c #684943",
"l  c #734245",
"z  c #7A4B51",
"x  c #6B5555",
"c  c #5E5D62",
"v  c #565E60",
"b  c #625A61",
"n  c #5F626B",
"m  c #6A6463",
"M  c #67666C",
"N  c #71666C",
"B  c #7D6668",
"V  c #6D6C72",
"C  c #726C73",
"Z  c #7F6F72",
"A  c #7C7275",
"S  c #74737A",
"D  c #7C7479",
"F  c #7A797E",
"G  c #757376",
"H  c #830312",
"J  c #840C1D",
"K  c #890D1F",
"L  c #86091A",
"P  c #8A0C21",
"I  c #811826",
"U  c #95313B",
"Y  c #824D5D",
"T  c #80595E",
"R  c #A4535A",
"E  c #8B5962",
"W  c #806866",
"Q  c #896D6A",
"!  c #926E6E",
"~  c #9E6673",
"^  c #857B7C",
"/  c #88797D",
"(  c #937D7D",
")  c #A27678",
"_  c #B77873",
"`  c #7D827B",
"'  c #7E7C82",
"]  c #827F82",
"[  c #837C88",
"{  c #858385",
"}  c #8B8484",
"|  c #86838A",
" . c #8C8A8E",
".. c #8A8488",
"X. c #948D8F",
"o. c #948580",
"O. c #8C908F",
"+. c #8D8B93",
"@. c #838A92",
"#. c #928E94",
"$. c #968E99",
"%. c #8A9293",
"&. c #959196",
"*. c #989896",
"=. c #969399",
"-. c #99959C",
";. c #9B9A9D",
":. c #9B9998",
">. c #A58A89",
",. c #B68C88",
"<. c #B69A8F",
"1. c #A98F90",
"2. c #A28D96",
"3. c #AF9E97",
"4. c #A79E9F",
"5. c #AB9C9A",
"6. c #A49997",
"7. c #B69999",
"8. c #9D9BA2",
"9. c #939EA2",
"0. c #A29CA4",
"q. c #B59DAD",
"w. c #A4A3A5",
"e. c #ABA4A5",
"r. c #A6A5AA",
"t. c #AAA6AC",
"y. c #ACA9AC",
"u. c #B0A7A8",
"i. c #B3ABAD",
"p. c #AEABB2",
"a. c #A4A8B1",
"s. c #B2ACB4",
"d. c #ACB5B4",
"f. c #B3B2B4",
"g. c #B6B4BA",
"h. c #BBB8BF",
"j. c #BABABA",
"k. c #C29394",
"l. c #C19C9B",
"z. c #CC9595",
"x. c #D2ABAC",
"c. c #D6A7A7",
"v. c #D9B2AB",
"b. c #D9ACB1",
"n. c #C1B4B9",
"m. c #C4BBBC",
"M. c #DDBBBA",
"N. c #E3B0B5",
"B. c #C9C1BF",
"V. c #BDBCC2",
"C. c #BAB6C4",
"Z. c #C1BFC2",
"A. c #C8BFC2",
"S. c #C6C3C7",
"D. c #CCC3C3",
"F. c #C0C3CA",
"G. c #CAC5CA",
"H. c #CCCBCA",
"J. c #C5CBCB",
"K. c #D6C7C8",
"L. c #CCC9D3",
"P. c #C7CED8",
"I. c #C9CBD8",
"U. c #D4CCD3",
"Y. c #D4CCD9",
"T. c #DAD3D6",
"R. c #D3D4DC",
"E. c #DDD4DA",
"W. c #D9D9DB",
"Q. c #D4D7DA",
"!. c #E7C0C3",
"~. c #EAC7C5",
"^. c #F6CCCB",
"/. c #E0DADC",
"(. c #FED9D8",
"). c #F0D4D0",
"_. c #DADCE1",
"`. c #D7D8E3",
"'. c #E2DCE5",
"]. c #DFE5E3",
"[. c #E3E2E6",
"{. c #EAE4EC",
"}. c #EAE8E8",
"|. c #F1E7EB",
" X c #F2EDED",
".X c #FAEDEF",
"XX c #FFEFF8",
"oX c #F4EFF5",
"OX c #F3F2F5",
"+X c #FCF5F5",
"@X c #F9F9F7",
"#X c #FCF6F9",
"$X c #FEFDFD",
/* pixels */
"&.{ ' V V V S -.C v M N n V b j d g c d c G Z.y.m ",
"+.| +. .F '  .0. .....{ S C b i h a t ; = V #X$X#X",
"+.#.+.+.#.#.&.y.#...{ O... .{ u D ' F F ' | #.s.H.",
"&.&.=.-.-.&.8.p.0.#.;.] p g m * ] w.8.8.0.8.#.-.#.",
"-.8.=.=.&.-.8.s.0.-.Z y w & + # =.y.t.p.p.s.s.t.t.",
" .#.X.&.-.8.8.g.w.` x ^.~.x.k.q | f.y.p.p.r.w.t.h.",
"N m 4.u.^ i F V.i.m W !.(.(.^.k h Z.f.y.W.[.=.f.j.",
"D.} m.B.e.; V V.s./ x ( 1.>.( 0 V Z.g.[.$XOXw.S.}.",
"oXw.H.J.w.d V F.i.5.7.N.l.<.,.$ } A.t.W.$X@Xy.T.$X",
"_.;.U.H.X.s D S.t.5.M.b.x.,.b.T 7.n.f.m.#X Xf.G.@X",
"{.8.W./.e.f F G.s.*.l.b.c.k.7.A w.m.K.J.OX Xi.E.$X",
"_.8.[._.J.V ' L.q.:.o.x.!.l.B O.s.R.Q.G.#X.Xe.T.$X",
"`.$.'.Q.Q.[ [ I.r./ 3.>.! k Q :.t.R.R.U.XX.Xi.J.$X",
"R.@.R.R._.9.%.Q.6.r z.).l.v.) z d.[.L.F.OX|.u.H.+X",
"'.@.P.Y.{.f.^ ) 9 3 U z.c._ 7 > l K.].h.OX|.i.T.$X",
"a.M C.F.E.~ 1 < 3 8 H 2 2 < < 4 : 9 E n.{.}...&.D.",
"d - . F R H 6 6 J K K P K K J 3 6 2 , e p a @ . % ",
"= *   B I L 6 6 J J K P J K J 5 2 6 6 1 D +.A ' | ",
"    o Y K 5 K 6 J K K P K K J 5 6 4 5 1 2.S . X O "
};
