/* XPM */
static const char *micro_tde_los_[] = {
/* columns rows colors chars-per-pixel */
"25 21 192 2 ",
"   c #0A0600",
".  c #0D0900",
"X  c #120C02",
"o  c #1D140F",
"O  c #1D1610",
"+  c #291C0B",
"@  c #211C18",
"#  c #1F201A",
"$  c #302D1E",
"%  c #4A341D",
"&  c #523418",
"*  c #4A2707",
"=  c #4A3726",
"-  c #463A2E",
";  c #583B2A",
":  c #563E32",
">  c #56412E",
",  c #5C4126",
"<  c #4C4236",
"1  c #52513F",
"2  c #5A4739",
"3  c #644020",
"4  c #694427",
"5  c #654629",
"6  c #6C4528",
"7  c #6C4E36",
"8  c #78563A",
"9  c #75553A",
"0  c #584740",
"q  c #514A40",
"w  c #675642",
"e  c #61584F",
"r  c #6D5547",
"t  c #7F5640",
"y  c #7E5E42",
"u  c #745543",
"i  c #645D5B",
"p  c #62615F",
"a  c #6C655D",
"s  c #706051",
"d  c #796457",
"f  c #71685F",
"g  c #7C6B5E",
"h  c #6D6A66",
"j  c #6F6E6B",
"k  c #6B6662",
"l  c #706760",
"z  c #726D63",
"x  c #786D65",
"c  c #736E68",
"v  c #747166",
"b  c #797167",
"n  c #77736E",
"m  c #7C746B",
"M  c #7C786F",
"N  c #787571",
"B  c #7E7A75",
"V  c #7F7C78",
"C  c #85593C",
"Z  c #83604A",
"A  c #8E6545",
"S  c #8D6353",
"D  c #936B55",
"F  c #996955",
"G  c #9C7E5C",
"H  c #96674B",
"J  c #8C776A",
"K  c #81796E",
"L  c #86746A",
"P  c #917F69",
"I  c #977465",
"U  c #847C74",
"Y  c #887E76",
"T  c #837E7C",
"R  c #897E7A",
"E  c #AF7D62",
"W  c #A17C69",
"Q  c #9A806F",
"!  c #98836A",
"~  c #888075",
"^  c #87837E",
"/  c #8E847A",
"(  c #92897E",
")  c #98897A",
"_  c #A3836D",
"`  c #A68576",
"'  c #A88977",
"]  c #AA8F7C",
"[  c #AA9077",
"{  c #A2927B",
"}  c #AB967D",
"|  c #8A8581",
" . c #8B8985",
".. c #8A8887",
"X. c #938C83",
"o. c #988E85",
"O. c #928F8A",
"+. c #9D9285",
"@. c #94928C",
"#. c #9B948C",
"$. c #9C988F",
"%. c #929291",
"&. c #999490",
"*. c #9F9892",
"=. c #9F9E9C",
"-. c #979B9A",
";. c #A39584",
":. c #A49880",
">. c #AD9A84",
",. c #A1948C",
"<. c #A3998C",
"1. c #AB9C8D",
"2. c #B39683",
"3. c #B49E81",
"4. c #BC9C8D",
"5. c #A09790",
"6. c #A49C93",
"7. c #A89E95",
"8. c #A29E9A",
"9. c #ABA38C",
"0. c #ABA295",
"q. c #A7A29D",
"w. c #ABA39B",
"e. c #B3A595",
"r. c #B6A996",
"t. c #B1A69A",
"y. c #B4A99C",
"u. c #BAAD9D",
"i. c #A3A5A3",
"p. c #ACA6A1",
"a. c #ACA9A4",
"s. c #B3ACA3",
"d. c #BBAFA3",
"f. c #B1AEA9",
"g. c #B7B1A5",
"h. c #BCB1A4",
"j. c #B6B1AB",
"k. c #B4B5B1",
"l. c #B6B8B7",
"z. c #BBBAB6",
"x. c #B1B8BE",
"c. c #BCBCBE",
"v. c #C6A383",
"b. c #C1A290",
"n. c #C8B39B",
"m. c #C1B2A3",
"M. c #C6B9AD",
"N. c #C2BCB6",
"B. c #C8BEB5",
"V. c #C1BCBD",
"C. c #D1C0AE",
"Z. c #C3C1BD",
"A. c #C3C3C1",
"S. c #C6C9C0",
"D. c #CDCCC5",
"F. c #CDCECA",
"G. c #CBC7C4",
"H. c #D0CDC8",
"J. c #CFD6CF",
"K. c #D1D2CB",
"L. c #DDD9CE",
"P. c #DCD3CC",
"I. c #CBCFD0",
"U. c #C7D4DD",
"Y. c #D5D6D2",
"T. c #D7D8D3",
"R. c #DBD9D5",
"E. c #D3D7DA",
"W. c #D6DADB",
"Q. c #DCDCDC",
"!. c #E4DACE",
"~. c #E3DAD2",
"^. c #E0DCD9",
"/. c #E3E3DD",
"(. c #E9E0D9",
"). c #EEE8DC",
"_. c #D9DDE6",
"`. c #DCE3EA",
"'. c #E5E6E1",
"]. c #EEE7E1",
"[. c #EBEAE6",
"{. c #EDEFEB",
"}. c #E6E9E2",
"|. c #F4F2EE",
" X c #FFF8EE",
".X c #E1E8F2",
"XX c #EEF5FB",
"oX c #F5F6F5",
"OX c #FAFCF6",
"+X c #FEFFFE",
"@X c #FCFDFB",
"#X c #F3F9F8",
/* pixels */
"a h p h n f z z v z x L d s K s.T.{.+X+X+X+XF.D.+X",
"l k j j h x M M n N T h @.k.W.@XoX+X+X+XOX+XY.Y.+X",
"m c N N M U b b J g - $ 1 a p.+X+X+X+X+X+X+XT.Y.+X",
"b B V n m K K ( i o X .   . @ V.OX@X+X+X+X+XY.F.+X",
"b U V B K U ~ b # O 0 : ; > + < +X+X+X+X+X@XR.K.+X",
"Y U V ^ U / ~ q X J ` F H A y ! +X+X+X+X+X@X/.Y.+X",
"Y T | ^ U U o.#.U ,.r ; y , % C.OX@X+X+X+X+X'.F.+X",
"R | | | X./ ,.(.4.' 9 5 G & & b.+X+X+X+X+XOX/.S.+X",
"( U O.| / / B.B._ 2._ F E C 8 v.@X+X+X+X+X@X/.D.+X",
"/ X. . .@./ P.].) 2.I S t 6 8 n.@XOX+X+X+X+X/.K.+X",
"X.@...| #.| R.@XL.] W I u 4 7 ~.OXOX@XOXOX@X/.G.+X",
"X.O.O...&.O.^.+XOX} D d r 3 _ +X@X+X+X+X+X@X[.Z.+X",
"#.&.&.O.@.@.[.+X#X>.Z 2 = * [ @X@X+X@X+X+X@X}.S.+X",
"#.O.%.@.@.#.|.|.T.e.Q g w 9 3.).+X@X+X+XoX+X{.J.+X",
"&.i.Q.Q.H.s.N.q.z.~.M.y.;.} n.r.m.M.!. X@XoXoXE.XX",
"&.=.OXT.j.#.@.q.8.A.V.g.0.9.:.{ 3.3.>.m.7.i c._.U.",
"%.=.G.j.0.o.#.7.w.6.p.s.<.+.;.) 1.u.y.e.d.e l.@X.X",
"l.c.G.N.0.6.#.5.w.6.*.0.s.t.1.;.u.y.u.r.u./ k.#X_.",
"W.Y.Z.z.p.w.0.5.7.7.5.6.s.w.7.t.h.h.e.1.;.+.Z.@X`.",
"W.F.l.a.f.q.j.q.7.w.7.6.0.7.7.g.d.7.e.;.! <.^ i.`.",
"I.A.k.=.f.8.z.a.w.0.7.7.0.0.y.f.y.w.;.{ P ;.$.-.x."
};
