/* XPM */
static const char *micro_mcuesta[] = {
/* columns rows colors chars-per-pixel */
"25 19 190 2 ",
"   c #090E08",
".  c #170E07",
"X  c #0D1009",
"o  c #1A130C",
"O  c #1C180E",
"+  c #15100D",
"@  c #171310",
"#  c #1B1314",
"$  c #1E1913",
"%  c #141519",
"&  c #1C1D1C",
"*  c #2C1800",
"=  c #2C1A0B",
"-  c #27160F",
";  c #3E1A02",
":  c #201710",
">  c #221C15",
",  c #231D1A",
"<  c #281F18",
"1  c #291F16",
"2  c #24221D",
"3  c #2A221C",
"4  c #382310",
"5  c #382B18",
"6  c #362418",
"7  c #291D21",
"8  c #1D2225",
"9  c #2B2523",
"0  c #2D2E26",
"q  c #362D25",
"w  c #37342C",
"e  c #3C3A34",
"r  c #422607",
"t  c #4D2D16",
"y  c #4E3118",
"u  c #5B361B",
"i  c #603815",
"p  c #6A3A1A",
"a  c #41372B",
"s  c #583A27",
"d  c #423D33",
"f  c #483F38",
"g  c #483E32",
"h  c #643A21",
"j  c #714018",
"k  c #7B4B1B",
"l  c #5B4327",
"z  c #4D4339",
"x  c #58483A",
"c  c #684122",
"v  c #734F2B",
"b  c #77543E",
"n  c #4B4643",
"m  c #544D45",
"M  c #594F43",
"N  c #5F5742",
"B  c #595B53",
"V  c #635B54",
"C  c #6A5954",
"Z  c #7D6348",
"A  c #6C6155",
"S  c #6C645C",
"D  c #756759",
"F  c #545D64",
"G  c #706760",
"H  c #746C64",
"J  c #7E6F64",
"K  c #75696A",
"L  c #7C7265",
"P  c #7B736A",
"I  c #79796D",
"U  c #6D7172",
"Y  c #747672",
"T  c #85501C",
"R  c #824A27",
"E  c #81572D",
"W  c #9B5D22",
"Q  c #875836",
"!  c #A2643D",
"~  c #83594B",
"^  c #9C5F4D",
"/  c #836148",
"(  c #926643",
")  c #866957",
"_  c #AB684A",
"`  c #B5634D",
"'  c #AD7550",
"]  c #816D66",
"[  c #81766B",
"{  c #82796D",
"}  c #897767",
"|  c #9C7B68",
" . c #847B72",
".. c #8C7D72",
"X. c #887F7A",
"o. c #B17F68",
"O. c #94836B",
"+. c #8C8077",
"@. c #8C837C",
"#. c #928274",
"$. c #91867A",
"%. c #94897C",
"&. c #988A7B",
"*. c #AC8870",
"=. c #B68C78",
"-. c #C2816F",
";. c #D18E7E",
":. c #C78974",
">. c #8D8A85",
",. c #868789",
"<. c #8C8481",
"1. c #948B84",
"2. c #9B8E83",
"3. c #9B9186",
"4. c #9D998E",
"5. c #8B9191",
"6. c #959594",
"7. c #9C9993",
"8. c #97989A",
"9. c #A19385",
"0. c #A89688",
"q. c #A49C92",
"w. c #A89B92",
"e. c #BCA186",
"r. c #A3A19E",
"t. c #AEA49A",
"y. c #BFAC9E",
"u. c #9FA3A2",
"i. c #ABA9A4",
"p. c #B1AEA5",
"a. c #B7B0AA",
"s. c #B2B3B5",
"d. c #B8B7B2",
"f. c #B1B6BA",
"g. c #B0B8BA",
"h. c #C69787",
"j. c #D09682",
"k. c #D7A38D",
"l. c #C3A797",
"z. c #D7A290",
"x. c #D8B595",
"c. c #D3ACA1",
"v. c #C5BEB4",
"b. c #C2BFBA",
"n. c #D9BBB0",
"m. c #D9BAA8",
"M. c #E3BFA7",
"N. c #E8BAAD",
"B. c #DFC1A9",
"V. c #C3C1B3",
"C. c #C3C2B9",
"Z. c #CDC4BA",
"A. c #C8C2B4",
"S. c #D6C9B8",
"D. c #E9C8B7",
"F. c #F0D1BD",
"G. c #B7BFC1",
"H. c #BCC3C6",
"J. c #C6C6C6",
"K. c #D6D3CC",
"L. c #C7CFD1",
"P. c #C8CDD1",
"I. c #CDD5D8",
"U. c #D5D6D3",
"Y. c #D7D8D3",
"T. c #DBD9D6",
"R. c #DBDCDA",
"E. c #D3D8DB",
"W. c #E4DACE",
"Q. c #FBD1C1",
"!. c #E3DFDB",
"~. c #EAE0D7",
"^. c #E4E3DD",
"/. c #EAE6DB",
"(. c #DDE1E4",
"). c #E4E6E4",
"_. c #E9E6E2",
"`. c #E4E7E9",
"'. c #E9E8E6",
"]. c #F0EBE8",
"[. c #F9F6EF",
"{. c #F1F1EF",
"}. c #E6EDF5",
"|. c #E7F0F3",
" X c #EBF2F5",
".X c #EDF4FA",
"XX c #F1F7F7",
"oX c #F4F9FC",
"OX c #FEFEFD",
"+X c #F9F6F1",
/* pixels */
"1.$.{ L A x d 0 2 # 8 %.l.v.W.Y % 9 9 < , # 3 3 2 ",
"H H P {  .@. .P V w B 7.6.r.{ N z g a d e w 0 2 , ",
"H S S V V A A D V F Y D O.C.XX~.&.9.$.t.A.v.V.V.2.",
"P H G H H S S A B 8.] s y Z Z.Z.@.2.q.1.{ $.9.w.@.",
"[ P H H H H P H K C s 6 = r ; h ] J P P P J D A V ",
" .L P L H H H P V q ) =.:._ h * s } L P $.1.q.p.>.",
"i.>. .[ { { P  .x b F.D.k._ R 4 l O.p.^.[.OXOXOXU.",
"I.s.>.......+.+.x *.h.^ o.y c u S./.R.OXoXOXOXOXY.",
"G.(.s.@.$.#.+.@.| c.m.h.z.p Q E !._.K.OXOXOXOXOXR.",
"5.E.(.r.$.&.%.X.0.N.Q.N.-.p ! ! ].^.!.OXOXOXoXOXR.",
"u.J. XJ.1.&.&.$.1.l.M.k.` j Q c.OX_._.OXOXOXOXOXR.",
"U.f..X(.7.&.2.2.6.4.e.x.;.v / oXOXT.Y.OXOXOXOXOXR.",
"{.f..X.Xi.3.2.2.I <.l.) ) r ( OXOXR.^.OXOXOXOXOXY.",
"OXH.}.oXd.3.3.w.f 7 n.B.~ i ' &.T.J.C.OXOXoXOXOXT.",
"OXP.}.OXb.3.q.t.K # M D.j.Q s o , 9 d +XOXOXOXOXY.",
"OXP.}.OXC.q.q.H w 1 X x =.5   # o . m [.OXOXoXOXU.",
"OXL.|.OXJ.H e @ - 9 & O $ @ # # O > 3 m v.OXOXOXT.",
"OXH. X`.n $ $ , , & % $ 3 > $ o $ 3 > > < a.'.`.`.",
"oXg.oX,.+ 9 2 , & 1 t T W k y = o , , > : q e U |."
};
