/* XPM */
static const char *micro_idumenil[] = {
/* columns rows colors chars-per-pixel */
"25 19 196 2 ",
"   c #0A0100",
".  c #140501",
"X  c #180700",
"o  c #1C0B03",
"O  c #1C0F09",
"+  c #1D1309",
"@  c #1A1106",
"#  c #110710",
"$  c #1C0D14",
"%  c #200C03",
"&  c #2C0C00",
"*  c #230D09",
"=  c #370E08",
"-  c #211404",
";  c #2C1303",
":  c #23140C",
">  c #2B140A",
",  c #26180F",
"<  c #2B190B",
"1  c #2C1C05",
"2  c #351704",
"3  c #371900",
"4  c #301609",
"5  c #361A0C",
"6  c #3B1D0B",
"7  c #2A1A14",
"8  c #261512",
"9  c #391A13",
"0  c #351E14",
"q  c #38210F",
"w  c #372216",
"e  c #3D2214",
"r  c #3A2D27",
"t  c #333333",
"y  c #3D3C3A",
"u  c #3C3934",
"i  c #411E03",
"p  c #492B0F",
"a  c #412313",
"s  c #4C2812",
"d  c #502F1E",
"f  c #522E14",
"g  c #5B3419",
"h  c #6B3A0F",
"j  c #663D1D",
"k  c #71391E",
"l  c #492D22",
"z  c #483320",
"x  c #413326",
"c  c #5E3A22",
"v  c #5D3F2C",
"b  c #573826",
"n  c #6E3B20",
"m  c #723C20",
"M  c #5C402A",
"N  c #42413D",
"B  c #5C4736",
"V  c #6C452B",
"C  c #6E4627",
"Z  c #7E4E28",
"A  c #794628",
"S  c #78502D",
"D  c #774B30",
"F  c #7D593C",
"G  c #7A5934",
"H  c #5C4E41",
"J  c #6B4F43",
"K  c #645447",
"L  c #725F4E",
"P  c #6A5F55",
"I  c #655D55",
"U  c #6C6155",
"Y  c #67635B",
"T  c #6D645B",
"R  c #736556",
"E  c #73665A",
"W  c #7B6C5C",
"Q  c #766959",
"!  c #6E6965",
"~  c #736B63",
"^  c #796E61",
"/  c #7C7164",
"(  c #7D746B",
")  c #7D7A73",
"_  c #874D28",
"`  c #89512C",
"'  c #865238",
"]  c #965A36",
"[  c #956C45",
"{  c #9A724B",
"}  c #81725F",
"|  c #957455",
" . c #896559",
".. c #B06F47",
"X. c #A77157",
"o. c #A3705D",
"O. c #A3774A",
"+. c #827363",
"@. c #83776B",
"#. c #85796D",
"$. c #8B7C6B",
"%. c #8D7762",
"&. c #907F6D",
"*. c #947967",
"=. c #837B72",
"-. c #8C7E73",
";. c #887F78",
":. c #AC7E6C",
">. c #AF7D64",
",. c #BB7C6D",
"<. c #BF7C73",
"1. c #A4845D",
"2. c #8D8070",
"3. c #8D837B",
"4. c #938475",
"5. c #93867D",
"6. c #9A8B7D",
"7. c #988976",
"8. c #A38369",
"9. c #BA886D",
"0. c #A08F7D",
"q. c #A58877",
"w. c #BA8A7E",
"e. c #A2917F",
"r. c #CA825A",
"t. c #C38F77",
"y. c #C4907B",
"u. c #C1A07F",
"i. c #8C8381",
"p. c #8E8985",
"a. c #998D83",
"s. c #928D87",
"d. c #9E9283",
"f. c #94918C",
"g. c #9C9389",
"h. c #939590",
"j. c #A19384",
"k. c #A6988F",
"l. c #A99685",
"z. c #B39B83",
"x. c #A69A94",
"c. c #A69C96",
"v. c #9DA29E",
"b. c #BEA788",
"n. c #ACA39B",
"m. c #AEA190",
"M. c #BEA799",
"N. c #BAA093",
"B. c #B6AEA5",
"V. c #BAABA2",
"C. c #B8B3AD",
"Z. c #A8B0B2",
"A. c #BEBDB9",
"S. c #C69381",
"D. c #C5AB8A",
"F. c #C6A896",
"G. c #D6A390",
"H. c #EAB89F",
"J. c #C6BAAC",
"K. c #DDC3AC",
"L. c #C7C5BD",
"P. c #C6C5C2",
"I. c #CEC7C1",
"U. c #C5C5CA",
"Y. c #CBCBCA",
"T. c #CAC8C8",
"R. c #D0C7C0",
"E. c #D9C6C0",
"W. c #CED1CA",
"Q. c #C4CFD1",
"!. c #CFD1D0",
"~. c #C7D3D6",
"^. c #D9DFDD",
"/. c #E2D8CC",
"(. c #E1DED7",
"). c #E2DEDF",
"_. c #E2E3DC",
"`. c #F5EBDF",
"'. c #D3DBE2",
"]. c #D8DDE6",
"[. c #D5E5ED",
"{. c #DBE4EC",
"}. c #DCE9EE",
"|. c #DFEBF7",
" X c #E6E5E1",
".X c #EAE4E1",
"XX c #EBEAE4",
"oX c #EBEBE9",
"OX c #E3EAE9",
"+X c #FFF7E2",
"@X c #E3EBF3",
"#X c #EAF3F8",
"$X c #ECFEFF",
"%X c #FCFBF6",
"&X c #F5FBFC",
"*X c #FDFEFC",
/* pixels */
"P P U U T Y R./.C.j.%.~ ! ^ W / / W R R E I U T Q ",
"U U R T T I ~ T Y ~ ~ ~ / } +.R ~ 3.g.n.B.s.=.n.h.",
"^ / Q W ~ ~ ~ / +.( ( @.W L &.J.oX%X*X*X*X_.A.*X&X",
"+.+.+.#.( ( ( / #.W $.K , : x m.%X*X*X&X*XoXP.*X*X",
"-.+.$.+.( =.#.=.) 4.H   . 4 ; - I.%X*X*X*X XL.*X*X",
"-.4.$.$.@.=.=.=.-.R o : b ] ] 3 / %X*X*X*X XP.*X*X",
"a.4.$.2.-.;.3.#.8.v e a X.r...j z `.*X*X*XoXY.*X*X",
"B.-.7.4.-.3.3.3.q.v q d :.o.D V ; J.*X*X*X XT.*X*X",
"U.7.5.5.4.i.i.d.:.= J S.t.] h S o M.*X%X*XXXL.*X*X",
"'.6.a.5.4.p.5.z.1.& F.G.S.' ` ' . F.*X%X*XXXW.*X*X",
"{.j.6.6.j.f.4.u.G 5 w.y.<.k _ c . F.*X*X*X XT.*X*X",
"@Xj.6.j.a.f.l.[ 3 o  .H.,.A Z 1 % b.*X&X*X(.Y.*X*X",
"|.k.6.j.g.c.z.Z 5 * 5 9.>.m p @ 2 D.&X*X%XXX!.*X*X",
"@Xx.a.d.x..XK.C w 9 6 D F g o # 6 D.*X*X*X_.^.*X&X",
"@Xc.g.d.V.L.*.s < a 5 M G p @ $ % | +X0.! v.~.{.#X",
"{.3.) k.E.n.B 5 ; a < - n f < + 8 i | 8.r Z.$X].{.",
"}.u t U.].N.v a < 7 0 & j l X 7 < w g { { C.&X[.#X",
"~.N y oXU.q.6 6 > * > i V e X O 0 > V [ [ J.@X}.@X",
"[.y t ).T.*.2 ; > * > c F 9 * o < 5 F | O.V.'.Q.'."
};
