/* XPM */
static const char *micro_nrontard[] = {
/* columns rows colors chars-per-pixel */
"25 19 198 2 ",
"   c #08070C",
".  c #0A090B",
"X  c #080B05",
"o  c #150F0F",
"O  c #150E09",
"+  c #1A130B",
"@  c #0E0D12",
"#  c #100F12",
"$  c #121216",
"%  c #15151D",
"&  c #18171F",
"*  c #17181D",
"=  c #19191C",
"-  c #221109",
";  c #2B1E15",
":  c #25211A",
">  c #2C231D",
",  c #252116",
"<  c #38271A",
"1  c #141821",
"2  c #1B1B23",
"3  c #171928",
"4  c #1A1624",
"5  c #251F2B",
"6  c #1B2026",
"7  c #222323",
"8  c #2B2521",
"9  c #282921",
"0  c #29292D",
"q  c #312726",
"w  c #322B24",
"e  c #3B2F24",
"r  c #352A28",
"t  c #36342D",
"y  c #3B342C",
"u  c #3C382F",
"i  c #2C2B30",
"p  c #35353A",
"a  c #41372E",
"s  c #49362F",
"d  c #513A28",
"f  c #5A3D2F",
"g  c #443C34",
"h  c #493834",
"j  c #474238",
"k  c #4D443C",
"l  c #4B4137",
"z  c #52463C",
"x  c #59463A",
"c  c #564638",
"v  c #644938",
"b  c #4D4443",
"n  c #484649",
"m  c #4D4C4C",
"M  c #454448",
"N  c #544B44",
"B  c #5D4E45",
"V  c #554B48",
"C  c #5A4D49",
"Z  c #504644",
"A  c #4E504B",
"S  c #5A5146",
"D  c #5B544B",
"F  c #57524E",
"G  c #565252",
"H  c #5D5B5C",
"J  c #5A5552",
"K  c #6B4D43",
"L  c #625345",
"P  c #6E5046",
"I  c #625349",
"U  c #655A4F",
"Y  c #6A5B4E",
"T  c #6B574C",
"R  c #71584D",
"E  c #615954",
"W  c #6A5E51",
"Q  c #625D59",
"!  c #705F57",
"~  c #6A6355",
"^  c #68625D",
"/  c #736356",
"(  c #7C6B5D",
")  c #796659",
"_  c #5D5B60",
"`  c #615F62",
"'  c #636264",
"]  c #6F6860",
"[  c #6B676A",
"{  c #6A686D",
"}  c #716660",
"|  c #726A63",
" . c #786E65",
".. c #7E756F",
"X. c #786F72",
"o. c #7A7372",
"O. c #787679",
"+. c #7F7979",
"@. c #777173",
"#. c #80614D",
"$. c #806F5E",
"%. c #936959",
"&. c #837263",
"*. c #8A7666",
"=. c #8B776B",
"-. c #8E796B",
";. c #84766B",
":. c #9C7963",
">. c #947C6E",
",. c #817670",
"<. c #857D7C",
"1. c #887D79",
"2. c #8E7E71",
"3. c #937F72",
"4. c #9F7F74",
"5. c #94816C",
"6. c #9A866E",
"7. c #8B827A",
"8. c #948272",
"9. c #9B8671",
"0. c #9C8973",
"q. c #988678",
"w. c #9E8C7C",
"e. c #A28C75",
"r. c #A58F79",
"t. c #AC8474",
"y. c #AD967F",
"u. c #B7917E",
"i. c #BB9278",
"p. c #8D8685",
"a. c #8E8984",
"s. c #918682",
"d. c #948A83",
"f. c #968F8C",
"g. c #998F8D",
"h. c #9D9084",
"j. c #9B928D",
"k. c #8B8891",
"l. c #9F9691",
"z. c #9E9996",
"x. c #A88B83",
"c. c #A49486",
"v. c #AF9A85",
"b. c #AA9788",
"n. c #A49C8F",
"m. c #A6998B",
"M. c #B79F87",
"N. c #A79E97",
"B. c #A89D97",
"V. c #A69E9B",
"C. c #ACA398",
"Z. c #BEAF9C",
"A. c #A5A0A6",
"S. c #AAABA5",
"D. c #B5ADA4",
"F. c #B5ACA9",
"G. c #B9ADA1",
"H. c #B4B0AF",
"J. c #BBB2AA",
"K. c #B6B0BA",
"L. c #C49F8F",
"P. c #DFB59D",
"I. c #CEB9A8",
"U. c #C4B9A7",
"Y. c #DDB3A5",
"T. c #C3BAB5",
"R. c #CCBFB6",
"E. c #C7BCB8",
"W. c #C8BFBA",
"Q. c #CCC2B7",
"!. c #CEC6BB",
"~. c #D6C7B2",
"^. c #D4CABB",
"/. c #D7C9BB",
"(. c #CECBC4",
"). c #C2C0C3",
"_. c #D4CDC4",
"`. c #D8CEC7",
"'. c #DFD1C4",
"]. c #DCD5CC",
"[. c #DDD8CE",
"{. c #D4D2CA",
"}. c #D2D0D1",
"|. c #E6D7CB",
" X c #E4DFDB",
".X c #E2DCD0",
"XX c #EAE1D4",
"oX c #EAE4DA",
"OX c #E6E2D6",
"+X c #F0E4D8",
"@X c #F0EADE",
"#X c #E8E7E2",
"$X c #F3ECE4",
"%X c #EFF4ED",
"&X c #F4F1EB",
"*X c #FAF1E2",
"=X c #FFFEFF",
"-X c #FFFCF2",
/* pixels */
"S N D F E Q E F G B z m A N E X.s...Z b J ^ H H ^ ",
"g g u t > w > w 9 S Y r 8 u u 7 D ~ S j w w t t y ",
"N e ; a k l z z B ( I X X O + + + , w y , , : , , ",
"C.7.W l L / Y Y &.( ! C V b j g k g g V N V V N N ",
"-XXX2.( -.w.*.$.R / / s ; r k U U U I I B I I I I ",
"Q.!.q.9.0.v.v.5.>.3.Y < x < - -.5.0.0.9.9.9.5.6.8.",
"_.G.c.r.0.y.r.e.m.*X&.L.Y.x.e ~ r.0.6.6.6.6.5.6.5.",
"oX+Xw.0.e.M.y.5.b.Q.c.:.:.K x ) >.=.>.-.*.*.&.*.5.",
"_./.G.[.[.Z.~.n...5.i.i.t.R I L j.F.B.,.D.J. .C.&X",
".XXXXX&X$X/.|.'.a.8.:.P.%.P T c.`.T.l.s.E.J.d.[.=X",
"_.^.oX(.&X'.|. X(.m.f u.t.v ) N.W.T.j.<.g.p.a.z.{.",
"$XQ.[. XoX'.'.#X%X(.h 4.#.d z +.F.V.p.o.<.@.' G A.",
"{.!.!._.OX/.^.[.#X}.h =.3.x 8 p p.H.f.[ O.[ { _ K.",
"F.J.].D.@XU.^.S.' p 2 q C > o   * M ` ' O.[ H { ).",
"7.;.h.| J.d.^ p 2 0 7 $ . . @ * 2 % $ i n n m m k.",
"D W h.] o.1.M 3 5 2 6 2 % 4 % * 1 2 & $ # # # . 7 ",
": $.h.7.n.} i & 2 2 2 2 & & & 2 * $ @ $ $ . . . = ",
"8 *./ ] Q.| = % 2 2 2 2 & & & & $ $   @ @ . . . = ",
"f.I.Y F R.B $ $ 2 2 2 & & & & & $ @   @ @ . . . $ "
};
