/* XPM */
static const char *micro_vfuster_[] = {
/* columns rows colors chars-per-pixel */
"25 19 194 2 ",
"   c #060103",
".  c #0D0101",
"X  c #1C0800",
"o  c #1C1D1A",
"O  c #181413",
"+  c #2B1603",
"@  c #351A0B",
"#  c #261F17",
"$  c #311C17",
"%  c #1D221E",
"&  c #2E231F",
"*  c #2D2826",
"=  c #332B27",
"-  c #592D0A",
";  c #482811",
":  c #402919",
">  c #57341E",
",  c #733504",
"<  c #623315",
"1  c #412C27",
"2  c #4A3729",
"3  c #463B34",
"4  c #4D3A36",
"5  c #453530",
"6  c #573732",
"7  c #6C3B2A",
"8  c #794516",
"9  c #4A4337",
"0  c #56473A",
"q  c #654337",
"w  c #7A543F",
"e  c #7A4928",
"r  c #393D45",
"t  c #3F4344",
"y  c #4B4745",
"u  c #5C4A43",
"i  c #5C4F49",
"p  c #555849",
"a  c #5D5956",
"s  c #624B46",
"d  c #625545",
"f  c #6A5C54",
"g  c #695855",
"h  c #735C54",
"j  c #7C5B52",
"k  c #5F605A",
"l  c #7F634E",
"z  c #61615C",
"x  c #6C6259",
"c  c #746559",
"v  c #75695A",
"b  c #6E5D61",
"n  c #5C6164",
"m  c #6E6360",
"M  c #6A6A6C",
"N  c #716361",
"B  c #766E65",
"V  c #796D65",
"C  c #796E6A",
"Z  c #727166",
"A  c #797065",
"S  c #7C746A",
"D  c #74716A",
"F  c #6F777A",
"G  c #757375",
"H  c #7A7574",
"J  c #7D7973",
"K  c gray48",
"L  c #86472D",
"P  c #844C33",
"I  c #965B39",
"U  c #885538",
"Y  c #9C603E",
"T  c #8D544D",
"R  c #865754",
"E  c #846258",
"W  c #986D5A",
"Q  c #887356",
"!  c #8C6D6B",
"~  c #946963",
"^  c #8B7666",
"/  c #84786E",
"(  c #8C7F6D",
")  c #877468",
"_  c #857C73",
"`  c #83777B",
"'  c #887D76",
"]  c #AE7F65",
"[  c #A07F7A",
"{  c #9A816D",
"}  c #8C8376",
"|  c #84817B",
" . c #8D857B",
".. c #878574",
"X. c #94897E",
"o. c #938677",
"O. c #BD8560",
"+. c #AA8B78",
"@. c #B58576",
"#. c #CA9478",
"$. c #77888F",
"%. c #7C898F",
"&. c #8D8A86",
"*. c #878983",
"=. c #958C83",
"-. c #9B8E84",
";. c #968F89",
":. c #9D948C",
">. c #9A9289",
",. c #8D9194",
"<. c #9A9690",
"1. c #9C9E9A",
"2. c #989993",
"3. c #A2968D",
"4. c #AB988D",
"5. c #A9998A",
"6. c #A39B94",
"7. c #A39D98",
"8. c #A19795",
"9. c #ACA096",
"0. c #A7A29C",
"q. c #B3AB9D",
"w. c #999BA2",
"e. c #A6A5A2",
"r. c #AAA6A1",
"t. c #ADABA6",
"y. c #ACABAB",
"u. c #ADA7AB",
"i. c #B5ADA4",
"p. c #B2ADAA",
"a. c #BAB1AB",
"s. c #AAAFB2",
"d. c #B9ACB3",
"f. c #ACB3B4",
"g. c #A7B2B8",
"h. c #BDBBB6",
"j. c #BEBFBD",
"k. c #B5B9B7",
"l. c #CAA48D",
"z. c #DCA387",
"x. c #D3A691",
"c. c #DDB39B",
"v. c #E2A286",
"b. c #EBAD98",
"n. c #E7B89A",
"m. c #F3B09D",
"M. c #C3BDB8",
"N. c #EABBA9",
"B. c #B7C0BF",
"V. c #BEC0BF",
"C. c #C1C3BE",
"Z. c #D0CABE",
"A. c #FFCBAF",
"S. c #F8CAB2",
"D. c #FFD7BF",
"F. c #BFC3CE",
"G. c #C4C3C6",
"H. c #C6CBCB",
"J. c #CDCCCA",
"K. c #CBC8C4",
"L. c #D2CDCA",
"P. c #CFD1CD",
"I. c #D9D3CD",
"U. c #C3CCD4",
"Y. c #CED5DD",
"T. c #C6D9DF",
"R. c #D6D5D3",
"E. c #DCDBD4",
"W. c #DBDBDA",
"Q. c #DAD5D2",
"!. c #FFD7C1",
"~. c #FFDBC1",
"^. c #E1DED6",
"/. c #E1E1D9",
"(. c #E8E3D9",
"). c #F0E7DE",
"_. c #D5DCE2",
"`. c #C8D4E4",
"'. c #DBE1E4",
"]. c #D7E4EA",
"[. c #E6E6E4",
"{. c #ECEBE7",
"}. c #E2EBED",
"|. c #EAEDEC",
" X c #F1E9E6",
".X c #F2F2EE",
"XX c #E5EDF0",
"oX c #EDEEF0",
"OX c #ECF4F8",
"+X c #F4F6F4",
"@X c #F8F7F4",
"#X c #FBFAF7",
"$X c #F4FBFC",
"%X c #FDFEFD",
/* pixels */
"B A B Z J {.^.Z.4.&.( ) ' V ^ Z C B A ..B ' A v v ",
"S V / S D *.J A / | } ( &.8.9.j.Q.h.2.R.J.t.0.:.} ",
"_ / _ _ | J  . . .J 0 2 3 K.%X$X%X+XC.%X%XoX|.h.t.",
" .=.} }  . .X. .X.d { l X & E.%X%X.XH.%X%X%X%XW.{.",
";. .X.-.=.;.=.3.x +.~.c.w . J %X%X.XP.%X%X%X#X[.#X",
"i.X.-.X.=.=.;.3.3 +.n.#.U + =  X%X#XP.%X%X%X%X^.@X",
"L.:.3.-.:.:.:.=.5 x.z.L I ; . a.%X.XK.%X%X#X%X/.@X",
"{.7.>.3.:.:.6.>.* N.b.L I >   ' %X+XP.%X%X%X%XE..X",
"%Xp.3.6.<.1.7.i.+ +.m.P e 7   ..%X+XJ.%X%X#X%X/..X",
"%Xa.-.9.7.1.;.).s f !.I 8 < . :.#X+XG.%X%X%X#X/.@X",
"%Xa.3.q.r.e.<.).d.# l.Y , - . f %X+XW.$X%X#X%XE..X",
"#XM.3.:.J.%XL.I.%Xv ] v.O.w 4 9 t.E.W.$X+X%X@Xy y ",
"%XM.6.:.R.%XJ.I.k.+.A.D.5.g ! o.9 | %X'.OX$X[.* O ",
"+XH r.e.H.%X[.;.B z.S.q.p b R +.c f .X$X$XXX}.o   ",
"].t J.+XXXOXj.x c n.4.z p 6 T j ^ 9 J $X$XY.k.s.,.",
"].n V.%X$XOXM m f Q a ` q W @.g E 4 = f.g.%.g.w.F ",
"}.M G.|.%Xu.k i f a m / v ~ @.^ u 1 @ *.$.r r % r ",
"'.u.H.%XG.H a 5 s i N m 9 6 R h f 4 @ 2.T.G.U.f.K ",
"_.w.U.}.G ` N [ E h b y o $ q c u u : 1.].Y.`.B.z "
};
