/* XPM */
static const char *micro_juduchar[] = {
/* columns rows colors chars-per-pixel */
"25 19 193 2 ",
"   c #050505",
".  c #080806",
"X  c #070B0B",
"o  c #0C0B0B",
"O  c #100C09",
"+  c #11100F",
"@  c #131413",
"#  c #1A1512",
"$  c #1E1A14",
"%  c #171518",
"&  c #181619",
"*  c #1D1A1B",
"=  c #231A12",
"-  c #211D1A",
";  c #292019",
":  c #25201C",
">  c #3B291D",
",  c #1F1E23",
"<  c #222223",
"1  c #292826",
"2  c #242429",
"3  c #392E24",
"4  c #332C2B",
"5  c #333027",
"6  c #35312D",
"7  c #3A322B",
"8  c #3C3226",
"9  c #3C3633",
"0  c #35353A",
"q  c #343537",
"w  c #463627",
"e  c #4B372C",
"r  c #4E3731",
"t  c #423C35",
"y  c #4A3C35",
"u  c #423A3C",
"i  c #4B3F3F",
"p  c #4C433D",
"a  c #52453C",
"s  c #54493E",
"d  c #574638",
"f  c #3C3C42",
"g  c #3F4042",
"h  c #434244",
"j  c #4B4641",
"k  c #4C4946",
"l  c #5F4340",
"z  c #554B42",
"x  c #584E44",
"c  c #574F4C",
"v  c #5D554C",
"b  c #5A5046",
"n  c #4A4B53",
"m  c #575A5B",
"M  c #565659",
"N  c #615246",
"B  c #64564D",
"V  c #65594D",
"C  c #685A4F",
"Z  c #69574B",
"A  c #765C4D",
"S  c #635A53",
"D  c #6C5D53",
"F  c #675E5B",
"G  c #7E634E",
"H  c #6F6157",
"J  c #6C635B",
"K  c #756356",
"L  c #746459",
"P  c #75695F",
"I  c #7A6A5C",
"U  c #796756",
"Y  c #5B5D62",
"T  c #655B63",
"R  c #5E6168",
"E  c #6D6766",
"W  c #6B686C",
"Q  c #7B6D61",
"!  c #736F6C",
"~  c #786A63",
"^  c #7C736C",
"/  c #76716E",
"(  c #636977",
")  c #74757A",
"_  c #75797D",
"`  c #787475",
"'  c #856E5E",
"]  c #87755F",
"[  c #92735F",
"{  c #826F60",
"}  c #896C66",
"|  c #847263",
" . c #887666",
".. c #887668",
"X. c #857A6D",
"o. c #8B7B6C",
"O. c #8D7863",
"+. c #927967",
"@. c #867D73",
"#. c #897870",
"$. c #837C7A",
"%. c #987A72",
"&. c #92816F",
"*. c #8D8173",
"=. c #8D857C",
"-. c #85807A",
";. c #938373",
":. c #92847A",
">. c #95897E",
",. c #9B8A7B",
"<. c #7C7D83",
"1. c #817C82",
"2. c #7E8188",
"3. c #7E8186",
"4. c #8E8683",
"5. c #8C878C",
"6. c #8E8A8D",
"7. c #888585",
"8. c #958C83",
"9. c #968D88",
"0. c #99928B",
"q. c #989088",
"w. c #8B8B93",
"e. c #8D9097",
"r. c #939292",
"t. c #989590",
"y. c #92939A",
"u. c #9A999F",
"i. c #9D9892",
"p. c #A08F85",
"a. c #AD8D82",
"s. c #A19080",
"d. c #A2968C",
"f. c #A6988B",
"g. c #A79E99",
"h. c #A49C97",
"j. c #B79685",
"k. c #AFA294",
"l. c #ACA49D",
"z. c #A4A39F",
"x. c #B3A59B",
"c. c #9F9FA1",
"v. c #ADA5A1",
"b. c #A3A3A8",
"n. c gray67",
"m. c #B4ABA4",
"M. c #B4AEA9",
"N. c #BDADA0",
"B. c #BBB4AC",
"V. c #AFB0B4",
"C. c #BFB9B2",
"Z. c #BBB7B4",
"A. c #C5B9AC",
"S. c #C7B6A7",
"D. c #C3BDB5",
"F. c #C9BFB5",
"G. c #C4BEB8",
"H. c #DDC5AB",
"J. c #CFC2B4",
"K. c #CDC3BA",
"L. c #D2C7B7",
"P. c #C8C9C7",
"I. c #D3CCC5",
"U. c #D3CEC9",
"Y. c #D8CECC",
"T. c #D3D0C7",
"R. c #D6D7CF",
"E. c #DFD9CD",
"W. c #DBD4CA",
"Q. c #DED3D3",
"!. c #DCDDD3",
"~. c #E5D9CD",
"^. c #E2D6C8",
"/. c #E3DDD3",
"(. c #E8DFD6",
"). c #E0D7D8",
"_. c #E6DDD8",
"`. c #E5DBD7",
"'. c #E1E1D7",
"]. c #ECE1D5",
"[. c #F7E9DC",
"{. c #DFE0E4",
"}. c #E6E6E3",
"|. c #E8E7E3",
" X c #EBEBE5",
".X c #EFEFED",
"XX c #F0F0E8",
"oX c #FDF5ED",
"OX c #FCF0E4",
"+X c #F3F3F2",
"@X c #FEF7F1",
"#X c #FFFDFE",
"$X c #F9FBF4",
/* pixels */
"8 = 3 p p a y a H S = O + + @ + - - 5 - * * $ $ $ ",
">.J 3 y z z v D H D t 7 9 9 7 t 9 6 t p k j j p p ",
"oXd.V Q *.P D N B B B x x b z s z x s p a p s p z ",
"J.X.K o.&.s.o.K C L D L L K I I ~ I U I Q U I Q I ",
"p.o.o.] O.+.| o.K.A.;.o.| .. .| o.o...|  ...| | | ",
"OXf.| I ;.,.{ o.F.].,.| ....Q ~ K U | I U U U L L ",
"B.8.m.J.f.k.>.o.=.P D N w a x =.m.B.8.:.x.*.@.U.I.",
"XXU.@XoX~.K.].8.q.V 3 o.:.y S U.!.P.v.G.(.l.m.#X#X",
"E._.!.}.].L.+XP.Z.d G H.S.%.B R./.B.q.M.M.g.M. X.X",
"/._.!..X[.J.+X'. XZ [ +.' d I D.U.G.i.v.g.0./ n.).",
"W.I. X}.~.L.|.oX$X,.j.a.K U V l.D.B.4.4.4.$.E c.Q.",
"K.~.T. X^.A. XF.$X;.A } r w *.Y.W.G.t.6.6.5.W V.{.",
"h.k.^ I.A.=.C.q.Q.X.s ~ l e @.z.v.$.k ! ` W Y b.P.",
"J X.E -.X.q.=.:.x.F v D > r 6 m ! 1 . @ % & , 2 b.",
"c o.$.0.H F ~ #.8.c h Q I 4 2 _ r.% X . o o . o 1.",
"! I i C.^ u q.D x 5.T K > 2 ( y.b.m   X . . o . r.",
"N.| 3 A.S : 6 o f n.<.f n ) y.y.3._ q   o . @ . 7.",
"d.8 ; j # + o o 0 u.u.w.y.y.e.<.M Y h . @ . o o u ",
"4 # O . % g ) 0 h y.u.y.w.5.2.R n Y m * < < < 2 6."
};
