/* XPM */
static const char *micro_roroca[] = {
/* columns rows colors chars-per-pixel */
"25 19 201 2 ",
"   c #0D0100",
".  c #190600",
"X  c #3C1900",
"o  c #373333",
"O  c #471900",
"+  c #4C2A0E",
"@  c #5E2703",
"#  c #572814",
"$  c #50301B",
"%  c #712D0A",
"&  c #673105",
"*  c #643A18",
"=  c #793A18",
"-  c #503E3E",
";  c #47362C",
":  c #6A3826",
">  c #77411F",
",  c #45403C",
"<  c #504031",
"1  c #684F39",
"2  c #774A35",
"3  c #544540",
"4  c #4F5247",
"5  c #54564B",
"6  c #624D48",
"7  c #705B58",
"8  c #625B55",
"9  c #71604E",
"0  c #7A6A5B",
"q  c #5A6265",
"w  c #676A6D",
"e  c #766E61",
"r  c #7D7B6D",
"t  c #7D7268",
"y  c #717276",
"u  c #B81916",
"i  c #B62A0F",
"p  c #BE3728",
"a  c #AD282B",
"s  c #C1161C",
"d  c #C52627",
"f  c #D22D29",
"g  c #CA2E3C",
"h  c #86461C",
"j  c #9A4914",
"k  c #AB591D",
"l  c #8A4D22",
"z  c #854F33",
"x  c #825035",
"c  c #B24123",
"v  c #AE5133",
"b  c #B26433",
"n  c #985E48",
"m  c #8A6857",
"M  c #83705F",
"N  c #9C775C",
"B  c #A56C54",
"V  c #A4795C",
"C  c #BF7351",
"Z  c #B27848",
"A  c #826D62",
"S  c #826D68",
"D  c #837365",
"F  c #847469",
"G  c #8A796B",
"H  c #8C7468",
"J  c #927A6B",
"K  c #967A69",
"L  c #8B7C74",
"P  c #977F70",
"I  c #A57D68",
"U  c #B17D70",
"Y  c #C37245",
"T  c #C47B59",
"R  c #CD6664",
"E  c #C77E75",
"W  c #91836F",
"Q  c #9F876F",
"!  c #92867D",
"~  c #978C7C",
"^  c #9A8579",
"/  c #A1856D",
"(  c #B0826A",
")  c #A28375",
"_  c #A4887C",
"`  c #AA897A",
"'  c #B68772",
"]  c #B0947E",
"[  c #C0865E",
"{  c #D58E6E",
"}  c #C6937E",
"|  c #8F7C82",
" . c #CC7B81",
".. c #898588",
"X. c #9D8D84",
"o. c #978A84",
"O. c #9F938A",
"+. c #9F988E",
"@. c #8D8B90",
"#. c #83949D",
"$. c #96979B",
"%. c #A38D83",
"&. c #B28D85",
"*. c #AB948B",
"=. c #A3998E",
"-. c #A89589",
";. c #B49684",
":. c #BB9985",
">. c #B69A8E",
",. c #A59B91",
"<. c #B79E95",
"1. c #BFA48F",
"2. c #BAA596",
"3. c #A3A39B",
"4. c #AB9AA0",
"5. c #8EA2AB",
"6. c #98A4AA",
"7. c #91ACB3",
"8. c #99B2BA",
"9. c #ABAAA8",
"0. c #B2ADAB",
"q. c #B3A9A5",
"w. c #ACB1AD",
"e. c #BDB6AA",
"r. c #A0AAB3",
"t. c #A5B2B4",
"y. c #A3BBBE",
"u. c #ACB3B7",
"i. c #B6B3B5",
"p. c #BEBCB9",
"a. c #B5B6B7",
"s. c #C39886",
"d. c #C7A78A",
"f. c #C3AC9E",
"g. c #C6A692",
"h. c #C0B19E",
"j. c #C3ADA9",
"k. c #C4ABA4",
"l. c #C9BAAB",
"z. c #C8B6AA",
"x. c #CBB3B1",
"c. c #C3BBBD",
"v. c #C6B8BA",
"b. c #D2BEBF",
"n. c #BCC1B4",
"m. c #C8C3B9",
"M. c #DACCBF",
"N. c #EFD0BE",
"B. c #99B6C4",
"V. c #AABAC1",
"C. c #A8BAC5",
"Z. c #B4BDC2",
"A. c #BABEC6",
"S. c #C3B7CF",
"D. c #D0BCC5",
"F. c #BCC4CC",
"G. c #B8C4CA",
"H. c #AFC4CD",
"J. c #C2C5C3",
"K. c #CCCAC4",
"L. c #C9CAC9",
"P. c #D2CEC4",
"I. c #D8CDC8",
"U. c #DAD9CE",
"Y. c #D7D3C8",
"T. c #CBCFD5",
"R. c #C8D5DD",
"E. c #DDDCD7",
"W. c #DDDDD9",
"Q. c #F0D2C8",
"!. c #E3DFD6",
"~. c #F0DCDB",
"^. c #CDE0DE",
"/. c #DEE2DD",
"(. c #E4E2DB",
"). c #C0D2E0",
"_. c #DBDCE1",
"`. c #CFE1E3",
"'. c #D6E3E2",
"]. c #D4E5EC",
"[. c #D9E6EB",
"{. c #DDEDF2",
"}. c #DCE7F5",
"|. c #DEF2F8",
" X c #E4E7E3",
".X c #EBEAE3",
"XX c #E7E8E7",
"oX c #F0EEEF",
"OX c #F0EDE6",
"+X c #EFF0EA",
"@X c #E6EFF6",
"#X c #F2EDF3",
"$X c #EDF7F9",
"%X c #EEFCFF",
"&X c #E5F1FF",
"*X c #F4F8F4",
"=X c #FEFCF6",
"-X c #F3F7FF",
";X c #F5FEFD",
":X c #FEFEFD",
">X c #FDF1F1",
/* pixels */
"t...S H M D 0 A e t D A G F t X.+.!.:X:X:X:X(.m.:X",
"a.i.o.G J G F F r r W Q K W m.=Xm..X:X:X:X:XW.K.:X",
"$.T.p.! J K P F L L 7 - 3 v.=X=XU.OX=X:X:X:X/.P.:X",
"..Z.'.3.J K P G L ; .     < Y.:XP..X:X:X:X:X XY.:X",
"c.6.{.J.^ ) J ~ 8 $ > = h @ 1 ;XP..X:X:X:X:X(.K.:X",
"oX6.|.'.X._ ^ X.6 } { T Y b # #XU..X:X:X:X:XW.Y.:X",
"*Xt.|.@X=.~ ^ %.9 N ( m * l * (.U..X:X:X:X:XE.U.:X",
":XA.].-X9.~ %.*.m B = n % j h I.K. X:X:X:X:XE.U.:X",
":XF.].$X0.X.-.O.J ' T T h k k Q.W.oX:X:X=X:X(.U.:X",
":Xa.{.;Xq.^ -.,.h.I B : # @ V :Xn..X:X:X:X:XXX[.:X",
":Xt.].$Xq.-.*.2.:XI.2 x : O ;.%XK..X:X*X/.XX'.'.%X",
" Xu.].$X0.O.! q.:X=X) + X & [ N.~.>X:X+X5 4 L.^.].",
":Xr.].%Xw - 9.w.`.:Xf.V z l Z d.1.f.M.I.G t _.&X{.",
"-XV.H.R.q o ;X'.F.F.k.I I ' g.e.1.k.j.z.g.J  X[.{.",
"$XV.8.C.w o oXu.k.v.K.m.u.L.j.z.j.b.b.>.g./ m.'.R.",
";Xy.7.H.y o c.i.c.A.v.x.D.v.i.J.l.q.e.>.:.;.c.C.#.",
"|.Z.5.y.@.| c.p.S.p.F.J.e.x.<.E R 2.2.*.&.s.l.B.t.",
"].F.#.8.$.4.c.i.n.s. .R v g d d a ` -.=.*.:.l.).F.",
"V.T.6.H.9.q.0.i.f.p s u i f p c u U _ =.<.] 2.R.R."
};
