/* XPM */
static const char *micro_ybahjaou[] = {
/* columns rows colors chars-per-pixel */
"25 19 207 2 ",
"   c #010103",
".  c #020608",
"X  c #160802",
"o  c #140E1A",
"O  c #3E0A00",
"+  c #2B1E0D",
"@  c #371607",
"#  c #351C17",
"$  c #372A17",
"%  c #342F2B",
"&  c #3C3C3E",
"*  c #4B2608",
"=  c #562100",
"-  c #482B1C",
";  c #5A3317",
":  c #5B2E17",
">  c #662D00",
",  c #643518",
"<  c #6D391C",
"1  c #753013",
"2  c #54312B",
"3  c #513E3A",
"4  c #462D28",
"5  c #623F2B",
"6  c #6B3D30",
"7  c #793729",
"8  c #77481A",
"9  c #6E402D",
"0  c #75492E",
"q  c #373F41",
"w  c #474548",
"e  c #48514E",
"r  c #485053",
"t  c #525E5D",
"y  c #675946",
"u  c #5D6B6E",
"i  c #707161",
"p  c #616F72",
"a  c #6B767B",
"s  c #7D7B7E",
"d  c #843725",
"f  c #9E5119",
"g  c #944616",
"h  c #8F592D",
"j  c #91532A",
"k  c #855A3C",
"l  c #A2572B",
"z  c #B35E26",
"x  c #AD4D35",
"c  c #9F693A",
"v  c #AB6538",
"b  c #B76536",
"n  c #C56218",
"m  c #915A47",
"M  c #8B544A",
"N  c #A15547",
"B  c #8E6A52",
"V  c #9C725B",
"C  c #9B6946",
"Z  c #AB694B",
"A  c #B86C46",
"S  c #A46856",
"D  c #B97955",
"F  c #A77155",
"G  c #8E7B69",
"H  c #957F6B",
"J  c #997E73",
"K  c #847771",
"L  c #CA774A",
"P  c #7C857F",
"I  c #AF8553",
"U  c #9E846C",
"Y  c #85887F",
"T  c #9C8D7C",
"R  c #988576",
"E  c #A88169",
"W  c #B48E6A",
"Q  c #A38B79",
"!  c #AB8D7B",
"~  c #A68975",
"^  c #B38F7E",
"/  c #A6907F",
"(  c #AD927D",
")  c #AC957B",
"_  c #B2987D",
"`  c #DE8D4C",
"'  c #CA8B7A",
"]  c #E2A07E",
"[  c #757A80",
"{  c #798585",
"}  c #7C8F96",
"|  c #848888",
" . c #958C86",
".. c #96918A",
"X. c #828991",
"o. c #849598",
"O. c #8C939D",
"+. c #8B9995",
"@. c #999A97",
"#. c #9B949D",
"$. c #969593",
"%. c #A48F83",
"&. c #AB9383",
"*. c #A79688",
"=. c #B49D84",
"-. c #B39A88",
";. c #A59B94",
":. c #A3869A",
">. c #98A19C",
",. c #B3A189",
"<. c #BAA08F",
"1. c #BDAB9A",
"2. c #B8A999",
"3. c #A9A395",
"4. c #8F96A0",
"5. c #939CA3",
"6. c #9DA9A6",
"7. c #9CACB3",
"8. c #9EB0B0",
"9. c #A5A6A6",
"0. c #A9AAA7",
"q. c #BCA8A2",
"w. c #AEA3B3",
"e. c #B4ABB0",
"r. c #ACB1B4",
"t. c #A8B6B9",
"y. c #B7B4BC",
"u. c #C39F89",
"i. c #D1A58F",
"p. c #C8AEA4",
"a. c #D2ADA5",
"s. c #C4B1A9",
"d. c #C7B7AB",
"f. c #CCBDB3",
"g. c #C6B7B2",
"h. c #D2BFB9",
"j. c #D7BDB0",
"k. c #C6C5BA",
"l. c #D4C1BB",
"z. c #D5CABE",
"x. c #DCC4BA",
"c. c #E4C4BB",
"v. c #F1C1B7",
"b. c #ABBBC2",
"n. c #ADB9C9",
"m. c #B1BEC4",
"M. c #BBB9C5",
"N. c #BDBEC9",
"B. c #B7B9C4",
"V. c #C2BDC4",
"C. c #C0BCCA",
"Z. c #B4C2C3",
"A. c #BECCCF",
"S. c #B7C3CC",
"D. c #BBCCD3",
"F. c #B9C9D5",
"G. c #BED3D8",
"H. c #C3C3C6",
"J. c #C9C3C7",
"K. c #C3C2CE",
"L. c #C4CECD",
"P. c #CEC9CE",
"I. c #C6C9C3",
"U. c #DAC9C7",
"Y. c #CDD0C7",
"T. c #DDD1CD",
"R. c #C6C5D1",
"E. c #C1CED6",
"W. c #CCCAD5",
"Q. c #C9C7D4",
"!. c #D2CDD3",
"~. c #CBD3D5",
"^. c #C5D5DC",
"/. c #CAD7D7",
"(. c #DCD1D2",
"). c #D4DAD3",
"_. c #D3D4D9",
"`. c #D4DADB",
"'. c #E2CFC9",
"]. c #E4D2CC",
"[. c #EBDBCF",
"{. c #F1DACC",
"}. c #E0C6D1",
"|. c #E5D5D3",
" X c #ECD9D5",
".X c #E3DED7",
"XX c #F5D9D8",
"oX c #E9E2DB",
"OX c #E5E4DA",
"+X c #F6E7DB",
"@X c #CDD9E2",
"#X c #D5DFE1",
"$X c #DBE7E5",
"%X c #D9E4EA",
"&X c #E6ECEC",
"*X c #E8EAE8",
"=X c #F1EAE4",
"-X c #F5F6EC",
";X c #E7EDF1",
":X c #EAF7F3",
">X c #EFF9FB",
",X c #F2F4F3",
"<X c #FCF6F6",
"1X c #F4FBFD",
"2X c #FCFDFC",
"3X c #F8F9F6",
"4X c #EAF6EC",
/* pixels */
"..! E U G R J G R E K | ( Q $.E T Q &.! ! ( %.%.;.",
" . .*.Q Q H H ~ R y + $ y ~ ~ ) ( / &./ &.R f.+X,X",
"| | $.;.( =._ ^ %   .   . w T *.=.-.*.2.z.i 0.-XoX",
"w o.o.$.-._ ,.G o @ * , 1 O 4 1.=.-.f.=X3XY Y.2X2X",
"e r 5.+.3.<.1.y 2 F v b L D ; =.,.z.<X2X2X..I.2X3X",
").& [ 8.>.q.p.y < - 9 < @ B k *.d.=X2X,X2X@.0.2XOX",
"2X$.q 7.t.9.d.U 0 - m l = v D q.-X*X*X&X,X| @.,Xt.",
"2X&Xt O.n.m.2.V S S N L z ` L ' 2X;X;X2X2XP +.1Xt.",
"2X2X{ a F.m.g.M m 9 : > ; v A v.2X3X2X<X2X9.9.2X*X",
">X:X0.a F.S.k.^ k 6 M x d l W k.*X,X).&X`.{ +.4XL.",
"$X$XZ.p D.G.k.j.~ # 3 , * 8 2.t.T..XI.:X/.u P 2X/.",
"#X$X/.a F.@Xy.s.i.-   X X j i.g.p.q.oX2X%XX.#.<X&X",
">X&X_.{ S.@XP.g.y.V 5 ; h n ] }.a.s..X~.;XO.s oXL.",
"1X,X_.a ^.M.w.e.9.C Z v z n I OXx.].k.6.A.{ t ).b.",
"1X1X_.p A.y.#.C.:.7 Z g f l ! XXU.[.oX).L.Z.6./.D.",
"+.O.r.a Z.W.w.N.;.&.*.E u.s.R.c.U.x. X=X=X*Xr._.H.",
"b.7.b.a y.R.W.N.N.J.P.W._.h.f.P.T.|. X|. X+Xg.~.`.",
"^.^.E.4.B.M.Q.R.R.J.H.K.!.h.l.(.(.].].(.|.{.z.r.~.",
"b.^.E.B.K.C.K.S.R.V.V.K.!.l.l.(.(.T.U.T.'.c.[.$.} "
};
