/* XPM */
static const char *micro_lroussel[] = {
/* columns rows colors chars-per-pixel */
"25 19 196 2 ",
"   c #100C0B",
".  c #0E120F",
"X  c #18100D",
"o  c #151214",
"O  c #191915",
"+  c #151619",
"@  c #16191E",
"#  c #1C1C1B",
"$  c #060B07",
"%  c #221F1C",
"&  c #22211E",
"*  c #2B241E",
"=  c #171C20",
"-  c #1B1D22",
";  c #1E2123",
":  c #232323",
">  c #2B2923",
",  c #232428",
"<  c #2C2628",
"1  c #26292C",
"2  c #2C2C2D",
"3  c #37352E",
"4  c #2C2D32",
"5  c #302F35",
"6  c #2F3337",
"7  c #2F333C",
"8  c #333234",
"9  c #393634",
"0  c #3E3A37",
"q  c #34343A",
"w  c #38363B",
"e  c #3B3B3A",
"r  c #35393C",
"t  c #423B3C",
"y  c #413A34",
"u  c #44423D",
"i  c #4E473F",
"p  c #51483F",
"a  c #67513A",
"s  c #363B44",
"d  c #333541",
"f  c #454442",
"g  c #4A4742",
"h  c #4B4945",
"j  c #48464B",
"k  c #544B44",
"l  c #594F45",
"z  c #514D49",
"x  c #524743",
"c  c #56514C",
"v  c #5C544D",
"b  c #575350",
"n  c #5C5451",
"m  c #5A5858",
"M  c #61574E",
"N  c #63594E",
"B  c #6E5C4B",
"V  c #695441",
"C  c #645B52",
"Z  c #695D51",
"A  c #605A5E",
"S  c #78624B",
"D  c #6C6155",
"F  c #6F665E",
"G  c #736556",
"H  c #74665A",
"J  c #75695D",
"K  c #7B6D5E",
"L  c #7D6354",
"P  c #7F735D",
"I  c #706760",
"U  c #746C61",
"Y  c #7B6D60",
"T  c #7D7163",
"R  c #7D746C",
"E  c #7D7A73",
"W  c #886E55",
"Q  c #8F755C",
"!  c #847465",
"~  c #857867",
"^  c #8D7867",
"/  c #81796D",
"(  c #8B7D6E",
")  c #887E74",
"_  c #847C71",
"`  c #8B806E",
"'  c #84836F",
"]  c #868074",
"[  c #8E8775",
"{  c #83817C",
"}  c #8D847A",
"|  c #938576",
" . c #988370",
".. c #9A8872",
"X. c #9D8678",
"o. c #93897C",
"O. c #A1806D",
"+. c #A48372",
"@. c #A4947E",
"#. c #898583",
"$. c #8A8585",
"%. c #958C83",
"&. c #918788",
"*. c #9E9483",
"=. c #9F9F87",
"-. c #96928C",
";. c #99928A",
":. c #949292",
">. c #99979B",
",. c #9E9D9C",
"<. c #A19584",
"1. c #A49A8B",
"2. c #A89C8E",
"3. c #AA9985",
"4. c #B39E83",
"5. c #A29C94",
"6. c #A29E9D",
"7. c #9DA399",
"8. c #BCA68F",
"9. c #B4A28C",
"0. c #ACA395",
"q. c #ADAA99",
"w. c #BCAC9C",
"e. c #9E9CA1",
"r. c #A9A6A1",
"t. c #AFAAA4",
"y. c #ACABAF",
"u. c #A2A0A3",
"i. c #B5ADAA",
"p. c #BCB5A4",
"a. c #BFBAA7",
"s. c #B6B3AD",
"d. c #BCB7AE",
"f. c #B4B2A3",
"g. c #AFADB0",
"h. c #BAB4B0",
"j. c #BFBAB6",
"k. c gray",
"l. c #B3B4B4",
"z. c #C3B7A7",
"x. c #C6BBAC",
"c. c #C2BAB4",
"v. c #C2BFBA",
"b. c #C5C0AA",
"n. c #D8C3A8",
"m. c #D4C3AF",
"M. c #C3C1B4",
"N. c #C9C8B6",
"B. c #C2C8BE",
"V. c #CBC3B8",
"C. c #D0CDBE",
"Z. c #DDCBB3",
"A. c #E1CFB7",
"S. c #CAC7C3",
"D. c #CECBC4",
"F. c #CDCEC9",
"G. c #C5C3C5",
"H. c #D3CDC4",
"J. c #D7CCC8",
"K. c #DACDC4",
"L. c #D4D0C7",
"P. c #DBD3C3",
"I. c #D9D5CC",
"U. c #DDD9D0",
"Y. c #D5D6D9",
"T. c #E8DCCE",
"R. c #E2D2C2",
"E. c #E2DDD7",
"W. c #E3DFDC",
"Q. c #EBE5D7",
"!. c #E4E1DE",
"~. c #EBE5DC",
"^. c #E4E2D5",
"/. c #F0E5DF",
"(. c #F8ECDE",
"). c #DBDBE3",
"_. c #E1E0E6",
"`. c #EBE7E3",
"'. c #E5E8E1",
"]. c #EEE9E4",
"[. c #E7E7E9",
"{. c #EBEBEA",
"}. c #F1EDE5",
"|. c #F3EBE8",
" X c #F3F1E3",
".X c #F3F1EE",
"XX c #F9F5EC",
"oX c #F3F3F1",
"OX c #FCFAF5",
"+X c #F6F7FB",
"@X c #FFF7F8",
"#X c #FFFEF9",
"$X c #FFFDFF",
"%X c #FFFFFE",
"&X c #FEFDFC",
"*X c #FBF6F3",
/* pixels */
"k k p l Z R n X O # o # O & # 2 2 & # : ; : % & : ",
"p v x k I F C y 0 9 e 9 w 9 0 t u g g f f u f g z ",
"} U N D Z C C v k v c b z n c x x c c z c h c v N ",
"*.1.2.T N N N C N C C C v v D Z C C C C M C C C C ",
"G K K K K | ( K T K K ` *.| G T T Y ! K Y Y K K Y ",
"K | ( ~ ~ P.(.<.J K 3.A.Z.m.( D J G H G Y H D H J ",
"| <.K Y / T ] U F K 9.n.4...<.R / } _ ) U / %.o.D ",
"OXV.%.Q.d.D.-.> i.K. .Q W V 0.|.F.XX}.`.5.I.#XoXp.",
"$Xb.x.&XoXB.=.x N.K.8.+.O.S J.OXh..X`.].D.W.$XOXXX",
"$Xa.c.&X$X'.' t 7.OXR.X.L @.*XoXs.*XE.}.h.v.#XoX X",
"$XC.c.$X+XOXf.< l.$XT.~ B <.#X{.s.~.U.L.5.r..X{.^.",
"$XM.j.$XOX#XD.t !.@Xx.^ a @./.|.h.`.H.D.6.,.[.Y.S.",
"XXq.c.|. XoXD.f ,.A l ! B P v #.,.].D.G.:.l._.Y.Y.",
"Q.*.;.H.P.H.M.m s 7 8 8 3 3 w r m >.u.6.#.e.G.).F.",
"z.2.5.p.p.S.E 4 6 s q q r 8 d 7 4 w : , < # :._.:.",
"w.*.%.0.[ h.m - 8 w 8 q w 9 4 q 1 2 8 > 2 & { k.>.",
"0.i t.d.u y.j O , w r q 8 q 6 ; = 4 , o + $ &.!.y.",
"1.* &.{ > 8 4 # - 4 8 5 4 4 4 = + 2 4 + o . &.].g.",
"U %   O 0 o t 9 @ 1 2 4 4 2 1 @ - , 1 + O . n -.$."
};
