/* XPM */
static const char *micro_tsoleil[] = {
/* columns rows colors chars-per-pixel */
"25 19 209 2 ",
"   c #161C2C",
".  c #091932",
"X  c #16223C",
"o  c #1A243D",
"O  c #362F25",
"+  c #3A3933",
"@  c #292933",
"#  c #433932",
"$  c #563D33",
"%  c #4C502D",
"&  c #48453E",
"*  c #4A4638",
"=  c #4A5036",
"-  c #575D39",
";  c #071C45",
":  c #1A2B45",
">  c #1D2E4D",
",  c #122140",
"<  c #1A3245",
"1  c #1B3550",
"2  c #222D43",
"3  c #22314D",
"4  c #243552",
"5  c #25395B",
"6  c #29395C",
"7  c #283756",
"8  c #323D5B",
"9  c #1A3C61",
"0  c #2B3C61",
"q  c #2F3C68",
"w  c #403B42",
"e  c #3B4A48",
"r  c #36595D",
"t  c #2E4263",
"y  c #374366",
"u  c #474947",
"i  c #524E4D",
"p  c #4C544C",
"a  c #58564A",
"s  c #5D5B55",
"d  c #555B58",
"f  c #654E40",
"g  c #6F584B",
"h  c #55615A",
"j  c #5F655C",
"k  c #716F48",
"l  c #7A754F",
"z  c #64625B",
"x  c #676857",
"c  c #726856",
"v  c #777659",
"b  c #6A664D",
"n  c #4E5C60",
"m  c #4A5664",
"M  c #525B71",
"N  c #5C6665",
"B  c #5E6B65",
"V  c #566A6A",
"C  c #5B6969",
"Z  c #4B7069",
"A  c #527068",
"S  c #576972",
"D  c #5C7378",
"F  c #5E7C72",
"G  c #496362",
"H  c #646667",
"J  c #756D62",
"K  c #796F68",
"L  c #68756A",
"P  c #797263",
"I  c #7B7B6F",
"U  c #777567",
"Y  c #636770",
"T  c #6C7372",
"R  c #6E7C7B",
"E  c #657775",
"W  c #72737C",
"Q  c #797C77",
"!  c #885D54",
"~  c #836C5E",
"^  c #906857",
"/  c #94705A",
"(  c #A1725E",
")  c #836D60",
"_  c #857868",
"`  c #977967",
"'  c #847C71",
"]  c #917571",
"[  c #A4796A",
"{  c #74867C",
"}  c #93805F",
"|  c #848067",
" . c #9E866C",
".. c #8E8D77",
"X. c #8C8C7C",
"o. c #888674",
"O. c #908F7B",
"+. c #998B7D",
"@. c #99967A",
"#. c #A7866A",
"$. c #A18C77",
"%. c #AA9E74",
"&. c #B28F76",
"*. c #C09270",
"=. c #C3AB7D",
"-. c #36578D",
";. c #457A8D",
":. c #5B7583",
">. c #597C90",
",. c #44688A",
"<. c #627E81",
"1. c #757E83",
"2. c #6C738F",
"3. c #4C7DA6",
"4. c #688489",
"5. c #738484",
"6. c #7A8382",
"7. c #7E8B89",
"8. c #7D9187",
"9. c #758D94",
"0. c #7A9697",
"q. c #5F90B1",
"w. c #5A89B5",
"e. c #7792A3",
"r. c #4CBFDE",
"t. c #848A83",
"y. c #888987",
"u. c #958B89",
"i. c #8A9085",
"p. c #8E928E",
"a. c #819B8B",
"s. c #919184",
"d. c #979789",
"f. c #838A95",
"g. c #859192",
"h. c #8C9892",
"j. c #889996",
"k. c #929999",
"l. c #969798",
"z. c #A88E8F",
"x. c #A79888",
"c. c #B29381",
"v. c #BF9F92",
"b. c #83A39F",
"n. c #88A19E",
"m. c #97A39B",
"M. c #B8A68A",
"N. c #A9A699",
"B. c #B7AA98",
"V. c #ABAC8A",
"C. c #929DA3",
"Z. c #909FB2",
"A. c #899AA2",
"S. c #95A4A4",
"D. c #99A6A5",
"F. c #82AEBB",
"G. c #95ACB6",
"H. c #93B0B4",
"J. c #AAADAB",
"K. c #BCAEAB",
"L. c #A7B0AF",
"P. c #B2B4A8",
"I. c #A1ADB5",
"U. c #A8B9BA",
"Y. c #BEBAB0",
"T. c #B5B7BA",
"R. c #B3BABC",
"E. c #B0BBB3",
"W. c #C59A8C",
"Q. c #C6B798",
"!. c #C1A894",
"~. c #C1AFA1",
"^. c #C2B9A8",
"/. c #B7C0BD",
"(. c #FADC9E",
"). c #C5C5B5",
"_. c #D6D0B0",
"`. c #ABBBC7",
"'. c #B5BEC3",
"]. c #B3C5CC",
"[. c #B8CAD5",
"{. c #B7D0D5",
"}. c #C7D7D9",
"|. c #DDD6D7",
" X c #C9D7CA",
".X c #E1E0CC",
"XX c #E9E7DC",
"oX c #F8EAC7",
"OX c #C6D5E2",
"+X c #C9DBE0",
"@X c #C6DCE6",
"#X c #D2DEE3",
"$X c #CCE2ED",
"%X c #C9E2E9",
"&X c #D4E1E4",
"*X c #D6E6ED",
"=X c #CCE5F2",
"-X c #C8E6F6",
";X c #D5EAF3",
":X c #DCECF3",
">X c #D4EBFB",
",X c #DCEEFC",
"<X c #D3E6F9",
"1X c #DEF0F8",
"2X c #E7E9E9",
"3X c #EFF5E7",
"4X c #FFF7E0",
"5X c #E6F4F7",
"6X c #F8FFF4",
/* pixels */
"S.b.a.L m.p.y.T R 0.0.a.{ C 5.D 6.k.Q d N 5.0.<.D ",
"j.0.8.R { 6.Q h B B G :.D d p e C 6.z z Q 5.9.:.E ",
"OX{.].R.S.k.D.7.F { E R h.i.T A g.k.y.m.E.L.`.`.].",
"<X=X=X;X;X$X*X@X+X{.[.OX[.[.].}.}.}.#X&X#X*X:X;X;X",
"$X$X$X%X=X@X-X-X@X>X,X}.2X:X,X,X;X$X,X,X:X5X:X%X$X",
"U.].}.OXOX$X=X=X-X&Xd.O.O.d. X,X<X<X;X:X5X5X*X}.+X",
"p s N N W g.j.g.D.y.# # # O J T.I.I.S.h.p.p.1.T H ",
"' _ I I o.s L t.I & g ` / ) * P i.j h d i u O + + ",
"_..Xx.^.|.f.l._.P.$ ( &.M.c.$ x.Y.1.P.N.i.Y.K z a ",
"Q...b l | 6.R.4X|.c ` ^ [ g J XX2XA.J...v @.V._.B.",
"f * o.l U G.[.XXXX!.&.W.W.[ B.6X3XU.P.x = % - k s.",
"P P c ` u.k.J.K.~.x.#.^ ! [ N.Q.).S.N.o.b b ..@.U ",
"h p d K J ^.).C.W m #. .) ] n M.T.G.Y H B d 6.L u ",
"a & z +.=.(.oX'.:.M W./ _ z.:.s.&X-XI.7.n e S n u ",
"p H u.' @.N.'.2.8 > w ~ x.H X W  XH.k.l.t.s p Q R ",
"{ { s.x 4.w.-.q 4 X ;   @ . o t >.q.e.E V h.7.t.H ",
"n.a *.0.3.y 5 6 t 7 > : : : 4 6 0 ,.b.L r S H.8.V ",
"6.T $.9.9 2 1 6 0 7 3 3 3 3 5 6 > 5 +.%.Z N L.9.B ",
"J.`./.Z.,   < 6 6 4 3 4 4 4 5 0 < ; u a.r.;.g.F.;."
};
