/* XPM */
static const char *micro_ksongbe[] = {
/* columns rows colors chars-per-pixel */
"25 19 185 2 ",
"   c #040201",
".  c #090A06",
"X  c #0E0C0B",
"o  c #110A04",
"O  c #140F0C",
"+  c #10100E",
"@  c #1D1509",
"#  c #151412",
"$  c #1E1714",
"%  c #1F1A14",
"&  c #1C1C19",
"*  c #18181A",
"=  c #201001",
"-  c #2C1007",
";  c #23120B",
":  c #2F130F",
">  c #271410",
",  c #221E1D",
"<  c #331D12",
"1  c #2C221A",
"2  c #31241E",
"3  c #211F22",
"4  c #1F2120",
"5  c #232324",
"6  c #2C2324",
"7  c #2D2A25",
"8  c #27262B",
"9  c #29242B",
"0  c #2A2B2C",
"q  c #3B2120",
"w  c #352C24",
"e  c #352E2A",
"r  c #382E2C",
"t  c #372426",
"y  c #34322C",
"u  c #3B342D",
"i  c #2C2B31",
"p  c #312F34",
"a  c #293134",
"s  c #343232",
"d  c #3C3532",
"f  c #373833",
"g  c #3B3935",
"h  c #343439",
"j  c #383639",
"k  c #353A3D",
"l  c #3B393B",
"z  c #462917",
"x  c #4E2F1B",
"c  c #402E2E",
"v  c #4C3226",
"b  c #43362E",
"n  c #423633",
"m  c #423A34",
"M  c #443D3A",
"N  c #483F3A",
"B  c #4B3A34",
"V  c #5B3729",
"C  c #474036",
"Z  c #4F4337",
"A  c #46413D",
"S  c #4B433C",
"D  c #53473C",
"F  c #6B4C38",
"G  c #3D3C41",
"H  c #303A44",
"J  c #414143",
"K  c #4A4443",
"L  c #4D4B46",
"P  c #484B4D",
"I  c #594747",
"U  c #544C45",
"Y  c #564A46",
"T  c #57534C",
"R  c #5A564B",
"E  c #454A52",
"W  c #4C4D51",
"Q  c #43515A",
"!  c #535356",
"~  c #5C5553",
"^  c #5D5A54",
"/  c #5C5C5C",
"(  c #605041",
")  c #62524D",
"_  c #70534D",
"`  c #655757",
"'  c #655C54",
"]  c #665C5B",
"[  c #7D5D52",
"{  c #6C645D",
"}  c #666054",
"|  c #70685D",
" . c #5E5E60",
".. c #5C6874",
"X. c #636361",
"o. c #696B6D",
"O. c #766F67",
"+. c #726A68",
"@. c #7A746A",
"#. c #636D77",
"$. c #646D79",
"%. c #6B6E75",
"&. c #6A7177",
"*. c #6A747D",
"=. c #77787C",
"-. c #835B56",
";. c #876059",
":. c #826B63",
">. c #887879",
",. c #837C77",
"<. c #977D7A",
"1. c #A4756D",
"2. c #A67E74",
"3. c #B47F77",
"4. c #7F827B",
"5. c #6E7B84",
"6. c #6A7682",
"7. c #707E89",
"8. c #7B8797",
"9. c #808082",
"0. c #8F8888",
"q. c #908983",
"w. c #9B968C",
"e. c #8B939F",
"r. c #8C9093",
"t. c #9E9F9A",
"y. c #9A9593",
"u. c #A98985",
"i. c #AA918D",
"p. c #BC938F",
"a. c #A39C96",
"s. c #A3A19A",
"d. c #ACA39E",
"f. c #8896A4",
"g. c #99A8AF",
"h. c #9BABB2",
"j. c #9CA9B9",
"k. c #ABABA5",
"l. c #B3ABA5",
"z. c #BBB2AD",
"x. c #B5B3A6",
"c. c #A5ADB8",
"v. c #AEB6B8",
"b. c #BDBCB4",
"n. c #B3B7B9",
"m. c #C5998E",
"M. c #CBA39B",
"N. c #CCACA6",
"B. c #C1BEB9",
"V. c #C6BBB5",
"C. c #C4B6A9",
"Z. c #C6C2B7",
"A. c #C7C0B8",
"S. c #CAC8BC",
"D. c #A4B4C3",
"F. c #AEBFC7",
"G. c #A7BCCA",
"H. c #ABBACA",
"J. c #B1BEC7",
"K. c #B2C2D3",
"L. c #B9CDD8",
"P. c #C4C5C3",
"I. c #CCCBC3",
"U. c #C6C8C3",
"Y. c #D5CBC6",
"T. c #D8D7CB",
"R. c #C0CDDE",
"E. c #D3D6D3",
"W. c #DAD7D0",
"Q. c #DCDCD2",
"!. c #EFC8C3",
"~. c #E4E5DF",
"^. c #C1D1E1",
"/. c #DDDEE0",
"(. c #DDE3E1",
"). c #E6E6E6",
"_. c #E8E9E9",
"`. c #F3F1E5",
"'. c #FBF5ED",
"]. c #F4F3EF",
"[. c #EEEFF1",
"{. c #F3F3F1",
"}. c #FCFBF6",
"|. c #F9F7F8",
" X c #FEFDFD",
/* pixels */
"n B m d s y y u y d n 7 & 6 r L ,.@.u M m S T T ' ",
"W m Z S g g u e s r r 7 / a.Y.'. XA.S ~ ~ S U ' | ",
"o.X.A N n m d g u n d f E.).z.,.~ m S m m u w w 7 ",
"0 W &.! S b m j m d M s g g e d N N M N U O.q.l.B.",
"l.=.H *.X.K S S N A y , 6 $ $ M D M { { I.}. X X X",
"I. X9.k 5.$.K D N A s n > 2 o # Z w.}.Z.W. X|. X X",
"U. X Xo.Q f.%.D Y 1 K N.-.< $   w. X XS.Q. X X X X",
"P. X X~.E 8.e.! Y w <.p.1.v @   t. X Xb.Q. X X}. X",
"V. X X Xr.#.D.*.I c <.u.;.v 1 o P. X Xb.T. X`.`. X",
"A. X|. XP...H.e.R b u.!.[ = ; B  X|. Xb.Q. X}.}. X",
"b. X X X/.#.H.j.~ ' :.M.2.- o 0. X X Xs.I. X{.}. X",
"y. X|. X[.6.K.D.` ~ T i.<.; % (. X|. Xw.I. X].|. X",
"d. X|. X[.7.G.G.' ^ ] >.) o @ C. X X Xx.T. X X X X",
"z. X X X_.5.L.F.~ L ) N.m.V - : 0 X.y.@.S. X X}. X",
"s. XE.{._.*.f.E 9 5 S u.3.-.q 6 # # *   q. XI.^ 4.",
"k. Xv.n.n.$.E 5 7 0 a i p 0 5 * 5 0 8 O e  XB.& W ",
"t.'.F.^.h.k j 0 h 0 0 G J J P j 4 3 + X   ).l.z } ",
"+.Y.J.R.g.h 0 8 l h G ! / /  .P 5 X . .   k.a.x _ ",
"t u.c.K.h.G 5 5 G h i 0 5 8 0 5 * X       s C F ( "
};
