/* XPM */
static const char *micro_teandria[] = {
/* columns rows colors chars-per-pixel */
"25 17 178 2 ",
"   c #271E0F",
".  c #33352A",
"X  c #2C3B38",
"o  c #46281D",
"O  c #423121",
"+  c #4A3726",
"@  c #4C3629",
"#  c #53372C",
"$  c #4A3E32",
"%  c #5A4539",
"&  c #614237",
"*  c #65433B",
"=  c #68413A",
"-  c #7E4A3F",
";  c #65503F",
":  c #5B4B43",
">  c #4B5355",
",  c #5B5758",
"<  c #5B5C57",
"1  c #644A46",
"2  c #684D4D",
"3  c #795547",
"4  c #775844",
"5  c #77524C",
"6  c #795C54",
"7  c #6F625A",
"8  c #7E615B",
"9  c #627766",
"0  c #6E7178",
"q  c #6E7C7E",
"w  c #91594C",
"e  c #804E51",
"r  c #835251",
"t  c #8A5957",
"y  c #8C635B",
"u  c #816B56",
"i  c #876065",
"p  c #856A61",
"a  c #9E7E6F",
"s  c #9E7265",
"d  c #827E7B",
"f  c #947572",
"g  c #956966",
"h  c #A36D66",
"j  c #A06D6A",
"k  c #AF7C6E",
"l  c #AC756E",
"z  c #B47B68",
"x  c #AF7F73",
"c  c #B17C74",
"v  c #63847D",
"b  c #7F8279",
"n  c #84807F",
"m  c #AA8074",
"M  c #738786",
"N  c #858584",
"B  c #868B86",
"V  c #8B8886",
"C  c #8E8C8C",
"Z  c #8C8283",
"A  c #938B8A",
"S  c #8C908D",
"D  c #93928E",
"F  c #929083",
"G  c #848E90",
"H  c #948D94",
"J  c #8B9797",
"K  c #869E9A",
"L  c #8C9A9A",
"P  c #849491",
"I  c #969492",
"U  c #999694",
"Y  c #979994",
"T  c #9C9997",
"R  c #9D949B",
"E  c #939D9C",
"W  c #9C9B9A",
"Q  c #919499",
"!  c #B48483",
"~  c #BF8B80",
"^  c #A29E9C",
"/  c #A39397",
"(  c #84A39A",
")  c #8CA29E",
"_  c #9FA19C",
"`  c #90A39D",
"'  c #A2A19E",
"]  c #AEA09D",
"[  c #9A92A1",
"{  c #8FA8A5",
"}  c #8FA3A2",
"|  c #94A5A3",
" . c #9DA5A3",
".. c #92AAA5",
"X. c #99AEA7",
"o. c #9EAEA9",
"O. c #A4A4A3",
"+. c #AAA6A5",
"@. c #A3A9A6",
"#. c #A9A8A6",
"$. c #A3A6A9",
"%. c #A6ABA9",
"&. c #ADACAB",
"*. c #B2AEAC",
"=. c #BAAEAE",
"-. c #B1AAA6",
";. c #A5B2AE",
":. c #ACB8AE",
">. c #B2B1AD",
",. c #B8B0AD",
"<. c #A5A7B3",
"1. c #ACAEB1",
"2. c #B0AEB1",
"3. c #B8AFB0",
"4. c #A3B4B2",
"5. c #AEB2B2",
"6. c #ADB7B8",
"7. c #A7B9BB",
"8. c #B4B3B1",
"9. c #BAB5B4",
"0. c #B5B8B4",
"q. c #BBB9B7",
"w. c #B4BDB9",
"e. c #BBBBBA",
"r. c #B5B3B8",
"t. c #C0B6B6",
"y. c #C2BEBC",
"u. c #C8BFB8",
"i. c #B7C2BC",
"p. c #C3C1BD",
"a. c #C8C1BB",
"s. c #D6C6B7",
"d. c #D2CFBE",
"f. c #B6BFC4",
"g. c #BBB8C1",
"h. c #C1BFC0",
"j. c #BDC4CE",
"k. c #BCC7DB",
"l. c #B1CDE2",
"z. c #C5C3C2",
"x. c #C9C5C2",
"c. c #C7C8C3",
"v. c #CBC8C6",
"b. c #C7C6CB",
"n. c #CDCBCA",
"m. c #C5C9CC",
"M. c #D1CECB",
"N. c #D4D3CF",
"B. c #C6CFDE",
"V. c #CACAD2",
"C. c #D3CFD0",
"Z. c #C7D7D6",
"A. c #C7D0DF",
"S. c #D5D1D0",
"D. c #D7D5D7",
"F. c #C4D1E3",
"G. c #C9D3E5",
"H. c #CFD7EA",
"J. c #C0D9ED",
"K. c #CFDAEC",
"L. c #C5D4EB",
"P. c #D5DBE7",
"I. c #DBDEE2",
"U. c #D3DCEA",
"Y. c #DDDFEE",
"T. c #DBE0E6",
"R. c #DDE3EC",
"E. c #D3E4EC",
"W. c #DBE2F2",
"Q. c #E0E6EB",
"!. c #EEE8E8",
"~. c #F0EAEE",
"^. c #EBEDF1",
"/. c #F3EFF3",
"(. c #EBF2F5",
"). c #F8F6F7",
"_. c #F8F7FD",
"`. c #F5FFFF",
/* pixels */
"0 q M L L | } K <.2.0.&.S @.Z J D < I 8.I q.&.O.T ",
"q G Q 1.L ) | 5.( o.q.,.W N / ' Y N ' q.I 8.q.8.O.",
"v E $.K ( ..4...6.{ m.9.V R r.p.v.O.T v.#.T y.q.*.",
"R P ( ;.1.$.4...t.:.F % : 7 >.a.y.v.O.8.+.V q.y.8.",
"O.5.8.9.e.X.;.q.7.9 O % $   . g.n.n.*.I I U v.p.q.",
"@.3.*.w.i.q.&.4. .+ z ~ m k o > 8.T ^ T A 8.v.p.y.",
"*.9.t.=.y.y.x.D.H # k ! ! h = X 9., n I +.^ M.x.z.",
"Y B B ^ A T T &.b % & 5 8 * = : h.T U ' ' D 8.v.z.",
" ._ d x.V 8.>.N -.j s h l a g i >.z.S.M.M.M.D z.x.",
"0.+.A ,.S :.#./ u.y c t r x y f ' T &.y.z.n.^ e.v.",
"8.q.0.e.*.u.q.8.V.p - e r w 3 V O.O.&.U 9.M.W h.z.",
"` ;.e.u.x.y.p.y.b.] 1 t y 5 2 E C *.&.D q.v.^ e.z.",
"..) w.q.e.q.y.N.!.s.; 1 2 & 6 f.b.W N W 8.n.W 8.z.",
"%.o.X.| w.C./.)._.d.4 # @ = A k.Q.^.^.&.&.c.W 0.e.",
"&.5.w.o.Z.`./.~.^.E.-.u 6 [ l.G.U.R.R.(.m.z.I 8.q.",
"^ 8.@.6.I.I.Q.(.R.Y.G.F.G.L.J.G.H.W.P.T.D.&.C q.8.",
"N %.) j.B.A.R.Q.U.U.G.F.F.F.G.G.K.U.G.G.A.$.&.8.#."
};
