/* XPM */
static const char *micro_asangerm[] = {
/* columns rows colors chars-per-pixel */
"25 19 209 2 ",
"   c #1C2C36",
".  c #1D3037",
"X  c #17262D",
"o  c #3F302B",
"O  c #282B37",
"+  c #21333D",
"@  c #393134",
"#  c #791C27",
"$  c #473C3E",
"%  c #7C3839",
"&  c #3C473F",
"*  c #48473D",
"=  c #183343",
"-  c #2B3345",
";  c #283849",
":  c #333744",
">  c #323D49",
",  c #2D3D52",
"<  c #253B53",
"1  c #333E53",
"2  c #383D58",
"3  c #403843",
"4  c #413C53",
"5  c #762D41",
"6  c #2C414B",
"7  c #2A4249",
"8  c #294555",
"9  c #344353",
"0  c #374758",
"q  c #354C56",
"w  c #3C4A66",
"e  c #3D5469",
"r  c #46474A",
"t  c #564C47",
"y  c #4C504F",
"u  c #5C5747",
"i  c #454956",
"p  c #595856",
"a  c #43545C",
"s  c #655944",
"d  c #675A57",
"f  c #765651",
"g  c #77784C",
"h  c #6A665A",
"j  c #79655D",
"k  c #7E7B52",
"l  c #6B6545",
"z  c #455868",
"x  c #5A5268",
"c  c #5C5E73",
"v  c #46506A",
"b  c #5E6263",
"n  c #4D6C71",
"m  c #5C7474",
"M  c #686A6A",
"N  c #736D6D",
"B  c #776868",
"V  c #6F7863",
"C  c #75756A",
"Z  c #6A6C76",
"A  c #726C73",
"S  c #6B7876",
"D  c #747D7C",
"F  c #7C7C7B",
"G  c #777975",
"H  c #993358",
"J  c #B33B71",
"K  c #AF334B",
"L  c #996F5F",
"P  c #816358",
"I  c #BC4D6D",
"U  c #896966",
"Y  c #89786C",
"T  c #947368",
"R  c #857873",
"E  c #A97E6E",
"W  c #B07A6E",
"Q  c #D84D74",
"!  c #5E817D",
"~  c #78857E",
"^  c #7BA170",
"/  c #66B378",
"(  c #BFA92F",
")  c #81835B",
"_  c #8D8367",
"`  c #8E8679",
"'  c #948675",
"]  c #998B7C",
"[  c #8B937D",
"{  c #9A9776",
"}  c #A48F77",
"|  c #8EAA6F",
" . c #ABA77A",
".. c #DDBC48",
"X. c #CFCA66",
"o. c #F6E464",
"O. c #506C84",
"+. c #65788A",
"@. c #EC3E85",
"#. c #FC5791",
"$. c #5B8385",
"%. c #66888B",
"&. c #798783",
"*. c #799586",
"=. c #61919A",
"-. c #62A594",
";. c #61ADA1",
":. c #7FB8B1",
">. c #78D4D9",
",. c #89838A",
"<. c #898C84",
"1. c #978B88",
"2. c #8D918B",
"3. c #819288",
"4. c #979183",
"5. c #91988D",
"6. c #9B948A",
"7. c #88929A",
"8. c #9D9C93",
"9. c #999696",
"0. c #928694",
"q. c #AB8B83",
"w. c #BA8C84",
"e. c #AA9785",
"r. c #BB9E8A",
"t. c #A59A94",
"y. c #B09D99",
"u. c #AC8D95",
"i. c #9BA596",
"p. c #96B190",
"a. c #9CAA89",
"s. c #AEA085",
"d. c #AFB18C",
"f. c #A9A79B",
"g. c #BAAB94",
"h. c #B2A39C",
"j. c #B0BD9F",
"k. c #B2B38C",
"l. c #819EAC",
"z. c #8D9DB4",
"x. c #9D95AA",
"c. c #A697A1",
"v. c #8AAAA6",
"b. c #8AB3A8",
"n. c #83B1A7",
"m. c #8EA9B5",
"M. c #8AB9B3",
"N. c #99B9B3",
"B. c #97B1A4",
"V. c #A9A7A5",
"C. c #B9A5A3",
"Z. c #A3B2AA",
"A. c #A7B4A9",
"S. c #ADAEB0",
"D. c #BAAEB2",
"F. c #B4B4B9",
"G. c #B3B6AF",
"H. c #C18D80",
"J. c #C59998",
"K. c #E78699",
"L. c #D5AE8D",
"P. c #C3BC95",
"I. c #D4A2A6",
"U. c #C8B5A9",
"Y. c #DFBEB9",
"T. c #CAAFB0",
"R. c #98C09D",
"E. c #BCC99E",
"W. c #9CC0B2",
"Q. c #9ED4B0",
"!. c #8BC8B3",
"~. c #A4C1BC",
"^. c #C8C786",
"/. c #C7C5B7",
"(. c #D4CAB8",
"). c #C3D0AC",
"_. c #E6E9B2",
"`. c #83C7C4",
"'. c #AFD1C3",
"]. c #B9DDCF",
"[. c #B5CACD",
"{. c #C5CDCA",
"}. c #CAD2C9",
"|. c #C5CFD1",
" X c #CCD3D4",
".X c #CED8D5",
"XX c #CAD3D9",
"oX c #CEDCDB",
"OX c #DFDBD7",
"+X c #D3DBDE",
"@X c #D5D9D6",
"#X c #D0C6C4",
"$X c #E6DAD5",
"%X c #D3E1C0",
"&X c #CBE4C4",
"*X c #E7E9DB",
"=X c #CEDAE2",
"-X c #D3DDE4",
";X c #DADDE7",
":X c #D6E2E6",
">X c #D4E3EA",
",X c #DBE3E8",
"<X c #D9E7F0",
"1X c #EAEBE6",
"2X c #F9EFEA",
"3X c #FFFDF3",
"4X c #FDFDFD",
"5X c #F4F9F6",
"6X c #F2F5F1",
/* pixels */
"XXXX.X@X,X-X-X=X+XXX X|. X X X6X3X6X4X4X4X4X3X4X4X",
"oX:X=X-X,X,X;X;X:X>X>X<X>X<X-X:X5X4X4X4X4X4X4X4X4X",
"<.i.S.F.}.{.|..XoX+X1X9.2.F. X+X-X2X3X5X6X3X1X*XOX",
"d u t d C N N 2.8.2.M > : p 9.t.5.f.6.2.9.<.G N C ",
"B t.] ' 4.R 9.,.6.` @ r $ $ j ] 4.7.,.G D M p x y ",
"g.U.g.P.{ { 6.9./.U.P L E T e.(.#Xm.V. .E._.^.f.r.",
"e.e.Y s k ) u 8.OX$Xq.U w.T C.2XOX[.4.k | ^.^.k.g.",
"t h t * h h N c.f.Y q.H.W w.q.Y 2.S.1.V V ' ` d N ",
"& p % 5 M h p y.G.3 t f f d * @ v.z.D 8.t.f.F Z b ",
"p y # K m N B r.L.l e.j o s y.x.z.m.S D D 5.V.[ 8.",
"7.&.1.<.*.U Q Y.U.Z.G J.w.U.h.c.).D.6.<.f.h.h.A 8.",
"3.B 3.V.i.} K.T.%.z , r R M a c *.I./.B.S.$XC.! &.",
"R 0.7.1.I #.@.x , 9 9 < = 8 z e w O.>.>.=.`.M.=.*.",
"<.}.i.B H J J > ; - 2 4 9 0 i 0 6 6  .o.X.k.j._ d.",
"D f.A.%.%.l.$.; . O i 6 7 0 0 9 - ; _ ..( k.G.g { ",
"[ h.~.N.n.`.n > : X , 2 1 9 q - 6 9 +.p.*.b.Z.~ ! ",
"(.p.R.%X&X!.e B I.$   = - - + O 9 w +.N.;.-.n.N.~ ",
"a.s.(.).Q.:.; A I.u.O   - ; 7 z 8 0 m .X~.~.v.b.Z.",
"^ | / / !.M., q Z Z e 8 e e z v , < z 1X.X1X{.].'."
};
