/* XPM */
static const char *micro_ecullier[] = {
/* columns rows colors chars-per-pixel */
"25 19 191 2 ",
"   c #060608",
".  c #1D0400",
"X  c #270600",
"o  c #2E0D00",
"O  c #320900",
"+  c #3A0F09",
"@  c #29120A",
"#  c #3C1503",
"$  c #36160C",
"%  c #381C10",
"&  c #3E220D",
"*  c #3E2515",
"=  c #3E3428",
"-  c #491C05",
";  c #45220F",
":  c #5E240E",
">  c #402013",
",  c #452B1C",
"<  c #482918",
"1  c #5C2B14",
"2  c #4D341D",
"3  c #523017",
"4  c #54331A",
"5  c #5E381C",
"6  c #672805",
"7  c #61290E",
"8  c #63271C",
"9  c #73371D",
"0  c #4C3321",
"q  c #463521",
"w  c #593C2A",
"e  c #533825",
"r  c #4F3F30",
"t  c #6E3E2B",
"y  c #743C23",
"u  c #5C4231",
"i  c #58463A",
"p  c #61412E",
"a  c #6F452D",
"s  c #754924",
"d  c #7A4728",
"f  c #764729",
"g  c #654C36",
"h  c #6A4D3C",
"j  c #674836",
"k  c #7B4A35",
"l  c #755035",
"z  c #6C5445",
"x  c #725645",
"c  c #745844",
"v  c #7B5A49",
"b  c #795649",
"n  c #785B53",
"m  c #7B604D",
"M  c #786454",
"N  c #76746E",
"B  c #7B736C",
"V  c #7D7A75",
"C  c #8C4E2D",
"Z  c #834722",
"A  c #884C32",
"S  c #8B5334",
"D  c #83523A",
"F  c #965938",
"G  c #8F5F49",
"H  c #8A6342",
"J  c #856449",
"K  c #957044",
"L  c #866B55",
"P  c #8D6F55",
"I  c #8E725A",
"U  c #99785D",
"Y  c #AE7154",
"T  c #A1715D",
"R  c #80766A",
"E  c #857C73",
"W  c #887A71",
"Q  c #827E79",
"!  c #897E78",
"~  c #AD6F62",
"^  c #A07D6A",
"/  c #A57F72",
"(  c #B77D74",
")  c #9D816B",
"_  c #848175",
"`  c #8A8276",
"'  c #8C847B",
"]  c #858178",
"[  c #91887F",
"{  c #988577",
"}  c #BF8560",
"|  c #A18F77",
" . c #A48573",
".. c #AE927D",
"X. c #CB8563",
"o. c #C78970",
"O. c #CC8D7B",
"+. c #D18F79",
"@. c #CC937F",
"#. c #8B8782",
"$. c #8B8A85",
"%. c #948C83",
"&. c #988F86",
"*. c #938E8A",
"=. c #988F88",
"-. c #8F908B",
";. c #94918B",
":. c #9C948B",
">. c #9A9691",
",. c #9E9994",
"<. c #9C9C9B",
"1. c gray59",
"2. c #AF9886",
"3. c #A3998E",
"4. c #A79684",
"5. c #B59F88",
"6. c #B39786",
"7. c #A39C96",
"8. c #A29E9A",
"9. c #BF9990",
"0. c #B6A48C",
"q. c #AFA397",
"w. c #A6A29D",
"e. c #ADA79E",
"r. c #B3A599",
"t. c #A4A5A3",
"y. c #ACA5A3",
"u. c #ACADAF",
"i. c #BCAEA4",
"p. c #B1ABA5",
"a. c #B8B2AA",
"s. c #B9B5B3",
"d. c #B8BCBD",
"f. c #B7B8B3",
"g. c #C69889",
"h. c #D79680",
"j. c #D39C88",
"k. c #C59F92",
"l. c #C9AD98",
"z. c #D2AD96",
"x. c #C9B49F",
"c. c #E6A996",
"v. c #C0B7A6",
"b. c #D5B9A3",
"n. c #C3BEB9",
"m. c #C3BCB6",
"M. c #EBB6A3",
"N. c #EFBFAB",
"B. c #E7BDAD",
"V. c #B9C0B9",
"C. c #DFC4AF",
"Z. c #C0C5BF",
"A. c #CBC2BA",
"S. c #D6C3B5",
"D. c #E5C7B8",
"F. c #F4C3B2",
"G. c #FFD2BC",
"H. c #BEBFC1",
"J. c #BFC3C3",
"K. c #CBC7C1",
"L. c #CCCAC7",
"P. c #C4C7C5",
"I. c #D3CAC3",
"U. c #CED1C7",
"Y. c #D9D6CE",
"T. c #C5CED5",
"R. c #D3D4D3",
"E. c #DBDAD8",
"W. c #ECDBCC",
"Q. c #E9D2C0",
"!. c #F2D9C5",
"~. c #F1DFD1",
"^. c #EAE5DF",
"/. c #FAE7D6",
"(. c #D4DFE3",
"). c #E5E4E2",
"_. c #F1EDEA",
"`. c #E7F0ED",
"'. c #F6F3EF",
"]. c #FEF6EF",
"[. c #E2EFF9",
"{. c #F8EDF5",
"}. c #EDF1F3",
"|. c #E8F5F8",
" X c #F2F4F5",
".X c #FBF7F1",
"XX c #FDFCF5",
"oX c #F4F6F9",
"OX c #F4FBFC",
"+X c #FEFEFD",
"@X c #FDF6FD",
/* pixels */
"N V n.e.%.` E E E E W W E B B R E ] N N -.1.>.*.' ",
"V N B B E E E ] _ ! _ ` 4.a.P.R.).'.U.$.}.).L.f.s.",
"Q Q ] ] ' E ' ` E ' r.I L 3._.XXXXXX Xd.OX+X+XOXoX",
"#.#.' ' [ ' =.] 3.5.f 8 + X > 0.XX+X}.J.+X+X+X+X+X",
"$.*.%.' %.&.] y.{.t F } Y F 1 + i.XX XH.+X+X+X+XXX",
"$.*.;.%.%.%.p.XX2.a G.M.h.X.S - i ]..XP.+X+X+X+X+X",
";.>.' :.:.:.^.XXD ..D.j.h.Y S 4 # i.XXP.+XXX+X+X+X",
";.>.,.:.&.A.XX'.1 9.6.G o.k j 1 O z .XJ.XX+X+X+X+X",
":.<.>.,.:.).+X!.: z.k.( @.y A d @ $ A.Z.XXXX+X+X+X",
">.<.>.,.e..X+XD.- g.N.c.O.9 C F $ . :.R.+X+X+XXX+X",
",.<.7.7.q..X+XC.# / M.+.~ y Z C $ . { L.@X+X+XXXXX",
"w.1.,.7.i.XX+XQ.# b B.c.( k d t   o ^ s.OXXXXX+X+X",
"8.t.8.,.m.+XOXW.y > k.F.j.D s ;   o J K.+XXXXX+X+X",
"w.u.t.t.n.+X+X/.6 v D.z.T s s 4 @ . { U.+X+X+X+X+X",
"p. X+XE.s.XXXXb.7 6.~.D.l.U H J 5 * e.V. X|.OX+X+X",
"a.OX+X XK.].A.H g.W.Y.I.v.| P J K l i T.[.[.[.OX+X",
"y.}.XXU.M c h v v  .b.S.x.2.) U L 5 3 a ) E.OX|.oX",
"d.P.S.E h u x p p w h z M x g p e 4 & 3 2 = I.OX}.",
"|.R.b n { M r 0 x w u 0 w , , e , 2 * % q g m `.(."
};
