/* XPM */
static const char *micro_tedcarpi[] = {
/* columns rows colors chars-per-pixel */
"25 19 191 2 ",
"   c #110D0C",
".  c #121013",
"X  c #1D1815",
"o  c #1D1B1E",
"O  c #080609",
"+  c #221D1B",
"@  c #1E231D",
"#  c #22211C",
"$  c #1E2422",
"%  c #232324",
"&  c #282723",
"*  c #26262A",
"=  c #242A28",
"-  c #2D2C2B",
";  c #2A2925",
":  c #322F2A",
">  c #33312F",
",  c #39342E",
"<  c #343433",
"1  c #3D3A35",
"2  c #3C3B39",
"3  c #3B3736",
"4  c #403C39",
"5  c #443B34",
"6  c #3D423E",
"7  c #4A4036",
"8  c #44423E",
"9  c #4C433D",
"0  c #46483D",
"q  c #53463B",
"w  c #3E484A",
"e  c #454444",
"r  c #4B4544",
"t  c #4E4A46",
"y  c #4D4C4A",
"u  c #454A44",
"i  c #534A43",
"p  c #5A4E45",
"a  c #554F49",
"s  c #594F4D",
"d  c #4D544E",
"f  c #55514D",
"g  c #5C544D",
"h  c #454F50",
"j  c #4F4E54",
"k  c #535353",
"l  c #5D5554",
"z  c #5B5A56",
"x  c #595758",
"c  c #575E5C",
"v  c #5D5B59",
"b  c #625147",
"n  c #61564B",
"m  c #645A4E",
"M  c #6C5F4F",
"N  c #765C43",
"B  c #615350",
"V  c #655B52",
"C  c #6A5D54",
"Z  c #635C5E",
"A  c #6D6254",
"S  c #6C635B",
"D  c #726457",
"F  c #72655A",
"G  c #756A5E",
"H  c #7C6D5D",
"J  c #656462",
"K  c #696463",
"L  c #6D6A63",
"P  c #6C6D6A",
"I  c #636864",
"U  c #776C63",
"Y  c #7D6E61",
"T  c #726F6A",
"R  c #767267",
"E  c #7B7364",
"W  c #7E756C",
"Q  c #7F7B7C",
"!  c #806C51",
"~  c #86745F",
"^  c #8A725A",
"/  c #827263",
"(  c #8B7A67",
")  c #82776B",
"_  c #937C67",
"`  c #807675",
"'  c #827B74",
"]  c #817E79",
"[  c #8C7F77",
"{  c #977F75",
"}  c #99896F",
"|  c #9D856B",
" . c #8C8375",
".. c #85827A",
"X. c #8D847B",
"o. c #928375",
"O. c #9A8771",
"+. c #938B7A",
"@. c #9D8B7B",
"#. c #94867D",
"$. c #A08679",
"%. c #A8987E",
"&. c #B49078",
"*. c #BEA07E",
"=. c #858180",
"-. c #8A8684",
";. c #8F8B88",
":. c #8E8B84",
">. c #938D82",
",. c #928E8B",
"<. c #9D8D80",
"1. c #9E9283",
"2. c #938F90",
"3. c #979390",
"4. c #9E9590",
"5. c #A28E82",
"6. c #A0978E",
"7. c #A4998D",
"8. c #A39A91",
"9. c #B6A68F",
"0. c #AAA39D",
"q. c #B0A091",
"w. c #B0A79E",
"e. c #BAAC9C",
"r. c #B9AB96",
"t. c #A3A2A3",
"y. c #ADA6A0",
"u. c #AAAFA8",
"i. c #B0AFAB",
"p. c #BBAEA8",
"a. c #B3AAA1",
"s. c #B8B5AE",
"d. c #BEB8AB",
"f. c #B6B3A4",
"g. c #BABBB3",
"h. c #B2B2B0",
"j. c #C29D8A",
"k. c #C4A68C",
"l. c #C3B39A",
"z. c #D9BB9F",
"x. c #C5AFA1",
"c. c #C2B4A7",
"v. c #C3BDB4",
"b. c #C3BEBB",
"n. c #CDC9AE",
"m. c #D1C5AD",
"M. c #C6C1BE",
"N. c #CFC8BE",
"B. c #CAC5B7",
"V. c #D2C3BE",
"C. c #D7CDBB",
"Z. c #DFD3BB",
"A. c #BFBFC1",
"S. c #C8C7CD",
"D. c #CCCCCC",
"F. c #C6C5C3",
"G. c #D3CBC5",
"H. c #D0CBC8",
"J. c #D5D3C5",
"K. c #DBD3C6",
"L. c #D2D3CA",
"P. c #DCD3CA",
"I. c #DCD8CF",
"U. c #CECCD1",
"Y. c #D6D8D7",
"T. c #DAD9D5",
"R. c #DCDBDC",
"E. c #D6D3D5",
"W. c #E0D9C7",
"Q. c #E0D7C8",
"!. c #E5DBCD",
"~. c #E5DDD4",
"^. c #EDDFDC",
"/. c #E6E2D7",
"(. c #E5E2DA",
"). c #EDE6DA",
"_. c #E5E7E4",
"`. c #EEECE3",
"'. c #ECEDEC",
"]. c #EBE7E4",
"[. c #F2EBE5",
"{. c #F0EDE8",
"}. c #F7F0E0",
"|. c #F4F2EB",
" X c #FBF3EE",
".X c #FAFBEE",
"XX c #EEF2F1",
"oX c #F7F7F5",
"OX c #FDFCF4",
"+X c #FEFFFF",
"@X c #FCFDFA",
/* pixels */
"S V n F ) W , + # # @ $ = % & , > - - - - - - - : ",
"i 7 q n g C f t r e r r 8 r r y f t f t r y l f v ",
"w.[ ) G C g V i a g p p i g s r i g i 9 a a i a C ",
"( @.o.C V n m A m A M A A A A F F F C F F A C F A ",
"~ ~ H / <.c.+.H / H E U U E H H G / Y Y H Y / H H ",
"( @.( Y 1.!.C.H F U C i 5 9 U F G A A D G D C D Y ",
"q.o.F  . .G V C ' S F e.5.q V y.6.8.0.>.W w.a.X.V ",
"OX7.!.).B./.t L [.7._ z.z.O.E OX[.@XOX(.s.OX@X X1.",
"|.9.OX@X_.B.C +.W.I.O.5.@.! 4.Q.T. X[.~.F.+X@XOXC.",
"{.e.|.+X+XJ.B S `.[.k.j.&.*.p.P.L. X).P.i.'.oXOXK.",
"OXe.OX@X+X.Xl L @X+Xx.{ $.^  XK.T.).~.B.;.Y.'.`.n.",
".Xd.|.@X@XOX` ..+X+XV.U b H OXN.T.~.G.v.,.D.'.T.f.",
"!.1.|.}. XOX' R XXt.5._ N | >.:.D.].H.M.2.R.E.E.0.",
"Z.1.J.m.^.L.,.S P u n A A M 0 y P ,.-.Q Z t.U.S.-.",
"l.7.v.r.V.g.] z J c j w h y d x y y e # + 2 R.A.K ",
"%.#.d.} [ u.2 v J I Z v v v c k d 6 y 2 # t g.h...",
"V n [.f T P > e x J J x x x k k e - 3 1 O 3 (.b.=.",
"5 1 L 4 ; < < * e k k k k k y e < * < 2 . 2 I.H.3.",
"1 X   2 2 2 3 % - < 2 e t e 3 - - % < 8 o % ' K K "
};
