/* XPM */
static const char *micro_mnie[] = {
/* columns rows colors chars-per-pixel */
"25 19 211 2 ",
"   c #3E372F",
".  c #363B34",
"X  c #483C36",
"o  c #4B5030",
"O  c #514D32",
"+  c #6F4E3F",
"@  c #65503B",
"#  c #616835",
"$  c #373D42",
"%  c #3C4B47",
"&  c #3B5856",
"*  c #5A4A43",
"=  c #45544F",
"-  c #59554E",
";  c #4A5859",
":  c #545D55",
">  c #5B5B54",
",  c #515C5D",
"<  c #585F58",
"1  c #494A44",
"2  c #645647",
"3  c #745747",
"4  c #655D52",
"5  c #7E5E53",
"6  c #5E6549",
"7  c #57635E",
"8  c #5D615D",
"9  c #79714D",
"0  c #6C645A",
"q  c #65665A",
"w  c #77675D",
"e  c #757A5F",
"r  c #767657",
"t  c #5E5D61",
"y  c #565A65",
"u  c #4D6267",
"i  c #4D636E",
"p  c #586766",
"a  c #5D726D",
"s  c #626666",
"d  c #656A66",
"f  c #626C69",
"g  c #6B6966",
"h  c #756865",
"j  c #66726D",
"k  c #747164",
"l  c #7C746D",
"z  c #797164",
"x  c #6C6B70",
"c  c #6A7876",
"v  c #747C76",
"b  c #777877",
"n  c #8B5E5B",
"m  c #8D6C5E",
"M  c #866C5A",
"N  c #936458",
"B  c #88715F",
"V  c #9A6E68",
"C  c #867465",
"Z  c #8B7C69",
"A  c #9D7F6C",
"S  c #987766",
"D  c #9E7C70",
"F  c #A37C6D",
"G  c #A87874",
"H  c #7E866F",
"J  c #76857D",
"K  c #7C847D",
"L  c #89865D",
"P  c #B5885E",
"I  c #868465",
"U  c #939168",
"Y  c #868B74",
"T  c #82837D",
"R  c #8D8E7D",
"E  c #848077",
"W  c #949277",
"Q  c #A68576",
"!  c #AA887B",
"~  c #B68C78",
"^  c #A1967A",
"/  c #B99178",
"(  c #9DA17E",
")  c #C89C7F",
"_  c #657C81",
"`  c #797282",
"'  c #6F8383",
"]  c #6D848C",
"[  c #768585",
"{  c #7C8C8C",
"}  c #778885",
"|  c #6F8593",
" . c #749192",
".. c #7A9294",
"X. c #79979F",
"o. c #749AA7",
"O. c #8A8B83",
"+. c #848A8A",
"@. c #969586",
"#. c #8E8F91",
"$. c #8B9193",
"%. c #8C999B",
"&. c #859899",
"*. c #959896",
"=. c #B48C82",
"-. c #BB8B83",
";. c #AD9E87",
":. c #BF9E8F",
">. c #A69E94",
",. c #BD9D92",
"<. c #A78883",
"1. c #95A19E",
"2. c #9AA89E",
"3. c #ABA68B",
"4. c #ADAB92",
"5. c #A7A49B",
"6. c #B2AB93",
"7. c #B1A686",
"8. c #899FA4",
"9. c #979AA4",
"0. c #89A1AA",
"q. c #99A3A2",
"w. c #9CAAAC",
"e. c #96A5A8",
"r. c #89A9B0",
"t. c #97B3BA",
"y. c #92A8B5",
"u. c #ACABA0",
"i. c #A3A9AB",
"p. c #ACB6A6",
"a. c #B9B9A9",
"s. c #A9AEB5",
"d. c #A1ACB0",
"f. c #A3B5B9",
"g. c #B5BCB9",
"h. c #BAAAAA",
"j. c #C49B83",
"k. c #C89B88",
"l. c #C79B90",
"z. c #C4A28B",
"x. c #CDA38B",
"c. c #CBA89D",
"v. c #D2AB94",
"b. c #D2AD9D",
"n. c #D9A894",
"m. c #CBBE9E",
"M. c #D8B19C",
"N. c #CAAEA0",
"B. c #C8BAAC",
"V. c #DDB5A3",
"C. c #DBBAA5",
"Z. c #D9BCAE",
"A. c #D3B5A4",
"S. c #E3B9A9",
"D. c #B8C7B0",
"F. c #DECFA6",
"G. c #CDC7B7",
"H. c #DBC7B9",
"J. c #D9D0B3",
"K. c #C4C2A9",
"L. c #E4C1AB",
"P. c #E3C3B6",
"I. c #E9CFB8",
"U. c #E8D9BD",
"Y. c #ACBEC6",
"T. c #B6BCC7",
"R. c #AAC3CF",
"E. c #B8C7C9",
"W. c #BFCFD6",
"Q. c #B6C8D8",
"!. c #B9D2DB",
"~. c #A7C4D2",
"^. c #BDDAE6",
"/. c #BDDEED",
"(. c #B8D6E3",
"). c #BFDFF2",
"_. c #C5C6C3",
"`. c #DDCFC4",
"'. c #C1D3C5",
"]. c #DBD2C1",
"[. c #C2D3D7",
"{. c #E0CFC8",
"}. c #E3DCCB",
"|. c #E4D5C6",
" X c #EADCD1",
".X c #D8E8DE",
"XX c #EFE8CE",
"oX c #EEE0D7",
"OX c #F7EDD3",
"+X c #CADBE5",
"@X c #C3DEEC",
"#X c #C5DBE6",
"$X c #D0DDE5",
"%X c #C5DFF0",
"&X c #C8E4E7",
"*X c #C5E1ED",
"=X c #CCE3EC",
"-X c #D3E5EB",
";X c #D9E6EC",
":X c #C4E3F3",
">X c #CCE6F3",
",X c #CAEAFC",
"<X c #CAE9F7",
"1X c #D2EBF2",
"2X c #CCF2FF",
"3X c #DDF1F2",
"4X c #F9F8EB",
"5X c #E0ECF4",
"6X c #E6F0F9",
"7X c #FFFAF3",
"8X c #E3E5E2",
/* pixels */
"D.p.2.J K 2.T K j .. .} ' u p j p [ O.q : a  .X._ ",
"'.2.%.} j v O.k ; 7 = ; ' 7 : % % c b s j [ ' 8.| ",
"(.*X(.~.R.t.f.f.&.} { ] &.w.q.} ' e.d.w.g.E.[.+X#X",
"^./.:X<X*X>X=X=X@X).:X&X&X^.^.+X=X*X>X=X3X-X5X6X*X",
"*X(.^.*X@X:X/.*X).,X!.%.1.[.,X<X:X:X/.@X1X-X;X5X%X",
"8.E.!.R.!.(././.2Xf.X * * l E.<X>X*X:X*X-X-X5X$XQ.",
"- g O.K d v %.+.{   3 c.S.,.* q.%.w.w.} } *.i.f < ",
"E l k b T b x #.w X ! ~ l.<.* 2 O.O.d 8 > > 1 . - ",
"K.}.6.4._.T.` B.h.w 5 V =.+ O g m.%...p.@.#.g.> 4 ",
"7.W r U I $.9.4X].Q l.=.! -.S 5.7XW.%.u.R e ( 3.6.",
"2 o Y ^ 9 q.Q.8XXX! N V n N m }.7X;Xs.>.q o # L r ",
"k e I Z R *.d.u.a.;.S -.G m C G.G.Y.e.5.R 6 6 4.W ",
"t t > g h >.G.9.x 0 ! =.D B 2 0 ;.Y.0.8 8 s 8 K v ",
"> $ : H 3.F.OXE.y h ! 3 @ M C 4 B.+X^.1.v ; $ , 7 ",
": , v Y @.@.a.i.*.c.k.S M A A.B.J.W.y.$.+.{ , ; , ",
"} K 5.z p r.E.|.|.C.) ~ F Q :.P.U..X[.i., c J +.+.",
"r.f P @.5.oXoXU.L.v.j./ ~ ~ z.C.`.J.I. X*.& u t.&.",
"%.c A B.P.C.Z.C.V.v.x.j.j.j.z.M.Z.A.b.N.{._ i e.8.",
"s.Y._.H.n.v.S.S.M.v.x.j.j.x.x.v.C.V.n.z.b.f.o.$.t."
};
