/* XPM */
static const char *micro_cparras[] = {
/* columns rows colors chars-per-pixel */
"25 19 182 2 ",
"   c #18100D",
".  c #13130B",
"X  c #1E1B17",
"o  c #1F1E19",
"O  c #1E1613",
"+  c #280D00",
"@  c #2E180B",
"#  c #21140E",
"$  c #231D19",
"%  c #231A13",
"&  c #1F201A",
"*  c #33200F",
"=  c #26211C",
"-  c #2F261F",
";  c #28281E",
":  c #372717",
">  c #38251F",
",  c #35271C",
"<  c #262422",
"1  c #2B2622",
"2  c #2D2926",
"3  c #2E2B29",
"4  c #342B23",
"5  c #332E2B",
"6  c #382B23",
"7  c #2F302B",
"8  c #313127",
"9  c #35322E",
"0  c #3F382E",
"q  c #302E31",
"w  c #2F3130",
"e  c #2D3238",
"r  c #373531",
"t  c #3A3533",
"y  c #373935",
"u  c #3F393B",
"i  c #3D3936",
"p  c #4C2A14",
"a  c #5B331C",
"s  c #5D3B1F",
"d  c #45382F",
"f  c #42302C",
"g  c #5E3C20",
"h  c #443D34",
"j  c #433C3A",
"k  c #453A3C",
"l  c #503E30",
"z  c #623224",
"x  c #79431F",
"c  c #4E473D",
"v  c #6A4D2F",
"b  c #3E3E40",
"n  c #484441",
"m  c #4B4748",
"M  c #564F47",
"N  c #5F4D43",
"B  c #5C554F",
"V  c #5D5B59",
"C  c #5B5853",
"Z  c #6B5B4E",
"A  c #625447",
"S  c #7D5942",
"D  c #635E54",
"F  c #6D5C55",
"G  c #7F6449",
"H  c #79675D",
"J  c #7C6B5D",
"K  c #7A6F64",
"L  c #706C69",
"P  c #756A64",
"I  c #777066",
"U  c #75746C",
"Y  c #7C746A",
"T  c #7E7970",
"R  c #767571",
"E  c #69696B",
"W  c #8E603F",
"Q  c #895F4F",
"!  c #9C6C46",
"~  c #95714F",
"^  c #8B6050",
"/  c #896A58",
"(  c #92735F",
")  c #A66D4F",
"_  c #A87353",
"`  c #B47854",
"'  c #81756A",
"]  c #827A6E",
"[  c #887B6B",
"{  c #857D74",
"}  c #A47762",
"|  c #868073",
" . c #8B8075",
".. c #85817A",
"X. c #8B847B",
"o. c #908478",
"O. c #948A7F",
"+. c #958174",
"@. c #B08167",
"#. c #AD877D",
"$. c #B38B73",
"%. c #AC947C",
"&. c #878882",
"*. c #8D8988",
"=. c #948C84",
"-. c #998C83",
";. c #969084",
":. c #9B958D",
">. c #999493",
",. c #A18F81",
"<. c #A98F82",
"1. c #A4928C",
"2. c #A6978A",
"3. c #B39683",
"4. c #BF9A8A",
"5. c #A19A90",
"6. c #AC9C91",
"7. c #A59D9A",
"8. c #A5A39D",
"9. c #ABA29A",
"0. c #ACA89F",
"q. c #A6A296",
"w. c #B4A496",
"e. c #B4A69A",
"r. c #ABA6A3",
"t. c #ABABAC",
"y. c #A5A8AC",
"u. c #B2ABA1",
"i. c #B1ADAE",
"p. c #BBB3AA",
"a. c #B0AFB5",
"s. c #B6B4B7",
"d. c #B9B7B3",
"f. c #B8BAB9",
"g. c #C49A81",
"h. c #C3A195",
"j. c #C3B6AC",
"k. c #CBB5A8",
"l. c #C3BBB4",
"z. c #C0BEBD",
"x. c #BFC0BB",
"c. c #CCC5BD",
"v. c #CCC8BF",
"b. c #C6C1BD",
"n. c #EEC8BD",
"m. c #E1C4B4",
"M. c #F5C1B3",
"N. c #BEC3C6",
"B. c #C8C5C0",
"V. c #C7C8C3",
"C. c #C2C6C9",
"Z. c #C3CBCD",
"A. c #CCCDCC",
"S. c #DACCC9",
"D. c #D1CDCC",
"F. c #CACFD2",
"G. c #CFD3D4",
"H. c #D4D5D3",
"J. c #DBD9D4",
"K. c #D8D7DD",
"L. c #DCDCDB",
"P. c #FFDFCC",
"I. c #E8DFD8",
"U. c #E1D8D5",
"Y. c #E4E2DE",
"T. c #E9E4DE",
"R. c #D9DCE1",
"E. c #E4E4E4",
"W. c #E8E7E5",
"Q. c #E7E9E6",
"!. c #EEEDEB",
"~. c #E1E7EA",
"^. c #F2E7E1",
"/. c #EDF2EE",
"(. c #F3F0EC",
"). c #FFFAEE",
"_. c #ECF1F5",
"`. c #F5F5F3",
"'. c #FAF9F6",
"]. c #F6F9FA",
"[. c #FEFEFC",
"{. c #F9F5F2",
/* pixels */
"e.6.j.l.7.=.X.| ] H Z M w C u.j.p.D 0 c h 9 9 7 2 ",
"Y Y Y K Y U I Y Y ] { U V U X.8.p.:.X.{ =.9.5.9.;.",
"i.r.O.] | Y Y P E Y H N Z w.^.[.'.c.=.5.O. .o.O.] ",
"s.t.l.0...T { Y Y K d $ O , +.w.{ ] Y Y Y ]  .O...",
"[.r.*.z.z.>.T ' [ A 6 # @ p + Z X.' X.=.v.T.{.[.E.",
"[.J.W.y.a.K.8.X.-.F 1.4.) ` a V =.9.T.B.[.'.[.[./.",
"[.U.'.[.t.f.E.8.O.J k.m.g.W s J b.[.'.J.'.[.[.[.'.",
"[.Y.{.[.].y.R.K.>.<.$.} Q p S $.[.[.[.J.[.[.[.[.'.",
"[.L.'.[.[.H.N.].u.2.n.M.@.x _ J.[.'.[.J.'.[.[.[.].",
"[.E.{.[.[.`.C.[.Z.-.w.3.^ a ~ ).[.[.'.J.'.'.[.[.`.",
"[.E.`.[.[.[.G.[.J.1.=.6.#.z / [.].].[.H.'.[.[.[.'.",
"[.D.!.[.[.[.K.[./.q.e.#.l * ( [.[.[.[.J.'.[.[.[.{.",
"[.L.!.[.[.[.E.[.H.D J P.%.v ! G :.c.(.J.'.[.[.[.].",
"[.L.`.[.'.[.d.R k k b ' h.S g : % 4 h X.[.[.[.[.`.",
"[.A.(.'.'.z.n t y j y 8 q e ; 3 5 4 - 1 r.[.d.X.Z.",
"[.A.Q.'.!.L t j h t u f r 3 > 3 2 2 5 = B '.X.Y ~.",
"[.V.U.[.~.m y r i t r t 5 1 1 3 1 $ 2 $ j I.,.3.L.",
"_.x.S.[.C.t 2 5 t 9 5 5 3 1 1 2 2 X o $ 1 c. .+.A.",
"~.d.S.[.y.< < 3 t 9 5 3 2 2 1 2 = & .   X &.8.-.F."
};
