/* XPM */
static const char *micro_mguille[] = {
/* columns rows colors chars-per-pixel */
"25 19 204 2 ",
"   c #020201",
".  c #0A0403",
"X  c #0C0905",
"o  c #0D0C09",
"O  c #08060A",
"+  c #0D110C",
"@  c #18120C",
"#  c #0E0E10",
"$  c #140E11",
"%  c #1A1512",
"&  c #181918",
"*  c #271B0C",
"=  c #241C1A",
"-  c #251C15",
";  c #1B201C",
":  c #27231C",
">  c #332516",
",  c #252121",
"<  c #292421",
"1  c #2A2B26",
"2  c #362C21",
"3  c #322B2A",
"4  c #3D2D25",
"5  c #3A332B",
"6  c #3B3633",
"7  c #373332",
"8  c #472D1C",
"9  c #4A341F",
"0  c #613818",
"q  c #6A3C1B",
"w  c #472F2B",
"e  c #4A392B",
"r  c #553924",
"t  c #443B30",
"y  c #563734",
"u  c #643E27",
"i  c #6C3B3F",
"p  c #4E4238",
"a  c #52463C",
"s  c #5C4F3F",
"d  c #744725",
"f  c #7C4F3D",
"g  c #7B4E31",
"h  c #6F4C31",
"j  c #3F4042",
"k  c #474642",
"l  c #544D45",
"z  c #594B41",
"x  c #5C5044",
"c  c #5C5B56",
"v  c #6C5A4C",
"b  c #645244",
"n  c #78564A",
"m  c #645952",
"M  c #6C5F53",
"N  c #605752",
"B  c #725951",
"V  c #6E6155",
"C  c #67655C",
"Z  c #746256",
"A  c #74655C",
"S  c #7C6A5C",
"D  c #77675A",
"F  c #5C6165",
"G  c #67696B",
"H  c #766C64",
"J  c #7C6E64",
"K  c #7B7166",
"L  c #7E736A",
"P  c #6E7675",
"I  c #757A7C",
"U  c #7A7977",
"Y  c #80411E",
"T  c #844E2C",
"R  c #8A4F3B",
"E  c #9A6233",
"W  c #9D6145",
"Q  c #816D5E",
"!  c #86665A",
"~  c #A46F4F",
"^  c #B17C5D",
"/  c #AC6E52",
"(  c #837164",
")  c #897564",
"_  c #8C7B67",
"`  c #82756A",
"'  c #86796A",
"]  c #8A7B6C",
"[  c #937B68",
"{  c #957669",
"}  c #877C72",
"|  c #8F7F70",
" . c #8D7F7C",
".. c #907770",
"X. c #937F70",
"o. c #997F72",
"O. c #886A6A",
"+. c #B87A61",
"@. c #B77F72",
"#. c #96816E",
"$. c #898378",
"%. c #9A8374",
"&. c #91837C",
"*. c #9B8F7F",
"=. c #A68C79",
"-. c #B28475",
";. c #A5907D",
":. c #C4805D",
">. c #C88B6E",
",. c #C48C7B",
"<. c #7C8389",
"1. c #8D8C82",
"2. c #888786",
"3. c #998B85",
"4. c #8E908F",
"5. c #9F978E",
"6. c #98998E",
"7. c #868D93",
"8. c #8C9393",
"9. c #9B9595",
"0. c #A28A86",
"q. c #B88F8D",
"w. c #A79688",
"e. c #B1948E",
"r. c #A89790",
"t. c #A49C92",
"y. c #BA9C94",
"u. c #A3A49B",
"i. c #A8A396",
"p. c #B2A295",
"a. c #B2A199",
"s. c #B8B19F",
"d. c #9DA1A0",
"f. c #9CA6B0",
"g. c #A2A5A3",
"h. c #A4ACAF",
"j. c #B3ACA5",
"k. c #ACB1BA",
"l. c #A7B0B9",
"z. c #B2B5B4",
"x. c #B8B7BF",
"c. c #BEBCBD",
"v. c #B7B4A5",
"b. c #C38F82",
"n. c #C89887",
"m. c #C89D94",
"M. c #C4A699",
"N. c #D3A599",
"B. c #CAB49C",
"V. c #D2BB9B",
"C. c #E8B49E",
"Z. c #E4A593",
"A. c #C0B3AA",
"S. c #D9B7A3",
"D. c #C1B8B1",
"F. c #E0B6AA",
"G. c #E2BBB7",
"H. c #CBC1B2",
"J. c #CDC9B9",
"K. c #C2C1B7",
"L. c #D8CDB1",
"P. c #E3C3B4",
"I. c #EAD1BB",
"U. c #F5C4B6",
"Y. c #ACB3C0",
"T. c #A8B8C5",
"R. c #B7BEC1",
"E. c #B9C1C4",
"W. c #BECEDB",
"Q. c #CBCACF",
"!. c #CAD3D7",
"~. c #D3D6D9",
"^. c #D7D9DB",
"/. c #DBDDDB",
"(. c #DBDCD6",
"). c #D8D5C4",
"_. c #F5CFC4",
"`. c #E0D6CB",
"'. c #EFD2C0",
"]. c #F4D8C7",
"[. c #F8E7CC",
"{. c #E2E1D6",
"}. c #E8E4DE",
"|. c #F9E4DA",
" X c #FFF2D5",
".X c #CBD2E2",
"XX c #D7DFE1",
"oX c #D8E4F0",
"OX c #DFF2FF",
"+X c #D8E3E7",
"@X c #E4E5E2",
"#X c #ECEBE8",
"$X c #F7EAE1",
"%X c #EEF1E8",
"&X c #FEFCEF",
"*X c #F6F4E5",
"=X c #E1EFF5",
"-X c #EDEEF0",
";X c #E7F5FD",
":X c #F3F4F4",
">X c #F9F6F3",
",X c #FDFCF5",
"<X c #F7FBFC",
"1X c #FDFDFD",
/* pixels */
"$Xp.v e e 2 : < , ; 1 *.B.a.g.l : 5 5 3 = : 6 1 < ",
"} ` ' | ] ` A l 2 6  .r.9.2.m p a z z a a a t t 5 ",
"M V V Z S ( ( Z x z ! [ &.3.w.' &.` J K A H L N c ",
"Z A M M M v v b N 5.u.c H (.,Xp.&.3.&.` K L L H J ",
"S D A A Z A A x j.#X3 = 8 r s B Q Q S S D S ( v V ",
"S Z Z Z Z H A m H 4 n C.>.:.T * Q ( $.r.H.`.|.A.6.",
"} ( ( Q Q S A L p w G.m.m.+.^ 9 } j.,X1X1X1X<X/.s.",
"5.} ] ) ) _ ) ' = Z P.! n.g f r H.J.1X<X<X1X1X/.i.",
"Y.d.] [ _ X...` y { '.,.Z.R W d D.J.1X1X1X1X1X}.v.",
"k.R.t.%.#.%.%.v i N._.F.@.R / ~ }.K.1X,X,X<X1X/.t.",
"8.!.x.0.=.;.%._ O.{ _.N.~ Y E S.>Xu.1X,X&X1X1X^.1.",
"P W..Xr.=.w.*.w.1.2 M.U.b.T d c.:X6.1X>X,X>X1X~.4.",
"2.T.oX`.V.L.}.D.*   =.q.B q 0 O I $.:X>X{.@X1X~.I ",
"g.Y.=X&X[. X*X, .   e.G.n d u   j $.<X<X{.1X1X~.P ",
"z.k.=X%XI.].*XC O   ..|.-.d >   9.u.<X-X%X:X1X!.<.",
"x.k.;X@XM.S.[.).:   > M.-.f % X 7 C Q.-X/.^.<X^.G ",
"K.l.;X~.a.3.l = & & * f b.X.@ O .   & U @X#X<X!.7.",
"z.l.;XXX&.-   X $ & @ y y.> X X . o o   k @X1Xh.E.",
"g.f.OX+X6   & # % + + $ 3 . + X o X o %   G 2.F 8."
};
