/* XPM */
static const char *micro_aathmane[] = {
/* columns rows colors chars-per-pixel */
"25 19 195 2 ",
"   c #030400",
".  c #1F110E",
"X  c #290F00",
"o  c #28180A",
"O  c #271E19",
"+  c #39230E",
"@  c #2B241E",
"#  c #3D311B",
"$  c #2D292A",
"%  c #3C2D24",
"&  c #342C25",
"*  c #2C312D",
"=  c #3B3C3B",
"-  c #3B373C",
";  c #4E261A",
":  c #453528",
">  c #58382A",
",  c #453B34",
"<  c #4A3A32",
"1  c #543E31",
"2  c #783F2B",
"3  c #464030",
"4  c #4A433D",
"5  c #52443B",
"6  c #674533",
"7  c #454245",
"8  c #4B4443",
"9  c #4A4847",
"0  c #464549",
"q  c #49474A",
"w  c #4C494A",
"e  c #474C48",
"r  c #554B47",
"t  c #5E524B",
"y  c #5B584F",
"u  c #53565B",
"i  c #464A56",
"p  c #6E4E43",
"a  c #724B46",
"s  c #69564D",
"d  c #7F5847",
"f  c #755C4F",
"g  c #605856",
"h  c #725750",
"j  c #78665A",
"k  c #75666D",
"l  c #7E736D",
"z  c #767B77",
"x  c #824B2D",
"c  c #904226",
"v  c #835636",
"b  c #AC603C",
"n  c #885D4D",
"m  c #87675C",
"M  c #9D7458",
"N  c #97675D",
"B  c #A1684B",
"V  c #A86A54",
"C  c #BC6552",
"Z  c #A6785E",
"A  c #BB735B",
"S  c #9E6462",
"D  c #8D7E6E",
"F  c #83796A",
"G  c #97796C",
"H  c #857A73",
"J  c #8F7E74",
"K  c #937C74",
"L  c #957B7A",
"P  c #CA7852",
"I  c #97846E",
"U  c #948273",
"Y  c #9C8974",
"T  c #91817A",
"R  c #9D867A",
"E  c #9C8A7B",
"W  c #948878",
"Q  c #A08B74",
"!  c #A38379",
"~  c #A48C7C",
"^  c #A4927A",
"/  c #AB937B",
"(  c #C38860",
")  c #787B80",
"_  c #7C8486",
"`  c #848C8E",
"'  c #948884",
"]  c #898E91",
"[  c #8E9495",
"{  c #949C9E",
"}  c #9F9F9D",
"|  c #9A9598",
" . c #A08780",
".. c #A48F83",
"X. c #AB8B84",
"o. c #A39483",
"O. c #AA9384",
"+. c #AB9A83",
"@. c #A2918A",
"#. c #AB9489",
"$. c #AD9B8C",
"%. c #A2988C",
"&. c #B29C8A",
"*. c #B39887",
"=. c #A99992",
"-. c #B49F92",
";. c #BF9F90",
":. c #B49590",
">. c #92A29F",
",. c #ABA29F",
"<. c #A4A59D",
"1. c #BBA594",
"2. c #BBA59C",
"3. c #B6AF9F",
"4. c #BCA99E",
"5. c #B3A393",
"6. c #999EA2",
"7. c #ACACA4",
"8. c #ABA5AB",
"9. c #A5AAAC",
"0. c #ACACAC",
"q. c #A5A6A5",
"w. c #B5ACA2",
"e. c #BBAAA2",
"r. c #B5A5A2",
"t. c #A8B1AC",
"y. c #B6B7AF",
"u. c #BDB2A0",
"i. c #ADAAB3",
"p. c #A6B1B5",
"a. c #BDBEBF",
"s. c #B4B2BD",
"d. c #D28782",
"f. c #CD9588",
"g. c #C09F96",
"h. c #C4AD9D",
"j. c #C7A595",
"k. c #E1A488",
"l. c #EB9CA1",
"z. c #C1AEA2",
"x. c #C9B5A8",
"c. c #CCBCB3",
"v. c #C6BDB8",
"b. c #D5B3B4",
"n. c #ECB3AB",
"m. c #BAC0BE",
"M. c #C2C2BA",
"N. c #D4C8BF",
"B. c #BCBCC1",
"V. c #BCC3C5",
"C. c #B5C2CB",
"Z. c #BAC2CA",
"A. c #C6C6C6",
"S. c #CECAC7",
"D. c #C2CBCB",
"F. c #CACBCB",
"G. c #D3CDC3",
"H. c #D1CECA",
"J. c #DCCFC9",
"K. c #D6D2C8",
"L. c #DED1C9",
"P. c #CACFD2",
"I. c #CBD3D3",
"U. c #C7D1D2",
"Y. c #D3D3D2",
"T. c #D9D6D3",
"R. c #D7DCD7",
"E. c #DDDAD6",
"W. c #D4DADC",
"Q. c #DDD9D8",
"!. c #FFCCC2",
"~. c #F3D1C7",
"^. c #E5DAD5",
"/. c #D3E0D9",
"(. c #EAE0D7",
"). c #FFE7DA",
"_. c #D7DCE1",
"`. c #DBE4E7",
"'. c #E4EAEC",
"]. c #EEEDED",
"[. c #E2E5E4",
"{. c #EEF1ED",
"}. c #F3F2ED",
"|. c #ECECF0",
" X c #E7ECF0",
".X c #F5EFF1",
"XX c #ECF2F6",
"oX c #EBF4FB",
"OX c #F3F3F2",
"+X c #FBF6F5",
"@X c #FDFCF6",
"#X c #F3F6FA",
"$X c #F3FCFD",
"%X c #FDFDFD",
"&X c #F8F7F8",
/* pixels */
"Y I K L K I I D T ^.J.3.+.O. .@...~ Q Y Y E J T E ",
"=.E ! R U U U K H W D E R E ^ Q E #.4.c.L.(.N.%.K.",
"B.r.#./ ^ o...~ ' E / &.#.5.~ 1.u.G.@X%X%X%X+Xv.%X",
"9.A.w.+.+.$.$.O.| O./ h t j N.%X^.K.+X%X$X$X}.7.@X",
"z V.F.w.&.*.-.o.=.o.&     X f &XE.H.%X%X%X%XOXq.].",
"7.6.`.A.-.;.1.$.2.s . r # v 2 f Q.S.@X@X@X@XOXa.%X",
"OX[ _._.e.j.1.5.,.4 X.n.f.V V + q.S.@X}.}.@X+X0.{.",
"%X0.D.|.v.2.h.4.#.3 X.S N 6 n 6 <.T.@X+X+X@X{.0.}.",
"%XA.V.$XS.4.h.e.2.:.b.f.k.x A P =.F.$X&X+X@X.Xi.#X",
"%XF.U.$XT.4.x.z.w.2.~.n.d.c b Z ,.t.%X[.R.@X{.{ W.",
"%XW.D.$XQ.e.h.x.w.#.j.!.l.C c #.U.m.%XOXOX%X'.>.'.",
"%XY.U.$XT.z.x.x.H.G.F G m > ; F.V.8.+X].#X$X|.D.oX",
"%Xa.D.$X^.x.h.c.#X%Xy.< o o m $XW.0.+X`.` { B.I.XX",
"OXA.V.$XH.e.x.w.8.k 4.).! B ( o.Q.Y.%X/.= = P.[.`.",
"%X9.V.oX= ' l 7 = 8 t ..g.M v : 5 H [.E.t H R.XX X",
"#X{ p.C.- g 8 0 e w i - @ * - < > : y @.a s M.].'.",
"oX} [ C.u w 7 0 q 0 q w w 8 4 , < , = 1 p d v.W.D.",
"oX} ` C.) - 0 q q 0 9 w w 8 4 , : % & < H j Y.B.] ",
"oX} _ Z.6.$ 7 w w 0 9 w 9 9 4 , < % O & I.Y.Z.s.9."
};
