/* XPM */
static const char *micro_fbelotti[] = {
/* columns rows colors chars-per-pixel */
"25 19 210 2 ",
"   c #39372A",
".  c #432C1C",
"X  c #573F2C",
"o  c #43352A",
"O  c #3E4438",
"+  c #4A4E2D",
"@  c #5E552E",
"#  c #51453A",
"$  c #4B5231",
"%  c #595433",
"&  c #6C432F",
"*  c #7B4C3C",
"=  c #635137",
"-  c #6D4539",
";  c #606C3C",
":  c #4D4A41",
">  c #504E4A",
",  c #524741",
"<  c #595749",
"1  c #4F5855",
"2  c #575A58",
"3  c #465248",
"4  c #694E43",
"5  c #714D41",
"6  c #615C4F",
"7  c #6B5747",
"8  c #795F44",
"9  c #635E5C",
"0  c #645D53",
"q  c #5E665B",
"w  c #6D6246",
"e  c #706841",
"r  c #6B6258",
"t  c #66665A",
"y  c #746A5B",
"u  c #747556",
"i  c #5A7772",
"p  c #646665",
"a  c #6D6C63",
"s  c #676A63",
"d  c #776B66",
"f  c #697264",
"g  c #6B746E",
"h  c #66736C",
"j  c #7E7566",
"k  c #7A736D",
"l  c #7B7C6B",
"z  c #72746B",
"x  c #677777",
"c  c #7A7B70",
"v  c #727876",
"b  c #895D50",
"n  c #8D6A55",
"m  c #89695B",
"M  c #926454",
"N  c #93675A",
"B  c #87775E",
"V  c #997255",
"C  c #B87B58",
"Z  c #867D68",
"A  c #957B6C",
"S  c #A96E60",
"D  c #A77B68",
"F  c #B17464",
"G  c #BC7F63",
"H  c #62827F",
"J  c #7A837A",
"K  c #83805D",
"L  c #8F8564",
"P  c #948766",
"I  c #868B7F",
"U  c #898678",
"Y  c #978879",
"T  c #99927C",
"R  c #B0866D",
"E  c #BF8A7A",
"W  c #A6937A",
"Q  c #A79F70",
"!  c #B5907E",
"~  c #D19167",
"^  c #C89A79",
"/  c #877E83",
"(  c #46839F",
")  c #768A8B",
"_  c #748080",
"`  c #6A8B90",
"'  c #6BB3C6",
"]  c #60B3D5",
"[  c #63C4EF",
"{  c #8D8D84",
"}  c #858B8B",
"|  c #888B83",
" . c #8F928B",
".. c #8B9B8E",
"X. c #96988C",
"o. c #939388",
"O. c #8B9B90",
"+. c #939796",
"@. c #949C99",
"#. c #9A9D9B",
"$. c #BC8B84",
"%. c #A49A84",
"&. c #A4998A",
"*. c #B49789",
"=. c #9FA08E",
"-. c #98A498",
";. c #A8A688",
":. c #A1A49A",
">. c #AAA498",
",. c #B7A493",
"<. c #B2B49F",
"1. c #8A9FA0",
"2. c #8FABAC",
"3. c #99AFA8",
"4. c #A1A5A2",
"5. c #AAACA4",
"6. c #A5ABA5",
"7. c #B9ADAB",
"8. c #B6ADA8",
"9. c #B7B4AE",
"0. c #BDB7AC",
"q. c #BEB2A2",
"w. c #AAB3B7",
"e. c #ADB9B9",
"r. c #ABB6B8",
"t. c #B1B3B4",
"y. c #B3BAB6",
"u. c #BBBCB1",
"i. c #B2BABD",
"p. c #BBBFBD",
"a. c #AAB4AC",
"s. c #CB8D80",
"d. c #CB9B8B",
"f. c #D29E8E",
"g. c #C99F91",
"h. c #CDA392",
"j. c #D4AB91",
"k. c #C4B097",
"l. c #C2A98B",
"z. c #CAACA1",
"x. c #C9B6A4",
"c. c #E6B9A6",
"v. c #BCC5BF",
"b. c #CAC3A7",
"n. c #D1CAA0",
"m. c #C9C6B6",
"M. c #C3C3BD",
"N. c #CBCCBE",
"B. c #D3CCBC",
"V. c #CCD0BF",
"C. c #EED7AE",
"Z. c #E7DCBD",
"A. c #FFE8BE",
"S. c #BFCBCC",
"D. c #BCC5C5",
"F. c #C3C4C4",
"G. c #C5C9C4",
"H. c #CBCFC2",
"J. c #C7CBCA",
"K. c #DCCCC3",
"L. c #D1CFC2",
"P. c #CCD1C3",
"I. c #CCD3CD",
"U. c #D6D1C1",
"Y. c #DCD4CB",
"T. c #DCDACB",
"R. c #D5D6C7",
"E. c #CCCBD0",
"W. c #CBD3D2",
"Q. c #C9D3DB",
"!. c #CDDBDA",
"~. c #D1D4D2",
"^. c #DCD5D3",
"/. c #D5D9D3",
"(. c #DCDAD5",
"). c #D3D9D9",
"_. c #DBDEDB",
"`. c #E0DACD",
"'. c #E1D3C9",
"]. c #E4DDD5",
"[. c #E4DFDA",
"{. c #E0D7D0",
"}. c #F1DDDF",
"|. c #DDE2DB",
" X c #DAE4DA",
".X c #E5E2D5",
"XX c #EDE2D3",
"oX c #E4E2DB",
"OX c #EAE2DD",
"+X c #E5ECDC",
"@X c #F4EED4",
"#X c #D1DCE0",
"$X c #DCE3E5",
"%X c #D9E6EB",
"&X c #DEE9ED",
"*X c #DBEAF2",
"=X c #E4E4E4",
"-X c #EBE9E3",
";X c #E3EDED",
":X c #E7E6E8",
">X c #F4EAE6",
",X c #EDF3EC",
"<X c #EEF0E2",
"1X c #F6F5E9",
"2X c #E2ECF4",
"3X c #E8ECF5",
"4X c #E6F3F3",
"5X c #EBF3FA",
"6X c #EBF6F3",
"7X c #F8FAF8",
/* pixels */
"M.H.u.5.4.| {  .i g g p J x f l f J { U X.6.#.6.r.",
"V.+X XW.W.W.~.P.v.y.t.w.e.e.y.p.v.D.W.G.G.W. X;X;X",
"R. XD.S.Q.Q._.oXoX=X&X4X6X6X%X2X2X2X2X5X2X;X%X%X%X",
"T.G.W.W.#XQ.W.<X1X=XD.a.c X.$X*X%X&X%X&X%X%X&X*X2X",
"6 | 5.I | #.M.m.N.9.  o X = { !.I.I.).S.F.J.).i.4.",
"0 , < u u 0 s j j # 4 b E c.4 y l X.J s t a a > : ",
"T q.&.L ;.8.9 &.Y . ! f.f.g.m 7 &.o.z I t y j   # ",
"n.Z.Y P %.7./ U.,.X n & D 5 m x.K.9. .5.>.Y b.;.Y ",
"% u u B % Y u.1X@XR G F $.F s.,X7X X@.Y e ; u Q ;.",
"= @ Z L L b.L.m.Z.j.M - n * M Z.XX/.p.7.B + $ K u ",
"< k d y r B x.#.Y y M S C D A W ,.5.} k d 6 < =.U ",
"2 p < j Z l.A.0.2 3 *.N Y n W 8.%.E.i.s 9 9 < z t ",
"f > w T W k.C.`.w._.g.V 8 M z.7X.X:XD.+.} 1 O 9 p ",
"h a T g y x G.3X6X].h.~ ~ d.}.>X,X5X2X4.q @.s t c ",
"O...y %.h 2.5X4XXXP..Xj.^ XXR.x.;X$X$X:Xq 1 v -.| ",
":.) < C ` ).>X[.OX_.>Xh.z.U.'.[.=X_.$X1X<.> 2 3.J ",
":. .+.4.F.-X].].oX].Y.U.B.{.oXOX^._.|.-Xx.H i %.1.",
"H./.~.F.(.-X].{.[.].`.`.Y..X.X(.Y.^.=X:Xv.' ' x 2.",
"u./.F.t.[.>X].Y.[.OXY.`.T.].oX^.K.Y.=X5X!.] [ ( ) "
};
