/* XPM */
static const char *micro_slecoq[] = {
/* columns rows colors chars-per-pixel */
"25 19 189 2 ",
"   c #0C0201",
".  c #180100",
"X  c #1B0D04",
"o  c #160C08",
"O  c #1C120C",
"+  c #230801",
"@  c #23140C",
"#  c #26180F",
"$  c #221711",
"%  c #241A14",
"&  c #2B1D14",
"*  c #281F18",
"=  c #2D2116",
"-  c #2C221C",
";  c #35251B",
":  c #3F201D",
">  c #312622",
",  c #382C22",
"<  c #373028",
"1  c #3D3227",
"2  c #411A15",
"3  c #48280F",
"4  c #5D250A",
"5  c #452918",
"6  c #552C1A",
"7  c #68340D",
"8  c #72320C",
"9  c #6A3A10",
"0  c #723111",
"q  c #4D2B29",
"w  c #4A3C36",
"e  c #5E3C32",
"r  c #693F31",
"t  c #754C1E",
"y  c #4D443B",
"u  c #4E4037",
"i  c #52493F",
"p  c #5D4837",
"a  c #614B34",
"s  c #7A4C35",
"d  c #334053",
"f  c #4D4E48",
"g  c #534B43",
"h  c #594E49",
"j  c #5C524A",
"k  c #54534F",
"l  c #5F575A",
"z  c #695C4C",
"x  c #7B5B4A",
"c  c #645B56",
"v  c #695A52",
"b  c #7A5F56",
"n  c #725F59",
"m  c #6C6155",
"M  c #6C635C",
"N  c #66625F",
"B  c #73655D",
"V  c #7C6B5D",
"C  c #5D6E76",
"Z  c #656C67",
"A  c #766A63",
"S  c #7B6D63",
"D  c #786760",
"F  c #6A7066",
"G  c #7C736C",
"H  c #736D71",
"J  c #6D7476",
"K  c #777474",
"L  c #74797A",
"P  c #88471A",
"I  c #A25217",
"U  c #8C572F",
"Y  c #96512A",
"T  c #94592F",
"R  c #8A5838",
"E  c #9D5B38",
"W  c #844A24",
"Q  c #A25A2A",
"!  c #996033",
"~  c #B16534",
"^  c #C17031",
"/  c #995542",
"(  c #94674C",
")  c #806E5E",
"_  c #80655A",
"`  c #916353",
"'  c #8A715D",
"]  c #A26D55",
"[  c #A77659",
"{  c #B8785C",
"}  c #816F64",
"|  c #847366",
" . c #847469",
".. c #84796D",
"X. c #8A796B",
"o. c #887367",
"O. c #937D6A",
"+. c #8A7E74",
"@. c #857C75",
"#. c #917F71",
"$. c #A47466",
"%. c #8E8175",
"&. c #8E837B",
"*. c #948375",
"=. c #9D8372",
"-. c #95857B",
";. c #96897C",
":. c #9E8D7F",
">. c #9D807C",
",. c #B48365",
"<. c #AD8A76",
"1. c #A38478",
"2. c #CF824C",
"3. c #D98F6C",
"4. c #CF917C",
"5. c #E0976E",
"6. c #717E86",
"7. c #8C8C8A",
"8. c #938E88",
"9. c #91908C",
"0. c #8B8F98",
"q. c #899698",
"w. c #989A9B",
"e. c #A2938B",
"r. c #A6988B",
"t. c #B89D87",
"y. c #A8A199",
"u. c #B5A99D",
"i. c #929FA5",
"p. c #869CA9",
"a. c #A99CA3",
"s. c #9CA3A6",
"d. c #A4A4A3",
"f. c #A9ACAC",
"g. c #B3ACA4",
"h. c #BBB1A2",
"j. c #B9B0A9",
"k. c #A5AEB1",
"l. c #ABB5B9",
"z. c #B8B8B7",
"x. c #C0968A",
"c. c #DE9E85",
"v. c #DEAD8C",
"b. c #CAAE98",
"n. c #E1A580",
"m. c #EBB69D",
"M. c #F5B492",
"N. c #FFBD99",
"B. c #C1BAB5",
"V. c #E7BAA6",
"C. c #F8BDAB",
"Z. c #FAC09B",
"A. c #CBC4BB",
"S. c #EDC4A8",
"D. c #FEC3A4",
"F. c #FFC7AB",
"G. c #F2D1B0",
"H. c #F9CAB8",
"J. c #BDC3C7",
"K. c #BAC3C8",
"L. c #CECAC1",
"P. c #C2CBCF",
"I. c #C7CAC9",
"U. c #D6D3CE",
"Y. c #DDD4CB",
"T. c #CFD7DB",
"R. c #CFD0D2",
"E. c #D5D7D7",
"W. c #FFD8C2",
"Q. c #E2DEDA",
"!. c #E1DAD4",
"~. c #E7E4DE",
"^. c #F4E3D9",
"/. c #D4DEE4",
"(. c #D9DEE1",
"). c #E3E4E3",
"_. c #EAE9E7",
"`. c #F5EDE5",
"'. c #FEF4EA",
"]. c #FFF9EF",
"[. c #FFFBE7",
"{. c #E3EDF1",
"}. c #EDFBFF",
"|. c #E3F2F7",
" X c #F5F5F5",
".X c #FDFBF5",
"XX c #F6FBFE",
"oX c #FDFEFD",
"OX c #F5F7F7",
/* pixels */
"S S S B B B B v N m m z M c l H 0.A.`.oXoX'.:.u.u.",
"*. . .} B S D B b b } S c y u.[.oX]..XQ.B.r.V S S ",
" .X.| V X.V D A S D n w > o y h.Y.u.*.@.B ) *. .X.",
"z.8.+.S  .} B S F B 5 6 r e + . p ) V +...o.o.X.X.",
"l.J.f.7.G .. .| ..a ( N.N.3.Y 8 3 O.*.S #.X.| %.;.",
"6.i.J.z.w.@.+.X.o.x C.F.M.5.2.^ R ' &.;.X.;.j.`.h.",
"I.L s.P.J.d.&.*.>.1.x.` [ ] R W [ =.&.%.:.!.oXoXh.",
".X~.Z k.T.I.y.%.<.V.F.{ ] $.2 q U O.8.e.^.oXXXoXA.",
".XoXR.L P./.R.9.1.H.W.C.D.n.P I ,.<.-._..X.XoXoXL.",
"oXoX.Xd.s.{.(.z.*.b.W.m.c.{ P ~ t.=.B.oXoXoX.XoXA.",
"oX.XoX_.w.T.{.T.e.t.G.v.4./ 0 ! =.e._.oXXXoXoXoXL.",
"oXoX.XoXf.K.}.|.a.-.S.Z.m.R U t ; A .XoXoXoXoXoXU.",
"oXoXoXoXE.l.}./.0.K V.M.[ 9 P 9 % , g..XoXoXOXoXU.",
"oX XoXoX_.k.XXJ q.C _ D.v.T Q 4 O h +.].oXoXoX.XU.",
"oXoXoXoXOXI.oXk f p.g ( m.Y Y 5 h v , A.oXOXoXoXE.",
"oXoXoXoXXX7.N - : d J x s E 7 Z l > @ +.).oXXXoXQ.",
"oXoXoX'.B @ @ X g - O j y 1 u  .% O = X , B..XoX~.",
"oXoX`.M & ; & # j O O - i i w w   > 1 X # $ z.oX).",
"oX XA.; = & # $ j O O o < j %     * g . @   K XX{."
};
