/* XPM */
static const char *micro_thsion[] = {
/* columns rows colors chars-per-pixel */
"25 19 196 2 ",
"   c #00100F",
".  c #0B0E11",
"X  c #05151A",
"o  c #14191F",
"O  c #0C1526",
"+  c #0E1A23",
"@  c #0F1F2C",
"#  c #121C25",
"$  c #151E2A",
"%  c #191A23",
"&  c #1D1E32",
"*  c #241F23",
"=  c #0E212B",
"-  c #1C2224",
";  c #15222B",
":  c #1A232B",
">  c #1C2A2A",
",  c #112120",
"<  c #142534",
"1  c #182737",
"2  c #1C3038",
"3  c #28262A",
"4  c #342D2E",
"5  c #26302F",
"6  c #282937",
"7  c #392D31",
"8  c #24313E",
"9  c #2A3439",
"0  c #3F3B32",
"q  c #473338",
"w  c #4F4539",
"e  c #564A3C",
"r  c #4E5132",
"t  c #5D573D",
"y  c #283445",
"u  c #3D3D45",
"i  c #503F45",
"p  c #742947",
"a  c #494746",
"s  c #594B46",
"d  c #4E514A",
"f  c #5B5847",
"g  c #494E52",
"h  c #474D57",
"j  c #4B5354",
"k  c #575957",
"l  c #7C4048",
"z  c #61554E",
"x  c #6C4C51",
"c  c #6A5657",
"v  c #7C5A55",
"b  c #724E4C",
"n  c #5D624C",
"m  c #5F605B",
"M  c #686248",
"N  c #63625B",
"B  c #68675A",
"V  c #76695A",
"C  c #6A7054",
"Z  c #757756",
"A  c #575565",
"S  c #6C6D67",
"D  c #6B6A6C",
"F  c #646969",
"G  c #726561",
"H  c #746E6A",
"J  c #766964",
"K  c #747369",
"L  c #7B726B",
"P  c #747868",
"I  c #6A6D72",
"U  c #776C72",
"Y  c #6C7576",
"T  c #787370",
"R  c #872B30",
"E  c #91102C",
"W  c #AE495B",
"Q  c #86665C",
"!  c #91645F",
"~  c #807C5F",
"^  c #8D4165",
"/  c #9E6963",
"(  c #8B746D",
")  c #8A7766",
"_  c #93796E",
"`  c #99796C",
"'  c #867976",
"]  c #9D7A77",
"[  c #917373",
"{  c #A7786A",
"}  c #A37C73",
"|  c #D05278",
" . c #6C8275",
".. c #798176",
"X. c #9D883C",
"o. c #A1934A",
"O. c #8B8667",
"+. c #90996C",
"@. c #82847E",
"#. c #838976",
"$. c #938276",
"%. c #9D837A",
"&. c #9B9379",
"*. c #AC847A",
"=. c #D0BA67",
"-. c #D3C654",
";. c #DFD86D",
":. c #CFC07F",
">. c #ECE273",
",. c #58798C",
"<. c #7F7F85",
"1. c #747B83",
"2. c #687681",
"3. c #857D84",
"4. c #D24B86",
"5. c #688C8A",
"6. c #708E8C",
"7. c #798F86",
"8. c #7F9293",
"9. c #618FA9",
"0. c #74A5B3",
"q. c #7DC4DA",
"w. c #8A848B",
"e. c #848C8C",
"r. c #868782",
"t. c #938C8B",
"y. c #9C8A87",
"u. c #89908A",
"i. c #92928D",
"p. c #9B9987",
"a. c #8D9498",
"s. c #989396",
"d. c #939D93",
"f. c #979997",
"g. c #978B97",
"h. c #A98C84",
"j. c #A6988B",
"k. c #B79587",
"l. c #A09C99",
"z. c #A19798",
"x. c #BA9C9C",
"c. c #B39891",
"v. c #A4A29F",
"b. c #A9A69A",
"n. c #BDA991",
"m. c #8D97A0",
"M. c #9A9CA3",
"N. c #979EA6",
"B. c #B594A9",
"V. c #82ABAD",
"C. c #99A2A9",
"Z. c #83BDAE",
"A. c #8FAAB5",
"S. c #97A9BD",
"D. c #A1A3A6",
"F. c #A4A6AD",
"G. c #A9ACA6",
"H. c #B1A9AD",
"J. c #BCB4A1",
"K. c #ABAEB3",
"L. c #B0AFB7",
"P. c #BABAB9",
"I. c #B7B6B6",
"U. c #CA9499",
"Y. c #C6A5A0",
"T. c #C8BCAD",
"R. c #C7BDB6",
"E. c #D1BDB4",
"W. c #E2CE85",
"Q. c #E5DC8D",
"!. c #D2C6B6",
"~. c #B4BDC6",
"^. c #AEC6C8",
"/. c #92E6FF",
"(. c #C6C8C9",
"). c #D8D3CD",
"_. c #CACBD3",
"`. c #C7D1DA",
"'. c #CDD4DC",
"]. c #CAD3D6",
"[. c #D2D7DB",
"{. c #D4D9DE",
"}. c #D8DEDA",
"|. c #F2EDC7",
" X c #E8E4DC",
".X c #CBD8E1",
"XX c #D3DCE3",
"oX c #D8DFE7",
"OX c #D9E1E5",
"+X c #DAE2E8",
"@X c #D8E4F0",
"#X c #E8E9E6",
"$X c #FBFBF6",
"%X c #FEFDFD",
"&X c #E5E9F2",
"*X c #EBD3CF",
/* pixels */
"_.'.'.'.+XXXXXXX{.XXXX+XXX+X&XXX].&X%X$X$X%X%X%X%X",
"{.{.].[.XXOX[.XXXX.X@X^.g F N.`.XX`.+X$X$X%X%X$X$X",
"@.e.D.(.P.(._.].[.OX].9 3 7 * I XXXX{.#X$X%X%X%X%X",
"0 a a N S N D a.f.f.k s x.h.( z a.K.f.I.H.P.I.P.P.",
"L V L ' J K t.D t.r.w _ } } h.j.H T @.r.D j k k j ",
"E.T.!.J.p.j.R.w.D.v.( _ v ] v h.y.b.l.<.M.f.K i.f.",
"$.) O.O.Z f H w.[.#X%.*.*.k.] c.). X#XF.C.u.#.p.|.",
"V e t M Z f S L.).E.*.{ { ! } k. X#X}.~.a.P Z &.+.",
"e 4 d f z N J D.F.G $.` / ! ( %.p.L w._.s.B f n C ",
"M q a B G k m b.P.a e V ` ` ) y.4 a a.8.3.i.#.C B ",
"x E l k U j ' T.(.u B n.Q b k.z.a h S.A.F @.d.H.G.",
"g R Q 6.u.J y.F g y u j.Y.k.c.g A 2.C.m.Y 1.<.U r.",
"3.p.d.e.' W q ; 2 y < - s c 5 = 8 8 h M.v...r.d.i.",
"7.s.I.G.b.x X 8 y < < = . . # 6 9 y 1 A U.k.&.x.*X",
"Y B.w.[ U.9 ; > 6 & : : ; $ : 6 y 8 2 > N.^.Z.7.(.",
"t.g.x | 4.@ o $ , < % - < = > ; 1 2 5 O 9./.q.,.0.",
"P.3.c ^ p + + % # $ $ ; ; ; : : : - : X P Q.W.:. .",
"H.8.5.5.j X   # # # # # # $ $ ; $ $ X X r ;.-.>.=.",
"G.6.5.V.t.i - = # # + + # # # # # $ O O a o.X.X.O."
};
