/* XPM */
static const char *micro_enzgonca[] = {
/* columns rows colors chars-per-pixel */
"25 19 193 2 ",
"   c #0B0708",
".  c #0C0B0B",
"X  c #060203",
"o  c #100901",
"O  c #160C0A",
"+  c #0D0E10",
"@  c #131212",
"#  c #1A1612",
"$  c #1E1815",
"%  c #1A1A1B",
"&  c #2B1B0E",
"*  c #201B17",
"=  c #231E18",
"-  c #2B1C19",
";  c #202020",
":  c #292420",
">  c #242529",
",  c #322721",
"<  c #352D23",
"1  c #3B2D24",
"2  c #3A3027",
"3  c #3E342C",
"4  c #3F3631",
"5  c #49352C",
"6  c #403731",
"7  c #453C34",
"8  c #453C38",
"9  c #493D38",
"0  c #593F3E",
"q  c #4B423B",
"w  c #464237",
"e  c #554635",
"r  c #584237",
"t  c #51493F",
"y  c #50433A",
"u  c #654B3E",
"i  c #4E4A41",
"p  c #484443",
"a  c #554C42",
"s  c #5B4E45",
"d  c #544D49",
"f  c #5F5246",
"g  c #5B524C",
"h  c #5B554D",
"j  c #695147",
"k  c #6D5847",
"l  c #62554B",
"z  c #6B564D",
"x  c #655A4D",
"c  c #685A4F",
"v  c #795D4F",
"b  c #655B51",
"n  c #6A5D53",
"m  c #645C59",
"M  c #776444",
"N  c #6D6156",
"B  c #736154",
"V  c #75645C",
"C  c #7E655A",
"Z  c #7B6B59",
"A  c #676669",
"S  c #6B6463",
"D  c #746A60",
"F  c #7B6C63",
"G  c #7F6E69",
"H  c #7A7066",
"J  c #7E726B",
"K  c #737069",
"L  c #6F6D72",
"P  c #706F74",
"I  c #786F70",
"U  c #76737A",
"Y  c #896857",
"T  c #836B5D",
"R  c #836E63",
"E  c #897667",
"W  c #83796C",
"Q  c #8B7B6C",
"!  c #88766B",
"~  c #927465",
"^  c #907860",
"/  c #947C6D",
"(  c #927469",
")  c #807B7F",
"_  c #8C7E71",
"`  c #927C73",
"'  c #95816C",
"]  c #8B827C",
"[  c #958374",
"{  c #998472",
"}  c #9D8976",
"|  c #94857A",
" . c #9D8B7C",
".. c #98887E",
"X. c #A5806D",
"o. c #A38E7A",
"O. c #A88B7A",
"+. c #B08D79",
"@. c #A6907B",
"#. c #AA937C",
"$. c #7A8189",
"%. c #878185",
"&. c #8A8280",
"*. c #928C83",
"=. c #9B8D83",
"-. c #938A8B",
";. c #9E9184",
":. c #9A948C",
">. c #8F9297",
",. c #9A9697",
"<. c #A4958B",
"1. c #AA968D",
"2. c #AD9B8A",
"3. c #A89888",
"4. c #B09781",
"5. c #B39A81",
"6. c #B99E8C",
"7. c #A49B95",
"8. c #AD9D94",
"9. c #B39D96",
"0. c #B09F98",
"q. c #B6A08A",
"w. c #ADA195",
"e. c #ADA39C",
"r. c #B2A395",
"t. c #BCA491",
"y. c #B5A19A",
"u. c #BBA59D",
"i. c #B8A899",
"p. c #B4ACA5",
"a. c #BAAAA2",
"s. c #B5B0AC",
"d. c #AFAFB1",
"f. c #B7B5B9",
"g. c gray",
"h. c #BEB9B5",
"j. c #A6A4A5",
"k. c #C4A895",
"l. c #D3AA94",
"z. c #C5B29D",
"x. c #C3ACA4",
"c. c #CEAEA1",
"v. c #C0B2A7",
"b. c #C5B3AB",
"n. c #CCB5AB",
"m. c #CEBFAC",
"M. c #D8BAAF",
"N. c #D2B6A9",
"B. c #C0B7B2",
"V. c #C4BDB3",
"C. c #CBBDB6",
"Z. c #D6BEB6",
"A. c #D8BFB8",
"S. c #D4C2AC",
"D. c #C6C0BA",
"F. c #CBC3BA",
"G. c #D1C5BB",
"H. c #DCC4BC",
"J. c #DCC9BD",
"K. c #E4CCBC",
"L. c #E1C5BA",
"P. c #C0BEC9",
"I. c #CAC5C1",
"U. c #D9C6C0",
"Y. c #D2CBC4",
"T. c #DDCCC2",
"R. c #D0CFCA",
"E. c #DED2C4",
"W. c #DDD5CB",
"Q. c #DDDAD3",
"!. c #E5CDC3",
"~. c #E3D6CA",
"^. c #E8D1C9",
"/. c #E8D7D0",
"(. c #EADED2",
"). c #E2DFD8",
"_. c #F9DFD0",
"`. c #EBE1D6",
"'. c #E6E2DD",
"]. c #EBE4DC",
"[. c #F8E7D7",
"{. c #F3E4DC",
"}. c #F7E9DC",
"|. c #E7E6E1",
" X c #EAE9E3",
".X c #EFEEE9",
"XX c #F3E6E2",
"oX c #F6EAE7",
"OX c #F4F2EC",
"+X c #F4F0E5",
"@X c #FFFCF5",
"#X c #FBFAFB",
"$X c gray95",
/* pixels */
"a t q 7 q 6 7 7 x N q 9 a h w K _ N a t g i i g d ",
"< , 3 3 3 3 3 7 M Z o   @ # O - 2 q 8 # $ : * * = ",
"W s y x D F F | ` V 9 6 7 3 7 8 4 4 d d g g d g a ",
"T.=.B E [ T Z B G F V N l n b h b l l l f s c f m ",
"[.@.o.#.t.k.} / ^ ' Q q < , c [ / } { ' { / ' ' ' ",
"r.2.6.#.5.5.4.q.J.z.e [  .n & Q 5.#.#.#.#.#.@.#.@.",
"}.i.} @.k.q.o.t.oX{.R k.6./ e W  .} } { { { { Q ' ",
"G.w.m.S.z.z.2.} ;.Q  .C ` 0 z  .a.<...8.r.Q <.T.C.",
"].`.@XOXE.(.Y...w.k l.l.X.v F C.W.h.:.W.E.<.Y.#X#X",
"Q.].Q.OX~.(. XV.7.B #.+.Y u s :.`.p.,.p.p.e.I.$XQ.",
"W.`.).OX(.W.OX+XI.G T ~ ( r 1 ] Y.p.,.7.-.&.S f.D.",
"Y.W.'.|.E.W. XOX'.a.n.T u 5 5 w.V.e.] -.%.) A d.f.",
"Y.`.D..X~.W.R.F.XX{.K.O.( j z u.v.p.] -.U U P g.P.",
"7.v.:.Q.r.<.s.F.XXJ.N.c./ C { ( 1.b.=.I L A A j.f.",
"J <.D *. .;.B.XX~.T.!.M.k. .C / 8.y.C.h % > % p ,.",
"W 2.*.:.Q 8.XX/.U.H.!.L.Z.9.1.9.9.u.8.7.@ + . $ $.",
"' ] W G.F u._.!.b.T.J.H.Z.u.x.x.a.b. .0.8 X   ; >.",
"z.H f T.J Z.N.^.x.H.J.H.Z.u.x.n.u.y.` | g   . % >.",
"K.a n F s !.t.H.u.Z.J.H.A.y.x.n.y.1.R F S . @ % m "
};
