/* XPM */
static const char *micro_begonzal[] = {
/* columns rows colors chars-per-pixel */
"25 19 173 2 ",
"   c #010101",
".  c #0A0200",
"X  c #00010A",
"o  c #060A0B",
"O  c #090D0C",
"+  c #140201",
"@  c #180904",
"#  c #1E110B",
"$  c #0B0E11",
"%  c #071113",
"&  c #0F1213",
"*  c #131716",
"=  c #161A1C",
"-  c #1C1714",
";  c #2A1713",
":  c #211811",
">  c #28201D",
",  c #212526",
"<  c #282320",
"1  c #272822",
"2  c #2C2D2F",
"3  c #2A2C28",
"4  c #2C2C33",
"5  c #2C3134",
"6  c #3F3A37",
"7  c #36393D",
"8  c #472E29",
"9  c #40312A",
"0  c #48433F",
"q  c #3D4245",
"w  c #404445",
"e  c #474840",
"r  c #484846",
"t  c #494A4F",
"y  c #43464B",
"u  c #5B4E46",
"i  c #55574C",
"p  c #5F5D4D",
"a  c #4C4F54",
"s  c #545557",
"d  c #565B5F",
"f  c #5A5A5A",
"g  c #634F44",
"h  c #65574E",
"j  c #715F5D",
"k  c #6A6B5E",
"l  c #75645D",
"z  c #5C5F68",
"x  c #5B5E63",
"c  c #5D6466",
"v  c #686565",
"b  c #656865",
"n  c #63666D",
"m  c #696A6C",
"M  c #666A6D",
"N  c #766D66",
"B  c #786C68",
"V  c #73726E",
"C  c #6C6E74",
"Z  c #6E7474",
"A  c #747574",
"S  c #737874",
"D  c #73757A",
"F  c #747879",
"G  c #7A7A7C",
"H  c #7C7B77",
"J  c #90786E",
"K  c #9C7A78",
"L  c #937976",
"P  c #7D837F",
"I  c #8B8B7F",
"U  c #9B827E",
"Y  c #768082",
"T  c #7D8584",
"R  c #838584",
"E  c #8A8987",
"W  c #838B8C",
"Q  c #8B8A8D",
"!  c #86858B",
"~  c #87908E",
"^  c #98918B",
"/  c #878E93",
"(  c #8B8B90",
")  c #869497",
"_  c #8A9394",
"`  c #8D979B",
"'  c #8B989E",
"]  c #919596",
"[  c #97969B",
"{  c #909A99",
"}  c #949993",
"|  c #AD8786",
" . c #A28984",
".. c #BA8E8D",
"X. c #BC988A",
"o. c #BB9389",
"O. c #B29F91",
"+. c #9BA29B",
"@. c #A5A19E",
"#. c #AFA198",
"$. c #BFA395",
"%. c #919CA2",
"&. c #9DA3A4",
"*. c #95A2A8",
"=. c #9BA6AD",
"-. c #9DA8AC",
";. c #A2A4A3",
":. c #A7ABAB",
">. c #A0A9B0",
",. c #C3999A",
"<. c #C7A79A",
"1. c #C4AA9D",
"2. c #D1A092",
"3. c #D2A59F",
"4. c #D9A99B",
"5. c #D1A8A4",
"6. c #DCB9B7",
"7. c #D6B4B3",
"8. c #E4AEA2",
"9. c #E2B6A9",
"0. c #EBB1AD",
"q. c #EEB7B2",
"w. c #EFB9B7",
"e. c #F0BDBC",
"r. c #C9C9B1",
"t. c #CCCDBF",
"y. c #C2C3B1",
"u. c #DCC4BB",
"i. c #E9C1B7",
"p. c #EBC5B8",
"a. c #EFCBBD",
"s. c #BCBDC3",
"d. c #B3BAC0",
"f. c #D0D1CB",
"g. c #D9DBCE",
"h. c #CFCED6",
"j. c #CFD7DA",
"k. c #D9DED7",
"l. c #D7D7D9",
"z. c #D5D8DD",
"x. c #E5CFC2",
"c. c #EBCFC3",
"v. c #E5DFD3",
"b. c #E0DFDB",
"n. c #D9E3DB",
"m. c #EFECD5",
"M. c #FBE0D5",
"N. c #FFEADF",
"B. c #FAF6D0",
"V. c #FFFBDA",
"C. c #F4F4D8",
"Z. c #D9DDE3",
"A. c #D9E4E6",
"S. c #E0E3E4",
"D. c #ECEEED",
"F. c #E3E8E2",
"G. c #F2EBE5",
"H. c #F4F1E6",
"J. c #F8F7E3",
"K. c #FFFDE1",
"L. c #FBF7EC",
"P. c #FFFDEC",
"I. c #E4EEF0",
"U. c #EDEFFB",
"Y. c #ECF7F9",
"T. c #E8F2F4",
"R. c #F3F3F5",
"E. c #F4FAF4",
"W. c #FDFCF3",
"Q. c #FDF6FB",
"!. c #F5FBFC",
"~. c #FDFEFD",
"^. c #F4F5FA",
/* pixels */
"~.~.~.~.~.~.~.~.~.~.b.k.n.n.S.l.f.g.t.y.r.C.K.V.B.",
"~.~.~.~.~.~.~.~.Q.Q.E } +.P D m b i I k p m.K.K.V.",
"~.~.~.~.~.~.~.~.~.Q.Q A S F C D m f e 3 p J.P.K.V.",
"~.~.~.~.~.~.~.~.~.^.;.H G F ! ( F b r 1 k H.W.P.m.",
"~.~.~.~.~.~.~.~.~.~.@.0 > < v [ Q M s 2 V W.W.L.v.",
"~.~.~.~.~.~.~.~.!.~.^ u l B B R G C t 4 F E.~.~.W.",
"~.~.~.~.~.~.~.~.~.E.#.x.N.M.u.N G x y 2 G ~.~.~.~.",
"~.~.~.~.~.~.~.~.F.H.O.<.p.a.$.h f a 7 = ( ~.~.~.~.",
"~.R.R.~.Q.~.~.~.~.W.1.o.2.4.X.g 6 7 3 = ] ~.~.~.~.",
"Z.s.D.~.~.~.~.~.~.L.c.9.8.8.i.J - * & & &.~.~.~.~.",
"S.E.~.E.W.~.~.~.~.W.u.3.0.q.5.8 .   o O ;.~.!.~.~.",
"~.~.E.~.~.~.~.~.~.G.U ..w.e.| + .       :.~.~.~.~.",
"~.~.~.~.~.~.~.~.!.v ; K ..,.L +       O :.!.!.!.!.",
"~.~.~.~.~.~.~.^.&.& . U 6.7.j .       o ;.~.~.T.Y.",
"~.~.I.A.z.h.s.z %   . 9  .L :         $ _ j.d.) ) ",
"U.Z.-.` / n 4 X       . @ #           $ c W W / ) ",
"-.>.-.%.D d o           .               w R ~ _ { ",
"*.*.` Y n q                             , Z R ~ _ ",
"%.' T c d 5                             o b T W T "
};
