/* XPM */
static const char *micro_jguaglio[] = {
/* columns rows colors chars-per-pixel */
"25 19 190 2 ",
"   c #030304",
".  c #080503",
"X  c #060807",
"o  c #080806",
"O  c #07080A",
"+  c #0B0B0B",
"@  c #130E0C",
"#  c #0E100F",
"$  c #12120E",
"%  c #0D0E10",
"&  c #110F10",
"*  c #0F1110",
"=  c #131413",
"-  c #1C1613",
";  c #181913",
":  c #15151A",
">  c #15191A",
",  c #1B1B1B",
"<  c #221D1C",
"1  c #26211E",
"2  c #2C241D",
"3  c #36281F",
"4  c #201E21",
"5  c #1F2024",
"6  c #232222",
"7  c #2D2727",
"8  c #292728",
"9  c #2C2C2B",
"0  c #292A24",
"q  c #332B20",
"w  c #312B2C",
"e  c #3D2F2C",
"r  c #383127",
"t  c #34322D",
"y  c #3B342B",
"u  c #3A3631",
"i  c #3C3B3A",
"p  c #393836",
"a  c #402E22",
"s  c #423026",
"d  c #413330",
"f  c #413E39",
"g  c #493E3A",
"h  c #424034",
"j  c #4B4136",
"k  c #44413E",
"l  c #4B443C",
"z  c #4B493C",
"x  c #544130",
"c  c #544A3E",
"v  c #5C4734",
"b  c #4C4642",
"n  c #4D4942",
"m  c #504742",
"M  c #544B42",
"N  c #5B4D43",
"B  c #534E48",
"V  c #4F514E",
"C  c #5B5145",
"Z  c #5D544B",
"A  c #545245",
"S  c #5A5857",
"D  c #655647",
"F  c #62564A",
"G  c #65594B",
"H  c #6C5E4E",
"J  c #775844",
"K  c #745F4E",
"L  c #655C52",
"P  c #6C5E52",
"I  c #615C59",
"U  c #6D6155",
"Y  c #66615E",
"T  c #6D6359",
"R  c #726456",
"E  c #7C6454",
"W  c #746559",
"Q  c #76695B",
"!  c #7A6B5C",
"~  c #7D705F",
"^  c #6A6665",
"/  c #6F6A66",
"(  c #6F6E69",
")  c #746A66",
"_  c #7B6E63",
"`  c #736F6E",
"'  c #766966",
"]  c #7D7060",
"[  c #74706F",
"{  c #7C746A",
"}  c #7F786E",
"|  c #7D7571",
" . c #7F7C77",
".. c #7A7876",
"X. c #83604D",
"o. c #816F5F",
"O. c #8A6F5E",
"+. c #827263",
"@. c #83756A",
"#. c #87796C",
"$. c #8F7C6D",
"%. c #957668",
"&. c #807674",
"*. c #837A74",
"=. c #897F73",
"-. c #847C7A",
";. c #A27F6C",
":. c #8E857D",
">. c #8F8979",
",. c #858175",
"<. c #948676",
"1. c #998A77",
"2. c #9B8D7E",
"3. c #928A7D",
"4. c #A58171",
"5. c #A88879",
"6. c #8E8C8D",
"7. c #8B8683",
"8. c #938B84",
"9. c #9F8F80",
"0. c #998E8C",
"q. c #9B9284",
"w. c #96918E",
"e. c #9B9889",
"r. c #989389",
"t. c #919598",
"y. c #A39A8E",
"u. c #A39D92",
"i. c #A29E9A",
"p. c #AD9C92",
"a. c #9EA293",
"s. c #A8A08D",
"d. c #A5A299",
"f. c #ABA39B",
"g. c #B3A296",
"h. c #B5A79B",
"j. c #9E9FA1",
"k. c #AEADAB",
"l. c #B5ACA4",
"z. c #B3AFAD",
"x. c #B0B0A4",
"c. c #B9B3A6",
"v. c #B5B2AE",
"b. c #BAB4AE",
"n. c #B7B3B2",
"m. c #B7BBBE",
"M. c #BCBEB9",
"N. c #C3BCB4",
"B. c #CBBFB4",
"V. c #C2BEBB",
"C. c #CAC1B5",
"Z. c #CAC3BC",
"A. c #C3BFC0",
"S. c #CCC7C2",
"D. c #CCC8C7",
"F. c #CFCBC8",
"G. c #D1C9C3",
"H. c #D9CFC3",
"J. c #D4CFC9",
"K. c #D5D3CD",
"L. c #DAD8CE",
"P. c #D7D1C8",
"I. c #D7D6D5",
"U. c #DAD7D2",
"Y. c #DEDAD9",
"T. c #E1D5C7",
"R. c #E6DDCE",
"E. c #E4D3C9",
"W. c #E2DCD3",
"Q. c #E6DFD9",
"!. c #DEE0DB",
"~. c #DCE0D2",
"^. c #EDE5DC",
"/. c #E4E4DB",
"(. c #E2E2E4",
"). c #EBE6E0",
"_. c #E6E9E0",
"`. c #EBEBE6",
"'. c #E9E9E9",
"]. c #F2EBE3",
"[. c #F2ECEA",
"{. c #F5F1E6",
"}. c #F6F4ED",
"|. c #FBF4ED",
" X c #F6F6F6",
".X c #F7F8F2",
"XX c #FEFAF7",
"oX c #FFFAF9",
"OX c #FFFFFA",
"+X c #FDFDFB",
/* pixels */
"C C M P { C - @ = = - < < < 0 t 9 t t t t u i f f ",
"j j c C Z L l l f f k b b l l n B B b n M B Z T _ ",
"<.H R H F N C M C Z M C l C M c C C M c c N C G R ",
"1.1.+.H D D P U P R W R Q Q Q ! ! R R _ ! ! ! ! W ",
"! o.o.! g.h.@.+._ ! ! ! ~ _ ! ! ! +.] ! ! Q ! W ! ",
"$.<.+.! g.E.p.R ! W ! W D H _ W Q P U T _ T U P G ",
"9.#.U :.{ _ M @.*._ F a s 3 Z 0.h.C.u.8.).^.8.l :.",
"R.u.W.d.d.0.2 b.L.G.N N W M 2 l.].^.K.V.oXOXJ.8.W.",
"^.s./.[.a.{ u 2.S.{.2.%.4.K q i.W.G.P.b.`..XL.e.c.",
"|.q.K.oX~.8.1 q.}.|.B.5.;.E L v.W.B.c.| U.}.P.>.r.",
"].l.[.[.OXG.1 l.OX|.T.%.X.v :.z.Z.l.l.:.S.].W.3.} ",
"^.y./.|._.Q.u N.OX`.H.O.J x N.v.Z.Z.N.&.D.XXZ.u.) ",
"C.F x.l.M.N.h f. X!.f.2.E C { [ k.i.w.^ M.'.I./ &.",
"y.T u.=.d.8.z w.A.V ; y N r = 4 8 , , , : m.(.S -.",
"C :.,.Q ( 8.A | 7 + , = . $ , = = , @ = % t.(.6.^ ",
"W g { { i 0.y w @ , > 5 p > : : = @ $ o   j.I.[ S ",
"8.2  .n < w , # = = & ' f.8 = $ o * = + o  .Y.7.-.",
"m -   + < , 6 = + O , e d , % o X = * o o k ` Y I ",
"@ , = 9 i b 8 o o + X { ) o % o o + > 6 9 6.D.n.v."
};
