/* XPM */
static const char *micro_raaguilo[] = {
/* columns rows colors chars-per-pixel */
"25 19 199 2 ",
"   c #030202",
".  c #0A0403",
"X  c #040801",
"o  c #0D0B04",
"O  c #0E040A",
"+  c #040B0B",
"@  c #0B0A08",
"#  c #140402",
"$  c #100A06",
"%  c #110C0B",
"&  c #1B0807",
"*  c #141307",
"=  c #140F12",
"-  c #191715",
";  c #060814",
":  c #210B03",
">  c #230A09",
",  c #260708",
"<  c #2C1005",
"1  c #311000",
"2  c #37140C",
"3  c #2C1A19",
"4  c #261614",
"5  c #361B16",
"6  c #2A2118",
"7  c #382319",
"8  c #3A1B21",
"9  c #282526",
"0  c #383830",
"q  c #383433",
"w  c #431C0C",
"e  c #481809",
"r  c #421E17",
"t  c #551D06",
"y  c #4A2214",
"u  c #562A17",
"i  c #5E341E",
"p  c #662B06",
"a  c #68300D",
"s  c #682C10",
"d  c #732D13",
"f  c #6F3216",
"g  c #773917",
"h  c #4A2C22",
"j  c #522E22",
"k  c #4C322D",
"l  c #493B3A",
"z  c #643B2D",
"x  c #4A453F",
"c  c #724225",
"v  c #664236",
"b  c #754633",
"n  c #6E553F",
"m  c #7E513C",
"M  c #544B49",
"N  c #4C5157",
"B  c #775647",
"V  c #676B68",
"C  c #696E72",
"Z  c #8E492C",
"A  c #924028",
"S  c #9E5029",
"D  c #904830",
"F  c #9A4D31",
"G  c #9D5137",
"H  c #A34424",
"J  c #AB5136",
"K  c #B35E39",
"L  c #A7613F",
"P  c #855E4F",
"I  c #8C634D",
"U  c #98684D",
"Y  c #9D755E",
"T  c #99695B",
"R  c #A47159",
"E  c #BB7458",
"W  c #836461",
"Q  c #906C61",
"!  c #8D7166",
"~  c #967C66",
"^  c #9F7E6B",
"/  c #827D7A",
"(  c #977C75",
")  c #A47D69",
"_  c #A37B73",
"`  c #7F807A",
"'  c #888177",
"]  c #978375",
"[  c #AD886B",
"{  c #A18673",
"}  c #AB8574",
"|  c #AE8D7D",
" . c #A78979",
".. c #B48F7D",
"X. c #B2917B",
"o. c #C4876D",
"O. c #C2927B",
"+. c #D38878",
"@. c #E5937B",
"#. c #7A7F83",
"$. c #8F9088",
"%. c #8B9094",
"&. c #9B9496",
"*. c #90909A",
"=. c #968387",
"-. c #AD9182",
";. c #A79683",
":. c #B59384",
">. c #BA9681",
",. c #B69885",
"<. c #BE9983",
"1. c #B39A89",
"2. c #B79A8A",
"3. c #A39A91",
"4. c #B29C91",
"5. c #97A09D",
"6. c #AEA499",
"7. c #BAA597",
"8. c #979AA3",
"9. c #9CA4AD",
"0. c #9FAAA7",
"q. c #A2A9AB",
"w. c #AAAAA9",
"e. c #B4AEA6",
"r. c #B4B1AD",
"t. c #BEB6AB",
"y. c #A4AEB2",
"u. c #A9B3B9",
"i. c #B3B3B2",
"p. c #BCBBB7",
"a. c #B6BBBE",
"s. c #B1B6BC",
"d. c #C29E89",
"f. c #D19891",
"g. c #E49A81",
"h. c #CEAB8E",
"j. c #CAA684",
"k. c #DBA386",
"l. c #C2A79A",
"z. c #C8A895",
"x. c #D0AC9C",
"c. c #D1AB94",
"v. c #E5A893",
"b. c #C3ABA1",
"n. c #C4B4A5",
"m. c #C7BEB9",
"M. c #D0B9B1",
"N. c #E7B3A9",
"B. c #F5B7A6",
"V. c #CAC5BF",
"C. c #DCCDBF",
"Z. c #EAC1BD",
"A. c #F8C7BD",
"S. c #B5BBC2",
"D. c #BDCACC",
"F. c #B8C3C4",
"G. c #C3C4C6",
"H. c #C4C6CC",
"J. c #C1C9CC",
"K. c #C9CCCA",
"L. c #DCCEC6",
"P. c #D5CFC9",
"I. c #CFD0CA",
"U. c #DCD3CE",
"Y. c #C5CFD3",
"T. c #CACCD2",
"R. c #C6D0D4",
"E. c #C9D4D7",
"W. c #CAD8DA",
"Q. c #D5D6D4",
"!. c #DBDFD1",
"~. c #FFCFC2",
"^. c #E5DCCB",
"/. c #FFDAD1",
"(. c #D9E4D6",
"). c #E5E2DD",
"_. c #FFECDB",
"`. c #C8D4E8",
"'. c #DCD9E2",
"]. c #D9E1E3",
"[. c #DDE6EB",
"{. c #DDEAEA",
"}. c #D7E1ED",
"|. c #E2E6E4",
" X c #E6EBE5",
".X c #E3EBED",
"XX c #ECEDE8",
"oX c #F5EAE4",
"OX c #F4F3ED",
"+X c #F9F9ED",
"@X c #EAEFF3",
"#X c #E8EEFA",
"$X c #ECF2F3",
"%X c #E6F6FC",
"&X c #FCF6F1",
"*X c #FDFBF4",
"=X c #F4FCFD",
"-X c #FDFDFC",
";X c #F4F6F4",
/* pixels */
"} ~ _ ] ~ ) ' ( n.7.>.>.| -.|  . . .4.6.t.' 3.6.&.",
"-. . .{ { } ] { ^ Q B z m Y X.1.C.oX&X-X*Xe.).-X|.",
"e.6.:.X.,.:.-. .b z Q T p a [ ;.OX-X-X-X-Xr.Q.-X=X",
"G.r.,.<.1.1.<.P w N.~.B.E g c X.-X-X-X*X-Xi.K.=X-X",
"F.T.n.d.1.2.O.u k A.v.g.G d s U &X-X-X-X-Xp.Q.-X-X",
"5.}.P.d.l.z.o.2 l x.o.@.A D g g C.&XXX*X-Xr.Q. X X",
"$.`.].l.l.h.E < k /.B.@.J E f u | +XOX=X-Xw.I. X(.",
"6.`.%XM.b.j.L : 2 Z.A.+.H K e 1 I _.*X=X-Xi.K.;X!.",
"p.E.%XV.c.k.R y : =.~.N.E S # o Z n.W.-X-Xq.u.$X|.",
"G.Y.=XP.h.k.I h 7 = h.) g p & # t ;.;X*X-Xy.D.$X.X",
"T.E.=XU.x.R w : 3   Y v.F g > & w n ^.;X-X9.J.$X[.",
"S.R.=XL...b j 5 .   7 f.+.c 4 8 2 u ,.oX#Xs.@X$X.X",
"y.R.-XL.z.b r > , +   - 6 * X > r u i 6 N a.K.{.{.",
"J.F.=Xm.! v h & >   X +   X   4 5 w y . - |.$X{..X",
"a.Y.[.&.3 5 4 . . . . . & O . . & 3 # . . / ;X{.{.",
"H.s.u.q.= $ % X   o   o     %       ; @   l '.].[.",
"D.u.S.%.. %   @ @ % .   . @   @ @   + $   9 0.8.V ",
"R.y.y.#.  %   @ % . . .   . q ' 0 O   # % & V *.9 ",
"E.0.9.C   o   @ % . . .     - M x . M W 4 # ` H.y."
};
