/* XPM */
static const char *micro_alsaez[] = {
/* columns rows colors chars-per-pixel */
"25 19 187 2 ",
"   c #0E0A06",
".  c #0E0E0B",
"X  c #100500",
"o  c #170A01",
"O  c #1D0F06",
"+  c #11100B",
"@  c #0D0E10",
"#  c #121210",
"$  c #191513",
"%  c #1F1C17",
"&  c #1B1C1B",
"*  c #301B0A",
"=  c #241E17",
"-  c #3F1F14",
";  c #242017",
":  c #24211C",
">  c #39291C",
",  c #292723",
"<  c #2D2A25",
"1  c #2D2C2A",
"2  c #392B20",
"3  c #342A25",
"4  c #3D3024",
"5  c #39332D",
"6  c #393631",
"7  c #492D17",
"8  c #5F351C",
"9  c #653D1A",
"0  c #493B28",
"q  c #403D3B",
"w  c #483C33",
"e  c #6A3A24",
"r  c #494139",
"t  c #50413A",
"y  c #5F4D3F",
"u  c #62422D",
"i  c #764A2C",
"p  c #6E4D3C",
"a  c #724A30",
"s  c #735034",
"d  c #494640",
"f  c #4E4A45",
"g  c #4D484C",
"h  c #534E46",
"j  c #59534D",
"k  c #555148",
"l  c #555057",
"z  c #5D5A53",
"x  c #6C5C49",
"c  c #605855",
"v  c #615D59",
"b  c #7F5650",
"n  c #785D52",
"m  c #73644F",
"M  c #6C6050",
"N  c #65625C",
"B  c #6B645B",
"V  c #726254",
"C  c #786650",
"Z  c #736A5E",
"A  c #7E6C58",
"S  c #515F62",
"D  c #6D6662",
"F  c #6E6A63",
"G  c #6F6D6B",
"H  c #736C63",
"J  c #7A6F65",
"K  c #746E6B",
"L  c #786E6C",
"P  c #797166",
"I  c #7C746B",
"U  c #77726A",
"Y  c #6B6C71",
"T  c #7B7672",
"R  c #875C2F",
"E  c #855932",
"W  c #82584A",
"Q  c #8C5A53",
"!  c #9E6740",
"~  c #9E6F41",
"^  c #956648",
"/  c #826C58",
"(  c #946F54",
")  c #8B7055",
"_  c #96785C",
"`  c #AF6A4D",
"'  c #837261",
"]  c #85776D",
"[  c #887668",
"{  c #827A6E",
"}  c #907468",
"|  c #847C72",
" . c #8B7C72",
".. c #857C79",
"X. c #857B77",
"o. c #917B71",
"O. c #A37867",
"+. c #8D8277",
"@. c #87807A",
"#. c #8B837B",
"$. c #93897B",
"%. c #978577",
"&. c #A18375",
"*. c #C58F73",
"=. c #C79574",
"-. c #7D8383",
";. c #74838A",
":. c #8B8381",
">. c #8E8981",
",. c #908687",
"<. c #988B82",
"1. c #968F8B",
"2. c #8D928C",
"3. c #96908B",
"4. c #9D978F",
"5. c #9E9789",
"6. c #8D9A9B",
"7. c #9A9591",
"8. c #9D9C9B",
"9. c #929292",
"0. c #A1998F",
"q. c #AA9E8E",
"w. c #B79780",
"e. c #A19A93",
"r. c #A29D9C",
"t. c #AB9894",
"y. c #9FA09B",
"u. c #A2A09C",
"i. c #ABA49B",
"p. c #BAA499",
"a. c #969EA1",
"s. c #9DA2A9",
"d. c #9FA3A4",
"f. c #A2A1A2",
"g. c #ADA4A3",
"h. c #B1AEAC",
"j. c #B3ADA5",
"k. c #BBB4AB",
"l. c #ADADB5",
"z. c #B4B5B5",
"x. c #B3B6B9",
"c. c #B5B9BA",
"v. c #C69392",
"b. c #CBA191",
"n. c #D9A097",
"m. c #D9A49C",
"M. c #C0B9AF",
"N. c #C3BBB3",
"B. c #C6B5BD",
"V. c #E7BBAE",
"C. c #E7B9A7",
"Z. c #CCC8BF",
"A. c #CAC4B7",
"S. c #DDC1B3",
"D. c #BBC6CC",
"F. c #C4C6C1",
"G. c #CDC9C2",
"H. c #C4C8CB",
"J. c #CCD0CF",
"K. c #D4D4CB",
"L. c #D4D2C6",
"P. c #CBCCD0",
"I. c #C7D2D6",
"U. c #CDD3D3",
"Y. c #CDD7D8",
"T. c #CED9DF",
"R. c #D7DDDD",
"E. c #D8DEDE",
"W. c #E1DED9",
"Q. c #E8D7C7",
"!. c #EAE2D7",
"~. c #CEDBE3",
"^. c #D3D7E0",
"/. c #DBE4EB",
"(. c #EDEBE5",
"). c #EEEEE9",
"_. c #E7E8E5",
"`. c #F1EDE3",
"'. c #F3EEEB",
"]. c #EEF0EB",
"[. c #F6F3EA",
"{. c #E4EBF3",
"}. c #ECF0F1",
"|. c #FAF5F3",
" X c #F5FCFD",
".X c #FEFEFD",
"XX c #FAF9F5",
/* pixels */
"Z h w i.r.1 $ $ + . # & @ & >.A.!.`.X.; < , < h y.",
"g.e.:.T H H B k d 6 < % < U k.N.Z.F = 5 < : % = , ",
"D H D H P P { | @.I B r N 4.#.>.H z j f j z j k d ",
"I H H B B B c v B B v f q z h.W.XXK.>.4.e.i.i.k.k.",
"{ I I I D F K G H j < & .   U !.Z.0.I #.{ Z P J P ",
"h.:.K I H H F B J 5 $   X O o r I H { P H I P | I ",
"s.H.8.T | I P P B = w n p u * > { I { #.j.G._.'.).",
";.6.H.h...{ | ] | 4 &.C.*.^ 7 4 | 5.M.G..X.X.X.X.X",
"|.2.6.~.l.#. . .#.o.%.W ( - i a N..X`.Z..X.XXX.X.X",
".X].-.D.^.r.+.+. .b.V.m.=.a ! ` '..X`.K..XXX.X.X.X",
".X.XF.a.{.U.>.$.%.0.S.n.Q 8 ~ Q..X.X).L..X.X.X.X.X",
".X.X|.f././.u.$.<.#.p.v.Q e _  X X.X(.G..X.X.X.X.X",
".X.X.Xz.T. Xz.+.t.L } V.O.E s B..X.X).K..X.X.X.X.X",
".X.X.XJ.I. XP.3.,.S 2 w.&.R 9 t j.(.[.L..X.X.X.X.X",
".X.X.XR.Y..Xx.N l -.g 3 b i > 0 x V $.A..X.X.X.X.X",
".X.X.XR.Y.s.Y G { f.r.N q 0 3 M ) / m 5.XX.X.X.XXX",
".X.X.XE.P.f.7.:...8.7.g.f.Z C ' ' ] ' [ !..X.X.X.X",
".XXX.XU.c.z.7.L ..8.3.1.r.{ A [ o. .m V A..X.XF.8.",
".XXX}._.x.9.3.U ..u.1.#.8.$./  .+.<.x y q..XXXz 1 "
};
