/* XPM */
static const char *micro_thclarac[] = {
/* columns rows colors chars-per-pixel */
"25 19 181 2 ",
"   c #020204",
".  c #050709",
"X  c #050A0B",
"o  c #0C0B0D",
"O  c #0D0304",
"+  c #140F03",
"@  c #150301",
"#  c #171700",
"$  c #0E0E11",
"%  c #060D13",
"&  c #130610",
"*  c #100F16",
"=  c #1B0F1B",
"-  c #021212",
";  c #0C1214",
":  c #0B191C",
">  c #141315",
",  c #19161A",
"<  c #250C0D",
"1  c #20141E",
"2  c #281F18",
"3  c #3A1E1A",
"4  c #231E24",
"5  c #282327",
"6  c #28272C",
"7  c #272324",
"8  c #3E2C22",
"9  c #393420",
"0  c #39312E",
"q  c #2D2D31",
"w  c #393B30",
"e  c #373236",
"r  c #492119",
"t  c #4F2A18",
"y  c #43271B",
"u  c #492B20",
"i  c #412426",
"p  c #502E22",
"a  c #47362C",
"s  c #55372D",
"d  c #452F31",
"f  c #493E3C",
"g  c #553D3A",
"h  c #6C3E2F",
"j  c #4B423C",
"k  c #5D4336",
"l  c #3E3E40",
"z  c #343843",
"x  c #444444",
"c  c #484347",
"v  c #45444B",
"b  c #4D4D52",
"n  c #55595A",
"m  c #785247",
"M  c #635F54",
"N  c #6E645B",
"B  c #606261",
"V  c #676862",
"C  c #696965",
"Z  c #616568",
"A  c #67696C",
"S  c #726B65",
"D  c #72726E",
"F  c #737473",
"G  c #737778",
"H  c #7B7C7A",
"J  c #804D52",
"K  c #895A52",
"L  c #986A5D",
"P  c #906F68",
"I  c #8C706F",
"U  c #A97B6E",
"Y  c #AA7B73",
"T  c #7F817B",
"R  c #83837D",
"E  c #8C887F",
"W  c #81897E",
"Q  c #91857B",
"!  c #7C7F84",
"~  c #807D84",
"^  c #848484",
"/  c #888483",
"(  c #898A86",
")  c #848689",
"_  c #8C8C8B",
"`  c #9E8B87",
"'  c #93928E",
"]  c #9B918F",
"[  c #8C8F93",
"{  c #8E9195",
"}  c #949494",
"|  c #989792",
" . c #939995",
".. c #999A95",
"X. c #93969A",
"o. c #999798",
"O. c #94999E",
"+. c #9C9D9C",
"@. c #AF978D",
"#. c #A5978C",
"$. c #B79188",
"%. c #BB9B8E",
"&. c #A09E9F",
"*. c #A99298",
"=. c #A1A29D",
"-. c #AFA39E",
";. c #ABA89F",
":. c #8F99A2",
">. c #9E9FA3",
",. c #9FA4A4",
"<. c #A4A5A3",
"1. c #A7A8A3",
"2. c #AAABA6",
"3. c #A7A7A9",
"4. c #ACACAB",
"5. c #A4A9AD",
"6. c #B8B1A9",
"7. c #BEB8AA",
"8. c #A7ACB0",
"9. c #B5B5B4",
"0. c #B6B7B9",
"q. c #BBBDB2",
"w. c #C28E83",
"e. c #C08D92",
"r. c #C7A49E",
"t. c #C8A89D",
"y. c #D3A49E",
"u. c #CBA9A0",
"i. c #CBB2AD",
"p. c #DBB0AC",
"a. c #E2B0A7",
"s. c #E5BDBA",
"d. c #CAC5BC",
"f. c #C3C4BF",
"g. c #D8C4BD",
"h. c #E0C4B8",
"j. c #BEBFC1",
"k. c #C5C5C3",
"l. c #C8C7C2",
"z. c #CCCBC4",
"x. c #CDCDCB",
"c. c #C2C5CA",
"v. c #D3C8C2",
"b. c #D4D3CD",
"n. c #CBCED3",
"m. c #CDD1D3",
"M. c #D3D5D5",
"N. c #D9D9D4",
"B. c #DBDDDC",
"V. c #D6DADD",
"C. c #F7CFC7",
"Z. c #E0DDD6",
"A. c #E1D8D9",
"S. c #E4E1D8",
"D. c #FCE4DA",
"F. c #D9DCE1",
"G. c #EDDDE0",
"H. c #E3E3E3",
"J. c #E9E9E5",
"K. c #E3E6E9",
"L. c #E5E9EA",
"P. c #EDEDEC",
"I. c #E8E8E3",
"U. c #FFE9E8",
"Y. c #EEF0EF",
"T. c #EEF4E6",
"R. c #F0F0E4",
"E. c #F4F4ED",
"W. c #FBFAED",
"Q. c #E6EAF2",
"!. c #EAEDF1",
"~. c #EEF1F4",
"^. c #F3F5F5",
"/. c #FAFAF5",
"(. c #F3F6F9",
"). c #F7FBFC",
"_. c #FAFFFE",
"`. c #FEFFFF",
"'. c #FEFFFE",
"]. c #FCFDFC",
"[. c #F6F6F1",
/* pixels */
"^ H T ^ F  .9.N.[.].[.] -.;... ...2.} / <.| =.q.l.",
"( _ / H [ K.].I.x.4.+._ T R R H F D C C F D V V C ",
"^ ^ ( _ ^ +.} R / ^ B F W T H ~ ^ ( } ^ <.4.<...R ",
"+._ ( ' ^ _ _ ' R f 0 2 + E M.H.E._.K.! n.K.V.0.k.",
"o.} '  .}  .o.| M Q i.P s 8 I._.'.].!.X._.).~.P.B.",
"&.+...+.X.} ....Q D.C.a.L y 6._./.'.(.O.Q.~.)./.].",
"+.<... .+.>.=.' @.u.Y w.h u v.'././.!.8.(._.'./.^.",
"4.1.+.=.<.+.<.=.s.s.y.U t k -.'.[.'.~.5.(.].]./.E.",
"f.1.+.4.+.1.1.4.h.t.$.K r g d.T.H.'.L.,.)./.E.W.R.",
"b.<.<.2.4.<.+.x.d.I e.J < j ^.(.(.].~.+._./.W.W.E.",
"B.4.2.4.1.1.+.N.G.f N j   H '.Q.(.(.~.,.L.].E.S.I.",
"I.2.2.4.<.4.9.z.U.#.9 # + 7.].H.L.'.K.{ M.Y.P.Z.H.",
"J.2.4.9.k.4.( x w g.p.K p a S A.'.'.!.>.(.~.J./.~.",
"I.4.9.3.F q .   X > g i <     ; x ) V.F.(.'.P.E.{ ",
"K.4.9.b   o . > * % - - . X , ;   . b !.^.^.H.P.b ",
"k.x } q > * $ $ ; o & 1   ; o O o . . m.).^.P.E.A ",
"l.z :.= = > @ : o o . > o 4 6   > .   <.'.'.B.9.A ",
"z.v Z d *.` 3 . > $ ;   5 ^ l . $ $   G ).~.j.F c.",
"b.v ' r.p.%.m > o   o o e c > > 7 ,   n m.O.) ) [ "
};
