/* XPM */
static const char *micro_nsalles[] = {
/* columns rows colors chars-per-pixel */
"25 19 210 2 ",
"   c #362B28",
".  c #39312E",
"X  c #2D3132",
"o  c #50352E",
"O  c #473834",
"+  c #48362C",
"@  c #53503A",
"#  c #3A464C",
"$  c #294956",
"%  c #344F5B",
"&  c #3C5A5D",
"*  c #375457",
"=  c #2B464D",
"-  c #3A5969",
";  c #3F6163",
":  c #3F6D7C",
">  c #48484E",
",  c #514841",
"<  c #47504B",
"1  c #545249",
"2  c #5E4A53",
"3  c #555451",
"4  c #5B5356",
"5  c #464D57",
"6  c #645C46",
"7  c #68504A",
"8  c #7A4A56",
"9  c #6B5B54",
"0  c #625856",
"q  c #775C56",
"w  c #694F58",
"e  c #44615D",
"r  c #5C635C",
"t  c #71624F",
"y  c #65685D",
"u  c #7D675A",
"i  c #757759",
"p  c #425F67",
"a  c #725963",
"s  c #48646B",
"d  c #4A6672",
"f  c #4C6C74",
"g  c #4D6F78",
"h  c #466673",
"j  c #586E74",
"k  c #4F717A",
"l  c #4C7479",
"z  c #52747C",
"x  c #56797D",
"c  c #59797D",
"v  c #507377",
"b  c #646363",
"n  c #6E6C66",
"m  c #726764",
"M  c #776E67",
"N  c #697367",
"B  c #797367",
"V  c #73736E",
"C  c #777569",
"Z  c #716E77",
"A  c #65797D",
"S  c #767571",
"D  c #757A75",
"F  c #74787E",
"G  c #7B7A78",
"H  c #943459",
"J  c #AF295B",
"K  c #A8355E",
"L  c #B93A67",
"P  c #D03B7F",
"I  c #834C61",
"U  c #AB5C79",
"Y  c #916E68",
"T  c #837B63",
"R  c #827968",
"E  c #91746A",
"W  c #977A6A",
"Q  c #837B78",
"!  c #9D7D75",
"~  c #9C7771",
"^  c #836C66",
"/  c #A97965",
"(  c #C3527E",
")  c #CE6178",
"_  c #6C8077",
"`  c #77837F",
"'  c #878359",
"]  c #898669",
"[  c #819164",
"{  c #8C8D72",
"}  c #81817D",
"|  c #8C847A",
" . c #878076",
".. c #9C8173",
"X. c #968877",
"o. c #A7877A",
"O. c #B28C7F",
"+. c #A58D71",
"@. c #9EA87C",
"#. c #ABAF7D",
"$. c #AAB676",
"%. c #DCDA61",
"&. c #D5C77C",
"*. c #4B7482",
"=. c #4E7884",
"-. c #557780",
";. c #547A84",
":. c #5B7C83",
">. c #5B7888",
",. c #6A7F84",
"<. c #7D7E82",
"1. c #777B84",
"2. c #877F8C",
"3. c #EF5A9C",
"4. c #EA4883",
"5. c #DA7993",
"6. c #5A828E",
"7. c #5B8994",
"8. c #658787",
"9. c #758986",
"0. c #69959A",
"q. c #739297",
"w. c #789CA7",
"e. c #77A3A6",
"r. c #898583",
"t. c #888B8A",
"y. c #988B82",
"u. c #928982",
"i. c #8E9283",
"p. c #979388",
"a. c #898993",
"s. c #83959D",
"d. c #9D9792",
"f. c #9A9E97",
"g. c #989898",
"h. c #A18E84",
"j. c #AB8D82",
"k. c #AE8F8A",
"l. c #A5978A",
"z. c #BA9489",
"x. c #BF8E94",
"c. c #A69B96",
"v. c #81A49D",
"b. c #92A295",
"n. c #A5A28F",
"m. c #B3A68C",
"M. c #B2AB9A",
"N. c #ABB097",
"B. c #A59BA3",
"V. c #87AFAF",
"C. c #9BA3AA",
"Z. c #92BCB0",
"A. c #A7A7A5",
"S. c #B5ABA7",
"D. c #B6B2AB",
"F. c #AAABB2",
"G. c #ABA7B5",
"H. c #A7B2B5",
"J. c #B4B6B9",
"K. c #B6B7B4",
"L. c #A9B7A8",
"P. c #C79B8E",
"I. c #C9A396",
"U. c #CFA49D",
"Y. c #D6B79A",
"T. c #D49DA4",
"R. c #C99CA3",
"E. c #C8B5A5",
"W. c #C2BBB1",
"Q. c #D3CA9F",
"!. c #D5DA98",
"~. c #EDE69E",
"^. c #CACBAE",
"/. c #C3C3B6",
"(. c #D9C6BA",
"). c #DBD2B3",
"_. c #E4E6A7",
"`. c #94BDC1",
"'. c #BBBEC3",
"]. c #A2B5C3",
"[. c #BDC2C6",
"{. c #A4C4D4",
"}. c #C6C9CC",
"|. c #C8C6C7",
" X c #D9D1CE",
".X c #CFD3D7",
"XX c #D3D5DA",
"oX c #D6DCDE",
"OX c #D5D7D9",
"+X c #E0DFDA",
"@X c #F1C8C9",
"#X c #E7E6D8",
"$X c #CFDEE3",
"%X c #D3DBE3",
"&X c #DCDEE2",
"*X c #E0DAE4",
"=X c #DBE1E4",
"-X c #DAE2E9",
";X c #D8E5EB",
":X c #DFE5F1",
">X c #E4EBEE",
",X c #E7E9E7",
"<X c #F2F3EE",
"1X c #E0E9F2",
"2X c #E3F1FA",
"3X c #F1F4F3",
"4X c #F8F7F5",
"5X c #FEFBF3",
"6X c #FDFDFD",
"7X c #F6F8F9",
/* pixels */
"&X,X=X-X:X%X1X%XoXXX.X[.}.}.OX4X3X5X<X7X5X4X6X5X6X",
"oX=X-X%X%X-X%X-X;X:XA.n r.D.=X>X6X5X6X6X6X6X6X6X6X",
"J.OX.X.X=X%X%XoX2XJ.O E j.9 F.%X>X6X6X6X6X6X6X6X6X",
"3 } G D G F.J.A.'.4 u I.I.k.Q |.}.&X7X3X,X5X#X#X+X",
"B m n C } Z g.| V , ^ k.j.! y. .t.g.t.G } r.G D n ",
"E.D.d.l./.r.B.M.y.o 7 Y ! q ..X.f.t.t.S V Q 0 > 3 ",
"m.R X.i p.a.|.#Xh.o ~ z.U.z.j.k.}.C.K.M.n.^.).n.u.",
"i T { @ y G.*X#Xl.+ E O.o.o.E h.3XH.f.] @.!.~._.Q.",
"1 6 t m F J.S.| X.  4 o./ j.9 u D.XXc.i i ' #.m.{ ",
"> V y b V b.D.b q O   W z.o.7 u F.C.r.i.C R { C b ",
"8 y n 3 M (.W.> q .   ..+.j.9 M {.].<.p.F.A.f.S r ",
"a D ` b p.P.Y.T @ X # S.I.E.f.,.w.w.s.a.<.<.K.K.A.",
"s.9._ K 5.(.m.6 < s d F p.d.A 6.>.*.7.w.f.c.p.L.t.",
"A.i.] ) T. Xw 5 d z c c f f -.;.6.l : j d.@X@XR.t.",
"c.r.x.5.T.c.. * h :.c x =.*.;.x ;.g - s v.Z.$XH.q.",
"8 ( 3.P 4.q X - f c :.;.f -.z l *.j & % w.0.{.`.0.",
"I H J L U 2 # & z ;.:.k g z z z v d - = @.&.N.^.] ",
"8.A 1.t.9.e * * z ;.:.g f z g g v & - $ [ %.$./.' ",
"q.0.e.V.8.s ; $ z ;.:.g h k f f s p $ % N +.C.K.V "
};
