/* XPM */
static const char *micro_pmenard[] = {
/* columns rows colors chars-per-pixel */
"25 19 196 2 ",
"   c #050603",
".  c #080C0B",
"X  c #100C09",
"o  c #11120D",
"O  c #18150E",
"+  c #141613",
"@  c #1A1412",
"#  c #1C1A16",
"$  c #131718",
"%  c #1B1C1B",
"&  c #171B1C",
"*  c #1E201B",
"=  c #26231E",
"-  c #29261F",
";  c #1D1E20",
":  c #1D2122",
">  c #222525",
",  c #2D2522",
"<  c #2B2926",
"1  c #25292A",
"2  c #2E2D2B",
"3  c #322F2C",
"4  c #35302D",
"5  c #3C332A",
"6  c #393625",
"7  c #2E2F31",
"8  c #2D3132",
"9  c #343635",
"0  c #3F3631",
"q  c #333A37",
"w  c #3C3935",
"e  c #353638",
"r  c #343B3C",
"t  c #3C3E3D",
"y  c #412A1C",
"u  c #45392D",
"i  c #423C35",
"p  c #443E39",
"a  c #4E3B34",
"s  c #5B3B30",
"d  c #3C413C",
"f  c #444037",
"g  c #4D4237",
"h  c #44403C",
"j  c #4C443C",
"k  c #4C4A3E",
"l  c #504237",
"z  c #56453C",
"x  c #55493E",
"c  c #5A4638",
"v  c #3B3F40",
"b  c #3D4343",
"n  c #424646",
"m  c #4B4642",
"M  c #4F4A43",
"N  c #434748",
"B  c #444B4A",
"V  c #4B4E4C",
"C  c #434844",
"Z  c #554C42",
"A  c #594D42",
"S  c #544E4C",
"D  c #594E48",
"F  c #4F514E",
"G  c #5B5146",
"H  c #5D534B",
"J  c #5D594E",
"K  c #465153",
"L  c #4C5556",
"P  c #475659",
"I  c #4E5658",
"U  c #535454",
"Y  c #595252",
"T  c #5A5957",
"R  c #525C5D",
"E  c #5B5B5A",
"W  c #655547",
"Q  c #685747",
"!  c #62564B",
"~  c #695648",
"^  c #67594E",
"/  c #6B5B4D",
"(  c #645B56",
")  c #6A5C52",
"_  c #645B57",
"`  c #705C51",
"'  c #73644F",
"]  c #6E6055",
"[  c #64645C",
"{  c #6C6259",
"}  c #736454",
"|  c #74655A",
" . c #7A6659",
".. c #766A5C",
"X. c #7B6B5C",
"o. c #796254",
"O. c #596364",
"+. c #576363",
"@. c #636763",
"#. c #6A6667",
"$. c #6F6860",
"%. c #696768",
"&. c #666B6C",
"*. c #726C62",
"=. c #7C6E63",
"-. c #706B68",
";. c #7B7163",
":. c #75736B",
">. c #6B6F70",
",. c #757574",
"<. c #7A7773",
"1. c #7C7872",
"2. c #7D787E",
"3. c #77757A",
"4. c #87675A",
"5. c #816D5B",
"6. c #816F65",
"7. c #827163",
"8. c #8A7666",
"9. c #887966",
"0. c #83786C",
"q. c #957669",
"w. c #847D72",
"e. c #897C73",
"r. c #8A857D",
"t. c #938475",
"y. c #9A897C",
"u. c #A98C7C",
"i. c #838987",
"p. c #8F8882",
"a. c #8B8789",
"s. c #938C83",
"d. c #938D8B",
"f. c #99938A",
"g. c #9E9888",
"h. c #999382",
"j. c #949292",
"k. c #9D9895",
"l. c #999A9C",
"z. c #AB9180",
"x. c #A39389",
"c. c #A19B8F",
"v. c #A49789",
"b. c #B39888",
"n. c #A49B93",
"m. c #A99B92",
"M. c #ABA393",
"N. c #A6A395",
"B. c #B7A194",
"V. c #B0A69C",
"C. c #B2A99F",
"Z. c #A4A1A3",
"A. c #A9A4A0",
"S. c #B3ACA3",
"D. c #BAAFA5",
"F. c #B4AFA9",
"G. c #BBB1A7",
"H. c #BCB5AC",
"J. c #B6B2A9",
"K. c #B5B1B2",
"L. c #C6B6A9",
"P. c #C4BAAD",
"I. c #C9BFB5",
"U. c #C5BDBA",
"Y. c #BDC2BE",
"T. c #C1C0BE",
"R. c #CBCABD",
"E. c #CCC3B6",
"W. c #D4C8B8",
"Q. c #C8C6C3",
"!. c #CFCAC4",
"~. c #D2C7C1",
"^. c #D1CDCB",
"/. c #D3CCC4",
"(. c #D3D2CD",
"). c #DCD8CF",
"_. c #D6D5C9",
"`. c #D1CFD0",
"'. c #D2D3D4",
"]. c #DCDCD0",
"[. c #E1D3C7",
"{. c #E8D8CB",
"}. c #E4DEDE",
"|. c #E5E3D7",
" X c #E8E5DC",
".X c #ECEAE8",
"XX c #F3EDEF",
"oX c #F5EBE2",
"OX c #F4F3E7",
"+X c #FAF4E4",
"@X c #F1EFF2",
"#X c #F7F6F4",
"$X c #F7F8F2",
"%X c #FDFCF5",
"&X c #FCFFFF",
"*X c #F8F4F1",
/* pixels */
"D D A A | { 0 @ O # @ % * # # 4 < < < = < = = 3 < ",
"j g u x A G Z p i i i w i i f i h h p p i Z M M H ",
"h.t.9.^ x H G A A D H G A ! ! x A A D x x x x G ) ",
"' 9.X.| ..) ^ } } } | / Q c ~ =.| } | X.X...} | } ",
"5.8.7.X.y.{.L.X.X.X.|  .b.z.8.} X. .| X.) | } o.| ",
"X.t.} } 7.x.x.X./ } Q 5.b.u.o.! ) ] / ! *.$.) ~ ! ",
"[.x.M.M.;.w.5 H W.m.X.8.q.4./ ;.J.I.M.0.Q.#XH.x G ",
"oXD.M.+Xr.s.g _ P.E.[.B.q.s ` 0.^./.E.!.'.&X|.M.n.",
" XG.n.%X(.s.5 H H.)..Xe.o.c H l.^.J.P.f.A.*XR.M.*.",
"OXS.~.%X%X).5 k %X$X(.s. .y ^ j.T.S.n.1.k.}.).g.J ",
"|.C.V.R._.OXM [ Y.i.@.:.y.~ ! [ ,.k.F.r.a.XXU.D._ ",
"_.D.^ 6 N.].<.@.R +.&.F j g m V L U <.,.Z.@XQ.d.( ",
"C.6.6...s.f.:.L I O.+.R U V V K R B b U j.'..Xa.S ",
"e.| =.} c.p.Y b B +.R R R L K P K b q t . >.'.>.Y ",
"*.! z ] Z r.U r t U R L L I K L B r ; t   E '.3.S ",
"w.l a =.- <.E r e B n b B B C d d > % h o %.`.2.Y ",
"m., 2 w X 9 E q & 8 r b b n b 8 : & + b % T ^.j.-.",
"H +     # m E t 7 v b b n n b 8 1 $ . C 9 2 #.E S ",
"o + % U , _ ( 3 n B N n B B v 8 1 > & e t %.K.Z.d."
};
