/* XPM */
static const char *micro_rrodor[] = {
/* columns rows colors chars-per-pixel */
"25 19 200 2 ",
"   c #0B0100",
".  c #140104",
"X  c #1A0906",
"o  c #240A01",
"O  c #220F09",
"+  c #320F00",
"@  c #261103",
"#  c #2B1706",
"$  c #361606",
"%  c #270D10",
"&  c #271816",
"*  c #371B15",
"=  c #3D280D",
"-  c #372018",
";  c #3E2516",
":  c #2D2E32",
">  c #3D3936",
",  c #4A210B",
"<  c #44291D",
"1  c #4C2C1B",
"2  c #422611",
"3  c #4B3618",
"4  c #653102",
"5  c #6D3419",
"6  c #713914",
"7  c #4D3C2A",
"8  c #54352B",
"9  c #5B3B2D",
"0  c #573825",
"q  c #4B3A33",
"w  c #5A3E30",
"e  c #623824",
"r  c #56441E",
"t  c #6B4C19",
"y  c #784319",
"u  c #5D442C",
"i  c #5D4636",
"p  c #66492A",
"a  c #704429",
"s  c #664A39",
"d  c #724734",
"f  c #6B5838",
"g  c #745D3D",
"h  c #73523D",
"j  c #5A5655",
"k  c #4C4847",
"l  c #664D46",
"z  c #665F4F",
"x  c #7B5E49",
"c  c #695E54",
"v  c #745E51",
"b  c #65625B",
"n  c #6B625C",
"m  c #72655C",
"M  c #766B5E",
"N  c #7D695B",
"B  c #5D5E60",
"V  c #626563",
"C  c #6A6664",
"Z  c #6C6966",
"A  c #6A6C6B",
"S  c #7D6C64",
"D  c #756D67",
"F  c #7D7264",
"G  c #7D756B",
"H  c #7A766E",
"J  c #7A7B76",
"K  c #844B2D",
"L  c #8C4729",
"P  c #914C2B",
"I  c #845029",
"U  c #824F3E",
"Y  c #9A4C3B",
"T  c #83563C",
"R  c #985C3B",
"E  c #985133",
"W  c #A55B2E",
"Q  c #A3613E",
"!  c #815C49",
"~  c #9E5E42",
"^  c #B75A44",
"/  c #806B4E",
"(  c #9A654D",
")  c #827348",
"_  c #89685B",
"`  c #89735E",
"'  c #9D7258",
"]  c #AD6E4B",
"[  c #B6604F",
"{  c #B2684B",
"}  c #A76650",
"|  c #A16B51",
" . c #B26658",
".. c #AB7A5A",
"X. c #AC7058",
"o. c #826B62",
"O. c #85746A",
"+. c #85786A",
"@. c #967462",
"#. c #9C7966",
"$. c #837A72",
"%. c #897C74",
"&. c #847B7A",
"*. c #A07F76",
"=. c #9C8267",
"-. c #86837C",
";. c #8D837D",
":. c #9F8A75",
">. c #9A867A",
",. c #BF8265",
"<. c #A68A7A",
"1. c #BB8873",
"2. c #AD937C",
"3. c #C98C6F",
"4. c #C38A78",
"5. c #7D8685",
"6. c #7D8590",
"7. c #888B88",
"8. c #958B85",
"9. c #9B9185",
"0. c #92959E",
"q. c #A08780",
"w. c #AA8C8C",
"e. c #AC8E86",
"r. c #A3978C",
"t. c #A99689",
"y. c #B59888",
"u. c #A39B93",
"i. c #A1989B",
"p. c #AFA69C",
"a. c #BDA594",
"s. c #B4AA9F",
"d. c #B0A39B",
"f. c #9699A0",
"g. c #9FA3A7",
"h. c #AAA6A6",
"j. c #B1A3A2",
"k. c #BBABA5",
"l. c #BCB6AC",
"z. c #B3B5A8",
"x. c #B4B7B1",
"c. c #B3B5B9",
"v. c #B7B8B6",
"b. c #DE8E85",
"n. c #C49A8C",
"m. c #D49B83",
"M. c #D2A48C",
"N. c #C0AF9F",
"B. c #C2AC97",
"V. c #D5A193",
"C. c #E4A288",
"Z. c #C6B6AC",
"A. c #D0B5A2",
"S. c #C3BDBA",
"D. c #C7ABA8",
"F. c #E3B3A5",
"G. c #BAC2BD",
"H. c #D5C0AB",
"J. c #C5C0BA",
"K. c #CFC0B9",
"L. c #D6C5B5",
"P. c #B7BDC9",
"I. c #B9C0CA",
"U. c #BFC8D1",
"Y. c #CBC9C3",
"T. c #C7CBC6",
"R. c #D4CEC4",
"E. c #D2CFCD",
"W. c #D5D3CE",
"Q. c #DBD5CD",
"!. c #C8D6DF",
"~. c #C4D1D5",
"^. c #D5D5D3",
"/. c #DAD7D2",
"(. c #D7D8D3",
"). c #E2D8CF",
"_. c #E4E5DE",
"`. c #ECE5DB",
"'. c #EAE0D7",
"]. c #CBD9E2",
"[. c #D7DFE1",
"{. c #DCE1E1",
"}. c #D9E1E5",
"|. c #ECE7E1",
" X c #ECEAE4",
".X c #E7EAE7",
"XX c #F5EBE4",
"oX c #E8F0EC",
"OX c #F4F3EC",
"+X c #FDFBEF",
"@X c #FDF4EB",
"#X c #EFFBFD",
"$X c #E2F3FA",
"%X c #F5F5F4",
"&X c #FAF7F3",
"*X c #FCFAF5",
"=X c #F3F7FB",
"-X c #F5FCFB",
";X c #FEFEFD",
":X c #F4FAF0",
/* pixels */
"F O.o.S S n b V b c D Z V B V 7.l.|.&Xu.r.r.p.u.s.",
"i.&.$.F M F D C C n n k q m |.*X&X/.S.;.O.%.M D m ",
"h.c.h.-.J G m S A S q X , + v a.-.H Z $.F F F %.9.",
"x.A f.I.0.J $.M &.w o *.m.( o 1 O.$.%.G G s.Q.&X;X",
"+Xx.g.6.P.c.7.H O.0 1 n.3.| 8 o x >.%.l.R./.;X=X;X",
"XXW.;XT.J ~.c.f.#.* 9 U X.5 e - u t.).;XW.W.;X;X;X",
"*XW.*X;XG.5.}.U.T % _ 4.m.~ K < . K.;X*X X_.*X;X;X",
"+X/.;X;X;Xg.G.oXT & _ C.4.P W 1   8.;X;X_.Q.*X;X;X",
"*X/.*X;X;X}.h.S.0 * i F.b.^ R & . h ;X;X.X^.*X-X;X",
";XW.;X;X-X*XZ.s = & $ M.V.Q y   O 3 Z.;XOXY.;X;X;X",
"*XE.;X;X*X*XA.e # & $ ..y.I 4 X @ = t.*X_.R.;X;X;X",
";XE.*X;X;X@Xy.a 2 ; d ..1.] 6 % ; @ p '.OX`.;X;X;X",
"*XJ.&X;X-X Xy.h 8 e 2.@.} { ' s $ * 1 L.*XQ.;X*X;X",
";XY.;X;X-X Xd.N %.! +.z ( ,.2.i < X $ =.XX(.-X;X%X",
";X^.OX*X%XE.8.l ;.y.9.u.@.' g f / 9 u t N.#X*X;X^.",
"#X{.*X;X|.J.k.<.p.D.e.q.y.x p ` ) g f t :.$X:X;Xx.",
"=X].OXT.oXB.Z.j.k.z.w.> o.Y R ^ E d r 3 :.H.%X;Xj.",
".X].`..X{.a.>.&.j.l.w.j _ Y E [ L f r 7 y.<.V 0.r.",
"[.~.).;X^.a.m j j.Z.t.%.` K L  .L 3 3 7 2.y.k : v "
};
